M48
; DRILL file {KiCad 5.1.5+dfsg1-2build2} date jue 07 ene 2021 13:01:20
; FORMAT={-:-/ absolute / inch / decimal}
; #@! TF.CreationDate,2021-01-07T13:01:20+01:00
; #@! TF.GenerationSoftware,Kicad,Pcbnew,5.1.5+dfsg1-2build2
FMAT,2
INCH
T1C0.0394
T2C0.0433
T3C0.1220
T4C0.1260
%
G90
G05
T1
X6.5965Y-3.2626
X6.5965Y-3.3626
X6.5965Y-3.4626
X6.5965Y-3.5626
X6.5965Y-3.6626
X6.5965Y-3.7626
X6.5965Y-3.8626
X6.5965Y-3.9626
X6.5965Y-4.0626
X6.5965Y-4.1626
X6.5965Y-4.2626
X6.5965Y-4.3626
X6.5965Y-4.4626
X6.5965Y-4.5626
X6.5965Y-4.6626
X4.9807Y-3.262
X4.9807Y-3.362
X4.9807Y-3.462
X4.9807Y-3.562
X4.9807Y-3.662
X4.9807Y-3.762
X4.9807Y-3.862
X4.9807Y-3.962
X4.9807Y-4.062
X4.9807Y-4.162
X4.9807Y-4.262
X4.9807Y-4.362
X4.9807Y-4.462
X4.9807Y-4.562
X4.9807Y-4.662
T2
X6.7756Y-4.5903
X6.7756Y-4.7084
X6.8937Y-4.5903
X6.8937Y-4.7084
X4.6815Y-4.5903
X4.6815Y-4.7084
X4.7996Y-4.5903
X4.7996Y-4.7084
X6.7756Y-4.1148
X6.7756Y-4.2329
X6.8937Y-4.1148
X6.8937Y-4.2329
X6.7756Y-3.6393
X6.7756Y-3.7574
X6.8937Y-3.6393
X6.8937Y-3.7574
X4.6815Y-3.1638
X4.6815Y-3.2819
X4.7996Y-3.1638
X4.7996Y-3.2819
X4.6815Y-3.6393
X4.6815Y-3.7574
X4.7996Y-3.6393
X4.7996Y-3.7574
X4.6815Y-4.1148
X4.6815Y-4.2329
X4.7996Y-4.1148
X4.7996Y-4.2329
X6.7756Y-3.1638
X6.7756Y-3.2819
X6.8937Y-3.1638
X6.8937Y-3.2819
T3
X7.0638Y-4.6493
X4.5114Y-4.6493
X7.0638Y-4.1738
X7.0638Y-3.6983
X4.5114Y-3.2228
X4.5114Y-3.6983
X4.5114Y-4.1738
X7.0638Y-3.2228
T4
X6.5945Y-4.9016
X4.9803Y-4.9016
X4.9803Y-3.0512
X6.5945Y-3.0512
T0
M30
