%TF.GenerationSoftware,KiCad,Pcbnew,5.1.5+dfsg1-2build2*%
%TF.CreationDate,2021-01-07T13:01:17+01:00*%
%TF.ProjectId,LoadCellConnectionBoard,4c6f6164-4365-46c6-9c43-6f6e6e656374,rev?*%
%TF.SameCoordinates,Original*%
%TF.FileFunction,Soldermask,Top*%
%TF.FilePolarity,Negative*%
%FSLAX46Y46*%
G04 Gerber Fmt 4.6, Leading zero omitted, Abs format (unit mm)*
G04 Created by KiCad (PCBNEW 5.1.5+dfsg1-2build2) date 2021-01-07 13:01:17*
%MOMM*%
%LPD*%
G04 APERTURE LIST*
%ADD10C,3.300000*%
%ADD11C,1.600000*%
%ADD12C,3.200000*%
%ADD13O,1.800000X1.800000*%
%ADD14R,1.800000X1.800000*%
G04 APERTURE END LIST*
D10*
X126500000Y-124500000D03*
X126500000Y-77500000D03*
X167500000Y-77500000D03*
X167500000Y-124500000D03*
D11*
X121909000Y-83360200D03*
X118909000Y-83360200D03*
X121909000Y-80360200D03*
X118909000Y-80360200D03*
D12*
X114589000Y-81860200D03*
X114589000Y-93937900D03*
D11*
X118909000Y-92437900D03*
X121909000Y-92437900D03*
X118909000Y-95437900D03*
X121909000Y-95437900D03*
X121909000Y-107515600D03*
X118909000Y-107515600D03*
X121909000Y-104515600D03*
X118909000Y-104515600D03*
D12*
X114589000Y-106015600D03*
X114589000Y-118093300D03*
D11*
X118909000Y-116593300D03*
X121909000Y-116593300D03*
X118909000Y-119593300D03*
X121909000Y-119593300D03*
X172100640Y-80360200D03*
X175100640Y-80360200D03*
X172100640Y-83360200D03*
X175100640Y-83360200D03*
D12*
X179420640Y-81860200D03*
X179420640Y-93937900D03*
D11*
X175100640Y-95437900D03*
X172100640Y-95437900D03*
X175100640Y-92437900D03*
X172100640Y-92437900D03*
X172100640Y-104515600D03*
X175100640Y-104515600D03*
X172100640Y-107515600D03*
X175100640Y-107515600D03*
D12*
X179420640Y-106015600D03*
X179420640Y-118093300D03*
D11*
X175100640Y-119593300D03*
X172100640Y-119593300D03*
X175100640Y-116593300D03*
X172100640Y-116593300D03*
D13*
X126509560Y-118415120D03*
X126509560Y-115875120D03*
X126509560Y-113335120D03*
X126509560Y-110795120D03*
X126509560Y-108255120D03*
X126509560Y-105715120D03*
X126509560Y-103175120D03*
X126509560Y-100635120D03*
X126509560Y-98095120D03*
X126509560Y-95555120D03*
X126509560Y-93015120D03*
X126509560Y-90475120D03*
X126509560Y-87935120D03*
X126509560Y-85395120D03*
D14*
X126509560Y-82855120D03*
X167550880Y-82870360D03*
D13*
X167550880Y-85410360D03*
X167550880Y-87950360D03*
X167550880Y-90490360D03*
X167550880Y-93030360D03*
X167550880Y-95570360D03*
X167550880Y-98110360D03*
X167550880Y-100650360D03*
X167550880Y-103190360D03*
X167550880Y-105730360D03*
X167550880Y-108270360D03*
X167550880Y-110810360D03*
X167550880Y-113350360D03*
X167550880Y-115890360D03*
X167550880Y-118430360D03*
M02*
