%TF.GenerationSoftware,KiCad,Pcbnew,5.1.5+dfsg1-2build2*%
%TF.CreationDate,2021-01-07T13:01:17+01:00*%
%TF.ProjectId,LoadCellConnectionBoard,4c6f6164-4365-46c6-9c43-6f6e6e656374,rev?*%
%TF.SameCoordinates,Original*%
%TF.FileFunction,Copper,L2,Bot*%
%TF.FilePolarity,Positive*%
%FSLAX46Y46*%
G04 Gerber Fmt 4.6, Leading zero omitted, Abs format (unit mm)*
G04 Created by KiCad (PCBNEW 5.1.5+dfsg1-2build2) date 2021-01-07 13:01:17*
%MOMM*%
%LPD*%
G04 APERTURE LIST*
%ADD10C,1.500000*%
%ADD11O,1.700000X1.700000*%
%ADD12R,1.700000X1.700000*%
%ADD13C,0.300000*%
%ADD14C,0.254000*%
G04 APERTURE END LIST*
D10*
X121909000Y-83360200D03*
X118909000Y-83360200D03*
X121909000Y-80360200D03*
X118909000Y-80360200D03*
X118909000Y-92437900D03*
X121909000Y-92437900D03*
X118909000Y-95437900D03*
X121909000Y-95437900D03*
X121909000Y-107515600D03*
X118909000Y-107515600D03*
X121909000Y-104515600D03*
X118909000Y-104515600D03*
X118909000Y-116593300D03*
X121909000Y-116593300D03*
X118909000Y-119593300D03*
X121909000Y-119593300D03*
X172100640Y-80360200D03*
X175100640Y-80360200D03*
X172100640Y-83360200D03*
X175100640Y-83360200D03*
X175100640Y-95437900D03*
X172100640Y-95437900D03*
X175100640Y-92437900D03*
X172100640Y-92437900D03*
X172100640Y-104515600D03*
X175100640Y-104515600D03*
X172100640Y-107515600D03*
X175100640Y-107515600D03*
X175100640Y-119593300D03*
X172100640Y-119593300D03*
X175100640Y-116593300D03*
X172100640Y-116593300D03*
D11*
X126509560Y-118415120D03*
X126509560Y-115875120D03*
X126509560Y-113335120D03*
X126509560Y-110795120D03*
X126509560Y-108255120D03*
X126509560Y-105715120D03*
X126509560Y-103175120D03*
X126509560Y-100635120D03*
X126509560Y-98095120D03*
X126509560Y-95555120D03*
X126509560Y-93015120D03*
X126509560Y-90475120D03*
X126509560Y-87935120D03*
X126509560Y-85395120D03*
D12*
X126509560Y-82855120D03*
X167550880Y-82870360D03*
D11*
X167550880Y-85410360D03*
X167550880Y-87950360D03*
X167550880Y-90490360D03*
X167550880Y-93030360D03*
X167550880Y-95570360D03*
X167550880Y-98110360D03*
X167550880Y-100650360D03*
X167550880Y-103190360D03*
X167550880Y-105730360D03*
X167550880Y-108270360D03*
X167550880Y-110810360D03*
X167550880Y-113350360D03*
X167550880Y-115890360D03*
X167550880Y-118430360D03*
D13*
X121909000Y-93498560D02*
X124500000Y-96089560D01*
X121909000Y-92437900D02*
X121909000Y-93498560D01*
X124500000Y-103705560D02*
X126509560Y-105715120D01*
X124500000Y-96089560D02*
X124500000Y-103705560D01*
X121909000Y-104515600D02*
X124000000Y-106606600D01*
X124000000Y-108285560D02*
X126509560Y-110795120D01*
X124000000Y-106606600D02*
X124000000Y-108285560D01*
X125659561Y-114185119D02*
X126509560Y-113335120D01*
X125659561Y-114782079D02*
X125659561Y-114185119D01*
X121909000Y-118532640D02*
X125659561Y-114782079D01*
X121909000Y-119593300D02*
X121909000Y-118532640D01*
X166948959Y-96856359D02*
X166000000Y-97805318D01*
X169621521Y-96856359D02*
X166948959Y-96856359D01*
X171039980Y-95437900D02*
X169621521Y-96856359D01*
X172100640Y-95437900D02*
X171039980Y-95437900D01*
X166000000Y-101639480D02*
X167550880Y-103190360D01*
X166000000Y-97805318D02*
X166000000Y-101639480D01*
X172100640Y-93498560D02*
X173500000Y-94897920D01*
X172100640Y-92437900D02*
X172100640Y-93498560D01*
X172593802Y-105730360D02*
X168752961Y-105730360D01*
X173500000Y-104824162D02*
X172593802Y-105730360D01*
X168752961Y-105730360D02*
X167550880Y-105730360D01*
X173500000Y-94897920D02*
X173500000Y-104824162D01*
X168235400Y-100650360D02*
X167550880Y-100650360D01*
X172100640Y-104515600D02*
X168235400Y-100650360D01*
X170937700Y-118430360D02*
X172100640Y-119593300D01*
X167550880Y-118430360D02*
X170937700Y-118430360D01*
X172100640Y-115360120D02*
X172100640Y-116593300D01*
X167550880Y-110810360D02*
X172100640Y-115360120D01*
D14*
G36*
X183224427Y-72366549D02*
G01*
X183440309Y-72431728D01*
X183639421Y-72537598D01*
X183814171Y-72680121D01*
X183957917Y-72853880D01*
X184065172Y-73052243D01*
X184131855Y-73267661D01*
X184157100Y-73507854D01*
X184157101Y-128483214D01*
X184133450Y-128724430D01*
X184068272Y-128940309D01*
X183962402Y-129139421D01*
X183819877Y-129314174D01*
X183646121Y-129457917D01*
X183447757Y-129565172D01*
X183232339Y-129631855D01*
X182992146Y-129657100D01*
X111016776Y-129657100D01*
X110775570Y-129633450D01*
X110559691Y-129568272D01*
X110360579Y-129462402D01*
X110185826Y-129319877D01*
X110042083Y-129146121D01*
X109934828Y-128947757D01*
X109868145Y-128732339D01*
X109842900Y-128492146D01*
X109842900Y-124304889D01*
X124519000Y-124304889D01*
X124519000Y-124695111D01*
X124595129Y-125077836D01*
X124744461Y-125438355D01*
X124961257Y-125762814D01*
X125237186Y-126038743D01*
X125561645Y-126255539D01*
X125922164Y-126404871D01*
X126304889Y-126481000D01*
X126695111Y-126481000D01*
X127077836Y-126404871D01*
X127438355Y-126255539D01*
X127762814Y-126038743D01*
X128038743Y-125762814D01*
X128255539Y-125438355D01*
X128404871Y-125077836D01*
X128481000Y-124695111D01*
X128481000Y-124304889D01*
X165519000Y-124304889D01*
X165519000Y-124695111D01*
X165595129Y-125077836D01*
X165744461Y-125438355D01*
X165961257Y-125762814D01*
X166237186Y-126038743D01*
X166561645Y-126255539D01*
X166922164Y-126404871D01*
X167304889Y-126481000D01*
X167695111Y-126481000D01*
X168077836Y-126404871D01*
X168438355Y-126255539D01*
X168762814Y-126038743D01*
X169038743Y-125762814D01*
X169255539Y-125438355D01*
X169404871Y-125077836D01*
X169481000Y-124695111D01*
X169481000Y-124304889D01*
X169404871Y-123922164D01*
X169255539Y-123561645D01*
X169038743Y-123237186D01*
X168762814Y-122961257D01*
X168438355Y-122744461D01*
X168077836Y-122595129D01*
X167695111Y-122519000D01*
X167304889Y-122519000D01*
X166922164Y-122595129D01*
X166561645Y-122744461D01*
X166237186Y-122961257D01*
X165961257Y-123237186D01*
X165744461Y-123561645D01*
X165595129Y-123922164D01*
X165519000Y-124304889D01*
X128481000Y-124304889D01*
X128404871Y-123922164D01*
X128255539Y-123561645D01*
X128038743Y-123237186D01*
X127762814Y-122961257D01*
X127438355Y-122744461D01*
X127077836Y-122595129D01*
X126695111Y-122519000D01*
X126304889Y-122519000D01*
X125922164Y-122595129D01*
X125561645Y-122744461D01*
X125237186Y-122961257D01*
X124961257Y-123237186D01*
X124744461Y-123561645D01*
X124595129Y-123922164D01*
X124519000Y-124304889D01*
X109842900Y-124304889D01*
X109842900Y-117903113D01*
X112658000Y-117903113D01*
X112658000Y-118283487D01*
X112732208Y-118656552D01*
X112877770Y-119007971D01*
X113089095Y-119324241D01*
X113358059Y-119593205D01*
X113674329Y-119804530D01*
X114025748Y-119950092D01*
X114398813Y-120024300D01*
X114779187Y-120024300D01*
X115152252Y-119950092D01*
X115503671Y-119804530D01*
X115819941Y-119593205D01*
X115931240Y-119481906D01*
X117778000Y-119481906D01*
X117778000Y-119704694D01*
X117821464Y-119923200D01*
X117906721Y-120129029D01*
X118030495Y-120314270D01*
X118188030Y-120471805D01*
X118373271Y-120595579D01*
X118579100Y-120680836D01*
X118797606Y-120724300D01*
X119020394Y-120724300D01*
X119238900Y-120680836D01*
X119444729Y-120595579D01*
X119629970Y-120471805D01*
X119787505Y-120314270D01*
X119911279Y-120129029D01*
X119996536Y-119923200D01*
X120040000Y-119704694D01*
X120040000Y-119481906D01*
X119996536Y-119263400D01*
X119911279Y-119057571D01*
X119787505Y-118872330D01*
X119629970Y-118714795D01*
X119444729Y-118591021D01*
X119238900Y-118505764D01*
X119020394Y-118462300D01*
X118797606Y-118462300D01*
X118579100Y-118505764D01*
X118373271Y-118591021D01*
X118188030Y-118714795D01*
X118030495Y-118872330D01*
X117906721Y-119057571D01*
X117821464Y-119263400D01*
X117778000Y-119481906D01*
X115931240Y-119481906D01*
X116088905Y-119324241D01*
X116300230Y-119007971D01*
X116445792Y-118656552D01*
X116520000Y-118283487D01*
X116520000Y-117903113D01*
X116449820Y-117550293D01*
X118131612Y-117550293D01*
X118197137Y-117789160D01*
X118444116Y-117905060D01*
X118708960Y-117970550D01*
X118981492Y-117983112D01*
X119251238Y-117942265D01*
X119507832Y-117849577D01*
X119620863Y-117789160D01*
X119686388Y-117550293D01*
X118909000Y-116772905D01*
X118131612Y-117550293D01*
X116449820Y-117550293D01*
X116445792Y-117530048D01*
X116300230Y-117178629D01*
X116088905Y-116862359D01*
X115892338Y-116665792D01*
X117519188Y-116665792D01*
X117560035Y-116935538D01*
X117652723Y-117192132D01*
X117713140Y-117305163D01*
X117952007Y-117370688D01*
X118729395Y-116593300D01*
X119088605Y-116593300D01*
X119865993Y-117370688D01*
X120104860Y-117305163D01*
X120220760Y-117058184D01*
X120286250Y-116793340D01*
X120298812Y-116520808D01*
X120292922Y-116481906D01*
X120778000Y-116481906D01*
X120778000Y-116704694D01*
X120821464Y-116923200D01*
X120906721Y-117129029D01*
X121030495Y-117314270D01*
X121188030Y-117471805D01*
X121373271Y-117595579D01*
X121579100Y-117680836D01*
X121797606Y-117724300D01*
X121966394Y-117724300D01*
X121551971Y-118138723D01*
X121531711Y-118155350D01*
X121515084Y-118175610D01*
X121515083Y-118175611D01*
X121465354Y-118236205D01*
X121416047Y-118328453D01*
X121385684Y-118428547D01*
X121375432Y-118532640D01*
X121378001Y-118558724D01*
X121378001Y-118589062D01*
X121373271Y-118591021D01*
X121188030Y-118714795D01*
X121030495Y-118872330D01*
X120906721Y-119057571D01*
X120821464Y-119263400D01*
X120778000Y-119481906D01*
X120778000Y-119704694D01*
X120821464Y-119923200D01*
X120906721Y-120129029D01*
X121030495Y-120314270D01*
X121188030Y-120471805D01*
X121373271Y-120595579D01*
X121579100Y-120680836D01*
X121797606Y-120724300D01*
X122020394Y-120724300D01*
X122238900Y-120680836D01*
X122444729Y-120595579D01*
X122629970Y-120471805D01*
X122787505Y-120314270D01*
X122911279Y-120129029D01*
X122996536Y-119923200D01*
X123040000Y-119704694D01*
X123040000Y-119481906D01*
X122996536Y-119263400D01*
X122911279Y-119057571D01*
X122787505Y-118872330D01*
X122629970Y-118714795D01*
X122538745Y-118653841D01*
X122898709Y-118293877D01*
X125278560Y-118293877D01*
X125278560Y-118536363D01*
X125325867Y-118774189D01*
X125418662Y-118998217D01*
X125553380Y-119199837D01*
X125724843Y-119371300D01*
X125926463Y-119506018D01*
X126150491Y-119598813D01*
X126388317Y-119646120D01*
X126630803Y-119646120D01*
X126868629Y-119598813D01*
X127092657Y-119506018D01*
X127294277Y-119371300D01*
X127465740Y-119199837D01*
X127600458Y-118998217D01*
X127693253Y-118774189D01*
X127740560Y-118536363D01*
X127740560Y-118309117D01*
X166319880Y-118309117D01*
X166319880Y-118551603D01*
X166367187Y-118789429D01*
X166459982Y-119013457D01*
X166594700Y-119215077D01*
X166766163Y-119386540D01*
X166967783Y-119521258D01*
X167191811Y-119614053D01*
X167429637Y-119661360D01*
X167672123Y-119661360D01*
X167909949Y-119614053D01*
X168133977Y-119521258D01*
X168335597Y-119386540D01*
X168507060Y-119215077D01*
X168641778Y-119013457D01*
X168663357Y-118961360D01*
X170717754Y-118961360D01*
X171015063Y-119258670D01*
X171013104Y-119263400D01*
X170969640Y-119481906D01*
X170969640Y-119704694D01*
X171013104Y-119923200D01*
X171098361Y-120129029D01*
X171222135Y-120314270D01*
X171379670Y-120471805D01*
X171564911Y-120595579D01*
X171770740Y-120680836D01*
X171989246Y-120724300D01*
X172212034Y-120724300D01*
X172430540Y-120680836D01*
X172636369Y-120595579D01*
X172704144Y-120550293D01*
X174323252Y-120550293D01*
X174388777Y-120789160D01*
X174635756Y-120905060D01*
X174900600Y-120970550D01*
X175173132Y-120983112D01*
X175442878Y-120942265D01*
X175699472Y-120849577D01*
X175812503Y-120789160D01*
X175878028Y-120550293D01*
X175100640Y-119772905D01*
X174323252Y-120550293D01*
X172704144Y-120550293D01*
X172821610Y-120471805D01*
X172979145Y-120314270D01*
X173102919Y-120129029D01*
X173188176Y-119923200D01*
X173231640Y-119704694D01*
X173231640Y-119665792D01*
X173710828Y-119665792D01*
X173751675Y-119935538D01*
X173844363Y-120192132D01*
X173904780Y-120305163D01*
X174143647Y-120370688D01*
X174921035Y-119593300D01*
X175280245Y-119593300D01*
X176057633Y-120370688D01*
X176296500Y-120305163D01*
X176412400Y-120058184D01*
X176477890Y-119793340D01*
X176490452Y-119520808D01*
X176449605Y-119251062D01*
X176356917Y-118994468D01*
X176296500Y-118881437D01*
X176057633Y-118815912D01*
X175280245Y-119593300D01*
X174921035Y-119593300D01*
X174143647Y-118815912D01*
X173904780Y-118881437D01*
X173788880Y-119128416D01*
X173723390Y-119393260D01*
X173710828Y-119665792D01*
X173231640Y-119665792D01*
X173231640Y-119481906D01*
X173188176Y-119263400D01*
X173102919Y-119057571D01*
X172979145Y-118872330D01*
X172821610Y-118714795D01*
X172704145Y-118636307D01*
X174323252Y-118636307D01*
X175100640Y-119413695D01*
X175878028Y-118636307D01*
X175812503Y-118397440D01*
X175565524Y-118281540D01*
X175300680Y-118216050D01*
X175028148Y-118203488D01*
X174758402Y-118244335D01*
X174501808Y-118337023D01*
X174388777Y-118397440D01*
X174323252Y-118636307D01*
X172704145Y-118636307D01*
X172636369Y-118591021D01*
X172430540Y-118505764D01*
X172212034Y-118462300D01*
X171989246Y-118462300D01*
X171770740Y-118505764D01*
X171766010Y-118507723D01*
X171331621Y-118073335D01*
X171314990Y-118053070D01*
X171234135Y-117986714D01*
X171141888Y-117937407D01*
X171041794Y-117907043D01*
X171001891Y-117903113D01*
X177489640Y-117903113D01*
X177489640Y-118283487D01*
X177563848Y-118656552D01*
X177709410Y-119007971D01*
X177920735Y-119324241D01*
X178189699Y-119593205D01*
X178505969Y-119804530D01*
X178857388Y-119950092D01*
X179230453Y-120024300D01*
X179610827Y-120024300D01*
X179983892Y-119950092D01*
X180335311Y-119804530D01*
X180651581Y-119593205D01*
X180920545Y-119324241D01*
X181131870Y-119007971D01*
X181277432Y-118656552D01*
X181351640Y-118283487D01*
X181351640Y-117903113D01*
X181277432Y-117530048D01*
X181131870Y-117178629D01*
X180920545Y-116862359D01*
X180651581Y-116593395D01*
X180335311Y-116382070D01*
X179983892Y-116236508D01*
X179610827Y-116162300D01*
X179230453Y-116162300D01*
X178857388Y-116236508D01*
X178505969Y-116382070D01*
X178189699Y-116593395D01*
X177920735Y-116862359D01*
X177709410Y-117178629D01*
X177563848Y-117530048D01*
X177489640Y-117903113D01*
X171001891Y-117903113D01*
X170963784Y-117899360D01*
X170963774Y-117899360D01*
X170937700Y-117896792D01*
X170911626Y-117899360D01*
X168663357Y-117899360D01*
X168641778Y-117847263D01*
X168507060Y-117645643D01*
X168335597Y-117474180D01*
X168133977Y-117339462D01*
X167909949Y-117246667D01*
X167672123Y-117199360D01*
X167429637Y-117199360D01*
X167191811Y-117246667D01*
X166967783Y-117339462D01*
X166766163Y-117474180D01*
X166594700Y-117645643D01*
X166459982Y-117847263D01*
X166367187Y-118071291D01*
X166319880Y-118309117D01*
X127740560Y-118309117D01*
X127740560Y-118293877D01*
X127693253Y-118056051D01*
X127600458Y-117832023D01*
X127465740Y-117630403D01*
X127294277Y-117458940D01*
X127092657Y-117324222D01*
X126868629Y-117231427D01*
X126630803Y-117184120D01*
X126388317Y-117184120D01*
X126150491Y-117231427D01*
X125926463Y-117324222D01*
X125724843Y-117458940D01*
X125553380Y-117630403D01*
X125418662Y-117832023D01*
X125325867Y-118056051D01*
X125278560Y-118293877D01*
X122898709Y-118293877D01*
X125278560Y-115914027D01*
X125278560Y-115996363D01*
X125325867Y-116234189D01*
X125418662Y-116458217D01*
X125553380Y-116659837D01*
X125724843Y-116831300D01*
X125926463Y-116966018D01*
X126150491Y-117058813D01*
X126388317Y-117106120D01*
X126630803Y-117106120D01*
X126868629Y-117058813D01*
X127092657Y-116966018D01*
X127294277Y-116831300D01*
X127465740Y-116659837D01*
X127600458Y-116458217D01*
X127693253Y-116234189D01*
X127740560Y-115996363D01*
X127740560Y-115769117D01*
X166319880Y-115769117D01*
X166319880Y-116011603D01*
X166367187Y-116249429D01*
X166459982Y-116473457D01*
X166594700Y-116675077D01*
X166766163Y-116846540D01*
X166967783Y-116981258D01*
X167191811Y-117074053D01*
X167429637Y-117121360D01*
X167672123Y-117121360D01*
X167909949Y-117074053D01*
X168133977Y-116981258D01*
X168335597Y-116846540D01*
X168507060Y-116675077D01*
X168641778Y-116473457D01*
X168734573Y-116249429D01*
X168781880Y-116011603D01*
X168781880Y-115769117D01*
X168734573Y-115531291D01*
X168641778Y-115307263D01*
X168507060Y-115105643D01*
X168335597Y-114934180D01*
X168133977Y-114799462D01*
X167909949Y-114706667D01*
X167672123Y-114659360D01*
X167429637Y-114659360D01*
X167191811Y-114706667D01*
X166967783Y-114799462D01*
X166766163Y-114934180D01*
X166594700Y-115105643D01*
X166459982Y-115307263D01*
X166367187Y-115531291D01*
X166319880Y-115769117D01*
X127740560Y-115769117D01*
X127740560Y-115753877D01*
X127693253Y-115516051D01*
X127600458Y-115292023D01*
X127465740Y-115090403D01*
X127294277Y-114918940D01*
X127092657Y-114784222D01*
X126868629Y-114691427D01*
X126630803Y-114644120D01*
X126388317Y-114644120D01*
X126190561Y-114683457D01*
X126190561Y-114526783D01*
X126388317Y-114566120D01*
X126630803Y-114566120D01*
X126868629Y-114518813D01*
X127092657Y-114426018D01*
X127294277Y-114291300D01*
X127465740Y-114119837D01*
X127600458Y-113918217D01*
X127693253Y-113694189D01*
X127740560Y-113456363D01*
X127740560Y-113229117D01*
X166319880Y-113229117D01*
X166319880Y-113471603D01*
X166367187Y-113709429D01*
X166459982Y-113933457D01*
X166594700Y-114135077D01*
X166766163Y-114306540D01*
X166967783Y-114441258D01*
X167191811Y-114534053D01*
X167429637Y-114581360D01*
X167672123Y-114581360D01*
X167909949Y-114534053D01*
X168133977Y-114441258D01*
X168335597Y-114306540D01*
X168507060Y-114135077D01*
X168641778Y-113933457D01*
X168734573Y-113709429D01*
X168781880Y-113471603D01*
X168781880Y-113229117D01*
X168734573Y-112991291D01*
X168641778Y-112767263D01*
X168507060Y-112565643D01*
X168335597Y-112394180D01*
X168133977Y-112259462D01*
X167909949Y-112166667D01*
X167672123Y-112119360D01*
X167429637Y-112119360D01*
X167191811Y-112166667D01*
X166967783Y-112259462D01*
X166766163Y-112394180D01*
X166594700Y-112565643D01*
X166459982Y-112767263D01*
X166367187Y-112991291D01*
X166319880Y-113229117D01*
X127740560Y-113229117D01*
X127740560Y-113213877D01*
X127693253Y-112976051D01*
X127600458Y-112752023D01*
X127465740Y-112550403D01*
X127294277Y-112378940D01*
X127092657Y-112244222D01*
X126868629Y-112151427D01*
X126630803Y-112104120D01*
X126388317Y-112104120D01*
X126150491Y-112151427D01*
X125926463Y-112244222D01*
X125724843Y-112378940D01*
X125553380Y-112550403D01*
X125418662Y-112752023D01*
X125325867Y-112976051D01*
X125278560Y-113213877D01*
X125278560Y-113456363D01*
X125325867Y-113694189D01*
X125347447Y-113746287D01*
X125302532Y-113791202D01*
X125282272Y-113807829D01*
X125265645Y-113828089D01*
X125265644Y-113828090D01*
X125215915Y-113888684D01*
X125166608Y-113980932D01*
X125145456Y-114050662D01*
X125136245Y-114081025D01*
X125128561Y-114159035D01*
X125128561Y-114159045D01*
X125125993Y-114185119D01*
X125128561Y-114211193D01*
X125128561Y-114562132D01*
X123040000Y-116650694D01*
X123040000Y-116481906D01*
X122996536Y-116263400D01*
X122911279Y-116057571D01*
X122787505Y-115872330D01*
X122629970Y-115714795D01*
X122444729Y-115591021D01*
X122238900Y-115505764D01*
X122020394Y-115462300D01*
X121797606Y-115462300D01*
X121579100Y-115505764D01*
X121373271Y-115591021D01*
X121188030Y-115714795D01*
X121030495Y-115872330D01*
X120906721Y-116057571D01*
X120821464Y-116263400D01*
X120778000Y-116481906D01*
X120292922Y-116481906D01*
X120257965Y-116251062D01*
X120165277Y-115994468D01*
X120104860Y-115881437D01*
X119865993Y-115815912D01*
X119088605Y-116593300D01*
X118729395Y-116593300D01*
X117952007Y-115815912D01*
X117713140Y-115881437D01*
X117597240Y-116128416D01*
X117531750Y-116393260D01*
X117519188Y-116665792D01*
X115892338Y-116665792D01*
X115819941Y-116593395D01*
X115503671Y-116382070D01*
X115152252Y-116236508D01*
X114779187Y-116162300D01*
X114398813Y-116162300D01*
X114025748Y-116236508D01*
X113674329Y-116382070D01*
X113358059Y-116593395D01*
X113089095Y-116862359D01*
X112877770Y-117178629D01*
X112732208Y-117530048D01*
X112658000Y-117903113D01*
X109842900Y-117903113D01*
X109842900Y-115636307D01*
X118131612Y-115636307D01*
X118909000Y-116413695D01*
X119686388Y-115636307D01*
X119620863Y-115397440D01*
X119373884Y-115281540D01*
X119109040Y-115216050D01*
X118836508Y-115203488D01*
X118566762Y-115244335D01*
X118310168Y-115337023D01*
X118197137Y-115397440D01*
X118131612Y-115636307D01*
X109842900Y-115636307D01*
X109842900Y-105825413D01*
X112658000Y-105825413D01*
X112658000Y-106205787D01*
X112732208Y-106578852D01*
X112877770Y-106930271D01*
X113089095Y-107246541D01*
X113358059Y-107515505D01*
X113674329Y-107726830D01*
X114025748Y-107872392D01*
X114398813Y-107946600D01*
X114779187Y-107946600D01*
X115152252Y-107872392D01*
X115503671Y-107726830D01*
X115819941Y-107515505D01*
X115931240Y-107404206D01*
X117778000Y-107404206D01*
X117778000Y-107626994D01*
X117821464Y-107845500D01*
X117906721Y-108051329D01*
X118030495Y-108236570D01*
X118188030Y-108394105D01*
X118373271Y-108517879D01*
X118579100Y-108603136D01*
X118797606Y-108646600D01*
X119020394Y-108646600D01*
X119238900Y-108603136D01*
X119444729Y-108517879D01*
X119629970Y-108394105D01*
X119787505Y-108236570D01*
X119911279Y-108051329D01*
X119996536Y-107845500D01*
X120040000Y-107626994D01*
X120040000Y-107404206D01*
X120778000Y-107404206D01*
X120778000Y-107626994D01*
X120821464Y-107845500D01*
X120906721Y-108051329D01*
X121030495Y-108236570D01*
X121188030Y-108394105D01*
X121373271Y-108517879D01*
X121579100Y-108603136D01*
X121797606Y-108646600D01*
X122020394Y-108646600D01*
X122238900Y-108603136D01*
X122444729Y-108517879D01*
X122629970Y-108394105D01*
X122787505Y-108236570D01*
X122911279Y-108051329D01*
X122996536Y-107845500D01*
X123040000Y-107626994D01*
X123040000Y-107404206D01*
X122996536Y-107185700D01*
X122911279Y-106979871D01*
X122787505Y-106794630D01*
X122629970Y-106637095D01*
X122444729Y-106513321D01*
X122238900Y-106428064D01*
X122020394Y-106384600D01*
X121797606Y-106384600D01*
X121579100Y-106428064D01*
X121373271Y-106513321D01*
X121188030Y-106637095D01*
X121030495Y-106794630D01*
X120906721Y-106979871D01*
X120821464Y-107185700D01*
X120778000Y-107404206D01*
X120040000Y-107404206D01*
X119996536Y-107185700D01*
X119911279Y-106979871D01*
X119787505Y-106794630D01*
X119629970Y-106637095D01*
X119444729Y-106513321D01*
X119238900Y-106428064D01*
X119020394Y-106384600D01*
X118797606Y-106384600D01*
X118579100Y-106428064D01*
X118373271Y-106513321D01*
X118188030Y-106637095D01*
X118030495Y-106794630D01*
X117906721Y-106979871D01*
X117821464Y-107185700D01*
X117778000Y-107404206D01*
X115931240Y-107404206D01*
X116088905Y-107246541D01*
X116300230Y-106930271D01*
X116445792Y-106578852D01*
X116520000Y-106205787D01*
X116520000Y-105825413D01*
X116449820Y-105472593D01*
X118131612Y-105472593D01*
X118197137Y-105711460D01*
X118444116Y-105827360D01*
X118708960Y-105892850D01*
X118981492Y-105905412D01*
X119251238Y-105864565D01*
X119507832Y-105771877D01*
X119620863Y-105711460D01*
X119686388Y-105472593D01*
X118909000Y-104695205D01*
X118131612Y-105472593D01*
X116449820Y-105472593D01*
X116445792Y-105452348D01*
X116300230Y-105100929D01*
X116088905Y-104784659D01*
X115892338Y-104588092D01*
X117519188Y-104588092D01*
X117560035Y-104857838D01*
X117652723Y-105114432D01*
X117713140Y-105227463D01*
X117952007Y-105292988D01*
X118729395Y-104515600D01*
X119088605Y-104515600D01*
X119865993Y-105292988D01*
X120104860Y-105227463D01*
X120220760Y-104980484D01*
X120286250Y-104715640D01*
X120298812Y-104443108D01*
X120292922Y-104404206D01*
X120778000Y-104404206D01*
X120778000Y-104626994D01*
X120821464Y-104845500D01*
X120906721Y-105051329D01*
X121030495Y-105236570D01*
X121188030Y-105394105D01*
X121373271Y-105517879D01*
X121579100Y-105603136D01*
X121797606Y-105646600D01*
X122020394Y-105646600D01*
X122238900Y-105603136D01*
X122243630Y-105601177D01*
X123469000Y-106826548D01*
X123469001Y-108259476D01*
X123466432Y-108285560D01*
X123469001Y-108311644D01*
X123476684Y-108389654D01*
X123478034Y-108394105D01*
X123507047Y-108489747D01*
X123556354Y-108581995D01*
X123595283Y-108629429D01*
X123622711Y-108662850D01*
X123642971Y-108679477D01*
X125347446Y-110383954D01*
X125325867Y-110436051D01*
X125278560Y-110673877D01*
X125278560Y-110916363D01*
X125325867Y-111154189D01*
X125418662Y-111378217D01*
X125553380Y-111579837D01*
X125724843Y-111751300D01*
X125926463Y-111886018D01*
X126150491Y-111978813D01*
X126388317Y-112026120D01*
X126630803Y-112026120D01*
X126868629Y-111978813D01*
X127092657Y-111886018D01*
X127294277Y-111751300D01*
X127465740Y-111579837D01*
X127600458Y-111378217D01*
X127693253Y-111154189D01*
X127740560Y-110916363D01*
X127740560Y-110689117D01*
X166319880Y-110689117D01*
X166319880Y-110931603D01*
X166367187Y-111169429D01*
X166459982Y-111393457D01*
X166594700Y-111595077D01*
X166766163Y-111766540D01*
X166967783Y-111901258D01*
X167191811Y-111994053D01*
X167429637Y-112041360D01*
X167672123Y-112041360D01*
X167909949Y-111994053D01*
X167962047Y-111972473D01*
X171569640Y-115580067D01*
X171569640Y-115589062D01*
X171564911Y-115591021D01*
X171379670Y-115714795D01*
X171222135Y-115872330D01*
X171098361Y-116057571D01*
X171013104Y-116263400D01*
X170969640Y-116481906D01*
X170969640Y-116704694D01*
X171013104Y-116923200D01*
X171098361Y-117129029D01*
X171222135Y-117314270D01*
X171379670Y-117471805D01*
X171564911Y-117595579D01*
X171770740Y-117680836D01*
X171989246Y-117724300D01*
X172212034Y-117724300D01*
X172430540Y-117680836D01*
X172636369Y-117595579D01*
X172821610Y-117471805D01*
X172979145Y-117314270D01*
X173102919Y-117129029D01*
X173188176Y-116923200D01*
X173231640Y-116704694D01*
X173231640Y-116481906D01*
X173969640Y-116481906D01*
X173969640Y-116704694D01*
X174013104Y-116923200D01*
X174098361Y-117129029D01*
X174222135Y-117314270D01*
X174379670Y-117471805D01*
X174564911Y-117595579D01*
X174770740Y-117680836D01*
X174989246Y-117724300D01*
X175212034Y-117724300D01*
X175430540Y-117680836D01*
X175636369Y-117595579D01*
X175821610Y-117471805D01*
X175979145Y-117314270D01*
X176102919Y-117129029D01*
X176188176Y-116923200D01*
X176231640Y-116704694D01*
X176231640Y-116481906D01*
X176188176Y-116263400D01*
X176102919Y-116057571D01*
X175979145Y-115872330D01*
X175821610Y-115714795D01*
X175636369Y-115591021D01*
X175430540Y-115505764D01*
X175212034Y-115462300D01*
X174989246Y-115462300D01*
X174770740Y-115505764D01*
X174564911Y-115591021D01*
X174379670Y-115714795D01*
X174222135Y-115872330D01*
X174098361Y-116057571D01*
X174013104Y-116263400D01*
X173969640Y-116481906D01*
X173231640Y-116481906D01*
X173188176Y-116263400D01*
X173102919Y-116057571D01*
X172979145Y-115872330D01*
X172821610Y-115714795D01*
X172636369Y-115591021D01*
X172631640Y-115589062D01*
X172631640Y-115386193D01*
X172634208Y-115360119D01*
X172631640Y-115334045D01*
X172631640Y-115334036D01*
X172623957Y-115256026D01*
X172593593Y-115155932D01*
X172552213Y-115078515D01*
X172544286Y-115063684D01*
X172494557Y-115003090D01*
X172477930Y-114982830D01*
X172457670Y-114966203D01*
X168712993Y-111221527D01*
X168734573Y-111169429D01*
X168781880Y-110931603D01*
X168781880Y-110689117D01*
X168734573Y-110451291D01*
X168641778Y-110227263D01*
X168507060Y-110025643D01*
X168335597Y-109854180D01*
X168133977Y-109719462D01*
X167909949Y-109626667D01*
X167672123Y-109579360D01*
X167429637Y-109579360D01*
X167191811Y-109626667D01*
X166967783Y-109719462D01*
X166766163Y-109854180D01*
X166594700Y-110025643D01*
X166459982Y-110227263D01*
X166367187Y-110451291D01*
X166319880Y-110689117D01*
X127740560Y-110689117D01*
X127740560Y-110673877D01*
X127693253Y-110436051D01*
X127600458Y-110212023D01*
X127465740Y-110010403D01*
X127294277Y-109838940D01*
X127092657Y-109704222D01*
X126868629Y-109611427D01*
X126630803Y-109564120D01*
X126388317Y-109564120D01*
X126150491Y-109611427D01*
X126098394Y-109633006D01*
X124599264Y-108133877D01*
X125278560Y-108133877D01*
X125278560Y-108376363D01*
X125325867Y-108614189D01*
X125418662Y-108838217D01*
X125553380Y-109039837D01*
X125724843Y-109211300D01*
X125926463Y-109346018D01*
X126150491Y-109438813D01*
X126388317Y-109486120D01*
X126630803Y-109486120D01*
X126868629Y-109438813D01*
X127092657Y-109346018D01*
X127294277Y-109211300D01*
X127465740Y-109039837D01*
X127600458Y-108838217D01*
X127693253Y-108614189D01*
X127740560Y-108376363D01*
X127740560Y-108149117D01*
X166319880Y-108149117D01*
X166319880Y-108391603D01*
X166367187Y-108629429D01*
X166459982Y-108853457D01*
X166594700Y-109055077D01*
X166766163Y-109226540D01*
X166967783Y-109361258D01*
X167191811Y-109454053D01*
X167429637Y-109501360D01*
X167672123Y-109501360D01*
X167909949Y-109454053D01*
X168133977Y-109361258D01*
X168335597Y-109226540D01*
X168507060Y-109055077D01*
X168641778Y-108853457D01*
X168734573Y-108629429D01*
X168781880Y-108391603D01*
X168781880Y-108149117D01*
X168734573Y-107911291D01*
X168641778Y-107687263D01*
X168507060Y-107485643D01*
X168425623Y-107404206D01*
X170969640Y-107404206D01*
X170969640Y-107626994D01*
X171013104Y-107845500D01*
X171098361Y-108051329D01*
X171222135Y-108236570D01*
X171379670Y-108394105D01*
X171564911Y-108517879D01*
X171770740Y-108603136D01*
X171989246Y-108646600D01*
X172212034Y-108646600D01*
X172430540Y-108603136D01*
X172636369Y-108517879D01*
X172704144Y-108472593D01*
X174323252Y-108472593D01*
X174388777Y-108711460D01*
X174635756Y-108827360D01*
X174900600Y-108892850D01*
X175173132Y-108905412D01*
X175442878Y-108864565D01*
X175699472Y-108771877D01*
X175812503Y-108711460D01*
X175878028Y-108472593D01*
X175100640Y-107695205D01*
X174323252Y-108472593D01*
X172704144Y-108472593D01*
X172821610Y-108394105D01*
X172979145Y-108236570D01*
X173102919Y-108051329D01*
X173188176Y-107845500D01*
X173231640Y-107626994D01*
X173231640Y-107588092D01*
X173710828Y-107588092D01*
X173751675Y-107857838D01*
X173844363Y-108114432D01*
X173904780Y-108227463D01*
X174143647Y-108292988D01*
X174921035Y-107515600D01*
X175280245Y-107515600D01*
X176057633Y-108292988D01*
X176296500Y-108227463D01*
X176412400Y-107980484D01*
X176477890Y-107715640D01*
X176490452Y-107443108D01*
X176449605Y-107173362D01*
X176356917Y-106916768D01*
X176296500Y-106803737D01*
X176057633Y-106738212D01*
X175280245Y-107515600D01*
X174921035Y-107515600D01*
X174143647Y-106738212D01*
X173904780Y-106803737D01*
X173788880Y-107050716D01*
X173723390Y-107315560D01*
X173710828Y-107588092D01*
X173231640Y-107588092D01*
X173231640Y-107404206D01*
X173188176Y-107185700D01*
X173102919Y-106979871D01*
X172979145Y-106794630D01*
X172821610Y-106637095D01*
X172704145Y-106558607D01*
X174323252Y-106558607D01*
X175100640Y-107335995D01*
X175878028Y-106558607D01*
X175812503Y-106319740D01*
X175565524Y-106203840D01*
X175300680Y-106138350D01*
X175028148Y-106125788D01*
X174758402Y-106166635D01*
X174501808Y-106259323D01*
X174388777Y-106319740D01*
X174323252Y-106558607D01*
X172704145Y-106558607D01*
X172636369Y-106513321D01*
X172430540Y-106428064D01*
X172212034Y-106384600D01*
X171989246Y-106384600D01*
X171770740Y-106428064D01*
X171564911Y-106513321D01*
X171379670Y-106637095D01*
X171222135Y-106794630D01*
X171098361Y-106979871D01*
X171013104Y-107185700D01*
X170969640Y-107404206D01*
X168425623Y-107404206D01*
X168335597Y-107314180D01*
X168133977Y-107179462D01*
X167909949Y-107086667D01*
X167672123Y-107039360D01*
X167429637Y-107039360D01*
X167191811Y-107086667D01*
X166967783Y-107179462D01*
X166766163Y-107314180D01*
X166594700Y-107485643D01*
X166459982Y-107687263D01*
X166367187Y-107911291D01*
X166319880Y-108149117D01*
X127740560Y-108149117D01*
X127740560Y-108133877D01*
X127693253Y-107896051D01*
X127600458Y-107672023D01*
X127465740Y-107470403D01*
X127294277Y-107298940D01*
X127092657Y-107164222D01*
X126868629Y-107071427D01*
X126630803Y-107024120D01*
X126388317Y-107024120D01*
X126150491Y-107071427D01*
X125926463Y-107164222D01*
X125724843Y-107298940D01*
X125553380Y-107470403D01*
X125418662Y-107672023D01*
X125325867Y-107896051D01*
X125278560Y-108133877D01*
X124599264Y-108133877D01*
X124531000Y-108065614D01*
X124531000Y-106632674D01*
X124533568Y-106606600D01*
X124531000Y-106580526D01*
X124531000Y-106580516D01*
X124523317Y-106502506D01*
X124492953Y-106402412D01*
X124445406Y-106313457D01*
X124443646Y-106310164D01*
X124393918Y-106249570D01*
X124393912Y-106249564D01*
X124377290Y-106229310D01*
X124357036Y-106212688D01*
X122994577Y-104850230D01*
X122996536Y-104845500D01*
X123040000Y-104626994D01*
X123040000Y-104404206D01*
X122996536Y-104185700D01*
X122911279Y-103979871D01*
X122787505Y-103794630D01*
X122629970Y-103637095D01*
X122444729Y-103513321D01*
X122238900Y-103428064D01*
X122020394Y-103384600D01*
X121797606Y-103384600D01*
X121579100Y-103428064D01*
X121373271Y-103513321D01*
X121188030Y-103637095D01*
X121030495Y-103794630D01*
X120906721Y-103979871D01*
X120821464Y-104185700D01*
X120778000Y-104404206D01*
X120292922Y-104404206D01*
X120257965Y-104173362D01*
X120165277Y-103916768D01*
X120104860Y-103803737D01*
X119865993Y-103738212D01*
X119088605Y-104515600D01*
X118729395Y-104515600D01*
X117952007Y-103738212D01*
X117713140Y-103803737D01*
X117597240Y-104050716D01*
X117531750Y-104315560D01*
X117519188Y-104588092D01*
X115892338Y-104588092D01*
X115819941Y-104515695D01*
X115503671Y-104304370D01*
X115152252Y-104158808D01*
X114779187Y-104084600D01*
X114398813Y-104084600D01*
X114025748Y-104158808D01*
X113674329Y-104304370D01*
X113358059Y-104515695D01*
X113089095Y-104784659D01*
X112877770Y-105100929D01*
X112732208Y-105452348D01*
X112658000Y-105825413D01*
X109842900Y-105825413D01*
X109842900Y-103558607D01*
X118131612Y-103558607D01*
X118909000Y-104335995D01*
X119686388Y-103558607D01*
X119620863Y-103319740D01*
X119373884Y-103203840D01*
X119109040Y-103138350D01*
X118836508Y-103125788D01*
X118566762Y-103166635D01*
X118310168Y-103259323D01*
X118197137Y-103319740D01*
X118131612Y-103558607D01*
X109842900Y-103558607D01*
X109842900Y-93747713D01*
X112658000Y-93747713D01*
X112658000Y-94128087D01*
X112732208Y-94501152D01*
X112877770Y-94852571D01*
X113089095Y-95168841D01*
X113358059Y-95437805D01*
X113674329Y-95649130D01*
X114025748Y-95794692D01*
X114398813Y-95868900D01*
X114779187Y-95868900D01*
X115152252Y-95794692D01*
X115503671Y-95649130D01*
X115819941Y-95437805D01*
X115931240Y-95326506D01*
X117778000Y-95326506D01*
X117778000Y-95549294D01*
X117821464Y-95767800D01*
X117906721Y-95973629D01*
X118030495Y-96158870D01*
X118188030Y-96316405D01*
X118373271Y-96440179D01*
X118579100Y-96525436D01*
X118797606Y-96568900D01*
X119020394Y-96568900D01*
X119238900Y-96525436D01*
X119444729Y-96440179D01*
X119629970Y-96316405D01*
X119787505Y-96158870D01*
X119911279Y-95973629D01*
X119996536Y-95767800D01*
X120040000Y-95549294D01*
X120040000Y-95326506D01*
X119996536Y-95108000D01*
X119911279Y-94902171D01*
X119787505Y-94716930D01*
X119629970Y-94559395D01*
X119444729Y-94435621D01*
X119238900Y-94350364D01*
X119020394Y-94306900D01*
X118797606Y-94306900D01*
X118579100Y-94350364D01*
X118373271Y-94435621D01*
X118188030Y-94559395D01*
X118030495Y-94716930D01*
X117906721Y-94902171D01*
X117821464Y-95108000D01*
X117778000Y-95326506D01*
X115931240Y-95326506D01*
X116088905Y-95168841D01*
X116300230Y-94852571D01*
X116445792Y-94501152D01*
X116520000Y-94128087D01*
X116520000Y-93747713D01*
X116449820Y-93394893D01*
X118131612Y-93394893D01*
X118197137Y-93633760D01*
X118444116Y-93749660D01*
X118708960Y-93815150D01*
X118981492Y-93827712D01*
X119251238Y-93786865D01*
X119507832Y-93694177D01*
X119620863Y-93633760D01*
X119686388Y-93394893D01*
X118909000Y-92617505D01*
X118131612Y-93394893D01*
X116449820Y-93394893D01*
X116445792Y-93374648D01*
X116300230Y-93023229D01*
X116088905Y-92706959D01*
X115892338Y-92510392D01*
X117519188Y-92510392D01*
X117560035Y-92780138D01*
X117652723Y-93036732D01*
X117713140Y-93149763D01*
X117952007Y-93215288D01*
X118729395Y-92437900D01*
X119088605Y-92437900D01*
X119865993Y-93215288D01*
X120104860Y-93149763D01*
X120220760Y-92902784D01*
X120286250Y-92637940D01*
X120298812Y-92365408D01*
X120292922Y-92326506D01*
X120778000Y-92326506D01*
X120778000Y-92549294D01*
X120821464Y-92767800D01*
X120906721Y-92973629D01*
X121030495Y-93158870D01*
X121188030Y-93316405D01*
X121373271Y-93440179D01*
X121378001Y-93442138D01*
X121378001Y-93472476D01*
X121375432Y-93498560D01*
X121385684Y-93602653D01*
X121416047Y-93702747D01*
X121465354Y-93794995D01*
X121492205Y-93827712D01*
X121531711Y-93875850D01*
X121551971Y-93892477D01*
X121966394Y-94306900D01*
X121797606Y-94306900D01*
X121579100Y-94350364D01*
X121373271Y-94435621D01*
X121188030Y-94559395D01*
X121030495Y-94716930D01*
X120906721Y-94902171D01*
X120821464Y-95108000D01*
X120778000Y-95326506D01*
X120778000Y-95549294D01*
X120821464Y-95767800D01*
X120906721Y-95973629D01*
X121030495Y-96158870D01*
X121188030Y-96316405D01*
X121373271Y-96440179D01*
X121579100Y-96525436D01*
X121797606Y-96568900D01*
X122020394Y-96568900D01*
X122238900Y-96525436D01*
X122444729Y-96440179D01*
X122629970Y-96316405D01*
X122787505Y-96158870D01*
X122911279Y-95973629D01*
X122996536Y-95767800D01*
X123040000Y-95549294D01*
X123040000Y-95380507D01*
X123969000Y-96309507D01*
X123969001Y-103679476D01*
X123966432Y-103705560D01*
X123976684Y-103809653D01*
X124007047Y-103909747D01*
X124056354Y-104001995D01*
X124096339Y-104050716D01*
X124122711Y-104082850D01*
X124142971Y-104099477D01*
X125347447Y-105303953D01*
X125325867Y-105356051D01*
X125278560Y-105593877D01*
X125278560Y-105836363D01*
X125325867Y-106074189D01*
X125418662Y-106298217D01*
X125553380Y-106499837D01*
X125724843Y-106671300D01*
X125926463Y-106806018D01*
X126150491Y-106898813D01*
X126388317Y-106946120D01*
X126630803Y-106946120D01*
X126868629Y-106898813D01*
X127092657Y-106806018D01*
X127294277Y-106671300D01*
X127465740Y-106499837D01*
X127600458Y-106298217D01*
X127693253Y-106074189D01*
X127740560Y-105836363D01*
X127740560Y-105593877D01*
X127693253Y-105356051D01*
X127600458Y-105132023D01*
X127465740Y-104930403D01*
X127294277Y-104758940D01*
X127092657Y-104624222D01*
X126868629Y-104531427D01*
X126630803Y-104484120D01*
X126388317Y-104484120D01*
X126150491Y-104531427D01*
X126098393Y-104553007D01*
X125031000Y-103485614D01*
X125031000Y-103053877D01*
X125278560Y-103053877D01*
X125278560Y-103296363D01*
X125325867Y-103534189D01*
X125418662Y-103758217D01*
X125553380Y-103959837D01*
X125724843Y-104131300D01*
X125926463Y-104266018D01*
X126150491Y-104358813D01*
X126388317Y-104406120D01*
X126630803Y-104406120D01*
X126868629Y-104358813D01*
X127092657Y-104266018D01*
X127294277Y-104131300D01*
X127465740Y-103959837D01*
X127600458Y-103758217D01*
X127693253Y-103534189D01*
X127740560Y-103296363D01*
X127740560Y-103053877D01*
X127693253Y-102816051D01*
X127600458Y-102592023D01*
X127465740Y-102390403D01*
X127294277Y-102218940D01*
X127092657Y-102084222D01*
X126868629Y-101991427D01*
X126630803Y-101944120D01*
X126388317Y-101944120D01*
X126150491Y-101991427D01*
X125926463Y-102084222D01*
X125724843Y-102218940D01*
X125553380Y-102390403D01*
X125418662Y-102592023D01*
X125325867Y-102816051D01*
X125278560Y-103053877D01*
X125031000Y-103053877D01*
X125031000Y-100513877D01*
X125278560Y-100513877D01*
X125278560Y-100756363D01*
X125325867Y-100994189D01*
X125418662Y-101218217D01*
X125553380Y-101419837D01*
X125724843Y-101591300D01*
X125926463Y-101726018D01*
X126150491Y-101818813D01*
X126388317Y-101866120D01*
X126630803Y-101866120D01*
X126868629Y-101818813D01*
X127092657Y-101726018D01*
X127294277Y-101591300D01*
X127465740Y-101419837D01*
X127600458Y-101218217D01*
X127693253Y-100994189D01*
X127740560Y-100756363D01*
X127740560Y-100513877D01*
X127693253Y-100276051D01*
X127600458Y-100052023D01*
X127465740Y-99850403D01*
X127294277Y-99678940D01*
X127092657Y-99544222D01*
X126868629Y-99451427D01*
X126630803Y-99404120D01*
X126388317Y-99404120D01*
X126150491Y-99451427D01*
X125926463Y-99544222D01*
X125724843Y-99678940D01*
X125553380Y-99850403D01*
X125418662Y-100052023D01*
X125325867Y-100276051D01*
X125278560Y-100513877D01*
X125031000Y-100513877D01*
X125031000Y-97973877D01*
X125278560Y-97973877D01*
X125278560Y-98216363D01*
X125325867Y-98454189D01*
X125418662Y-98678217D01*
X125553380Y-98879837D01*
X125724843Y-99051300D01*
X125926463Y-99186018D01*
X126150491Y-99278813D01*
X126388317Y-99326120D01*
X126630803Y-99326120D01*
X126868629Y-99278813D01*
X127092657Y-99186018D01*
X127294277Y-99051300D01*
X127465740Y-98879837D01*
X127600458Y-98678217D01*
X127693253Y-98454189D01*
X127740560Y-98216363D01*
X127740560Y-97973877D01*
X127707032Y-97805318D01*
X165466432Y-97805318D01*
X165469000Y-97831392D01*
X165469001Y-101613396D01*
X165466432Y-101639480D01*
X165476684Y-101743573D01*
X165507047Y-101843667D01*
X165556354Y-101935915D01*
X165606083Y-101996509D01*
X165622711Y-102016770D01*
X165642970Y-102033397D01*
X166388766Y-102779193D01*
X166367187Y-102831291D01*
X166319880Y-103069117D01*
X166319880Y-103311603D01*
X166367187Y-103549429D01*
X166459982Y-103773457D01*
X166594700Y-103975077D01*
X166766163Y-104146540D01*
X166967783Y-104281258D01*
X167191811Y-104374053D01*
X167429637Y-104421360D01*
X167672123Y-104421360D01*
X167909949Y-104374053D01*
X168133977Y-104281258D01*
X168335597Y-104146540D01*
X168507060Y-103975077D01*
X168641778Y-103773457D01*
X168734573Y-103549429D01*
X168781880Y-103311603D01*
X168781880Y-103069117D01*
X168734573Y-102831291D01*
X168641778Y-102607263D01*
X168507060Y-102405643D01*
X168335597Y-102234180D01*
X168133977Y-102099462D01*
X167909949Y-102006667D01*
X167672123Y-101959360D01*
X167429637Y-101959360D01*
X167191811Y-102006667D01*
X167139713Y-102028246D01*
X166531000Y-101419534D01*
X166531000Y-101339743D01*
X166594700Y-101435077D01*
X166766163Y-101606540D01*
X166967783Y-101741258D01*
X167191811Y-101834053D01*
X167429637Y-101881360D01*
X167672123Y-101881360D01*
X167909949Y-101834053D01*
X168133977Y-101741258D01*
X168335597Y-101606540D01*
X168388115Y-101554022D01*
X171015063Y-104180970D01*
X171013104Y-104185700D01*
X170969640Y-104404206D01*
X170969640Y-104626994D01*
X171013104Y-104845500D01*
X171098361Y-105051329D01*
X171197272Y-105199360D01*
X168663357Y-105199360D01*
X168641778Y-105147263D01*
X168507060Y-104945643D01*
X168335597Y-104774180D01*
X168133977Y-104639462D01*
X167909949Y-104546667D01*
X167672123Y-104499360D01*
X167429637Y-104499360D01*
X167191811Y-104546667D01*
X166967783Y-104639462D01*
X166766163Y-104774180D01*
X166594700Y-104945643D01*
X166459982Y-105147263D01*
X166367187Y-105371291D01*
X166319880Y-105609117D01*
X166319880Y-105851603D01*
X166367187Y-106089429D01*
X166459982Y-106313457D01*
X166594700Y-106515077D01*
X166766163Y-106686540D01*
X166967783Y-106821258D01*
X167191811Y-106914053D01*
X167429637Y-106961360D01*
X167672123Y-106961360D01*
X167909949Y-106914053D01*
X168133977Y-106821258D01*
X168335597Y-106686540D01*
X168507060Y-106515077D01*
X168641778Y-106313457D01*
X168663357Y-106261360D01*
X172567728Y-106261360D01*
X172593802Y-106263928D01*
X172619876Y-106261360D01*
X172619886Y-106261360D01*
X172697896Y-106253677D01*
X172797990Y-106223313D01*
X172890237Y-106174006D01*
X172971092Y-106107650D01*
X172987723Y-106087385D01*
X173249695Y-105825413D01*
X177489640Y-105825413D01*
X177489640Y-106205787D01*
X177563848Y-106578852D01*
X177709410Y-106930271D01*
X177920735Y-107246541D01*
X178189699Y-107515505D01*
X178505969Y-107726830D01*
X178857388Y-107872392D01*
X179230453Y-107946600D01*
X179610827Y-107946600D01*
X179983892Y-107872392D01*
X180335311Y-107726830D01*
X180651581Y-107515505D01*
X180920545Y-107246541D01*
X181131870Y-106930271D01*
X181277432Y-106578852D01*
X181351640Y-106205787D01*
X181351640Y-105825413D01*
X181277432Y-105452348D01*
X181131870Y-105100929D01*
X180920545Y-104784659D01*
X180651581Y-104515695D01*
X180335311Y-104304370D01*
X179983892Y-104158808D01*
X179610827Y-104084600D01*
X179230453Y-104084600D01*
X178857388Y-104158808D01*
X178505969Y-104304370D01*
X178189699Y-104515695D01*
X177920735Y-104784659D01*
X177709410Y-105100929D01*
X177563848Y-105452348D01*
X177489640Y-105825413D01*
X173249695Y-105825413D01*
X173857035Y-105218075D01*
X173877290Y-105201452D01*
X173893912Y-105181198D01*
X173893918Y-105181192D01*
X173943646Y-105120598D01*
X173992953Y-105028350D01*
X174023317Y-104928256D01*
X174027940Y-104881317D01*
X174098361Y-105051329D01*
X174222135Y-105236570D01*
X174379670Y-105394105D01*
X174564911Y-105517879D01*
X174770740Y-105603136D01*
X174989246Y-105646600D01*
X175212034Y-105646600D01*
X175430540Y-105603136D01*
X175636369Y-105517879D01*
X175821610Y-105394105D01*
X175979145Y-105236570D01*
X176102919Y-105051329D01*
X176188176Y-104845500D01*
X176231640Y-104626994D01*
X176231640Y-104404206D01*
X176188176Y-104185700D01*
X176102919Y-103979871D01*
X175979145Y-103794630D01*
X175821610Y-103637095D01*
X175636369Y-103513321D01*
X175430540Y-103428064D01*
X175212034Y-103384600D01*
X174989246Y-103384600D01*
X174770740Y-103428064D01*
X174564911Y-103513321D01*
X174379670Y-103637095D01*
X174222135Y-103794630D01*
X174098361Y-103979871D01*
X174031000Y-104142495D01*
X174031000Y-96394893D01*
X174323252Y-96394893D01*
X174388777Y-96633760D01*
X174635756Y-96749660D01*
X174900600Y-96815150D01*
X175173132Y-96827712D01*
X175442878Y-96786865D01*
X175699472Y-96694177D01*
X175812503Y-96633760D01*
X175878028Y-96394893D01*
X175100640Y-95617505D01*
X174323252Y-96394893D01*
X174031000Y-96394893D01*
X174031000Y-96184387D01*
X174143647Y-96215288D01*
X174921035Y-95437900D01*
X175280245Y-95437900D01*
X176057633Y-96215288D01*
X176296500Y-96149763D01*
X176412400Y-95902784D01*
X176477890Y-95637940D01*
X176490452Y-95365408D01*
X176449605Y-95095662D01*
X176356917Y-94839068D01*
X176296500Y-94726037D01*
X176057633Y-94660512D01*
X175280245Y-95437900D01*
X174921035Y-95437900D01*
X174143647Y-94660512D01*
X173995226Y-94701226D01*
X173992953Y-94693732D01*
X173950432Y-94614180D01*
X173943646Y-94601484D01*
X173893917Y-94540890D01*
X173877290Y-94520630D01*
X173857030Y-94504003D01*
X173833934Y-94480907D01*
X174323252Y-94480907D01*
X175100640Y-95258295D01*
X175878028Y-94480907D01*
X175812503Y-94242040D01*
X175565524Y-94126140D01*
X175300680Y-94060650D01*
X175028148Y-94048088D01*
X174758402Y-94088935D01*
X174501808Y-94181623D01*
X174388777Y-94242040D01*
X174323252Y-94480907D01*
X173833934Y-94480907D01*
X173100740Y-93747713D01*
X177489640Y-93747713D01*
X177489640Y-94128087D01*
X177563848Y-94501152D01*
X177709410Y-94852571D01*
X177920735Y-95168841D01*
X178189699Y-95437805D01*
X178505969Y-95649130D01*
X178857388Y-95794692D01*
X179230453Y-95868900D01*
X179610827Y-95868900D01*
X179983892Y-95794692D01*
X180335311Y-95649130D01*
X180651581Y-95437805D01*
X180920545Y-95168841D01*
X181131870Y-94852571D01*
X181277432Y-94501152D01*
X181351640Y-94128087D01*
X181351640Y-93747713D01*
X181277432Y-93374648D01*
X181131870Y-93023229D01*
X180920545Y-92706959D01*
X180651581Y-92437995D01*
X180335311Y-92226670D01*
X179983892Y-92081108D01*
X179610827Y-92006900D01*
X179230453Y-92006900D01*
X178857388Y-92081108D01*
X178505969Y-92226670D01*
X178189699Y-92437995D01*
X177920735Y-92706959D01*
X177709410Y-93023229D01*
X177563848Y-93374648D01*
X177489640Y-93747713D01*
X173100740Y-93747713D01*
X172730385Y-93377359D01*
X172821610Y-93316405D01*
X172979145Y-93158870D01*
X173102919Y-92973629D01*
X173188176Y-92767800D01*
X173231640Y-92549294D01*
X173231640Y-92326506D01*
X173969640Y-92326506D01*
X173969640Y-92549294D01*
X174013104Y-92767800D01*
X174098361Y-92973629D01*
X174222135Y-93158870D01*
X174379670Y-93316405D01*
X174564911Y-93440179D01*
X174770740Y-93525436D01*
X174989246Y-93568900D01*
X175212034Y-93568900D01*
X175430540Y-93525436D01*
X175636369Y-93440179D01*
X175821610Y-93316405D01*
X175979145Y-93158870D01*
X176102919Y-92973629D01*
X176188176Y-92767800D01*
X176231640Y-92549294D01*
X176231640Y-92326506D01*
X176188176Y-92108000D01*
X176102919Y-91902171D01*
X175979145Y-91716930D01*
X175821610Y-91559395D01*
X175636369Y-91435621D01*
X175430540Y-91350364D01*
X175212034Y-91306900D01*
X174989246Y-91306900D01*
X174770740Y-91350364D01*
X174564911Y-91435621D01*
X174379670Y-91559395D01*
X174222135Y-91716930D01*
X174098361Y-91902171D01*
X174013104Y-92108000D01*
X173969640Y-92326506D01*
X173231640Y-92326506D01*
X173188176Y-92108000D01*
X173102919Y-91902171D01*
X172979145Y-91716930D01*
X172821610Y-91559395D01*
X172636369Y-91435621D01*
X172430540Y-91350364D01*
X172212034Y-91306900D01*
X171989246Y-91306900D01*
X171770740Y-91350364D01*
X171564911Y-91435621D01*
X171379670Y-91559395D01*
X171222135Y-91716930D01*
X171098361Y-91902171D01*
X171013104Y-92108000D01*
X170969640Y-92326506D01*
X170969640Y-92549294D01*
X171013104Y-92767800D01*
X171098361Y-92973629D01*
X171222135Y-93158870D01*
X171379670Y-93316405D01*
X171564911Y-93440179D01*
X171569641Y-93442138D01*
X171569641Y-93472476D01*
X171567072Y-93498560D01*
X171577324Y-93602653D01*
X171607687Y-93702747D01*
X171656994Y-93794995D01*
X171683845Y-93827712D01*
X171723351Y-93875850D01*
X171743611Y-93892477D01*
X172158034Y-94306900D01*
X171989246Y-94306900D01*
X171770740Y-94350364D01*
X171564911Y-94435621D01*
X171379670Y-94559395D01*
X171222135Y-94716930D01*
X171098361Y-94902171D01*
X171096402Y-94906900D01*
X171066054Y-94906900D01*
X171039980Y-94904332D01*
X171013906Y-94906900D01*
X171013896Y-94906900D01*
X170935886Y-94914583D01*
X170835792Y-94944947D01*
X170743544Y-94994254D01*
X170682950Y-95043983D01*
X170662690Y-95060610D01*
X170646063Y-95080870D01*
X169401575Y-96325359D01*
X168526917Y-96325359D01*
X168641778Y-96153457D01*
X168734573Y-95929429D01*
X168781880Y-95691603D01*
X168781880Y-95449117D01*
X168734573Y-95211291D01*
X168641778Y-94987263D01*
X168507060Y-94785643D01*
X168335597Y-94614180D01*
X168133977Y-94479462D01*
X167909949Y-94386667D01*
X167672123Y-94339360D01*
X167429637Y-94339360D01*
X167191811Y-94386667D01*
X166967783Y-94479462D01*
X166766163Y-94614180D01*
X166594700Y-94785643D01*
X166459982Y-94987263D01*
X166367187Y-95211291D01*
X166319880Y-95449117D01*
X166319880Y-95691603D01*
X166367187Y-95929429D01*
X166459982Y-96153457D01*
X166594700Y-96355077D01*
X166652420Y-96412797D01*
X166591929Y-96462441D01*
X166591923Y-96462447D01*
X166571669Y-96479069D01*
X166555046Y-96499324D01*
X165642975Y-97411397D01*
X165622710Y-97428028D01*
X165556354Y-97508883D01*
X165507047Y-97601131D01*
X165476683Y-97701225D01*
X165469000Y-97779235D01*
X165469000Y-97779244D01*
X165466432Y-97805318D01*
X127707032Y-97805318D01*
X127693253Y-97736051D01*
X127600458Y-97512023D01*
X127465740Y-97310403D01*
X127294277Y-97138940D01*
X127092657Y-97004222D01*
X126868629Y-96911427D01*
X126630803Y-96864120D01*
X126388317Y-96864120D01*
X126150491Y-96911427D01*
X125926463Y-97004222D01*
X125724843Y-97138940D01*
X125553380Y-97310403D01*
X125418662Y-97512023D01*
X125325867Y-97736051D01*
X125278560Y-97973877D01*
X125031000Y-97973877D01*
X125031000Y-96115633D01*
X125033568Y-96089559D01*
X125031000Y-96063485D01*
X125031000Y-96063476D01*
X125023317Y-95985466D01*
X124992953Y-95885372D01*
X124944484Y-95794692D01*
X124943646Y-95793124D01*
X124893917Y-95732530D01*
X124877290Y-95712270D01*
X124857030Y-95695643D01*
X124595264Y-95433877D01*
X125278560Y-95433877D01*
X125278560Y-95676363D01*
X125325867Y-95914189D01*
X125418662Y-96138217D01*
X125553380Y-96339837D01*
X125724843Y-96511300D01*
X125926463Y-96646018D01*
X126150491Y-96738813D01*
X126388317Y-96786120D01*
X126630803Y-96786120D01*
X126868629Y-96738813D01*
X127092657Y-96646018D01*
X127294277Y-96511300D01*
X127465740Y-96339837D01*
X127600458Y-96138217D01*
X127693253Y-95914189D01*
X127740560Y-95676363D01*
X127740560Y-95433877D01*
X127693253Y-95196051D01*
X127600458Y-94972023D01*
X127465740Y-94770403D01*
X127294277Y-94598940D01*
X127092657Y-94464222D01*
X126868629Y-94371427D01*
X126630803Y-94324120D01*
X126388317Y-94324120D01*
X126150491Y-94371427D01*
X125926463Y-94464222D01*
X125724843Y-94598940D01*
X125553380Y-94770403D01*
X125418662Y-94972023D01*
X125325867Y-95196051D01*
X125278560Y-95433877D01*
X124595264Y-95433877D01*
X122538745Y-93377359D01*
X122629970Y-93316405D01*
X122787505Y-93158870D01*
X122911279Y-92973629D01*
X122996536Y-92767800D01*
X123040000Y-92549294D01*
X123040000Y-92326506D01*
X122996536Y-92108000D01*
X122911279Y-91902171D01*
X122787505Y-91716930D01*
X122629970Y-91559395D01*
X122444729Y-91435621D01*
X122238900Y-91350364D01*
X122020394Y-91306900D01*
X121797606Y-91306900D01*
X121579100Y-91350364D01*
X121373271Y-91435621D01*
X121188030Y-91559395D01*
X121030495Y-91716930D01*
X120906721Y-91902171D01*
X120821464Y-92108000D01*
X120778000Y-92326506D01*
X120292922Y-92326506D01*
X120257965Y-92095662D01*
X120165277Y-91839068D01*
X120104860Y-91726037D01*
X119865993Y-91660512D01*
X119088605Y-92437900D01*
X118729395Y-92437900D01*
X117952007Y-91660512D01*
X117713140Y-91726037D01*
X117597240Y-91973016D01*
X117531750Y-92237860D01*
X117519188Y-92510392D01*
X115892338Y-92510392D01*
X115819941Y-92437995D01*
X115503671Y-92226670D01*
X115152252Y-92081108D01*
X114779187Y-92006900D01*
X114398813Y-92006900D01*
X114025748Y-92081108D01*
X113674329Y-92226670D01*
X113358059Y-92437995D01*
X113089095Y-92706959D01*
X112877770Y-93023229D01*
X112732208Y-93374648D01*
X112658000Y-93747713D01*
X109842900Y-93747713D01*
X109842900Y-91480907D01*
X118131612Y-91480907D01*
X118909000Y-92258295D01*
X119686388Y-91480907D01*
X119620863Y-91242040D01*
X119373884Y-91126140D01*
X119109040Y-91060650D01*
X118836508Y-91048088D01*
X118566762Y-91088935D01*
X118310168Y-91181623D01*
X118197137Y-91242040D01*
X118131612Y-91480907D01*
X109842900Y-91480907D01*
X109842900Y-90832010D01*
X125068084Y-90832010D01*
X125112735Y-90979219D01*
X125237919Y-91242040D01*
X125411972Y-91475389D01*
X125628205Y-91670298D01*
X125878308Y-91819277D01*
X126040728Y-91876892D01*
X125926463Y-91924222D01*
X125724843Y-92058940D01*
X125553380Y-92230403D01*
X125418662Y-92432023D01*
X125325867Y-92656051D01*
X125278560Y-92893877D01*
X125278560Y-93136363D01*
X125325867Y-93374189D01*
X125418662Y-93598217D01*
X125553380Y-93799837D01*
X125724843Y-93971300D01*
X125926463Y-94106018D01*
X126150491Y-94198813D01*
X126388317Y-94246120D01*
X126630803Y-94246120D01*
X126868629Y-94198813D01*
X127092657Y-94106018D01*
X127294277Y-93971300D01*
X127465740Y-93799837D01*
X127600458Y-93598217D01*
X127693253Y-93374189D01*
X127740560Y-93136363D01*
X127740560Y-92909117D01*
X166319880Y-92909117D01*
X166319880Y-93151603D01*
X166367187Y-93389429D01*
X166459982Y-93613457D01*
X166594700Y-93815077D01*
X166766163Y-93986540D01*
X166967783Y-94121258D01*
X167191811Y-94214053D01*
X167429637Y-94261360D01*
X167672123Y-94261360D01*
X167909949Y-94214053D01*
X168133977Y-94121258D01*
X168335597Y-93986540D01*
X168507060Y-93815077D01*
X168641778Y-93613457D01*
X168734573Y-93389429D01*
X168781880Y-93151603D01*
X168781880Y-92909117D01*
X168734573Y-92671291D01*
X168641778Y-92447263D01*
X168507060Y-92245643D01*
X168335597Y-92074180D01*
X168133977Y-91939462D01*
X167909949Y-91846667D01*
X167672123Y-91799360D01*
X167429637Y-91799360D01*
X167191811Y-91846667D01*
X166967783Y-91939462D01*
X166766163Y-92074180D01*
X166594700Y-92245643D01*
X166459982Y-92447263D01*
X166367187Y-92671291D01*
X166319880Y-92909117D01*
X127740560Y-92909117D01*
X127740560Y-92893877D01*
X127693253Y-92656051D01*
X127600458Y-92432023D01*
X127465740Y-92230403D01*
X127294277Y-92058940D01*
X127092657Y-91924222D01*
X126978392Y-91876892D01*
X127140812Y-91819277D01*
X127390915Y-91670298D01*
X127607148Y-91475389D01*
X127781201Y-91242040D01*
X127906385Y-90979219D01*
X127951036Y-90832010D01*
X127829715Y-90602120D01*
X126636560Y-90602120D01*
X126636560Y-90622120D01*
X126382560Y-90622120D01*
X126382560Y-90602120D01*
X125189405Y-90602120D01*
X125068084Y-90832010D01*
X109842900Y-90832010D01*
X109842900Y-90369117D01*
X166319880Y-90369117D01*
X166319880Y-90611603D01*
X166367187Y-90849429D01*
X166459982Y-91073457D01*
X166594700Y-91275077D01*
X166766163Y-91446540D01*
X166967783Y-91581258D01*
X167191811Y-91674053D01*
X167429637Y-91721360D01*
X167672123Y-91721360D01*
X167909949Y-91674053D01*
X168133977Y-91581258D01*
X168335597Y-91446540D01*
X168507060Y-91275077D01*
X168641778Y-91073457D01*
X168734573Y-90849429D01*
X168781880Y-90611603D01*
X168781880Y-90369117D01*
X168734573Y-90131291D01*
X168641778Y-89907263D01*
X168507060Y-89705643D01*
X168335597Y-89534180D01*
X168133977Y-89399462D01*
X167909949Y-89306667D01*
X167672123Y-89259360D01*
X167429637Y-89259360D01*
X167191811Y-89306667D01*
X166967783Y-89399462D01*
X166766163Y-89534180D01*
X166594700Y-89705643D01*
X166459982Y-89907263D01*
X166367187Y-90131291D01*
X166319880Y-90369117D01*
X109842900Y-90369117D01*
X109842900Y-90118230D01*
X125068084Y-90118230D01*
X125189405Y-90348120D01*
X126382560Y-90348120D01*
X126382560Y-90328120D01*
X126636560Y-90328120D01*
X126636560Y-90348120D01*
X127829715Y-90348120D01*
X127951036Y-90118230D01*
X127906385Y-89971021D01*
X127781201Y-89708200D01*
X127607148Y-89474851D01*
X127390915Y-89279942D01*
X127140812Y-89130963D01*
X126978392Y-89073348D01*
X127092657Y-89026018D01*
X127294277Y-88891300D01*
X127465740Y-88719837D01*
X127600458Y-88518217D01*
X127693253Y-88294189D01*
X127740560Y-88056363D01*
X127740560Y-87813877D01*
X127693253Y-87576051D01*
X127600458Y-87352023D01*
X127465740Y-87150403D01*
X127294277Y-86978940D01*
X127092657Y-86844222D01*
X126868629Y-86751427D01*
X126630803Y-86704120D01*
X126388317Y-86704120D01*
X126150491Y-86751427D01*
X125926463Y-86844222D01*
X125724843Y-86978940D01*
X125553380Y-87150403D01*
X125418662Y-87352023D01*
X125325867Y-87576051D01*
X125278560Y-87813877D01*
X125278560Y-88056363D01*
X125325867Y-88294189D01*
X125418662Y-88518217D01*
X125553380Y-88719837D01*
X125724843Y-88891300D01*
X125926463Y-89026018D01*
X126040728Y-89073348D01*
X125878308Y-89130963D01*
X125628205Y-89279942D01*
X125411972Y-89474851D01*
X125237919Y-89708200D01*
X125112735Y-89971021D01*
X125068084Y-90118230D01*
X109842900Y-90118230D01*
X109842900Y-85273877D01*
X125278560Y-85273877D01*
X125278560Y-85516363D01*
X125325867Y-85754189D01*
X125418662Y-85978217D01*
X125553380Y-86179837D01*
X125724843Y-86351300D01*
X125926463Y-86486018D01*
X126150491Y-86578813D01*
X126388317Y-86626120D01*
X126630803Y-86626120D01*
X126868629Y-86578813D01*
X127092657Y-86486018D01*
X127294277Y-86351300D01*
X127465740Y-86179837D01*
X127600458Y-85978217D01*
X127687842Y-85767250D01*
X166109404Y-85767250D01*
X166154055Y-85914459D01*
X166279239Y-86177280D01*
X166453292Y-86410629D01*
X166669525Y-86605538D01*
X166919628Y-86754517D01*
X167082048Y-86812132D01*
X166967783Y-86859462D01*
X166766163Y-86994180D01*
X166594700Y-87165643D01*
X166459982Y-87367263D01*
X166367187Y-87591291D01*
X166319880Y-87829117D01*
X166319880Y-88071603D01*
X166367187Y-88309429D01*
X166459982Y-88533457D01*
X166594700Y-88735077D01*
X166766163Y-88906540D01*
X166967783Y-89041258D01*
X167191811Y-89134053D01*
X167429637Y-89181360D01*
X167672123Y-89181360D01*
X167909949Y-89134053D01*
X168133977Y-89041258D01*
X168335597Y-88906540D01*
X168507060Y-88735077D01*
X168641778Y-88533457D01*
X168734573Y-88309429D01*
X168781880Y-88071603D01*
X168781880Y-87829117D01*
X168734573Y-87591291D01*
X168641778Y-87367263D01*
X168507060Y-87165643D01*
X168335597Y-86994180D01*
X168133977Y-86859462D01*
X168019712Y-86812132D01*
X168182132Y-86754517D01*
X168432235Y-86605538D01*
X168648468Y-86410629D01*
X168822521Y-86177280D01*
X168947705Y-85914459D01*
X168992356Y-85767250D01*
X168871035Y-85537360D01*
X167677880Y-85537360D01*
X167677880Y-85557360D01*
X167423880Y-85557360D01*
X167423880Y-85537360D01*
X166230725Y-85537360D01*
X166109404Y-85767250D01*
X127687842Y-85767250D01*
X127693253Y-85754189D01*
X127740560Y-85516363D01*
X127740560Y-85273877D01*
X127696718Y-85053470D01*
X166109404Y-85053470D01*
X166230725Y-85283360D01*
X167423880Y-85283360D01*
X167423880Y-85263360D01*
X167677880Y-85263360D01*
X167677880Y-85283360D01*
X168871035Y-85283360D01*
X168992356Y-85053470D01*
X168947705Y-84906261D01*
X168822521Y-84643440D01*
X168648468Y-84410091D01*
X168432235Y-84215182D01*
X168244247Y-84103203D01*
X168400880Y-84103203D01*
X168475569Y-84095847D01*
X168547388Y-84074061D01*
X168613576Y-84038682D01*
X168671591Y-83991071D01*
X168719202Y-83933056D01*
X168754581Y-83866868D01*
X168776367Y-83795049D01*
X168783723Y-83720360D01*
X168783723Y-83248806D01*
X170969640Y-83248806D01*
X170969640Y-83471594D01*
X171013104Y-83690100D01*
X171098361Y-83895929D01*
X171222135Y-84081170D01*
X171379670Y-84238705D01*
X171564911Y-84362479D01*
X171770740Y-84447736D01*
X171989246Y-84491200D01*
X172212034Y-84491200D01*
X172430540Y-84447736D01*
X172636369Y-84362479D01*
X172704144Y-84317193D01*
X174323252Y-84317193D01*
X174388777Y-84556060D01*
X174635756Y-84671960D01*
X174900600Y-84737450D01*
X175173132Y-84750012D01*
X175442878Y-84709165D01*
X175699472Y-84616477D01*
X175812503Y-84556060D01*
X175878028Y-84317193D01*
X175100640Y-83539805D01*
X174323252Y-84317193D01*
X172704144Y-84317193D01*
X172821610Y-84238705D01*
X172979145Y-84081170D01*
X173102919Y-83895929D01*
X173188176Y-83690100D01*
X173231640Y-83471594D01*
X173231640Y-83432692D01*
X173710828Y-83432692D01*
X173751675Y-83702438D01*
X173844363Y-83959032D01*
X173904780Y-84072063D01*
X174143647Y-84137588D01*
X174921035Y-83360200D01*
X175280245Y-83360200D01*
X176057633Y-84137588D01*
X176296500Y-84072063D01*
X176412400Y-83825084D01*
X176477890Y-83560240D01*
X176490452Y-83287708D01*
X176449605Y-83017962D01*
X176356917Y-82761368D01*
X176296500Y-82648337D01*
X176057633Y-82582812D01*
X175280245Y-83360200D01*
X174921035Y-83360200D01*
X174143647Y-82582812D01*
X173904780Y-82648337D01*
X173788880Y-82895316D01*
X173723390Y-83160160D01*
X173710828Y-83432692D01*
X173231640Y-83432692D01*
X173231640Y-83248806D01*
X173188176Y-83030300D01*
X173102919Y-82824471D01*
X172979145Y-82639230D01*
X172821610Y-82481695D01*
X172704145Y-82403207D01*
X174323252Y-82403207D01*
X175100640Y-83180595D01*
X175878028Y-82403207D01*
X175812503Y-82164340D01*
X175565524Y-82048440D01*
X175300680Y-81982950D01*
X175028148Y-81970388D01*
X174758402Y-82011235D01*
X174501808Y-82103923D01*
X174388777Y-82164340D01*
X174323252Y-82403207D01*
X172704145Y-82403207D01*
X172636369Y-82357921D01*
X172430540Y-82272664D01*
X172212034Y-82229200D01*
X171989246Y-82229200D01*
X171770740Y-82272664D01*
X171564911Y-82357921D01*
X171379670Y-82481695D01*
X171222135Y-82639230D01*
X171098361Y-82824471D01*
X171013104Y-83030300D01*
X170969640Y-83248806D01*
X168783723Y-83248806D01*
X168783723Y-82020360D01*
X168776367Y-81945671D01*
X168754581Y-81873852D01*
X168719202Y-81807664D01*
X168671591Y-81749649D01*
X168613576Y-81702038D01*
X168553663Y-81670013D01*
X177489640Y-81670013D01*
X177489640Y-82050387D01*
X177563848Y-82423452D01*
X177709410Y-82774871D01*
X177920735Y-83091141D01*
X178189699Y-83360105D01*
X178505969Y-83571430D01*
X178857388Y-83716992D01*
X179230453Y-83791200D01*
X179610827Y-83791200D01*
X179983892Y-83716992D01*
X180335311Y-83571430D01*
X180651581Y-83360105D01*
X180920545Y-83091141D01*
X181131870Y-82774871D01*
X181277432Y-82423452D01*
X181351640Y-82050387D01*
X181351640Y-81670013D01*
X181277432Y-81296948D01*
X181131870Y-80945529D01*
X180920545Y-80629259D01*
X180651581Y-80360295D01*
X180335311Y-80148970D01*
X179983892Y-80003408D01*
X179610827Y-79929200D01*
X179230453Y-79929200D01*
X178857388Y-80003408D01*
X178505969Y-80148970D01*
X178189699Y-80360295D01*
X177920735Y-80629259D01*
X177709410Y-80945529D01*
X177563848Y-81296948D01*
X177489640Y-81670013D01*
X168553663Y-81670013D01*
X168547388Y-81666659D01*
X168475569Y-81644873D01*
X168400880Y-81637517D01*
X166700880Y-81637517D01*
X166626191Y-81644873D01*
X166554372Y-81666659D01*
X166488184Y-81702038D01*
X166430169Y-81749649D01*
X166382558Y-81807664D01*
X166347179Y-81873852D01*
X166325393Y-81945671D01*
X166318037Y-82020360D01*
X166318037Y-83720360D01*
X166325393Y-83795049D01*
X166347179Y-83866868D01*
X166382558Y-83933056D01*
X166430169Y-83991071D01*
X166488184Y-84038682D01*
X166554372Y-84074061D01*
X166626191Y-84095847D01*
X166700880Y-84103203D01*
X166857513Y-84103203D01*
X166669525Y-84215182D01*
X166453292Y-84410091D01*
X166279239Y-84643440D01*
X166154055Y-84906261D01*
X166109404Y-85053470D01*
X127696718Y-85053470D01*
X127693253Y-85036051D01*
X127600458Y-84812023D01*
X127465740Y-84610403D01*
X127294277Y-84438940D01*
X127092657Y-84304222D01*
X126868629Y-84211427D01*
X126630803Y-84164120D01*
X126388317Y-84164120D01*
X126150491Y-84211427D01*
X125926463Y-84304222D01*
X125724843Y-84438940D01*
X125553380Y-84610403D01*
X125418662Y-84812023D01*
X125325867Y-85036051D01*
X125278560Y-85273877D01*
X109842900Y-85273877D01*
X109842900Y-81670013D01*
X112658000Y-81670013D01*
X112658000Y-82050387D01*
X112732208Y-82423452D01*
X112877770Y-82774871D01*
X113089095Y-83091141D01*
X113358059Y-83360105D01*
X113674329Y-83571430D01*
X114025748Y-83716992D01*
X114398813Y-83791200D01*
X114779187Y-83791200D01*
X115152252Y-83716992D01*
X115503671Y-83571430D01*
X115819941Y-83360105D01*
X115931240Y-83248806D01*
X117778000Y-83248806D01*
X117778000Y-83471594D01*
X117821464Y-83690100D01*
X117906721Y-83895929D01*
X118030495Y-84081170D01*
X118188030Y-84238705D01*
X118373271Y-84362479D01*
X118579100Y-84447736D01*
X118797606Y-84491200D01*
X119020394Y-84491200D01*
X119238900Y-84447736D01*
X119444729Y-84362479D01*
X119629970Y-84238705D01*
X119787505Y-84081170D01*
X119911279Y-83895929D01*
X119996536Y-83690100D01*
X120040000Y-83471594D01*
X120040000Y-83248806D01*
X120778000Y-83248806D01*
X120778000Y-83471594D01*
X120821464Y-83690100D01*
X120906721Y-83895929D01*
X121030495Y-84081170D01*
X121188030Y-84238705D01*
X121373271Y-84362479D01*
X121579100Y-84447736D01*
X121797606Y-84491200D01*
X122020394Y-84491200D01*
X122238900Y-84447736D01*
X122444729Y-84362479D01*
X122629970Y-84238705D01*
X122787505Y-84081170D01*
X122911279Y-83895929D01*
X122996536Y-83690100D01*
X123040000Y-83471594D01*
X123040000Y-83248806D01*
X122996536Y-83030300D01*
X122911279Y-82824471D01*
X122787505Y-82639230D01*
X122629970Y-82481695D01*
X122444729Y-82357921D01*
X122238900Y-82272664D01*
X122020394Y-82229200D01*
X121797606Y-82229200D01*
X121579100Y-82272664D01*
X121373271Y-82357921D01*
X121188030Y-82481695D01*
X121030495Y-82639230D01*
X120906721Y-82824471D01*
X120821464Y-83030300D01*
X120778000Y-83248806D01*
X120040000Y-83248806D01*
X119996536Y-83030300D01*
X119911279Y-82824471D01*
X119787505Y-82639230D01*
X119629970Y-82481695D01*
X119444729Y-82357921D01*
X119238900Y-82272664D01*
X119020394Y-82229200D01*
X118797606Y-82229200D01*
X118579100Y-82272664D01*
X118373271Y-82357921D01*
X118188030Y-82481695D01*
X118030495Y-82639230D01*
X117906721Y-82824471D01*
X117821464Y-83030300D01*
X117778000Y-83248806D01*
X115931240Y-83248806D01*
X116088905Y-83091141D01*
X116300230Y-82774871D01*
X116445792Y-82423452D01*
X116520000Y-82050387D01*
X116520000Y-82005120D01*
X125276717Y-82005120D01*
X125276717Y-83705120D01*
X125284073Y-83779809D01*
X125305859Y-83851628D01*
X125341238Y-83917816D01*
X125388849Y-83975831D01*
X125446864Y-84023442D01*
X125513052Y-84058821D01*
X125584871Y-84080607D01*
X125659560Y-84087963D01*
X127359560Y-84087963D01*
X127434249Y-84080607D01*
X127506068Y-84058821D01*
X127572256Y-84023442D01*
X127630271Y-83975831D01*
X127677882Y-83917816D01*
X127713261Y-83851628D01*
X127735047Y-83779809D01*
X127742403Y-83705120D01*
X127742403Y-82005120D01*
X127735047Y-81930431D01*
X127713261Y-81858612D01*
X127677882Y-81792424D01*
X127630271Y-81734409D01*
X127572256Y-81686798D01*
X127506068Y-81651419D01*
X127434249Y-81629633D01*
X127359560Y-81622277D01*
X125659560Y-81622277D01*
X125584871Y-81629633D01*
X125513052Y-81651419D01*
X125446864Y-81686798D01*
X125388849Y-81734409D01*
X125341238Y-81792424D01*
X125305859Y-81858612D01*
X125284073Y-81930431D01*
X125276717Y-82005120D01*
X116520000Y-82005120D01*
X116520000Y-81670013D01*
X116449820Y-81317193D01*
X118131612Y-81317193D01*
X118197137Y-81556060D01*
X118444116Y-81671960D01*
X118708960Y-81737450D01*
X118981492Y-81750012D01*
X119251238Y-81709165D01*
X119507832Y-81616477D01*
X119620863Y-81556060D01*
X119686388Y-81317193D01*
X118909000Y-80539805D01*
X118131612Y-81317193D01*
X116449820Y-81317193D01*
X116445792Y-81296948D01*
X116300230Y-80945529D01*
X116088905Y-80629259D01*
X115892338Y-80432692D01*
X117519188Y-80432692D01*
X117560035Y-80702438D01*
X117652723Y-80959032D01*
X117713140Y-81072063D01*
X117952007Y-81137588D01*
X118729395Y-80360200D01*
X119088605Y-80360200D01*
X119865993Y-81137588D01*
X120104860Y-81072063D01*
X120220760Y-80825084D01*
X120286250Y-80560240D01*
X120298812Y-80287708D01*
X120292922Y-80248806D01*
X120778000Y-80248806D01*
X120778000Y-80471594D01*
X120821464Y-80690100D01*
X120906721Y-80895929D01*
X121030495Y-81081170D01*
X121188030Y-81238705D01*
X121373271Y-81362479D01*
X121579100Y-81447736D01*
X121797606Y-81491200D01*
X122020394Y-81491200D01*
X122238900Y-81447736D01*
X122444729Y-81362479D01*
X122629970Y-81238705D01*
X122787505Y-81081170D01*
X122911279Y-80895929D01*
X122996536Y-80690100D01*
X123040000Y-80471594D01*
X123040000Y-80248806D01*
X170969640Y-80248806D01*
X170969640Y-80471594D01*
X171013104Y-80690100D01*
X171098361Y-80895929D01*
X171222135Y-81081170D01*
X171379670Y-81238705D01*
X171564911Y-81362479D01*
X171770740Y-81447736D01*
X171989246Y-81491200D01*
X172212034Y-81491200D01*
X172430540Y-81447736D01*
X172636369Y-81362479D01*
X172821610Y-81238705D01*
X172979145Y-81081170D01*
X173102919Y-80895929D01*
X173188176Y-80690100D01*
X173231640Y-80471594D01*
X173231640Y-80248806D01*
X173969640Y-80248806D01*
X173969640Y-80471594D01*
X174013104Y-80690100D01*
X174098361Y-80895929D01*
X174222135Y-81081170D01*
X174379670Y-81238705D01*
X174564911Y-81362479D01*
X174770740Y-81447736D01*
X174989246Y-81491200D01*
X175212034Y-81491200D01*
X175430540Y-81447736D01*
X175636369Y-81362479D01*
X175821610Y-81238705D01*
X175979145Y-81081170D01*
X176102919Y-80895929D01*
X176188176Y-80690100D01*
X176231640Y-80471594D01*
X176231640Y-80248806D01*
X176188176Y-80030300D01*
X176102919Y-79824471D01*
X175979145Y-79639230D01*
X175821610Y-79481695D01*
X175636369Y-79357921D01*
X175430540Y-79272664D01*
X175212034Y-79229200D01*
X174989246Y-79229200D01*
X174770740Y-79272664D01*
X174564911Y-79357921D01*
X174379670Y-79481695D01*
X174222135Y-79639230D01*
X174098361Y-79824471D01*
X174013104Y-80030300D01*
X173969640Y-80248806D01*
X173231640Y-80248806D01*
X173188176Y-80030300D01*
X173102919Y-79824471D01*
X172979145Y-79639230D01*
X172821610Y-79481695D01*
X172636369Y-79357921D01*
X172430540Y-79272664D01*
X172212034Y-79229200D01*
X171989246Y-79229200D01*
X171770740Y-79272664D01*
X171564911Y-79357921D01*
X171379670Y-79481695D01*
X171222135Y-79639230D01*
X171098361Y-79824471D01*
X171013104Y-80030300D01*
X170969640Y-80248806D01*
X123040000Y-80248806D01*
X122996536Y-80030300D01*
X122911279Y-79824471D01*
X122787505Y-79639230D01*
X122629970Y-79481695D01*
X122444729Y-79357921D01*
X122238900Y-79272664D01*
X122020394Y-79229200D01*
X121797606Y-79229200D01*
X121579100Y-79272664D01*
X121373271Y-79357921D01*
X121188030Y-79481695D01*
X121030495Y-79639230D01*
X120906721Y-79824471D01*
X120821464Y-80030300D01*
X120778000Y-80248806D01*
X120292922Y-80248806D01*
X120257965Y-80017962D01*
X120165277Y-79761368D01*
X120104860Y-79648337D01*
X119865993Y-79582812D01*
X119088605Y-80360200D01*
X118729395Y-80360200D01*
X117952007Y-79582812D01*
X117713140Y-79648337D01*
X117597240Y-79895316D01*
X117531750Y-80160160D01*
X117519188Y-80432692D01*
X115892338Y-80432692D01*
X115819941Y-80360295D01*
X115503671Y-80148970D01*
X115152252Y-80003408D01*
X114779187Y-79929200D01*
X114398813Y-79929200D01*
X114025748Y-80003408D01*
X113674329Y-80148970D01*
X113358059Y-80360295D01*
X113089095Y-80629259D01*
X112877770Y-80945529D01*
X112732208Y-81296948D01*
X112658000Y-81670013D01*
X109842900Y-81670013D01*
X109842900Y-79403207D01*
X118131612Y-79403207D01*
X118909000Y-80180595D01*
X119686388Y-79403207D01*
X119620863Y-79164340D01*
X119373884Y-79048440D01*
X119109040Y-78982950D01*
X118836508Y-78970388D01*
X118566762Y-79011235D01*
X118310168Y-79103923D01*
X118197137Y-79164340D01*
X118131612Y-79403207D01*
X109842900Y-79403207D01*
X109842900Y-77304889D01*
X124519000Y-77304889D01*
X124519000Y-77695111D01*
X124595129Y-78077836D01*
X124744461Y-78438355D01*
X124961257Y-78762814D01*
X125237186Y-79038743D01*
X125561645Y-79255539D01*
X125922164Y-79404871D01*
X126304889Y-79481000D01*
X126695111Y-79481000D01*
X127077836Y-79404871D01*
X127438355Y-79255539D01*
X127762814Y-79038743D01*
X128038743Y-78762814D01*
X128255539Y-78438355D01*
X128404871Y-78077836D01*
X128481000Y-77695111D01*
X128481000Y-77304889D01*
X165519000Y-77304889D01*
X165519000Y-77695111D01*
X165595129Y-78077836D01*
X165744461Y-78438355D01*
X165961257Y-78762814D01*
X166237186Y-79038743D01*
X166561645Y-79255539D01*
X166922164Y-79404871D01*
X167304889Y-79481000D01*
X167695111Y-79481000D01*
X168077836Y-79404871D01*
X168438355Y-79255539D01*
X168762814Y-79038743D01*
X169038743Y-78762814D01*
X169255539Y-78438355D01*
X169404871Y-78077836D01*
X169481000Y-77695111D01*
X169481000Y-77304889D01*
X169404871Y-76922164D01*
X169255539Y-76561645D01*
X169038743Y-76237186D01*
X168762814Y-75961257D01*
X168438355Y-75744461D01*
X168077836Y-75595129D01*
X167695111Y-75519000D01*
X167304889Y-75519000D01*
X166922164Y-75595129D01*
X166561645Y-75744461D01*
X166237186Y-75961257D01*
X165961257Y-76237186D01*
X165744461Y-76561645D01*
X165595129Y-76922164D01*
X165519000Y-77304889D01*
X128481000Y-77304889D01*
X128404871Y-76922164D01*
X128255539Y-76561645D01*
X128038743Y-76237186D01*
X127762814Y-75961257D01*
X127438355Y-75744461D01*
X127077836Y-75595129D01*
X126695111Y-75519000D01*
X126304889Y-75519000D01*
X125922164Y-75595129D01*
X125561645Y-75744461D01*
X125237186Y-75961257D01*
X124961257Y-76237186D01*
X124744461Y-76561645D01*
X124595129Y-76922164D01*
X124519000Y-77304889D01*
X109842900Y-77304889D01*
X109842900Y-73516775D01*
X109866549Y-73275573D01*
X109931728Y-73059691D01*
X110037598Y-72860579D01*
X110180121Y-72685829D01*
X110353880Y-72542083D01*
X110552243Y-72434828D01*
X110767661Y-72368145D01*
X111007854Y-72342900D01*
X182983225Y-72342900D01*
X183224427Y-72366549D01*
G37*
X183224427Y-72366549D02*
X183440309Y-72431728D01*
X183639421Y-72537598D01*
X183814171Y-72680121D01*
X183957917Y-72853880D01*
X184065172Y-73052243D01*
X184131855Y-73267661D01*
X184157100Y-73507854D01*
X184157101Y-128483214D01*
X184133450Y-128724430D01*
X184068272Y-128940309D01*
X183962402Y-129139421D01*
X183819877Y-129314174D01*
X183646121Y-129457917D01*
X183447757Y-129565172D01*
X183232339Y-129631855D01*
X182992146Y-129657100D01*
X111016776Y-129657100D01*
X110775570Y-129633450D01*
X110559691Y-129568272D01*
X110360579Y-129462402D01*
X110185826Y-129319877D01*
X110042083Y-129146121D01*
X109934828Y-128947757D01*
X109868145Y-128732339D01*
X109842900Y-128492146D01*
X109842900Y-124304889D01*
X124519000Y-124304889D01*
X124519000Y-124695111D01*
X124595129Y-125077836D01*
X124744461Y-125438355D01*
X124961257Y-125762814D01*
X125237186Y-126038743D01*
X125561645Y-126255539D01*
X125922164Y-126404871D01*
X126304889Y-126481000D01*
X126695111Y-126481000D01*
X127077836Y-126404871D01*
X127438355Y-126255539D01*
X127762814Y-126038743D01*
X128038743Y-125762814D01*
X128255539Y-125438355D01*
X128404871Y-125077836D01*
X128481000Y-124695111D01*
X128481000Y-124304889D01*
X165519000Y-124304889D01*
X165519000Y-124695111D01*
X165595129Y-125077836D01*
X165744461Y-125438355D01*
X165961257Y-125762814D01*
X166237186Y-126038743D01*
X166561645Y-126255539D01*
X166922164Y-126404871D01*
X167304889Y-126481000D01*
X167695111Y-126481000D01*
X168077836Y-126404871D01*
X168438355Y-126255539D01*
X168762814Y-126038743D01*
X169038743Y-125762814D01*
X169255539Y-125438355D01*
X169404871Y-125077836D01*
X169481000Y-124695111D01*
X169481000Y-124304889D01*
X169404871Y-123922164D01*
X169255539Y-123561645D01*
X169038743Y-123237186D01*
X168762814Y-122961257D01*
X168438355Y-122744461D01*
X168077836Y-122595129D01*
X167695111Y-122519000D01*
X167304889Y-122519000D01*
X166922164Y-122595129D01*
X166561645Y-122744461D01*
X166237186Y-122961257D01*
X165961257Y-123237186D01*
X165744461Y-123561645D01*
X165595129Y-123922164D01*
X165519000Y-124304889D01*
X128481000Y-124304889D01*
X128404871Y-123922164D01*
X128255539Y-123561645D01*
X128038743Y-123237186D01*
X127762814Y-122961257D01*
X127438355Y-122744461D01*
X127077836Y-122595129D01*
X126695111Y-122519000D01*
X126304889Y-122519000D01*
X125922164Y-122595129D01*
X125561645Y-122744461D01*
X125237186Y-122961257D01*
X124961257Y-123237186D01*
X124744461Y-123561645D01*
X124595129Y-123922164D01*
X124519000Y-124304889D01*
X109842900Y-124304889D01*
X109842900Y-117903113D01*
X112658000Y-117903113D01*
X112658000Y-118283487D01*
X112732208Y-118656552D01*
X112877770Y-119007971D01*
X113089095Y-119324241D01*
X113358059Y-119593205D01*
X113674329Y-119804530D01*
X114025748Y-119950092D01*
X114398813Y-120024300D01*
X114779187Y-120024300D01*
X115152252Y-119950092D01*
X115503671Y-119804530D01*
X115819941Y-119593205D01*
X115931240Y-119481906D01*
X117778000Y-119481906D01*
X117778000Y-119704694D01*
X117821464Y-119923200D01*
X117906721Y-120129029D01*
X118030495Y-120314270D01*
X118188030Y-120471805D01*
X118373271Y-120595579D01*
X118579100Y-120680836D01*
X118797606Y-120724300D01*
X119020394Y-120724300D01*
X119238900Y-120680836D01*
X119444729Y-120595579D01*
X119629970Y-120471805D01*
X119787505Y-120314270D01*
X119911279Y-120129029D01*
X119996536Y-119923200D01*
X120040000Y-119704694D01*
X120040000Y-119481906D01*
X119996536Y-119263400D01*
X119911279Y-119057571D01*
X119787505Y-118872330D01*
X119629970Y-118714795D01*
X119444729Y-118591021D01*
X119238900Y-118505764D01*
X119020394Y-118462300D01*
X118797606Y-118462300D01*
X118579100Y-118505764D01*
X118373271Y-118591021D01*
X118188030Y-118714795D01*
X118030495Y-118872330D01*
X117906721Y-119057571D01*
X117821464Y-119263400D01*
X117778000Y-119481906D01*
X115931240Y-119481906D01*
X116088905Y-119324241D01*
X116300230Y-119007971D01*
X116445792Y-118656552D01*
X116520000Y-118283487D01*
X116520000Y-117903113D01*
X116449820Y-117550293D01*
X118131612Y-117550293D01*
X118197137Y-117789160D01*
X118444116Y-117905060D01*
X118708960Y-117970550D01*
X118981492Y-117983112D01*
X119251238Y-117942265D01*
X119507832Y-117849577D01*
X119620863Y-117789160D01*
X119686388Y-117550293D01*
X118909000Y-116772905D01*
X118131612Y-117550293D01*
X116449820Y-117550293D01*
X116445792Y-117530048D01*
X116300230Y-117178629D01*
X116088905Y-116862359D01*
X115892338Y-116665792D01*
X117519188Y-116665792D01*
X117560035Y-116935538D01*
X117652723Y-117192132D01*
X117713140Y-117305163D01*
X117952007Y-117370688D01*
X118729395Y-116593300D01*
X119088605Y-116593300D01*
X119865993Y-117370688D01*
X120104860Y-117305163D01*
X120220760Y-117058184D01*
X120286250Y-116793340D01*
X120298812Y-116520808D01*
X120292922Y-116481906D01*
X120778000Y-116481906D01*
X120778000Y-116704694D01*
X120821464Y-116923200D01*
X120906721Y-117129029D01*
X121030495Y-117314270D01*
X121188030Y-117471805D01*
X121373271Y-117595579D01*
X121579100Y-117680836D01*
X121797606Y-117724300D01*
X121966394Y-117724300D01*
X121551971Y-118138723D01*
X121531711Y-118155350D01*
X121515084Y-118175610D01*
X121515083Y-118175611D01*
X121465354Y-118236205D01*
X121416047Y-118328453D01*
X121385684Y-118428547D01*
X121375432Y-118532640D01*
X121378001Y-118558724D01*
X121378001Y-118589062D01*
X121373271Y-118591021D01*
X121188030Y-118714795D01*
X121030495Y-118872330D01*
X120906721Y-119057571D01*
X120821464Y-119263400D01*
X120778000Y-119481906D01*
X120778000Y-119704694D01*
X120821464Y-119923200D01*
X120906721Y-120129029D01*
X121030495Y-120314270D01*
X121188030Y-120471805D01*
X121373271Y-120595579D01*
X121579100Y-120680836D01*
X121797606Y-120724300D01*
X122020394Y-120724300D01*
X122238900Y-120680836D01*
X122444729Y-120595579D01*
X122629970Y-120471805D01*
X122787505Y-120314270D01*
X122911279Y-120129029D01*
X122996536Y-119923200D01*
X123040000Y-119704694D01*
X123040000Y-119481906D01*
X122996536Y-119263400D01*
X122911279Y-119057571D01*
X122787505Y-118872330D01*
X122629970Y-118714795D01*
X122538745Y-118653841D01*
X122898709Y-118293877D01*
X125278560Y-118293877D01*
X125278560Y-118536363D01*
X125325867Y-118774189D01*
X125418662Y-118998217D01*
X125553380Y-119199837D01*
X125724843Y-119371300D01*
X125926463Y-119506018D01*
X126150491Y-119598813D01*
X126388317Y-119646120D01*
X126630803Y-119646120D01*
X126868629Y-119598813D01*
X127092657Y-119506018D01*
X127294277Y-119371300D01*
X127465740Y-119199837D01*
X127600458Y-118998217D01*
X127693253Y-118774189D01*
X127740560Y-118536363D01*
X127740560Y-118309117D01*
X166319880Y-118309117D01*
X166319880Y-118551603D01*
X166367187Y-118789429D01*
X166459982Y-119013457D01*
X166594700Y-119215077D01*
X166766163Y-119386540D01*
X166967783Y-119521258D01*
X167191811Y-119614053D01*
X167429637Y-119661360D01*
X167672123Y-119661360D01*
X167909949Y-119614053D01*
X168133977Y-119521258D01*
X168335597Y-119386540D01*
X168507060Y-119215077D01*
X168641778Y-119013457D01*
X168663357Y-118961360D01*
X170717754Y-118961360D01*
X171015063Y-119258670D01*
X171013104Y-119263400D01*
X170969640Y-119481906D01*
X170969640Y-119704694D01*
X171013104Y-119923200D01*
X171098361Y-120129029D01*
X171222135Y-120314270D01*
X171379670Y-120471805D01*
X171564911Y-120595579D01*
X171770740Y-120680836D01*
X171989246Y-120724300D01*
X172212034Y-120724300D01*
X172430540Y-120680836D01*
X172636369Y-120595579D01*
X172704144Y-120550293D01*
X174323252Y-120550293D01*
X174388777Y-120789160D01*
X174635756Y-120905060D01*
X174900600Y-120970550D01*
X175173132Y-120983112D01*
X175442878Y-120942265D01*
X175699472Y-120849577D01*
X175812503Y-120789160D01*
X175878028Y-120550293D01*
X175100640Y-119772905D01*
X174323252Y-120550293D01*
X172704144Y-120550293D01*
X172821610Y-120471805D01*
X172979145Y-120314270D01*
X173102919Y-120129029D01*
X173188176Y-119923200D01*
X173231640Y-119704694D01*
X173231640Y-119665792D01*
X173710828Y-119665792D01*
X173751675Y-119935538D01*
X173844363Y-120192132D01*
X173904780Y-120305163D01*
X174143647Y-120370688D01*
X174921035Y-119593300D01*
X175280245Y-119593300D01*
X176057633Y-120370688D01*
X176296500Y-120305163D01*
X176412400Y-120058184D01*
X176477890Y-119793340D01*
X176490452Y-119520808D01*
X176449605Y-119251062D01*
X176356917Y-118994468D01*
X176296500Y-118881437D01*
X176057633Y-118815912D01*
X175280245Y-119593300D01*
X174921035Y-119593300D01*
X174143647Y-118815912D01*
X173904780Y-118881437D01*
X173788880Y-119128416D01*
X173723390Y-119393260D01*
X173710828Y-119665792D01*
X173231640Y-119665792D01*
X173231640Y-119481906D01*
X173188176Y-119263400D01*
X173102919Y-119057571D01*
X172979145Y-118872330D01*
X172821610Y-118714795D01*
X172704145Y-118636307D01*
X174323252Y-118636307D01*
X175100640Y-119413695D01*
X175878028Y-118636307D01*
X175812503Y-118397440D01*
X175565524Y-118281540D01*
X175300680Y-118216050D01*
X175028148Y-118203488D01*
X174758402Y-118244335D01*
X174501808Y-118337023D01*
X174388777Y-118397440D01*
X174323252Y-118636307D01*
X172704145Y-118636307D01*
X172636369Y-118591021D01*
X172430540Y-118505764D01*
X172212034Y-118462300D01*
X171989246Y-118462300D01*
X171770740Y-118505764D01*
X171766010Y-118507723D01*
X171331621Y-118073335D01*
X171314990Y-118053070D01*
X171234135Y-117986714D01*
X171141888Y-117937407D01*
X171041794Y-117907043D01*
X171001891Y-117903113D01*
X177489640Y-117903113D01*
X177489640Y-118283487D01*
X177563848Y-118656552D01*
X177709410Y-119007971D01*
X177920735Y-119324241D01*
X178189699Y-119593205D01*
X178505969Y-119804530D01*
X178857388Y-119950092D01*
X179230453Y-120024300D01*
X179610827Y-120024300D01*
X179983892Y-119950092D01*
X180335311Y-119804530D01*
X180651581Y-119593205D01*
X180920545Y-119324241D01*
X181131870Y-119007971D01*
X181277432Y-118656552D01*
X181351640Y-118283487D01*
X181351640Y-117903113D01*
X181277432Y-117530048D01*
X181131870Y-117178629D01*
X180920545Y-116862359D01*
X180651581Y-116593395D01*
X180335311Y-116382070D01*
X179983892Y-116236508D01*
X179610827Y-116162300D01*
X179230453Y-116162300D01*
X178857388Y-116236508D01*
X178505969Y-116382070D01*
X178189699Y-116593395D01*
X177920735Y-116862359D01*
X177709410Y-117178629D01*
X177563848Y-117530048D01*
X177489640Y-117903113D01*
X171001891Y-117903113D01*
X170963784Y-117899360D01*
X170963774Y-117899360D01*
X170937700Y-117896792D01*
X170911626Y-117899360D01*
X168663357Y-117899360D01*
X168641778Y-117847263D01*
X168507060Y-117645643D01*
X168335597Y-117474180D01*
X168133977Y-117339462D01*
X167909949Y-117246667D01*
X167672123Y-117199360D01*
X167429637Y-117199360D01*
X167191811Y-117246667D01*
X166967783Y-117339462D01*
X166766163Y-117474180D01*
X166594700Y-117645643D01*
X166459982Y-117847263D01*
X166367187Y-118071291D01*
X166319880Y-118309117D01*
X127740560Y-118309117D01*
X127740560Y-118293877D01*
X127693253Y-118056051D01*
X127600458Y-117832023D01*
X127465740Y-117630403D01*
X127294277Y-117458940D01*
X127092657Y-117324222D01*
X126868629Y-117231427D01*
X126630803Y-117184120D01*
X126388317Y-117184120D01*
X126150491Y-117231427D01*
X125926463Y-117324222D01*
X125724843Y-117458940D01*
X125553380Y-117630403D01*
X125418662Y-117832023D01*
X125325867Y-118056051D01*
X125278560Y-118293877D01*
X122898709Y-118293877D01*
X125278560Y-115914027D01*
X125278560Y-115996363D01*
X125325867Y-116234189D01*
X125418662Y-116458217D01*
X125553380Y-116659837D01*
X125724843Y-116831300D01*
X125926463Y-116966018D01*
X126150491Y-117058813D01*
X126388317Y-117106120D01*
X126630803Y-117106120D01*
X126868629Y-117058813D01*
X127092657Y-116966018D01*
X127294277Y-116831300D01*
X127465740Y-116659837D01*
X127600458Y-116458217D01*
X127693253Y-116234189D01*
X127740560Y-115996363D01*
X127740560Y-115769117D01*
X166319880Y-115769117D01*
X166319880Y-116011603D01*
X166367187Y-116249429D01*
X166459982Y-116473457D01*
X166594700Y-116675077D01*
X166766163Y-116846540D01*
X166967783Y-116981258D01*
X167191811Y-117074053D01*
X167429637Y-117121360D01*
X167672123Y-117121360D01*
X167909949Y-117074053D01*
X168133977Y-116981258D01*
X168335597Y-116846540D01*
X168507060Y-116675077D01*
X168641778Y-116473457D01*
X168734573Y-116249429D01*
X168781880Y-116011603D01*
X168781880Y-115769117D01*
X168734573Y-115531291D01*
X168641778Y-115307263D01*
X168507060Y-115105643D01*
X168335597Y-114934180D01*
X168133977Y-114799462D01*
X167909949Y-114706667D01*
X167672123Y-114659360D01*
X167429637Y-114659360D01*
X167191811Y-114706667D01*
X166967783Y-114799462D01*
X166766163Y-114934180D01*
X166594700Y-115105643D01*
X166459982Y-115307263D01*
X166367187Y-115531291D01*
X166319880Y-115769117D01*
X127740560Y-115769117D01*
X127740560Y-115753877D01*
X127693253Y-115516051D01*
X127600458Y-115292023D01*
X127465740Y-115090403D01*
X127294277Y-114918940D01*
X127092657Y-114784222D01*
X126868629Y-114691427D01*
X126630803Y-114644120D01*
X126388317Y-114644120D01*
X126190561Y-114683457D01*
X126190561Y-114526783D01*
X126388317Y-114566120D01*
X126630803Y-114566120D01*
X126868629Y-114518813D01*
X127092657Y-114426018D01*
X127294277Y-114291300D01*
X127465740Y-114119837D01*
X127600458Y-113918217D01*
X127693253Y-113694189D01*
X127740560Y-113456363D01*
X127740560Y-113229117D01*
X166319880Y-113229117D01*
X166319880Y-113471603D01*
X166367187Y-113709429D01*
X166459982Y-113933457D01*
X166594700Y-114135077D01*
X166766163Y-114306540D01*
X166967783Y-114441258D01*
X167191811Y-114534053D01*
X167429637Y-114581360D01*
X167672123Y-114581360D01*
X167909949Y-114534053D01*
X168133977Y-114441258D01*
X168335597Y-114306540D01*
X168507060Y-114135077D01*
X168641778Y-113933457D01*
X168734573Y-113709429D01*
X168781880Y-113471603D01*
X168781880Y-113229117D01*
X168734573Y-112991291D01*
X168641778Y-112767263D01*
X168507060Y-112565643D01*
X168335597Y-112394180D01*
X168133977Y-112259462D01*
X167909949Y-112166667D01*
X167672123Y-112119360D01*
X167429637Y-112119360D01*
X167191811Y-112166667D01*
X166967783Y-112259462D01*
X166766163Y-112394180D01*
X166594700Y-112565643D01*
X166459982Y-112767263D01*
X166367187Y-112991291D01*
X166319880Y-113229117D01*
X127740560Y-113229117D01*
X127740560Y-113213877D01*
X127693253Y-112976051D01*
X127600458Y-112752023D01*
X127465740Y-112550403D01*
X127294277Y-112378940D01*
X127092657Y-112244222D01*
X126868629Y-112151427D01*
X126630803Y-112104120D01*
X126388317Y-112104120D01*
X126150491Y-112151427D01*
X125926463Y-112244222D01*
X125724843Y-112378940D01*
X125553380Y-112550403D01*
X125418662Y-112752023D01*
X125325867Y-112976051D01*
X125278560Y-113213877D01*
X125278560Y-113456363D01*
X125325867Y-113694189D01*
X125347447Y-113746287D01*
X125302532Y-113791202D01*
X125282272Y-113807829D01*
X125265645Y-113828089D01*
X125265644Y-113828090D01*
X125215915Y-113888684D01*
X125166608Y-113980932D01*
X125145456Y-114050662D01*
X125136245Y-114081025D01*
X125128561Y-114159035D01*
X125128561Y-114159045D01*
X125125993Y-114185119D01*
X125128561Y-114211193D01*
X125128561Y-114562132D01*
X123040000Y-116650694D01*
X123040000Y-116481906D01*
X122996536Y-116263400D01*
X122911279Y-116057571D01*
X122787505Y-115872330D01*
X122629970Y-115714795D01*
X122444729Y-115591021D01*
X122238900Y-115505764D01*
X122020394Y-115462300D01*
X121797606Y-115462300D01*
X121579100Y-115505764D01*
X121373271Y-115591021D01*
X121188030Y-115714795D01*
X121030495Y-115872330D01*
X120906721Y-116057571D01*
X120821464Y-116263400D01*
X120778000Y-116481906D01*
X120292922Y-116481906D01*
X120257965Y-116251062D01*
X120165277Y-115994468D01*
X120104860Y-115881437D01*
X119865993Y-115815912D01*
X119088605Y-116593300D01*
X118729395Y-116593300D01*
X117952007Y-115815912D01*
X117713140Y-115881437D01*
X117597240Y-116128416D01*
X117531750Y-116393260D01*
X117519188Y-116665792D01*
X115892338Y-116665792D01*
X115819941Y-116593395D01*
X115503671Y-116382070D01*
X115152252Y-116236508D01*
X114779187Y-116162300D01*
X114398813Y-116162300D01*
X114025748Y-116236508D01*
X113674329Y-116382070D01*
X113358059Y-116593395D01*
X113089095Y-116862359D01*
X112877770Y-117178629D01*
X112732208Y-117530048D01*
X112658000Y-117903113D01*
X109842900Y-117903113D01*
X109842900Y-115636307D01*
X118131612Y-115636307D01*
X118909000Y-116413695D01*
X119686388Y-115636307D01*
X119620863Y-115397440D01*
X119373884Y-115281540D01*
X119109040Y-115216050D01*
X118836508Y-115203488D01*
X118566762Y-115244335D01*
X118310168Y-115337023D01*
X118197137Y-115397440D01*
X118131612Y-115636307D01*
X109842900Y-115636307D01*
X109842900Y-105825413D01*
X112658000Y-105825413D01*
X112658000Y-106205787D01*
X112732208Y-106578852D01*
X112877770Y-106930271D01*
X113089095Y-107246541D01*
X113358059Y-107515505D01*
X113674329Y-107726830D01*
X114025748Y-107872392D01*
X114398813Y-107946600D01*
X114779187Y-107946600D01*
X115152252Y-107872392D01*
X115503671Y-107726830D01*
X115819941Y-107515505D01*
X115931240Y-107404206D01*
X117778000Y-107404206D01*
X117778000Y-107626994D01*
X117821464Y-107845500D01*
X117906721Y-108051329D01*
X118030495Y-108236570D01*
X118188030Y-108394105D01*
X118373271Y-108517879D01*
X118579100Y-108603136D01*
X118797606Y-108646600D01*
X119020394Y-108646600D01*
X119238900Y-108603136D01*
X119444729Y-108517879D01*
X119629970Y-108394105D01*
X119787505Y-108236570D01*
X119911279Y-108051329D01*
X119996536Y-107845500D01*
X120040000Y-107626994D01*
X120040000Y-107404206D01*
X120778000Y-107404206D01*
X120778000Y-107626994D01*
X120821464Y-107845500D01*
X120906721Y-108051329D01*
X121030495Y-108236570D01*
X121188030Y-108394105D01*
X121373271Y-108517879D01*
X121579100Y-108603136D01*
X121797606Y-108646600D01*
X122020394Y-108646600D01*
X122238900Y-108603136D01*
X122444729Y-108517879D01*
X122629970Y-108394105D01*
X122787505Y-108236570D01*
X122911279Y-108051329D01*
X122996536Y-107845500D01*
X123040000Y-107626994D01*
X123040000Y-107404206D01*
X122996536Y-107185700D01*
X122911279Y-106979871D01*
X122787505Y-106794630D01*
X122629970Y-106637095D01*
X122444729Y-106513321D01*
X122238900Y-106428064D01*
X122020394Y-106384600D01*
X121797606Y-106384600D01*
X121579100Y-106428064D01*
X121373271Y-106513321D01*
X121188030Y-106637095D01*
X121030495Y-106794630D01*
X120906721Y-106979871D01*
X120821464Y-107185700D01*
X120778000Y-107404206D01*
X120040000Y-107404206D01*
X119996536Y-107185700D01*
X119911279Y-106979871D01*
X119787505Y-106794630D01*
X119629970Y-106637095D01*
X119444729Y-106513321D01*
X119238900Y-106428064D01*
X119020394Y-106384600D01*
X118797606Y-106384600D01*
X118579100Y-106428064D01*
X118373271Y-106513321D01*
X118188030Y-106637095D01*
X118030495Y-106794630D01*
X117906721Y-106979871D01*
X117821464Y-107185700D01*
X117778000Y-107404206D01*
X115931240Y-107404206D01*
X116088905Y-107246541D01*
X116300230Y-106930271D01*
X116445792Y-106578852D01*
X116520000Y-106205787D01*
X116520000Y-105825413D01*
X116449820Y-105472593D01*
X118131612Y-105472593D01*
X118197137Y-105711460D01*
X118444116Y-105827360D01*
X118708960Y-105892850D01*
X118981492Y-105905412D01*
X119251238Y-105864565D01*
X119507832Y-105771877D01*
X119620863Y-105711460D01*
X119686388Y-105472593D01*
X118909000Y-104695205D01*
X118131612Y-105472593D01*
X116449820Y-105472593D01*
X116445792Y-105452348D01*
X116300230Y-105100929D01*
X116088905Y-104784659D01*
X115892338Y-104588092D01*
X117519188Y-104588092D01*
X117560035Y-104857838D01*
X117652723Y-105114432D01*
X117713140Y-105227463D01*
X117952007Y-105292988D01*
X118729395Y-104515600D01*
X119088605Y-104515600D01*
X119865993Y-105292988D01*
X120104860Y-105227463D01*
X120220760Y-104980484D01*
X120286250Y-104715640D01*
X120298812Y-104443108D01*
X120292922Y-104404206D01*
X120778000Y-104404206D01*
X120778000Y-104626994D01*
X120821464Y-104845500D01*
X120906721Y-105051329D01*
X121030495Y-105236570D01*
X121188030Y-105394105D01*
X121373271Y-105517879D01*
X121579100Y-105603136D01*
X121797606Y-105646600D01*
X122020394Y-105646600D01*
X122238900Y-105603136D01*
X122243630Y-105601177D01*
X123469000Y-106826548D01*
X123469001Y-108259476D01*
X123466432Y-108285560D01*
X123469001Y-108311644D01*
X123476684Y-108389654D01*
X123478034Y-108394105D01*
X123507047Y-108489747D01*
X123556354Y-108581995D01*
X123595283Y-108629429D01*
X123622711Y-108662850D01*
X123642971Y-108679477D01*
X125347446Y-110383954D01*
X125325867Y-110436051D01*
X125278560Y-110673877D01*
X125278560Y-110916363D01*
X125325867Y-111154189D01*
X125418662Y-111378217D01*
X125553380Y-111579837D01*
X125724843Y-111751300D01*
X125926463Y-111886018D01*
X126150491Y-111978813D01*
X126388317Y-112026120D01*
X126630803Y-112026120D01*
X126868629Y-111978813D01*
X127092657Y-111886018D01*
X127294277Y-111751300D01*
X127465740Y-111579837D01*
X127600458Y-111378217D01*
X127693253Y-111154189D01*
X127740560Y-110916363D01*
X127740560Y-110689117D01*
X166319880Y-110689117D01*
X166319880Y-110931603D01*
X166367187Y-111169429D01*
X166459982Y-111393457D01*
X166594700Y-111595077D01*
X166766163Y-111766540D01*
X166967783Y-111901258D01*
X167191811Y-111994053D01*
X167429637Y-112041360D01*
X167672123Y-112041360D01*
X167909949Y-111994053D01*
X167962047Y-111972473D01*
X171569640Y-115580067D01*
X171569640Y-115589062D01*
X171564911Y-115591021D01*
X171379670Y-115714795D01*
X171222135Y-115872330D01*
X171098361Y-116057571D01*
X171013104Y-116263400D01*
X170969640Y-116481906D01*
X170969640Y-116704694D01*
X171013104Y-116923200D01*
X171098361Y-117129029D01*
X171222135Y-117314270D01*
X171379670Y-117471805D01*
X171564911Y-117595579D01*
X171770740Y-117680836D01*
X171989246Y-117724300D01*
X172212034Y-117724300D01*
X172430540Y-117680836D01*
X172636369Y-117595579D01*
X172821610Y-117471805D01*
X172979145Y-117314270D01*
X173102919Y-117129029D01*
X173188176Y-116923200D01*
X173231640Y-116704694D01*
X173231640Y-116481906D01*
X173969640Y-116481906D01*
X173969640Y-116704694D01*
X174013104Y-116923200D01*
X174098361Y-117129029D01*
X174222135Y-117314270D01*
X174379670Y-117471805D01*
X174564911Y-117595579D01*
X174770740Y-117680836D01*
X174989246Y-117724300D01*
X175212034Y-117724300D01*
X175430540Y-117680836D01*
X175636369Y-117595579D01*
X175821610Y-117471805D01*
X175979145Y-117314270D01*
X176102919Y-117129029D01*
X176188176Y-116923200D01*
X176231640Y-116704694D01*
X176231640Y-116481906D01*
X176188176Y-116263400D01*
X176102919Y-116057571D01*
X175979145Y-115872330D01*
X175821610Y-115714795D01*
X175636369Y-115591021D01*
X175430540Y-115505764D01*
X175212034Y-115462300D01*
X174989246Y-115462300D01*
X174770740Y-115505764D01*
X174564911Y-115591021D01*
X174379670Y-115714795D01*
X174222135Y-115872330D01*
X174098361Y-116057571D01*
X174013104Y-116263400D01*
X173969640Y-116481906D01*
X173231640Y-116481906D01*
X173188176Y-116263400D01*
X173102919Y-116057571D01*
X172979145Y-115872330D01*
X172821610Y-115714795D01*
X172636369Y-115591021D01*
X172631640Y-115589062D01*
X172631640Y-115386193D01*
X172634208Y-115360119D01*
X172631640Y-115334045D01*
X172631640Y-115334036D01*
X172623957Y-115256026D01*
X172593593Y-115155932D01*
X172552213Y-115078515D01*
X172544286Y-115063684D01*
X172494557Y-115003090D01*
X172477930Y-114982830D01*
X172457670Y-114966203D01*
X168712993Y-111221527D01*
X168734573Y-111169429D01*
X168781880Y-110931603D01*
X168781880Y-110689117D01*
X168734573Y-110451291D01*
X168641778Y-110227263D01*
X168507060Y-110025643D01*
X168335597Y-109854180D01*
X168133977Y-109719462D01*
X167909949Y-109626667D01*
X167672123Y-109579360D01*
X167429637Y-109579360D01*
X167191811Y-109626667D01*
X166967783Y-109719462D01*
X166766163Y-109854180D01*
X166594700Y-110025643D01*
X166459982Y-110227263D01*
X166367187Y-110451291D01*
X166319880Y-110689117D01*
X127740560Y-110689117D01*
X127740560Y-110673877D01*
X127693253Y-110436051D01*
X127600458Y-110212023D01*
X127465740Y-110010403D01*
X127294277Y-109838940D01*
X127092657Y-109704222D01*
X126868629Y-109611427D01*
X126630803Y-109564120D01*
X126388317Y-109564120D01*
X126150491Y-109611427D01*
X126098394Y-109633006D01*
X124599264Y-108133877D01*
X125278560Y-108133877D01*
X125278560Y-108376363D01*
X125325867Y-108614189D01*
X125418662Y-108838217D01*
X125553380Y-109039837D01*
X125724843Y-109211300D01*
X125926463Y-109346018D01*
X126150491Y-109438813D01*
X126388317Y-109486120D01*
X126630803Y-109486120D01*
X126868629Y-109438813D01*
X127092657Y-109346018D01*
X127294277Y-109211300D01*
X127465740Y-109039837D01*
X127600458Y-108838217D01*
X127693253Y-108614189D01*
X127740560Y-108376363D01*
X127740560Y-108149117D01*
X166319880Y-108149117D01*
X166319880Y-108391603D01*
X166367187Y-108629429D01*
X166459982Y-108853457D01*
X166594700Y-109055077D01*
X166766163Y-109226540D01*
X166967783Y-109361258D01*
X167191811Y-109454053D01*
X167429637Y-109501360D01*
X167672123Y-109501360D01*
X167909949Y-109454053D01*
X168133977Y-109361258D01*
X168335597Y-109226540D01*
X168507060Y-109055077D01*
X168641778Y-108853457D01*
X168734573Y-108629429D01*
X168781880Y-108391603D01*
X168781880Y-108149117D01*
X168734573Y-107911291D01*
X168641778Y-107687263D01*
X168507060Y-107485643D01*
X168425623Y-107404206D01*
X170969640Y-107404206D01*
X170969640Y-107626994D01*
X171013104Y-107845500D01*
X171098361Y-108051329D01*
X171222135Y-108236570D01*
X171379670Y-108394105D01*
X171564911Y-108517879D01*
X171770740Y-108603136D01*
X171989246Y-108646600D01*
X172212034Y-108646600D01*
X172430540Y-108603136D01*
X172636369Y-108517879D01*
X172704144Y-108472593D01*
X174323252Y-108472593D01*
X174388777Y-108711460D01*
X174635756Y-108827360D01*
X174900600Y-108892850D01*
X175173132Y-108905412D01*
X175442878Y-108864565D01*
X175699472Y-108771877D01*
X175812503Y-108711460D01*
X175878028Y-108472593D01*
X175100640Y-107695205D01*
X174323252Y-108472593D01*
X172704144Y-108472593D01*
X172821610Y-108394105D01*
X172979145Y-108236570D01*
X173102919Y-108051329D01*
X173188176Y-107845500D01*
X173231640Y-107626994D01*
X173231640Y-107588092D01*
X173710828Y-107588092D01*
X173751675Y-107857838D01*
X173844363Y-108114432D01*
X173904780Y-108227463D01*
X174143647Y-108292988D01*
X174921035Y-107515600D01*
X175280245Y-107515600D01*
X176057633Y-108292988D01*
X176296500Y-108227463D01*
X176412400Y-107980484D01*
X176477890Y-107715640D01*
X176490452Y-107443108D01*
X176449605Y-107173362D01*
X176356917Y-106916768D01*
X176296500Y-106803737D01*
X176057633Y-106738212D01*
X175280245Y-107515600D01*
X174921035Y-107515600D01*
X174143647Y-106738212D01*
X173904780Y-106803737D01*
X173788880Y-107050716D01*
X173723390Y-107315560D01*
X173710828Y-107588092D01*
X173231640Y-107588092D01*
X173231640Y-107404206D01*
X173188176Y-107185700D01*
X173102919Y-106979871D01*
X172979145Y-106794630D01*
X172821610Y-106637095D01*
X172704145Y-106558607D01*
X174323252Y-106558607D01*
X175100640Y-107335995D01*
X175878028Y-106558607D01*
X175812503Y-106319740D01*
X175565524Y-106203840D01*
X175300680Y-106138350D01*
X175028148Y-106125788D01*
X174758402Y-106166635D01*
X174501808Y-106259323D01*
X174388777Y-106319740D01*
X174323252Y-106558607D01*
X172704145Y-106558607D01*
X172636369Y-106513321D01*
X172430540Y-106428064D01*
X172212034Y-106384600D01*
X171989246Y-106384600D01*
X171770740Y-106428064D01*
X171564911Y-106513321D01*
X171379670Y-106637095D01*
X171222135Y-106794630D01*
X171098361Y-106979871D01*
X171013104Y-107185700D01*
X170969640Y-107404206D01*
X168425623Y-107404206D01*
X168335597Y-107314180D01*
X168133977Y-107179462D01*
X167909949Y-107086667D01*
X167672123Y-107039360D01*
X167429637Y-107039360D01*
X167191811Y-107086667D01*
X166967783Y-107179462D01*
X166766163Y-107314180D01*
X166594700Y-107485643D01*
X166459982Y-107687263D01*
X166367187Y-107911291D01*
X166319880Y-108149117D01*
X127740560Y-108149117D01*
X127740560Y-108133877D01*
X127693253Y-107896051D01*
X127600458Y-107672023D01*
X127465740Y-107470403D01*
X127294277Y-107298940D01*
X127092657Y-107164222D01*
X126868629Y-107071427D01*
X126630803Y-107024120D01*
X126388317Y-107024120D01*
X126150491Y-107071427D01*
X125926463Y-107164222D01*
X125724843Y-107298940D01*
X125553380Y-107470403D01*
X125418662Y-107672023D01*
X125325867Y-107896051D01*
X125278560Y-108133877D01*
X124599264Y-108133877D01*
X124531000Y-108065614D01*
X124531000Y-106632674D01*
X124533568Y-106606600D01*
X124531000Y-106580526D01*
X124531000Y-106580516D01*
X124523317Y-106502506D01*
X124492953Y-106402412D01*
X124445406Y-106313457D01*
X124443646Y-106310164D01*
X124393918Y-106249570D01*
X124393912Y-106249564D01*
X124377290Y-106229310D01*
X124357036Y-106212688D01*
X122994577Y-104850230D01*
X122996536Y-104845500D01*
X123040000Y-104626994D01*
X123040000Y-104404206D01*
X122996536Y-104185700D01*
X122911279Y-103979871D01*
X122787505Y-103794630D01*
X122629970Y-103637095D01*
X122444729Y-103513321D01*
X122238900Y-103428064D01*
X122020394Y-103384600D01*
X121797606Y-103384600D01*
X121579100Y-103428064D01*
X121373271Y-103513321D01*
X121188030Y-103637095D01*
X121030495Y-103794630D01*
X120906721Y-103979871D01*
X120821464Y-104185700D01*
X120778000Y-104404206D01*
X120292922Y-104404206D01*
X120257965Y-104173362D01*
X120165277Y-103916768D01*
X120104860Y-103803737D01*
X119865993Y-103738212D01*
X119088605Y-104515600D01*
X118729395Y-104515600D01*
X117952007Y-103738212D01*
X117713140Y-103803737D01*
X117597240Y-104050716D01*
X117531750Y-104315560D01*
X117519188Y-104588092D01*
X115892338Y-104588092D01*
X115819941Y-104515695D01*
X115503671Y-104304370D01*
X115152252Y-104158808D01*
X114779187Y-104084600D01*
X114398813Y-104084600D01*
X114025748Y-104158808D01*
X113674329Y-104304370D01*
X113358059Y-104515695D01*
X113089095Y-104784659D01*
X112877770Y-105100929D01*
X112732208Y-105452348D01*
X112658000Y-105825413D01*
X109842900Y-105825413D01*
X109842900Y-103558607D01*
X118131612Y-103558607D01*
X118909000Y-104335995D01*
X119686388Y-103558607D01*
X119620863Y-103319740D01*
X119373884Y-103203840D01*
X119109040Y-103138350D01*
X118836508Y-103125788D01*
X118566762Y-103166635D01*
X118310168Y-103259323D01*
X118197137Y-103319740D01*
X118131612Y-103558607D01*
X109842900Y-103558607D01*
X109842900Y-93747713D01*
X112658000Y-93747713D01*
X112658000Y-94128087D01*
X112732208Y-94501152D01*
X112877770Y-94852571D01*
X113089095Y-95168841D01*
X113358059Y-95437805D01*
X113674329Y-95649130D01*
X114025748Y-95794692D01*
X114398813Y-95868900D01*
X114779187Y-95868900D01*
X115152252Y-95794692D01*
X115503671Y-95649130D01*
X115819941Y-95437805D01*
X115931240Y-95326506D01*
X117778000Y-95326506D01*
X117778000Y-95549294D01*
X117821464Y-95767800D01*
X117906721Y-95973629D01*
X118030495Y-96158870D01*
X118188030Y-96316405D01*
X118373271Y-96440179D01*
X118579100Y-96525436D01*
X118797606Y-96568900D01*
X119020394Y-96568900D01*
X119238900Y-96525436D01*
X119444729Y-96440179D01*
X119629970Y-96316405D01*
X119787505Y-96158870D01*
X119911279Y-95973629D01*
X119996536Y-95767800D01*
X120040000Y-95549294D01*
X120040000Y-95326506D01*
X119996536Y-95108000D01*
X119911279Y-94902171D01*
X119787505Y-94716930D01*
X119629970Y-94559395D01*
X119444729Y-94435621D01*
X119238900Y-94350364D01*
X119020394Y-94306900D01*
X118797606Y-94306900D01*
X118579100Y-94350364D01*
X118373271Y-94435621D01*
X118188030Y-94559395D01*
X118030495Y-94716930D01*
X117906721Y-94902171D01*
X117821464Y-95108000D01*
X117778000Y-95326506D01*
X115931240Y-95326506D01*
X116088905Y-95168841D01*
X116300230Y-94852571D01*
X116445792Y-94501152D01*
X116520000Y-94128087D01*
X116520000Y-93747713D01*
X116449820Y-93394893D01*
X118131612Y-93394893D01*
X118197137Y-93633760D01*
X118444116Y-93749660D01*
X118708960Y-93815150D01*
X118981492Y-93827712D01*
X119251238Y-93786865D01*
X119507832Y-93694177D01*
X119620863Y-93633760D01*
X119686388Y-93394893D01*
X118909000Y-92617505D01*
X118131612Y-93394893D01*
X116449820Y-93394893D01*
X116445792Y-93374648D01*
X116300230Y-93023229D01*
X116088905Y-92706959D01*
X115892338Y-92510392D01*
X117519188Y-92510392D01*
X117560035Y-92780138D01*
X117652723Y-93036732D01*
X117713140Y-93149763D01*
X117952007Y-93215288D01*
X118729395Y-92437900D01*
X119088605Y-92437900D01*
X119865993Y-93215288D01*
X120104860Y-93149763D01*
X120220760Y-92902784D01*
X120286250Y-92637940D01*
X120298812Y-92365408D01*
X120292922Y-92326506D01*
X120778000Y-92326506D01*
X120778000Y-92549294D01*
X120821464Y-92767800D01*
X120906721Y-92973629D01*
X121030495Y-93158870D01*
X121188030Y-93316405D01*
X121373271Y-93440179D01*
X121378001Y-93442138D01*
X121378001Y-93472476D01*
X121375432Y-93498560D01*
X121385684Y-93602653D01*
X121416047Y-93702747D01*
X121465354Y-93794995D01*
X121492205Y-93827712D01*
X121531711Y-93875850D01*
X121551971Y-93892477D01*
X121966394Y-94306900D01*
X121797606Y-94306900D01*
X121579100Y-94350364D01*
X121373271Y-94435621D01*
X121188030Y-94559395D01*
X121030495Y-94716930D01*
X120906721Y-94902171D01*
X120821464Y-95108000D01*
X120778000Y-95326506D01*
X120778000Y-95549294D01*
X120821464Y-95767800D01*
X120906721Y-95973629D01*
X121030495Y-96158870D01*
X121188030Y-96316405D01*
X121373271Y-96440179D01*
X121579100Y-96525436D01*
X121797606Y-96568900D01*
X122020394Y-96568900D01*
X122238900Y-96525436D01*
X122444729Y-96440179D01*
X122629970Y-96316405D01*
X122787505Y-96158870D01*
X122911279Y-95973629D01*
X122996536Y-95767800D01*
X123040000Y-95549294D01*
X123040000Y-95380507D01*
X123969000Y-96309507D01*
X123969001Y-103679476D01*
X123966432Y-103705560D01*
X123976684Y-103809653D01*
X124007047Y-103909747D01*
X124056354Y-104001995D01*
X124096339Y-104050716D01*
X124122711Y-104082850D01*
X124142971Y-104099477D01*
X125347447Y-105303953D01*
X125325867Y-105356051D01*
X125278560Y-105593877D01*
X125278560Y-105836363D01*
X125325867Y-106074189D01*
X125418662Y-106298217D01*
X125553380Y-106499837D01*
X125724843Y-106671300D01*
X125926463Y-106806018D01*
X126150491Y-106898813D01*
X126388317Y-106946120D01*
X126630803Y-106946120D01*
X126868629Y-106898813D01*
X127092657Y-106806018D01*
X127294277Y-106671300D01*
X127465740Y-106499837D01*
X127600458Y-106298217D01*
X127693253Y-106074189D01*
X127740560Y-105836363D01*
X127740560Y-105593877D01*
X127693253Y-105356051D01*
X127600458Y-105132023D01*
X127465740Y-104930403D01*
X127294277Y-104758940D01*
X127092657Y-104624222D01*
X126868629Y-104531427D01*
X126630803Y-104484120D01*
X126388317Y-104484120D01*
X126150491Y-104531427D01*
X126098393Y-104553007D01*
X125031000Y-103485614D01*
X125031000Y-103053877D01*
X125278560Y-103053877D01*
X125278560Y-103296363D01*
X125325867Y-103534189D01*
X125418662Y-103758217D01*
X125553380Y-103959837D01*
X125724843Y-104131300D01*
X125926463Y-104266018D01*
X126150491Y-104358813D01*
X126388317Y-104406120D01*
X126630803Y-104406120D01*
X126868629Y-104358813D01*
X127092657Y-104266018D01*
X127294277Y-104131300D01*
X127465740Y-103959837D01*
X127600458Y-103758217D01*
X127693253Y-103534189D01*
X127740560Y-103296363D01*
X127740560Y-103053877D01*
X127693253Y-102816051D01*
X127600458Y-102592023D01*
X127465740Y-102390403D01*
X127294277Y-102218940D01*
X127092657Y-102084222D01*
X126868629Y-101991427D01*
X126630803Y-101944120D01*
X126388317Y-101944120D01*
X126150491Y-101991427D01*
X125926463Y-102084222D01*
X125724843Y-102218940D01*
X125553380Y-102390403D01*
X125418662Y-102592023D01*
X125325867Y-102816051D01*
X125278560Y-103053877D01*
X125031000Y-103053877D01*
X125031000Y-100513877D01*
X125278560Y-100513877D01*
X125278560Y-100756363D01*
X125325867Y-100994189D01*
X125418662Y-101218217D01*
X125553380Y-101419837D01*
X125724843Y-101591300D01*
X125926463Y-101726018D01*
X126150491Y-101818813D01*
X126388317Y-101866120D01*
X126630803Y-101866120D01*
X126868629Y-101818813D01*
X127092657Y-101726018D01*
X127294277Y-101591300D01*
X127465740Y-101419837D01*
X127600458Y-101218217D01*
X127693253Y-100994189D01*
X127740560Y-100756363D01*
X127740560Y-100513877D01*
X127693253Y-100276051D01*
X127600458Y-100052023D01*
X127465740Y-99850403D01*
X127294277Y-99678940D01*
X127092657Y-99544222D01*
X126868629Y-99451427D01*
X126630803Y-99404120D01*
X126388317Y-99404120D01*
X126150491Y-99451427D01*
X125926463Y-99544222D01*
X125724843Y-99678940D01*
X125553380Y-99850403D01*
X125418662Y-100052023D01*
X125325867Y-100276051D01*
X125278560Y-100513877D01*
X125031000Y-100513877D01*
X125031000Y-97973877D01*
X125278560Y-97973877D01*
X125278560Y-98216363D01*
X125325867Y-98454189D01*
X125418662Y-98678217D01*
X125553380Y-98879837D01*
X125724843Y-99051300D01*
X125926463Y-99186018D01*
X126150491Y-99278813D01*
X126388317Y-99326120D01*
X126630803Y-99326120D01*
X126868629Y-99278813D01*
X127092657Y-99186018D01*
X127294277Y-99051300D01*
X127465740Y-98879837D01*
X127600458Y-98678217D01*
X127693253Y-98454189D01*
X127740560Y-98216363D01*
X127740560Y-97973877D01*
X127707032Y-97805318D01*
X165466432Y-97805318D01*
X165469000Y-97831392D01*
X165469001Y-101613396D01*
X165466432Y-101639480D01*
X165476684Y-101743573D01*
X165507047Y-101843667D01*
X165556354Y-101935915D01*
X165606083Y-101996509D01*
X165622711Y-102016770D01*
X165642970Y-102033397D01*
X166388766Y-102779193D01*
X166367187Y-102831291D01*
X166319880Y-103069117D01*
X166319880Y-103311603D01*
X166367187Y-103549429D01*
X166459982Y-103773457D01*
X166594700Y-103975077D01*
X166766163Y-104146540D01*
X166967783Y-104281258D01*
X167191811Y-104374053D01*
X167429637Y-104421360D01*
X167672123Y-104421360D01*
X167909949Y-104374053D01*
X168133977Y-104281258D01*
X168335597Y-104146540D01*
X168507060Y-103975077D01*
X168641778Y-103773457D01*
X168734573Y-103549429D01*
X168781880Y-103311603D01*
X168781880Y-103069117D01*
X168734573Y-102831291D01*
X168641778Y-102607263D01*
X168507060Y-102405643D01*
X168335597Y-102234180D01*
X168133977Y-102099462D01*
X167909949Y-102006667D01*
X167672123Y-101959360D01*
X167429637Y-101959360D01*
X167191811Y-102006667D01*
X167139713Y-102028246D01*
X166531000Y-101419534D01*
X166531000Y-101339743D01*
X166594700Y-101435077D01*
X166766163Y-101606540D01*
X166967783Y-101741258D01*
X167191811Y-101834053D01*
X167429637Y-101881360D01*
X167672123Y-101881360D01*
X167909949Y-101834053D01*
X168133977Y-101741258D01*
X168335597Y-101606540D01*
X168388115Y-101554022D01*
X171015063Y-104180970D01*
X171013104Y-104185700D01*
X170969640Y-104404206D01*
X170969640Y-104626994D01*
X171013104Y-104845500D01*
X171098361Y-105051329D01*
X171197272Y-105199360D01*
X168663357Y-105199360D01*
X168641778Y-105147263D01*
X168507060Y-104945643D01*
X168335597Y-104774180D01*
X168133977Y-104639462D01*
X167909949Y-104546667D01*
X167672123Y-104499360D01*
X167429637Y-104499360D01*
X167191811Y-104546667D01*
X166967783Y-104639462D01*
X166766163Y-104774180D01*
X166594700Y-104945643D01*
X166459982Y-105147263D01*
X166367187Y-105371291D01*
X166319880Y-105609117D01*
X166319880Y-105851603D01*
X166367187Y-106089429D01*
X166459982Y-106313457D01*
X166594700Y-106515077D01*
X166766163Y-106686540D01*
X166967783Y-106821258D01*
X167191811Y-106914053D01*
X167429637Y-106961360D01*
X167672123Y-106961360D01*
X167909949Y-106914053D01*
X168133977Y-106821258D01*
X168335597Y-106686540D01*
X168507060Y-106515077D01*
X168641778Y-106313457D01*
X168663357Y-106261360D01*
X172567728Y-106261360D01*
X172593802Y-106263928D01*
X172619876Y-106261360D01*
X172619886Y-106261360D01*
X172697896Y-106253677D01*
X172797990Y-106223313D01*
X172890237Y-106174006D01*
X172971092Y-106107650D01*
X172987723Y-106087385D01*
X173249695Y-105825413D01*
X177489640Y-105825413D01*
X177489640Y-106205787D01*
X177563848Y-106578852D01*
X177709410Y-106930271D01*
X177920735Y-107246541D01*
X178189699Y-107515505D01*
X178505969Y-107726830D01*
X178857388Y-107872392D01*
X179230453Y-107946600D01*
X179610827Y-107946600D01*
X179983892Y-107872392D01*
X180335311Y-107726830D01*
X180651581Y-107515505D01*
X180920545Y-107246541D01*
X181131870Y-106930271D01*
X181277432Y-106578852D01*
X181351640Y-106205787D01*
X181351640Y-105825413D01*
X181277432Y-105452348D01*
X181131870Y-105100929D01*
X180920545Y-104784659D01*
X180651581Y-104515695D01*
X180335311Y-104304370D01*
X179983892Y-104158808D01*
X179610827Y-104084600D01*
X179230453Y-104084600D01*
X178857388Y-104158808D01*
X178505969Y-104304370D01*
X178189699Y-104515695D01*
X177920735Y-104784659D01*
X177709410Y-105100929D01*
X177563848Y-105452348D01*
X177489640Y-105825413D01*
X173249695Y-105825413D01*
X173857035Y-105218075D01*
X173877290Y-105201452D01*
X173893912Y-105181198D01*
X173893918Y-105181192D01*
X173943646Y-105120598D01*
X173992953Y-105028350D01*
X174023317Y-104928256D01*
X174027940Y-104881317D01*
X174098361Y-105051329D01*
X174222135Y-105236570D01*
X174379670Y-105394105D01*
X174564911Y-105517879D01*
X174770740Y-105603136D01*
X174989246Y-105646600D01*
X175212034Y-105646600D01*
X175430540Y-105603136D01*
X175636369Y-105517879D01*
X175821610Y-105394105D01*
X175979145Y-105236570D01*
X176102919Y-105051329D01*
X176188176Y-104845500D01*
X176231640Y-104626994D01*
X176231640Y-104404206D01*
X176188176Y-104185700D01*
X176102919Y-103979871D01*
X175979145Y-103794630D01*
X175821610Y-103637095D01*
X175636369Y-103513321D01*
X175430540Y-103428064D01*
X175212034Y-103384600D01*
X174989246Y-103384600D01*
X174770740Y-103428064D01*
X174564911Y-103513321D01*
X174379670Y-103637095D01*
X174222135Y-103794630D01*
X174098361Y-103979871D01*
X174031000Y-104142495D01*
X174031000Y-96394893D01*
X174323252Y-96394893D01*
X174388777Y-96633760D01*
X174635756Y-96749660D01*
X174900600Y-96815150D01*
X175173132Y-96827712D01*
X175442878Y-96786865D01*
X175699472Y-96694177D01*
X175812503Y-96633760D01*
X175878028Y-96394893D01*
X175100640Y-95617505D01*
X174323252Y-96394893D01*
X174031000Y-96394893D01*
X174031000Y-96184387D01*
X174143647Y-96215288D01*
X174921035Y-95437900D01*
X175280245Y-95437900D01*
X176057633Y-96215288D01*
X176296500Y-96149763D01*
X176412400Y-95902784D01*
X176477890Y-95637940D01*
X176490452Y-95365408D01*
X176449605Y-95095662D01*
X176356917Y-94839068D01*
X176296500Y-94726037D01*
X176057633Y-94660512D01*
X175280245Y-95437900D01*
X174921035Y-95437900D01*
X174143647Y-94660512D01*
X173995226Y-94701226D01*
X173992953Y-94693732D01*
X173950432Y-94614180D01*
X173943646Y-94601484D01*
X173893917Y-94540890D01*
X173877290Y-94520630D01*
X173857030Y-94504003D01*
X173833934Y-94480907D01*
X174323252Y-94480907D01*
X175100640Y-95258295D01*
X175878028Y-94480907D01*
X175812503Y-94242040D01*
X175565524Y-94126140D01*
X175300680Y-94060650D01*
X175028148Y-94048088D01*
X174758402Y-94088935D01*
X174501808Y-94181623D01*
X174388777Y-94242040D01*
X174323252Y-94480907D01*
X173833934Y-94480907D01*
X173100740Y-93747713D01*
X177489640Y-93747713D01*
X177489640Y-94128087D01*
X177563848Y-94501152D01*
X177709410Y-94852571D01*
X177920735Y-95168841D01*
X178189699Y-95437805D01*
X178505969Y-95649130D01*
X178857388Y-95794692D01*
X179230453Y-95868900D01*
X179610827Y-95868900D01*
X179983892Y-95794692D01*
X180335311Y-95649130D01*
X180651581Y-95437805D01*
X180920545Y-95168841D01*
X181131870Y-94852571D01*
X181277432Y-94501152D01*
X181351640Y-94128087D01*
X181351640Y-93747713D01*
X181277432Y-93374648D01*
X181131870Y-93023229D01*
X180920545Y-92706959D01*
X180651581Y-92437995D01*
X180335311Y-92226670D01*
X179983892Y-92081108D01*
X179610827Y-92006900D01*
X179230453Y-92006900D01*
X178857388Y-92081108D01*
X178505969Y-92226670D01*
X178189699Y-92437995D01*
X177920735Y-92706959D01*
X177709410Y-93023229D01*
X177563848Y-93374648D01*
X177489640Y-93747713D01*
X173100740Y-93747713D01*
X172730385Y-93377359D01*
X172821610Y-93316405D01*
X172979145Y-93158870D01*
X173102919Y-92973629D01*
X173188176Y-92767800D01*
X173231640Y-92549294D01*
X173231640Y-92326506D01*
X173969640Y-92326506D01*
X173969640Y-92549294D01*
X174013104Y-92767800D01*
X174098361Y-92973629D01*
X174222135Y-93158870D01*
X174379670Y-93316405D01*
X174564911Y-93440179D01*
X174770740Y-93525436D01*
X174989246Y-93568900D01*
X175212034Y-93568900D01*
X175430540Y-93525436D01*
X175636369Y-93440179D01*
X175821610Y-93316405D01*
X175979145Y-93158870D01*
X176102919Y-92973629D01*
X176188176Y-92767800D01*
X176231640Y-92549294D01*
X176231640Y-92326506D01*
X176188176Y-92108000D01*
X176102919Y-91902171D01*
X175979145Y-91716930D01*
X175821610Y-91559395D01*
X175636369Y-91435621D01*
X175430540Y-91350364D01*
X175212034Y-91306900D01*
X174989246Y-91306900D01*
X174770740Y-91350364D01*
X174564911Y-91435621D01*
X174379670Y-91559395D01*
X174222135Y-91716930D01*
X174098361Y-91902171D01*
X174013104Y-92108000D01*
X173969640Y-92326506D01*
X173231640Y-92326506D01*
X173188176Y-92108000D01*
X173102919Y-91902171D01*
X172979145Y-91716930D01*
X172821610Y-91559395D01*
X172636369Y-91435621D01*
X172430540Y-91350364D01*
X172212034Y-91306900D01*
X171989246Y-91306900D01*
X171770740Y-91350364D01*
X171564911Y-91435621D01*
X171379670Y-91559395D01*
X171222135Y-91716930D01*
X171098361Y-91902171D01*
X171013104Y-92108000D01*
X170969640Y-92326506D01*
X170969640Y-92549294D01*
X171013104Y-92767800D01*
X171098361Y-92973629D01*
X171222135Y-93158870D01*
X171379670Y-93316405D01*
X171564911Y-93440179D01*
X171569641Y-93442138D01*
X171569641Y-93472476D01*
X171567072Y-93498560D01*
X171577324Y-93602653D01*
X171607687Y-93702747D01*
X171656994Y-93794995D01*
X171683845Y-93827712D01*
X171723351Y-93875850D01*
X171743611Y-93892477D01*
X172158034Y-94306900D01*
X171989246Y-94306900D01*
X171770740Y-94350364D01*
X171564911Y-94435621D01*
X171379670Y-94559395D01*
X171222135Y-94716930D01*
X171098361Y-94902171D01*
X171096402Y-94906900D01*
X171066054Y-94906900D01*
X171039980Y-94904332D01*
X171013906Y-94906900D01*
X171013896Y-94906900D01*
X170935886Y-94914583D01*
X170835792Y-94944947D01*
X170743544Y-94994254D01*
X170682950Y-95043983D01*
X170662690Y-95060610D01*
X170646063Y-95080870D01*
X169401575Y-96325359D01*
X168526917Y-96325359D01*
X168641778Y-96153457D01*
X168734573Y-95929429D01*
X168781880Y-95691603D01*
X168781880Y-95449117D01*
X168734573Y-95211291D01*
X168641778Y-94987263D01*
X168507060Y-94785643D01*
X168335597Y-94614180D01*
X168133977Y-94479462D01*
X167909949Y-94386667D01*
X167672123Y-94339360D01*
X167429637Y-94339360D01*
X167191811Y-94386667D01*
X166967783Y-94479462D01*
X166766163Y-94614180D01*
X166594700Y-94785643D01*
X166459982Y-94987263D01*
X166367187Y-95211291D01*
X166319880Y-95449117D01*
X166319880Y-95691603D01*
X166367187Y-95929429D01*
X166459982Y-96153457D01*
X166594700Y-96355077D01*
X166652420Y-96412797D01*
X166591929Y-96462441D01*
X166591923Y-96462447D01*
X166571669Y-96479069D01*
X166555046Y-96499324D01*
X165642975Y-97411397D01*
X165622710Y-97428028D01*
X165556354Y-97508883D01*
X165507047Y-97601131D01*
X165476683Y-97701225D01*
X165469000Y-97779235D01*
X165469000Y-97779244D01*
X165466432Y-97805318D01*
X127707032Y-97805318D01*
X127693253Y-97736051D01*
X127600458Y-97512023D01*
X127465740Y-97310403D01*
X127294277Y-97138940D01*
X127092657Y-97004222D01*
X126868629Y-96911427D01*
X126630803Y-96864120D01*
X126388317Y-96864120D01*
X126150491Y-96911427D01*
X125926463Y-97004222D01*
X125724843Y-97138940D01*
X125553380Y-97310403D01*
X125418662Y-97512023D01*
X125325867Y-97736051D01*
X125278560Y-97973877D01*
X125031000Y-97973877D01*
X125031000Y-96115633D01*
X125033568Y-96089559D01*
X125031000Y-96063485D01*
X125031000Y-96063476D01*
X125023317Y-95985466D01*
X124992953Y-95885372D01*
X124944484Y-95794692D01*
X124943646Y-95793124D01*
X124893917Y-95732530D01*
X124877290Y-95712270D01*
X124857030Y-95695643D01*
X124595264Y-95433877D01*
X125278560Y-95433877D01*
X125278560Y-95676363D01*
X125325867Y-95914189D01*
X125418662Y-96138217D01*
X125553380Y-96339837D01*
X125724843Y-96511300D01*
X125926463Y-96646018D01*
X126150491Y-96738813D01*
X126388317Y-96786120D01*
X126630803Y-96786120D01*
X126868629Y-96738813D01*
X127092657Y-96646018D01*
X127294277Y-96511300D01*
X127465740Y-96339837D01*
X127600458Y-96138217D01*
X127693253Y-95914189D01*
X127740560Y-95676363D01*
X127740560Y-95433877D01*
X127693253Y-95196051D01*
X127600458Y-94972023D01*
X127465740Y-94770403D01*
X127294277Y-94598940D01*
X127092657Y-94464222D01*
X126868629Y-94371427D01*
X126630803Y-94324120D01*
X126388317Y-94324120D01*
X126150491Y-94371427D01*
X125926463Y-94464222D01*
X125724843Y-94598940D01*
X125553380Y-94770403D01*
X125418662Y-94972023D01*
X125325867Y-95196051D01*
X125278560Y-95433877D01*
X124595264Y-95433877D01*
X122538745Y-93377359D01*
X122629970Y-93316405D01*
X122787505Y-93158870D01*
X122911279Y-92973629D01*
X122996536Y-92767800D01*
X123040000Y-92549294D01*
X123040000Y-92326506D01*
X122996536Y-92108000D01*
X122911279Y-91902171D01*
X122787505Y-91716930D01*
X122629970Y-91559395D01*
X122444729Y-91435621D01*
X122238900Y-91350364D01*
X122020394Y-91306900D01*
X121797606Y-91306900D01*
X121579100Y-91350364D01*
X121373271Y-91435621D01*
X121188030Y-91559395D01*
X121030495Y-91716930D01*
X120906721Y-91902171D01*
X120821464Y-92108000D01*
X120778000Y-92326506D01*
X120292922Y-92326506D01*
X120257965Y-92095662D01*
X120165277Y-91839068D01*
X120104860Y-91726037D01*
X119865993Y-91660512D01*
X119088605Y-92437900D01*
X118729395Y-92437900D01*
X117952007Y-91660512D01*
X117713140Y-91726037D01*
X117597240Y-91973016D01*
X117531750Y-92237860D01*
X117519188Y-92510392D01*
X115892338Y-92510392D01*
X115819941Y-92437995D01*
X115503671Y-92226670D01*
X115152252Y-92081108D01*
X114779187Y-92006900D01*
X114398813Y-92006900D01*
X114025748Y-92081108D01*
X113674329Y-92226670D01*
X113358059Y-92437995D01*
X113089095Y-92706959D01*
X112877770Y-93023229D01*
X112732208Y-93374648D01*
X112658000Y-93747713D01*
X109842900Y-93747713D01*
X109842900Y-91480907D01*
X118131612Y-91480907D01*
X118909000Y-92258295D01*
X119686388Y-91480907D01*
X119620863Y-91242040D01*
X119373884Y-91126140D01*
X119109040Y-91060650D01*
X118836508Y-91048088D01*
X118566762Y-91088935D01*
X118310168Y-91181623D01*
X118197137Y-91242040D01*
X118131612Y-91480907D01*
X109842900Y-91480907D01*
X109842900Y-90832010D01*
X125068084Y-90832010D01*
X125112735Y-90979219D01*
X125237919Y-91242040D01*
X125411972Y-91475389D01*
X125628205Y-91670298D01*
X125878308Y-91819277D01*
X126040728Y-91876892D01*
X125926463Y-91924222D01*
X125724843Y-92058940D01*
X125553380Y-92230403D01*
X125418662Y-92432023D01*
X125325867Y-92656051D01*
X125278560Y-92893877D01*
X125278560Y-93136363D01*
X125325867Y-93374189D01*
X125418662Y-93598217D01*
X125553380Y-93799837D01*
X125724843Y-93971300D01*
X125926463Y-94106018D01*
X126150491Y-94198813D01*
X126388317Y-94246120D01*
X126630803Y-94246120D01*
X126868629Y-94198813D01*
X127092657Y-94106018D01*
X127294277Y-93971300D01*
X127465740Y-93799837D01*
X127600458Y-93598217D01*
X127693253Y-93374189D01*
X127740560Y-93136363D01*
X127740560Y-92909117D01*
X166319880Y-92909117D01*
X166319880Y-93151603D01*
X166367187Y-93389429D01*
X166459982Y-93613457D01*
X166594700Y-93815077D01*
X166766163Y-93986540D01*
X166967783Y-94121258D01*
X167191811Y-94214053D01*
X167429637Y-94261360D01*
X167672123Y-94261360D01*
X167909949Y-94214053D01*
X168133977Y-94121258D01*
X168335597Y-93986540D01*
X168507060Y-93815077D01*
X168641778Y-93613457D01*
X168734573Y-93389429D01*
X168781880Y-93151603D01*
X168781880Y-92909117D01*
X168734573Y-92671291D01*
X168641778Y-92447263D01*
X168507060Y-92245643D01*
X168335597Y-92074180D01*
X168133977Y-91939462D01*
X167909949Y-91846667D01*
X167672123Y-91799360D01*
X167429637Y-91799360D01*
X167191811Y-91846667D01*
X166967783Y-91939462D01*
X166766163Y-92074180D01*
X166594700Y-92245643D01*
X166459982Y-92447263D01*
X166367187Y-92671291D01*
X166319880Y-92909117D01*
X127740560Y-92909117D01*
X127740560Y-92893877D01*
X127693253Y-92656051D01*
X127600458Y-92432023D01*
X127465740Y-92230403D01*
X127294277Y-92058940D01*
X127092657Y-91924222D01*
X126978392Y-91876892D01*
X127140812Y-91819277D01*
X127390915Y-91670298D01*
X127607148Y-91475389D01*
X127781201Y-91242040D01*
X127906385Y-90979219D01*
X127951036Y-90832010D01*
X127829715Y-90602120D01*
X126636560Y-90602120D01*
X126636560Y-90622120D01*
X126382560Y-90622120D01*
X126382560Y-90602120D01*
X125189405Y-90602120D01*
X125068084Y-90832010D01*
X109842900Y-90832010D01*
X109842900Y-90369117D01*
X166319880Y-90369117D01*
X166319880Y-90611603D01*
X166367187Y-90849429D01*
X166459982Y-91073457D01*
X166594700Y-91275077D01*
X166766163Y-91446540D01*
X166967783Y-91581258D01*
X167191811Y-91674053D01*
X167429637Y-91721360D01*
X167672123Y-91721360D01*
X167909949Y-91674053D01*
X168133977Y-91581258D01*
X168335597Y-91446540D01*
X168507060Y-91275077D01*
X168641778Y-91073457D01*
X168734573Y-90849429D01*
X168781880Y-90611603D01*
X168781880Y-90369117D01*
X168734573Y-90131291D01*
X168641778Y-89907263D01*
X168507060Y-89705643D01*
X168335597Y-89534180D01*
X168133977Y-89399462D01*
X167909949Y-89306667D01*
X167672123Y-89259360D01*
X167429637Y-89259360D01*
X167191811Y-89306667D01*
X166967783Y-89399462D01*
X166766163Y-89534180D01*
X166594700Y-89705643D01*
X166459982Y-89907263D01*
X166367187Y-90131291D01*
X166319880Y-90369117D01*
X109842900Y-90369117D01*
X109842900Y-90118230D01*
X125068084Y-90118230D01*
X125189405Y-90348120D01*
X126382560Y-90348120D01*
X126382560Y-90328120D01*
X126636560Y-90328120D01*
X126636560Y-90348120D01*
X127829715Y-90348120D01*
X127951036Y-90118230D01*
X127906385Y-89971021D01*
X127781201Y-89708200D01*
X127607148Y-89474851D01*
X127390915Y-89279942D01*
X127140812Y-89130963D01*
X126978392Y-89073348D01*
X127092657Y-89026018D01*
X127294277Y-88891300D01*
X127465740Y-88719837D01*
X127600458Y-88518217D01*
X127693253Y-88294189D01*
X127740560Y-88056363D01*
X127740560Y-87813877D01*
X127693253Y-87576051D01*
X127600458Y-87352023D01*
X127465740Y-87150403D01*
X127294277Y-86978940D01*
X127092657Y-86844222D01*
X126868629Y-86751427D01*
X126630803Y-86704120D01*
X126388317Y-86704120D01*
X126150491Y-86751427D01*
X125926463Y-86844222D01*
X125724843Y-86978940D01*
X125553380Y-87150403D01*
X125418662Y-87352023D01*
X125325867Y-87576051D01*
X125278560Y-87813877D01*
X125278560Y-88056363D01*
X125325867Y-88294189D01*
X125418662Y-88518217D01*
X125553380Y-88719837D01*
X125724843Y-88891300D01*
X125926463Y-89026018D01*
X126040728Y-89073348D01*
X125878308Y-89130963D01*
X125628205Y-89279942D01*
X125411972Y-89474851D01*
X125237919Y-89708200D01*
X125112735Y-89971021D01*
X125068084Y-90118230D01*
X109842900Y-90118230D01*
X109842900Y-85273877D01*
X125278560Y-85273877D01*
X125278560Y-85516363D01*
X125325867Y-85754189D01*
X125418662Y-85978217D01*
X125553380Y-86179837D01*
X125724843Y-86351300D01*
X125926463Y-86486018D01*
X126150491Y-86578813D01*
X126388317Y-86626120D01*
X126630803Y-86626120D01*
X126868629Y-86578813D01*
X127092657Y-86486018D01*
X127294277Y-86351300D01*
X127465740Y-86179837D01*
X127600458Y-85978217D01*
X127687842Y-85767250D01*
X166109404Y-85767250D01*
X166154055Y-85914459D01*
X166279239Y-86177280D01*
X166453292Y-86410629D01*
X166669525Y-86605538D01*
X166919628Y-86754517D01*
X167082048Y-86812132D01*
X166967783Y-86859462D01*
X166766163Y-86994180D01*
X166594700Y-87165643D01*
X166459982Y-87367263D01*
X166367187Y-87591291D01*
X166319880Y-87829117D01*
X166319880Y-88071603D01*
X166367187Y-88309429D01*
X166459982Y-88533457D01*
X166594700Y-88735077D01*
X166766163Y-88906540D01*
X166967783Y-89041258D01*
X167191811Y-89134053D01*
X167429637Y-89181360D01*
X167672123Y-89181360D01*
X167909949Y-89134053D01*
X168133977Y-89041258D01*
X168335597Y-88906540D01*
X168507060Y-88735077D01*
X168641778Y-88533457D01*
X168734573Y-88309429D01*
X168781880Y-88071603D01*
X168781880Y-87829117D01*
X168734573Y-87591291D01*
X168641778Y-87367263D01*
X168507060Y-87165643D01*
X168335597Y-86994180D01*
X168133977Y-86859462D01*
X168019712Y-86812132D01*
X168182132Y-86754517D01*
X168432235Y-86605538D01*
X168648468Y-86410629D01*
X168822521Y-86177280D01*
X168947705Y-85914459D01*
X168992356Y-85767250D01*
X168871035Y-85537360D01*
X167677880Y-85537360D01*
X167677880Y-85557360D01*
X167423880Y-85557360D01*
X167423880Y-85537360D01*
X166230725Y-85537360D01*
X166109404Y-85767250D01*
X127687842Y-85767250D01*
X127693253Y-85754189D01*
X127740560Y-85516363D01*
X127740560Y-85273877D01*
X127696718Y-85053470D01*
X166109404Y-85053470D01*
X166230725Y-85283360D01*
X167423880Y-85283360D01*
X167423880Y-85263360D01*
X167677880Y-85263360D01*
X167677880Y-85283360D01*
X168871035Y-85283360D01*
X168992356Y-85053470D01*
X168947705Y-84906261D01*
X168822521Y-84643440D01*
X168648468Y-84410091D01*
X168432235Y-84215182D01*
X168244247Y-84103203D01*
X168400880Y-84103203D01*
X168475569Y-84095847D01*
X168547388Y-84074061D01*
X168613576Y-84038682D01*
X168671591Y-83991071D01*
X168719202Y-83933056D01*
X168754581Y-83866868D01*
X168776367Y-83795049D01*
X168783723Y-83720360D01*
X168783723Y-83248806D01*
X170969640Y-83248806D01*
X170969640Y-83471594D01*
X171013104Y-83690100D01*
X171098361Y-83895929D01*
X171222135Y-84081170D01*
X171379670Y-84238705D01*
X171564911Y-84362479D01*
X171770740Y-84447736D01*
X171989246Y-84491200D01*
X172212034Y-84491200D01*
X172430540Y-84447736D01*
X172636369Y-84362479D01*
X172704144Y-84317193D01*
X174323252Y-84317193D01*
X174388777Y-84556060D01*
X174635756Y-84671960D01*
X174900600Y-84737450D01*
X175173132Y-84750012D01*
X175442878Y-84709165D01*
X175699472Y-84616477D01*
X175812503Y-84556060D01*
X175878028Y-84317193D01*
X175100640Y-83539805D01*
X174323252Y-84317193D01*
X172704144Y-84317193D01*
X172821610Y-84238705D01*
X172979145Y-84081170D01*
X173102919Y-83895929D01*
X173188176Y-83690100D01*
X173231640Y-83471594D01*
X173231640Y-83432692D01*
X173710828Y-83432692D01*
X173751675Y-83702438D01*
X173844363Y-83959032D01*
X173904780Y-84072063D01*
X174143647Y-84137588D01*
X174921035Y-83360200D01*
X175280245Y-83360200D01*
X176057633Y-84137588D01*
X176296500Y-84072063D01*
X176412400Y-83825084D01*
X176477890Y-83560240D01*
X176490452Y-83287708D01*
X176449605Y-83017962D01*
X176356917Y-82761368D01*
X176296500Y-82648337D01*
X176057633Y-82582812D01*
X175280245Y-83360200D01*
X174921035Y-83360200D01*
X174143647Y-82582812D01*
X173904780Y-82648337D01*
X173788880Y-82895316D01*
X173723390Y-83160160D01*
X173710828Y-83432692D01*
X173231640Y-83432692D01*
X173231640Y-83248806D01*
X173188176Y-83030300D01*
X173102919Y-82824471D01*
X172979145Y-82639230D01*
X172821610Y-82481695D01*
X172704145Y-82403207D01*
X174323252Y-82403207D01*
X175100640Y-83180595D01*
X175878028Y-82403207D01*
X175812503Y-82164340D01*
X175565524Y-82048440D01*
X175300680Y-81982950D01*
X175028148Y-81970388D01*
X174758402Y-82011235D01*
X174501808Y-82103923D01*
X174388777Y-82164340D01*
X174323252Y-82403207D01*
X172704145Y-82403207D01*
X172636369Y-82357921D01*
X172430540Y-82272664D01*
X172212034Y-82229200D01*
X171989246Y-82229200D01*
X171770740Y-82272664D01*
X171564911Y-82357921D01*
X171379670Y-82481695D01*
X171222135Y-82639230D01*
X171098361Y-82824471D01*
X171013104Y-83030300D01*
X170969640Y-83248806D01*
X168783723Y-83248806D01*
X168783723Y-82020360D01*
X168776367Y-81945671D01*
X168754581Y-81873852D01*
X168719202Y-81807664D01*
X168671591Y-81749649D01*
X168613576Y-81702038D01*
X168553663Y-81670013D01*
X177489640Y-81670013D01*
X177489640Y-82050387D01*
X177563848Y-82423452D01*
X177709410Y-82774871D01*
X177920735Y-83091141D01*
X178189699Y-83360105D01*
X178505969Y-83571430D01*
X178857388Y-83716992D01*
X179230453Y-83791200D01*
X179610827Y-83791200D01*
X179983892Y-83716992D01*
X180335311Y-83571430D01*
X180651581Y-83360105D01*
X180920545Y-83091141D01*
X181131870Y-82774871D01*
X181277432Y-82423452D01*
X181351640Y-82050387D01*
X181351640Y-81670013D01*
X181277432Y-81296948D01*
X181131870Y-80945529D01*
X180920545Y-80629259D01*
X180651581Y-80360295D01*
X180335311Y-80148970D01*
X179983892Y-80003408D01*
X179610827Y-79929200D01*
X179230453Y-79929200D01*
X178857388Y-80003408D01*
X178505969Y-80148970D01*
X178189699Y-80360295D01*
X177920735Y-80629259D01*
X177709410Y-80945529D01*
X177563848Y-81296948D01*
X177489640Y-81670013D01*
X168553663Y-81670013D01*
X168547388Y-81666659D01*
X168475569Y-81644873D01*
X168400880Y-81637517D01*
X166700880Y-81637517D01*
X166626191Y-81644873D01*
X166554372Y-81666659D01*
X166488184Y-81702038D01*
X166430169Y-81749649D01*
X166382558Y-81807664D01*
X166347179Y-81873852D01*
X166325393Y-81945671D01*
X166318037Y-82020360D01*
X166318037Y-83720360D01*
X166325393Y-83795049D01*
X166347179Y-83866868D01*
X166382558Y-83933056D01*
X166430169Y-83991071D01*
X166488184Y-84038682D01*
X166554372Y-84074061D01*
X166626191Y-84095847D01*
X166700880Y-84103203D01*
X166857513Y-84103203D01*
X166669525Y-84215182D01*
X166453292Y-84410091D01*
X166279239Y-84643440D01*
X166154055Y-84906261D01*
X166109404Y-85053470D01*
X127696718Y-85053470D01*
X127693253Y-85036051D01*
X127600458Y-84812023D01*
X127465740Y-84610403D01*
X127294277Y-84438940D01*
X127092657Y-84304222D01*
X126868629Y-84211427D01*
X126630803Y-84164120D01*
X126388317Y-84164120D01*
X126150491Y-84211427D01*
X125926463Y-84304222D01*
X125724843Y-84438940D01*
X125553380Y-84610403D01*
X125418662Y-84812023D01*
X125325867Y-85036051D01*
X125278560Y-85273877D01*
X109842900Y-85273877D01*
X109842900Y-81670013D01*
X112658000Y-81670013D01*
X112658000Y-82050387D01*
X112732208Y-82423452D01*
X112877770Y-82774871D01*
X113089095Y-83091141D01*
X113358059Y-83360105D01*
X113674329Y-83571430D01*
X114025748Y-83716992D01*
X114398813Y-83791200D01*
X114779187Y-83791200D01*
X115152252Y-83716992D01*
X115503671Y-83571430D01*
X115819941Y-83360105D01*
X115931240Y-83248806D01*
X117778000Y-83248806D01*
X117778000Y-83471594D01*
X117821464Y-83690100D01*
X117906721Y-83895929D01*
X118030495Y-84081170D01*
X118188030Y-84238705D01*
X118373271Y-84362479D01*
X118579100Y-84447736D01*
X118797606Y-84491200D01*
X119020394Y-84491200D01*
X119238900Y-84447736D01*
X119444729Y-84362479D01*
X119629970Y-84238705D01*
X119787505Y-84081170D01*
X119911279Y-83895929D01*
X119996536Y-83690100D01*
X120040000Y-83471594D01*
X120040000Y-83248806D01*
X120778000Y-83248806D01*
X120778000Y-83471594D01*
X120821464Y-83690100D01*
X120906721Y-83895929D01*
X121030495Y-84081170D01*
X121188030Y-84238705D01*
X121373271Y-84362479D01*
X121579100Y-84447736D01*
X121797606Y-84491200D01*
X122020394Y-84491200D01*
X122238900Y-84447736D01*
X122444729Y-84362479D01*
X122629970Y-84238705D01*
X122787505Y-84081170D01*
X122911279Y-83895929D01*
X122996536Y-83690100D01*
X123040000Y-83471594D01*
X123040000Y-83248806D01*
X122996536Y-83030300D01*
X122911279Y-82824471D01*
X122787505Y-82639230D01*
X122629970Y-82481695D01*
X122444729Y-82357921D01*
X122238900Y-82272664D01*
X122020394Y-82229200D01*
X121797606Y-82229200D01*
X121579100Y-82272664D01*
X121373271Y-82357921D01*
X121188030Y-82481695D01*
X121030495Y-82639230D01*
X120906721Y-82824471D01*
X120821464Y-83030300D01*
X120778000Y-83248806D01*
X120040000Y-83248806D01*
X119996536Y-83030300D01*
X119911279Y-82824471D01*
X119787505Y-82639230D01*
X119629970Y-82481695D01*
X119444729Y-82357921D01*
X119238900Y-82272664D01*
X119020394Y-82229200D01*
X118797606Y-82229200D01*
X118579100Y-82272664D01*
X118373271Y-82357921D01*
X118188030Y-82481695D01*
X118030495Y-82639230D01*
X117906721Y-82824471D01*
X117821464Y-83030300D01*
X117778000Y-83248806D01*
X115931240Y-83248806D01*
X116088905Y-83091141D01*
X116300230Y-82774871D01*
X116445792Y-82423452D01*
X116520000Y-82050387D01*
X116520000Y-82005120D01*
X125276717Y-82005120D01*
X125276717Y-83705120D01*
X125284073Y-83779809D01*
X125305859Y-83851628D01*
X125341238Y-83917816D01*
X125388849Y-83975831D01*
X125446864Y-84023442D01*
X125513052Y-84058821D01*
X125584871Y-84080607D01*
X125659560Y-84087963D01*
X127359560Y-84087963D01*
X127434249Y-84080607D01*
X127506068Y-84058821D01*
X127572256Y-84023442D01*
X127630271Y-83975831D01*
X127677882Y-83917816D01*
X127713261Y-83851628D01*
X127735047Y-83779809D01*
X127742403Y-83705120D01*
X127742403Y-82005120D01*
X127735047Y-81930431D01*
X127713261Y-81858612D01*
X127677882Y-81792424D01*
X127630271Y-81734409D01*
X127572256Y-81686798D01*
X127506068Y-81651419D01*
X127434249Y-81629633D01*
X127359560Y-81622277D01*
X125659560Y-81622277D01*
X125584871Y-81629633D01*
X125513052Y-81651419D01*
X125446864Y-81686798D01*
X125388849Y-81734409D01*
X125341238Y-81792424D01*
X125305859Y-81858612D01*
X125284073Y-81930431D01*
X125276717Y-82005120D01*
X116520000Y-82005120D01*
X116520000Y-81670013D01*
X116449820Y-81317193D01*
X118131612Y-81317193D01*
X118197137Y-81556060D01*
X118444116Y-81671960D01*
X118708960Y-81737450D01*
X118981492Y-81750012D01*
X119251238Y-81709165D01*
X119507832Y-81616477D01*
X119620863Y-81556060D01*
X119686388Y-81317193D01*
X118909000Y-80539805D01*
X118131612Y-81317193D01*
X116449820Y-81317193D01*
X116445792Y-81296948D01*
X116300230Y-80945529D01*
X116088905Y-80629259D01*
X115892338Y-80432692D01*
X117519188Y-80432692D01*
X117560035Y-80702438D01*
X117652723Y-80959032D01*
X117713140Y-81072063D01*
X117952007Y-81137588D01*
X118729395Y-80360200D01*
X119088605Y-80360200D01*
X119865993Y-81137588D01*
X120104860Y-81072063D01*
X120220760Y-80825084D01*
X120286250Y-80560240D01*
X120298812Y-80287708D01*
X120292922Y-80248806D01*
X120778000Y-80248806D01*
X120778000Y-80471594D01*
X120821464Y-80690100D01*
X120906721Y-80895929D01*
X121030495Y-81081170D01*
X121188030Y-81238705D01*
X121373271Y-81362479D01*
X121579100Y-81447736D01*
X121797606Y-81491200D01*
X122020394Y-81491200D01*
X122238900Y-81447736D01*
X122444729Y-81362479D01*
X122629970Y-81238705D01*
X122787505Y-81081170D01*
X122911279Y-80895929D01*
X122996536Y-80690100D01*
X123040000Y-80471594D01*
X123040000Y-80248806D01*
X170969640Y-80248806D01*
X170969640Y-80471594D01*
X171013104Y-80690100D01*
X171098361Y-80895929D01*
X171222135Y-81081170D01*
X171379670Y-81238705D01*
X171564911Y-81362479D01*
X171770740Y-81447736D01*
X171989246Y-81491200D01*
X172212034Y-81491200D01*
X172430540Y-81447736D01*
X172636369Y-81362479D01*
X172821610Y-81238705D01*
X172979145Y-81081170D01*
X173102919Y-80895929D01*
X173188176Y-80690100D01*
X173231640Y-80471594D01*
X173231640Y-80248806D01*
X173969640Y-80248806D01*
X173969640Y-80471594D01*
X174013104Y-80690100D01*
X174098361Y-80895929D01*
X174222135Y-81081170D01*
X174379670Y-81238705D01*
X174564911Y-81362479D01*
X174770740Y-81447736D01*
X174989246Y-81491200D01*
X175212034Y-81491200D01*
X175430540Y-81447736D01*
X175636369Y-81362479D01*
X175821610Y-81238705D01*
X175979145Y-81081170D01*
X176102919Y-80895929D01*
X176188176Y-80690100D01*
X176231640Y-80471594D01*
X176231640Y-80248806D01*
X176188176Y-80030300D01*
X176102919Y-79824471D01*
X175979145Y-79639230D01*
X175821610Y-79481695D01*
X175636369Y-79357921D01*
X175430540Y-79272664D01*
X175212034Y-79229200D01*
X174989246Y-79229200D01*
X174770740Y-79272664D01*
X174564911Y-79357921D01*
X174379670Y-79481695D01*
X174222135Y-79639230D01*
X174098361Y-79824471D01*
X174013104Y-80030300D01*
X173969640Y-80248806D01*
X173231640Y-80248806D01*
X173188176Y-80030300D01*
X173102919Y-79824471D01*
X172979145Y-79639230D01*
X172821610Y-79481695D01*
X172636369Y-79357921D01*
X172430540Y-79272664D01*
X172212034Y-79229200D01*
X171989246Y-79229200D01*
X171770740Y-79272664D01*
X171564911Y-79357921D01*
X171379670Y-79481695D01*
X171222135Y-79639230D01*
X171098361Y-79824471D01*
X171013104Y-80030300D01*
X170969640Y-80248806D01*
X123040000Y-80248806D01*
X122996536Y-80030300D01*
X122911279Y-79824471D01*
X122787505Y-79639230D01*
X122629970Y-79481695D01*
X122444729Y-79357921D01*
X122238900Y-79272664D01*
X122020394Y-79229200D01*
X121797606Y-79229200D01*
X121579100Y-79272664D01*
X121373271Y-79357921D01*
X121188030Y-79481695D01*
X121030495Y-79639230D01*
X120906721Y-79824471D01*
X120821464Y-80030300D01*
X120778000Y-80248806D01*
X120292922Y-80248806D01*
X120257965Y-80017962D01*
X120165277Y-79761368D01*
X120104860Y-79648337D01*
X119865993Y-79582812D01*
X119088605Y-80360200D01*
X118729395Y-80360200D01*
X117952007Y-79582812D01*
X117713140Y-79648337D01*
X117597240Y-79895316D01*
X117531750Y-80160160D01*
X117519188Y-80432692D01*
X115892338Y-80432692D01*
X115819941Y-80360295D01*
X115503671Y-80148970D01*
X115152252Y-80003408D01*
X114779187Y-79929200D01*
X114398813Y-79929200D01*
X114025748Y-80003408D01*
X113674329Y-80148970D01*
X113358059Y-80360295D01*
X113089095Y-80629259D01*
X112877770Y-80945529D01*
X112732208Y-81296948D01*
X112658000Y-81670013D01*
X109842900Y-81670013D01*
X109842900Y-79403207D01*
X118131612Y-79403207D01*
X118909000Y-80180595D01*
X119686388Y-79403207D01*
X119620863Y-79164340D01*
X119373884Y-79048440D01*
X119109040Y-78982950D01*
X118836508Y-78970388D01*
X118566762Y-79011235D01*
X118310168Y-79103923D01*
X118197137Y-79164340D01*
X118131612Y-79403207D01*
X109842900Y-79403207D01*
X109842900Y-77304889D01*
X124519000Y-77304889D01*
X124519000Y-77695111D01*
X124595129Y-78077836D01*
X124744461Y-78438355D01*
X124961257Y-78762814D01*
X125237186Y-79038743D01*
X125561645Y-79255539D01*
X125922164Y-79404871D01*
X126304889Y-79481000D01*
X126695111Y-79481000D01*
X127077836Y-79404871D01*
X127438355Y-79255539D01*
X127762814Y-79038743D01*
X128038743Y-78762814D01*
X128255539Y-78438355D01*
X128404871Y-78077836D01*
X128481000Y-77695111D01*
X128481000Y-77304889D01*
X165519000Y-77304889D01*
X165519000Y-77695111D01*
X165595129Y-78077836D01*
X165744461Y-78438355D01*
X165961257Y-78762814D01*
X166237186Y-79038743D01*
X166561645Y-79255539D01*
X166922164Y-79404871D01*
X167304889Y-79481000D01*
X167695111Y-79481000D01*
X168077836Y-79404871D01*
X168438355Y-79255539D01*
X168762814Y-79038743D01*
X169038743Y-78762814D01*
X169255539Y-78438355D01*
X169404871Y-78077836D01*
X169481000Y-77695111D01*
X169481000Y-77304889D01*
X169404871Y-76922164D01*
X169255539Y-76561645D01*
X169038743Y-76237186D01*
X168762814Y-75961257D01*
X168438355Y-75744461D01*
X168077836Y-75595129D01*
X167695111Y-75519000D01*
X167304889Y-75519000D01*
X166922164Y-75595129D01*
X166561645Y-75744461D01*
X166237186Y-75961257D01*
X165961257Y-76237186D01*
X165744461Y-76561645D01*
X165595129Y-76922164D01*
X165519000Y-77304889D01*
X128481000Y-77304889D01*
X128404871Y-76922164D01*
X128255539Y-76561645D01*
X128038743Y-76237186D01*
X127762814Y-75961257D01*
X127438355Y-75744461D01*
X127077836Y-75595129D01*
X126695111Y-75519000D01*
X126304889Y-75519000D01*
X125922164Y-75595129D01*
X125561645Y-75744461D01*
X125237186Y-75961257D01*
X124961257Y-76237186D01*
X124744461Y-76561645D01*
X124595129Y-76922164D01*
X124519000Y-77304889D01*
X109842900Y-77304889D01*
X109842900Y-73516775D01*
X109866549Y-73275573D01*
X109931728Y-73059691D01*
X110037598Y-72860579D01*
X110180121Y-72685829D01*
X110353880Y-72542083D01*
X110552243Y-72434828D01*
X110767661Y-72368145D01*
X111007854Y-72342900D01*
X182983225Y-72342900D01*
X183224427Y-72366549D01*
M02*
