%TF.GenerationSoftware,KiCad,Pcbnew,5.1.5+dfsg1-2build2*%
%TF.CreationDate,2021-01-24T18:27:10+01:00*%
%TF.ProjectId,Placa-Caja-Coccion,506c6163-612d-4436-916a-612d436f6363,rev?*%
%TF.SameCoordinates,Original*%
%TF.FileFunction,Copper,L2,Bot*%
%TF.FilePolarity,Positive*%
%FSLAX46Y46*%
G04 Gerber Fmt 4.6, Leading zero omitted, Abs format (unit mm)*
G04 Created by KiCad (PCBNEW 5.1.5+dfsg1-2build2) date 2021-01-24 18:27:10*
%MOMM*%
%LPD*%
G04 APERTURE LIST*
%ADD10C,3.000000*%
%ADD11R,3.000000X3.000000*%
%ADD12C,1.500000*%
%ADD13R,2.500000X2.500000*%
%ADD14O,2.500000X2.500000*%
%ADD15R,1.700000X1.700000*%
%ADD16O,1.700000X1.700000*%
%ADD17R,1.600000X1.600000*%
%ADD18O,1.600000X1.600000*%
%ADD19C,0.685800*%
%ADD20C,0.400000*%
%ADD21C,0.254000*%
%ADD22C,1.000000*%
%ADD23C,1.500000*%
%ADD24C,0.250000*%
G04 APERTURE END LIST*
D10*
X134170000Y-72847200D03*
D11*
X139250000Y-72847200D03*
D10*
X160160000Y-72750000D03*
X155080000Y-72750000D03*
D11*
X150000000Y-72750000D03*
D12*
X159517080Y-124452120D03*
X159517080Y-127452120D03*
D13*
X159146240Y-85364320D03*
D14*
X157146240Y-79364320D03*
X144946240Y-79364320D03*
X144946240Y-91364320D03*
X157146240Y-91364320D03*
D12*
X148640800Y-124452120D03*
X148640800Y-127452120D03*
X145640800Y-124452120D03*
X145640800Y-127452120D03*
D15*
X126486920Y-77779880D03*
D16*
X126486920Y-80319880D03*
X126486920Y-82859880D03*
X126486920Y-85399880D03*
X126486920Y-87939880D03*
X126486920Y-90479880D03*
X126486920Y-93019880D03*
X126486920Y-95559880D03*
X126486920Y-98099880D03*
X126486920Y-100639880D03*
X126486920Y-103179880D03*
X126486920Y-105719880D03*
X126486920Y-108259880D03*
X126486920Y-110799880D03*
X126486920Y-113339880D03*
X167543480Y-113334800D03*
X167543480Y-110794800D03*
X167543480Y-108254800D03*
X167543480Y-105714800D03*
X167543480Y-103174800D03*
X167543480Y-100634800D03*
X167543480Y-98094800D03*
X167543480Y-95554800D03*
X167543480Y-93014800D03*
X167543480Y-90474800D03*
X167543480Y-87934800D03*
X167543480Y-85394800D03*
X167543480Y-82854800D03*
X167543480Y-80314800D03*
D15*
X167543480Y-77774800D03*
D12*
X134792720Y-127452120D03*
X134792720Y-124452120D03*
D17*
X151937720Y-95443040D03*
D18*
X159557720Y-97983040D03*
X151937720Y-97983040D03*
X159557720Y-95443040D03*
D19*
X134493000Y-108701840D03*
X135493000Y-108701840D03*
X136493000Y-108701840D03*
X137493000Y-108701840D03*
X134493000Y-109701840D03*
X135493000Y-109701840D03*
X136493000Y-109701840D03*
X137493000Y-109701840D03*
X134493000Y-110701840D03*
X135493000Y-110701840D03*
X136493000Y-110701840D03*
X137493000Y-110701840D03*
X134493000Y-111701840D03*
X135493000Y-111701840D03*
X136493000Y-111701840D03*
X137493000Y-111701840D03*
X156885640Y-108671360D03*
X157885640Y-111671360D03*
X158885640Y-111671360D03*
X159885640Y-110671360D03*
X156885640Y-109671360D03*
X159885640Y-108671360D03*
X157885640Y-109671360D03*
X158885640Y-109671360D03*
X159885640Y-111671360D03*
X157885640Y-108671360D03*
X156885640Y-110671360D03*
X157885640Y-110671360D03*
X158885640Y-110671360D03*
X156885640Y-111671360D03*
X158885640Y-108671360D03*
X159885640Y-109671360D03*
X154884120Y-105755440D03*
X153360120Y-116347240D03*
X152171400Y-116321840D03*
X152135840Y-117632480D03*
X152064720Y-118856760D03*
X152074880Y-120035320D03*
X153446480Y-120045480D03*
X154680920Y-120020080D03*
X142234920Y-116525040D03*
X142234920Y-117662960D03*
X142250160Y-119070120D03*
X142250160Y-120208040D03*
X140837920Y-120162320D03*
X139456160Y-120162320D03*
X138247120Y-120177560D03*
X142651480Y-127492760D03*
X142651480Y-126224452D03*
X142651480Y-124956146D03*
X142651480Y-123687840D03*
X143784320Y-124986626D03*
X143784320Y-123718320D03*
X143784320Y-127523240D03*
X143784320Y-126254932D03*
X162747960Y-118910946D03*
X162747960Y-117642640D03*
X162687000Y-121537306D03*
X162687000Y-120269000D03*
X133101080Y-116403120D03*
X133101080Y-117671426D03*
X134233920Y-117701906D03*
X134233920Y-116433600D03*
X134198360Y-120236826D03*
X133065520Y-118938040D03*
X133065520Y-120206346D03*
X134198360Y-118968520D03*
X129961640Y-116469160D03*
X153888440Y-123924906D03*
X153852880Y-126459826D03*
X153888440Y-122656600D03*
X153852880Y-125191520D03*
X139827000Y-123022360D03*
X139791440Y-126825586D03*
X139827000Y-124290666D03*
X139791440Y-125557280D03*
X142915640Y-100548440D03*
X146105880Y-103007160D03*
X148447760Y-103774240D03*
X149951440Y-104805480D03*
X143982440Y-103499920D03*
X134185521Y-105831090D03*
X142025000Y-81150000D03*
X141950000Y-84625000D03*
X142225000Y-89400000D03*
X162200000Y-96050000D03*
X162000000Y-97675000D03*
X164450000Y-95675000D03*
X164200000Y-97800000D03*
X165075000Y-104800000D03*
X145150000Y-105375000D03*
X146275000Y-108325000D03*
X148400000Y-108175000D03*
X147875000Y-109250000D03*
X130050000Y-96725000D03*
X131325000Y-97875000D03*
X133225000Y-93800000D03*
X164525000Y-99650000D03*
X161875000Y-100100000D03*
X148550000Y-99850000D03*
X146200000Y-99825000D03*
X138050000Y-93075000D03*
X138925000Y-95450000D03*
X133675000Y-82500000D03*
X133700000Y-83800000D03*
X134750000Y-83800000D03*
X140975080Y-94020640D03*
X147751800Y-101991160D03*
X143596360Y-98851720D03*
X150769320Y-99841770D03*
X135702040Y-94477840D03*
X129702560Y-91627960D03*
X132064760Y-99395280D03*
X137038080Y-100289360D03*
X129608590Y-102971600D03*
X156016960Y-100390960D03*
X152115520Y-100736400D03*
X129072640Y-104475280D03*
X153634440Y-100868480D03*
X129011680Y-105968800D03*
X133268720Y-100487480D03*
X136098280Y-114548920D03*
X157952958Y-114944630D03*
X142433040Y-94000320D03*
D20*
X143596360Y-96641920D02*
X143596360Y-98851720D01*
X140975080Y-94020640D02*
X143596360Y-96641920D01*
X150426421Y-100184669D02*
X150769320Y-99841770D01*
X147751800Y-101991160D02*
X148619930Y-101991160D01*
X148619930Y-101991160D02*
X150426421Y-100184669D01*
D21*
X135702040Y-94477840D02*
X139136120Y-94477840D01*
X139136120Y-94477840D02*
X140289280Y-95631000D01*
X140289280Y-95631000D02*
X140289280Y-97307400D01*
X140289280Y-97307400D02*
X141711680Y-98729800D01*
X145658840Y-98760280D02*
X151917400Y-98760280D01*
X142567662Y-99575622D02*
X144843498Y-99575622D01*
X144843498Y-99575622D02*
X145658840Y-98760280D01*
X141752320Y-98760280D02*
X142567662Y-99575622D01*
D22*
X165693480Y-77774800D02*
X164454840Y-79013440D01*
X167543480Y-77774800D02*
X165693480Y-77774800D01*
X164454840Y-79013440D02*
X164454840Y-88630760D01*
X161721280Y-91364320D02*
X157146240Y-91364320D01*
X164454840Y-88630760D02*
X161721280Y-91364320D01*
X158526480Y-95443040D02*
X159557720Y-95443040D01*
X157146240Y-94062800D02*
X158526480Y-95443040D01*
X157146240Y-91364320D02*
X157146240Y-94062800D01*
D21*
X144961480Y-78472160D02*
X144961480Y-80603840D01*
D23*
X148250000Y-88060560D02*
X144946240Y-91364320D01*
X148250000Y-81250000D02*
X148250000Y-88060560D01*
X152750000Y-76750000D02*
X148250000Y-81250000D01*
X160410001Y-75839999D02*
X159500000Y-76750000D01*
X159500000Y-76750000D02*
X152750000Y-76750000D01*
X160410001Y-73000001D02*
X160410001Y-75839999D01*
X160160000Y-72750000D02*
X160410001Y-73000001D01*
D21*
X129702560Y-91627960D02*
X129702560Y-94863920D01*
X129006600Y-95559880D02*
X126486920Y-95559880D01*
X129702560Y-94863920D02*
X129006600Y-95559880D01*
X127731520Y-99395280D02*
X126486920Y-100639880D01*
X132064760Y-99395280D02*
X127731520Y-99395280D01*
X134355840Y-102971600D02*
X129608590Y-102971600D01*
X137038080Y-100289360D02*
X134355840Y-102971600D01*
D24*
X145923000Y-101755866D02*
X138504586Y-101755866D01*
X146971094Y-102803960D02*
X145923000Y-101755866D01*
X148996400Y-102803960D02*
X146971094Y-102803960D01*
X138504586Y-101755866D02*
X137038080Y-100289360D01*
X152013920Y-99786440D02*
X148996400Y-102803960D01*
X154452320Y-99786440D02*
X152013920Y-99786440D01*
X155056840Y-100390960D02*
X154452320Y-99786440D01*
X156016960Y-100390960D02*
X155056840Y-100390960D01*
X152115520Y-100736400D02*
X152115520Y-103962200D01*
X152115520Y-103962200D02*
X149524720Y-106553000D01*
X149524720Y-106553000D02*
X131150360Y-106553000D01*
X131150360Y-106553000D02*
X129415539Y-104818179D01*
X129415539Y-104818179D02*
X129072640Y-104475280D01*
X130210560Y-107167680D02*
X129011680Y-105968800D01*
X153675080Y-104053640D02*
X150561040Y-107167680D01*
X153634440Y-101353413D02*
X153675080Y-101394053D01*
X150561040Y-107167680D02*
X130210560Y-107167680D01*
X153675080Y-101394053D02*
X153675080Y-104053640D01*
X153634440Y-100868480D02*
X153634440Y-101353413D01*
D21*
X127689001Y-110799880D02*
X126486920Y-110799880D01*
X128163320Y-110325561D02*
X127689001Y-110799880D01*
X128163320Y-101645720D02*
X128163320Y-110325561D01*
X129321560Y-100487480D02*
X128163320Y-101645720D01*
X133268720Y-100487480D02*
X129321560Y-100487480D01*
X126486920Y-114541961D02*
X126486920Y-113339880D01*
X126836778Y-114891819D02*
X126486920Y-114541961D01*
X135755381Y-114891819D02*
X126836778Y-114891819D01*
X136098280Y-114548920D02*
X135755381Y-114891819D01*
X157557248Y-114548920D02*
X157952958Y-114944630D01*
X136098280Y-114548920D02*
X157557248Y-114548920D01*
D24*
X151937720Y-94393040D02*
X151351960Y-93807280D01*
X151937720Y-95443040D02*
X151937720Y-94393040D01*
X151351960Y-93807280D02*
X142626080Y-93807280D01*
X142626080Y-93807280D02*
X142433040Y-94000320D01*
D21*
G36*
X170516814Y-68846701D02*
G01*
X170519408Y-68846446D01*
X170675867Y-68861787D01*
X170845043Y-68912864D01*
X171001074Y-68995828D01*
X171138014Y-69107513D01*
X171250657Y-69243676D01*
X171334706Y-69399122D01*
X171386962Y-69567935D01*
X171407100Y-69759533D01*
X171407101Y-134983215D01*
X171388212Y-135175870D01*
X171337137Y-135345040D01*
X171254172Y-135501073D01*
X171142486Y-135638013D01*
X171006324Y-135750657D01*
X170850877Y-135834707D01*
X170682064Y-135886963D01*
X170490475Y-135907100D01*
X124016784Y-135907102D01*
X123824131Y-135888213D01*
X123654957Y-135837136D01*
X123498926Y-135754172D01*
X123361986Y-135642487D01*
X123249343Y-135506324D01*
X123165294Y-135350878D01*
X123113037Y-135182065D01*
X123092900Y-134990475D01*
X123092900Y-131581933D01*
X132861720Y-131581933D01*
X132861720Y-131962307D01*
X132935928Y-132335372D01*
X133081490Y-132686791D01*
X133292815Y-133003061D01*
X133561779Y-133272025D01*
X133878049Y-133483350D01*
X134229468Y-133628912D01*
X134602533Y-133703120D01*
X134982907Y-133703120D01*
X135355972Y-133628912D01*
X135707391Y-133483350D01*
X136023661Y-133272025D01*
X136292625Y-133003061D01*
X136503950Y-132686791D01*
X136649512Y-132335372D01*
X136723720Y-131962307D01*
X136723720Y-131581933D01*
X145209800Y-131581933D01*
X145209800Y-131962307D01*
X145284008Y-132335372D01*
X145429570Y-132686791D01*
X145640895Y-133003061D01*
X145909859Y-133272025D01*
X146226129Y-133483350D01*
X146577548Y-133628912D01*
X146950613Y-133703120D01*
X147330987Y-133703120D01*
X147704052Y-133628912D01*
X148055471Y-133483350D01*
X148371741Y-133272025D01*
X148640705Y-133003061D01*
X148852030Y-132686791D01*
X148997592Y-132335372D01*
X149071800Y-131962307D01*
X149071800Y-131581933D01*
X157586080Y-131581933D01*
X157586080Y-131962307D01*
X157660288Y-132335372D01*
X157805850Y-132686791D01*
X158017175Y-133003061D01*
X158286139Y-133272025D01*
X158602409Y-133483350D01*
X158953828Y-133628912D01*
X159326893Y-133703120D01*
X159707267Y-133703120D01*
X160080332Y-133628912D01*
X160431751Y-133483350D01*
X160748021Y-133272025D01*
X161016985Y-133003061D01*
X161228310Y-132686791D01*
X161373872Y-132335372D01*
X161448080Y-131962307D01*
X161448080Y-131581933D01*
X161373872Y-131208868D01*
X161228310Y-130857449D01*
X161016985Y-130541179D01*
X160748021Y-130272215D01*
X160431751Y-130060890D01*
X160080332Y-129915328D01*
X159707267Y-129841120D01*
X159326893Y-129841120D01*
X158953828Y-129915328D01*
X158602409Y-130060890D01*
X158286139Y-130272215D01*
X158017175Y-130541179D01*
X157805850Y-130857449D01*
X157660288Y-131208868D01*
X157586080Y-131581933D01*
X149071800Y-131581933D01*
X148997592Y-131208868D01*
X148852030Y-130857449D01*
X148640705Y-130541179D01*
X148371741Y-130272215D01*
X148055471Y-130060890D01*
X147704052Y-129915328D01*
X147330987Y-129841120D01*
X146950613Y-129841120D01*
X146577548Y-129915328D01*
X146226129Y-130060890D01*
X145909859Y-130272215D01*
X145640895Y-130541179D01*
X145429570Y-130857449D01*
X145284008Y-131208868D01*
X145209800Y-131581933D01*
X136723720Y-131581933D01*
X136649512Y-131208868D01*
X136503950Y-130857449D01*
X136292625Y-130541179D01*
X136023661Y-130272215D01*
X135707391Y-130060890D01*
X135355972Y-129915328D01*
X134982907Y-129841120D01*
X134602533Y-129841120D01*
X134229468Y-129915328D01*
X133878049Y-130060890D01*
X133561779Y-130272215D01*
X133292815Y-130541179D01*
X133081490Y-130857449D01*
X132935928Y-131208868D01*
X132861720Y-131581933D01*
X123092900Y-131581933D01*
X123092900Y-127340726D01*
X133661720Y-127340726D01*
X133661720Y-127563514D01*
X133705184Y-127782020D01*
X133790441Y-127987849D01*
X133914215Y-128173090D01*
X134071750Y-128330625D01*
X134256991Y-128454399D01*
X134462820Y-128539656D01*
X134681326Y-128583120D01*
X134904114Y-128583120D01*
X135122620Y-128539656D01*
X135328449Y-128454399D01*
X135396224Y-128409113D01*
X144863412Y-128409113D01*
X144928937Y-128647980D01*
X145175916Y-128763880D01*
X145440760Y-128829370D01*
X145713292Y-128841932D01*
X145983038Y-128801085D01*
X146239632Y-128708397D01*
X146352663Y-128647980D01*
X146418188Y-128409113D01*
X145640800Y-127631725D01*
X144863412Y-128409113D01*
X135396224Y-128409113D01*
X135513690Y-128330625D01*
X135671225Y-128173090D01*
X135794999Y-127987849D01*
X135880256Y-127782020D01*
X135923720Y-127563514D01*
X135923720Y-127524612D01*
X144250988Y-127524612D01*
X144291835Y-127794358D01*
X144384523Y-128050952D01*
X144444940Y-128163983D01*
X144683807Y-128229508D01*
X145461195Y-127452120D01*
X145820405Y-127452120D01*
X146597793Y-128229508D01*
X146836660Y-128163983D01*
X146952560Y-127917004D01*
X147018050Y-127652160D01*
X147030612Y-127379628D01*
X147024722Y-127340726D01*
X147509800Y-127340726D01*
X147509800Y-127563514D01*
X147553264Y-127782020D01*
X147638521Y-127987849D01*
X147762295Y-128173090D01*
X147919830Y-128330625D01*
X148105071Y-128454399D01*
X148310900Y-128539656D01*
X148529406Y-128583120D01*
X148752194Y-128583120D01*
X148970700Y-128539656D01*
X149176529Y-128454399D01*
X149361770Y-128330625D01*
X149519305Y-128173090D01*
X149643079Y-127987849D01*
X149728336Y-127782020D01*
X149771800Y-127563514D01*
X149771800Y-127340726D01*
X158386080Y-127340726D01*
X158386080Y-127563514D01*
X158429544Y-127782020D01*
X158514801Y-127987849D01*
X158638575Y-128173090D01*
X158796110Y-128330625D01*
X158981351Y-128454399D01*
X159187180Y-128539656D01*
X159405686Y-128583120D01*
X159628474Y-128583120D01*
X159846980Y-128539656D01*
X160052809Y-128454399D01*
X160238050Y-128330625D01*
X160395585Y-128173090D01*
X160519359Y-127987849D01*
X160604616Y-127782020D01*
X160648080Y-127563514D01*
X160648080Y-127340726D01*
X160604616Y-127122220D01*
X160519359Y-126916391D01*
X160395585Y-126731150D01*
X160238050Y-126573615D01*
X160052809Y-126449841D01*
X159846980Y-126364584D01*
X159628474Y-126321120D01*
X159405686Y-126321120D01*
X159187180Y-126364584D01*
X158981351Y-126449841D01*
X158796110Y-126573615D01*
X158638575Y-126731150D01*
X158514801Y-126916391D01*
X158429544Y-127122220D01*
X158386080Y-127340726D01*
X149771800Y-127340726D01*
X149728336Y-127122220D01*
X149643079Y-126916391D01*
X149519305Y-126731150D01*
X149361770Y-126573615D01*
X149176529Y-126449841D01*
X148970700Y-126364584D01*
X148752194Y-126321120D01*
X148529406Y-126321120D01*
X148310900Y-126364584D01*
X148105071Y-126449841D01*
X147919830Y-126573615D01*
X147762295Y-126731150D01*
X147638521Y-126916391D01*
X147553264Y-127122220D01*
X147509800Y-127340726D01*
X147024722Y-127340726D01*
X146989765Y-127109882D01*
X146897077Y-126853288D01*
X146836660Y-126740257D01*
X146597793Y-126674732D01*
X145820405Y-127452120D01*
X145461195Y-127452120D01*
X144683807Y-126674732D01*
X144444940Y-126740257D01*
X144329040Y-126987236D01*
X144263550Y-127252080D01*
X144250988Y-127524612D01*
X135923720Y-127524612D01*
X135923720Y-127340726D01*
X135880256Y-127122220D01*
X135794999Y-126916391D01*
X135671225Y-126731150D01*
X135513690Y-126573615D01*
X135396225Y-126495127D01*
X144863412Y-126495127D01*
X145640800Y-127272515D01*
X146418188Y-126495127D01*
X146352663Y-126256260D01*
X146105684Y-126140360D01*
X145840840Y-126074870D01*
X145568308Y-126062308D01*
X145298562Y-126103155D01*
X145041968Y-126195843D01*
X144928937Y-126256260D01*
X144863412Y-126495127D01*
X135396225Y-126495127D01*
X135328449Y-126449841D01*
X135122620Y-126364584D01*
X134904114Y-126321120D01*
X134681326Y-126321120D01*
X134462820Y-126364584D01*
X134256991Y-126449841D01*
X134071750Y-126573615D01*
X133914215Y-126731150D01*
X133790441Y-126916391D01*
X133705184Y-127122220D01*
X133661720Y-127340726D01*
X123092900Y-127340726D01*
X123092900Y-124340726D01*
X133661720Y-124340726D01*
X133661720Y-124563514D01*
X133705184Y-124782020D01*
X133790441Y-124987849D01*
X133914215Y-125173090D01*
X134071750Y-125330625D01*
X134256991Y-125454399D01*
X134462820Y-125539656D01*
X134681326Y-125583120D01*
X134904114Y-125583120D01*
X135122620Y-125539656D01*
X135328449Y-125454399D01*
X135396224Y-125409113D01*
X144863412Y-125409113D01*
X144928937Y-125647980D01*
X145175916Y-125763880D01*
X145440760Y-125829370D01*
X145713292Y-125841932D01*
X145983038Y-125801085D01*
X146239632Y-125708397D01*
X146352663Y-125647980D01*
X146418188Y-125409113D01*
X145640800Y-124631725D01*
X144863412Y-125409113D01*
X135396224Y-125409113D01*
X135513690Y-125330625D01*
X135671225Y-125173090D01*
X135794999Y-124987849D01*
X135880256Y-124782020D01*
X135923720Y-124563514D01*
X135923720Y-124524612D01*
X144250988Y-124524612D01*
X144291835Y-124794358D01*
X144384523Y-125050952D01*
X144444940Y-125163983D01*
X144683807Y-125229508D01*
X145461195Y-124452120D01*
X145820405Y-124452120D01*
X146597793Y-125229508D01*
X146836660Y-125163983D01*
X146952560Y-124917004D01*
X147018050Y-124652160D01*
X147030612Y-124379628D01*
X147024722Y-124340726D01*
X147509800Y-124340726D01*
X147509800Y-124563514D01*
X147553264Y-124782020D01*
X147638521Y-124987849D01*
X147762295Y-125173090D01*
X147919830Y-125330625D01*
X148105071Y-125454399D01*
X148310900Y-125539656D01*
X148529406Y-125583120D01*
X148752194Y-125583120D01*
X148970700Y-125539656D01*
X149176529Y-125454399D01*
X149361770Y-125330625D01*
X149519305Y-125173090D01*
X149643079Y-124987849D01*
X149728336Y-124782020D01*
X149771800Y-124563514D01*
X149771800Y-124340726D01*
X158386080Y-124340726D01*
X158386080Y-124563514D01*
X158429544Y-124782020D01*
X158514801Y-124987849D01*
X158638575Y-125173090D01*
X158796110Y-125330625D01*
X158981351Y-125454399D01*
X159187180Y-125539656D01*
X159405686Y-125583120D01*
X159628474Y-125583120D01*
X159846980Y-125539656D01*
X160052809Y-125454399D01*
X160238050Y-125330625D01*
X160395585Y-125173090D01*
X160519359Y-124987849D01*
X160604616Y-124782020D01*
X160648080Y-124563514D01*
X160648080Y-124340726D01*
X160604616Y-124122220D01*
X160519359Y-123916391D01*
X160395585Y-123731150D01*
X160238050Y-123573615D01*
X160052809Y-123449841D01*
X159846980Y-123364584D01*
X159628474Y-123321120D01*
X159405686Y-123321120D01*
X159187180Y-123364584D01*
X158981351Y-123449841D01*
X158796110Y-123573615D01*
X158638575Y-123731150D01*
X158514801Y-123916391D01*
X158429544Y-124122220D01*
X158386080Y-124340726D01*
X149771800Y-124340726D01*
X149728336Y-124122220D01*
X149643079Y-123916391D01*
X149519305Y-123731150D01*
X149361770Y-123573615D01*
X149176529Y-123449841D01*
X148970700Y-123364584D01*
X148752194Y-123321120D01*
X148529406Y-123321120D01*
X148310900Y-123364584D01*
X148105071Y-123449841D01*
X147919830Y-123573615D01*
X147762295Y-123731150D01*
X147638521Y-123916391D01*
X147553264Y-124122220D01*
X147509800Y-124340726D01*
X147024722Y-124340726D01*
X146989765Y-124109882D01*
X146897077Y-123853288D01*
X146836660Y-123740257D01*
X146597793Y-123674732D01*
X145820405Y-124452120D01*
X145461195Y-124452120D01*
X144683807Y-123674732D01*
X144444940Y-123740257D01*
X144329040Y-123987236D01*
X144263550Y-124252080D01*
X144250988Y-124524612D01*
X135923720Y-124524612D01*
X135923720Y-124340726D01*
X135880256Y-124122220D01*
X135794999Y-123916391D01*
X135671225Y-123731150D01*
X135513690Y-123573615D01*
X135396225Y-123495127D01*
X144863412Y-123495127D01*
X145640800Y-124272515D01*
X146418188Y-123495127D01*
X146352663Y-123256260D01*
X146105684Y-123140360D01*
X145840840Y-123074870D01*
X145568308Y-123062308D01*
X145298562Y-123103155D01*
X145041968Y-123195843D01*
X144928937Y-123256260D01*
X144863412Y-123495127D01*
X135396225Y-123495127D01*
X135328449Y-123449841D01*
X135122620Y-123364584D01*
X134904114Y-123321120D01*
X134681326Y-123321120D01*
X134462820Y-123364584D01*
X134256991Y-123449841D01*
X134071750Y-123573615D01*
X133914215Y-123731150D01*
X133790441Y-123916391D01*
X133705184Y-124122220D01*
X133661720Y-124340726D01*
X123092900Y-124340726D01*
X123092900Y-119304889D01*
X124519000Y-119304889D01*
X124519000Y-119695111D01*
X124595129Y-120077836D01*
X124744461Y-120438355D01*
X124961257Y-120762814D01*
X125237186Y-121038743D01*
X125561645Y-121255539D01*
X125922164Y-121404871D01*
X126304889Y-121481000D01*
X126695111Y-121481000D01*
X127077836Y-121404871D01*
X127438355Y-121255539D01*
X127762814Y-121038743D01*
X128038743Y-120762814D01*
X128255539Y-120438355D01*
X128404871Y-120077836D01*
X128481000Y-119695111D01*
X128481000Y-119304889D01*
X165769000Y-119304889D01*
X165769000Y-119695111D01*
X165845129Y-120077836D01*
X165994461Y-120438355D01*
X166211257Y-120762814D01*
X166487186Y-121038743D01*
X166811645Y-121255539D01*
X167172164Y-121404871D01*
X167554889Y-121481000D01*
X167945111Y-121481000D01*
X168327836Y-121404871D01*
X168688355Y-121255539D01*
X169012814Y-121038743D01*
X169288743Y-120762814D01*
X169505539Y-120438355D01*
X169654871Y-120077836D01*
X169731000Y-119695111D01*
X169731000Y-119304889D01*
X169654871Y-118922164D01*
X169505539Y-118561645D01*
X169288743Y-118237186D01*
X169012814Y-117961257D01*
X168688355Y-117744461D01*
X168327836Y-117595129D01*
X167945111Y-117519000D01*
X167554889Y-117519000D01*
X167172164Y-117595129D01*
X166811645Y-117744461D01*
X166487186Y-117961257D01*
X166211257Y-118237186D01*
X165994461Y-118561645D01*
X165845129Y-118922164D01*
X165769000Y-119304889D01*
X128481000Y-119304889D01*
X128404871Y-118922164D01*
X128255539Y-118561645D01*
X128038743Y-118237186D01*
X127762814Y-117961257D01*
X127438355Y-117744461D01*
X127077836Y-117595129D01*
X126695111Y-117519000D01*
X126304889Y-117519000D01*
X125922164Y-117595129D01*
X125561645Y-117744461D01*
X125237186Y-117961257D01*
X124961257Y-118237186D01*
X124744461Y-118561645D01*
X124595129Y-118922164D01*
X124519000Y-119304889D01*
X123092900Y-119304889D01*
X123092900Y-113218637D01*
X125255920Y-113218637D01*
X125255920Y-113461123D01*
X125303227Y-113698949D01*
X125396022Y-113922977D01*
X125530740Y-114124597D01*
X125702203Y-114296060D01*
X125903823Y-114430778D01*
X125978920Y-114461884D01*
X125978920Y-114517016D01*
X125976463Y-114541961D01*
X125978920Y-114566905D01*
X125978920Y-114566907D01*
X125986271Y-114641545D01*
X126015319Y-114737303D01*
X126062491Y-114825556D01*
X126125972Y-114902909D01*
X126145354Y-114918815D01*
X126459927Y-115233389D01*
X126475830Y-115252767D01*
X126495207Y-115268669D01*
X126553182Y-115316248D01*
X126562971Y-115321480D01*
X126641435Y-115363420D01*
X126737193Y-115392468D01*
X126811831Y-115399819D01*
X126811834Y-115399819D01*
X126836778Y-115402276D01*
X126861722Y-115399819D01*
X135730437Y-115399819D01*
X135755381Y-115402276D01*
X135780325Y-115399819D01*
X135780328Y-115399819D01*
X135854966Y-115392468D01*
X135950724Y-115363420D01*
X136038976Y-115316248D01*
X136091894Y-115272820D01*
X136169578Y-115272820D01*
X136309434Y-115245001D01*
X136441175Y-115190432D01*
X136559740Y-115111210D01*
X136614030Y-115056920D01*
X157237212Y-115056920D01*
X157256877Y-115155784D01*
X157311446Y-115287525D01*
X157390668Y-115406090D01*
X157491498Y-115506920D01*
X157610063Y-115586142D01*
X157741804Y-115640711D01*
X157881660Y-115668530D01*
X158024256Y-115668530D01*
X158164112Y-115640711D01*
X158295853Y-115586142D01*
X158414418Y-115506920D01*
X158515248Y-115406090D01*
X158594470Y-115287525D01*
X158649039Y-115155784D01*
X158676858Y-115015928D01*
X158676858Y-114873332D01*
X158649039Y-114733476D01*
X158594470Y-114601735D01*
X158515248Y-114483170D01*
X158414418Y-114382340D01*
X158295853Y-114303118D01*
X158164112Y-114248549D01*
X158024256Y-114220730D01*
X157947478Y-114220730D01*
X157934102Y-114207354D01*
X157918196Y-114187972D01*
X157840843Y-114124491D01*
X157752591Y-114077319D01*
X157656833Y-114048271D01*
X157582195Y-114040920D01*
X157582192Y-114040920D01*
X157557248Y-114038463D01*
X157532304Y-114040920D01*
X136614030Y-114040920D01*
X136559740Y-113986630D01*
X136441175Y-113907408D01*
X136309434Y-113852839D01*
X136169578Y-113825020D01*
X136026982Y-113825020D01*
X135887126Y-113852839D01*
X135755385Y-113907408D01*
X135636820Y-113986630D01*
X135535990Y-114087460D01*
X135456768Y-114206025D01*
X135402199Y-114337766D01*
X135393039Y-114383819D01*
X127140296Y-114383819D01*
X127271637Y-114296060D01*
X127443100Y-114124597D01*
X127577818Y-113922977D01*
X127670613Y-113698949D01*
X127717920Y-113461123D01*
X127717920Y-113218637D01*
X127716910Y-113213557D01*
X166312480Y-113213557D01*
X166312480Y-113456043D01*
X166359787Y-113693869D01*
X166452582Y-113917897D01*
X166587300Y-114119517D01*
X166758763Y-114290980D01*
X166960383Y-114425698D01*
X167184411Y-114518493D01*
X167422237Y-114565800D01*
X167664723Y-114565800D01*
X167902549Y-114518493D01*
X168126577Y-114425698D01*
X168328197Y-114290980D01*
X168499660Y-114119517D01*
X168634378Y-113917897D01*
X168727173Y-113693869D01*
X168774480Y-113456043D01*
X168774480Y-113213557D01*
X168727173Y-112975731D01*
X168634378Y-112751703D01*
X168499660Y-112550083D01*
X168328197Y-112378620D01*
X168126577Y-112243902D01*
X167902549Y-112151107D01*
X167664723Y-112103800D01*
X167422237Y-112103800D01*
X167184411Y-112151107D01*
X166960383Y-112243902D01*
X166758763Y-112378620D01*
X166587300Y-112550083D01*
X166452582Y-112751703D01*
X166359787Y-112975731D01*
X166312480Y-113213557D01*
X127716910Y-113213557D01*
X127670613Y-112980811D01*
X127577818Y-112756783D01*
X127443100Y-112555163D01*
X127271637Y-112383700D01*
X127070017Y-112248982D01*
X126845989Y-112156187D01*
X126608163Y-112108880D01*
X126365677Y-112108880D01*
X126127851Y-112156187D01*
X125903823Y-112248982D01*
X125702203Y-112383700D01*
X125530740Y-112555163D01*
X125396022Y-112756783D01*
X125303227Y-112980811D01*
X125255920Y-113218637D01*
X123092900Y-113218637D01*
X123092900Y-100518637D01*
X125255920Y-100518637D01*
X125255920Y-100761123D01*
X125303227Y-100998949D01*
X125396022Y-101222977D01*
X125530740Y-101424597D01*
X125702203Y-101596060D01*
X125903823Y-101730778D01*
X126127851Y-101823573D01*
X126365677Y-101870880D01*
X126608163Y-101870880D01*
X126845989Y-101823573D01*
X127070017Y-101730778D01*
X127271637Y-101596060D01*
X127443100Y-101424597D01*
X127577818Y-101222977D01*
X127670613Y-100998949D01*
X127717920Y-100761123D01*
X127717920Y-100518637D01*
X127670613Y-100280811D01*
X127639507Y-100205714D01*
X127941941Y-99903280D01*
X131549010Y-99903280D01*
X131603300Y-99957570D01*
X131636091Y-99979480D01*
X129346504Y-99979480D01*
X129321560Y-99977023D01*
X129296616Y-99979480D01*
X129296613Y-99979480D01*
X129221975Y-99986831D01*
X129126217Y-100015879D01*
X129037965Y-100063051D01*
X128960612Y-100126532D01*
X128944705Y-100145915D01*
X127821755Y-101268865D01*
X127802372Y-101284772D01*
X127738891Y-101362125D01*
X127691719Y-101450378D01*
X127662671Y-101546136D01*
X127657754Y-101596060D01*
X127652863Y-101645720D01*
X127655320Y-101670664D01*
X127655320Y-102783891D01*
X127577818Y-102596783D01*
X127443100Y-102395163D01*
X127271637Y-102223700D01*
X127070017Y-102088982D01*
X126845989Y-101996187D01*
X126608163Y-101948880D01*
X126365677Y-101948880D01*
X126127851Y-101996187D01*
X125903823Y-102088982D01*
X125702203Y-102223700D01*
X125530740Y-102395163D01*
X125396022Y-102596783D01*
X125303227Y-102820811D01*
X125255920Y-103058637D01*
X125255920Y-103301123D01*
X125303227Y-103538949D01*
X125396022Y-103762977D01*
X125530740Y-103964597D01*
X125702203Y-104136060D01*
X125903823Y-104270778D01*
X126127851Y-104363573D01*
X126365677Y-104410880D01*
X126608163Y-104410880D01*
X126845989Y-104363573D01*
X127070017Y-104270778D01*
X127271637Y-104136060D01*
X127443100Y-103964597D01*
X127577818Y-103762977D01*
X127655320Y-103575869D01*
X127655320Y-105323891D01*
X127577818Y-105136783D01*
X127443100Y-104935163D01*
X127271637Y-104763700D01*
X127070017Y-104628982D01*
X126845989Y-104536187D01*
X126608163Y-104488880D01*
X126365677Y-104488880D01*
X126127851Y-104536187D01*
X125903823Y-104628982D01*
X125702203Y-104763700D01*
X125530740Y-104935163D01*
X125396022Y-105136783D01*
X125303227Y-105360811D01*
X125255920Y-105598637D01*
X125255920Y-105841123D01*
X125303227Y-106078949D01*
X125396022Y-106302977D01*
X125530740Y-106504597D01*
X125702203Y-106676060D01*
X125903823Y-106810778D01*
X126127851Y-106903573D01*
X126365677Y-106950880D01*
X126608163Y-106950880D01*
X126845989Y-106903573D01*
X127070017Y-106810778D01*
X127271637Y-106676060D01*
X127443100Y-106504597D01*
X127577818Y-106302977D01*
X127655321Y-106115868D01*
X127655321Y-107863892D01*
X127577818Y-107676783D01*
X127443100Y-107475163D01*
X127271637Y-107303700D01*
X127070017Y-107168982D01*
X126845989Y-107076187D01*
X126608163Y-107028880D01*
X126365677Y-107028880D01*
X126127851Y-107076187D01*
X125903823Y-107168982D01*
X125702203Y-107303700D01*
X125530740Y-107475163D01*
X125396022Y-107676783D01*
X125303227Y-107900811D01*
X125255920Y-108138637D01*
X125255920Y-108381123D01*
X125303227Y-108618949D01*
X125396022Y-108842977D01*
X125530740Y-109044597D01*
X125702203Y-109216060D01*
X125903823Y-109350778D01*
X126127851Y-109443573D01*
X126365677Y-109490880D01*
X126608163Y-109490880D01*
X126845989Y-109443573D01*
X127070017Y-109350778D01*
X127271637Y-109216060D01*
X127443100Y-109044597D01*
X127577818Y-108842977D01*
X127655321Y-108655868D01*
X127655321Y-110115139D01*
X127568149Y-110202312D01*
X127443100Y-110015163D01*
X127271637Y-109843700D01*
X127070017Y-109708982D01*
X126845989Y-109616187D01*
X126608163Y-109568880D01*
X126365677Y-109568880D01*
X126127851Y-109616187D01*
X125903823Y-109708982D01*
X125702203Y-109843700D01*
X125530740Y-110015163D01*
X125396022Y-110216783D01*
X125303227Y-110440811D01*
X125255920Y-110678637D01*
X125255920Y-110921123D01*
X125303227Y-111158949D01*
X125396022Y-111382977D01*
X125530740Y-111584597D01*
X125702203Y-111756060D01*
X125903823Y-111890778D01*
X126127851Y-111983573D01*
X126365677Y-112030880D01*
X126608163Y-112030880D01*
X126845989Y-111983573D01*
X127070017Y-111890778D01*
X127271637Y-111756060D01*
X127443100Y-111584597D01*
X127577818Y-111382977D01*
X127608924Y-111307880D01*
X127664057Y-111307880D01*
X127689001Y-111310337D01*
X127713945Y-111307880D01*
X127713948Y-111307880D01*
X127788586Y-111300529D01*
X127884344Y-111271481D01*
X127972596Y-111224309D01*
X128049949Y-111160828D01*
X128065856Y-111141446D01*
X128504890Y-110702412D01*
X128524268Y-110686509D01*
X128534896Y-110673557D01*
X166312480Y-110673557D01*
X166312480Y-110916043D01*
X166359787Y-111153869D01*
X166452582Y-111377897D01*
X166587300Y-111579517D01*
X166758763Y-111750980D01*
X166960383Y-111885698D01*
X167184411Y-111978493D01*
X167422237Y-112025800D01*
X167664723Y-112025800D01*
X167902549Y-111978493D01*
X168126577Y-111885698D01*
X168328197Y-111750980D01*
X168499660Y-111579517D01*
X168634378Y-111377897D01*
X168727173Y-111153869D01*
X168774480Y-110916043D01*
X168774480Y-110673557D01*
X168727173Y-110435731D01*
X168634378Y-110211703D01*
X168499660Y-110010083D01*
X168328197Y-109838620D01*
X168126577Y-109703902D01*
X167902549Y-109611107D01*
X167664723Y-109563800D01*
X167422237Y-109563800D01*
X167184411Y-109611107D01*
X166960383Y-109703902D01*
X166758763Y-109838620D01*
X166587300Y-110010083D01*
X166452582Y-110211703D01*
X166359787Y-110435731D01*
X166312480Y-110673557D01*
X128534896Y-110673557D01*
X128542944Y-110663751D01*
X128587749Y-110609157D01*
X128634920Y-110520906D01*
X128636322Y-110516285D01*
X128663969Y-110425146D01*
X128671320Y-110350508D01*
X128671320Y-110350506D01*
X128673777Y-110325562D01*
X128671320Y-110300618D01*
X128671320Y-108133557D01*
X166312480Y-108133557D01*
X166312480Y-108376043D01*
X166359787Y-108613869D01*
X166452582Y-108837897D01*
X166587300Y-109039517D01*
X166758763Y-109210980D01*
X166960383Y-109345698D01*
X167184411Y-109438493D01*
X167422237Y-109485800D01*
X167664723Y-109485800D01*
X167902549Y-109438493D01*
X168126577Y-109345698D01*
X168328197Y-109210980D01*
X168499660Y-109039517D01*
X168634378Y-108837897D01*
X168727173Y-108613869D01*
X168774480Y-108376043D01*
X168774480Y-108133557D01*
X168727173Y-107895731D01*
X168634378Y-107671703D01*
X168499660Y-107470083D01*
X168328197Y-107298620D01*
X168126577Y-107163902D01*
X167902549Y-107071107D01*
X167664723Y-107023800D01*
X167422237Y-107023800D01*
X167184411Y-107071107D01*
X166960383Y-107163902D01*
X166758763Y-107298620D01*
X166587300Y-107470083D01*
X166452582Y-107671703D01*
X166359787Y-107895731D01*
X166312480Y-108133557D01*
X128671320Y-108133557D01*
X128671320Y-106611362D01*
X128800526Y-106664881D01*
X128940382Y-106692700D01*
X129019989Y-106692700D01*
X129835188Y-107507900D01*
X129851033Y-107527207D01*
X129928081Y-107590439D01*
X130015985Y-107637425D01*
X130089167Y-107659624D01*
X130111366Y-107666358D01*
X130121254Y-107667332D01*
X130185706Y-107673680D01*
X130185713Y-107673680D01*
X130210559Y-107676127D01*
X130235405Y-107673680D01*
X150536194Y-107673680D01*
X150561040Y-107676127D01*
X150585886Y-107673680D01*
X150585894Y-107673680D01*
X150660233Y-107666358D01*
X150755615Y-107637425D01*
X150843519Y-107590439D01*
X150920567Y-107527207D01*
X150936416Y-107507895D01*
X152850754Y-105593557D01*
X166312480Y-105593557D01*
X166312480Y-105836043D01*
X166359787Y-106073869D01*
X166452582Y-106297897D01*
X166587300Y-106499517D01*
X166758763Y-106670980D01*
X166960383Y-106805698D01*
X167184411Y-106898493D01*
X167422237Y-106945800D01*
X167664723Y-106945800D01*
X167902549Y-106898493D01*
X168126577Y-106805698D01*
X168328197Y-106670980D01*
X168499660Y-106499517D01*
X168634378Y-106297897D01*
X168727173Y-106073869D01*
X168774480Y-105836043D01*
X168774480Y-105593557D01*
X168727173Y-105355731D01*
X168634378Y-105131703D01*
X168499660Y-104930083D01*
X168328197Y-104758620D01*
X168126577Y-104623902D01*
X167902549Y-104531107D01*
X167664723Y-104483800D01*
X167422237Y-104483800D01*
X167184411Y-104531107D01*
X166960383Y-104623902D01*
X166758763Y-104758620D01*
X166587300Y-104930083D01*
X166452582Y-105131703D01*
X166359787Y-105355731D01*
X166312480Y-105593557D01*
X152850754Y-105593557D01*
X154015300Y-104429012D01*
X154034607Y-104413167D01*
X154097839Y-104336119D01*
X154144825Y-104248215D01*
X154173758Y-104152833D01*
X154181080Y-104078494D01*
X154183528Y-104053640D01*
X154181080Y-104028786D01*
X154181080Y-103053557D01*
X166312480Y-103053557D01*
X166312480Y-103296043D01*
X166359787Y-103533869D01*
X166452582Y-103757897D01*
X166587300Y-103959517D01*
X166758763Y-104130980D01*
X166960383Y-104265698D01*
X167184411Y-104358493D01*
X167422237Y-104405800D01*
X167664723Y-104405800D01*
X167902549Y-104358493D01*
X168126577Y-104265698D01*
X168328197Y-104130980D01*
X168499660Y-103959517D01*
X168634378Y-103757897D01*
X168727173Y-103533869D01*
X168774480Y-103296043D01*
X168774480Y-103053557D01*
X168727173Y-102815731D01*
X168634378Y-102591703D01*
X168499660Y-102390083D01*
X168328197Y-102218620D01*
X168126577Y-102083902D01*
X167902549Y-101991107D01*
X167664723Y-101943800D01*
X167422237Y-101943800D01*
X167184411Y-101991107D01*
X166960383Y-102083902D01*
X166758763Y-102218620D01*
X166587300Y-102390083D01*
X166452582Y-102591703D01*
X166359787Y-102815731D01*
X166312480Y-103053557D01*
X154181080Y-103053557D01*
X154181080Y-101418907D01*
X154183528Y-101394053D01*
X154178963Y-101347707D01*
X154196730Y-101329940D01*
X154275952Y-101211375D01*
X154330521Y-101079634D01*
X154358340Y-100939778D01*
X154358340Y-100797182D01*
X154330521Y-100657326D01*
X154275952Y-100525585D01*
X154196730Y-100407020D01*
X154095900Y-100306190D01*
X154075322Y-100292440D01*
X154242729Y-100292440D01*
X154681468Y-100731180D01*
X154697313Y-100750487D01*
X154774361Y-100813719D01*
X154862265Y-100860705D01*
X154935447Y-100882904D01*
X154957646Y-100889638D01*
X154967534Y-100890612D01*
X155031986Y-100896960D01*
X155031993Y-100896960D01*
X155056839Y-100899407D01*
X155081685Y-100896960D01*
X155499210Y-100896960D01*
X155555500Y-100953250D01*
X155674065Y-101032472D01*
X155805806Y-101087041D01*
X155945662Y-101114860D01*
X156088258Y-101114860D01*
X156228114Y-101087041D01*
X156359855Y-101032472D01*
X156478420Y-100953250D01*
X156579250Y-100852420D01*
X156658472Y-100733855D01*
X156713041Y-100602114D01*
X156730656Y-100513557D01*
X166312480Y-100513557D01*
X166312480Y-100756043D01*
X166359787Y-100993869D01*
X166452582Y-101217897D01*
X166587300Y-101419517D01*
X166758763Y-101590980D01*
X166960383Y-101725698D01*
X167184411Y-101818493D01*
X167422237Y-101865800D01*
X167664723Y-101865800D01*
X167902549Y-101818493D01*
X168126577Y-101725698D01*
X168328197Y-101590980D01*
X168499660Y-101419517D01*
X168634378Y-101217897D01*
X168727173Y-100993869D01*
X168774480Y-100756043D01*
X168774480Y-100513557D01*
X168727173Y-100275731D01*
X168634378Y-100051703D01*
X168499660Y-99850083D01*
X168328197Y-99678620D01*
X168126577Y-99543902D01*
X167902549Y-99451107D01*
X167664723Y-99403800D01*
X167422237Y-99403800D01*
X167184411Y-99451107D01*
X166960383Y-99543902D01*
X166758763Y-99678620D01*
X166587300Y-99850083D01*
X166452582Y-100051703D01*
X166359787Y-100275731D01*
X166312480Y-100513557D01*
X156730656Y-100513557D01*
X156740860Y-100462258D01*
X156740860Y-100319662D01*
X156713041Y-100179806D01*
X156658472Y-100048065D01*
X156579250Y-99929500D01*
X156478420Y-99828670D01*
X156359855Y-99749448D01*
X156228114Y-99694879D01*
X156088258Y-99667060D01*
X155945662Y-99667060D01*
X155805806Y-99694879D01*
X155674065Y-99749448D01*
X155555500Y-99828670D01*
X155499210Y-99884960D01*
X155266432Y-99884960D01*
X154827696Y-99446225D01*
X154811847Y-99426913D01*
X154734799Y-99363681D01*
X154646895Y-99316695D01*
X154551513Y-99287762D01*
X154477174Y-99280440D01*
X154477166Y-99280440D01*
X154452320Y-99277993D01*
X154427474Y-99280440D01*
X152038774Y-99280440D01*
X152013920Y-99277992D01*
X151989066Y-99280440D01*
X151914727Y-99287762D01*
X151819345Y-99316695D01*
X151731441Y-99363681D01*
X151654393Y-99426913D01*
X151638548Y-99446220D01*
X151462106Y-99622662D01*
X151410832Y-99498875D01*
X151331610Y-99380310D01*
X151230780Y-99279480D01*
X151214018Y-99268280D01*
X151942347Y-99268280D01*
X152016985Y-99260929D01*
X152112743Y-99231881D01*
X152200995Y-99184709D01*
X152278348Y-99121228D01*
X152280120Y-99119069D01*
X152282205Y-99118654D01*
X152497133Y-99029628D01*
X152690563Y-98900382D01*
X152855062Y-98735883D01*
X152984308Y-98542453D01*
X153073334Y-98327525D01*
X153118720Y-98099358D01*
X153118720Y-97866722D01*
X158376720Y-97866722D01*
X158376720Y-98099358D01*
X158422106Y-98327525D01*
X158511132Y-98542453D01*
X158640378Y-98735883D01*
X158804877Y-98900382D01*
X158998307Y-99029628D01*
X159213235Y-99118654D01*
X159441402Y-99164040D01*
X159674038Y-99164040D01*
X159902205Y-99118654D01*
X160117133Y-99029628D01*
X160310563Y-98900382D01*
X160475062Y-98735883D01*
X160604308Y-98542453D01*
X160693334Y-98327525D01*
X160738720Y-98099358D01*
X160738720Y-97973557D01*
X166312480Y-97973557D01*
X166312480Y-98216043D01*
X166359787Y-98453869D01*
X166452582Y-98677897D01*
X166587300Y-98879517D01*
X166758763Y-99050980D01*
X166960383Y-99185698D01*
X167184411Y-99278493D01*
X167422237Y-99325800D01*
X167664723Y-99325800D01*
X167902549Y-99278493D01*
X168126577Y-99185698D01*
X168328197Y-99050980D01*
X168499660Y-98879517D01*
X168634378Y-98677897D01*
X168727173Y-98453869D01*
X168774480Y-98216043D01*
X168774480Y-97973557D01*
X168727173Y-97735731D01*
X168634378Y-97511703D01*
X168499660Y-97310083D01*
X168328197Y-97138620D01*
X168126577Y-97003902D01*
X167902549Y-96911107D01*
X167664723Y-96863800D01*
X167422237Y-96863800D01*
X167184411Y-96911107D01*
X166960383Y-97003902D01*
X166758763Y-97138620D01*
X166587300Y-97310083D01*
X166452582Y-97511703D01*
X166359787Y-97735731D01*
X166312480Y-97973557D01*
X160738720Y-97973557D01*
X160738720Y-97866722D01*
X160693334Y-97638555D01*
X160604308Y-97423627D01*
X160475062Y-97230197D01*
X160310563Y-97065698D01*
X160117133Y-96936452D01*
X159902205Y-96847426D01*
X159674038Y-96802040D01*
X159441402Y-96802040D01*
X159213235Y-96847426D01*
X158998307Y-96936452D01*
X158804877Y-97065698D01*
X158640378Y-97230197D01*
X158511132Y-97423627D01*
X158422106Y-97638555D01*
X158376720Y-97866722D01*
X153118720Y-97866722D01*
X153073334Y-97638555D01*
X152984308Y-97423627D01*
X152855062Y-97230197D01*
X152690563Y-97065698D01*
X152497133Y-96936452D01*
X152282205Y-96847426D01*
X152054038Y-96802040D01*
X151821402Y-96802040D01*
X151593235Y-96847426D01*
X151378307Y-96936452D01*
X151184877Y-97065698D01*
X151020378Y-97230197D01*
X150891132Y-97423627D01*
X150802106Y-97638555D01*
X150756720Y-97866722D01*
X150756720Y-98099358D01*
X150787139Y-98252280D01*
X145683784Y-98252280D01*
X145658840Y-98249823D01*
X145633896Y-98252280D01*
X145633893Y-98252280D01*
X145559255Y-98259631D01*
X145463497Y-98288679D01*
X145375245Y-98335851D01*
X145297892Y-98399332D01*
X145281985Y-98418715D01*
X144633078Y-99067622D01*
X144290474Y-99067622D01*
X144292441Y-99062874D01*
X144320260Y-98923018D01*
X144320260Y-98780422D01*
X144292441Y-98640566D01*
X144237872Y-98508825D01*
X144177360Y-98418262D01*
X144177360Y-96670460D01*
X144180171Y-96641920D01*
X144168953Y-96528024D01*
X144135731Y-96418505D01*
X144081781Y-96317572D01*
X144027370Y-96251271D01*
X144027368Y-96251269D01*
X144009177Y-96229103D01*
X143987012Y-96210913D01*
X142500318Y-94724220D01*
X142504338Y-94724220D01*
X142644194Y-94696401D01*
X142775935Y-94641832D01*
X142894500Y-94562610D01*
X142995330Y-94461780D01*
X143074552Y-94343215D01*
X143086952Y-94313280D01*
X150946423Y-94313280D01*
X150925024Y-94324718D01*
X150867009Y-94372329D01*
X150819398Y-94430344D01*
X150784019Y-94496532D01*
X150762233Y-94568351D01*
X150754877Y-94643040D01*
X150754877Y-96243040D01*
X150762233Y-96317729D01*
X150784019Y-96389548D01*
X150819398Y-96455736D01*
X150867009Y-96513751D01*
X150925024Y-96561362D01*
X150991212Y-96596741D01*
X151063031Y-96618527D01*
X151137720Y-96625883D01*
X152737720Y-96625883D01*
X152812409Y-96618527D01*
X152884228Y-96596741D01*
X152950416Y-96561362D01*
X153008431Y-96513751D01*
X153056042Y-96455736D01*
X153091421Y-96389548D01*
X153113207Y-96317729D01*
X153120563Y-96243040D01*
X153120563Y-94643040D01*
X153113207Y-94568351D01*
X153091421Y-94496532D01*
X153056042Y-94430344D01*
X153008431Y-94372329D01*
X152950416Y-94324718D01*
X152884228Y-94289339D01*
X152812409Y-94267553D01*
X152737720Y-94260197D01*
X152426191Y-94260197D01*
X152407465Y-94198465D01*
X152390543Y-94166807D01*
X152360479Y-94110561D01*
X152297247Y-94033513D01*
X152277940Y-94017668D01*
X151727336Y-93467065D01*
X151711487Y-93447753D01*
X151634439Y-93384521D01*
X151546535Y-93337535D01*
X151451153Y-93308602D01*
X151376814Y-93301280D01*
X151376806Y-93301280D01*
X151351960Y-93298833D01*
X151327114Y-93301280D01*
X142650934Y-93301280D01*
X142626080Y-93298832D01*
X142620015Y-93299429D01*
X142504338Y-93276420D01*
X142361742Y-93276420D01*
X142221886Y-93304239D01*
X142090145Y-93358808D01*
X141971580Y-93438030D01*
X141870750Y-93538860D01*
X141791528Y-93657425D01*
X141736959Y-93789166D01*
X141709140Y-93929022D01*
X141709140Y-93933043D01*
X141692410Y-93916313D01*
X141671161Y-93809486D01*
X141616592Y-93677745D01*
X141537370Y-93559180D01*
X141436540Y-93458350D01*
X141317975Y-93379128D01*
X141186234Y-93324559D01*
X141046378Y-93296740D01*
X140903782Y-93296740D01*
X140763926Y-93324559D01*
X140632185Y-93379128D01*
X140513620Y-93458350D01*
X140412790Y-93559180D01*
X140333568Y-93677745D01*
X140278999Y-93809486D01*
X140251180Y-93949342D01*
X140251180Y-94091938D01*
X140278999Y-94231794D01*
X140333568Y-94363535D01*
X140412790Y-94482100D01*
X140513620Y-94582930D01*
X140632185Y-94662152D01*
X140763926Y-94716721D01*
X140870753Y-94737970D01*
X143015360Y-96882579D01*
X143015361Y-98418261D01*
X142954848Y-98508825D01*
X142900279Y-98640566D01*
X142872460Y-98780422D01*
X142872460Y-98923018D01*
X142900279Y-99062874D01*
X142902246Y-99067622D01*
X142778082Y-99067622D01*
X142093890Y-98383430D01*
X142037236Y-98336936D01*
X140797280Y-97096980D01*
X140797280Y-95655944D01*
X140799737Y-95631000D01*
X140792732Y-95559880D01*
X140789929Y-95531415D01*
X140760881Y-95435657D01*
X140713709Y-95347405D01*
X140650228Y-95270052D01*
X140630845Y-95254145D01*
X139512975Y-94136275D01*
X139497068Y-94116892D01*
X139419715Y-94053411D01*
X139331463Y-94006239D01*
X139235705Y-93977191D01*
X139161067Y-93969840D01*
X139161064Y-93969840D01*
X139136120Y-93967383D01*
X139111176Y-93969840D01*
X136217790Y-93969840D01*
X136163500Y-93915550D01*
X136044935Y-93836328D01*
X135913194Y-93781759D01*
X135773338Y-93753940D01*
X135630742Y-93753940D01*
X135490886Y-93781759D01*
X135359145Y-93836328D01*
X135240580Y-93915550D01*
X135139750Y-94016380D01*
X135060528Y-94134945D01*
X135005959Y-94266686D01*
X134978140Y-94406542D01*
X134978140Y-94549138D01*
X135005959Y-94688994D01*
X135060528Y-94820735D01*
X135139750Y-94939300D01*
X135240580Y-95040130D01*
X135359145Y-95119352D01*
X135490886Y-95173921D01*
X135630742Y-95201740D01*
X135773338Y-95201740D01*
X135913194Y-95173921D01*
X136044935Y-95119352D01*
X136163500Y-95040130D01*
X136217790Y-94985840D01*
X138925700Y-94985840D01*
X139781280Y-95841420D01*
X139781281Y-97282446D01*
X139778823Y-97307400D01*
X139787754Y-97398074D01*
X139788632Y-97406985D01*
X139817680Y-97502743D01*
X139864851Y-97590995D01*
X139903883Y-97638555D01*
X139928333Y-97668348D01*
X139947710Y-97684250D01*
X141370109Y-99106650D01*
X141426773Y-99153153D01*
X142190807Y-99917187D01*
X142206714Y-99936570D01*
X142284067Y-100000051D01*
X142372319Y-100047223D01*
X142468077Y-100076271D01*
X142542715Y-100083622D01*
X142542718Y-100083622D01*
X142567662Y-100086079D01*
X142592606Y-100083622D01*
X144818554Y-100083622D01*
X144843498Y-100086079D01*
X144868442Y-100083622D01*
X144868445Y-100083622D01*
X144943083Y-100076271D01*
X145038841Y-100047223D01*
X145127093Y-100000051D01*
X145204446Y-99936570D01*
X145220353Y-99917187D01*
X145869260Y-99268280D01*
X150324622Y-99268280D01*
X150307860Y-99279480D01*
X150207030Y-99380310D01*
X150127808Y-99498875D01*
X150073239Y-99630616D01*
X150051990Y-99737443D01*
X150035778Y-99753655D01*
X150035772Y-99753660D01*
X148379273Y-101410160D01*
X148185258Y-101410160D01*
X148094695Y-101349648D01*
X147962954Y-101295079D01*
X147823098Y-101267260D01*
X147680502Y-101267260D01*
X147540646Y-101295079D01*
X147408905Y-101349648D01*
X147290340Y-101428870D01*
X147189510Y-101529700D01*
X147110288Y-101648265D01*
X147055719Y-101780006D01*
X147027900Y-101919862D01*
X147027900Y-102062458D01*
X147048439Y-102165713D01*
X146298376Y-101415651D01*
X146282527Y-101396339D01*
X146205479Y-101333107D01*
X146117575Y-101286121D01*
X146022193Y-101257188D01*
X145947854Y-101249866D01*
X145947846Y-101249866D01*
X145923000Y-101247419D01*
X145898154Y-101249866D01*
X138714178Y-101249866D01*
X137761980Y-100297669D01*
X137761980Y-100218062D01*
X137734161Y-100078206D01*
X137679592Y-99946465D01*
X137600370Y-99827900D01*
X137499540Y-99727070D01*
X137380975Y-99647848D01*
X137249234Y-99593279D01*
X137109378Y-99565460D01*
X136966782Y-99565460D01*
X136826926Y-99593279D01*
X136695185Y-99647848D01*
X136576620Y-99727070D01*
X136475790Y-99827900D01*
X136396568Y-99946465D01*
X136341999Y-100078206D01*
X136314180Y-100218062D01*
X136314180Y-100294839D01*
X134145420Y-102463600D01*
X130124340Y-102463600D01*
X130070050Y-102409310D01*
X129951485Y-102330088D01*
X129819744Y-102275519D01*
X129679888Y-102247700D01*
X129537292Y-102247700D01*
X129397436Y-102275519D01*
X129265695Y-102330088D01*
X129147130Y-102409310D01*
X129046300Y-102510140D01*
X128967078Y-102628705D01*
X128912509Y-102760446D01*
X128884690Y-102900302D01*
X128884690Y-103042898D01*
X128912509Y-103182754D01*
X128967078Y-103314495D01*
X129046300Y-103433060D01*
X129147130Y-103533890D01*
X129265695Y-103613112D01*
X129397436Y-103667681D01*
X129537292Y-103695500D01*
X129679888Y-103695500D01*
X129819744Y-103667681D01*
X129951485Y-103613112D01*
X130070050Y-103533890D01*
X130124340Y-103479600D01*
X134330896Y-103479600D01*
X134355840Y-103482057D01*
X134380784Y-103479600D01*
X134380787Y-103479600D01*
X134455425Y-103472249D01*
X134551183Y-103443201D01*
X134639435Y-103396029D01*
X134716788Y-103332548D01*
X134732695Y-103313165D01*
X137032601Y-101013260D01*
X137046389Y-101013260D01*
X138129214Y-102096086D01*
X138145059Y-102115393D01*
X138222107Y-102178625D01*
X138296932Y-102218620D01*
X138310011Y-102225611D01*
X138405393Y-102254544D01*
X138504586Y-102264314D01*
X138529440Y-102261866D01*
X145713409Y-102261866D01*
X146595722Y-103144180D01*
X146611567Y-103163487D01*
X146688615Y-103226719D01*
X146776519Y-103273705D01*
X146871901Y-103302638D01*
X146971094Y-103312408D01*
X146995948Y-103309960D01*
X148971554Y-103309960D01*
X148996400Y-103312407D01*
X149021246Y-103309960D01*
X149021254Y-103309960D01*
X149095593Y-103302638D01*
X149190975Y-103273705D01*
X149278879Y-103226719D01*
X149355927Y-103163487D01*
X149371776Y-103144175D01*
X151463068Y-101052884D01*
X151474008Y-101079295D01*
X151553230Y-101197860D01*
X151609520Y-101254150D01*
X151609521Y-103752607D01*
X149315129Y-106047000D01*
X131359952Y-106047000D01*
X129796540Y-104483589D01*
X129796540Y-104403982D01*
X129768721Y-104264126D01*
X129714152Y-104132385D01*
X129634930Y-104013820D01*
X129534100Y-103912990D01*
X129415535Y-103833768D01*
X129283794Y-103779199D01*
X129143938Y-103751380D01*
X129001342Y-103751380D01*
X128861486Y-103779199D01*
X128729745Y-103833768D01*
X128671320Y-103872806D01*
X128671320Y-101856140D01*
X129531980Y-100995480D01*
X132752970Y-100995480D01*
X132807260Y-101049770D01*
X132925825Y-101128992D01*
X133057566Y-101183561D01*
X133197422Y-101211380D01*
X133340018Y-101211380D01*
X133479874Y-101183561D01*
X133611615Y-101128992D01*
X133730180Y-101049770D01*
X133831010Y-100948940D01*
X133910232Y-100830375D01*
X133964801Y-100698634D01*
X133992620Y-100558778D01*
X133992620Y-100416182D01*
X133964801Y-100276326D01*
X133910232Y-100144585D01*
X133831010Y-100026020D01*
X133730180Y-99925190D01*
X133611615Y-99845968D01*
X133479874Y-99791399D01*
X133340018Y-99763580D01*
X133197422Y-99763580D01*
X133057566Y-99791399D01*
X132925825Y-99845968D01*
X132807260Y-99925190D01*
X132752970Y-99979480D01*
X132493429Y-99979480D01*
X132526220Y-99957570D01*
X132627050Y-99856740D01*
X132706272Y-99738175D01*
X132760841Y-99606434D01*
X132788660Y-99466578D01*
X132788660Y-99323982D01*
X132760841Y-99184126D01*
X132706272Y-99052385D01*
X132627050Y-98933820D01*
X132526220Y-98832990D01*
X132407655Y-98753768D01*
X132275914Y-98699199D01*
X132136058Y-98671380D01*
X131993462Y-98671380D01*
X131853606Y-98699199D01*
X131721865Y-98753768D01*
X131603300Y-98832990D01*
X131549010Y-98887280D01*
X127756463Y-98887280D01*
X127731519Y-98884823D01*
X127706575Y-98887280D01*
X127706573Y-98887280D01*
X127631935Y-98894631D01*
X127536177Y-98923679D01*
X127536175Y-98923680D01*
X127447924Y-98970851D01*
X127396085Y-99013394D01*
X127370572Y-99034332D01*
X127354670Y-99053709D01*
X126921086Y-99487293D01*
X126845989Y-99456187D01*
X126608163Y-99408880D01*
X126365677Y-99408880D01*
X126127851Y-99456187D01*
X125903823Y-99548982D01*
X125702203Y-99683700D01*
X125530740Y-99855163D01*
X125396022Y-100056783D01*
X125303227Y-100280811D01*
X125255920Y-100518637D01*
X123092900Y-100518637D01*
X123092900Y-97978637D01*
X125255920Y-97978637D01*
X125255920Y-98221123D01*
X125303227Y-98458949D01*
X125396022Y-98682977D01*
X125530740Y-98884597D01*
X125702203Y-99056060D01*
X125903823Y-99190778D01*
X126127851Y-99283573D01*
X126365677Y-99330880D01*
X126608163Y-99330880D01*
X126845989Y-99283573D01*
X127070017Y-99190778D01*
X127271637Y-99056060D01*
X127443100Y-98884597D01*
X127577818Y-98682977D01*
X127670613Y-98458949D01*
X127717920Y-98221123D01*
X127717920Y-97978637D01*
X127670613Y-97740811D01*
X127577818Y-97516783D01*
X127443100Y-97315163D01*
X127271637Y-97143700D01*
X127070017Y-97008982D01*
X126845989Y-96916187D01*
X126608163Y-96868880D01*
X126365677Y-96868880D01*
X126127851Y-96916187D01*
X125903823Y-97008982D01*
X125702203Y-97143700D01*
X125530740Y-97315163D01*
X125396022Y-97516783D01*
X125303227Y-97740811D01*
X125255920Y-97978637D01*
X123092900Y-97978637D01*
X123092900Y-95438637D01*
X125255920Y-95438637D01*
X125255920Y-95681123D01*
X125303227Y-95918949D01*
X125396022Y-96142977D01*
X125530740Y-96344597D01*
X125702203Y-96516060D01*
X125903823Y-96650778D01*
X126127851Y-96743573D01*
X126365677Y-96790880D01*
X126608163Y-96790880D01*
X126845989Y-96743573D01*
X127070017Y-96650778D01*
X127271637Y-96516060D01*
X127443100Y-96344597D01*
X127577818Y-96142977D01*
X127608924Y-96067880D01*
X128981656Y-96067880D01*
X129006600Y-96070337D01*
X129031544Y-96067880D01*
X129031547Y-96067880D01*
X129106185Y-96060529D01*
X129201943Y-96031481D01*
X129290195Y-95984309D01*
X129367548Y-95920828D01*
X129383455Y-95901445D01*
X130044130Y-95240771D01*
X130063508Y-95224868D01*
X130087420Y-95195731D01*
X130126989Y-95147516D01*
X130153159Y-95098555D01*
X130174161Y-95059263D01*
X130203209Y-94963505D01*
X130210560Y-94888867D01*
X130210560Y-94888865D01*
X130213017Y-94863921D01*
X130210560Y-94838977D01*
X130210560Y-92143710D01*
X130264850Y-92089420D01*
X130344072Y-91970855D01*
X130398641Y-91839114D01*
X130426460Y-91699258D01*
X130426460Y-91556662D01*
X130398641Y-91416806D01*
X130344072Y-91285065D01*
X130289693Y-91203680D01*
X143315240Y-91203680D01*
X143315240Y-91524960D01*
X143377918Y-91840065D01*
X143500866Y-92136888D01*
X143679359Y-92404022D01*
X143906538Y-92631201D01*
X144173672Y-92809694D01*
X144470495Y-92932642D01*
X144785600Y-92995320D01*
X145106880Y-92995320D01*
X145421985Y-92932642D01*
X145718808Y-92809694D01*
X145985942Y-92631201D01*
X146213121Y-92404022D01*
X146391614Y-92136888D01*
X146514562Y-91840065D01*
X146577240Y-91524960D01*
X146577240Y-91332795D01*
X146706355Y-91203680D01*
X155515240Y-91203680D01*
X155515240Y-91524960D01*
X155577918Y-91840065D01*
X155700866Y-92136888D01*
X155879359Y-92404022D01*
X156106538Y-92631201D01*
X156265241Y-92737242D01*
X156265241Y-94019520D01*
X156260978Y-94062800D01*
X156274844Y-94203573D01*
X156277989Y-94235506D01*
X156290584Y-94277025D01*
X156328365Y-94401574D01*
X156410172Y-94554625D01*
X156437246Y-94587614D01*
X156520266Y-94688775D01*
X156553880Y-94716361D01*
X157872919Y-96035401D01*
X157900505Y-96069015D01*
X157934117Y-96096599D01*
X158034654Y-96179108D01*
X158087966Y-96207603D01*
X158187705Y-96260915D01*
X158353774Y-96311292D01*
X158483207Y-96324040D01*
X158483209Y-96324040D01*
X158526479Y-96328302D01*
X158569749Y-96324040D01*
X158768535Y-96324040D01*
X158804877Y-96360382D01*
X158998307Y-96489628D01*
X159213235Y-96578654D01*
X159441402Y-96624040D01*
X159674038Y-96624040D01*
X159902205Y-96578654D01*
X160117133Y-96489628D01*
X160310563Y-96360382D01*
X160475062Y-96195883D01*
X160604308Y-96002453D01*
X160693334Y-95787525D01*
X160738720Y-95559358D01*
X160738720Y-95433557D01*
X166312480Y-95433557D01*
X166312480Y-95676043D01*
X166359787Y-95913869D01*
X166452582Y-96137897D01*
X166587300Y-96339517D01*
X166758763Y-96510980D01*
X166960383Y-96645698D01*
X167184411Y-96738493D01*
X167422237Y-96785800D01*
X167664723Y-96785800D01*
X167902549Y-96738493D01*
X168126577Y-96645698D01*
X168328197Y-96510980D01*
X168499660Y-96339517D01*
X168634378Y-96137897D01*
X168727173Y-95913869D01*
X168774480Y-95676043D01*
X168774480Y-95433557D01*
X168727173Y-95195731D01*
X168634378Y-94971703D01*
X168499660Y-94770083D01*
X168328197Y-94598620D01*
X168126577Y-94463902D01*
X167902549Y-94371107D01*
X167664723Y-94323800D01*
X167422237Y-94323800D01*
X167184411Y-94371107D01*
X166960383Y-94463902D01*
X166758763Y-94598620D01*
X166587300Y-94770083D01*
X166452582Y-94971703D01*
X166359787Y-95195731D01*
X166312480Y-95433557D01*
X160738720Y-95433557D01*
X160738720Y-95326722D01*
X160693334Y-95098555D01*
X160604308Y-94883627D01*
X160475062Y-94690197D01*
X160310563Y-94525698D01*
X160117133Y-94396452D01*
X159902205Y-94307426D01*
X159674038Y-94262040D01*
X159441402Y-94262040D01*
X159213235Y-94307426D01*
X158998307Y-94396452D01*
X158834959Y-94505598D01*
X158027240Y-93697879D01*
X158027240Y-92893557D01*
X166312480Y-92893557D01*
X166312480Y-93136043D01*
X166359787Y-93373869D01*
X166452582Y-93597897D01*
X166587300Y-93799517D01*
X166758763Y-93970980D01*
X166960383Y-94105698D01*
X167184411Y-94198493D01*
X167422237Y-94245800D01*
X167664723Y-94245800D01*
X167902549Y-94198493D01*
X168126577Y-94105698D01*
X168328197Y-93970980D01*
X168499660Y-93799517D01*
X168634378Y-93597897D01*
X168727173Y-93373869D01*
X168774480Y-93136043D01*
X168774480Y-92893557D01*
X168727173Y-92655731D01*
X168634378Y-92431703D01*
X168499660Y-92230083D01*
X168328197Y-92058620D01*
X168126577Y-91923902D01*
X167902549Y-91831107D01*
X167664723Y-91783800D01*
X167422237Y-91783800D01*
X167184411Y-91831107D01*
X166960383Y-91923902D01*
X166758763Y-92058620D01*
X166587300Y-92230083D01*
X166452582Y-92431703D01*
X166359787Y-92655731D01*
X166312480Y-92893557D01*
X158027240Y-92893557D01*
X158027240Y-92737242D01*
X158185942Y-92631201D01*
X158413121Y-92404022D01*
X158519162Y-92245320D01*
X161678010Y-92245320D01*
X161721280Y-92249582D01*
X161764550Y-92245320D01*
X161764553Y-92245320D01*
X161893986Y-92232572D01*
X162060055Y-92182195D01*
X162213105Y-92100388D01*
X162347255Y-91990295D01*
X162374846Y-91956675D01*
X163977964Y-90353557D01*
X166312480Y-90353557D01*
X166312480Y-90596043D01*
X166359787Y-90833869D01*
X166452582Y-91057897D01*
X166587300Y-91259517D01*
X166758763Y-91430980D01*
X166960383Y-91565698D01*
X167184411Y-91658493D01*
X167422237Y-91705800D01*
X167664723Y-91705800D01*
X167902549Y-91658493D01*
X168126577Y-91565698D01*
X168328197Y-91430980D01*
X168499660Y-91259517D01*
X168634378Y-91057897D01*
X168727173Y-90833869D01*
X168774480Y-90596043D01*
X168774480Y-90353557D01*
X168727173Y-90115731D01*
X168634378Y-89891703D01*
X168499660Y-89690083D01*
X168328197Y-89518620D01*
X168126577Y-89383902D01*
X167902549Y-89291107D01*
X167664723Y-89243800D01*
X167422237Y-89243800D01*
X167184411Y-89291107D01*
X166960383Y-89383902D01*
X166758763Y-89518620D01*
X166587300Y-89690083D01*
X166452582Y-89891703D01*
X166359787Y-90115731D01*
X166312480Y-90353557D01*
X163977964Y-90353557D01*
X165047201Y-89284321D01*
X165080815Y-89256735D01*
X165180370Y-89135426D01*
X165190908Y-89122586D01*
X165272715Y-88969535D01*
X165273802Y-88965953D01*
X165323092Y-88803466D01*
X165335840Y-88674033D01*
X165335840Y-88674030D01*
X165340102Y-88630760D01*
X165335840Y-88587490D01*
X165335840Y-87813557D01*
X166312480Y-87813557D01*
X166312480Y-88056043D01*
X166359787Y-88293869D01*
X166452582Y-88517897D01*
X166587300Y-88719517D01*
X166758763Y-88890980D01*
X166960383Y-89025698D01*
X167184411Y-89118493D01*
X167422237Y-89165800D01*
X167664723Y-89165800D01*
X167902549Y-89118493D01*
X168126577Y-89025698D01*
X168328197Y-88890980D01*
X168499660Y-88719517D01*
X168634378Y-88517897D01*
X168727173Y-88293869D01*
X168774480Y-88056043D01*
X168774480Y-87813557D01*
X168727173Y-87575731D01*
X168634378Y-87351703D01*
X168499660Y-87150083D01*
X168328197Y-86978620D01*
X168126577Y-86843902D01*
X167902549Y-86751107D01*
X167664723Y-86703800D01*
X167422237Y-86703800D01*
X167184411Y-86751107D01*
X166960383Y-86843902D01*
X166758763Y-86978620D01*
X166587300Y-87150083D01*
X166452582Y-87351703D01*
X166359787Y-87575731D01*
X166312480Y-87813557D01*
X165335840Y-87813557D01*
X165335840Y-85273557D01*
X166312480Y-85273557D01*
X166312480Y-85516043D01*
X166359787Y-85753869D01*
X166452582Y-85977897D01*
X166587300Y-86179517D01*
X166758763Y-86350980D01*
X166960383Y-86485698D01*
X167184411Y-86578493D01*
X167422237Y-86625800D01*
X167664723Y-86625800D01*
X167902549Y-86578493D01*
X168126577Y-86485698D01*
X168328197Y-86350980D01*
X168499660Y-86179517D01*
X168634378Y-85977897D01*
X168727173Y-85753869D01*
X168774480Y-85516043D01*
X168774480Y-85273557D01*
X168727173Y-85035731D01*
X168634378Y-84811703D01*
X168499660Y-84610083D01*
X168328197Y-84438620D01*
X168126577Y-84303902D01*
X167902549Y-84211107D01*
X167664723Y-84163800D01*
X167422237Y-84163800D01*
X167184411Y-84211107D01*
X166960383Y-84303902D01*
X166758763Y-84438620D01*
X166587300Y-84610083D01*
X166452582Y-84811703D01*
X166359787Y-85035731D01*
X166312480Y-85273557D01*
X165335840Y-85273557D01*
X165335840Y-80671690D01*
X166102004Y-80671690D01*
X166146655Y-80818899D01*
X166271839Y-81081720D01*
X166445892Y-81315069D01*
X166662125Y-81509978D01*
X166912228Y-81658957D01*
X167074648Y-81716572D01*
X166960383Y-81763902D01*
X166758763Y-81898620D01*
X166587300Y-82070083D01*
X166452582Y-82271703D01*
X166359787Y-82495731D01*
X166312480Y-82733557D01*
X166312480Y-82976043D01*
X166359787Y-83213869D01*
X166452582Y-83437897D01*
X166587300Y-83639517D01*
X166758763Y-83810980D01*
X166960383Y-83945698D01*
X167184411Y-84038493D01*
X167422237Y-84085800D01*
X167664723Y-84085800D01*
X167902549Y-84038493D01*
X168126577Y-83945698D01*
X168328197Y-83810980D01*
X168499660Y-83639517D01*
X168634378Y-83437897D01*
X168727173Y-83213869D01*
X168774480Y-82976043D01*
X168774480Y-82733557D01*
X168727173Y-82495731D01*
X168634378Y-82271703D01*
X168499660Y-82070083D01*
X168328197Y-81898620D01*
X168126577Y-81763902D01*
X168012312Y-81716572D01*
X168174732Y-81658957D01*
X168424835Y-81509978D01*
X168641068Y-81315069D01*
X168815121Y-81081720D01*
X168940305Y-80818899D01*
X168984956Y-80671690D01*
X168863635Y-80441800D01*
X167670480Y-80441800D01*
X167670480Y-80461800D01*
X167416480Y-80461800D01*
X167416480Y-80441800D01*
X166223325Y-80441800D01*
X166102004Y-80671690D01*
X165335840Y-80671690D01*
X165335840Y-79378361D01*
X166058402Y-78655800D01*
X166313690Y-78655800D01*
X166317993Y-78699489D01*
X166339779Y-78771308D01*
X166375158Y-78837496D01*
X166422769Y-78895511D01*
X166480784Y-78943122D01*
X166546972Y-78978501D01*
X166618791Y-79000287D01*
X166693480Y-79007643D01*
X166850113Y-79007643D01*
X166662125Y-79119622D01*
X166445892Y-79314531D01*
X166271839Y-79547880D01*
X166146655Y-79810701D01*
X166102004Y-79957910D01*
X166223325Y-80187800D01*
X167416480Y-80187800D01*
X167416480Y-80167800D01*
X167670480Y-80167800D01*
X167670480Y-80187800D01*
X168863635Y-80187800D01*
X168984956Y-79957910D01*
X168940305Y-79810701D01*
X168815121Y-79547880D01*
X168641068Y-79314531D01*
X168424835Y-79119622D01*
X168236847Y-79007643D01*
X168393480Y-79007643D01*
X168468169Y-79000287D01*
X168539988Y-78978501D01*
X168606176Y-78943122D01*
X168664191Y-78895511D01*
X168711802Y-78837496D01*
X168747181Y-78771308D01*
X168768967Y-78699489D01*
X168776323Y-78624800D01*
X168776323Y-76924800D01*
X168768967Y-76850111D01*
X168747181Y-76778292D01*
X168711802Y-76712104D01*
X168664191Y-76654089D01*
X168606176Y-76606478D01*
X168539988Y-76571099D01*
X168468169Y-76549313D01*
X168393480Y-76541957D01*
X166693480Y-76541957D01*
X166618791Y-76549313D01*
X166546972Y-76571099D01*
X166480784Y-76606478D01*
X166422769Y-76654089D01*
X166375158Y-76712104D01*
X166339779Y-76778292D01*
X166317993Y-76850111D01*
X166313690Y-76893800D01*
X165736742Y-76893800D01*
X165693479Y-76889539D01*
X165650216Y-76893800D01*
X165650207Y-76893800D01*
X165520774Y-76906548D01*
X165354705Y-76956925D01*
X165327037Y-76971714D01*
X165201654Y-77038732D01*
X165133502Y-77094663D01*
X165067505Y-77148825D01*
X165039919Y-77182439D01*
X163862484Y-78359874D01*
X163828865Y-78387465D01*
X163755861Y-78476423D01*
X163718772Y-78521615D01*
X163653863Y-78643052D01*
X163636965Y-78674666D01*
X163586588Y-78840735D01*
X163573840Y-78970167D01*
X163569578Y-79013440D01*
X163573840Y-79056710D01*
X163573841Y-88265837D01*
X161356359Y-90483320D01*
X158519162Y-90483320D01*
X158413121Y-90324618D01*
X158185942Y-90097439D01*
X157918808Y-89918946D01*
X157621985Y-89795998D01*
X157306880Y-89733320D01*
X156985600Y-89733320D01*
X156670495Y-89795998D01*
X156373672Y-89918946D01*
X156106538Y-90097439D01*
X155879359Y-90324618D01*
X155700866Y-90591752D01*
X155577918Y-90888575D01*
X155515240Y-91203680D01*
X146706355Y-91203680D01*
X149010455Y-88899581D01*
X149053607Y-88864167D01*
X149194942Y-88691950D01*
X149299963Y-88495469D01*
X149364635Y-88282275D01*
X149381000Y-88116118D01*
X149381000Y-88116109D01*
X149386471Y-88060561D01*
X149381000Y-88005013D01*
X149381000Y-81718475D01*
X153218476Y-77881000D01*
X156465282Y-77881000D01*
X156373672Y-77918946D01*
X156106538Y-78097439D01*
X155879359Y-78324618D01*
X155700866Y-78591752D01*
X155577918Y-78888575D01*
X155515240Y-79203680D01*
X155515240Y-79524960D01*
X155577918Y-79840065D01*
X155700866Y-80136888D01*
X155879359Y-80404022D01*
X156106538Y-80631201D01*
X156373672Y-80809694D01*
X156641423Y-80920600D01*
X154391174Y-80920600D01*
X154375000Y-80919007D01*
X154358826Y-80920600D01*
X154310426Y-80925367D01*
X154248334Y-80944202D01*
X154191110Y-80974789D01*
X154140953Y-81015953D01*
X154099789Y-81066110D01*
X154069202Y-81123334D01*
X154050367Y-81185426D01*
X154044007Y-81250000D01*
X154045601Y-81266184D01*
X154045600Y-89183826D01*
X154044007Y-89200000D01*
X154050367Y-89264574D01*
X154069202Y-89326666D01*
X154099789Y-89383890D01*
X154140953Y-89434047D01*
X154191110Y-89475211D01*
X154248334Y-89505798D01*
X154310426Y-89524633D01*
X154375000Y-89530993D01*
X154391174Y-89529400D01*
X160733826Y-89529400D01*
X160750000Y-89530993D01*
X160814574Y-89524633D01*
X160876666Y-89505798D01*
X160933890Y-89475211D01*
X160984047Y-89434047D01*
X161025211Y-89383890D01*
X161055798Y-89326666D01*
X161074633Y-89264574D01*
X161079400Y-89216174D01*
X161079400Y-89216173D01*
X161080993Y-89200000D01*
X161079400Y-89183826D01*
X161079400Y-87766174D01*
X161080993Y-87750000D01*
X161074633Y-87685426D01*
X161055798Y-87623334D01*
X161025211Y-87566110D01*
X160984047Y-87515953D01*
X160933890Y-87474789D01*
X160876666Y-87444202D01*
X160814574Y-87425367D01*
X160766174Y-87420600D01*
X160750000Y-87419007D01*
X160733826Y-87420600D01*
X155979400Y-87420600D01*
X155979400Y-84114320D01*
X157513397Y-84114320D01*
X157513397Y-86614320D01*
X157520753Y-86689009D01*
X157542539Y-86760828D01*
X157577918Y-86827016D01*
X157625529Y-86885031D01*
X157683544Y-86932642D01*
X157749732Y-86968021D01*
X157821551Y-86989807D01*
X157896240Y-86997163D01*
X160396240Y-86997163D01*
X160470929Y-86989807D01*
X160542748Y-86968021D01*
X160608936Y-86932642D01*
X160666951Y-86885031D01*
X160714562Y-86827016D01*
X160749941Y-86760828D01*
X160771727Y-86689009D01*
X160779083Y-86614320D01*
X160779083Y-84114320D01*
X160771727Y-84039631D01*
X160749941Y-83967812D01*
X160714562Y-83901624D01*
X160666951Y-83843609D01*
X160608936Y-83795998D01*
X160542748Y-83760619D01*
X160470929Y-83738833D01*
X160396240Y-83731477D01*
X157896240Y-83731477D01*
X157821551Y-83738833D01*
X157749732Y-83760619D01*
X157683544Y-83795998D01*
X157625529Y-83843609D01*
X157577918Y-83901624D01*
X157542539Y-83967812D01*
X157520753Y-84039631D01*
X157513397Y-84114320D01*
X155979400Y-84114320D01*
X155979400Y-83079400D01*
X160733826Y-83079400D01*
X160750000Y-83080993D01*
X160814574Y-83074633D01*
X160876666Y-83055798D01*
X160933890Y-83025211D01*
X160984047Y-82984047D01*
X161025211Y-82933890D01*
X161055798Y-82876666D01*
X161074633Y-82814574D01*
X161079400Y-82766174D01*
X161080993Y-82750000D01*
X161079400Y-82733826D01*
X161079400Y-81266174D01*
X161080993Y-81250000D01*
X161074633Y-81185426D01*
X161055798Y-81123334D01*
X161025211Y-81066110D01*
X160984047Y-81015953D01*
X160933890Y-80974789D01*
X160876666Y-80944202D01*
X160814574Y-80925367D01*
X160766174Y-80920600D01*
X160750000Y-80919007D01*
X160733826Y-80920600D01*
X157651057Y-80920600D01*
X157918808Y-80809694D01*
X158185942Y-80631201D01*
X158413121Y-80404022D01*
X158591614Y-80136888D01*
X158714562Y-79840065D01*
X158777240Y-79524960D01*
X158777240Y-79203680D01*
X158714562Y-78888575D01*
X158591614Y-78591752D01*
X158413121Y-78324618D01*
X158185942Y-78097439D01*
X157918808Y-77918946D01*
X157827198Y-77881000D01*
X159444450Y-77881000D01*
X159500000Y-77886471D01*
X159555550Y-77881000D01*
X159555558Y-77881000D01*
X159721715Y-77864635D01*
X159934909Y-77799963D01*
X160131390Y-77694942D01*
X160303607Y-77553607D01*
X160339025Y-77510450D01*
X161170456Y-76679020D01*
X161213608Y-76643606D01*
X161286824Y-76554393D01*
X161354943Y-76471389D01*
X161459964Y-76274908D01*
X161524636Y-76061714D01*
X161546473Y-75839999D01*
X161541001Y-75784441D01*
X161541001Y-74029134D01*
X161621068Y-73949067D01*
X161826920Y-73640987D01*
X161968714Y-73298667D01*
X162041000Y-72935262D01*
X162041000Y-72564738D01*
X161989313Y-72304889D01*
X165519000Y-72304889D01*
X165519000Y-72695111D01*
X165595129Y-73077836D01*
X165744461Y-73438355D01*
X165961257Y-73762814D01*
X166237186Y-74038743D01*
X166561645Y-74255539D01*
X166922164Y-74404871D01*
X167304889Y-74481000D01*
X167695111Y-74481000D01*
X168077836Y-74404871D01*
X168438355Y-74255539D01*
X168762814Y-74038743D01*
X169038743Y-73762814D01*
X169255539Y-73438355D01*
X169404871Y-73077836D01*
X169481000Y-72695111D01*
X169481000Y-72304889D01*
X169404871Y-71922164D01*
X169255539Y-71561645D01*
X169038743Y-71237186D01*
X168762814Y-70961257D01*
X168438355Y-70744461D01*
X168077836Y-70595129D01*
X167695111Y-70519000D01*
X167304889Y-70519000D01*
X166922164Y-70595129D01*
X166561645Y-70744461D01*
X166237186Y-70961257D01*
X165961257Y-71237186D01*
X165744461Y-71561645D01*
X165595129Y-71922164D01*
X165519000Y-72304889D01*
X161989313Y-72304889D01*
X161968714Y-72201333D01*
X161826920Y-71859013D01*
X161621068Y-71550933D01*
X161359067Y-71288932D01*
X161050987Y-71083080D01*
X160708667Y-70941286D01*
X160345262Y-70869000D01*
X159974738Y-70869000D01*
X159611333Y-70941286D01*
X159269013Y-71083080D01*
X158960933Y-71288932D01*
X158698932Y-71550933D01*
X158493080Y-71859013D01*
X158351286Y-72201333D01*
X158279000Y-72564738D01*
X158279000Y-72935262D01*
X158351286Y-73298667D01*
X158493080Y-73640987D01*
X158698932Y-73949067D01*
X158960933Y-74211068D01*
X159269013Y-74416920D01*
X159279002Y-74421057D01*
X159279002Y-75371523D01*
X159031525Y-75619000D01*
X152805550Y-75619000D01*
X152749999Y-75613529D01*
X152694449Y-75619000D01*
X152694442Y-75619000D01*
X152528285Y-75635365D01*
X152315091Y-75700037D01*
X152118610Y-75805058D01*
X152008337Y-75895557D01*
X151946393Y-75946393D01*
X151910979Y-75989545D01*
X147489550Y-80410975D01*
X147446393Y-80446393D01*
X147305058Y-80618610D01*
X147200037Y-80815092D01*
X147135365Y-81028286D01*
X147119000Y-81194443D01*
X147119000Y-81194450D01*
X147113529Y-81250000D01*
X147119000Y-81305551D01*
X147119001Y-87592083D01*
X144977765Y-89733320D01*
X144785600Y-89733320D01*
X144470495Y-89795998D01*
X144173672Y-89918946D01*
X143906538Y-90097439D01*
X143679359Y-90324618D01*
X143500866Y-90591752D01*
X143377918Y-90888575D01*
X143315240Y-91203680D01*
X130289693Y-91203680D01*
X130264850Y-91166500D01*
X130164020Y-91065670D01*
X130045455Y-90986448D01*
X129913714Y-90931879D01*
X129773858Y-90904060D01*
X129631262Y-90904060D01*
X129491406Y-90931879D01*
X129359665Y-90986448D01*
X129241100Y-91065670D01*
X129140270Y-91166500D01*
X129061048Y-91285065D01*
X129006479Y-91416806D01*
X128978660Y-91556662D01*
X128978660Y-91699258D01*
X129006479Y-91839114D01*
X129061048Y-91970855D01*
X129140270Y-92089420D01*
X129194560Y-92143710D01*
X129194561Y-94653498D01*
X128796180Y-95051880D01*
X127608924Y-95051880D01*
X127577818Y-94976783D01*
X127443100Y-94775163D01*
X127271637Y-94603700D01*
X127070017Y-94468982D01*
X126845989Y-94376187D01*
X126608163Y-94328880D01*
X126365677Y-94328880D01*
X126127851Y-94376187D01*
X125903823Y-94468982D01*
X125702203Y-94603700D01*
X125530740Y-94775163D01*
X125396022Y-94976783D01*
X125303227Y-95200811D01*
X125255920Y-95438637D01*
X123092900Y-95438637D01*
X123092900Y-92898637D01*
X125255920Y-92898637D01*
X125255920Y-93141123D01*
X125303227Y-93378949D01*
X125396022Y-93602977D01*
X125530740Y-93804597D01*
X125702203Y-93976060D01*
X125903823Y-94110778D01*
X126127851Y-94203573D01*
X126365677Y-94250880D01*
X126608163Y-94250880D01*
X126845989Y-94203573D01*
X127070017Y-94110778D01*
X127271637Y-93976060D01*
X127443100Y-93804597D01*
X127577818Y-93602977D01*
X127670613Y-93378949D01*
X127717920Y-93141123D01*
X127717920Y-92898637D01*
X127670613Y-92660811D01*
X127577818Y-92436783D01*
X127443100Y-92235163D01*
X127271637Y-92063700D01*
X127070017Y-91928982D01*
X126845989Y-91836187D01*
X126608163Y-91788880D01*
X126365677Y-91788880D01*
X126127851Y-91836187D01*
X125903823Y-91928982D01*
X125702203Y-92063700D01*
X125530740Y-92235163D01*
X125396022Y-92436783D01*
X125303227Y-92660811D01*
X125255920Y-92898637D01*
X123092900Y-92898637D01*
X123092900Y-90358637D01*
X125255920Y-90358637D01*
X125255920Y-90601123D01*
X125303227Y-90838949D01*
X125396022Y-91062977D01*
X125530740Y-91264597D01*
X125702203Y-91436060D01*
X125903823Y-91570778D01*
X126127851Y-91663573D01*
X126365677Y-91710880D01*
X126608163Y-91710880D01*
X126845989Y-91663573D01*
X127070017Y-91570778D01*
X127271637Y-91436060D01*
X127443100Y-91264597D01*
X127577818Y-91062977D01*
X127670613Y-90838949D01*
X127717920Y-90601123D01*
X127717920Y-90358637D01*
X127670613Y-90120811D01*
X127577818Y-89896783D01*
X127443100Y-89695163D01*
X127271637Y-89523700D01*
X127070017Y-89388982D01*
X126845989Y-89296187D01*
X126608163Y-89248880D01*
X126365677Y-89248880D01*
X126127851Y-89296187D01*
X125903823Y-89388982D01*
X125702203Y-89523700D01*
X125530740Y-89695163D01*
X125396022Y-89896783D01*
X125303227Y-90120811D01*
X125255920Y-90358637D01*
X123092900Y-90358637D01*
X123092900Y-85756770D01*
X125045444Y-85756770D01*
X125090095Y-85903979D01*
X125215279Y-86166800D01*
X125389332Y-86400149D01*
X125605565Y-86595058D01*
X125855668Y-86744037D01*
X126018088Y-86801652D01*
X125903823Y-86848982D01*
X125702203Y-86983700D01*
X125530740Y-87155163D01*
X125396022Y-87356783D01*
X125303227Y-87580811D01*
X125255920Y-87818637D01*
X125255920Y-88061123D01*
X125303227Y-88298949D01*
X125396022Y-88522977D01*
X125530740Y-88724597D01*
X125702203Y-88896060D01*
X125903823Y-89030778D01*
X126127851Y-89123573D01*
X126365677Y-89170880D01*
X126608163Y-89170880D01*
X126845989Y-89123573D01*
X127070017Y-89030778D01*
X127271637Y-88896060D01*
X127443100Y-88724597D01*
X127577818Y-88522977D01*
X127670613Y-88298949D01*
X127717920Y-88061123D01*
X127717920Y-87818637D01*
X127670613Y-87580811D01*
X127577818Y-87356783D01*
X127443100Y-87155163D01*
X127271637Y-86983700D01*
X127070017Y-86848982D01*
X126955752Y-86801652D01*
X127118172Y-86744037D01*
X127368275Y-86595058D01*
X127584508Y-86400149D01*
X127758561Y-86166800D01*
X127883745Y-85903979D01*
X127928396Y-85756770D01*
X127807075Y-85526880D01*
X126613920Y-85526880D01*
X126613920Y-85546880D01*
X126359920Y-85546880D01*
X126359920Y-85526880D01*
X125166765Y-85526880D01*
X125045444Y-85756770D01*
X123092900Y-85756770D01*
X123092900Y-85042990D01*
X125045444Y-85042990D01*
X125166765Y-85272880D01*
X126359920Y-85272880D01*
X126359920Y-85252880D01*
X126613920Y-85252880D01*
X126613920Y-85272880D01*
X127807075Y-85272880D01*
X127928396Y-85042990D01*
X127883745Y-84895781D01*
X127758561Y-84632960D01*
X127584508Y-84399611D01*
X127368275Y-84204702D01*
X127118172Y-84055723D01*
X126955752Y-83998108D01*
X127070017Y-83950778D01*
X127271637Y-83816060D01*
X127443100Y-83644597D01*
X127577818Y-83442977D01*
X127670613Y-83218949D01*
X127717920Y-82981123D01*
X127717920Y-82738637D01*
X127670613Y-82500811D01*
X127577818Y-82276783D01*
X127443100Y-82075163D01*
X127271637Y-81903700D01*
X127070017Y-81768982D01*
X126845989Y-81676187D01*
X126608163Y-81628880D01*
X126365677Y-81628880D01*
X126127851Y-81676187D01*
X125903823Y-81768982D01*
X125702203Y-81903700D01*
X125530740Y-82075163D01*
X125396022Y-82276783D01*
X125303227Y-82500811D01*
X125255920Y-82738637D01*
X125255920Y-82981123D01*
X125303227Y-83218949D01*
X125396022Y-83442977D01*
X125530740Y-83644597D01*
X125702203Y-83816060D01*
X125903823Y-83950778D01*
X126018088Y-83998108D01*
X125855668Y-84055723D01*
X125605565Y-84204702D01*
X125389332Y-84399611D01*
X125215279Y-84632960D01*
X125090095Y-84895781D01*
X125045444Y-85042990D01*
X123092900Y-85042990D01*
X123092900Y-80198637D01*
X125255920Y-80198637D01*
X125255920Y-80441123D01*
X125303227Y-80678949D01*
X125396022Y-80902977D01*
X125530740Y-81104597D01*
X125702203Y-81276060D01*
X125903823Y-81410778D01*
X126127851Y-81503573D01*
X126365677Y-81550880D01*
X126608163Y-81550880D01*
X126845989Y-81503573D01*
X127070017Y-81410778D01*
X127271637Y-81276060D01*
X127443100Y-81104597D01*
X127577818Y-80902977D01*
X127670613Y-80678949D01*
X127717920Y-80441123D01*
X127717920Y-80198637D01*
X127670613Y-79960811D01*
X127577818Y-79736783D01*
X127443100Y-79535163D01*
X127271637Y-79363700D01*
X127070017Y-79228982D01*
X127008933Y-79203680D01*
X143315240Y-79203680D01*
X143315240Y-79524960D01*
X143377918Y-79840065D01*
X143500866Y-80136888D01*
X143679359Y-80404022D01*
X143906538Y-80631201D01*
X144173672Y-80809694D01*
X144470495Y-80932642D01*
X144594374Y-80957283D01*
X144600533Y-80964788D01*
X144677886Y-81028269D01*
X144766138Y-81075441D01*
X144861896Y-81104489D01*
X144961480Y-81114297D01*
X145061065Y-81104489D01*
X145156823Y-81075441D01*
X145245075Y-81028269D01*
X145322428Y-80964788D01*
X145334534Y-80950037D01*
X145421985Y-80932642D01*
X145718808Y-80809694D01*
X145985942Y-80631201D01*
X146213121Y-80404022D01*
X146391614Y-80136888D01*
X146514562Y-79840065D01*
X146577240Y-79524960D01*
X146577240Y-79203680D01*
X146514562Y-78888575D01*
X146391614Y-78591752D01*
X146213121Y-78324618D01*
X145985942Y-78097439D01*
X145718808Y-77918946D01*
X145421985Y-77795998D01*
X145106880Y-77733320D01*
X144785600Y-77733320D01*
X144470495Y-77795998D01*
X144173672Y-77918946D01*
X143906538Y-78097439D01*
X143679359Y-78324618D01*
X143500866Y-78591752D01*
X143377918Y-78888575D01*
X143315240Y-79203680D01*
X127008933Y-79203680D01*
X126845989Y-79136187D01*
X126608163Y-79088880D01*
X126365677Y-79088880D01*
X126127851Y-79136187D01*
X125903823Y-79228982D01*
X125702203Y-79363700D01*
X125530740Y-79535163D01*
X125396022Y-79736783D01*
X125303227Y-79960811D01*
X125255920Y-80198637D01*
X123092900Y-80198637D01*
X123092900Y-76929880D01*
X125254077Y-76929880D01*
X125254077Y-78629880D01*
X125261433Y-78704569D01*
X125283219Y-78776388D01*
X125318598Y-78842576D01*
X125366209Y-78900591D01*
X125424224Y-78948202D01*
X125490412Y-78983581D01*
X125562231Y-79005367D01*
X125636920Y-79012723D01*
X127336920Y-79012723D01*
X127411609Y-79005367D01*
X127483428Y-78983581D01*
X127549616Y-78948202D01*
X127607631Y-78900591D01*
X127655242Y-78842576D01*
X127690621Y-78776388D01*
X127712407Y-78704569D01*
X127719763Y-78629880D01*
X127719763Y-76929880D01*
X127712407Y-76855191D01*
X127690621Y-76783372D01*
X127655242Y-76717184D01*
X127607631Y-76659169D01*
X127549616Y-76611558D01*
X127483428Y-76576179D01*
X127411609Y-76554393D01*
X127336920Y-76547037D01*
X125636920Y-76547037D01*
X125562231Y-76554393D01*
X125490412Y-76576179D01*
X125424224Y-76611558D01*
X125366209Y-76659169D01*
X125318598Y-76717184D01*
X125283219Y-76783372D01*
X125261433Y-76855191D01*
X125254077Y-76929880D01*
X123092900Y-76929880D01*
X123092900Y-72304889D01*
X124519000Y-72304889D01*
X124519000Y-72695111D01*
X124595129Y-73077836D01*
X124744461Y-73438355D01*
X124961257Y-73762814D01*
X125237186Y-74038743D01*
X125561645Y-74255539D01*
X125922164Y-74404871D01*
X126304889Y-74481000D01*
X126695111Y-74481000D01*
X127077836Y-74404871D01*
X127438355Y-74255539D01*
X127762814Y-74038743D01*
X128038743Y-73762814D01*
X128255539Y-73438355D01*
X128404871Y-73077836D01*
X128481000Y-72695111D01*
X128481000Y-72661938D01*
X132289000Y-72661938D01*
X132289000Y-73032462D01*
X132361286Y-73395867D01*
X132503080Y-73738187D01*
X132708932Y-74046267D01*
X132970933Y-74308268D01*
X133279013Y-74514120D01*
X133621333Y-74655914D01*
X133984738Y-74728200D01*
X134355262Y-74728200D01*
X134718667Y-74655914D01*
X135060987Y-74514120D01*
X135369067Y-74308268D01*
X135631068Y-74046267D01*
X135836920Y-73738187D01*
X135978714Y-73395867D01*
X136051000Y-73032462D01*
X136051000Y-72661938D01*
X135978714Y-72298533D01*
X135836920Y-71956213D01*
X135631068Y-71648133D01*
X135369067Y-71386132D01*
X135310802Y-71347200D01*
X137367157Y-71347200D01*
X137367157Y-74347200D01*
X137374513Y-74421889D01*
X137396299Y-74493708D01*
X137431678Y-74559896D01*
X137479289Y-74617911D01*
X137537304Y-74665522D01*
X137603492Y-74700901D01*
X137675311Y-74722687D01*
X137750000Y-74730043D01*
X140750000Y-74730043D01*
X140824689Y-74722687D01*
X140896508Y-74700901D01*
X140962696Y-74665522D01*
X141020711Y-74617911D01*
X141068322Y-74559896D01*
X141103701Y-74493708D01*
X141125487Y-74421889D01*
X141132843Y-74347200D01*
X141132843Y-71347200D01*
X141125487Y-71272511D01*
X141118659Y-71250000D01*
X148117157Y-71250000D01*
X148117157Y-74250000D01*
X148124513Y-74324689D01*
X148146299Y-74396508D01*
X148181678Y-74462696D01*
X148229289Y-74520711D01*
X148287304Y-74568322D01*
X148353492Y-74603701D01*
X148425311Y-74625487D01*
X148500000Y-74632843D01*
X151500000Y-74632843D01*
X151574689Y-74625487D01*
X151646508Y-74603701D01*
X151712696Y-74568322D01*
X151770711Y-74520711D01*
X151818322Y-74462696D01*
X151853701Y-74396508D01*
X151875487Y-74324689D01*
X151882843Y-74250000D01*
X151882843Y-72564738D01*
X153199000Y-72564738D01*
X153199000Y-72935262D01*
X153271286Y-73298667D01*
X153413080Y-73640987D01*
X153618932Y-73949067D01*
X153880933Y-74211068D01*
X154189013Y-74416920D01*
X154531333Y-74558714D01*
X154894738Y-74631000D01*
X155265262Y-74631000D01*
X155628667Y-74558714D01*
X155970987Y-74416920D01*
X156279067Y-74211068D01*
X156541068Y-73949067D01*
X156746920Y-73640987D01*
X156888714Y-73298667D01*
X156961000Y-72935262D01*
X156961000Y-72564738D01*
X156888714Y-72201333D01*
X156746920Y-71859013D01*
X156541068Y-71550933D01*
X156279067Y-71288932D01*
X155970987Y-71083080D01*
X155628667Y-70941286D01*
X155265262Y-70869000D01*
X154894738Y-70869000D01*
X154531333Y-70941286D01*
X154189013Y-71083080D01*
X153880933Y-71288932D01*
X153618932Y-71550933D01*
X153413080Y-71859013D01*
X153271286Y-72201333D01*
X153199000Y-72564738D01*
X151882843Y-72564738D01*
X151882843Y-71250000D01*
X151875487Y-71175311D01*
X151853701Y-71103492D01*
X151818322Y-71037304D01*
X151770711Y-70979289D01*
X151712696Y-70931678D01*
X151646508Y-70896299D01*
X151574689Y-70874513D01*
X151500000Y-70867157D01*
X148500000Y-70867157D01*
X148425311Y-70874513D01*
X148353492Y-70896299D01*
X148287304Y-70931678D01*
X148229289Y-70979289D01*
X148181678Y-71037304D01*
X148146299Y-71103492D01*
X148124513Y-71175311D01*
X148117157Y-71250000D01*
X141118659Y-71250000D01*
X141103701Y-71200692D01*
X141068322Y-71134504D01*
X141020711Y-71076489D01*
X140962696Y-71028878D01*
X140896508Y-70993499D01*
X140824689Y-70971713D01*
X140750000Y-70964357D01*
X137750000Y-70964357D01*
X137675311Y-70971713D01*
X137603492Y-70993499D01*
X137537304Y-71028878D01*
X137479289Y-71076489D01*
X137431678Y-71134504D01*
X137396299Y-71200692D01*
X137374513Y-71272511D01*
X137367157Y-71347200D01*
X135310802Y-71347200D01*
X135060987Y-71180280D01*
X134718667Y-71038486D01*
X134355262Y-70966200D01*
X133984738Y-70966200D01*
X133621333Y-71038486D01*
X133279013Y-71180280D01*
X132970933Y-71386132D01*
X132708932Y-71648133D01*
X132503080Y-71956213D01*
X132361286Y-72298533D01*
X132289000Y-72661938D01*
X128481000Y-72661938D01*
X128481000Y-72304889D01*
X128404871Y-71922164D01*
X128255539Y-71561645D01*
X128038743Y-71237186D01*
X127762814Y-70961257D01*
X127438355Y-70744461D01*
X127077836Y-70595129D01*
X126695111Y-70519000D01*
X126304889Y-70519000D01*
X125922164Y-70595129D01*
X125561645Y-70744461D01*
X125237186Y-70961257D01*
X124961257Y-71237186D01*
X124744461Y-71561645D01*
X124595129Y-71922164D01*
X124519000Y-72304889D01*
X123092900Y-72304889D01*
X123092900Y-69766766D01*
X123111788Y-69574134D01*
X123162865Y-69404958D01*
X123245829Y-69248927D01*
X123357514Y-69111987D01*
X123493677Y-68999344D01*
X123649123Y-68915295D01*
X123817936Y-68863039D01*
X124009533Y-68842901D01*
X170516814Y-68846701D01*
G37*
X170516814Y-68846701D02*
X170519408Y-68846446D01*
X170675867Y-68861787D01*
X170845043Y-68912864D01*
X171001074Y-68995828D01*
X171138014Y-69107513D01*
X171250657Y-69243676D01*
X171334706Y-69399122D01*
X171386962Y-69567935D01*
X171407100Y-69759533D01*
X171407101Y-134983215D01*
X171388212Y-135175870D01*
X171337137Y-135345040D01*
X171254172Y-135501073D01*
X171142486Y-135638013D01*
X171006324Y-135750657D01*
X170850877Y-135834707D01*
X170682064Y-135886963D01*
X170490475Y-135907100D01*
X124016784Y-135907102D01*
X123824131Y-135888213D01*
X123654957Y-135837136D01*
X123498926Y-135754172D01*
X123361986Y-135642487D01*
X123249343Y-135506324D01*
X123165294Y-135350878D01*
X123113037Y-135182065D01*
X123092900Y-134990475D01*
X123092900Y-131581933D01*
X132861720Y-131581933D01*
X132861720Y-131962307D01*
X132935928Y-132335372D01*
X133081490Y-132686791D01*
X133292815Y-133003061D01*
X133561779Y-133272025D01*
X133878049Y-133483350D01*
X134229468Y-133628912D01*
X134602533Y-133703120D01*
X134982907Y-133703120D01*
X135355972Y-133628912D01*
X135707391Y-133483350D01*
X136023661Y-133272025D01*
X136292625Y-133003061D01*
X136503950Y-132686791D01*
X136649512Y-132335372D01*
X136723720Y-131962307D01*
X136723720Y-131581933D01*
X145209800Y-131581933D01*
X145209800Y-131962307D01*
X145284008Y-132335372D01*
X145429570Y-132686791D01*
X145640895Y-133003061D01*
X145909859Y-133272025D01*
X146226129Y-133483350D01*
X146577548Y-133628912D01*
X146950613Y-133703120D01*
X147330987Y-133703120D01*
X147704052Y-133628912D01*
X148055471Y-133483350D01*
X148371741Y-133272025D01*
X148640705Y-133003061D01*
X148852030Y-132686791D01*
X148997592Y-132335372D01*
X149071800Y-131962307D01*
X149071800Y-131581933D01*
X157586080Y-131581933D01*
X157586080Y-131962307D01*
X157660288Y-132335372D01*
X157805850Y-132686791D01*
X158017175Y-133003061D01*
X158286139Y-133272025D01*
X158602409Y-133483350D01*
X158953828Y-133628912D01*
X159326893Y-133703120D01*
X159707267Y-133703120D01*
X160080332Y-133628912D01*
X160431751Y-133483350D01*
X160748021Y-133272025D01*
X161016985Y-133003061D01*
X161228310Y-132686791D01*
X161373872Y-132335372D01*
X161448080Y-131962307D01*
X161448080Y-131581933D01*
X161373872Y-131208868D01*
X161228310Y-130857449D01*
X161016985Y-130541179D01*
X160748021Y-130272215D01*
X160431751Y-130060890D01*
X160080332Y-129915328D01*
X159707267Y-129841120D01*
X159326893Y-129841120D01*
X158953828Y-129915328D01*
X158602409Y-130060890D01*
X158286139Y-130272215D01*
X158017175Y-130541179D01*
X157805850Y-130857449D01*
X157660288Y-131208868D01*
X157586080Y-131581933D01*
X149071800Y-131581933D01*
X148997592Y-131208868D01*
X148852030Y-130857449D01*
X148640705Y-130541179D01*
X148371741Y-130272215D01*
X148055471Y-130060890D01*
X147704052Y-129915328D01*
X147330987Y-129841120D01*
X146950613Y-129841120D01*
X146577548Y-129915328D01*
X146226129Y-130060890D01*
X145909859Y-130272215D01*
X145640895Y-130541179D01*
X145429570Y-130857449D01*
X145284008Y-131208868D01*
X145209800Y-131581933D01*
X136723720Y-131581933D01*
X136649512Y-131208868D01*
X136503950Y-130857449D01*
X136292625Y-130541179D01*
X136023661Y-130272215D01*
X135707391Y-130060890D01*
X135355972Y-129915328D01*
X134982907Y-129841120D01*
X134602533Y-129841120D01*
X134229468Y-129915328D01*
X133878049Y-130060890D01*
X133561779Y-130272215D01*
X133292815Y-130541179D01*
X133081490Y-130857449D01*
X132935928Y-131208868D01*
X132861720Y-131581933D01*
X123092900Y-131581933D01*
X123092900Y-127340726D01*
X133661720Y-127340726D01*
X133661720Y-127563514D01*
X133705184Y-127782020D01*
X133790441Y-127987849D01*
X133914215Y-128173090D01*
X134071750Y-128330625D01*
X134256991Y-128454399D01*
X134462820Y-128539656D01*
X134681326Y-128583120D01*
X134904114Y-128583120D01*
X135122620Y-128539656D01*
X135328449Y-128454399D01*
X135396224Y-128409113D01*
X144863412Y-128409113D01*
X144928937Y-128647980D01*
X145175916Y-128763880D01*
X145440760Y-128829370D01*
X145713292Y-128841932D01*
X145983038Y-128801085D01*
X146239632Y-128708397D01*
X146352663Y-128647980D01*
X146418188Y-128409113D01*
X145640800Y-127631725D01*
X144863412Y-128409113D01*
X135396224Y-128409113D01*
X135513690Y-128330625D01*
X135671225Y-128173090D01*
X135794999Y-127987849D01*
X135880256Y-127782020D01*
X135923720Y-127563514D01*
X135923720Y-127524612D01*
X144250988Y-127524612D01*
X144291835Y-127794358D01*
X144384523Y-128050952D01*
X144444940Y-128163983D01*
X144683807Y-128229508D01*
X145461195Y-127452120D01*
X145820405Y-127452120D01*
X146597793Y-128229508D01*
X146836660Y-128163983D01*
X146952560Y-127917004D01*
X147018050Y-127652160D01*
X147030612Y-127379628D01*
X147024722Y-127340726D01*
X147509800Y-127340726D01*
X147509800Y-127563514D01*
X147553264Y-127782020D01*
X147638521Y-127987849D01*
X147762295Y-128173090D01*
X147919830Y-128330625D01*
X148105071Y-128454399D01*
X148310900Y-128539656D01*
X148529406Y-128583120D01*
X148752194Y-128583120D01*
X148970700Y-128539656D01*
X149176529Y-128454399D01*
X149361770Y-128330625D01*
X149519305Y-128173090D01*
X149643079Y-127987849D01*
X149728336Y-127782020D01*
X149771800Y-127563514D01*
X149771800Y-127340726D01*
X158386080Y-127340726D01*
X158386080Y-127563514D01*
X158429544Y-127782020D01*
X158514801Y-127987849D01*
X158638575Y-128173090D01*
X158796110Y-128330625D01*
X158981351Y-128454399D01*
X159187180Y-128539656D01*
X159405686Y-128583120D01*
X159628474Y-128583120D01*
X159846980Y-128539656D01*
X160052809Y-128454399D01*
X160238050Y-128330625D01*
X160395585Y-128173090D01*
X160519359Y-127987849D01*
X160604616Y-127782020D01*
X160648080Y-127563514D01*
X160648080Y-127340726D01*
X160604616Y-127122220D01*
X160519359Y-126916391D01*
X160395585Y-126731150D01*
X160238050Y-126573615D01*
X160052809Y-126449841D01*
X159846980Y-126364584D01*
X159628474Y-126321120D01*
X159405686Y-126321120D01*
X159187180Y-126364584D01*
X158981351Y-126449841D01*
X158796110Y-126573615D01*
X158638575Y-126731150D01*
X158514801Y-126916391D01*
X158429544Y-127122220D01*
X158386080Y-127340726D01*
X149771800Y-127340726D01*
X149728336Y-127122220D01*
X149643079Y-126916391D01*
X149519305Y-126731150D01*
X149361770Y-126573615D01*
X149176529Y-126449841D01*
X148970700Y-126364584D01*
X148752194Y-126321120D01*
X148529406Y-126321120D01*
X148310900Y-126364584D01*
X148105071Y-126449841D01*
X147919830Y-126573615D01*
X147762295Y-126731150D01*
X147638521Y-126916391D01*
X147553264Y-127122220D01*
X147509800Y-127340726D01*
X147024722Y-127340726D01*
X146989765Y-127109882D01*
X146897077Y-126853288D01*
X146836660Y-126740257D01*
X146597793Y-126674732D01*
X145820405Y-127452120D01*
X145461195Y-127452120D01*
X144683807Y-126674732D01*
X144444940Y-126740257D01*
X144329040Y-126987236D01*
X144263550Y-127252080D01*
X144250988Y-127524612D01*
X135923720Y-127524612D01*
X135923720Y-127340726D01*
X135880256Y-127122220D01*
X135794999Y-126916391D01*
X135671225Y-126731150D01*
X135513690Y-126573615D01*
X135396225Y-126495127D01*
X144863412Y-126495127D01*
X145640800Y-127272515D01*
X146418188Y-126495127D01*
X146352663Y-126256260D01*
X146105684Y-126140360D01*
X145840840Y-126074870D01*
X145568308Y-126062308D01*
X145298562Y-126103155D01*
X145041968Y-126195843D01*
X144928937Y-126256260D01*
X144863412Y-126495127D01*
X135396225Y-126495127D01*
X135328449Y-126449841D01*
X135122620Y-126364584D01*
X134904114Y-126321120D01*
X134681326Y-126321120D01*
X134462820Y-126364584D01*
X134256991Y-126449841D01*
X134071750Y-126573615D01*
X133914215Y-126731150D01*
X133790441Y-126916391D01*
X133705184Y-127122220D01*
X133661720Y-127340726D01*
X123092900Y-127340726D01*
X123092900Y-124340726D01*
X133661720Y-124340726D01*
X133661720Y-124563514D01*
X133705184Y-124782020D01*
X133790441Y-124987849D01*
X133914215Y-125173090D01*
X134071750Y-125330625D01*
X134256991Y-125454399D01*
X134462820Y-125539656D01*
X134681326Y-125583120D01*
X134904114Y-125583120D01*
X135122620Y-125539656D01*
X135328449Y-125454399D01*
X135396224Y-125409113D01*
X144863412Y-125409113D01*
X144928937Y-125647980D01*
X145175916Y-125763880D01*
X145440760Y-125829370D01*
X145713292Y-125841932D01*
X145983038Y-125801085D01*
X146239632Y-125708397D01*
X146352663Y-125647980D01*
X146418188Y-125409113D01*
X145640800Y-124631725D01*
X144863412Y-125409113D01*
X135396224Y-125409113D01*
X135513690Y-125330625D01*
X135671225Y-125173090D01*
X135794999Y-124987849D01*
X135880256Y-124782020D01*
X135923720Y-124563514D01*
X135923720Y-124524612D01*
X144250988Y-124524612D01*
X144291835Y-124794358D01*
X144384523Y-125050952D01*
X144444940Y-125163983D01*
X144683807Y-125229508D01*
X145461195Y-124452120D01*
X145820405Y-124452120D01*
X146597793Y-125229508D01*
X146836660Y-125163983D01*
X146952560Y-124917004D01*
X147018050Y-124652160D01*
X147030612Y-124379628D01*
X147024722Y-124340726D01*
X147509800Y-124340726D01*
X147509800Y-124563514D01*
X147553264Y-124782020D01*
X147638521Y-124987849D01*
X147762295Y-125173090D01*
X147919830Y-125330625D01*
X148105071Y-125454399D01*
X148310900Y-125539656D01*
X148529406Y-125583120D01*
X148752194Y-125583120D01*
X148970700Y-125539656D01*
X149176529Y-125454399D01*
X149361770Y-125330625D01*
X149519305Y-125173090D01*
X149643079Y-124987849D01*
X149728336Y-124782020D01*
X149771800Y-124563514D01*
X149771800Y-124340726D01*
X158386080Y-124340726D01*
X158386080Y-124563514D01*
X158429544Y-124782020D01*
X158514801Y-124987849D01*
X158638575Y-125173090D01*
X158796110Y-125330625D01*
X158981351Y-125454399D01*
X159187180Y-125539656D01*
X159405686Y-125583120D01*
X159628474Y-125583120D01*
X159846980Y-125539656D01*
X160052809Y-125454399D01*
X160238050Y-125330625D01*
X160395585Y-125173090D01*
X160519359Y-124987849D01*
X160604616Y-124782020D01*
X160648080Y-124563514D01*
X160648080Y-124340726D01*
X160604616Y-124122220D01*
X160519359Y-123916391D01*
X160395585Y-123731150D01*
X160238050Y-123573615D01*
X160052809Y-123449841D01*
X159846980Y-123364584D01*
X159628474Y-123321120D01*
X159405686Y-123321120D01*
X159187180Y-123364584D01*
X158981351Y-123449841D01*
X158796110Y-123573615D01*
X158638575Y-123731150D01*
X158514801Y-123916391D01*
X158429544Y-124122220D01*
X158386080Y-124340726D01*
X149771800Y-124340726D01*
X149728336Y-124122220D01*
X149643079Y-123916391D01*
X149519305Y-123731150D01*
X149361770Y-123573615D01*
X149176529Y-123449841D01*
X148970700Y-123364584D01*
X148752194Y-123321120D01*
X148529406Y-123321120D01*
X148310900Y-123364584D01*
X148105071Y-123449841D01*
X147919830Y-123573615D01*
X147762295Y-123731150D01*
X147638521Y-123916391D01*
X147553264Y-124122220D01*
X147509800Y-124340726D01*
X147024722Y-124340726D01*
X146989765Y-124109882D01*
X146897077Y-123853288D01*
X146836660Y-123740257D01*
X146597793Y-123674732D01*
X145820405Y-124452120D01*
X145461195Y-124452120D01*
X144683807Y-123674732D01*
X144444940Y-123740257D01*
X144329040Y-123987236D01*
X144263550Y-124252080D01*
X144250988Y-124524612D01*
X135923720Y-124524612D01*
X135923720Y-124340726D01*
X135880256Y-124122220D01*
X135794999Y-123916391D01*
X135671225Y-123731150D01*
X135513690Y-123573615D01*
X135396225Y-123495127D01*
X144863412Y-123495127D01*
X145640800Y-124272515D01*
X146418188Y-123495127D01*
X146352663Y-123256260D01*
X146105684Y-123140360D01*
X145840840Y-123074870D01*
X145568308Y-123062308D01*
X145298562Y-123103155D01*
X145041968Y-123195843D01*
X144928937Y-123256260D01*
X144863412Y-123495127D01*
X135396225Y-123495127D01*
X135328449Y-123449841D01*
X135122620Y-123364584D01*
X134904114Y-123321120D01*
X134681326Y-123321120D01*
X134462820Y-123364584D01*
X134256991Y-123449841D01*
X134071750Y-123573615D01*
X133914215Y-123731150D01*
X133790441Y-123916391D01*
X133705184Y-124122220D01*
X133661720Y-124340726D01*
X123092900Y-124340726D01*
X123092900Y-119304889D01*
X124519000Y-119304889D01*
X124519000Y-119695111D01*
X124595129Y-120077836D01*
X124744461Y-120438355D01*
X124961257Y-120762814D01*
X125237186Y-121038743D01*
X125561645Y-121255539D01*
X125922164Y-121404871D01*
X126304889Y-121481000D01*
X126695111Y-121481000D01*
X127077836Y-121404871D01*
X127438355Y-121255539D01*
X127762814Y-121038743D01*
X128038743Y-120762814D01*
X128255539Y-120438355D01*
X128404871Y-120077836D01*
X128481000Y-119695111D01*
X128481000Y-119304889D01*
X165769000Y-119304889D01*
X165769000Y-119695111D01*
X165845129Y-120077836D01*
X165994461Y-120438355D01*
X166211257Y-120762814D01*
X166487186Y-121038743D01*
X166811645Y-121255539D01*
X167172164Y-121404871D01*
X167554889Y-121481000D01*
X167945111Y-121481000D01*
X168327836Y-121404871D01*
X168688355Y-121255539D01*
X169012814Y-121038743D01*
X169288743Y-120762814D01*
X169505539Y-120438355D01*
X169654871Y-120077836D01*
X169731000Y-119695111D01*
X169731000Y-119304889D01*
X169654871Y-118922164D01*
X169505539Y-118561645D01*
X169288743Y-118237186D01*
X169012814Y-117961257D01*
X168688355Y-117744461D01*
X168327836Y-117595129D01*
X167945111Y-117519000D01*
X167554889Y-117519000D01*
X167172164Y-117595129D01*
X166811645Y-117744461D01*
X166487186Y-117961257D01*
X166211257Y-118237186D01*
X165994461Y-118561645D01*
X165845129Y-118922164D01*
X165769000Y-119304889D01*
X128481000Y-119304889D01*
X128404871Y-118922164D01*
X128255539Y-118561645D01*
X128038743Y-118237186D01*
X127762814Y-117961257D01*
X127438355Y-117744461D01*
X127077836Y-117595129D01*
X126695111Y-117519000D01*
X126304889Y-117519000D01*
X125922164Y-117595129D01*
X125561645Y-117744461D01*
X125237186Y-117961257D01*
X124961257Y-118237186D01*
X124744461Y-118561645D01*
X124595129Y-118922164D01*
X124519000Y-119304889D01*
X123092900Y-119304889D01*
X123092900Y-113218637D01*
X125255920Y-113218637D01*
X125255920Y-113461123D01*
X125303227Y-113698949D01*
X125396022Y-113922977D01*
X125530740Y-114124597D01*
X125702203Y-114296060D01*
X125903823Y-114430778D01*
X125978920Y-114461884D01*
X125978920Y-114517016D01*
X125976463Y-114541961D01*
X125978920Y-114566905D01*
X125978920Y-114566907D01*
X125986271Y-114641545D01*
X126015319Y-114737303D01*
X126062491Y-114825556D01*
X126125972Y-114902909D01*
X126145354Y-114918815D01*
X126459927Y-115233389D01*
X126475830Y-115252767D01*
X126495207Y-115268669D01*
X126553182Y-115316248D01*
X126562971Y-115321480D01*
X126641435Y-115363420D01*
X126737193Y-115392468D01*
X126811831Y-115399819D01*
X126811834Y-115399819D01*
X126836778Y-115402276D01*
X126861722Y-115399819D01*
X135730437Y-115399819D01*
X135755381Y-115402276D01*
X135780325Y-115399819D01*
X135780328Y-115399819D01*
X135854966Y-115392468D01*
X135950724Y-115363420D01*
X136038976Y-115316248D01*
X136091894Y-115272820D01*
X136169578Y-115272820D01*
X136309434Y-115245001D01*
X136441175Y-115190432D01*
X136559740Y-115111210D01*
X136614030Y-115056920D01*
X157237212Y-115056920D01*
X157256877Y-115155784D01*
X157311446Y-115287525D01*
X157390668Y-115406090D01*
X157491498Y-115506920D01*
X157610063Y-115586142D01*
X157741804Y-115640711D01*
X157881660Y-115668530D01*
X158024256Y-115668530D01*
X158164112Y-115640711D01*
X158295853Y-115586142D01*
X158414418Y-115506920D01*
X158515248Y-115406090D01*
X158594470Y-115287525D01*
X158649039Y-115155784D01*
X158676858Y-115015928D01*
X158676858Y-114873332D01*
X158649039Y-114733476D01*
X158594470Y-114601735D01*
X158515248Y-114483170D01*
X158414418Y-114382340D01*
X158295853Y-114303118D01*
X158164112Y-114248549D01*
X158024256Y-114220730D01*
X157947478Y-114220730D01*
X157934102Y-114207354D01*
X157918196Y-114187972D01*
X157840843Y-114124491D01*
X157752591Y-114077319D01*
X157656833Y-114048271D01*
X157582195Y-114040920D01*
X157582192Y-114040920D01*
X157557248Y-114038463D01*
X157532304Y-114040920D01*
X136614030Y-114040920D01*
X136559740Y-113986630D01*
X136441175Y-113907408D01*
X136309434Y-113852839D01*
X136169578Y-113825020D01*
X136026982Y-113825020D01*
X135887126Y-113852839D01*
X135755385Y-113907408D01*
X135636820Y-113986630D01*
X135535990Y-114087460D01*
X135456768Y-114206025D01*
X135402199Y-114337766D01*
X135393039Y-114383819D01*
X127140296Y-114383819D01*
X127271637Y-114296060D01*
X127443100Y-114124597D01*
X127577818Y-113922977D01*
X127670613Y-113698949D01*
X127717920Y-113461123D01*
X127717920Y-113218637D01*
X127716910Y-113213557D01*
X166312480Y-113213557D01*
X166312480Y-113456043D01*
X166359787Y-113693869D01*
X166452582Y-113917897D01*
X166587300Y-114119517D01*
X166758763Y-114290980D01*
X166960383Y-114425698D01*
X167184411Y-114518493D01*
X167422237Y-114565800D01*
X167664723Y-114565800D01*
X167902549Y-114518493D01*
X168126577Y-114425698D01*
X168328197Y-114290980D01*
X168499660Y-114119517D01*
X168634378Y-113917897D01*
X168727173Y-113693869D01*
X168774480Y-113456043D01*
X168774480Y-113213557D01*
X168727173Y-112975731D01*
X168634378Y-112751703D01*
X168499660Y-112550083D01*
X168328197Y-112378620D01*
X168126577Y-112243902D01*
X167902549Y-112151107D01*
X167664723Y-112103800D01*
X167422237Y-112103800D01*
X167184411Y-112151107D01*
X166960383Y-112243902D01*
X166758763Y-112378620D01*
X166587300Y-112550083D01*
X166452582Y-112751703D01*
X166359787Y-112975731D01*
X166312480Y-113213557D01*
X127716910Y-113213557D01*
X127670613Y-112980811D01*
X127577818Y-112756783D01*
X127443100Y-112555163D01*
X127271637Y-112383700D01*
X127070017Y-112248982D01*
X126845989Y-112156187D01*
X126608163Y-112108880D01*
X126365677Y-112108880D01*
X126127851Y-112156187D01*
X125903823Y-112248982D01*
X125702203Y-112383700D01*
X125530740Y-112555163D01*
X125396022Y-112756783D01*
X125303227Y-112980811D01*
X125255920Y-113218637D01*
X123092900Y-113218637D01*
X123092900Y-100518637D01*
X125255920Y-100518637D01*
X125255920Y-100761123D01*
X125303227Y-100998949D01*
X125396022Y-101222977D01*
X125530740Y-101424597D01*
X125702203Y-101596060D01*
X125903823Y-101730778D01*
X126127851Y-101823573D01*
X126365677Y-101870880D01*
X126608163Y-101870880D01*
X126845989Y-101823573D01*
X127070017Y-101730778D01*
X127271637Y-101596060D01*
X127443100Y-101424597D01*
X127577818Y-101222977D01*
X127670613Y-100998949D01*
X127717920Y-100761123D01*
X127717920Y-100518637D01*
X127670613Y-100280811D01*
X127639507Y-100205714D01*
X127941941Y-99903280D01*
X131549010Y-99903280D01*
X131603300Y-99957570D01*
X131636091Y-99979480D01*
X129346504Y-99979480D01*
X129321560Y-99977023D01*
X129296616Y-99979480D01*
X129296613Y-99979480D01*
X129221975Y-99986831D01*
X129126217Y-100015879D01*
X129037965Y-100063051D01*
X128960612Y-100126532D01*
X128944705Y-100145915D01*
X127821755Y-101268865D01*
X127802372Y-101284772D01*
X127738891Y-101362125D01*
X127691719Y-101450378D01*
X127662671Y-101546136D01*
X127657754Y-101596060D01*
X127652863Y-101645720D01*
X127655320Y-101670664D01*
X127655320Y-102783891D01*
X127577818Y-102596783D01*
X127443100Y-102395163D01*
X127271637Y-102223700D01*
X127070017Y-102088982D01*
X126845989Y-101996187D01*
X126608163Y-101948880D01*
X126365677Y-101948880D01*
X126127851Y-101996187D01*
X125903823Y-102088982D01*
X125702203Y-102223700D01*
X125530740Y-102395163D01*
X125396022Y-102596783D01*
X125303227Y-102820811D01*
X125255920Y-103058637D01*
X125255920Y-103301123D01*
X125303227Y-103538949D01*
X125396022Y-103762977D01*
X125530740Y-103964597D01*
X125702203Y-104136060D01*
X125903823Y-104270778D01*
X126127851Y-104363573D01*
X126365677Y-104410880D01*
X126608163Y-104410880D01*
X126845989Y-104363573D01*
X127070017Y-104270778D01*
X127271637Y-104136060D01*
X127443100Y-103964597D01*
X127577818Y-103762977D01*
X127655320Y-103575869D01*
X127655320Y-105323891D01*
X127577818Y-105136783D01*
X127443100Y-104935163D01*
X127271637Y-104763700D01*
X127070017Y-104628982D01*
X126845989Y-104536187D01*
X126608163Y-104488880D01*
X126365677Y-104488880D01*
X126127851Y-104536187D01*
X125903823Y-104628982D01*
X125702203Y-104763700D01*
X125530740Y-104935163D01*
X125396022Y-105136783D01*
X125303227Y-105360811D01*
X125255920Y-105598637D01*
X125255920Y-105841123D01*
X125303227Y-106078949D01*
X125396022Y-106302977D01*
X125530740Y-106504597D01*
X125702203Y-106676060D01*
X125903823Y-106810778D01*
X126127851Y-106903573D01*
X126365677Y-106950880D01*
X126608163Y-106950880D01*
X126845989Y-106903573D01*
X127070017Y-106810778D01*
X127271637Y-106676060D01*
X127443100Y-106504597D01*
X127577818Y-106302977D01*
X127655321Y-106115868D01*
X127655321Y-107863892D01*
X127577818Y-107676783D01*
X127443100Y-107475163D01*
X127271637Y-107303700D01*
X127070017Y-107168982D01*
X126845989Y-107076187D01*
X126608163Y-107028880D01*
X126365677Y-107028880D01*
X126127851Y-107076187D01*
X125903823Y-107168982D01*
X125702203Y-107303700D01*
X125530740Y-107475163D01*
X125396022Y-107676783D01*
X125303227Y-107900811D01*
X125255920Y-108138637D01*
X125255920Y-108381123D01*
X125303227Y-108618949D01*
X125396022Y-108842977D01*
X125530740Y-109044597D01*
X125702203Y-109216060D01*
X125903823Y-109350778D01*
X126127851Y-109443573D01*
X126365677Y-109490880D01*
X126608163Y-109490880D01*
X126845989Y-109443573D01*
X127070017Y-109350778D01*
X127271637Y-109216060D01*
X127443100Y-109044597D01*
X127577818Y-108842977D01*
X127655321Y-108655868D01*
X127655321Y-110115139D01*
X127568149Y-110202312D01*
X127443100Y-110015163D01*
X127271637Y-109843700D01*
X127070017Y-109708982D01*
X126845989Y-109616187D01*
X126608163Y-109568880D01*
X126365677Y-109568880D01*
X126127851Y-109616187D01*
X125903823Y-109708982D01*
X125702203Y-109843700D01*
X125530740Y-110015163D01*
X125396022Y-110216783D01*
X125303227Y-110440811D01*
X125255920Y-110678637D01*
X125255920Y-110921123D01*
X125303227Y-111158949D01*
X125396022Y-111382977D01*
X125530740Y-111584597D01*
X125702203Y-111756060D01*
X125903823Y-111890778D01*
X126127851Y-111983573D01*
X126365677Y-112030880D01*
X126608163Y-112030880D01*
X126845989Y-111983573D01*
X127070017Y-111890778D01*
X127271637Y-111756060D01*
X127443100Y-111584597D01*
X127577818Y-111382977D01*
X127608924Y-111307880D01*
X127664057Y-111307880D01*
X127689001Y-111310337D01*
X127713945Y-111307880D01*
X127713948Y-111307880D01*
X127788586Y-111300529D01*
X127884344Y-111271481D01*
X127972596Y-111224309D01*
X128049949Y-111160828D01*
X128065856Y-111141446D01*
X128504890Y-110702412D01*
X128524268Y-110686509D01*
X128534896Y-110673557D01*
X166312480Y-110673557D01*
X166312480Y-110916043D01*
X166359787Y-111153869D01*
X166452582Y-111377897D01*
X166587300Y-111579517D01*
X166758763Y-111750980D01*
X166960383Y-111885698D01*
X167184411Y-111978493D01*
X167422237Y-112025800D01*
X167664723Y-112025800D01*
X167902549Y-111978493D01*
X168126577Y-111885698D01*
X168328197Y-111750980D01*
X168499660Y-111579517D01*
X168634378Y-111377897D01*
X168727173Y-111153869D01*
X168774480Y-110916043D01*
X168774480Y-110673557D01*
X168727173Y-110435731D01*
X168634378Y-110211703D01*
X168499660Y-110010083D01*
X168328197Y-109838620D01*
X168126577Y-109703902D01*
X167902549Y-109611107D01*
X167664723Y-109563800D01*
X167422237Y-109563800D01*
X167184411Y-109611107D01*
X166960383Y-109703902D01*
X166758763Y-109838620D01*
X166587300Y-110010083D01*
X166452582Y-110211703D01*
X166359787Y-110435731D01*
X166312480Y-110673557D01*
X128534896Y-110673557D01*
X128542944Y-110663751D01*
X128587749Y-110609157D01*
X128634920Y-110520906D01*
X128636322Y-110516285D01*
X128663969Y-110425146D01*
X128671320Y-110350508D01*
X128671320Y-110350506D01*
X128673777Y-110325562D01*
X128671320Y-110300618D01*
X128671320Y-108133557D01*
X166312480Y-108133557D01*
X166312480Y-108376043D01*
X166359787Y-108613869D01*
X166452582Y-108837897D01*
X166587300Y-109039517D01*
X166758763Y-109210980D01*
X166960383Y-109345698D01*
X167184411Y-109438493D01*
X167422237Y-109485800D01*
X167664723Y-109485800D01*
X167902549Y-109438493D01*
X168126577Y-109345698D01*
X168328197Y-109210980D01*
X168499660Y-109039517D01*
X168634378Y-108837897D01*
X168727173Y-108613869D01*
X168774480Y-108376043D01*
X168774480Y-108133557D01*
X168727173Y-107895731D01*
X168634378Y-107671703D01*
X168499660Y-107470083D01*
X168328197Y-107298620D01*
X168126577Y-107163902D01*
X167902549Y-107071107D01*
X167664723Y-107023800D01*
X167422237Y-107023800D01*
X167184411Y-107071107D01*
X166960383Y-107163902D01*
X166758763Y-107298620D01*
X166587300Y-107470083D01*
X166452582Y-107671703D01*
X166359787Y-107895731D01*
X166312480Y-108133557D01*
X128671320Y-108133557D01*
X128671320Y-106611362D01*
X128800526Y-106664881D01*
X128940382Y-106692700D01*
X129019989Y-106692700D01*
X129835188Y-107507900D01*
X129851033Y-107527207D01*
X129928081Y-107590439D01*
X130015985Y-107637425D01*
X130089167Y-107659624D01*
X130111366Y-107666358D01*
X130121254Y-107667332D01*
X130185706Y-107673680D01*
X130185713Y-107673680D01*
X130210559Y-107676127D01*
X130235405Y-107673680D01*
X150536194Y-107673680D01*
X150561040Y-107676127D01*
X150585886Y-107673680D01*
X150585894Y-107673680D01*
X150660233Y-107666358D01*
X150755615Y-107637425D01*
X150843519Y-107590439D01*
X150920567Y-107527207D01*
X150936416Y-107507895D01*
X152850754Y-105593557D01*
X166312480Y-105593557D01*
X166312480Y-105836043D01*
X166359787Y-106073869D01*
X166452582Y-106297897D01*
X166587300Y-106499517D01*
X166758763Y-106670980D01*
X166960383Y-106805698D01*
X167184411Y-106898493D01*
X167422237Y-106945800D01*
X167664723Y-106945800D01*
X167902549Y-106898493D01*
X168126577Y-106805698D01*
X168328197Y-106670980D01*
X168499660Y-106499517D01*
X168634378Y-106297897D01*
X168727173Y-106073869D01*
X168774480Y-105836043D01*
X168774480Y-105593557D01*
X168727173Y-105355731D01*
X168634378Y-105131703D01*
X168499660Y-104930083D01*
X168328197Y-104758620D01*
X168126577Y-104623902D01*
X167902549Y-104531107D01*
X167664723Y-104483800D01*
X167422237Y-104483800D01*
X167184411Y-104531107D01*
X166960383Y-104623902D01*
X166758763Y-104758620D01*
X166587300Y-104930083D01*
X166452582Y-105131703D01*
X166359787Y-105355731D01*
X166312480Y-105593557D01*
X152850754Y-105593557D01*
X154015300Y-104429012D01*
X154034607Y-104413167D01*
X154097839Y-104336119D01*
X154144825Y-104248215D01*
X154173758Y-104152833D01*
X154181080Y-104078494D01*
X154183528Y-104053640D01*
X154181080Y-104028786D01*
X154181080Y-103053557D01*
X166312480Y-103053557D01*
X166312480Y-103296043D01*
X166359787Y-103533869D01*
X166452582Y-103757897D01*
X166587300Y-103959517D01*
X166758763Y-104130980D01*
X166960383Y-104265698D01*
X167184411Y-104358493D01*
X167422237Y-104405800D01*
X167664723Y-104405800D01*
X167902549Y-104358493D01*
X168126577Y-104265698D01*
X168328197Y-104130980D01*
X168499660Y-103959517D01*
X168634378Y-103757897D01*
X168727173Y-103533869D01*
X168774480Y-103296043D01*
X168774480Y-103053557D01*
X168727173Y-102815731D01*
X168634378Y-102591703D01*
X168499660Y-102390083D01*
X168328197Y-102218620D01*
X168126577Y-102083902D01*
X167902549Y-101991107D01*
X167664723Y-101943800D01*
X167422237Y-101943800D01*
X167184411Y-101991107D01*
X166960383Y-102083902D01*
X166758763Y-102218620D01*
X166587300Y-102390083D01*
X166452582Y-102591703D01*
X166359787Y-102815731D01*
X166312480Y-103053557D01*
X154181080Y-103053557D01*
X154181080Y-101418907D01*
X154183528Y-101394053D01*
X154178963Y-101347707D01*
X154196730Y-101329940D01*
X154275952Y-101211375D01*
X154330521Y-101079634D01*
X154358340Y-100939778D01*
X154358340Y-100797182D01*
X154330521Y-100657326D01*
X154275952Y-100525585D01*
X154196730Y-100407020D01*
X154095900Y-100306190D01*
X154075322Y-100292440D01*
X154242729Y-100292440D01*
X154681468Y-100731180D01*
X154697313Y-100750487D01*
X154774361Y-100813719D01*
X154862265Y-100860705D01*
X154935447Y-100882904D01*
X154957646Y-100889638D01*
X154967534Y-100890612D01*
X155031986Y-100896960D01*
X155031993Y-100896960D01*
X155056839Y-100899407D01*
X155081685Y-100896960D01*
X155499210Y-100896960D01*
X155555500Y-100953250D01*
X155674065Y-101032472D01*
X155805806Y-101087041D01*
X155945662Y-101114860D01*
X156088258Y-101114860D01*
X156228114Y-101087041D01*
X156359855Y-101032472D01*
X156478420Y-100953250D01*
X156579250Y-100852420D01*
X156658472Y-100733855D01*
X156713041Y-100602114D01*
X156730656Y-100513557D01*
X166312480Y-100513557D01*
X166312480Y-100756043D01*
X166359787Y-100993869D01*
X166452582Y-101217897D01*
X166587300Y-101419517D01*
X166758763Y-101590980D01*
X166960383Y-101725698D01*
X167184411Y-101818493D01*
X167422237Y-101865800D01*
X167664723Y-101865800D01*
X167902549Y-101818493D01*
X168126577Y-101725698D01*
X168328197Y-101590980D01*
X168499660Y-101419517D01*
X168634378Y-101217897D01*
X168727173Y-100993869D01*
X168774480Y-100756043D01*
X168774480Y-100513557D01*
X168727173Y-100275731D01*
X168634378Y-100051703D01*
X168499660Y-99850083D01*
X168328197Y-99678620D01*
X168126577Y-99543902D01*
X167902549Y-99451107D01*
X167664723Y-99403800D01*
X167422237Y-99403800D01*
X167184411Y-99451107D01*
X166960383Y-99543902D01*
X166758763Y-99678620D01*
X166587300Y-99850083D01*
X166452582Y-100051703D01*
X166359787Y-100275731D01*
X166312480Y-100513557D01*
X156730656Y-100513557D01*
X156740860Y-100462258D01*
X156740860Y-100319662D01*
X156713041Y-100179806D01*
X156658472Y-100048065D01*
X156579250Y-99929500D01*
X156478420Y-99828670D01*
X156359855Y-99749448D01*
X156228114Y-99694879D01*
X156088258Y-99667060D01*
X155945662Y-99667060D01*
X155805806Y-99694879D01*
X155674065Y-99749448D01*
X155555500Y-99828670D01*
X155499210Y-99884960D01*
X155266432Y-99884960D01*
X154827696Y-99446225D01*
X154811847Y-99426913D01*
X154734799Y-99363681D01*
X154646895Y-99316695D01*
X154551513Y-99287762D01*
X154477174Y-99280440D01*
X154477166Y-99280440D01*
X154452320Y-99277993D01*
X154427474Y-99280440D01*
X152038774Y-99280440D01*
X152013920Y-99277992D01*
X151989066Y-99280440D01*
X151914727Y-99287762D01*
X151819345Y-99316695D01*
X151731441Y-99363681D01*
X151654393Y-99426913D01*
X151638548Y-99446220D01*
X151462106Y-99622662D01*
X151410832Y-99498875D01*
X151331610Y-99380310D01*
X151230780Y-99279480D01*
X151214018Y-99268280D01*
X151942347Y-99268280D01*
X152016985Y-99260929D01*
X152112743Y-99231881D01*
X152200995Y-99184709D01*
X152278348Y-99121228D01*
X152280120Y-99119069D01*
X152282205Y-99118654D01*
X152497133Y-99029628D01*
X152690563Y-98900382D01*
X152855062Y-98735883D01*
X152984308Y-98542453D01*
X153073334Y-98327525D01*
X153118720Y-98099358D01*
X153118720Y-97866722D01*
X158376720Y-97866722D01*
X158376720Y-98099358D01*
X158422106Y-98327525D01*
X158511132Y-98542453D01*
X158640378Y-98735883D01*
X158804877Y-98900382D01*
X158998307Y-99029628D01*
X159213235Y-99118654D01*
X159441402Y-99164040D01*
X159674038Y-99164040D01*
X159902205Y-99118654D01*
X160117133Y-99029628D01*
X160310563Y-98900382D01*
X160475062Y-98735883D01*
X160604308Y-98542453D01*
X160693334Y-98327525D01*
X160738720Y-98099358D01*
X160738720Y-97973557D01*
X166312480Y-97973557D01*
X166312480Y-98216043D01*
X166359787Y-98453869D01*
X166452582Y-98677897D01*
X166587300Y-98879517D01*
X166758763Y-99050980D01*
X166960383Y-99185698D01*
X167184411Y-99278493D01*
X167422237Y-99325800D01*
X167664723Y-99325800D01*
X167902549Y-99278493D01*
X168126577Y-99185698D01*
X168328197Y-99050980D01*
X168499660Y-98879517D01*
X168634378Y-98677897D01*
X168727173Y-98453869D01*
X168774480Y-98216043D01*
X168774480Y-97973557D01*
X168727173Y-97735731D01*
X168634378Y-97511703D01*
X168499660Y-97310083D01*
X168328197Y-97138620D01*
X168126577Y-97003902D01*
X167902549Y-96911107D01*
X167664723Y-96863800D01*
X167422237Y-96863800D01*
X167184411Y-96911107D01*
X166960383Y-97003902D01*
X166758763Y-97138620D01*
X166587300Y-97310083D01*
X166452582Y-97511703D01*
X166359787Y-97735731D01*
X166312480Y-97973557D01*
X160738720Y-97973557D01*
X160738720Y-97866722D01*
X160693334Y-97638555D01*
X160604308Y-97423627D01*
X160475062Y-97230197D01*
X160310563Y-97065698D01*
X160117133Y-96936452D01*
X159902205Y-96847426D01*
X159674038Y-96802040D01*
X159441402Y-96802040D01*
X159213235Y-96847426D01*
X158998307Y-96936452D01*
X158804877Y-97065698D01*
X158640378Y-97230197D01*
X158511132Y-97423627D01*
X158422106Y-97638555D01*
X158376720Y-97866722D01*
X153118720Y-97866722D01*
X153073334Y-97638555D01*
X152984308Y-97423627D01*
X152855062Y-97230197D01*
X152690563Y-97065698D01*
X152497133Y-96936452D01*
X152282205Y-96847426D01*
X152054038Y-96802040D01*
X151821402Y-96802040D01*
X151593235Y-96847426D01*
X151378307Y-96936452D01*
X151184877Y-97065698D01*
X151020378Y-97230197D01*
X150891132Y-97423627D01*
X150802106Y-97638555D01*
X150756720Y-97866722D01*
X150756720Y-98099358D01*
X150787139Y-98252280D01*
X145683784Y-98252280D01*
X145658840Y-98249823D01*
X145633896Y-98252280D01*
X145633893Y-98252280D01*
X145559255Y-98259631D01*
X145463497Y-98288679D01*
X145375245Y-98335851D01*
X145297892Y-98399332D01*
X145281985Y-98418715D01*
X144633078Y-99067622D01*
X144290474Y-99067622D01*
X144292441Y-99062874D01*
X144320260Y-98923018D01*
X144320260Y-98780422D01*
X144292441Y-98640566D01*
X144237872Y-98508825D01*
X144177360Y-98418262D01*
X144177360Y-96670460D01*
X144180171Y-96641920D01*
X144168953Y-96528024D01*
X144135731Y-96418505D01*
X144081781Y-96317572D01*
X144027370Y-96251271D01*
X144027368Y-96251269D01*
X144009177Y-96229103D01*
X143987012Y-96210913D01*
X142500318Y-94724220D01*
X142504338Y-94724220D01*
X142644194Y-94696401D01*
X142775935Y-94641832D01*
X142894500Y-94562610D01*
X142995330Y-94461780D01*
X143074552Y-94343215D01*
X143086952Y-94313280D01*
X150946423Y-94313280D01*
X150925024Y-94324718D01*
X150867009Y-94372329D01*
X150819398Y-94430344D01*
X150784019Y-94496532D01*
X150762233Y-94568351D01*
X150754877Y-94643040D01*
X150754877Y-96243040D01*
X150762233Y-96317729D01*
X150784019Y-96389548D01*
X150819398Y-96455736D01*
X150867009Y-96513751D01*
X150925024Y-96561362D01*
X150991212Y-96596741D01*
X151063031Y-96618527D01*
X151137720Y-96625883D01*
X152737720Y-96625883D01*
X152812409Y-96618527D01*
X152884228Y-96596741D01*
X152950416Y-96561362D01*
X153008431Y-96513751D01*
X153056042Y-96455736D01*
X153091421Y-96389548D01*
X153113207Y-96317729D01*
X153120563Y-96243040D01*
X153120563Y-94643040D01*
X153113207Y-94568351D01*
X153091421Y-94496532D01*
X153056042Y-94430344D01*
X153008431Y-94372329D01*
X152950416Y-94324718D01*
X152884228Y-94289339D01*
X152812409Y-94267553D01*
X152737720Y-94260197D01*
X152426191Y-94260197D01*
X152407465Y-94198465D01*
X152390543Y-94166807D01*
X152360479Y-94110561D01*
X152297247Y-94033513D01*
X152277940Y-94017668D01*
X151727336Y-93467065D01*
X151711487Y-93447753D01*
X151634439Y-93384521D01*
X151546535Y-93337535D01*
X151451153Y-93308602D01*
X151376814Y-93301280D01*
X151376806Y-93301280D01*
X151351960Y-93298833D01*
X151327114Y-93301280D01*
X142650934Y-93301280D01*
X142626080Y-93298832D01*
X142620015Y-93299429D01*
X142504338Y-93276420D01*
X142361742Y-93276420D01*
X142221886Y-93304239D01*
X142090145Y-93358808D01*
X141971580Y-93438030D01*
X141870750Y-93538860D01*
X141791528Y-93657425D01*
X141736959Y-93789166D01*
X141709140Y-93929022D01*
X141709140Y-93933043D01*
X141692410Y-93916313D01*
X141671161Y-93809486D01*
X141616592Y-93677745D01*
X141537370Y-93559180D01*
X141436540Y-93458350D01*
X141317975Y-93379128D01*
X141186234Y-93324559D01*
X141046378Y-93296740D01*
X140903782Y-93296740D01*
X140763926Y-93324559D01*
X140632185Y-93379128D01*
X140513620Y-93458350D01*
X140412790Y-93559180D01*
X140333568Y-93677745D01*
X140278999Y-93809486D01*
X140251180Y-93949342D01*
X140251180Y-94091938D01*
X140278999Y-94231794D01*
X140333568Y-94363535D01*
X140412790Y-94482100D01*
X140513620Y-94582930D01*
X140632185Y-94662152D01*
X140763926Y-94716721D01*
X140870753Y-94737970D01*
X143015360Y-96882579D01*
X143015361Y-98418261D01*
X142954848Y-98508825D01*
X142900279Y-98640566D01*
X142872460Y-98780422D01*
X142872460Y-98923018D01*
X142900279Y-99062874D01*
X142902246Y-99067622D01*
X142778082Y-99067622D01*
X142093890Y-98383430D01*
X142037236Y-98336936D01*
X140797280Y-97096980D01*
X140797280Y-95655944D01*
X140799737Y-95631000D01*
X140792732Y-95559880D01*
X140789929Y-95531415D01*
X140760881Y-95435657D01*
X140713709Y-95347405D01*
X140650228Y-95270052D01*
X140630845Y-95254145D01*
X139512975Y-94136275D01*
X139497068Y-94116892D01*
X139419715Y-94053411D01*
X139331463Y-94006239D01*
X139235705Y-93977191D01*
X139161067Y-93969840D01*
X139161064Y-93969840D01*
X139136120Y-93967383D01*
X139111176Y-93969840D01*
X136217790Y-93969840D01*
X136163500Y-93915550D01*
X136044935Y-93836328D01*
X135913194Y-93781759D01*
X135773338Y-93753940D01*
X135630742Y-93753940D01*
X135490886Y-93781759D01*
X135359145Y-93836328D01*
X135240580Y-93915550D01*
X135139750Y-94016380D01*
X135060528Y-94134945D01*
X135005959Y-94266686D01*
X134978140Y-94406542D01*
X134978140Y-94549138D01*
X135005959Y-94688994D01*
X135060528Y-94820735D01*
X135139750Y-94939300D01*
X135240580Y-95040130D01*
X135359145Y-95119352D01*
X135490886Y-95173921D01*
X135630742Y-95201740D01*
X135773338Y-95201740D01*
X135913194Y-95173921D01*
X136044935Y-95119352D01*
X136163500Y-95040130D01*
X136217790Y-94985840D01*
X138925700Y-94985840D01*
X139781280Y-95841420D01*
X139781281Y-97282446D01*
X139778823Y-97307400D01*
X139787754Y-97398074D01*
X139788632Y-97406985D01*
X139817680Y-97502743D01*
X139864851Y-97590995D01*
X139903883Y-97638555D01*
X139928333Y-97668348D01*
X139947710Y-97684250D01*
X141370109Y-99106650D01*
X141426773Y-99153153D01*
X142190807Y-99917187D01*
X142206714Y-99936570D01*
X142284067Y-100000051D01*
X142372319Y-100047223D01*
X142468077Y-100076271D01*
X142542715Y-100083622D01*
X142542718Y-100083622D01*
X142567662Y-100086079D01*
X142592606Y-100083622D01*
X144818554Y-100083622D01*
X144843498Y-100086079D01*
X144868442Y-100083622D01*
X144868445Y-100083622D01*
X144943083Y-100076271D01*
X145038841Y-100047223D01*
X145127093Y-100000051D01*
X145204446Y-99936570D01*
X145220353Y-99917187D01*
X145869260Y-99268280D01*
X150324622Y-99268280D01*
X150307860Y-99279480D01*
X150207030Y-99380310D01*
X150127808Y-99498875D01*
X150073239Y-99630616D01*
X150051990Y-99737443D01*
X150035778Y-99753655D01*
X150035772Y-99753660D01*
X148379273Y-101410160D01*
X148185258Y-101410160D01*
X148094695Y-101349648D01*
X147962954Y-101295079D01*
X147823098Y-101267260D01*
X147680502Y-101267260D01*
X147540646Y-101295079D01*
X147408905Y-101349648D01*
X147290340Y-101428870D01*
X147189510Y-101529700D01*
X147110288Y-101648265D01*
X147055719Y-101780006D01*
X147027900Y-101919862D01*
X147027900Y-102062458D01*
X147048439Y-102165713D01*
X146298376Y-101415651D01*
X146282527Y-101396339D01*
X146205479Y-101333107D01*
X146117575Y-101286121D01*
X146022193Y-101257188D01*
X145947854Y-101249866D01*
X145947846Y-101249866D01*
X145923000Y-101247419D01*
X145898154Y-101249866D01*
X138714178Y-101249866D01*
X137761980Y-100297669D01*
X137761980Y-100218062D01*
X137734161Y-100078206D01*
X137679592Y-99946465D01*
X137600370Y-99827900D01*
X137499540Y-99727070D01*
X137380975Y-99647848D01*
X137249234Y-99593279D01*
X137109378Y-99565460D01*
X136966782Y-99565460D01*
X136826926Y-99593279D01*
X136695185Y-99647848D01*
X136576620Y-99727070D01*
X136475790Y-99827900D01*
X136396568Y-99946465D01*
X136341999Y-100078206D01*
X136314180Y-100218062D01*
X136314180Y-100294839D01*
X134145420Y-102463600D01*
X130124340Y-102463600D01*
X130070050Y-102409310D01*
X129951485Y-102330088D01*
X129819744Y-102275519D01*
X129679888Y-102247700D01*
X129537292Y-102247700D01*
X129397436Y-102275519D01*
X129265695Y-102330088D01*
X129147130Y-102409310D01*
X129046300Y-102510140D01*
X128967078Y-102628705D01*
X128912509Y-102760446D01*
X128884690Y-102900302D01*
X128884690Y-103042898D01*
X128912509Y-103182754D01*
X128967078Y-103314495D01*
X129046300Y-103433060D01*
X129147130Y-103533890D01*
X129265695Y-103613112D01*
X129397436Y-103667681D01*
X129537292Y-103695500D01*
X129679888Y-103695500D01*
X129819744Y-103667681D01*
X129951485Y-103613112D01*
X130070050Y-103533890D01*
X130124340Y-103479600D01*
X134330896Y-103479600D01*
X134355840Y-103482057D01*
X134380784Y-103479600D01*
X134380787Y-103479600D01*
X134455425Y-103472249D01*
X134551183Y-103443201D01*
X134639435Y-103396029D01*
X134716788Y-103332548D01*
X134732695Y-103313165D01*
X137032601Y-101013260D01*
X137046389Y-101013260D01*
X138129214Y-102096086D01*
X138145059Y-102115393D01*
X138222107Y-102178625D01*
X138296932Y-102218620D01*
X138310011Y-102225611D01*
X138405393Y-102254544D01*
X138504586Y-102264314D01*
X138529440Y-102261866D01*
X145713409Y-102261866D01*
X146595722Y-103144180D01*
X146611567Y-103163487D01*
X146688615Y-103226719D01*
X146776519Y-103273705D01*
X146871901Y-103302638D01*
X146971094Y-103312408D01*
X146995948Y-103309960D01*
X148971554Y-103309960D01*
X148996400Y-103312407D01*
X149021246Y-103309960D01*
X149021254Y-103309960D01*
X149095593Y-103302638D01*
X149190975Y-103273705D01*
X149278879Y-103226719D01*
X149355927Y-103163487D01*
X149371776Y-103144175D01*
X151463068Y-101052884D01*
X151474008Y-101079295D01*
X151553230Y-101197860D01*
X151609520Y-101254150D01*
X151609521Y-103752607D01*
X149315129Y-106047000D01*
X131359952Y-106047000D01*
X129796540Y-104483589D01*
X129796540Y-104403982D01*
X129768721Y-104264126D01*
X129714152Y-104132385D01*
X129634930Y-104013820D01*
X129534100Y-103912990D01*
X129415535Y-103833768D01*
X129283794Y-103779199D01*
X129143938Y-103751380D01*
X129001342Y-103751380D01*
X128861486Y-103779199D01*
X128729745Y-103833768D01*
X128671320Y-103872806D01*
X128671320Y-101856140D01*
X129531980Y-100995480D01*
X132752970Y-100995480D01*
X132807260Y-101049770D01*
X132925825Y-101128992D01*
X133057566Y-101183561D01*
X133197422Y-101211380D01*
X133340018Y-101211380D01*
X133479874Y-101183561D01*
X133611615Y-101128992D01*
X133730180Y-101049770D01*
X133831010Y-100948940D01*
X133910232Y-100830375D01*
X133964801Y-100698634D01*
X133992620Y-100558778D01*
X133992620Y-100416182D01*
X133964801Y-100276326D01*
X133910232Y-100144585D01*
X133831010Y-100026020D01*
X133730180Y-99925190D01*
X133611615Y-99845968D01*
X133479874Y-99791399D01*
X133340018Y-99763580D01*
X133197422Y-99763580D01*
X133057566Y-99791399D01*
X132925825Y-99845968D01*
X132807260Y-99925190D01*
X132752970Y-99979480D01*
X132493429Y-99979480D01*
X132526220Y-99957570D01*
X132627050Y-99856740D01*
X132706272Y-99738175D01*
X132760841Y-99606434D01*
X132788660Y-99466578D01*
X132788660Y-99323982D01*
X132760841Y-99184126D01*
X132706272Y-99052385D01*
X132627050Y-98933820D01*
X132526220Y-98832990D01*
X132407655Y-98753768D01*
X132275914Y-98699199D01*
X132136058Y-98671380D01*
X131993462Y-98671380D01*
X131853606Y-98699199D01*
X131721865Y-98753768D01*
X131603300Y-98832990D01*
X131549010Y-98887280D01*
X127756463Y-98887280D01*
X127731519Y-98884823D01*
X127706575Y-98887280D01*
X127706573Y-98887280D01*
X127631935Y-98894631D01*
X127536177Y-98923679D01*
X127536175Y-98923680D01*
X127447924Y-98970851D01*
X127396085Y-99013394D01*
X127370572Y-99034332D01*
X127354670Y-99053709D01*
X126921086Y-99487293D01*
X126845989Y-99456187D01*
X126608163Y-99408880D01*
X126365677Y-99408880D01*
X126127851Y-99456187D01*
X125903823Y-99548982D01*
X125702203Y-99683700D01*
X125530740Y-99855163D01*
X125396022Y-100056783D01*
X125303227Y-100280811D01*
X125255920Y-100518637D01*
X123092900Y-100518637D01*
X123092900Y-97978637D01*
X125255920Y-97978637D01*
X125255920Y-98221123D01*
X125303227Y-98458949D01*
X125396022Y-98682977D01*
X125530740Y-98884597D01*
X125702203Y-99056060D01*
X125903823Y-99190778D01*
X126127851Y-99283573D01*
X126365677Y-99330880D01*
X126608163Y-99330880D01*
X126845989Y-99283573D01*
X127070017Y-99190778D01*
X127271637Y-99056060D01*
X127443100Y-98884597D01*
X127577818Y-98682977D01*
X127670613Y-98458949D01*
X127717920Y-98221123D01*
X127717920Y-97978637D01*
X127670613Y-97740811D01*
X127577818Y-97516783D01*
X127443100Y-97315163D01*
X127271637Y-97143700D01*
X127070017Y-97008982D01*
X126845989Y-96916187D01*
X126608163Y-96868880D01*
X126365677Y-96868880D01*
X126127851Y-96916187D01*
X125903823Y-97008982D01*
X125702203Y-97143700D01*
X125530740Y-97315163D01*
X125396022Y-97516783D01*
X125303227Y-97740811D01*
X125255920Y-97978637D01*
X123092900Y-97978637D01*
X123092900Y-95438637D01*
X125255920Y-95438637D01*
X125255920Y-95681123D01*
X125303227Y-95918949D01*
X125396022Y-96142977D01*
X125530740Y-96344597D01*
X125702203Y-96516060D01*
X125903823Y-96650778D01*
X126127851Y-96743573D01*
X126365677Y-96790880D01*
X126608163Y-96790880D01*
X126845989Y-96743573D01*
X127070017Y-96650778D01*
X127271637Y-96516060D01*
X127443100Y-96344597D01*
X127577818Y-96142977D01*
X127608924Y-96067880D01*
X128981656Y-96067880D01*
X129006600Y-96070337D01*
X129031544Y-96067880D01*
X129031547Y-96067880D01*
X129106185Y-96060529D01*
X129201943Y-96031481D01*
X129290195Y-95984309D01*
X129367548Y-95920828D01*
X129383455Y-95901445D01*
X130044130Y-95240771D01*
X130063508Y-95224868D01*
X130087420Y-95195731D01*
X130126989Y-95147516D01*
X130153159Y-95098555D01*
X130174161Y-95059263D01*
X130203209Y-94963505D01*
X130210560Y-94888867D01*
X130210560Y-94888865D01*
X130213017Y-94863921D01*
X130210560Y-94838977D01*
X130210560Y-92143710D01*
X130264850Y-92089420D01*
X130344072Y-91970855D01*
X130398641Y-91839114D01*
X130426460Y-91699258D01*
X130426460Y-91556662D01*
X130398641Y-91416806D01*
X130344072Y-91285065D01*
X130289693Y-91203680D01*
X143315240Y-91203680D01*
X143315240Y-91524960D01*
X143377918Y-91840065D01*
X143500866Y-92136888D01*
X143679359Y-92404022D01*
X143906538Y-92631201D01*
X144173672Y-92809694D01*
X144470495Y-92932642D01*
X144785600Y-92995320D01*
X145106880Y-92995320D01*
X145421985Y-92932642D01*
X145718808Y-92809694D01*
X145985942Y-92631201D01*
X146213121Y-92404022D01*
X146391614Y-92136888D01*
X146514562Y-91840065D01*
X146577240Y-91524960D01*
X146577240Y-91332795D01*
X146706355Y-91203680D01*
X155515240Y-91203680D01*
X155515240Y-91524960D01*
X155577918Y-91840065D01*
X155700866Y-92136888D01*
X155879359Y-92404022D01*
X156106538Y-92631201D01*
X156265241Y-92737242D01*
X156265241Y-94019520D01*
X156260978Y-94062800D01*
X156274844Y-94203573D01*
X156277989Y-94235506D01*
X156290584Y-94277025D01*
X156328365Y-94401574D01*
X156410172Y-94554625D01*
X156437246Y-94587614D01*
X156520266Y-94688775D01*
X156553880Y-94716361D01*
X157872919Y-96035401D01*
X157900505Y-96069015D01*
X157934117Y-96096599D01*
X158034654Y-96179108D01*
X158087966Y-96207603D01*
X158187705Y-96260915D01*
X158353774Y-96311292D01*
X158483207Y-96324040D01*
X158483209Y-96324040D01*
X158526479Y-96328302D01*
X158569749Y-96324040D01*
X158768535Y-96324040D01*
X158804877Y-96360382D01*
X158998307Y-96489628D01*
X159213235Y-96578654D01*
X159441402Y-96624040D01*
X159674038Y-96624040D01*
X159902205Y-96578654D01*
X160117133Y-96489628D01*
X160310563Y-96360382D01*
X160475062Y-96195883D01*
X160604308Y-96002453D01*
X160693334Y-95787525D01*
X160738720Y-95559358D01*
X160738720Y-95433557D01*
X166312480Y-95433557D01*
X166312480Y-95676043D01*
X166359787Y-95913869D01*
X166452582Y-96137897D01*
X166587300Y-96339517D01*
X166758763Y-96510980D01*
X166960383Y-96645698D01*
X167184411Y-96738493D01*
X167422237Y-96785800D01*
X167664723Y-96785800D01*
X167902549Y-96738493D01*
X168126577Y-96645698D01*
X168328197Y-96510980D01*
X168499660Y-96339517D01*
X168634378Y-96137897D01*
X168727173Y-95913869D01*
X168774480Y-95676043D01*
X168774480Y-95433557D01*
X168727173Y-95195731D01*
X168634378Y-94971703D01*
X168499660Y-94770083D01*
X168328197Y-94598620D01*
X168126577Y-94463902D01*
X167902549Y-94371107D01*
X167664723Y-94323800D01*
X167422237Y-94323800D01*
X167184411Y-94371107D01*
X166960383Y-94463902D01*
X166758763Y-94598620D01*
X166587300Y-94770083D01*
X166452582Y-94971703D01*
X166359787Y-95195731D01*
X166312480Y-95433557D01*
X160738720Y-95433557D01*
X160738720Y-95326722D01*
X160693334Y-95098555D01*
X160604308Y-94883627D01*
X160475062Y-94690197D01*
X160310563Y-94525698D01*
X160117133Y-94396452D01*
X159902205Y-94307426D01*
X159674038Y-94262040D01*
X159441402Y-94262040D01*
X159213235Y-94307426D01*
X158998307Y-94396452D01*
X158834959Y-94505598D01*
X158027240Y-93697879D01*
X158027240Y-92893557D01*
X166312480Y-92893557D01*
X166312480Y-93136043D01*
X166359787Y-93373869D01*
X166452582Y-93597897D01*
X166587300Y-93799517D01*
X166758763Y-93970980D01*
X166960383Y-94105698D01*
X167184411Y-94198493D01*
X167422237Y-94245800D01*
X167664723Y-94245800D01*
X167902549Y-94198493D01*
X168126577Y-94105698D01*
X168328197Y-93970980D01*
X168499660Y-93799517D01*
X168634378Y-93597897D01*
X168727173Y-93373869D01*
X168774480Y-93136043D01*
X168774480Y-92893557D01*
X168727173Y-92655731D01*
X168634378Y-92431703D01*
X168499660Y-92230083D01*
X168328197Y-92058620D01*
X168126577Y-91923902D01*
X167902549Y-91831107D01*
X167664723Y-91783800D01*
X167422237Y-91783800D01*
X167184411Y-91831107D01*
X166960383Y-91923902D01*
X166758763Y-92058620D01*
X166587300Y-92230083D01*
X166452582Y-92431703D01*
X166359787Y-92655731D01*
X166312480Y-92893557D01*
X158027240Y-92893557D01*
X158027240Y-92737242D01*
X158185942Y-92631201D01*
X158413121Y-92404022D01*
X158519162Y-92245320D01*
X161678010Y-92245320D01*
X161721280Y-92249582D01*
X161764550Y-92245320D01*
X161764553Y-92245320D01*
X161893986Y-92232572D01*
X162060055Y-92182195D01*
X162213105Y-92100388D01*
X162347255Y-91990295D01*
X162374846Y-91956675D01*
X163977964Y-90353557D01*
X166312480Y-90353557D01*
X166312480Y-90596043D01*
X166359787Y-90833869D01*
X166452582Y-91057897D01*
X166587300Y-91259517D01*
X166758763Y-91430980D01*
X166960383Y-91565698D01*
X167184411Y-91658493D01*
X167422237Y-91705800D01*
X167664723Y-91705800D01*
X167902549Y-91658493D01*
X168126577Y-91565698D01*
X168328197Y-91430980D01*
X168499660Y-91259517D01*
X168634378Y-91057897D01*
X168727173Y-90833869D01*
X168774480Y-90596043D01*
X168774480Y-90353557D01*
X168727173Y-90115731D01*
X168634378Y-89891703D01*
X168499660Y-89690083D01*
X168328197Y-89518620D01*
X168126577Y-89383902D01*
X167902549Y-89291107D01*
X167664723Y-89243800D01*
X167422237Y-89243800D01*
X167184411Y-89291107D01*
X166960383Y-89383902D01*
X166758763Y-89518620D01*
X166587300Y-89690083D01*
X166452582Y-89891703D01*
X166359787Y-90115731D01*
X166312480Y-90353557D01*
X163977964Y-90353557D01*
X165047201Y-89284321D01*
X165080815Y-89256735D01*
X165180370Y-89135426D01*
X165190908Y-89122586D01*
X165272715Y-88969535D01*
X165273802Y-88965953D01*
X165323092Y-88803466D01*
X165335840Y-88674033D01*
X165335840Y-88674030D01*
X165340102Y-88630760D01*
X165335840Y-88587490D01*
X165335840Y-87813557D01*
X166312480Y-87813557D01*
X166312480Y-88056043D01*
X166359787Y-88293869D01*
X166452582Y-88517897D01*
X166587300Y-88719517D01*
X166758763Y-88890980D01*
X166960383Y-89025698D01*
X167184411Y-89118493D01*
X167422237Y-89165800D01*
X167664723Y-89165800D01*
X167902549Y-89118493D01*
X168126577Y-89025698D01*
X168328197Y-88890980D01*
X168499660Y-88719517D01*
X168634378Y-88517897D01*
X168727173Y-88293869D01*
X168774480Y-88056043D01*
X168774480Y-87813557D01*
X168727173Y-87575731D01*
X168634378Y-87351703D01*
X168499660Y-87150083D01*
X168328197Y-86978620D01*
X168126577Y-86843902D01*
X167902549Y-86751107D01*
X167664723Y-86703800D01*
X167422237Y-86703800D01*
X167184411Y-86751107D01*
X166960383Y-86843902D01*
X166758763Y-86978620D01*
X166587300Y-87150083D01*
X166452582Y-87351703D01*
X166359787Y-87575731D01*
X166312480Y-87813557D01*
X165335840Y-87813557D01*
X165335840Y-85273557D01*
X166312480Y-85273557D01*
X166312480Y-85516043D01*
X166359787Y-85753869D01*
X166452582Y-85977897D01*
X166587300Y-86179517D01*
X166758763Y-86350980D01*
X166960383Y-86485698D01*
X167184411Y-86578493D01*
X167422237Y-86625800D01*
X167664723Y-86625800D01*
X167902549Y-86578493D01*
X168126577Y-86485698D01*
X168328197Y-86350980D01*
X168499660Y-86179517D01*
X168634378Y-85977897D01*
X168727173Y-85753869D01*
X168774480Y-85516043D01*
X168774480Y-85273557D01*
X168727173Y-85035731D01*
X168634378Y-84811703D01*
X168499660Y-84610083D01*
X168328197Y-84438620D01*
X168126577Y-84303902D01*
X167902549Y-84211107D01*
X167664723Y-84163800D01*
X167422237Y-84163800D01*
X167184411Y-84211107D01*
X166960383Y-84303902D01*
X166758763Y-84438620D01*
X166587300Y-84610083D01*
X166452582Y-84811703D01*
X166359787Y-85035731D01*
X166312480Y-85273557D01*
X165335840Y-85273557D01*
X165335840Y-80671690D01*
X166102004Y-80671690D01*
X166146655Y-80818899D01*
X166271839Y-81081720D01*
X166445892Y-81315069D01*
X166662125Y-81509978D01*
X166912228Y-81658957D01*
X167074648Y-81716572D01*
X166960383Y-81763902D01*
X166758763Y-81898620D01*
X166587300Y-82070083D01*
X166452582Y-82271703D01*
X166359787Y-82495731D01*
X166312480Y-82733557D01*
X166312480Y-82976043D01*
X166359787Y-83213869D01*
X166452582Y-83437897D01*
X166587300Y-83639517D01*
X166758763Y-83810980D01*
X166960383Y-83945698D01*
X167184411Y-84038493D01*
X167422237Y-84085800D01*
X167664723Y-84085800D01*
X167902549Y-84038493D01*
X168126577Y-83945698D01*
X168328197Y-83810980D01*
X168499660Y-83639517D01*
X168634378Y-83437897D01*
X168727173Y-83213869D01*
X168774480Y-82976043D01*
X168774480Y-82733557D01*
X168727173Y-82495731D01*
X168634378Y-82271703D01*
X168499660Y-82070083D01*
X168328197Y-81898620D01*
X168126577Y-81763902D01*
X168012312Y-81716572D01*
X168174732Y-81658957D01*
X168424835Y-81509978D01*
X168641068Y-81315069D01*
X168815121Y-81081720D01*
X168940305Y-80818899D01*
X168984956Y-80671690D01*
X168863635Y-80441800D01*
X167670480Y-80441800D01*
X167670480Y-80461800D01*
X167416480Y-80461800D01*
X167416480Y-80441800D01*
X166223325Y-80441800D01*
X166102004Y-80671690D01*
X165335840Y-80671690D01*
X165335840Y-79378361D01*
X166058402Y-78655800D01*
X166313690Y-78655800D01*
X166317993Y-78699489D01*
X166339779Y-78771308D01*
X166375158Y-78837496D01*
X166422769Y-78895511D01*
X166480784Y-78943122D01*
X166546972Y-78978501D01*
X166618791Y-79000287D01*
X166693480Y-79007643D01*
X166850113Y-79007643D01*
X166662125Y-79119622D01*
X166445892Y-79314531D01*
X166271839Y-79547880D01*
X166146655Y-79810701D01*
X166102004Y-79957910D01*
X166223325Y-80187800D01*
X167416480Y-80187800D01*
X167416480Y-80167800D01*
X167670480Y-80167800D01*
X167670480Y-80187800D01*
X168863635Y-80187800D01*
X168984956Y-79957910D01*
X168940305Y-79810701D01*
X168815121Y-79547880D01*
X168641068Y-79314531D01*
X168424835Y-79119622D01*
X168236847Y-79007643D01*
X168393480Y-79007643D01*
X168468169Y-79000287D01*
X168539988Y-78978501D01*
X168606176Y-78943122D01*
X168664191Y-78895511D01*
X168711802Y-78837496D01*
X168747181Y-78771308D01*
X168768967Y-78699489D01*
X168776323Y-78624800D01*
X168776323Y-76924800D01*
X168768967Y-76850111D01*
X168747181Y-76778292D01*
X168711802Y-76712104D01*
X168664191Y-76654089D01*
X168606176Y-76606478D01*
X168539988Y-76571099D01*
X168468169Y-76549313D01*
X168393480Y-76541957D01*
X166693480Y-76541957D01*
X166618791Y-76549313D01*
X166546972Y-76571099D01*
X166480784Y-76606478D01*
X166422769Y-76654089D01*
X166375158Y-76712104D01*
X166339779Y-76778292D01*
X166317993Y-76850111D01*
X166313690Y-76893800D01*
X165736742Y-76893800D01*
X165693479Y-76889539D01*
X165650216Y-76893800D01*
X165650207Y-76893800D01*
X165520774Y-76906548D01*
X165354705Y-76956925D01*
X165327037Y-76971714D01*
X165201654Y-77038732D01*
X165133502Y-77094663D01*
X165067505Y-77148825D01*
X165039919Y-77182439D01*
X163862484Y-78359874D01*
X163828865Y-78387465D01*
X163755861Y-78476423D01*
X163718772Y-78521615D01*
X163653863Y-78643052D01*
X163636965Y-78674666D01*
X163586588Y-78840735D01*
X163573840Y-78970167D01*
X163569578Y-79013440D01*
X163573840Y-79056710D01*
X163573841Y-88265837D01*
X161356359Y-90483320D01*
X158519162Y-90483320D01*
X158413121Y-90324618D01*
X158185942Y-90097439D01*
X157918808Y-89918946D01*
X157621985Y-89795998D01*
X157306880Y-89733320D01*
X156985600Y-89733320D01*
X156670495Y-89795998D01*
X156373672Y-89918946D01*
X156106538Y-90097439D01*
X155879359Y-90324618D01*
X155700866Y-90591752D01*
X155577918Y-90888575D01*
X155515240Y-91203680D01*
X146706355Y-91203680D01*
X149010455Y-88899581D01*
X149053607Y-88864167D01*
X149194942Y-88691950D01*
X149299963Y-88495469D01*
X149364635Y-88282275D01*
X149381000Y-88116118D01*
X149381000Y-88116109D01*
X149386471Y-88060561D01*
X149381000Y-88005013D01*
X149381000Y-81718475D01*
X153218476Y-77881000D01*
X156465282Y-77881000D01*
X156373672Y-77918946D01*
X156106538Y-78097439D01*
X155879359Y-78324618D01*
X155700866Y-78591752D01*
X155577918Y-78888575D01*
X155515240Y-79203680D01*
X155515240Y-79524960D01*
X155577918Y-79840065D01*
X155700866Y-80136888D01*
X155879359Y-80404022D01*
X156106538Y-80631201D01*
X156373672Y-80809694D01*
X156641423Y-80920600D01*
X154391174Y-80920600D01*
X154375000Y-80919007D01*
X154358826Y-80920600D01*
X154310426Y-80925367D01*
X154248334Y-80944202D01*
X154191110Y-80974789D01*
X154140953Y-81015953D01*
X154099789Y-81066110D01*
X154069202Y-81123334D01*
X154050367Y-81185426D01*
X154044007Y-81250000D01*
X154045601Y-81266184D01*
X154045600Y-89183826D01*
X154044007Y-89200000D01*
X154050367Y-89264574D01*
X154069202Y-89326666D01*
X154099789Y-89383890D01*
X154140953Y-89434047D01*
X154191110Y-89475211D01*
X154248334Y-89505798D01*
X154310426Y-89524633D01*
X154375000Y-89530993D01*
X154391174Y-89529400D01*
X160733826Y-89529400D01*
X160750000Y-89530993D01*
X160814574Y-89524633D01*
X160876666Y-89505798D01*
X160933890Y-89475211D01*
X160984047Y-89434047D01*
X161025211Y-89383890D01*
X161055798Y-89326666D01*
X161074633Y-89264574D01*
X161079400Y-89216174D01*
X161079400Y-89216173D01*
X161080993Y-89200000D01*
X161079400Y-89183826D01*
X161079400Y-87766174D01*
X161080993Y-87750000D01*
X161074633Y-87685426D01*
X161055798Y-87623334D01*
X161025211Y-87566110D01*
X160984047Y-87515953D01*
X160933890Y-87474789D01*
X160876666Y-87444202D01*
X160814574Y-87425367D01*
X160766174Y-87420600D01*
X160750000Y-87419007D01*
X160733826Y-87420600D01*
X155979400Y-87420600D01*
X155979400Y-84114320D01*
X157513397Y-84114320D01*
X157513397Y-86614320D01*
X157520753Y-86689009D01*
X157542539Y-86760828D01*
X157577918Y-86827016D01*
X157625529Y-86885031D01*
X157683544Y-86932642D01*
X157749732Y-86968021D01*
X157821551Y-86989807D01*
X157896240Y-86997163D01*
X160396240Y-86997163D01*
X160470929Y-86989807D01*
X160542748Y-86968021D01*
X160608936Y-86932642D01*
X160666951Y-86885031D01*
X160714562Y-86827016D01*
X160749941Y-86760828D01*
X160771727Y-86689009D01*
X160779083Y-86614320D01*
X160779083Y-84114320D01*
X160771727Y-84039631D01*
X160749941Y-83967812D01*
X160714562Y-83901624D01*
X160666951Y-83843609D01*
X160608936Y-83795998D01*
X160542748Y-83760619D01*
X160470929Y-83738833D01*
X160396240Y-83731477D01*
X157896240Y-83731477D01*
X157821551Y-83738833D01*
X157749732Y-83760619D01*
X157683544Y-83795998D01*
X157625529Y-83843609D01*
X157577918Y-83901624D01*
X157542539Y-83967812D01*
X157520753Y-84039631D01*
X157513397Y-84114320D01*
X155979400Y-84114320D01*
X155979400Y-83079400D01*
X160733826Y-83079400D01*
X160750000Y-83080993D01*
X160814574Y-83074633D01*
X160876666Y-83055798D01*
X160933890Y-83025211D01*
X160984047Y-82984047D01*
X161025211Y-82933890D01*
X161055798Y-82876666D01*
X161074633Y-82814574D01*
X161079400Y-82766174D01*
X161080993Y-82750000D01*
X161079400Y-82733826D01*
X161079400Y-81266174D01*
X161080993Y-81250000D01*
X161074633Y-81185426D01*
X161055798Y-81123334D01*
X161025211Y-81066110D01*
X160984047Y-81015953D01*
X160933890Y-80974789D01*
X160876666Y-80944202D01*
X160814574Y-80925367D01*
X160766174Y-80920600D01*
X160750000Y-80919007D01*
X160733826Y-80920600D01*
X157651057Y-80920600D01*
X157918808Y-80809694D01*
X158185942Y-80631201D01*
X158413121Y-80404022D01*
X158591614Y-80136888D01*
X158714562Y-79840065D01*
X158777240Y-79524960D01*
X158777240Y-79203680D01*
X158714562Y-78888575D01*
X158591614Y-78591752D01*
X158413121Y-78324618D01*
X158185942Y-78097439D01*
X157918808Y-77918946D01*
X157827198Y-77881000D01*
X159444450Y-77881000D01*
X159500000Y-77886471D01*
X159555550Y-77881000D01*
X159555558Y-77881000D01*
X159721715Y-77864635D01*
X159934909Y-77799963D01*
X160131390Y-77694942D01*
X160303607Y-77553607D01*
X160339025Y-77510450D01*
X161170456Y-76679020D01*
X161213608Y-76643606D01*
X161286824Y-76554393D01*
X161354943Y-76471389D01*
X161459964Y-76274908D01*
X161524636Y-76061714D01*
X161546473Y-75839999D01*
X161541001Y-75784441D01*
X161541001Y-74029134D01*
X161621068Y-73949067D01*
X161826920Y-73640987D01*
X161968714Y-73298667D01*
X162041000Y-72935262D01*
X162041000Y-72564738D01*
X161989313Y-72304889D01*
X165519000Y-72304889D01*
X165519000Y-72695111D01*
X165595129Y-73077836D01*
X165744461Y-73438355D01*
X165961257Y-73762814D01*
X166237186Y-74038743D01*
X166561645Y-74255539D01*
X166922164Y-74404871D01*
X167304889Y-74481000D01*
X167695111Y-74481000D01*
X168077836Y-74404871D01*
X168438355Y-74255539D01*
X168762814Y-74038743D01*
X169038743Y-73762814D01*
X169255539Y-73438355D01*
X169404871Y-73077836D01*
X169481000Y-72695111D01*
X169481000Y-72304889D01*
X169404871Y-71922164D01*
X169255539Y-71561645D01*
X169038743Y-71237186D01*
X168762814Y-70961257D01*
X168438355Y-70744461D01*
X168077836Y-70595129D01*
X167695111Y-70519000D01*
X167304889Y-70519000D01*
X166922164Y-70595129D01*
X166561645Y-70744461D01*
X166237186Y-70961257D01*
X165961257Y-71237186D01*
X165744461Y-71561645D01*
X165595129Y-71922164D01*
X165519000Y-72304889D01*
X161989313Y-72304889D01*
X161968714Y-72201333D01*
X161826920Y-71859013D01*
X161621068Y-71550933D01*
X161359067Y-71288932D01*
X161050987Y-71083080D01*
X160708667Y-70941286D01*
X160345262Y-70869000D01*
X159974738Y-70869000D01*
X159611333Y-70941286D01*
X159269013Y-71083080D01*
X158960933Y-71288932D01*
X158698932Y-71550933D01*
X158493080Y-71859013D01*
X158351286Y-72201333D01*
X158279000Y-72564738D01*
X158279000Y-72935262D01*
X158351286Y-73298667D01*
X158493080Y-73640987D01*
X158698932Y-73949067D01*
X158960933Y-74211068D01*
X159269013Y-74416920D01*
X159279002Y-74421057D01*
X159279002Y-75371523D01*
X159031525Y-75619000D01*
X152805550Y-75619000D01*
X152749999Y-75613529D01*
X152694449Y-75619000D01*
X152694442Y-75619000D01*
X152528285Y-75635365D01*
X152315091Y-75700037D01*
X152118610Y-75805058D01*
X152008337Y-75895557D01*
X151946393Y-75946393D01*
X151910979Y-75989545D01*
X147489550Y-80410975D01*
X147446393Y-80446393D01*
X147305058Y-80618610D01*
X147200037Y-80815092D01*
X147135365Y-81028286D01*
X147119000Y-81194443D01*
X147119000Y-81194450D01*
X147113529Y-81250000D01*
X147119000Y-81305551D01*
X147119001Y-87592083D01*
X144977765Y-89733320D01*
X144785600Y-89733320D01*
X144470495Y-89795998D01*
X144173672Y-89918946D01*
X143906538Y-90097439D01*
X143679359Y-90324618D01*
X143500866Y-90591752D01*
X143377918Y-90888575D01*
X143315240Y-91203680D01*
X130289693Y-91203680D01*
X130264850Y-91166500D01*
X130164020Y-91065670D01*
X130045455Y-90986448D01*
X129913714Y-90931879D01*
X129773858Y-90904060D01*
X129631262Y-90904060D01*
X129491406Y-90931879D01*
X129359665Y-90986448D01*
X129241100Y-91065670D01*
X129140270Y-91166500D01*
X129061048Y-91285065D01*
X129006479Y-91416806D01*
X128978660Y-91556662D01*
X128978660Y-91699258D01*
X129006479Y-91839114D01*
X129061048Y-91970855D01*
X129140270Y-92089420D01*
X129194560Y-92143710D01*
X129194561Y-94653498D01*
X128796180Y-95051880D01*
X127608924Y-95051880D01*
X127577818Y-94976783D01*
X127443100Y-94775163D01*
X127271637Y-94603700D01*
X127070017Y-94468982D01*
X126845989Y-94376187D01*
X126608163Y-94328880D01*
X126365677Y-94328880D01*
X126127851Y-94376187D01*
X125903823Y-94468982D01*
X125702203Y-94603700D01*
X125530740Y-94775163D01*
X125396022Y-94976783D01*
X125303227Y-95200811D01*
X125255920Y-95438637D01*
X123092900Y-95438637D01*
X123092900Y-92898637D01*
X125255920Y-92898637D01*
X125255920Y-93141123D01*
X125303227Y-93378949D01*
X125396022Y-93602977D01*
X125530740Y-93804597D01*
X125702203Y-93976060D01*
X125903823Y-94110778D01*
X126127851Y-94203573D01*
X126365677Y-94250880D01*
X126608163Y-94250880D01*
X126845989Y-94203573D01*
X127070017Y-94110778D01*
X127271637Y-93976060D01*
X127443100Y-93804597D01*
X127577818Y-93602977D01*
X127670613Y-93378949D01*
X127717920Y-93141123D01*
X127717920Y-92898637D01*
X127670613Y-92660811D01*
X127577818Y-92436783D01*
X127443100Y-92235163D01*
X127271637Y-92063700D01*
X127070017Y-91928982D01*
X126845989Y-91836187D01*
X126608163Y-91788880D01*
X126365677Y-91788880D01*
X126127851Y-91836187D01*
X125903823Y-91928982D01*
X125702203Y-92063700D01*
X125530740Y-92235163D01*
X125396022Y-92436783D01*
X125303227Y-92660811D01*
X125255920Y-92898637D01*
X123092900Y-92898637D01*
X123092900Y-90358637D01*
X125255920Y-90358637D01*
X125255920Y-90601123D01*
X125303227Y-90838949D01*
X125396022Y-91062977D01*
X125530740Y-91264597D01*
X125702203Y-91436060D01*
X125903823Y-91570778D01*
X126127851Y-91663573D01*
X126365677Y-91710880D01*
X126608163Y-91710880D01*
X126845989Y-91663573D01*
X127070017Y-91570778D01*
X127271637Y-91436060D01*
X127443100Y-91264597D01*
X127577818Y-91062977D01*
X127670613Y-90838949D01*
X127717920Y-90601123D01*
X127717920Y-90358637D01*
X127670613Y-90120811D01*
X127577818Y-89896783D01*
X127443100Y-89695163D01*
X127271637Y-89523700D01*
X127070017Y-89388982D01*
X126845989Y-89296187D01*
X126608163Y-89248880D01*
X126365677Y-89248880D01*
X126127851Y-89296187D01*
X125903823Y-89388982D01*
X125702203Y-89523700D01*
X125530740Y-89695163D01*
X125396022Y-89896783D01*
X125303227Y-90120811D01*
X125255920Y-90358637D01*
X123092900Y-90358637D01*
X123092900Y-85756770D01*
X125045444Y-85756770D01*
X125090095Y-85903979D01*
X125215279Y-86166800D01*
X125389332Y-86400149D01*
X125605565Y-86595058D01*
X125855668Y-86744037D01*
X126018088Y-86801652D01*
X125903823Y-86848982D01*
X125702203Y-86983700D01*
X125530740Y-87155163D01*
X125396022Y-87356783D01*
X125303227Y-87580811D01*
X125255920Y-87818637D01*
X125255920Y-88061123D01*
X125303227Y-88298949D01*
X125396022Y-88522977D01*
X125530740Y-88724597D01*
X125702203Y-88896060D01*
X125903823Y-89030778D01*
X126127851Y-89123573D01*
X126365677Y-89170880D01*
X126608163Y-89170880D01*
X126845989Y-89123573D01*
X127070017Y-89030778D01*
X127271637Y-88896060D01*
X127443100Y-88724597D01*
X127577818Y-88522977D01*
X127670613Y-88298949D01*
X127717920Y-88061123D01*
X127717920Y-87818637D01*
X127670613Y-87580811D01*
X127577818Y-87356783D01*
X127443100Y-87155163D01*
X127271637Y-86983700D01*
X127070017Y-86848982D01*
X126955752Y-86801652D01*
X127118172Y-86744037D01*
X127368275Y-86595058D01*
X127584508Y-86400149D01*
X127758561Y-86166800D01*
X127883745Y-85903979D01*
X127928396Y-85756770D01*
X127807075Y-85526880D01*
X126613920Y-85526880D01*
X126613920Y-85546880D01*
X126359920Y-85546880D01*
X126359920Y-85526880D01*
X125166765Y-85526880D01*
X125045444Y-85756770D01*
X123092900Y-85756770D01*
X123092900Y-85042990D01*
X125045444Y-85042990D01*
X125166765Y-85272880D01*
X126359920Y-85272880D01*
X126359920Y-85252880D01*
X126613920Y-85252880D01*
X126613920Y-85272880D01*
X127807075Y-85272880D01*
X127928396Y-85042990D01*
X127883745Y-84895781D01*
X127758561Y-84632960D01*
X127584508Y-84399611D01*
X127368275Y-84204702D01*
X127118172Y-84055723D01*
X126955752Y-83998108D01*
X127070017Y-83950778D01*
X127271637Y-83816060D01*
X127443100Y-83644597D01*
X127577818Y-83442977D01*
X127670613Y-83218949D01*
X127717920Y-82981123D01*
X127717920Y-82738637D01*
X127670613Y-82500811D01*
X127577818Y-82276783D01*
X127443100Y-82075163D01*
X127271637Y-81903700D01*
X127070017Y-81768982D01*
X126845989Y-81676187D01*
X126608163Y-81628880D01*
X126365677Y-81628880D01*
X126127851Y-81676187D01*
X125903823Y-81768982D01*
X125702203Y-81903700D01*
X125530740Y-82075163D01*
X125396022Y-82276783D01*
X125303227Y-82500811D01*
X125255920Y-82738637D01*
X125255920Y-82981123D01*
X125303227Y-83218949D01*
X125396022Y-83442977D01*
X125530740Y-83644597D01*
X125702203Y-83816060D01*
X125903823Y-83950778D01*
X126018088Y-83998108D01*
X125855668Y-84055723D01*
X125605565Y-84204702D01*
X125389332Y-84399611D01*
X125215279Y-84632960D01*
X125090095Y-84895781D01*
X125045444Y-85042990D01*
X123092900Y-85042990D01*
X123092900Y-80198637D01*
X125255920Y-80198637D01*
X125255920Y-80441123D01*
X125303227Y-80678949D01*
X125396022Y-80902977D01*
X125530740Y-81104597D01*
X125702203Y-81276060D01*
X125903823Y-81410778D01*
X126127851Y-81503573D01*
X126365677Y-81550880D01*
X126608163Y-81550880D01*
X126845989Y-81503573D01*
X127070017Y-81410778D01*
X127271637Y-81276060D01*
X127443100Y-81104597D01*
X127577818Y-80902977D01*
X127670613Y-80678949D01*
X127717920Y-80441123D01*
X127717920Y-80198637D01*
X127670613Y-79960811D01*
X127577818Y-79736783D01*
X127443100Y-79535163D01*
X127271637Y-79363700D01*
X127070017Y-79228982D01*
X127008933Y-79203680D01*
X143315240Y-79203680D01*
X143315240Y-79524960D01*
X143377918Y-79840065D01*
X143500866Y-80136888D01*
X143679359Y-80404022D01*
X143906538Y-80631201D01*
X144173672Y-80809694D01*
X144470495Y-80932642D01*
X144594374Y-80957283D01*
X144600533Y-80964788D01*
X144677886Y-81028269D01*
X144766138Y-81075441D01*
X144861896Y-81104489D01*
X144961480Y-81114297D01*
X145061065Y-81104489D01*
X145156823Y-81075441D01*
X145245075Y-81028269D01*
X145322428Y-80964788D01*
X145334534Y-80950037D01*
X145421985Y-80932642D01*
X145718808Y-80809694D01*
X145985942Y-80631201D01*
X146213121Y-80404022D01*
X146391614Y-80136888D01*
X146514562Y-79840065D01*
X146577240Y-79524960D01*
X146577240Y-79203680D01*
X146514562Y-78888575D01*
X146391614Y-78591752D01*
X146213121Y-78324618D01*
X145985942Y-78097439D01*
X145718808Y-77918946D01*
X145421985Y-77795998D01*
X145106880Y-77733320D01*
X144785600Y-77733320D01*
X144470495Y-77795998D01*
X144173672Y-77918946D01*
X143906538Y-78097439D01*
X143679359Y-78324618D01*
X143500866Y-78591752D01*
X143377918Y-78888575D01*
X143315240Y-79203680D01*
X127008933Y-79203680D01*
X126845989Y-79136187D01*
X126608163Y-79088880D01*
X126365677Y-79088880D01*
X126127851Y-79136187D01*
X125903823Y-79228982D01*
X125702203Y-79363700D01*
X125530740Y-79535163D01*
X125396022Y-79736783D01*
X125303227Y-79960811D01*
X125255920Y-80198637D01*
X123092900Y-80198637D01*
X123092900Y-76929880D01*
X125254077Y-76929880D01*
X125254077Y-78629880D01*
X125261433Y-78704569D01*
X125283219Y-78776388D01*
X125318598Y-78842576D01*
X125366209Y-78900591D01*
X125424224Y-78948202D01*
X125490412Y-78983581D01*
X125562231Y-79005367D01*
X125636920Y-79012723D01*
X127336920Y-79012723D01*
X127411609Y-79005367D01*
X127483428Y-78983581D01*
X127549616Y-78948202D01*
X127607631Y-78900591D01*
X127655242Y-78842576D01*
X127690621Y-78776388D01*
X127712407Y-78704569D01*
X127719763Y-78629880D01*
X127719763Y-76929880D01*
X127712407Y-76855191D01*
X127690621Y-76783372D01*
X127655242Y-76717184D01*
X127607631Y-76659169D01*
X127549616Y-76611558D01*
X127483428Y-76576179D01*
X127411609Y-76554393D01*
X127336920Y-76547037D01*
X125636920Y-76547037D01*
X125562231Y-76554393D01*
X125490412Y-76576179D01*
X125424224Y-76611558D01*
X125366209Y-76659169D01*
X125318598Y-76717184D01*
X125283219Y-76783372D01*
X125261433Y-76855191D01*
X125254077Y-76929880D01*
X123092900Y-76929880D01*
X123092900Y-72304889D01*
X124519000Y-72304889D01*
X124519000Y-72695111D01*
X124595129Y-73077836D01*
X124744461Y-73438355D01*
X124961257Y-73762814D01*
X125237186Y-74038743D01*
X125561645Y-74255539D01*
X125922164Y-74404871D01*
X126304889Y-74481000D01*
X126695111Y-74481000D01*
X127077836Y-74404871D01*
X127438355Y-74255539D01*
X127762814Y-74038743D01*
X128038743Y-73762814D01*
X128255539Y-73438355D01*
X128404871Y-73077836D01*
X128481000Y-72695111D01*
X128481000Y-72661938D01*
X132289000Y-72661938D01*
X132289000Y-73032462D01*
X132361286Y-73395867D01*
X132503080Y-73738187D01*
X132708932Y-74046267D01*
X132970933Y-74308268D01*
X133279013Y-74514120D01*
X133621333Y-74655914D01*
X133984738Y-74728200D01*
X134355262Y-74728200D01*
X134718667Y-74655914D01*
X135060987Y-74514120D01*
X135369067Y-74308268D01*
X135631068Y-74046267D01*
X135836920Y-73738187D01*
X135978714Y-73395867D01*
X136051000Y-73032462D01*
X136051000Y-72661938D01*
X135978714Y-72298533D01*
X135836920Y-71956213D01*
X135631068Y-71648133D01*
X135369067Y-71386132D01*
X135310802Y-71347200D01*
X137367157Y-71347200D01*
X137367157Y-74347200D01*
X137374513Y-74421889D01*
X137396299Y-74493708D01*
X137431678Y-74559896D01*
X137479289Y-74617911D01*
X137537304Y-74665522D01*
X137603492Y-74700901D01*
X137675311Y-74722687D01*
X137750000Y-74730043D01*
X140750000Y-74730043D01*
X140824689Y-74722687D01*
X140896508Y-74700901D01*
X140962696Y-74665522D01*
X141020711Y-74617911D01*
X141068322Y-74559896D01*
X141103701Y-74493708D01*
X141125487Y-74421889D01*
X141132843Y-74347200D01*
X141132843Y-71347200D01*
X141125487Y-71272511D01*
X141118659Y-71250000D01*
X148117157Y-71250000D01*
X148117157Y-74250000D01*
X148124513Y-74324689D01*
X148146299Y-74396508D01*
X148181678Y-74462696D01*
X148229289Y-74520711D01*
X148287304Y-74568322D01*
X148353492Y-74603701D01*
X148425311Y-74625487D01*
X148500000Y-74632843D01*
X151500000Y-74632843D01*
X151574689Y-74625487D01*
X151646508Y-74603701D01*
X151712696Y-74568322D01*
X151770711Y-74520711D01*
X151818322Y-74462696D01*
X151853701Y-74396508D01*
X151875487Y-74324689D01*
X151882843Y-74250000D01*
X151882843Y-72564738D01*
X153199000Y-72564738D01*
X153199000Y-72935262D01*
X153271286Y-73298667D01*
X153413080Y-73640987D01*
X153618932Y-73949067D01*
X153880933Y-74211068D01*
X154189013Y-74416920D01*
X154531333Y-74558714D01*
X154894738Y-74631000D01*
X155265262Y-74631000D01*
X155628667Y-74558714D01*
X155970987Y-74416920D01*
X156279067Y-74211068D01*
X156541068Y-73949067D01*
X156746920Y-73640987D01*
X156888714Y-73298667D01*
X156961000Y-72935262D01*
X156961000Y-72564738D01*
X156888714Y-72201333D01*
X156746920Y-71859013D01*
X156541068Y-71550933D01*
X156279067Y-71288932D01*
X155970987Y-71083080D01*
X155628667Y-70941286D01*
X155265262Y-70869000D01*
X154894738Y-70869000D01*
X154531333Y-70941286D01*
X154189013Y-71083080D01*
X153880933Y-71288932D01*
X153618932Y-71550933D01*
X153413080Y-71859013D01*
X153271286Y-72201333D01*
X153199000Y-72564738D01*
X151882843Y-72564738D01*
X151882843Y-71250000D01*
X151875487Y-71175311D01*
X151853701Y-71103492D01*
X151818322Y-71037304D01*
X151770711Y-70979289D01*
X151712696Y-70931678D01*
X151646508Y-70896299D01*
X151574689Y-70874513D01*
X151500000Y-70867157D01*
X148500000Y-70867157D01*
X148425311Y-70874513D01*
X148353492Y-70896299D01*
X148287304Y-70931678D01*
X148229289Y-70979289D01*
X148181678Y-71037304D01*
X148146299Y-71103492D01*
X148124513Y-71175311D01*
X148117157Y-71250000D01*
X141118659Y-71250000D01*
X141103701Y-71200692D01*
X141068322Y-71134504D01*
X141020711Y-71076489D01*
X140962696Y-71028878D01*
X140896508Y-70993499D01*
X140824689Y-70971713D01*
X140750000Y-70964357D01*
X137750000Y-70964357D01*
X137675311Y-70971713D01*
X137603492Y-70993499D01*
X137537304Y-71028878D01*
X137479289Y-71076489D01*
X137431678Y-71134504D01*
X137396299Y-71200692D01*
X137374513Y-71272511D01*
X137367157Y-71347200D01*
X135310802Y-71347200D01*
X135060987Y-71180280D01*
X134718667Y-71038486D01*
X134355262Y-70966200D01*
X133984738Y-70966200D01*
X133621333Y-71038486D01*
X133279013Y-71180280D01*
X132970933Y-71386132D01*
X132708932Y-71648133D01*
X132503080Y-71956213D01*
X132361286Y-72298533D01*
X132289000Y-72661938D01*
X128481000Y-72661938D01*
X128481000Y-72304889D01*
X128404871Y-71922164D01*
X128255539Y-71561645D01*
X128038743Y-71237186D01*
X127762814Y-70961257D01*
X127438355Y-70744461D01*
X127077836Y-70595129D01*
X126695111Y-70519000D01*
X126304889Y-70519000D01*
X125922164Y-70595129D01*
X125561645Y-70744461D01*
X125237186Y-70961257D01*
X124961257Y-71237186D01*
X124744461Y-71561645D01*
X124595129Y-71922164D01*
X124519000Y-72304889D01*
X123092900Y-72304889D01*
X123092900Y-69766766D01*
X123111788Y-69574134D01*
X123162865Y-69404958D01*
X123245829Y-69248927D01*
X123357514Y-69111987D01*
X123493677Y-68999344D01*
X123649123Y-68915295D01*
X123817936Y-68863039D01*
X124009533Y-68842901D01*
X170516814Y-68846701D01*
M02*
