M48
; DRILL file {KiCad 5.1.5+dfsg1-2build2} date dom 24 ene 2021 18:27:12
; FORMAT={-:-/ absolute / inch / decimal}
; #@! TF.CreationDate,2021-01-24T18:27:12+01:00
; #@! TF.GenerationSoftware,Kicad,Pcbnew,5.1.5+dfsg1-2build2
FMAT,2
INCH
T1C0.0130
T2C0.0315
T3C0.0394
T4C0.0433
T5C0.0512
T6C0.0598
T7C0.1220
T8C0.1260
%
G90
G05
T1
X5.0792Y-4.172
X5.0816Y-4.1132
X5.1027Y-4.054
X5.1064Y-3.6074
X5.1166Y-4.5854
X5.1201Y-3.8081
X5.1703Y-3.8533
X5.1994Y-3.9132
X5.2388Y-4.6826
X5.2388Y-4.7325
X5.2402Y-4.5828
X5.2402Y-4.6327
X5.2451Y-3.6929
X5.2468Y-3.9562
X5.2628Y-3.248
X5.2638Y-3.2992
X5.2829Y-4.1666
X5.2834Y-4.6838
X5.2834Y-4.7337
X5.2848Y-4.584
X5.2848Y-4.6339
X5.295Y-4.2796
X5.295Y-4.319
X5.295Y-4.3583
X5.295Y-4.3977
X5.3051Y-3.2992
X5.3344Y-4.2796
X5.3344Y-4.319
X5.3344Y-4.3583
X5.3344Y-4.3977
X5.3426Y-3.7196
X5.3582Y-4.5098
X5.3737Y-4.2796
X5.3737Y-4.319
X5.3737Y-4.3583
X5.3737Y-4.3977
X5.3952Y-3.9484
X5.4131Y-4.2796
X5.4131Y-4.319
X5.4131Y-4.3583
X5.4131Y-4.3977
X5.435Y-3.6644
X5.4428Y-4.7314
X5.4695Y-3.7579
X5.4904Y-4.7308
X5.5036Y-4.9432
X5.5036Y-4.9931
X5.505Y-4.8434
X5.505Y-4.8933
X5.5448Y-4.7308
X5.5502Y-3.7016
X5.5886Y-3.3317
X5.5915Y-3.1949
X5.5994Y-3.5197
X5.5998Y-4.5876
X5.5998Y-4.6324
X5.6004Y-4.6878
X5.6004Y-4.7326
X5.6076Y-3.7008
X5.6162Y-4.8696
X5.6162Y-4.9195
X5.6162Y-4.9695
X5.6162Y-5.0194
X5.6266Y-3.9586
X5.6534Y-3.8918
X5.6608Y-4.8708
X5.6608Y-4.9207
X5.6608Y-4.9707
X5.6608Y-5.0206
X5.6686Y-4.0748
X5.7146Y-4.1486
X5.7522Y-4.0554
X5.7559Y-3.9301
X5.7589Y-4.2648
X5.817Y-4.0154
X5.8219Y-4.3012
X5.8425Y-4.2589
X5.8444Y-4.0856
X5.8484Y-3.9311
X5.9036Y-4.1262
X5.9358Y-3.9308
X5.9868Y-4.6794
X5.9872Y-4.7258
X5.9888Y-3.966
X5.9896Y-4.6312
X5.991Y-4.5796
X6.0378Y-4.5806
X6.0412Y-4.7262
X6.0486Y-3.9712
X6.0572Y-4.9288
X6.0572Y-4.9787
X6.0586Y-4.829
X6.0586Y-4.8789
X6.0898Y-4.7252
X6.0978Y-4.1636
X6.1424Y-3.9524
X6.1766Y-4.2784
X6.1766Y-4.3178
X6.1766Y-4.3571
X6.1766Y-4.3965
X6.216Y-4.2784
X6.216Y-4.3178
X6.216Y-4.3571
X6.216Y-4.3965
X6.2186Y-4.5254
X6.2553Y-4.2784
X6.2553Y-4.3178
X6.2553Y-4.3571
X6.2553Y-4.3965
X6.2947Y-4.2784
X6.2947Y-4.3178
X6.2947Y-4.3571
X6.2947Y-4.3965
X6.373Y-3.9409
X6.378Y-3.8455
X6.3858Y-3.7815
X6.405Y-4.735
X6.405Y-4.7849
X6.4074Y-4.6316
X6.4074Y-4.6815
X6.4646Y-3.8504
X6.4744Y-3.7667
X6.4774Y-3.9232
X6.499Y-4.126
T2
X5.9818Y-3.7576
X5.9818Y-3.8576
X6.2818Y-3.7576
X6.2818Y-3.8576
T3
X4.9798Y-3.0622
X4.9798Y-3.1622
X4.9798Y-3.2622
X4.9798Y-3.3622
X4.9798Y-3.4622
X4.9798Y-3.5622
X4.9798Y-3.6622
X4.9798Y-3.7622
X4.9798Y-3.8622
X4.9798Y-3.9622
X4.9798Y-4.0622
X4.9798Y-4.1622
X4.9798Y-4.2622
X4.9798Y-4.3622
X4.9798Y-4.4622
X6.5962Y-3.062
X6.5962Y-3.162
X6.5962Y-3.262
X6.5962Y-3.362
X6.5962Y-3.462
X6.5962Y-3.562
X6.5962Y-3.662
X6.5962Y-3.762
X6.5962Y-3.862
X6.5962Y-3.962
X6.5962Y-4.062
X6.5962Y-4.162
X6.5962Y-4.262
X6.5962Y-4.362
X6.5962Y-4.462
T4
X6.2802Y-4.8997
X6.2802Y-5.0178
X5.7339Y-4.8997
X5.7339Y-5.0178
X5.852Y-4.8997
X5.852Y-5.0178
X5.3068Y-4.8997
X5.3068Y-5.0178
T5
X5.7065Y-3.1246
X5.7065Y-3.597
X6.1869Y-3.1246
X6.1869Y-3.597
X6.2656Y-3.3608
T6
X5.2823Y-2.868
X5.4823Y-2.868
X5.9055Y-2.8642
X6.1055Y-2.8642
X6.3055Y-2.8642
T7
X6.2802Y-5.1879
X5.7929Y-5.1879
X5.3068Y-5.1879
T8
X6.6043Y-4.7047
X6.5945Y-2.8543
X4.9803Y-2.8543
X4.9803Y-4.7047
T0
M30
