M48
; DRILL file {KiCad 5.1.5+dfsg1-2build2} date jue 07 ene 2021 13:00:30
; FORMAT={-:-/ absolute / inch / decimal}
; #@! TF.CreationDate,2021-01-07T13:00:30+01:00
; #@! TF.GenerationSoftware,Kicad,Pcbnew,5.1.5+dfsg1-2build2
FMAT,2
INCH
T1C0.0130
T2C0.0433
T3C0.0512
T4C0.1220
T5C0.1260
%
G90
G05
T1
X5.738Y-3.706
X5.774Y-3.706
X5.807Y-3.706
X5.807Y-4.515
X5.835Y-4.515
X5.8405Y-3.706
X5.8655Y-4.515
X5.9025Y-4.514
X5.944Y-5.183
X5.9745Y-5.183
X6.011Y-5.183
X6.047Y-5.183
T2
X6.0299Y-3.6516
X6.0299Y-3.7697
X6.0299Y-3.8878
X6.0299Y-4.0059
X6.148Y-3.6516
X6.148Y-3.7697
X6.148Y-3.8878
X6.148Y-4.0059
X6.0299Y-4.6555
X6.0299Y-4.7736
X6.0299Y-4.8917
X6.0299Y-5.0098
X6.148Y-4.6555
X6.148Y-4.7736
X6.148Y-4.8917
X6.148Y-5.0098
T3
X5.494Y-3.6115
X5.494Y-3.8084
X5.494Y-4.0052
X5.494Y-4.2021
X5.494Y-4.3989
X5.494Y-4.5958
X5.494Y-4.7926
X5.494Y-4.9895
X4.8205Y-3.612
X4.8205Y-3.8089
X4.8205Y-4.0057
X4.8205Y-4.2026
X4.8205Y-4.3994
X4.8205Y-4.5963
X4.8205Y-4.7931
X4.8205Y-4.99
T4
X6.3181Y-3.7343
X6.3181Y-3.9193
X6.3181Y-4.7382
X6.3181Y-4.9232
T5
X6.2992Y-4.3307
X5.1772Y-3.8583
X5.1772Y-4.8031
T0
M30
