%TF.GenerationSoftware,KiCad,Pcbnew,5.1.5+dfsg1-2build2*%
%TF.CreationDate,2021-01-07T13:00:26+01:00*%
%TF.ProjectId,TopConnectionBoard-ConnectorBoard,546f7043-6f6e-46e6-9563-74696f6e426f,rev?*%
%TF.SameCoordinates,Original*%
%TF.FileFunction,Copper,L2,Bot*%
%TF.FilePolarity,Positive*%
%FSLAX46Y46*%
G04 Gerber Fmt 4.6, Leading zero omitted, Abs format (unit mm)*
G04 Created by KiCad (PCBNEW 5.1.5+dfsg1-2build2) date 2021-01-07 13:00:26*
%MOMM*%
%LPD*%
G04 APERTURE LIST*
%ADD10C,1.500000*%
%ADD11C,2.500000*%
%ADD12R,2.500000X2.500000*%
%ADD13C,0.685800*%
%ADD14C,1.200000*%
%ADD15C,0.254000*%
G04 APERTURE END LIST*
D10*
X153159200Y-92750000D03*
X156159200Y-92750000D03*
X156159200Y-95750000D03*
X153159200Y-95750000D03*
X153159200Y-98750000D03*
X156159200Y-98750000D03*
X153159200Y-101750000D03*
X156159200Y-101750000D03*
X156159200Y-127250000D03*
X153159200Y-127250000D03*
X156159200Y-124250000D03*
X153159200Y-124250000D03*
X153159200Y-121250000D03*
X156159200Y-121250000D03*
X156159200Y-118250000D03*
X153159200Y-118250000D03*
D11*
X122440700Y-126744800D03*
X122440700Y-121744800D03*
X122440700Y-116744800D03*
X122440700Y-111744800D03*
X122440700Y-106744800D03*
X122440700Y-101744800D03*
X122440700Y-96744800D03*
D12*
X122440700Y-91744800D03*
X139547600Y-91732100D03*
D11*
X139547600Y-96732100D03*
X139547600Y-101732100D03*
X139547600Y-106732100D03*
X139547600Y-111732100D03*
X139547600Y-116732100D03*
X139547600Y-121732100D03*
X139547600Y-126732100D03*
D13*
X153593800Y-131648200D03*
X152679400Y-131648200D03*
X151752300Y-131648200D03*
X150977600Y-131648200D03*
X148348700Y-94132400D03*
X147497800Y-94132400D03*
X146659600Y-94132400D03*
X145745200Y-94132400D03*
X148983700Y-114681000D03*
X148209000Y-114681000D03*
X147497800Y-114681000D03*
X149923500Y-114655600D03*
D14*
X136042400Y-131648200D02*
X153593800Y-131648200D01*
X132427099Y-128032899D02*
X136042400Y-131648200D01*
X126421199Y-128032899D02*
X132427099Y-128032899D01*
X125133100Y-126744800D02*
X126421199Y-128032899D01*
X122440700Y-126744800D02*
X125133100Y-126744800D01*
X148348700Y-94132400D02*
X147497800Y-94132400D01*
X147497800Y-94132400D02*
X146659600Y-94132400D01*
X146659600Y-94132400D02*
X145973800Y-94132400D01*
X145745200Y-94132400D02*
X145973800Y-94132400D01*
X155409201Y-92000001D02*
X156159200Y-92750000D01*
X154265000Y-90855800D02*
X155409201Y-92000001D01*
X151625300Y-90855800D02*
X154265000Y-90855800D01*
X148348700Y-94132400D02*
X151625300Y-90855800D01*
X156159200Y-124485400D02*
X156159200Y-124250000D01*
X157988000Y-126314200D02*
X156159200Y-124485400D01*
X138341100Y-129540000D02*
X156972000Y-129540000D01*
X157988000Y-128524000D02*
X157988000Y-126314200D01*
X135301100Y-126500000D02*
X138341100Y-129540000D01*
X156972000Y-129540000D02*
X157988000Y-128524000D01*
X129000000Y-126500000D02*
X135301100Y-126500000D01*
X124242200Y-121742200D02*
X129000000Y-126500000D01*
X124211066Y-121742200D02*
X124242200Y-121742200D01*
X124208466Y-121744800D02*
X124211066Y-121742200D01*
X122440700Y-121744800D02*
X124208466Y-121744800D01*
X126790500Y-115087400D02*
X125133100Y-116744800D01*
X134289800Y-115087400D02*
X126790500Y-115087400D01*
X135267700Y-114109500D02*
X134289800Y-115087400D01*
X125133100Y-116744800D02*
X122440700Y-116744800D01*
X145249900Y-114109500D02*
X135267700Y-114109500D01*
X148069300Y-111290100D02*
X145249900Y-114109500D01*
X154343100Y-111290100D02*
X148069300Y-111290100D01*
X157886400Y-114833400D02*
X154343100Y-111290100D01*
X157886400Y-119522800D02*
X157886400Y-114833400D01*
X156226409Y-121182791D02*
X157886400Y-119522800D01*
X156159200Y-121182791D02*
X156226409Y-121182791D01*
X149009100Y-114655600D02*
X149923500Y-114655600D01*
X148983700Y-114681000D02*
X149009100Y-114655600D01*
X148983700Y-114681000D02*
X148209000Y-114681000D01*
X148209000Y-114681000D02*
X147497800Y-114681000D01*
X147497800Y-114681000D02*
X147497800Y-114681000D01*
X154533600Y-115519200D02*
X154533600Y-116624400D01*
X154533600Y-116624400D02*
X156159200Y-118250000D01*
X153670000Y-114655600D02*
X154533600Y-115519200D01*
X149923500Y-114655600D02*
X153670000Y-114655600D01*
X156159200Y-95750000D02*
X157634300Y-94274900D01*
X156044900Y-89382600D02*
X157937200Y-91274900D01*
X132571500Y-89382600D02*
X156044900Y-89382600D01*
X125171200Y-96782900D02*
X132571500Y-89382600D01*
X125133100Y-96744800D02*
X125171200Y-96782900D01*
X122440700Y-96744800D02*
X125133100Y-96744800D01*
X157937200Y-93972000D02*
X156159200Y-95750000D01*
X157937200Y-91274900D02*
X157937200Y-93972000D01*
X127398800Y-101744800D02*
X125133100Y-101744800D01*
X129946400Y-104292400D02*
X127398800Y-101744800D01*
X133108700Y-104292400D02*
X129946400Y-104292400D01*
X125133100Y-101744800D02*
X122440700Y-101744800D01*
X137998200Y-109181900D02*
X133108700Y-104292400D01*
X151828500Y-109181900D02*
X137998200Y-109181900D01*
X157962600Y-103047800D02*
X151828500Y-109181900D01*
X157962600Y-100907100D02*
X157962600Y-103047800D01*
X156159200Y-99103700D02*
X157962600Y-100907100D01*
D15*
G36*
X165724427Y-85366549D02*
G01*
X165940309Y-85431728D01*
X166139421Y-85537598D01*
X166314171Y-85680121D01*
X166457917Y-85853880D01*
X166565172Y-86052243D01*
X166631855Y-86267661D01*
X166657100Y-86507854D01*
X166657101Y-133483214D01*
X166633450Y-133724430D01*
X166568272Y-133940309D01*
X166462402Y-134139421D01*
X166319877Y-134314174D01*
X166146121Y-134457917D01*
X165947757Y-134565172D01*
X165732339Y-134631855D01*
X165492146Y-134657100D01*
X117516776Y-134657100D01*
X117275570Y-134633450D01*
X117059691Y-134568272D01*
X116860579Y-134462402D01*
X116685826Y-134319877D01*
X116542083Y-134146121D01*
X116434828Y-133947757D01*
X116368145Y-133732339D01*
X116342900Y-133492146D01*
X116342900Y-121584160D01*
X120809700Y-121584160D01*
X120809700Y-121905440D01*
X120872378Y-122220545D01*
X120995326Y-122517368D01*
X121173819Y-122784502D01*
X121400998Y-123011681D01*
X121668132Y-123190174D01*
X121964955Y-123313122D01*
X122280060Y-123375800D01*
X122601340Y-123375800D01*
X122916445Y-123313122D01*
X123213268Y-123190174D01*
X123480402Y-123011681D01*
X123707581Y-122784502D01*
X123746804Y-122725800D01*
X123838457Y-122725800D01*
X128164556Y-127051899D01*
X126827543Y-127051899D01*
X125860850Y-126085207D01*
X125830128Y-126047772D01*
X125680751Y-125925182D01*
X125510329Y-125834089D01*
X125325410Y-125777995D01*
X125181287Y-125763800D01*
X125181286Y-125763800D01*
X125133100Y-125759054D01*
X125084914Y-125763800D01*
X123746804Y-125763800D01*
X123707581Y-125705098D01*
X123480402Y-125477919D01*
X123213268Y-125299426D01*
X122916445Y-125176478D01*
X122601340Y-125113800D01*
X122280060Y-125113800D01*
X121964955Y-125176478D01*
X121668132Y-125299426D01*
X121400998Y-125477919D01*
X121173819Y-125705098D01*
X120995326Y-125972232D01*
X120872378Y-126269055D01*
X120809700Y-126584160D01*
X120809700Y-126905440D01*
X120872378Y-127220545D01*
X120995326Y-127517368D01*
X121173819Y-127784502D01*
X121400998Y-128011681D01*
X121668132Y-128190174D01*
X121964955Y-128313122D01*
X122280060Y-128375800D01*
X122601340Y-128375800D01*
X122916445Y-128313122D01*
X123213268Y-128190174D01*
X123480402Y-128011681D01*
X123707581Y-127784502D01*
X123746804Y-127725800D01*
X124726757Y-127725800D01*
X125693453Y-128692497D01*
X125724171Y-128729927D01*
X125761600Y-128760644D01*
X125873548Y-128852517D01*
X126043970Y-128943610D01*
X126228889Y-128999704D01*
X126421198Y-129018645D01*
X126469385Y-129013899D01*
X132020756Y-129013899D01*
X135314655Y-132307799D01*
X135345372Y-132345228D01*
X135382801Y-132375945D01*
X135494749Y-132467818D01*
X135665171Y-132558911D01*
X135850090Y-132615005D01*
X136042400Y-132633946D01*
X136090586Y-132629200D01*
X153641987Y-132629200D01*
X153786110Y-132615005D01*
X153971029Y-132558911D01*
X154141451Y-132467818D01*
X154290828Y-132345228D01*
X154413418Y-132195851D01*
X154504511Y-132025429D01*
X154560605Y-131840510D01*
X154579546Y-131648200D01*
X154560605Y-131455890D01*
X154504511Y-131270971D01*
X154413418Y-131100549D01*
X154290828Y-130951172D01*
X154141451Y-130828582D01*
X153971029Y-130737489D01*
X153786110Y-130681395D01*
X153641987Y-130667200D01*
X136448744Y-130667200D01*
X133262543Y-127481000D01*
X134894757Y-127481000D01*
X137613350Y-130199593D01*
X137644072Y-130237028D01*
X137793449Y-130359618D01*
X137963871Y-130450711D01*
X138148790Y-130506805D01*
X138341099Y-130525746D01*
X138389286Y-130521000D01*
X156923814Y-130521000D01*
X156972000Y-130525746D01*
X157020186Y-130521000D01*
X157020187Y-130521000D01*
X157164310Y-130506805D01*
X157349229Y-130450711D01*
X157519651Y-130359618D01*
X157669028Y-130237028D01*
X157699750Y-130199593D01*
X158647598Y-129251746D01*
X158685028Y-129221028D01*
X158807618Y-129071651D01*
X158898711Y-128901229D01*
X158954805Y-128716310D01*
X158969000Y-128572187D01*
X158969000Y-128572186D01*
X158973746Y-128524000D01*
X158969000Y-128475814D01*
X158969000Y-126362386D01*
X158973746Y-126314200D01*
X158968945Y-126265450D01*
X158979295Y-126280941D01*
X159248259Y-126549905D01*
X159564529Y-126761230D01*
X159915948Y-126906792D01*
X160289013Y-126981000D01*
X160669387Y-126981000D01*
X161042452Y-126906792D01*
X161393871Y-126761230D01*
X161710141Y-126549905D01*
X161979105Y-126280941D01*
X162190430Y-125964671D01*
X162335992Y-125613252D01*
X162410200Y-125240187D01*
X162410200Y-124859813D01*
X162335992Y-124486748D01*
X162190430Y-124135329D01*
X161979105Y-123819059D01*
X161710141Y-123550095D01*
X161393871Y-123338770D01*
X161042452Y-123193208D01*
X160669387Y-123119000D01*
X160289013Y-123119000D01*
X159915948Y-123193208D01*
X159564529Y-123338770D01*
X159248259Y-123550095D01*
X158979295Y-123819059D01*
X158767970Y-124135329D01*
X158622408Y-124486748D01*
X158548200Y-124859813D01*
X158548200Y-125240187D01*
X158609499Y-125548355D01*
X157290200Y-124229057D01*
X157290200Y-124138606D01*
X157246736Y-123920100D01*
X157161479Y-123714271D01*
X157037705Y-123529030D01*
X156880170Y-123371495D01*
X156694929Y-123247721D01*
X156489100Y-123162464D01*
X156270594Y-123119000D01*
X156047806Y-123119000D01*
X155829300Y-123162464D01*
X155623471Y-123247721D01*
X155438230Y-123371495D01*
X155280695Y-123529030D01*
X155156921Y-123714271D01*
X155071664Y-123920100D01*
X155028200Y-124138606D01*
X155028200Y-124361394D01*
X155071664Y-124579900D01*
X155156921Y-124785729D01*
X155280695Y-124970970D01*
X155335914Y-125026189D01*
X155339582Y-125033051D01*
X155462172Y-125182428D01*
X155499607Y-125213150D01*
X156438944Y-126152487D01*
X156270594Y-126119000D01*
X156047806Y-126119000D01*
X155829300Y-126162464D01*
X155623471Y-126247721D01*
X155438230Y-126371495D01*
X155280695Y-126529030D01*
X155156921Y-126714271D01*
X155071664Y-126920100D01*
X155028200Y-127138606D01*
X155028200Y-127361394D01*
X155071664Y-127579900D01*
X155156921Y-127785729D01*
X155280695Y-127970970D01*
X155438230Y-128128505D01*
X155623471Y-128252279D01*
X155829300Y-128337536D01*
X156047806Y-128381000D01*
X156270594Y-128381000D01*
X156489100Y-128337536D01*
X156694929Y-128252279D01*
X156880170Y-128128505D01*
X157007000Y-128001675D01*
X157007000Y-128117656D01*
X156565657Y-128559000D01*
X138747443Y-128559000D01*
X136759903Y-126571460D01*
X137916600Y-126571460D01*
X137916600Y-126892740D01*
X137979278Y-127207845D01*
X138102226Y-127504668D01*
X138280719Y-127771802D01*
X138507898Y-127998981D01*
X138775032Y-128177474D01*
X139071855Y-128300422D01*
X139386960Y-128363100D01*
X139708240Y-128363100D01*
X140023345Y-128300422D01*
X140320168Y-128177474D01*
X140587302Y-127998981D01*
X140814481Y-127771802D01*
X140992974Y-127504668D01*
X141115922Y-127207845D01*
X141129694Y-127138606D01*
X152028200Y-127138606D01*
X152028200Y-127361394D01*
X152071664Y-127579900D01*
X152156921Y-127785729D01*
X152280695Y-127970970D01*
X152438230Y-128128505D01*
X152623471Y-128252279D01*
X152829300Y-128337536D01*
X153047806Y-128381000D01*
X153270594Y-128381000D01*
X153489100Y-128337536D01*
X153694929Y-128252279D01*
X153880170Y-128128505D01*
X154037705Y-127970970D01*
X154161479Y-127785729D01*
X154246736Y-127579900D01*
X154290200Y-127361394D01*
X154290200Y-127138606D01*
X154246736Y-126920100D01*
X154161479Y-126714271D01*
X154037705Y-126529030D01*
X153880170Y-126371495D01*
X153694929Y-126247721D01*
X153489100Y-126162464D01*
X153270594Y-126119000D01*
X153047806Y-126119000D01*
X152829300Y-126162464D01*
X152623471Y-126247721D01*
X152438230Y-126371495D01*
X152280695Y-126529030D01*
X152156921Y-126714271D01*
X152071664Y-126920100D01*
X152028200Y-127138606D01*
X141129694Y-127138606D01*
X141178600Y-126892740D01*
X141178600Y-126571460D01*
X141115922Y-126256355D01*
X140992974Y-125959532D01*
X140814481Y-125692398D01*
X140587302Y-125465219D01*
X140320168Y-125286726D01*
X140023345Y-125163778D01*
X139708240Y-125101100D01*
X139386960Y-125101100D01*
X139071855Y-125163778D01*
X138775032Y-125286726D01*
X138507898Y-125465219D01*
X138280719Y-125692398D01*
X138102226Y-125959532D01*
X137979278Y-126256355D01*
X137916600Y-126571460D01*
X136759903Y-126571460D01*
X136028850Y-125840407D01*
X135998128Y-125802972D01*
X135848751Y-125680382D01*
X135678329Y-125589289D01*
X135493410Y-125533195D01*
X135349287Y-125519000D01*
X135349286Y-125519000D01*
X135301100Y-125514254D01*
X135252914Y-125519000D01*
X129406343Y-125519000D01*
X128025949Y-124138606D01*
X152028200Y-124138606D01*
X152028200Y-124361394D01*
X152071664Y-124579900D01*
X152156921Y-124785729D01*
X152280695Y-124970970D01*
X152438230Y-125128505D01*
X152623471Y-125252279D01*
X152829300Y-125337536D01*
X153047806Y-125381000D01*
X153270594Y-125381000D01*
X153489100Y-125337536D01*
X153694929Y-125252279D01*
X153880170Y-125128505D01*
X154037705Y-124970970D01*
X154161479Y-124785729D01*
X154246736Y-124579900D01*
X154290200Y-124361394D01*
X154290200Y-124138606D01*
X154246736Y-123920100D01*
X154161479Y-123714271D01*
X154037705Y-123529030D01*
X153880170Y-123371495D01*
X153694929Y-123247721D01*
X153489100Y-123162464D01*
X153270594Y-123119000D01*
X153047806Y-123119000D01*
X152829300Y-123162464D01*
X152623471Y-123247721D01*
X152438230Y-123371495D01*
X152280695Y-123529030D01*
X152156921Y-123714271D01*
X152071664Y-123920100D01*
X152028200Y-124138606D01*
X128025949Y-124138606D01*
X125692232Y-121804889D01*
X129519000Y-121804889D01*
X129519000Y-122195111D01*
X129595129Y-122577836D01*
X129744461Y-122938355D01*
X129961257Y-123262814D01*
X130237186Y-123538743D01*
X130561645Y-123755539D01*
X130922164Y-123904871D01*
X131304889Y-123981000D01*
X131695111Y-123981000D01*
X132077836Y-123904871D01*
X132438355Y-123755539D01*
X132762814Y-123538743D01*
X133038743Y-123262814D01*
X133255539Y-122938355D01*
X133404871Y-122577836D01*
X133481000Y-122195111D01*
X133481000Y-121804889D01*
X133434568Y-121571460D01*
X137916600Y-121571460D01*
X137916600Y-121892740D01*
X137979278Y-122207845D01*
X138102226Y-122504668D01*
X138280719Y-122771802D01*
X138507898Y-122998981D01*
X138775032Y-123177474D01*
X139071855Y-123300422D01*
X139386960Y-123363100D01*
X139708240Y-123363100D01*
X140023345Y-123300422D01*
X140320168Y-123177474D01*
X140587302Y-122998981D01*
X140814481Y-122771802D01*
X140992974Y-122504668D01*
X141115922Y-122207845D01*
X141178600Y-121892740D01*
X141178600Y-121571460D01*
X141115922Y-121256355D01*
X141067149Y-121138606D01*
X152028200Y-121138606D01*
X152028200Y-121361394D01*
X152071664Y-121579900D01*
X152156921Y-121785729D01*
X152280695Y-121970970D01*
X152438230Y-122128505D01*
X152623471Y-122252279D01*
X152829300Y-122337536D01*
X153047806Y-122381000D01*
X153270594Y-122381000D01*
X153489100Y-122337536D01*
X153694929Y-122252279D01*
X153880170Y-122128505D01*
X154037705Y-121970970D01*
X154161479Y-121785729D01*
X154246736Y-121579900D01*
X154290200Y-121361394D01*
X154290200Y-121138606D01*
X154246736Y-120920100D01*
X154161479Y-120714271D01*
X154037705Y-120529030D01*
X153880170Y-120371495D01*
X153694929Y-120247721D01*
X153489100Y-120162464D01*
X153270594Y-120119000D01*
X153047806Y-120119000D01*
X152829300Y-120162464D01*
X152623471Y-120247721D01*
X152438230Y-120371495D01*
X152280695Y-120529030D01*
X152156921Y-120714271D01*
X152071664Y-120920100D01*
X152028200Y-121138606D01*
X141067149Y-121138606D01*
X140992974Y-120959532D01*
X140814481Y-120692398D01*
X140587302Y-120465219D01*
X140320168Y-120286726D01*
X140023345Y-120163778D01*
X139708240Y-120101100D01*
X139386960Y-120101100D01*
X139071855Y-120163778D01*
X138775032Y-120286726D01*
X138507898Y-120465219D01*
X138280719Y-120692398D01*
X138102226Y-120959532D01*
X137979278Y-121256355D01*
X137916600Y-121571460D01*
X133434568Y-121571460D01*
X133404871Y-121422164D01*
X133255539Y-121061645D01*
X133038743Y-120737186D01*
X132762814Y-120461257D01*
X132438355Y-120244461D01*
X132077836Y-120095129D01*
X131695111Y-120019000D01*
X131304889Y-120019000D01*
X130922164Y-120095129D01*
X130561645Y-120244461D01*
X130237186Y-120461257D01*
X129961257Y-120737186D01*
X129744461Y-121061645D01*
X129595129Y-121422164D01*
X129519000Y-121804889D01*
X125692232Y-121804889D01*
X124969950Y-121082607D01*
X124939228Y-121045172D01*
X124789851Y-120922582D01*
X124619429Y-120831489D01*
X124434510Y-120775395D01*
X124290387Y-120761200D01*
X124290386Y-120761200D01*
X124242200Y-120756454D01*
X124226633Y-120757987D01*
X124211066Y-120756454D01*
X124162880Y-120761200D01*
X124162879Y-120761200D01*
X124136481Y-120763800D01*
X123746804Y-120763800D01*
X123707581Y-120705098D01*
X123480402Y-120477919D01*
X123213268Y-120299426D01*
X122916445Y-120176478D01*
X122601340Y-120113800D01*
X122280060Y-120113800D01*
X121964955Y-120176478D01*
X121668132Y-120299426D01*
X121400998Y-120477919D01*
X121173819Y-120705098D01*
X120995326Y-120972232D01*
X120872378Y-121269055D01*
X120809700Y-121584160D01*
X116342900Y-121584160D01*
X116342900Y-111584160D01*
X120809700Y-111584160D01*
X120809700Y-111905440D01*
X120872378Y-112220545D01*
X120995326Y-112517368D01*
X121173819Y-112784502D01*
X121400998Y-113011681D01*
X121668132Y-113190174D01*
X121964955Y-113313122D01*
X122280060Y-113375800D01*
X122601340Y-113375800D01*
X122916445Y-113313122D01*
X123213268Y-113190174D01*
X123480402Y-113011681D01*
X123707581Y-112784502D01*
X123886074Y-112517368D01*
X124009022Y-112220545D01*
X124071700Y-111905440D01*
X124071700Y-111584160D01*
X124009022Y-111269055D01*
X123886074Y-110972232D01*
X123707581Y-110705098D01*
X123480402Y-110477919D01*
X123213268Y-110299426D01*
X122916445Y-110176478D01*
X122601340Y-110113800D01*
X122280060Y-110113800D01*
X121964955Y-110176478D01*
X121668132Y-110299426D01*
X121400998Y-110477919D01*
X121173819Y-110705098D01*
X120995326Y-110972232D01*
X120872378Y-111269055D01*
X120809700Y-111584160D01*
X116342900Y-111584160D01*
X116342900Y-106584160D01*
X120809700Y-106584160D01*
X120809700Y-106905440D01*
X120872378Y-107220545D01*
X120995326Y-107517368D01*
X121173819Y-107784502D01*
X121400998Y-108011681D01*
X121668132Y-108190174D01*
X121964955Y-108313122D01*
X122280060Y-108375800D01*
X122601340Y-108375800D01*
X122916445Y-108313122D01*
X123213268Y-108190174D01*
X123480402Y-108011681D01*
X123707581Y-107784502D01*
X123886074Y-107517368D01*
X124009022Y-107220545D01*
X124071700Y-106905440D01*
X124071700Y-106584160D01*
X124009022Y-106269055D01*
X123886074Y-105972232D01*
X123707581Y-105705098D01*
X123480402Y-105477919D01*
X123213268Y-105299426D01*
X122916445Y-105176478D01*
X122601340Y-105113800D01*
X122280060Y-105113800D01*
X121964955Y-105176478D01*
X121668132Y-105299426D01*
X121400998Y-105477919D01*
X121173819Y-105705098D01*
X120995326Y-105972232D01*
X120872378Y-106269055D01*
X120809700Y-106584160D01*
X116342900Y-106584160D01*
X116342900Y-101584160D01*
X120809700Y-101584160D01*
X120809700Y-101905440D01*
X120872378Y-102220545D01*
X120995326Y-102517368D01*
X121173819Y-102784502D01*
X121400998Y-103011681D01*
X121668132Y-103190174D01*
X121964955Y-103313122D01*
X122280060Y-103375800D01*
X122601340Y-103375800D01*
X122916445Y-103313122D01*
X123213268Y-103190174D01*
X123480402Y-103011681D01*
X123707581Y-102784502D01*
X123746804Y-102725800D01*
X126992457Y-102725800D01*
X129218650Y-104951993D01*
X129249372Y-104989428D01*
X129398749Y-105112018D01*
X129569171Y-105203111D01*
X129754090Y-105259205D01*
X129898213Y-105273400D01*
X129898215Y-105273400D01*
X129946399Y-105278146D01*
X129994583Y-105273400D01*
X132702357Y-105273400D01*
X137270450Y-109841493D01*
X137301172Y-109878928D01*
X137450549Y-110001518D01*
X137620971Y-110092611D01*
X137805890Y-110148705D01*
X137998199Y-110167646D01*
X138046386Y-110162900D01*
X139076269Y-110162900D01*
X139071855Y-110163778D01*
X138775032Y-110286726D01*
X138507898Y-110465219D01*
X138280719Y-110692398D01*
X138102226Y-110959532D01*
X137979278Y-111256355D01*
X137916600Y-111571460D01*
X137916600Y-111892740D01*
X137979278Y-112207845D01*
X138102226Y-112504668D01*
X138280719Y-112771802D01*
X138507898Y-112998981D01*
X138701737Y-113128500D01*
X135315883Y-113128500D01*
X135267699Y-113123754D01*
X135219515Y-113128500D01*
X135219513Y-113128500D01*
X135075390Y-113142695D01*
X134890471Y-113198789D01*
X134720049Y-113289882D01*
X134570672Y-113412472D01*
X134539950Y-113449907D01*
X133883457Y-114106400D01*
X126838687Y-114106400D01*
X126790500Y-114101654D01*
X126742313Y-114106400D01*
X126598190Y-114120595D01*
X126413271Y-114176689D01*
X126242849Y-114267782D01*
X126093472Y-114390372D01*
X126062755Y-114427802D01*
X124726757Y-115763800D01*
X123746804Y-115763800D01*
X123707581Y-115705098D01*
X123480402Y-115477919D01*
X123213268Y-115299426D01*
X122916445Y-115176478D01*
X122601340Y-115113800D01*
X122280060Y-115113800D01*
X121964955Y-115176478D01*
X121668132Y-115299426D01*
X121400998Y-115477919D01*
X121173819Y-115705098D01*
X120995326Y-115972232D01*
X120872378Y-116269055D01*
X120809700Y-116584160D01*
X120809700Y-116905440D01*
X120872378Y-117220545D01*
X120995326Y-117517368D01*
X121173819Y-117784502D01*
X121400998Y-118011681D01*
X121668132Y-118190174D01*
X121964955Y-118313122D01*
X122280060Y-118375800D01*
X122601340Y-118375800D01*
X122916445Y-118313122D01*
X123213268Y-118190174D01*
X123480402Y-118011681D01*
X123707581Y-117784502D01*
X123746804Y-117725800D01*
X125084914Y-117725800D01*
X125133100Y-117730546D01*
X125181286Y-117725800D01*
X125181287Y-117725800D01*
X125325410Y-117711605D01*
X125510329Y-117655511D01*
X125680751Y-117564418D01*
X125830128Y-117441828D01*
X125860850Y-117404393D01*
X126693783Y-116571460D01*
X137916600Y-116571460D01*
X137916600Y-116892740D01*
X137979278Y-117207845D01*
X138102226Y-117504668D01*
X138280719Y-117771802D01*
X138507898Y-117998981D01*
X138775032Y-118177474D01*
X139071855Y-118300422D01*
X139386960Y-118363100D01*
X139708240Y-118363100D01*
X140023345Y-118300422D01*
X140320168Y-118177474D01*
X140378338Y-118138606D01*
X152028200Y-118138606D01*
X152028200Y-118361394D01*
X152071664Y-118579900D01*
X152156921Y-118785729D01*
X152280695Y-118970970D01*
X152438230Y-119128505D01*
X152623471Y-119252279D01*
X152829300Y-119337536D01*
X153047806Y-119381000D01*
X153270594Y-119381000D01*
X153489100Y-119337536D01*
X153694929Y-119252279D01*
X153880170Y-119128505D01*
X154037705Y-118970970D01*
X154161479Y-118785729D01*
X154246736Y-118579900D01*
X154290200Y-118361394D01*
X154290200Y-118138606D01*
X154246736Y-117920100D01*
X154161479Y-117714271D01*
X154037705Y-117529030D01*
X153880170Y-117371495D01*
X153694929Y-117247721D01*
X153489100Y-117162464D01*
X153270594Y-117119000D01*
X153047806Y-117119000D01*
X152829300Y-117162464D01*
X152623471Y-117247721D01*
X152438230Y-117371495D01*
X152280695Y-117529030D01*
X152156921Y-117714271D01*
X152071664Y-117920100D01*
X152028200Y-118138606D01*
X140378338Y-118138606D01*
X140587302Y-117998981D01*
X140814481Y-117771802D01*
X140992974Y-117504668D01*
X141115922Y-117207845D01*
X141178600Y-116892740D01*
X141178600Y-116571460D01*
X141115922Y-116256355D01*
X140992974Y-115959532D01*
X140814481Y-115692398D01*
X140587302Y-115465219D01*
X140320168Y-115286726D01*
X140023345Y-115163778D01*
X139708240Y-115101100D01*
X139386960Y-115101100D01*
X139071855Y-115163778D01*
X138775032Y-115286726D01*
X138507898Y-115465219D01*
X138280719Y-115692398D01*
X138102226Y-115959532D01*
X137979278Y-116256355D01*
X137916600Y-116571460D01*
X126693783Y-116571460D01*
X127196844Y-116068400D01*
X134241614Y-116068400D01*
X134289800Y-116073146D01*
X134337986Y-116068400D01*
X134337987Y-116068400D01*
X134482110Y-116054205D01*
X134667029Y-115998111D01*
X134837451Y-115907018D01*
X134986828Y-115784428D01*
X135017550Y-115746993D01*
X135674043Y-115090500D01*
X145201714Y-115090500D01*
X145249900Y-115095246D01*
X145298086Y-115090500D01*
X145298087Y-115090500D01*
X145442210Y-115076305D01*
X145627129Y-115020211D01*
X145797551Y-114929118D01*
X145946928Y-114806528D01*
X145977650Y-114769093D01*
X148475644Y-112271100D01*
X153936757Y-112271100D01*
X156905401Y-115239745D01*
X156905400Y-117396725D01*
X156880170Y-117371495D01*
X156694929Y-117247721D01*
X156489100Y-117162464D01*
X156451536Y-117154992D01*
X155514600Y-116218057D01*
X155514600Y-115567386D01*
X155519346Y-115519200D01*
X155500405Y-115326890D01*
X155444311Y-115141971D01*
X155353218Y-114971549D01*
X155261345Y-114859601D01*
X155230628Y-114822172D01*
X155193198Y-114791454D01*
X154397750Y-113996006D01*
X154367028Y-113958572D01*
X154217651Y-113835982D01*
X154047229Y-113744889D01*
X153862310Y-113688795D01*
X153718187Y-113674600D01*
X153718186Y-113674600D01*
X153670000Y-113669854D01*
X153621814Y-113674600D01*
X149057286Y-113674600D01*
X149009099Y-113669854D01*
X148960913Y-113674600D01*
X148816790Y-113688795D01*
X148779852Y-113700000D01*
X147449613Y-113700000D01*
X147305490Y-113714195D01*
X147120571Y-113770289D01*
X146950149Y-113861382D01*
X146800772Y-113983972D01*
X146678182Y-114133349D01*
X146587089Y-114303771D01*
X146530995Y-114488690D01*
X146512054Y-114681000D01*
X146530995Y-114873310D01*
X146587089Y-115058229D01*
X146678182Y-115228651D01*
X146800772Y-115378028D01*
X146950149Y-115500618D01*
X147120571Y-115591711D01*
X147305490Y-115647805D01*
X147449613Y-115662000D01*
X148935514Y-115662000D01*
X148983700Y-115666746D01*
X149031886Y-115662000D01*
X149031887Y-115662000D01*
X149176010Y-115647805D01*
X149212948Y-115636600D01*
X153263657Y-115636600D01*
X153552600Y-115925544D01*
X153552601Y-116576204D01*
X153547854Y-116624400D01*
X153566795Y-116816709D01*
X153622889Y-117001628D01*
X153713982Y-117172050D01*
X153713983Y-117172051D01*
X153836573Y-117321428D01*
X153874002Y-117352145D01*
X155064192Y-118542336D01*
X155071664Y-118579900D01*
X155156921Y-118785729D01*
X155280695Y-118970970D01*
X155438230Y-119128505D01*
X155623471Y-119252279D01*
X155829300Y-119337536D01*
X156047806Y-119381000D01*
X156270594Y-119381000D01*
X156489100Y-119337536D01*
X156694929Y-119252279D01*
X156880170Y-119128505D01*
X156905400Y-119103275D01*
X156905400Y-119116456D01*
X155866865Y-120154992D01*
X155829300Y-120162464D01*
X155623471Y-120247721D01*
X155438230Y-120371495D01*
X155280695Y-120529030D01*
X155156921Y-120714271D01*
X155071664Y-120920100D01*
X155028200Y-121138606D01*
X155028200Y-121361394D01*
X155071664Y-121579900D01*
X155156921Y-121785729D01*
X155280695Y-121970970D01*
X155438230Y-122128505D01*
X155623471Y-122252279D01*
X155829300Y-122337536D01*
X156047806Y-122381000D01*
X156270594Y-122381000D01*
X156489100Y-122337536D01*
X156694929Y-122252279D01*
X156880170Y-122128505D01*
X157037705Y-121970970D01*
X157161479Y-121785729D01*
X157246736Y-121579900D01*
X157254208Y-121542335D01*
X158545998Y-120250545D01*
X158548200Y-120248739D01*
X158548200Y-120540187D01*
X158622408Y-120913252D01*
X158767970Y-121264671D01*
X158979295Y-121580941D01*
X159248259Y-121849905D01*
X159564529Y-122061230D01*
X159915948Y-122206792D01*
X160289013Y-122281000D01*
X160669387Y-122281000D01*
X161042452Y-122206792D01*
X161393871Y-122061230D01*
X161710141Y-121849905D01*
X161979105Y-121580941D01*
X162190430Y-121264671D01*
X162335992Y-120913252D01*
X162410200Y-120540187D01*
X162410200Y-120159813D01*
X162335992Y-119786748D01*
X162190430Y-119435329D01*
X161979105Y-119119059D01*
X161710141Y-118850095D01*
X161393871Y-118638770D01*
X161042452Y-118493208D01*
X160669387Y-118419000D01*
X160289013Y-118419000D01*
X159915948Y-118493208D01*
X159564529Y-118638770D01*
X159248259Y-118850095D01*
X158979295Y-119119059D01*
X158867400Y-119286522D01*
X158867400Y-114881586D01*
X158872146Y-114833400D01*
X158853205Y-114641090D01*
X158797111Y-114456171D01*
X158706018Y-114285749D01*
X158614145Y-114173801D01*
X158583428Y-114136372D01*
X158545999Y-114105655D01*
X155070850Y-110630507D01*
X155040128Y-110593072D01*
X154890751Y-110470482D01*
X154720329Y-110379389D01*
X154535410Y-110323295D01*
X154391287Y-110309100D01*
X154391286Y-110309100D01*
X154343100Y-110304354D01*
X154294914Y-110309100D01*
X148117486Y-110309100D01*
X148069300Y-110304354D01*
X148021113Y-110309100D01*
X147876990Y-110323295D01*
X147692071Y-110379389D01*
X147521649Y-110470482D01*
X147372272Y-110593072D01*
X147341555Y-110630501D01*
X144843557Y-113128500D01*
X140393463Y-113128500D01*
X140587302Y-112998981D01*
X140814481Y-112771802D01*
X140992974Y-112504668D01*
X141115922Y-112207845D01*
X141178600Y-111892740D01*
X141178600Y-111571460D01*
X141115922Y-111256355D01*
X140992974Y-110959532D01*
X140814481Y-110692398D01*
X140587302Y-110465219D01*
X140320168Y-110286726D01*
X140023345Y-110163778D01*
X140018931Y-110162900D01*
X151780314Y-110162900D01*
X151828500Y-110167646D01*
X151876686Y-110162900D01*
X151876687Y-110162900D01*
X152020810Y-110148705D01*
X152205729Y-110092611D01*
X152376151Y-110001518D01*
X152525528Y-109878928D01*
X152556250Y-109841493D01*
X152592854Y-109804889D01*
X158019000Y-109804889D01*
X158019000Y-110195111D01*
X158095129Y-110577836D01*
X158244461Y-110938355D01*
X158461257Y-111262814D01*
X158737186Y-111538743D01*
X159061645Y-111755539D01*
X159422164Y-111904871D01*
X159804889Y-111981000D01*
X160195111Y-111981000D01*
X160577836Y-111904871D01*
X160938355Y-111755539D01*
X161262814Y-111538743D01*
X161538743Y-111262814D01*
X161755539Y-110938355D01*
X161904871Y-110577836D01*
X161981000Y-110195111D01*
X161981000Y-109804889D01*
X161904871Y-109422164D01*
X161755539Y-109061645D01*
X161538743Y-108737186D01*
X161262814Y-108461257D01*
X160938355Y-108244461D01*
X160577836Y-108095129D01*
X160195111Y-108019000D01*
X159804889Y-108019000D01*
X159422164Y-108095129D01*
X159061645Y-108244461D01*
X158737186Y-108461257D01*
X158461257Y-108737186D01*
X158244461Y-109061645D01*
X158095129Y-109422164D01*
X158019000Y-109804889D01*
X152592854Y-109804889D01*
X158622193Y-103775550D01*
X158659628Y-103744828D01*
X158782218Y-103595451D01*
X158873311Y-103425029D01*
X158929405Y-103240110D01*
X158943600Y-103095987D01*
X158943600Y-103095985D01*
X158948346Y-103047801D01*
X158943600Y-102999617D01*
X158943600Y-100955286D01*
X158948346Y-100907100D01*
X158929405Y-100714790D01*
X158924675Y-100699196D01*
X158979295Y-100780941D01*
X159248259Y-101049905D01*
X159564529Y-101261230D01*
X159915948Y-101406792D01*
X160289013Y-101481000D01*
X160669387Y-101481000D01*
X161042452Y-101406792D01*
X161393871Y-101261230D01*
X161710141Y-101049905D01*
X161979105Y-100780941D01*
X162190430Y-100464671D01*
X162335992Y-100113252D01*
X162410200Y-99740187D01*
X162410200Y-99359813D01*
X162335992Y-98986748D01*
X162190430Y-98635329D01*
X161979105Y-98319059D01*
X161710141Y-98050095D01*
X161393871Y-97838770D01*
X161042452Y-97693208D01*
X160669387Y-97619000D01*
X160289013Y-97619000D01*
X159915948Y-97693208D01*
X159564529Y-97838770D01*
X159248259Y-98050095D01*
X158979295Y-98319059D01*
X158767970Y-98635329D01*
X158622408Y-98986748D01*
X158548200Y-99359813D01*
X158548200Y-99740187D01*
X158622408Y-100113252D01*
X158665451Y-100217167D01*
X158659628Y-100210072D01*
X158622199Y-100179355D01*
X157290200Y-98847357D01*
X157290200Y-98638606D01*
X157246736Y-98420100D01*
X157161479Y-98214271D01*
X157037705Y-98029030D01*
X156880170Y-97871495D01*
X156694929Y-97747721D01*
X156489100Y-97662464D01*
X156270594Y-97619000D01*
X156047806Y-97619000D01*
X155829300Y-97662464D01*
X155623471Y-97747721D01*
X155438230Y-97871495D01*
X155280695Y-98029030D01*
X155156921Y-98214271D01*
X155071664Y-98420100D01*
X155028200Y-98638606D01*
X155028200Y-98861394D01*
X155071664Y-99079900D01*
X155156921Y-99285729D01*
X155216179Y-99374415D01*
X155248489Y-99480928D01*
X155339582Y-99651350D01*
X155431455Y-99763298D01*
X156291269Y-100623113D01*
X156270594Y-100619000D01*
X156047806Y-100619000D01*
X155829300Y-100662464D01*
X155623471Y-100747721D01*
X155438230Y-100871495D01*
X155280695Y-101029030D01*
X155156921Y-101214271D01*
X155071664Y-101420100D01*
X155028200Y-101638606D01*
X155028200Y-101861394D01*
X155071664Y-102079900D01*
X155156921Y-102285729D01*
X155280695Y-102470970D01*
X155438230Y-102628505D01*
X155623471Y-102752279D01*
X155829300Y-102837536D01*
X156047806Y-102881000D01*
X156270594Y-102881000D01*
X156489100Y-102837536D01*
X156694929Y-102752279D01*
X156880170Y-102628505D01*
X156981601Y-102527074D01*
X156981601Y-102641456D01*
X151422157Y-108200900D01*
X140263613Y-108200900D01*
X140320168Y-108177474D01*
X140587302Y-107998981D01*
X140814481Y-107771802D01*
X140992974Y-107504668D01*
X141115922Y-107207845D01*
X141178600Y-106892740D01*
X141178600Y-106571460D01*
X141115922Y-106256355D01*
X140992974Y-105959532D01*
X140814481Y-105692398D01*
X140587302Y-105465219D01*
X140320168Y-105286726D01*
X140023345Y-105163778D01*
X139708240Y-105101100D01*
X139386960Y-105101100D01*
X139071855Y-105163778D01*
X138775032Y-105286726D01*
X138507898Y-105465219D01*
X138280719Y-105692398D01*
X138102226Y-105959532D01*
X137979278Y-106256355D01*
X137916600Y-106571460D01*
X137916600Y-106892740D01*
X137979278Y-107207845D01*
X138102226Y-107504668D01*
X138280719Y-107771802D01*
X138507898Y-107998981D01*
X138775032Y-108177474D01*
X138831587Y-108200900D01*
X138404543Y-108200900D01*
X133836450Y-103632807D01*
X133805728Y-103595372D01*
X133656351Y-103472782D01*
X133485929Y-103381689D01*
X133301010Y-103325595D01*
X133156887Y-103311400D01*
X133156886Y-103311400D01*
X133108700Y-103306654D01*
X133060514Y-103311400D01*
X130352743Y-103311400D01*
X128612803Y-101571460D01*
X137916600Y-101571460D01*
X137916600Y-101892740D01*
X137979278Y-102207845D01*
X138102226Y-102504668D01*
X138280719Y-102771802D01*
X138507898Y-102998981D01*
X138775032Y-103177474D01*
X139071855Y-103300422D01*
X139386960Y-103363100D01*
X139708240Y-103363100D01*
X140023345Y-103300422D01*
X140320168Y-103177474D01*
X140587302Y-102998981D01*
X140814481Y-102771802D01*
X140992974Y-102504668D01*
X141115922Y-102207845D01*
X141178600Y-101892740D01*
X141178600Y-101638606D01*
X152028200Y-101638606D01*
X152028200Y-101861394D01*
X152071664Y-102079900D01*
X152156921Y-102285729D01*
X152280695Y-102470970D01*
X152438230Y-102628505D01*
X152623471Y-102752279D01*
X152829300Y-102837536D01*
X153047806Y-102881000D01*
X153270594Y-102881000D01*
X153489100Y-102837536D01*
X153694929Y-102752279D01*
X153880170Y-102628505D01*
X154037705Y-102470970D01*
X154161479Y-102285729D01*
X154246736Y-102079900D01*
X154290200Y-101861394D01*
X154290200Y-101638606D01*
X154246736Y-101420100D01*
X154161479Y-101214271D01*
X154037705Y-101029030D01*
X153880170Y-100871495D01*
X153694929Y-100747721D01*
X153489100Y-100662464D01*
X153270594Y-100619000D01*
X153047806Y-100619000D01*
X152829300Y-100662464D01*
X152623471Y-100747721D01*
X152438230Y-100871495D01*
X152280695Y-101029030D01*
X152156921Y-101214271D01*
X152071664Y-101420100D01*
X152028200Y-101638606D01*
X141178600Y-101638606D01*
X141178600Y-101571460D01*
X141115922Y-101256355D01*
X140992974Y-100959532D01*
X140814481Y-100692398D01*
X140587302Y-100465219D01*
X140320168Y-100286726D01*
X140023345Y-100163778D01*
X139708240Y-100101100D01*
X139386960Y-100101100D01*
X139071855Y-100163778D01*
X138775032Y-100286726D01*
X138507898Y-100465219D01*
X138280719Y-100692398D01*
X138102226Y-100959532D01*
X137979278Y-101256355D01*
X137916600Y-101571460D01*
X128612803Y-101571460D01*
X128126550Y-101085207D01*
X128095828Y-101047772D01*
X127946451Y-100925182D01*
X127776029Y-100834089D01*
X127591110Y-100777995D01*
X127446987Y-100763800D01*
X127446986Y-100763800D01*
X127398800Y-100759054D01*
X127350614Y-100763800D01*
X123746804Y-100763800D01*
X123707581Y-100705098D01*
X123480402Y-100477919D01*
X123213268Y-100299426D01*
X122916445Y-100176478D01*
X122601340Y-100113800D01*
X122280060Y-100113800D01*
X121964955Y-100176478D01*
X121668132Y-100299426D01*
X121400998Y-100477919D01*
X121173819Y-100705098D01*
X120995326Y-100972232D01*
X120872378Y-101269055D01*
X120809700Y-101584160D01*
X116342900Y-101584160D01*
X116342900Y-96584160D01*
X120809700Y-96584160D01*
X120809700Y-96905440D01*
X120872378Y-97220545D01*
X120995326Y-97517368D01*
X121173819Y-97784502D01*
X121400998Y-98011681D01*
X121668132Y-98190174D01*
X121964955Y-98313122D01*
X122280060Y-98375800D01*
X122601340Y-98375800D01*
X122916445Y-98313122D01*
X123213268Y-98190174D01*
X123480402Y-98011681D01*
X123687194Y-97804889D01*
X129519000Y-97804889D01*
X129519000Y-98195111D01*
X129595129Y-98577836D01*
X129744461Y-98938355D01*
X129961257Y-99262814D01*
X130237186Y-99538743D01*
X130561645Y-99755539D01*
X130922164Y-99904871D01*
X131304889Y-99981000D01*
X131695111Y-99981000D01*
X132077836Y-99904871D01*
X132438355Y-99755539D01*
X132762814Y-99538743D01*
X133038743Y-99262814D01*
X133255539Y-98938355D01*
X133379699Y-98638606D01*
X152028200Y-98638606D01*
X152028200Y-98861394D01*
X152071664Y-99079900D01*
X152156921Y-99285729D01*
X152280695Y-99470970D01*
X152438230Y-99628505D01*
X152623471Y-99752279D01*
X152829300Y-99837536D01*
X153047806Y-99881000D01*
X153270594Y-99881000D01*
X153489100Y-99837536D01*
X153694929Y-99752279D01*
X153880170Y-99628505D01*
X154037705Y-99470970D01*
X154161479Y-99285729D01*
X154246736Y-99079900D01*
X154290200Y-98861394D01*
X154290200Y-98638606D01*
X154246736Y-98420100D01*
X154161479Y-98214271D01*
X154037705Y-98029030D01*
X153880170Y-97871495D01*
X153694929Y-97747721D01*
X153489100Y-97662464D01*
X153270594Y-97619000D01*
X153047806Y-97619000D01*
X152829300Y-97662464D01*
X152623471Y-97747721D01*
X152438230Y-97871495D01*
X152280695Y-98029030D01*
X152156921Y-98214271D01*
X152071664Y-98420100D01*
X152028200Y-98638606D01*
X133379699Y-98638606D01*
X133404871Y-98577836D01*
X133481000Y-98195111D01*
X133481000Y-97804889D01*
X133404871Y-97422164D01*
X133255539Y-97061645D01*
X133038743Y-96737186D01*
X132873017Y-96571460D01*
X137916600Y-96571460D01*
X137916600Y-96892740D01*
X137979278Y-97207845D01*
X138102226Y-97504668D01*
X138280719Y-97771802D01*
X138507898Y-97998981D01*
X138775032Y-98177474D01*
X139071855Y-98300422D01*
X139386960Y-98363100D01*
X139708240Y-98363100D01*
X140023345Y-98300422D01*
X140320168Y-98177474D01*
X140587302Y-97998981D01*
X140814481Y-97771802D01*
X140992974Y-97504668D01*
X141115922Y-97207845D01*
X141178600Y-96892740D01*
X141178600Y-96571460D01*
X141115922Y-96256355D01*
X140992974Y-95959532D01*
X140814481Y-95692398D01*
X140760689Y-95638606D01*
X152028200Y-95638606D01*
X152028200Y-95861394D01*
X152071664Y-96079900D01*
X152156921Y-96285729D01*
X152280695Y-96470970D01*
X152438230Y-96628505D01*
X152623471Y-96752279D01*
X152829300Y-96837536D01*
X153047806Y-96881000D01*
X153270594Y-96881000D01*
X153489100Y-96837536D01*
X153694929Y-96752279D01*
X153880170Y-96628505D01*
X154037705Y-96470970D01*
X154161479Y-96285729D01*
X154246736Y-96079900D01*
X154290200Y-95861394D01*
X154290200Y-95638606D01*
X154246736Y-95420100D01*
X154161479Y-95214271D01*
X154037705Y-95029030D01*
X153880170Y-94871495D01*
X153694929Y-94747721D01*
X153489100Y-94662464D01*
X153270594Y-94619000D01*
X153047806Y-94619000D01*
X152829300Y-94662464D01*
X152623471Y-94747721D01*
X152438230Y-94871495D01*
X152280695Y-95029030D01*
X152156921Y-95214271D01*
X152071664Y-95420100D01*
X152028200Y-95638606D01*
X140760689Y-95638606D01*
X140587302Y-95465219D01*
X140320168Y-95286726D01*
X140023345Y-95163778D01*
X139708240Y-95101100D01*
X139386960Y-95101100D01*
X139071855Y-95163778D01*
X138775032Y-95286726D01*
X138507898Y-95465219D01*
X138280719Y-95692398D01*
X138102226Y-95959532D01*
X137979278Y-96256355D01*
X137916600Y-96571460D01*
X132873017Y-96571460D01*
X132762814Y-96461257D01*
X132438355Y-96244461D01*
X132077836Y-96095129D01*
X131695111Y-96019000D01*
X131304889Y-96019000D01*
X130922164Y-96095129D01*
X130561645Y-96244461D01*
X130237186Y-96461257D01*
X129961257Y-96737186D01*
X129744461Y-97061645D01*
X129595129Y-97422164D01*
X129519000Y-97804889D01*
X123687194Y-97804889D01*
X123707581Y-97784502D01*
X123746804Y-97725800D01*
X124900086Y-97725800D01*
X124978891Y-97749705D01*
X125171200Y-97768646D01*
X125363510Y-97749705D01*
X125548429Y-97693611D01*
X125718850Y-97602518D01*
X125868228Y-97479928D01*
X125898949Y-97442494D01*
X132977844Y-90363600D01*
X137935403Y-90363600D01*
X137922113Y-90407411D01*
X137914757Y-90482100D01*
X137914757Y-92982100D01*
X137922113Y-93056789D01*
X137943899Y-93128608D01*
X137979278Y-93194796D01*
X138026889Y-93252811D01*
X138084904Y-93300422D01*
X138151092Y-93335801D01*
X138222911Y-93357587D01*
X138297600Y-93364943D01*
X140797600Y-93364943D01*
X140872289Y-93357587D01*
X140944108Y-93335801D01*
X141010296Y-93300422D01*
X141068311Y-93252811D01*
X141115922Y-93194796D01*
X141151301Y-93128608D01*
X141173087Y-93056789D01*
X141180443Y-92982100D01*
X141180443Y-90482100D01*
X141173087Y-90407411D01*
X141159797Y-90363600D01*
X150730157Y-90363600D01*
X147942357Y-93151400D01*
X145697013Y-93151400D01*
X145552890Y-93165595D01*
X145367971Y-93221689D01*
X145197549Y-93312782D01*
X145048172Y-93435372D01*
X144925582Y-93584749D01*
X144834489Y-93755171D01*
X144778395Y-93940090D01*
X144759454Y-94132400D01*
X144778395Y-94324710D01*
X144834489Y-94509629D01*
X144925582Y-94680051D01*
X145048172Y-94829428D01*
X145197549Y-94952018D01*
X145367971Y-95043111D01*
X145552890Y-95099205D01*
X145697013Y-95113400D01*
X148300514Y-95113400D01*
X148348700Y-95118146D01*
X148396886Y-95113400D01*
X148396887Y-95113400D01*
X148541010Y-95099205D01*
X148725929Y-95043111D01*
X148896351Y-94952018D01*
X149045728Y-94829428D01*
X149076450Y-94791993D01*
X152031643Y-91836800D01*
X152490155Y-91836800D01*
X152438230Y-91871495D01*
X152280695Y-92029030D01*
X152156921Y-92214271D01*
X152071664Y-92420100D01*
X152028200Y-92638606D01*
X152028200Y-92861394D01*
X152071664Y-93079900D01*
X152156921Y-93285729D01*
X152280695Y-93470970D01*
X152438230Y-93628505D01*
X152623471Y-93752279D01*
X152829300Y-93837536D01*
X153047806Y-93881000D01*
X153270594Y-93881000D01*
X153489100Y-93837536D01*
X153694929Y-93752279D01*
X153880170Y-93628505D01*
X154037705Y-93470970D01*
X154161479Y-93285729D01*
X154246736Y-93079900D01*
X154290200Y-92861394D01*
X154290200Y-92638606D01*
X154246736Y-92420100D01*
X154161479Y-92214271D01*
X154037705Y-92029030D01*
X153880170Y-91871495D01*
X153828245Y-91836800D01*
X153858657Y-91836800D01*
X154749602Y-92727746D01*
X154749607Y-92727750D01*
X155064192Y-93042335D01*
X155071664Y-93079900D01*
X155156921Y-93285729D01*
X155280695Y-93470970D01*
X155438230Y-93628505D01*
X155623471Y-93752279D01*
X155829300Y-93837536D01*
X156047806Y-93881000D01*
X156270594Y-93881000D01*
X156489100Y-93837536D01*
X156694929Y-93752279D01*
X156880170Y-93628505D01*
X156956201Y-93552474D01*
X156956201Y-93565655D01*
X155866865Y-94654992D01*
X155829300Y-94662464D01*
X155623471Y-94747721D01*
X155438230Y-94871495D01*
X155280695Y-95029030D01*
X155156921Y-95214271D01*
X155071664Y-95420100D01*
X155028200Y-95638606D01*
X155028200Y-95861394D01*
X155071664Y-96079900D01*
X155156921Y-96285729D01*
X155280695Y-96470970D01*
X155438230Y-96628505D01*
X155623471Y-96752279D01*
X155829300Y-96837536D01*
X156047806Y-96881000D01*
X156270594Y-96881000D01*
X156489100Y-96837536D01*
X156694929Y-96752279D01*
X156880170Y-96628505D01*
X157037705Y-96470970D01*
X157161479Y-96285729D01*
X157246736Y-96079900D01*
X157254208Y-96042335D01*
X157738852Y-95557691D01*
X158548200Y-94748344D01*
X158548200Y-95040187D01*
X158622408Y-95413252D01*
X158767970Y-95764671D01*
X158979295Y-96080941D01*
X159248259Y-96349905D01*
X159564529Y-96561230D01*
X159915948Y-96706792D01*
X160289013Y-96781000D01*
X160669387Y-96781000D01*
X161042452Y-96706792D01*
X161393871Y-96561230D01*
X161710141Y-96349905D01*
X161979105Y-96080941D01*
X162190430Y-95764671D01*
X162335992Y-95413252D01*
X162410200Y-95040187D01*
X162410200Y-94659813D01*
X162335992Y-94286748D01*
X162190430Y-93935329D01*
X161979105Y-93619059D01*
X161710141Y-93350095D01*
X161393871Y-93138770D01*
X161042452Y-92993208D01*
X160669387Y-92919000D01*
X160289013Y-92919000D01*
X159915948Y-92993208D01*
X159564529Y-93138770D01*
X159248259Y-93350095D01*
X158979295Y-93619059D01*
X158918200Y-93710494D01*
X158918200Y-91323083D01*
X158922946Y-91274899D01*
X158918200Y-91226713D01*
X158904005Y-91082590D01*
X158847911Y-90897671D01*
X158756818Y-90727249D01*
X158634228Y-90577872D01*
X158596793Y-90547150D01*
X156772650Y-88723007D01*
X156741928Y-88685572D01*
X156592551Y-88562982D01*
X156422129Y-88471889D01*
X156237210Y-88415795D01*
X156093087Y-88401600D01*
X156093086Y-88401600D01*
X156044900Y-88396854D01*
X155996714Y-88401600D01*
X132619686Y-88401600D01*
X132571500Y-88396854D01*
X132523313Y-88401600D01*
X132379190Y-88415795D01*
X132194271Y-88471889D01*
X132023849Y-88562982D01*
X131874472Y-88685572D01*
X131843755Y-88723001D01*
X124802957Y-95763800D01*
X123746804Y-95763800D01*
X123707581Y-95705098D01*
X123480402Y-95477919D01*
X123213268Y-95299426D01*
X122916445Y-95176478D01*
X122601340Y-95113800D01*
X122280060Y-95113800D01*
X121964955Y-95176478D01*
X121668132Y-95299426D01*
X121400998Y-95477919D01*
X121173819Y-95705098D01*
X120995326Y-95972232D01*
X120872378Y-96269055D01*
X120809700Y-96584160D01*
X116342900Y-96584160D01*
X116342900Y-90494800D01*
X120807857Y-90494800D01*
X120807857Y-92994800D01*
X120815213Y-93069489D01*
X120836999Y-93141308D01*
X120872378Y-93207496D01*
X120919989Y-93265511D01*
X120978004Y-93313122D01*
X121044192Y-93348501D01*
X121116011Y-93370287D01*
X121190700Y-93377643D01*
X123690700Y-93377643D01*
X123765389Y-93370287D01*
X123837208Y-93348501D01*
X123903396Y-93313122D01*
X123961411Y-93265511D01*
X124009022Y-93207496D01*
X124044401Y-93141308D01*
X124066187Y-93069489D01*
X124073543Y-92994800D01*
X124073543Y-90494800D01*
X124066187Y-90420111D01*
X124044401Y-90348292D01*
X124009022Y-90282104D01*
X123961411Y-90224089D01*
X123903396Y-90176478D01*
X123837208Y-90141099D01*
X123765389Y-90119313D01*
X123690700Y-90111957D01*
X121190700Y-90111957D01*
X121116011Y-90119313D01*
X121044192Y-90141099D01*
X120978004Y-90176478D01*
X120919989Y-90224089D01*
X120872378Y-90282104D01*
X120836999Y-90348292D01*
X120815213Y-90420111D01*
X120807857Y-90494800D01*
X116342900Y-90494800D01*
X116342900Y-86516775D01*
X116366549Y-86275573D01*
X116431728Y-86059691D01*
X116537598Y-85860579D01*
X116680121Y-85685829D01*
X116853880Y-85542083D01*
X117052243Y-85434828D01*
X117267661Y-85368145D01*
X117507854Y-85342900D01*
X165483225Y-85342900D01*
X165724427Y-85366549D01*
G37*
X165724427Y-85366549D02*
X165940309Y-85431728D01*
X166139421Y-85537598D01*
X166314171Y-85680121D01*
X166457917Y-85853880D01*
X166565172Y-86052243D01*
X166631855Y-86267661D01*
X166657100Y-86507854D01*
X166657101Y-133483214D01*
X166633450Y-133724430D01*
X166568272Y-133940309D01*
X166462402Y-134139421D01*
X166319877Y-134314174D01*
X166146121Y-134457917D01*
X165947757Y-134565172D01*
X165732339Y-134631855D01*
X165492146Y-134657100D01*
X117516776Y-134657100D01*
X117275570Y-134633450D01*
X117059691Y-134568272D01*
X116860579Y-134462402D01*
X116685826Y-134319877D01*
X116542083Y-134146121D01*
X116434828Y-133947757D01*
X116368145Y-133732339D01*
X116342900Y-133492146D01*
X116342900Y-121584160D01*
X120809700Y-121584160D01*
X120809700Y-121905440D01*
X120872378Y-122220545D01*
X120995326Y-122517368D01*
X121173819Y-122784502D01*
X121400998Y-123011681D01*
X121668132Y-123190174D01*
X121964955Y-123313122D01*
X122280060Y-123375800D01*
X122601340Y-123375800D01*
X122916445Y-123313122D01*
X123213268Y-123190174D01*
X123480402Y-123011681D01*
X123707581Y-122784502D01*
X123746804Y-122725800D01*
X123838457Y-122725800D01*
X128164556Y-127051899D01*
X126827543Y-127051899D01*
X125860850Y-126085207D01*
X125830128Y-126047772D01*
X125680751Y-125925182D01*
X125510329Y-125834089D01*
X125325410Y-125777995D01*
X125181287Y-125763800D01*
X125181286Y-125763800D01*
X125133100Y-125759054D01*
X125084914Y-125763800D01*
X123746804Y-125763800D01*
X123707581Y-125705098D01*
X123480402Y-125477919D01*
X123213268Y-125299426D01*
X122916445Y-125176478D01*
X122601340Y-125113800D01*
X122280060Y-125113800D01*
X121964955Y-125176478D01*
X121668132Y-125299426D01*
X121400998Y-125477919D01*
X121173819Y-125705098D01*
X120995326Y-125972232D01*
X120872378Y-126269055D01*
X120809700Y-126584160D01*
X120809700Y-126905440D01*
X120872378Y-127220545D01*
X120995326Y-127517368D01*
X121173819Y-127784502D01*
X121400998Y-128011681D01*
X121668132Y-128190174D01*
X121964955Y-128313122D01*
X122280060Y-128375800D01*
X122601340Y-128375800D01*
X122916445Y-128313122D01*
X123213268Y-128190174D01*
X123480402Y-128011681D01*
X123707581Y-127784502D01*
X123746804Y-127725800D01*
X124726757Y-127725800D01*
X125693453Y-128692497D01*
X125724171Y-128729927D01*
X125761600Y-128760644D01*
X125873548Y-128852517D01*
X126043970Y-128943610D01*
X126228889Y-128999704D01*
X126421198Y-129018645D01*
X126469385Y-129013899D01*
X132020756Y-129013899D01*
X135314655Y-132307799D01*
X135345372Y-132345228D01*
X135382801Y-132375945D01*
X135494749Y-132467818D01*
X135665171Y-132558911D01*
X135850090Y-132615005D01*
X136042400Y-132633946D01*
X136090586Y-132629200D01*
X153641987Y-132629200D01*
X153786110Y-132615005D01*
X153971029Y-132558911D01*
X154141451Y-132467818D01*
X154290828Y-132345228D01*
X154413418Y-132195851D01*
X154504511Y-132025429D01*
X154560605Y-131840510D01*
X154579546Y-131648200D01*
X154560605Y-131455890D01*
X154504511Y-131270971D01*
X154413418Y-131100549D01*
X154290828Y-130951172D01*
X154141451Y-130828582D01*
X153971029Y-130737489D01*
X153786110Y-130681395D01*
X153641987Y-130667200D01*
X136448744Y-130667200D01*
X133262543Y-127481000D01*
X134894757Y-127481000D01*
X137613350Y-130199593D01*
X137644072Y-130237028D01*
X137793449Y-130359618D01*
X137963871Y-130450711D01*
X138148790Y-130506805D01*
X138341099Y-130525746D01*
X138389286Y-130521000D01*
X156923814Y-130521000D01*
X156972000Y-130525746D01*
X157020186Y-130521000D01*
X157020187Y-130521000D01*
X157164310Y-130506805D01*
X157349229Y-130450711D01*
X157519651Y-130359618D01*
X157669028Y-130237028D01*
X157699750Y-130199593D01*
X158647598Y-129251746D01*
X158685028Y-129221028D01*
X158807618Y-129071651D01*
X158898711Y-128901229D01*
X158954805Y-128716310D01*
X158969000Y-128572187D01*
X158969000Y-128572186D01*
X158973746Y-128524000D01*
X158969000Y-128475814D01*
X158969000Y-126362386D01*
X158973746Y-126314200D01*
X158968945Y-126265450D01*
X158979295Y-126280941D01*
X159248259Y-126549905D01*
X159564529Y-126761230D01*
X159915948Y-126906792D01*
X160289013Y-126981000D01*
X160669387Y-126981000D01*
X161042452Y-126906792D01*
X161393871Y-126761230D01*
X161710141Y-126549905D01*
X161979105Y-126280941D01*
X162190430Y-125964671D01*
X162335992Y-125613252D01*
X162410200Y-125240187D01*
X162410200Y-124859813D01*
X162335992Y-124486748D01*
X162190430Y-124135329D01*
X161979105Y-123819059D01*
X161710141Y-123550095D01*
X161393871Y-123338770D01*
X161042452Y-123193208D01*
X160669387Y-123119000D01*
X160289013Y-123119000D01*
X159915948Y-123193208D01*
X159564529Y-123338770D01*
X159248259Y-123550095D01*
X158979295Y-123819059D01*
X158767970Y-124135329D01*
X158622408Y-124486748D01*
X158548200Y-124859813D01*
X158548200Y-125240187D01*
X158609499Y-125548355D01*
X157290200Y-124229057D01*
X157290200Y-124138606D01*
X157246736Y-123920100D01*
X157161479Y-123714271D01*
X157037705Y-123529030D01*
X156880170Y-123371495D01*
X156694929Y-123247721D01*
X156489100Y-123162464D01*
X156270594Y-123119000D01*
X156047806Y-123119000D01*
X155829300Y-123162464D01*
X155623471Y-123247721D01*
X155438230Y-123371495D01*
X155280695Y-123529030D01*
X155156921Y-123714271D01*
X155071664Y-123920100D01*
X155028200Y-124138606D01*
X155028200Y-124361394D01*
X155071664Y-124579900D01*
X155156921Y-124785729D01*
X155280695Y-124970970D01*
X155335914Y-125026189D01*
X155339582Y-125033051D01*
X155462172Y-125182428D01*
X155499607Y-125213150D01*
X156438944Y-126152487D01*
X156270594Y-126119000D01*
X156047806Y-126119000D01*
X155829300Y-126162464D01*
X155623471Y-126247721D01*
X155438230Y-126371495D01*
X155280695Y-126529030D01*
X155156921Y-126714271D01*
X155071664Y-126920100D01*
X155028200Y-127138606D01*
X155028200Y-127361394D01*
X155071664Y-127579900D01*
X155156921Y-127785729D01*
X155280695Y-127970970D01*
X155438230Y-128128505D01*
X155623471Y-128252279D01*
X155829300Y-128337536D01*
X156047806Y-128381000D01*
X156270594Y-128381000D01*
X156489100Y-128337536D01*
X156694929Y-128252279D01*
X156880170Y-128128505D01*
X157007000Y-128001675D01*
X157007000Y-128117656D01*
X156565657Y-128559000D01*
X138747443Y-128559000D01*
X136759903Y-126571460D01*
X137916600Y-126571460D01*
X137916600Y-126892740D01*
X137979278Y-127207845D01*
X138102226Y-127504668D01*
X138280719Y-127771802D01*
X138507898Y-127998981D01*
X138775032Y-128177474D01*
X139071855Y-128300422D01*
X139386960Y-128363100D01*
X139708240Y-128363100D01*
X140023345Y-128300422D01*
X140320168Y-128177474D01*
X140587302Y-127998981D01*
X140814481Y-127771802D01*
X140992974Y-127504668D01*
X141115922Y-127207845D01*
X141129694Y-127138606D01*
X152028200Y-127138606D01*
X152028200Y-127361394D01*
X152071664Y-127579900D01*
X152156921Y-127785729D01*
X152280695Y-127970970D01*
X152438230Y-128128505D01*
X152623471Y-128252279D01*
X152829300Y-128337536D01*
X153047806Y-128381000D01*
X153270594Y-128381000D01*
X153489100Y-128337536D01*
X153694929Y-128252279D01*
X153880170Y-128128505D01*
X154037705Y-127970970D01*
X154161479Y-127785729D01*
X154246736Y-127579900D01*
X154290200Y-127361394D01*
X154290200Y-127138606D01*
X154246736Y-126920100D01*
X154161479Y-126714271D01*
X154037705Y-126529030D01*
X153880170Y-126371495D01*
X153694929Y-126247721D01*
X153489100Y-126162464D01*
X153270594Y-126119000D01*
X153047806Y-126119000D01*
X152829300Y-126162464D01*
X152623471Y-126247721D01*
X152438230Y-126371495D01*
X152280695Y-126529030D01*
X152156921Y-126714271D01*
X152071664Y-126920100D01*
X152028200Y-127138606D01*
X141129694Y-127138606D01*
X141178600Y-126892740D01*
X141178600Y-126571460D01*
X141115922Y-126256355D01*
X140992974Y-125959532D01*
X140814481Y-125692398D01*
X140587302Y-125465219D01*
X140320168Y-125286726D01*
X140023345Y-125163778D01*
X139708240Y-125101100D01*
X139386960Y-125101100D01*
X139071855Y-125163778D01*
X138775032Y-125286726D01*
X138507898Y-125465219D01*
X138280719Y-125692398D01*
X138102226Y-125959532D01*
X137979278Y-126256355D01*
X137916600Y-126571460D01*
X136759903Y-126571460D01*
X136028850Y-125840407D01*
X135998128Y-125802972D01*
X135848751Y-125680382D01*
X135678329Y-125589289D01*
X135493410Y-125533195D01*
X135349287Y-125519000D01*
X135349286Y-125519000D01*
X135301100Y-125514254D01*
X135252914Y-125519000D01*
X129406343Y-125519000D01*
X128025949Y-124138606D01*
X152028200Y-124138606D01*
X152028200Y-124361394D01*
X152071664Y-124579900D01*
X152156921Y-124785729D01*
X152280695Y-124970970D01*
X152438230Y-125128505D01*
X152623471Y-125252279D01*
X152829300Y-125337536D01*
X153047806Y-125381000D01*
X153270594Y-125381000D01*
X153489100Y-125337536D01*
X153694929Y-125252279D01*
X153880170Y-125128505D01*
X154037705Y-124970970D01*
X154161479Y-124785729D01*
X154246736Y-124579900D01*
X154290200Y-124361394D01*
X154290200Y-124138606D01*
X154246736Y-123920100D01*
X154161479Y-123714271D01*
X154037705Y-123529030D01*
X153880170Y-123371495D01*
X153694929Y-123247721D01*
X153489100Y-123162464D01*
X153270594Y-123119000D01*
X153047806Y-123119000D01*
X152829300Y-123162464D01*
X152623471Y-123247721D01*
X152438230Y-123371495D01*
X152280695Y-123529030D01*
X152156921Y-123714271D01*
X152071664Y-123920100D01*
X152028200Y-124138606D01*
X128025949Y-124138606D01*
X125692232Y-121804889D01*
X129519000Y-121804889D01*
X129519000Y-122195111D01*
X129595129Y-122577836D01*
X129744461Y-122938355D01*
X129961257Y-123262814D01*
X130237186Y-123538743D01*
X130561645Y-123755539D01*
X130922164Y-123904871D01*
X131304889Y-123981000D01*
X131695111Y-123981000D01*
X132077836Y-123904871D01*
X132438355Y-123755539D01*
X132762814Y-123538743D01*
X133038743Y-123262814D01*
X133255539Y-122938355D01*
X133404871Y-122577836D01*
X133481000Y-122195111D01*
X133481000Y-121804889D01*
X133434568Y-121571460D01*
X137916600Y-121571460D01*
X137916600Y-121892740D01*
X137979278Y-122207845D01*
X138102226Y-122504668D01*
X138280719Y-122771802D01*
X138507898Y-122998981D01*
X138775032Y-123177474D01*
X139071855Y-123300422D01*
X139386960Y-123363100D01*
X139708240Y-123363100D01*
X140023345Y-123300422D01*
X140320168Y-123177474D01*
X140587302Y-122998981D01*
X140814481Y-122771802D01*
X140992974Y-122504668D01*
X141115922Y-122207845D01*
X141178600Y-121892740D01*
X141178600Y-121571460D01*
X141115922Y-121256355D01*
X141067149Y-121138606D01*
X152028200Y-121138606D01*
X152028200Y-121361394D01*
X152071664Y-121579900D01*
X152156921Y-121785729D01*
X152280695Y-121970970D01*
X152438230Y-122128505D01*
X152623471Y-122252279D01*
X152829300Y-122337536D01*
X153047806Y-122381000D01*
X153270594Y-122381000D01*
X153489100Y-122337536D01*
X153694929Y-122252279D01*
X153880170Y-122128505D01*
X154037705Y-121970970D01*
X154161479Y-121785729D01*
X154246736Y-121579900D01*
X154290200Y-121361394D01*
X154290200Y-121138606D01*
X154246736Y-120920100D01*
X154161479Y-120714271D01*
X154037705Y-120529030D01*
X153880170Y-120371495D01*
X153694929Y-120247721D01*
X153489100Y-120162464D01*
X153270594Y-120119000D01*
X153047806Y-120119000D01*
X152829300Y-120162464D01*
X152623471Y-120247721D01*
X152438230Y-120371495D01*
X152280695Y-120529030D01*
X152156921Y-120714271D01*
X152071664Y-120920100D01*
X152028200Y-121138606D01*
X141067149Y-121138606D01*
X140992974Y-120959532D01*
X140814481Y-120692398D01*
X140587302Y-120465219D01*
X140320168Y-120286726D01*
X140023345Y-120163778D01*
X139708240Y-120101100D01*
X139386960Y-120101100D01*
X139071855Y-120163778D01*
X138775032Y-120286726D01*
X138507898Y-120465219D01*
X138280719Y-120692398D01*
X138102226Y-120959532D01*
X137979278Y-121256355D01*
X137916600Y-121571460D01*
X133434568Y-121571460D01*
X133404871Y-121422164D01*
X133255539Y-121061645D01*
X133038743Y-120737186D01*
X132762814Y-120461257D01*
X132438355Y-120244461D01*
X132077836Y-120095129D01*
X131695111Y-120019000D01*
X131304889Y-120019000D01*
X130922164Y-120095129D01*
X130561645Y-120244461D01*
X130237186Y-120461257D01*
X129961257Y-120737186D01*
X129744461Y-121061645D01*
X129595129Y-121422164D01*
X129519000Y-121804889D01*
X125692232Y-121804889D01*
X124969950Y-121082607D01*
X124939228Y-121045172D01*
X124789851Y-120922582D01*
X124619429Y-120831489D01*
X124434510Y-120775395D01*
X124290387Y-120761200D01*
X124290386Y-120761200D01*
X124242200Y-120756454D01*
X124226633Y-120757987D01*
X124211066Y-120756454D01*
X124162880Y-120761200D01*
X124162879Y-120761200D01*
X124136481Y-120763800D01*
X123746804Y-120763800D01*
X123707581Y-120705098D01*
X123480402Y-120477919D01*
X123213268Y-120299426D01*
X122916445Y-120176478D01*
X122601340Y-120113800D01*
X122280060Y-120113800D01*
X121964955Y-120176478D01*
X121668132Y-120299426D01*
X121400998Y-120477919D01*
X121173819Y-120705098D01*
X120995326Y-120972232D01*
X120872378Y-121269055D01*
X120809700Y-121584160D01*
X116342900Y-121584160D01*
X116342900Y-111584160D01*
X120809700Y-111584160D01*
X120809700Y-111905440D01*
X120872378Y-112220545D01*
X120995326Y-112517368D01*
X121173819Y-112784502D01*
X121400998Y-113011681D01*
X121668132Y-113190174D01*
X121964955Y-113313122D01*
X122280060Y-113375800D01*
X122601340Y-113375800D01*
X122916445Y-113313122D01*
X123213268Y-113190174D01*
X123480402Y-113011681D01*
X123707581Y-112784502D01*
X123886074Y-112517368D01*
X124009022Y-112220545D01*
X124071700Y-111905440D01*
X124071700Y-111584160D01*
X124009022Y-111269055D01*
X123886074Y-110972232D01*
X123707581Y-110705098D01*
X123480402Y-110477919D01*
X123213268Y-110299426D01*
X122916445Y-110176478D01*
X122601340Y-110113800D01*
X122280060Y-110113800D01*
X121964955Y-110176478D01*
X121668132Y-110299426D01*
X121400998Y-110477919D01*
X121173819Y-110705098D01*
X120995326Y-110972232D01*
X120872378Y-111269055D01*
X120809700Y-111584160D01*
X116342900Y-111584160D01*
X116342900Y-106584160D01*
X120809700Y-106584160D01*
X120809700Y-106905440D01*
X120872378Y-107220545D01*
X120995326Y-107517368D01*
X121173819Y-107784502D01*
X121400998Y-108011681D01*
X121668132Y-108190174D01*
X121964955Y-108313122D01*
X122280060Y-108375800D01*
X122601340Y-108375800D01*
X122916445Y-108313122D01*
X123213268Y-108190174D01*
X123480402Y-108011681D01*
X123707581Y-107784502D01*
X123886074Y-107517368D01*
X124009022Y-107220545D01*
X124071700Y-106905440D01*
X124071700Y-106584160D01*
X124009022Y-106269055D01*
X123886074Y-105972232D01*
X123707581Y-105705098D01*
X123480402Y-105477919D01*
X123213268Y-105299426D01*
X122916445Y-105176478D01*
X122601340Y-105113800D01*
X122280060Y-105113800D01*
X121964955Y-105176478D01*
X121668132Y-105299426D01*
X121400998Y-105477919D01*
X121173819Y-105705098D01*
X120995326Y-105972232D01*
X120872378Y-106269055D01*
X120809700Y-106584160D01*
X116342900Y-106584160D01*
X116342900Y-101584160D01*
X120809700Y-101584160D01*
X120809700Y-101905440D01*
X120872378Y-102220545D01*
X120995326Y-102517368D01*
X121173819Y-102784502D01*
X121400998Y-103011681D01*
X121668132Y-103190174D01*
X121964955Y-103313122D01*
X122280060Y-103375800D01*
X122601340Y-103375800D01*
X122916445Y-103313122D01*
X123213268Y-103190174D01*
X123480402Y-103011681D01*
X123707581Y-102784502D01*
X123746804Y-102725800D01*
X126992457Y-102725800D01*
X129218650Y-104951993D01*
X129249372Y-104989428D01*
X129398749Y-105112018D01*
X129569171Y-105203111D01*
X129754090Y-105259205D01*
X129898213Y-105273400D01*
X129898215Y-105273400D01*
X129946399Y-105278146D01*
X129994583Y-105273400D01*
X132702357Y-105273400D01*
X137270450Y-109841493D01*
X137301172Y-109878928D01*
X137450549Y-110001518D01*
X137620971Y-110092611D01*
X137805890Y-110148705D01*
X137998199Y-110167646D01*
X138046386Y-110162900D01*
X139076269Y-110162900D01*
X139071855Y-110163778D01*
X138775032Y-110286726D01*
X138507898Y-110465219D01*
X138280719Y-110692398D01*
X138102226Y-110959532D01*
X137979278Y-111256355D01*
X137916600Y-111571460D01*
X137916600Y-111892740D01*
X137979278Y-112207845D01*
X138102226Y-112504668D01*
X138280719Y-112771802D01*
X138507898Y-112998981D01*
X138701737Y-113128500D01*
X135315883Y-113128500D01*
X135267699Y-113123754D01*
X135219515Y-113128500D01*
X135219513Y-113128500D01*
X135075390Y-113142695D01*
X134890471Y-113198789D01*
X134720049Y-113289882D01*
X134570672Y-113412472D01*
X134539950Y-113449907D01*
X133883457Y-114106400D01*
X126838687Y-114106400D01*
X126790500Y-114101654D01*
X126742313Y-114106400D01*
X126598190Y-114120595D01*
X126413271Y-114176689D01*
X126242849Y-114267782D01*
X126093472Y-114390372D01*
X126062755Y-114427802D01*
X124726757Y-115763800D01*
X123746804Y-115763800D01*
X123707581Y-115705098D01*
X123480402Y-115477919D01*
X123213268Y-115299426D01*
X122916445Y-115176478D01*
X122601340Y-115113800D01*
X122280060Y-115113800D01*
X121964955Y-115176478D01*
X121668132Y-115299426D01*
X121400998Y-115477919D01*
X121173819Y-115705098D01*
X120995326Y-115972232D01*
X120872378Y-116269055D01*
X120809700Y-116584160D01*
X120809700Y-116905440D01*
X120872378Y-117220545D01*
X120995326Y-117517368D01*
X121173819Y-117784502D01*
X121400998Y-118011681D01*
X121668132Y-118190174D01*
X121964955Y-118313122D01*
X122280060Y-118375800D01*
X122601340Y-118375800D01*
X122916445Y-118313122D01*
X123213268Y-118190174D01*
X123480402Y-118011681D01*
X123707581Y-117784502D01*
X123746804Y-117725800D01*
X125084914Y-117725800D01*
X125133100Y-117730546D01*
X125181286Y-117725800D01*
X125181287Y-117725800D01*
X125325410Y-117711605D01*
X125510329Y-117655511D01*
X125680751Y-117564418D01*
X125830128Y-117441828D01*
X125860850Y-117404393D01*
X126693783Y-116571460D01*
X137916600Y-116571460D01*
X137916600Y-116892740D01*
X137979278Y-117207845D01*
X138102226Y-117504668D01*
X138280719Y-117771802D01*
X138507898Y-117998981D01*
X138775032Y-118177474D01*
X139071855Y-118300422D01*
X139386960Y-118363100D01*
X139708240Y-118363100D01*
X140023345Y-118300422D01*
X140320168Y-118177474D01*
X140378338Y-118138606D01*
X152028200Y-118138606D01*
X152028200Y-118361394D01*
X152071664Y-118579900D01*
X152156921Y-118785729D01*
X152280695Y-118970970D01*
X152438230Y-119128505D01*
X152623471Y-119252279D01*
X152829300Y-119337536D01*
X153047806Y-119381000D01*
X153270594Y-119381000D01*
X153489100Y-119337536D01*
X153694929Y-119252279D01*
X153880170Y-119128505D01*
X154037705Y-118970970D01*
X154161479Y-118785729D01*
X154246736Y-118579900D01*
X154290200Y-118361394D01*
X154290200Y-118138606D01*
X154246736Y-117920100D01*
X154161479Y-117714271D01*
X154037705Y-117529030D01*
X153880170Y-117371495D01*
X153694929Y-117247721D01*
X153489100Y-117162464D01*
X153270594Y-117119000D01*
X153047806Y-117119000D01*
X152829300Y-117162464D01*
X152623471Y-117247721D01*
X152438230Y-117371495D01*
X152280695Y-117529030D01*
X152156921Y-117714271D01*
X152071664Y-117920100D01*
X152028200Y-118138606D01*
X140378338Y-118138606D01*
X140587302Y-117998981D01*
X140814481Y-117771802D01*
X140992974Y-117504668D01*
X141115922Y-117207845D01*
X141178600Y-116892740D01*
X141178600Y-116571460D01*
X141115922Y-116256355D01*
X140992974Y-115959532D01*
X140814481Y-115692398D01*
X140587302Y-115465219D01*
X140320168Y-115286726D01*
X140023345Y-115163778D01*
X139708240Y-115101100D01*
X139386960Y-115101100D01*
X139071855Y-115163778D01*
X138775032Y-115286726D01*
X138507898Y-115465219D01*
X138280719Y-115692398D01*
X138102226Y-115959532D01*
X137979278Y-116256355D01*
X137916600Y-116571460D01*
X126693783Y-116571460D01*
X127196844Y-116068400D01*
X134241614Y-116068400D01*
X134289800Y-116073146D01*
X134337986Y-116068400D01*
X134337987Y-116068400D01*
X134482110Y-116054205D01*
X134667029Y-115998111D01*
X134837451Y-115907018D01*
X134986828Y-115784428D01*
X135017550Y-115746993D01*
X135674043Y-115090500D01*
X145201714Y-115090500D01*
X145249900Y-115095246D01*
X145298086Y-115090500D01*
X145298087Y-115090500D01*
X145442210Y-115076305D01*
X145627129Y-115020211D01*
X145797551Y-114929118D01*
X145946928Y-114806528D01*
X145977650Y-114769093D01*
X148475644Y-112271100D01*
X153936757Y-112271100D01*
X156905401Y-115239745D01*
X156905400Y-117396725D01*
X156880170Y-117371495D01*
X156694929Y-117247721D01*
X156489100Y-117162464D01*
X156451536Y-117154992D01*
X155514600Y-116218057D01*
X155514600Y-115567386D01*
X155519346Y-115519200D01*
X155500405Y-115326890D01*
X155444311Y-115141971D01*
X155353218Y-114971549D01*
X155261345Y-114859601D01*
X155230628Y-114822172D01*
X155193198Y-114791454D01*
X154397750Y-113996006D01*
X154367028Y-113958572D01*
X154217651Y-113835982D01*
X154047229Y-113744889D01*
X153862310Y-113688795D01*
X153718187Y-113674600D01*
X153718186Y-113674600D01*
X153670000Y-113669854D01*
X153621814Y-113674600D01*
X149057286Y-113674600D01*
X149009099Y-113669854D01*
X148960913Y-113674600D01*
X148816790Y-113688795D01*
X148779852Y-113700000D01*
X147449613Y-113700000D01*
X147305490Y-113714195D01*
X147120571Y-113770289D01*
X146950149Y-113861382D01*
X146800772Y-113983972D01*
X146678182Y-114133349D01*
X146587089Y-114303771D01*
X146530995Y-114488690D01*
X146512054Y-114681000D01*
X146530995Y-114873310D01*
X146587089Y-115058229D01*
X146678182Y-115228651D01*
X146800772Y-115378028D01*
X146950149Y-115500618D01*
X147120571Y-115591711D01*
X147305490Y-115647805D01*
X147449613Y-115662000D01*
X148935514Y-115662000D01*
X148983700Y-115666746D01*
X149031886Y-115662000D01*
X149031887Y-115662000D01*
X149176010Y-115647805D01*
X149212948Y-115636600D01*
X153263657Y-115636600D01*
X153552600Y-115925544D01*
X153552601Y-116576204D01*
X153547854Y-116624400D01*
X153566795Y-116816709D01*
X153622889Y-117001628D01*
X153713982Y-117172050D01*
X153713983Y-117172051D01*
X153836573Y-117321428D01*
X153874002Y-117352145D01*
X155064192Y-118542336D01*
X155071664Y-118579900D01*
X155156921Y-118785729D01*
X155280695Y-118970970D01*
X155438230Y-119128505D01*
X155623471Y-119252279D01*
X155829300Y-119337536D01*
X156047806Y-119381000D01*
X156270594Y-119381000D01*
X156489100Y-119337536D01*
X156694929Y-119252279D01*
X156880170Y-119128505D01*
X156905400Y-119103275D01*
X156905400Y-119116456D01*
X155866865Y-120154992D01*
X155829300Y-120162464D01*
X155623471Y-120247721D01*
X155438230Y-120371495D01*
X155280695Y-120529030D01*
X155156921Y-120714271D01*
X155071664Y-120920100D01*
X155028200Y-121138606D01*
X155028200Y-121361394D01*
X155071664Y-121579900D01*
X155156921Y-121785729D01*
X155280695Y-121970970D01*
X155438230Y-122128505D01*
X155623471Y-122252279D01*
X155829300Y-122337536D01*
X156047806Y-122381000D01*
X156270594Y-122381000D01*
X156489100Y-122337536D01*
X156694929Y-122252279D01*
X156880170Y-122128505D01*
X157037705Y-121970970D01*
X157161479Y-121785729D01*
X157246736Y-121579900D01*
X157254208Y-121542335D01*
X158545998Y-120250545D01*
X158548200Y-120248739D01*
X158548200Y-120540187D01*
X158622408Y-120913252D01*
X158767970Y-121264671D01*
X158979295Y-121580941D01*
X159248259Y-121849905D01*
X159564529Y-122061230D01*
X159915948Y-122206792D01*
X160289013Y-122281000D01*
X160669387Y-122281000D01*
X161042452Y-122206792D01*
X161393871Y-122061230D01*
X161710141Y-121849905D01*
X161979105Y-121580941D01*
X162190430Y-121264671D01*
X162335992Y-120913252D01*
X162410200Y-120540187D01*
X162410200Y-120159813D01*
X162335992Y-119786748D01*
X162190430Y-119435329D01*
X161979105Y-119119059D01*
X161710141Y-118850095D01*
X161393871Y-118638770D01*
X161042452Y-118493208D01*
X160669387Y-118419000D01*
X160289013Y-118419000D01*
X159915948Y-118493208D01*
X159564529Y-118638770D01*
X159248259Y-118850095D01*
X158979295Y-119119059D01*
X158867400Y-119286522D01*
X158867400Y-114881586D01*
X158872146Y-114833400D01*
X158853205Y-114641090D01*
X158797111Y-114456171D01*
X158706018Y-114285749D01*
X158614145Y-114173801D01*
X158583428Y-114136372D01*
X158545999Y-114105655D01*
X155070850Y-110630507D01*
X155040128Y-110593072D01*
X154890751Y-110470482D01*
X154720329Y-110379389D01*
X154535410Y-110323295D01*
X154391287Y-110309100D01*
X154391286Y-110309100D01*
X154343100Y-110304354D01*
X154294914Y-110309100D01*
X148117486Y-110309100D01*
X148069300Y-110304354D01*
X148021113Y-110309100D01*
X147876990Y-110323295D01*
X147692071Y-110379389D01*
X147521649Y-110470482D01*
X147372272Y-110593072D01*
X147341555Y-110630501D01*
X144843557Y-113128500D01*
X140393463Y-113128500D01*
X140587302Y-112998981D01*
X140814481Y-112771802D01*
X140992974Y-112504668D01*
X141115922Y-112207845D01*
X141178600Y-111892740D01*
X141178600Y-111571460D01*
X141115922Y-111256355D01*
X140992974Y-110959532D01*
X140814481Y-110692398D01*
X140587302Y-110465219D01*
X140320168Y-110286726D01*
X140023345Y-110163778D01*
X140018931Y-110162900D01*
X151780314Y-110162900D01*
X151828500Y-110167646D01*
X151876686Y-110162900D01*
X151876687Y-110162900D01*
X152020810Y-110148705D01*
X152205729Y-110092611D01*
X152376151Y-110001518D01*
X152525528Y-109878928D01*
X152556250Y-109841493D01*
X152592854Y-109804889D01*
X158019000Y-109804889D01*
X158019000Y-110195111D01*
X158095129Y-110577836D01*
X158244461Y-110938355D01*
X158461257Y-111262814D01*
X158737186Y-111538743D01*
X159061645Y-111755539D01*
X159422164Y-111904871D01*
X159804889Y-111981000D01*
X160195111Y-111981000D01*
X160577836Y-111904871D01*
X160938355Y-111755539D01*
X161262814Y-111538743D01*
X161538743Y-111262814D01*
X161755539Y-110938355D01*
X161904871Y-110577836D01*
X161981000Y-110195111D01*
X161981000Y-109804889D01*
X161904871Y-109422164D01*
X161755539Y-109061645D01*
X161538743Y-108737186D01*
X161262814Y-108461257D01*
X160938355Y-108244461D01*
X160577836Y-108095129D01*
X160195111Y-108019000D01*
X159804889Y-108019000D01*
X159422164Y-108095129D01*
X159061645Y-108244461D01*
X158737186Y-108461257D01*
X158461257Y-108737186D01*
X158244461Y-109061645D01*
X158095129Y-109422164D01*
X158019000Y-109804889D01*
X152592854Y-109804889D01*
X158622193Y-103775550D01*
X158659628Y-103744828D01*
X158782218Y-103595451D01*
X158873311Y-103425029D01*
X158929405Y-103240110D01*
X158943600Y-103095987D01*
X158943600Y-103095985D01*
X158948346Y-103047801D01*
X158943600Y-102999617D01*
X158943600Y-100955286D01*
X158948346Y-100907100D01*
X158929405Y-100714790D01*
X158924675Y-100699196D01*
X158979295Y-100780941D01*
X159248259Y-101049905D01*
X159564529Y-101261230D01*
X159915948Y-101406792D01*
X160289013Y-101481000D01*
X160669387Y-101481000D01*
X161042452Y-101406792D01*
X161393871Y-101261230D01*
X161710141Y-101049905D01*
X161979105Y-100780941D01*
X162190430Y-100464671D01*
X162335992Y-100113252D01*
X162410200Y-99740187D01*
X162410200Y-99359813D01*
X162335992Y-98986748D01*
X162190430Y-98635329D01*
X161979105Y-98319059D01*
X161710141Y-98050095D01*
X161393871Y-97838770D01*
X161042452Y-97693208D01*
X160669387Y-97619000D01*
X160289013Y-97619000D01*
X159915948Y-97693208D01*
X159564529Y-97838770D01*
X159248259Y-98050095D01*
X158979295Y-98319059D01*
X158767970Y-98635329D01*
X158622408Y-98986748D01*
X158548200Y-99359813D01*
X158548200Y-99740187D01*
X158622408Y-100113252D01*
X158665451Y-100217167D01*
X158659628Y-100210072D01*
X158622199Y-100179355D01*
X157290200Y-98847357D01*
X157290200Y-98638606D01*
X157246736Y-98420100D01*
X157161479Y-98214271D01*
X157037705Y-98029030D01*
X156880170Y-97871495D01*
X156694929Y-97747721D01*
X156489100Y-97662464D01*
X156270594Y-97619000D01*
X156047806Y-97619000D01*
X155829300Y-97662464D01*
X155623471Y-97747721D01*
X155438230Y-97871495D01*
X155280695Y-98029030D01*
X155156921Y-98214271D01*
X155071664Y-98420100D01*
X155028200Y-98638606D01*
X155028200Y-98861394D01*
X155071664Y-99079900D01*
X155156921Y-99285729D01*
X155216179Y-99374415D01*
X155248489Y-99480928D01*
X155339582Y-99651350D01*
X155431455Y-99763298D01*
X156291269Y-100623113D01*
X156270594Y-100619000D01*
X156047806Y-100619000D01*
X155829300Y-100662464D01*
X155623471Y-100747721D01*
X155438230Y-100871495D01*
X155280695Y-101029030D01*
X155156921Y-101214271D01*
X155071664Y-101420100D01*
X155028200Y-101638606D01*
X155028200Y-101861394D01*
X155071664Y-102079900D01*
X155156921Y-102285729D01*
X155280695Y-102470970D01*
X155438230Y-102628505D01*
X155623471Y-102752279D01*
X155829300Y-102837536D01*
X156047806Y-102881000D01*
X156270594Y-102881000D01*
X156489100Y-102837536D01*
X156694929Y-102752279D01*
X156880170Y-102628505D01*
X156981601Y-102527074D01*
X156981601Y-102641456D01*
X151422157Y-108200900D01*
X140263613Y-108200900D01*
X140320168Y-108177474D01*
X140587302Y-107998981D01*
X140814481Y-107771802D01*
X140992974Y-107504668D01*
X141115922Y-107207845D01*
X141178600Y-106892740D01*
X141178600Y-106571460D01*
X141115922Y-106256355D01*
X140992974Y-105959532D01*
X140814481Y-105692398D01*
X140587302Y-105465219D01*
X140320168Y-105286726D01*
X140023345Y-105163778D01*
X139708240Y-105101100D01*
X139386960Y-105101100D01*
X139071855Y-105163778D01*
X138775032Y-105286726D01*
X138507898Y-105465219D01*
X138280719Y-105692398D01*
X138102226Y-105959532D01*
X137979278Y-106256355D01*
X137916600Y-106571460D01*
X137916600Y-106892740D01*
X137979278Y-107207845D01*
X138102226Y-107504668D01*
X138280719Y-107771802D01*
X138507898Y-107998981D01*
X138775032Y-108177474D01*
X138831587Y-108200900D01*
X138404543Y-108200900D01*
X133836450Y-103632807D01*
X133805728Y-103595372D01*
X133656351Y-103472782D01*
X133485929Y-103381689D01*
X133301010Y-103325595D01*
X133156887Y-103311400D01*
X133156886Y-103311400D01*
X133108700Y-103306654D01*
X133060514Y-103311400D01*
X130352743Y-103311400D01*
X128612803Y-101571460D01*
X137916600Y-101571460D01*
X137916600Y-101892740D01*
X137979278Y-102207845D01*
X138102226Y-102504668D01*
X138280719Y-102771802D01*
X138507898Y-102998981D01*
X138775032Y-103177474D01*
X139071855Y-103300422D01*
X139386960Y-103363100D01*
X139708240Y-103363100D01*
X140023345Y-103300422D01*
X140320168Y-103177474D01*
X140587302Y-102998981D01*
X140814481Y-102771802D01*
X140992974Y-102504668D01*
X141115922Y-102207845D01*
X141178600Y-101892740D01*
X141178600Y-101638606D01*
X152028200Y-101638606D01*
X152028200Y-101861394D01*
X152071664Y-102079900D01*
X152156921Y-102285729D01*
X152280695Y-102470970D01*
X152438230Y-102628505D01*
X152623471Y-102752279D01*
X152829300Y-102837536D01*
X153047806Y-102881000D01*
X153270594Y-102881000D01*
X153489100Y-102837536D01*
X153694929Y-102752279D01*
X153880170Y-102628505D01*
X154037705Y-102470970D01*
X154161479Y-102285729D01*
X154246736Y-102079900D01*
X154290200Y-101861394D01*
X154290200Y-101638606D01*
X154246736Y-101420100D01*
X154161479Y-101214271D01*
X154037705Y-101029030D01*
X153880170Y-100871495D01*
X153694929Y-100747721D01*
X153489100Y-100662464D01*
X153270594Y-100619000D01*
X153047806Y-100619000D01*
X152829300Y-100662464D01*
X152623471Y-100747721D01*
X152438230Y-100871495D01*
X152280695Y-101029030D01*
X152156921Y-101214271D01*
X152071664Y-101420100D01*
X152028200Y-101638606D01*
X141178600Y-101638606D01*
X141178600Y-101571460D01*
X141115922Y-101256355D01*
X140992974Y-100959532D01*
X140814481Y-100692398D01*
X140587302Y-100465219D01*
X140320168Y-100286726D01*
X140023345Y-100163778D01*
X139708240Y-100101100D01*
X139386960Y-100101100D01*
X139071855Y-100163778D01*
X138775032Y-100286726D01*
X138507898Y-100465219D01*
X138280719Y-100692398D01*
X138102226Y-100959532D01*
X137979278Y-101256355D01*
X137916600Y-101571460D01*
X128612803Y-101571460D01*
X128126550Y-101085207D01*
X128095828Y-101047772D01*
X127946451Y-100925182D01*
X127776029Y-100834089D01*
X127591110Y-100777995D01*
X127446987Y-100763800D01*
X127446986Y-100763800D01*
X127398800Y-100759054D01*
X127350614Y-100763800D01*
X123746804Y-100763800D01*
X123707581Y-100705098D01*
X123480402Y-100477919D01*
X123213268Y-100299426D01*
X122916445Y-100176478D01*
X122601340Y-100113800D01*
X122280060Y-100113800D01*
X121964955Y-100176478D01*
X121668132Y-100299426D01*
X121400998Y-100477919D01*
X121173819Y-100705098D01*
X120995326Y-100972232D01*
X120872378Y-101269055D01*
X120809700Y-101584160D01*
X116342900Y-101584160D01*
X116342900Y-96584160D01*
X120809700Y-96584160D01*
X120809700Y-96905440D01*
X120872378Y-97220545D01*
X120995326Y-97517368D01*
X121173819Y-97784502D01*
X121400998Y-98011681D01*
X121668132Y-98190174D01*
X121964955Y-98313122D01*
X122280060Y-98375800D01*
X122601340Y-98375800D01*
X122916445Y-98313122D01*
X123213268Y-98190174D01*
X123480402Y-98011681D01*
X123687194Y-97804889D01*
X129519000Y-97804889D01*
X129519000Y-98195111D01*
X129595129Y-98577836D01*
X129744461Y-98938355D01*
X129961257Y-99262814D01*
X130237186Y-99538743D01*
X130561645Y-99755539D01*
X130922164Y-99904871D01*
X131304889Y-99981000D01*
X131695111Y-99981000D01*
X132077836Y-99904871D01*
X132438355Y-99755539D01*
X132762814Y-99538743D01*
X133038743Y-99262814D01*
X133255539Y-98938355D01*
X133379699Y-98638606D01*
X152028200Y-98638606D01*
X152028200Y-98861394D01*
X152071664Y-99079900D01*
X152156921Y-99285729D01*
X152280695Y-99470970D01*
X152438230Y-99628505D01*
X152623471Y-99752279D01*
X152829300Y-99837536D01*
X153047806Y-99881000D01*
X153270594Y-99881000D01*
X153489100Y-99837536D01*
X153694929Y-99752279D01*
X153880170Y-99628505D01*
X154037705Y-99470970D01*
X154161479Y-99285729D01*
X154246736Y-99079900D01*
X154290200Y-98861394D01*
X154290200Y-98638606D01*
X154246736Y-98420100D01*
X154161479Y-98214271D01*
X154037705Y-98029030D01*
X153880170Y-97871495D01*
X153694929Y-97747721D01*
X153489100Y-97662464D01*
X153270594Y-97619000D01*
X153047806Y-97619000D01*
X152829300Y-97662464D01*
X152623471Y-97747721D01*
X152438230Y-97871495D01*
X152280695Y-98029030D01*
X152156921Y-98214271D01*
X152071664Y-98420100D01*
X152028200Y-98638606D01*
X133379699Y-98638606D01*
X133404871Y-98577836D01*
X133481000Y-98195111D01*
X133481000Y-97804889D01*
X133404871Y-97422164D01*
X133255539Y-97061645D01*
X133038743Y-96737186D01*
X132873017Y-96571460D01*
X137916600Y-96571460D01*
X137916600Y-96892740D01*
X137979278Y-97207845D01*
X138102226Y-97504668D01*
X138280719Y-97771802D01*
X138507898Y-97998981D01*
X138775032Y-98177474D01*
X139071855Y-98300422D01*
X139386960Y-98363100D01*
X139708240Y-98363100D01*
X140023345Y-98300422D01*
X140320168Y-98177474D01*
X140587302Y-97998981D01*
X140814481Y-97771802D01*
X140992974Y-97504668D01*
X141115922Y-97207845D01*
X141178600Y-96892740D01*
X141178600Y-96571460D01*
X141115922Y-96256355D01*
X140992974Y-95959532D01*
X140814481Y-95692398D01*
X140760689Y-95638606D01*
X152028200Y-95638606D01*
X152028200Y-95861394D01*
X152071664Y-96079900D01*
X152156921Y-96285729D01*
X152280695Y-96470970D01*
X152438230Y-96628505D01*
X152623471Y-96752279D01*
X152829300Y-96837536D01*
X153047806Y-96881000D01*
X153270594Y-96881000D01*
X153489100Y-96837536D01*
X153694929Y-96752279D01*
X153880170Y-96628505D01*
X154037705Y-96470970D01*
X154161479Y-96285729D01*
X154246736Y-96079900D01*
X154290200Y-95861394D01*
X154290200Y-95638606D01*
X154246736Y-95420100D01*
X154161479Y-95214271D01*
X154037705Y-95029030D01*
X153880170Y-94871495D01*
X153694929Y-94747721D01*
X153489100Y-94662464D01*
X153270594Y-94619000D01*
X153047806Y-94619000D01*
X152829300Y-94662464D01*
X152623471Y-94747721D01*
X152438230Y-94871495D01*
X152280695Y-95029030D01*
X152156921Y-95214271D01*
X152071664Y-95420100D01*
X152028200Y-95638606D01*
X140760689Y-95638606D01*
X140587302Y-95465219D01*
X140320168Y-95286726D01*
X140023345Y-95163778D01*
X139708240Y-95101100D01*
X139386960Y-95101100D01*
X139071855Y-95163778D01*
X138775032Y-95286726D01*
X138507898Y-95465219D01*
X138280719Y-95692398D01*
X138102226Y-95959532D01*
X137979278Y-96256355D01*
X137916600Y-96571460D01*
X132873017Y-96571460D01*
X132762814Y-96461257D01*
X132438355Y-96244461D01*
X132077836Y-96095129D01*
X131695111Y-96019000D01*
X131304889Y-96019000D01*
X130922164Y-96095129D01*
X130561645Y-96244461D01*
X130237186Y-96461257D01*
X129961257Y-96737186D01*
X129744461Y-97061645D01*
X129595129Y-97422164D01*
X129519000Y-97804889D01*
X123687194Y-97804889D01*
X123707581Y-97784502D01*
X123746804Y-97725800D01*
X124900086Y-97725800D01*
X124978891Y-97749705D01*
X125171200Y-97768646D01*
X125363510Y-97749705D01*
X125548429Y-97693611D01*
X125718850Y-97602518D01*
X125868228Y-97479928D01*
X125898949Y-97442494D01*
X132977844Y-90363600D01*
X137935403Y-90363600D01*
X137922113Y-90407411D01*
X137914757Y-90482100D01*
X137914757Y-92982100D01*
X137922113Y-93056789D01*
X137943899Y-93128608D01*
X137979278Y-93194796D01*
X138026889Y-93252811D01*
X138084904Y-93300422D01*
X138151092Y-93335801D01*
X138222911Y-93357587D01*
X138297600Y-93364943D01*
X140797600Y-93364943D01*
X140872289Y-93357587D01*
X140944108Y-93335801D01*
X141010296Y-93300422D01*
X141068311Y-93252811D01*
X141115922Y-93194796D01*
X141151301Y-93128608D01*
X141173087Y-93056789D01*
X141180443Y-92982100D01*
X141180443Y-90482100D01*
X141173087Y-90407411D01*
X141159797Y-90363600D01*
X150730157Y-90363600D01*
X147942357Y-93151400D01*
X145697013Y-93151400D01*
X145552890Y-93165595D01*
X145367971Y-93221689D01*
X145197549Y-93312782D01*
X145048172Y-93435372D01*
X144925582Y-93584749D01*
X144834489Y-93755171D01*
X144778395Y-93940090D01*
X144759454Y-94132400D01*
X144778395Y-94324710D01*
X144834489Y-94509629D01*
X144925582Y-94680051D01*
X145048172Y-94829428D01*
X145197549Y-94952018D01*
X145367971Y-95043111D01*
X145552890Y-95099205D01*
X145697013Y-95113400D01*
X148300514Y-95113400D01*
X148348700Y-95118146D01*
X148396886Y-95113400D01*
X148396887Y-95113400D01*
X148541010Y-95099205D01*
X148725929Y-95043111D01*
X148896351Y-94952018D01*
X149045728Y-94829428D01*
X149076450Y-94791993D01*
X152031643Y-91836800D01*
X152490155Y-91836800D01*
X152438230Y-91871495D01*
X152280695Y-92029030D01*
X152156921Y-92214271D01*
X152071664Y-92420100D01*
X152028200Y-92638606D01*
X152028200Y-92861394D01*
X152071664Y-93079900D01*
X152156921Y-93285729D01*
X152280695Y-93470970D01*
X152438230Y-93628505D01*
X152623471Y-93752279D01*
X152829300Y-93837536D01*
X153047806Y-93881000D01*
X153270594Y-93881000D01*
X153489100Y-93837536D01*
X153694929Y-93752279D01*
X153880170Y-93628505D01*
X154037705Y-93470970D01*
X154161479Y-93285729D01*
X154246736Y-93079900D01*
X154290200Y-92861394D01*
X154290200Y-92638606D01*
X154246736Y-92420100D01*
X154161479Y-92214271D01*
X154037705Y-92029030D01*
X153880170Y-91871495D01*
X153828245Y-91836800D01*
X153858657Y-91836800D01*
X154749602Y-92727746D01*
X154749607Y-92727750D01*
X155064192Y-93042335D01*
X155071664Y-93079900D01*
X155156921Y-93285729D01*
X155280695Y-93470970D01*
X155438230Y-93628505D01*
X155623471Y-93752279D01*
X155829300Y-93837536D01*
X156047806Y-93881000D01*
X156270594Y-93881000D01*
X156489100Y-93837536D01*
X156694929Y-93752279D01*
X156880170Y-93628505D01*
X156956201Y-93552474D01*
X156956201Y-93565655D01*
X155866865Y-94654992D01*
X155829300Y-94662464D01*
X155623471Y-94747721D01*
X155438230Y-94871495D01*
X155280695Y-95029030D01*
X155156921Y-95214271D01*
X155071664Y-95420100D01*
X155028200Y-95638606D01*
X155028200Y-95861394D01*
X155071664Y-96079900D01*
X155156921Y-96285729D01*
X155280695Y-96470970D01*
X155438230Y-96628505D01*
X155623471Y-96752279D01*
X155829300Y-96837536D01*
X156047806Y-96881000D01*
X156270594Y-96881000D01*
X156489100Y-96837536D01*
X156694929Y-96752279D01*
X156880170Y-96628505D01*
X157037705Y-96470970D01*
X157161479Y-96285729D01*
X157246736Y-96079900D01*
X157254208Y-96042335D01*
X157738852Y-95557691D01*
X158548200Y-94748344D01*
X158548200Y-95040187D01*
X158622408Y-95413252D01*
X158767970Y-95764671D01*
X158979295Y-96080941D01*
X159248259Y-96349905D01*
X159564529Y-96561230D01*
X159915948Y-96706792D01*
X160289013Y-96781000D01*
X160669387Y-96781000D01*
X161042452Y-96706792D01*
X161393871Y-96561230D01*
X161710141Y-96349905D01*
X161979105Y-96080941D01*
X162190430Y-95764671D01*
X162335992Y-95413252D01*
X162410200Y-95040187D01*
X162410200Y-94659813D01*
X162335992Y-94286748D01*
X162190430Y-93935329D01*
X161979105Y-93619059D01*
X161710141Y-93350095D01*
X161393871Y-93138770D01*
X161042452Y-92993208D01*
X160669387Y-92919000D01*
X160289013Y-92919000D01*
X159915948Y-92993208D01*
X159564529Y-93138770D01*
X159248259Y-93350095D01*
X158979295Y-93619059D01*
X158918200Y-93710494D01*
X158918200Y-91323083D01*
X158922946Y-91274899D01*
X158918200Y-91226713D01*
X158904005Y-91082590D01*
X158847911Y-90897671D01*
X158756818Y-90727249D01*
X158634228Y-90577872D01*
X158596793Y-90547150D01*
X156772650Y-88723007D01*
X156741928Y-88685572D01*
X156592551Y-88562982D01*
X156422129Y-88471889D01*
X156237210Y-88415795D01*
X156093087Y-88401600D01*
X156093086Y-88401600D01*
X156044900Y-88396854D01*
X155996714Y-88401600D01*
X132619686Y-88401600D01*
X132571500Y-88396854D01*
X132523313Y-88401600D01*
X132379190Y-88415795D01*
X132194271Y-88471889D01*
X132023849Y-88562982D01*
X131874472Y-88685572D01*
X131843755Y-88723001D01*
X124802957Y-95763800D01*
X123746804Y-95763800D01*
X123707581Y-95705098D01*
X123480402Y-95477919D01*
X123213268Y-95299426D01*
X122916445Y-95176478D01*
X122601340Y-95113800D01*
X122280060Y-95113800D01*
X121964955Y-95176478D01*
X121668132Y-95299426D01*
X121400998Y-95477919D01*
X121173819Y-95705098D01*
X120995326Y-95972232D01*
X120872378Y-96269055D01*
X120809700Y-96584160D01*
X116342900Y-96584160D01*
X116342900Y-90494800D01*
X120807857Y-90494800D01*
X120807857Y-92994800D01*
X120815213Y-93069489D01*
X120836999Y-93141308D01*
X120872378Y-93207496D01*
X120919989Y-93265511D01*
X120978004Y-93313122D01*
X121044192Y-93348501D01*
X121116011Y-93370287D01*
X121190700Y-93377643D01*
X123690700Y-93377643D01*
X123765389Y-93370287D01*
X123837208Y-93348501D01*
X123903396Y-93313122D01*
X123961411Y-93265511D01*
X124009022Y-93207496D01*
X124044401Y-93141308D01*
X124066187Y-93069489D01*
X124073543Y-92994800D01*
X124073543Y-90494800D01*
X124066187Y-90420111D01*
X124044401Y-90348292D01*
X124009022Y-90282104D01*
X123961411Y-90224089D01*
X123903396Y-90176478D01*
X123837208Y-90141099D01*
X123765389Y-90119313D01*
X123690700Y-90111957D01*
X121190700Y-90111957D01*
X121116011Y-90119313D01*
X121044192Y-90141099D01*
X120978004Y-90176478D01*
X120919989Y-90224089D01*
X120872378Y-90282104D01*
X120836999Y-90348292D01*
X120815213Y-90420111D01*
X120807857Y-90494800D01*
X116342900Y-90494800D01*
X116342900Y-86516775D01*
X116366549Y-86275573D01*
X116431728Y-86059691D01*
X116537598Y-85860579D01*
X116680121Y-85685829D01*
X116853880Y-85542083D01*
X117052243Y-85434828D01*
X117267661Y-85368145D01*
X117507854Y-85342900D01*
X165483225Y-85342900D01*
X165724427Y-85366549D01*
G36*
X156956200Y-91681243D02*
G01*
X156956200Y-91947525D01*
X156880170Y-91871495D01*
X156694929Y-91747721D01*
X156489100Y-91662464D01*
X156451535Y-91654992D01*
X156136950Y-91340407D01*
X156136946Y-91340402D01*
X155160143Y-90363600D01*
X155638557Y-90363600D01*
X156956200Y-91681243D01*
G37*
X156956200Y-91681243D02*
X156956200Y-91947525D01*
X156880170Y-91871495D01*
X156694929Y-91747721D01*
X156489100Y-91662464D01*
X156451535Y-91654992D01*
X156136950Y-91340407D01*
X156136946Y-91340402D01*
X155160143Y-90363600D01*
X155638557Y-90363600D01*
X156956200Y-91681243D01*
M02*
