M48
; DRILL file {KiCad 5.1.5+dfsg1-2build2} date dom 24 ene 2021 18:09:52
; FORMAT={-:-/ absolute / inch / decimal}
; #@! TF.CreationDate,2021-01-24T18:09:52+01:00
; #@! TF.GenerationSoftware,Kicad,Pcbnew,5.1.5+dfsg1-2build2
FMAT,2
INCH
T1C0.0130
T2C0.0400
T3C0.0433
T4C0.1220
T5C0.1260
%
G90
G05
T1
X4.257Y-2.889
X4.265Y-4.909
X4.268Y-3.901
X4.292Y-3.069
X4.293Y-2.048
X4.293Y-5.072
X4.296Y-1.913
X4.317Y-4.052
X4.324Y-3.978
X4.328Y-5.004
X4.329Y-4.889
X4.331Y-2.1
X4.334Y-2.895
X4.336Y-2.996
X4.342Y-3.888
X4.379Y-1.911
X4.395Y-2.038
X4.403Y-2.985
X4.405Y-3.975
X4.422Y-4.964
X4.46Y-2.292
X4.476Y-4.303
X4.482Y-3.719
X4.49Y-2.721
X4.491Y-3.297
X4.493Y-4.679
X4.517Y-5.29
X4.53Y-1.743
X4.5318Y-1.9313
X4.5318Y-1.9731
X4.5318Y-2.0142
X4.5318Y-2.0567
X4.532Y-3.9165
X4.532Y-3.9559
X4.532Y-3.9952
X4.532Y-4.0346
X4.5345Y-2.924
X4.5345Y-2.9634
X4.5345Y-3.0027
X4.5345Y-3.0421
X4.537Y-4.904
X4.537Y-4.9434
X4.537Y-4.9827
X4.537Y-5.0221
X4.5714Y-3.9165
X4.5714Y-3.9559
X4.5714Y-3.9952
X4.5714Y-4.0346
X4.5736Y-1.9313
X4.5736Y-1.9731
X4.5736Y-2.0149
X4.5736Y-2.0567
X4.5739Y-2.924
X4.5739Y-2.9634
X4.5739Y-3.0027
X4.5739Y-3.0421
X4.5764Y-4.904
X4.5764Y-4.9434
X4.5764Y-4.9827
X4.5764Y-5.0221
X4.6107Y-3.9165
X4.6107Y-3.9559
X4.6107Y-3.9952
X4.6107Y-4.0346
X4.6132Y-2.924
X4.6132Y-2.9634
X4.6132Y-3.0027
X4.6132Y-3.0421
X4.6143Y-2.0567
X4.6147Y-1.9313
X4.6154Y-1.9731
X4.6154Y-2.0149
X4.6157Y-4.904
X4.6157Y-4.9434
X4.6157Y-4.9827
X4.6157Y-5.0221
X4.6501Y-3.9165
X4.6501Y-3.9559
X4.6501Y-3.9952
X4.6501Y-4.0346
X4.6526Y-2.924
X4.6526Y-2.9634
X4.6526Y-3.0027
X4.6526Y-3.0421
X4.6551Y-4.904
X4.6551Y-4.9434
X4.6551Y-4.9827
X4.6551Y-5.0221
X4.6572Y-1.9313
X4.6572Y-1.9731
X4.6572Y-2.0149
X4.6572Y-2.0567
X4.671Y-4.151
X4.704Y-5.14
X4.725Y-4.304
X4.727Y-2.224
X4.727Y-2.304
X4.727Y-3.312
X4.73Y-4.223
X4.734Y-3.238
X4.747Y-3.159
X4.7556Y-2.8651
X4.7556Y-5.2134
X4.7609Y-1.8751
X4.762Y-3.8565
X4.7629Y-1.9902
X4.7681Y-4.8451
X4.7795Y-5.0465
X4.7845Y-2.094
X4.7845Y-3.0465
X4.792Y-4.411
X4.793Y-4.588
X4.796Y-4.064
X4.801Y-2.575
X4.813Y-2.395
X4.814Y-3.42
X4.815Y-4.288
X4.819Y-3.281
X4.8245Y-2.3035
X4.831Y-3.649
X4.882Y-2.392
X4.89Y-4.591
X4.895Y-4.412
X4.896Y-4.287
X4.897Y-2.579
X4.897Y-3.282
X4.905Y-2.303
X4.909Y-3.64
X4.919Y-3.419
X4.9445Y-5.004
X4.954Y-3.743
X4.9555Y-2.7865
X4.956Y-3.802
X4.9566Y-2.8459
X4.959Y-3.024
X4.959Y-4.028
X4.96Y-1.868
X4.961Y-3.97
X4.9695Y-2.044
X4.973Y-3.862
X4.978Y-5.181
X4.986Y-2.812
X4.988Y-4.149
X4.988Y-4.675
X4.994Y-4.941
X4.994Y-5.028
X4.9957Y-4.7148
X5.001Y-3.022
X5.01Y-3.88
X5.0154Y-2.874
X5.022Y-4.791
X5.026Y-4.736
X5.047Y-1.86
X5.057Y-5.181
X5.082Y-2.747
X5.086Y-3.735
X5.103Y-4.037
X5.104Y-4.605
X5.105Y-2.069
X5.106Y-4.748
X5.116Y-2.214
X5.155Y-5.024
X5.156Y-5.116
X5.172Y-2.166
X5.18Y-4.961
X5.247Y-3.816
X5.254Y-3.627
X5.257Y-2.727
X5.263Y-3.712
X5.266Y-4.961
X5.276Y-3.538
X5.297Y-2.751
X5.305Y-3.882
X5.309Y-3.792
X5.335Y-4.967
X5.34Y-4.028
X5.341Y-5.033
X5.343Y-5.116
X5.347Y-2.483
X5.372Y-3.801
X5.374Y-3.877
X5.42Y-3.278
X5.453Y-2.72
X5.465Y-2.945
X5.477Y-3.284
X5.492Y-2.723
X5.513Y-3.851
X5.516Y-2.56
X5.519Y-3.292
X5.525Y-2.962
X5.527Y-3.751
X5.534Y-2.819
X5.57Y-2.978
X5.571Y-2.845
X5.578Y-3.302
X5.606Y-2.859
X5.63Y-2.987
X5.639Y-2.887
X5.675Y-3.043
X5.692Y-2.63
X5.7003Y-2.8584
X5.71Y-2.988
X5.716Y-4.627
X5.716Y-4.732
X5.721Y-4.856
X5.721Y-4.913
X5.73Y-4.564
X5.748Y-3.895
X5.764Y-3.614
X5.768Y-4.918
X5.802Y-3.248
X5.819Y-2.882
X5.819Y-4.555
X5.846Y-4.076
X5.851Y-3.724
X5.857Y-4.92
X5.859Y-4.988
X5.864Y-5.092
X5.869Y-5.177
X5.886Y-2.634
X5.896Y-3.248
X5.914Y-4.555
X5.944Y-3.089
X5.948Y-3.048
X5.949Y-3.627
X5.959Y-3.255
X5.961Y-2.807
X5.969Y-4.558
X5.984Y-3.793
X5.991Y-3.872
X5.997Y-2.88
X6.026Y-3.148
X6.031Y-2.8
X6.0359Y-3.2625
X6.038Y-2.997
X6.0517Y-3.112
X6.054Y-2.879
X6.062Y-4.567
X6.069Y-2.63
X6.093Y-3.695
X6.127Y-4.028
X6.15Y-3.243
X6.168Y-4.567
X6.185Y-2.887
X6.195Y-3.213
X6.195Y-4.148
X6.201Y-5.055
X6.2195Y-3.3505
X6.224Y-3.908
X6.226Y-2.834
X6.243Y-3.012
X6.246Y-4.557
X6.249Y-3.634
X6.253Y-2.615
X6.256Y-5.031
X6.258Y-3.437
X6.263Y-2.861
X6.27Y-5.102
X6.294Y-3.296
X6.2947Y-3.0139
X6.297Y-5.179
X6.305Y-3.241
X6.314Y-3.398
X6.316Y-3.127
X6.319Y-3.183
X6.321Y-5.026
X6.323Y-2.852
X6.325Y-4.047
X6.349Y-2.5
X6.354Y-4.545
X6.363Y-3.351
X6.372Y-3.248
X6.372Y-3.294
X6.3747Y-2.9554
X6.376Y-2.899
X6.378Y-4.957
X6.381Y-2.749
X6.385Y-2.698
X6.392Y-4.883
X6.401Y-3.735
X6.404Y-3.915
X6.404Y-4.641
X6.414Y-4.816
X6.416Y-4.717
X6.418Y-4.572
X6.422Y-4.15
X6.446Y-2.867
X6.447Y-3.249
X6.47Y-2.947
X6.471Y-2.386
X6.476Y-3.416
X6.476Y-3.475
X6.486Y-2.743
X6.489Y-2.698
X6.516Y-2.618
X6.5253Y-2.8195
X6.548Y-2.881
X6.555Y-2.094
X6.561Y-3.475
X6.563Y-3.047
X6.566Y-3.127
X6.568Y-2.007
X6.569Y-4.272
X6.57Y-3.194
X6.575Y-3.011
X6.575Y-4.397
X6.58Y-3.415
X6.588Y-2.727
X6.597Y-4.532
X6.603Y-2.817
X6.6043Y-4.1929
X6.61Y-2.273
X6.614Y-3.341
X6.634Y-2.618
X6.636Y-3.981
X6.663Y-4.347
X6.666Y-2.15
X6.666Y-4.614
X6.677Y-3.451
X6.677Y-3.562
X6.679Y-3.673
X6.688Y-3.781
X6.697Y-2.728
X6.699Y-2.922
X6.706Y-2.615
X6.706Y-3.327
X6.708Y-4.042
X6.721Y-3.037
X6.774Y-2.103
X6.782Y-1.976
X6.812Y-4.747
X6.816Y-4.519
X6.872Y-4.357
X6.882Y-3.043
X6.884Y-2.889
X6.917Y-3.19
X6.9193Y-2.5984
X6.9193Y-2.687
X6.931Y-2.983
X6.939Y-4.52
X6.941Y-2.781
X6.945Y-3.114
X6.948Y-2.238
X6.953Y-4.19
X6.959Y-4.252
X6.967Y-3.219
X6.987Y-4.128
X6.996Y-4.966
X6.999Y-4.739
X7.005Y-2.186
X7.01Y-2.723
X7.011Y-2.827
X7.015Y-2.6575
X7.023Y-2.234
X7.023Y-2.943
X7.025Y-3.266
X7.026Y-3.09
X7.0272Y-2.151
X7.028Y-3.149
X7.029Y-3.206
X7.029Y-4.072
X7.0321Y-2.3177
X7.039Y-4.989
X7.039Y-5.116
X7.039Y-5.178
X7.065Y-3.568
X7.068Y-3.367
X7.074Y-2.759
X7.077Y-4.646
X7.082Y-4.532
X7.087Y-3.754
X7.094Y-2.716
X7.095Y-4.355
X7.107Y-3.566
X7.109Y-2.609
X7.112Y-2.375
X7.115Y-3.369
X7.155Y-4.533
X7.159Y-4.355
X7.165Y-2.401
X7.166Y-2.045
X7.166Y-2.602
X7.169Y-3.01
X7.169Y-4.662
X7.174Y-4.004
X7.1762Y-3.0463
X7.18Y-3.95
X7.188Y-5.053
X7.211Y-2.361
X7.221Y-4.9133
X7.221Y-5.116
X7.222Y-3.1047
X7.223Y-3.852
X7.224Y-4.114
X7.225Y-2.87
X7.23Y-1.803
X7.23Y-4.817
X7.2319Y-4.9486
X7.243Y-2.141
X7.247Y-3.803
X7.258Y-4.636
X7.258Y-4.717
X7.262Y-2.771
X7.263Y-2.699
X7.267Y-3.67
X7.268Y-3.751
X7.288Y-1.799
X7.3255Y-2.921
X7.3255Y-2.9604
X7.3255Y-2.9997
X7.3255Y-3.0391
X7.3305Y-1.9135
X7.3305Y-1.9529
X7.3305Y-1.9922
X7.3305Y-2.0316
X7.3305Y-4.911
X7.3305Y-4.9504
X7.3305Y-4.9897
X7.3305Y-5.0291
X7.333Y-3.911
X7.333Y-3.9504
X7.333Y-3.9897
X7.333Y-4.0291
X7.3649Y-2.921
X7.3649Y-2.9604
X7.3649Y-2.9997
X7.3649Y-3.0391
X7.3699Y-1.9135
X7.3699Y-1.9529
X7.3699Y-1.9922
X7.3699Y-2.0316
X7.3699Y-4.911
X7.3699Y-4.9504
X7.3699Y-4.9897
X7.3699Y-5.0291
X7.3724Y-3.911
X7.3724Y-3.9504
X7.3724Y-3.9897
X7.3724Y-4.0291
X7.4042Y-2.921
X7.4042Y-2.9604
X7.4042Y-2.9997
X7.4042Y-3.0391
X7.4092Y-1.9135
X7.4092Y-1.9529
X7.4092Y-1.9922
X7.4092Y-2.0316
X7.4092Y-4.911
X7.4092Y-4.9504
X7.4092Y-4.9897
X7.4092Y-5.0291
X7.4117Y-3.911
X7.4117Y-3.9504
X7.4117Y-3.9897
X7.4117Y-4.0291
X7.4436Y-2.921
X7.4436Y-2.9604
X7.4436Y-2.9997
X7.4436Y-3.0391
X7.4486Y-1.9135
X7.4486Y-1.9529
X7.4486Y-1.9922
X7.4486Y-2.0316
X7.4486Y-4.911
X7.4486Y-4.9504
X7.4486Y-4.9897
X7.4486Y-5.0291
X7.4511Y-3.911
X7.4511Y-3.9504
X7.4511Y-3.9897
X7.4511Y-4.0291
X7.47Y-1.733
X7.556Y-3.847
X7.564Y-2.704
X7.568Y-4.239
X7.569Y-4.967
X7.57Y-2.256
X7.572Y-4.7
X7.583Y-3.97
X7.595Y-2.0
X7.595Y-2.98
X7.601Y-5.253
X7.642Y-3.266
X7.647Y-3.718
X7.675Y-1.725
X7.695Y-4.867
X7.704Y-4.948
X7.706Y-3.86
X7.706Y-3.942
X7.707Y-1.869
X7.708Y-2.066
X7.71Y-5.056
X7.712Y-2.959
X7.716Y-2.881
X7.717Y-1.981
X7.721Y-3.048
X7.727Y-4.05
X7.789Y-2.062
X7.79Y-3.077
X7.801Y-5.059
X7.806Y-4.061
T2
X5.167Y-2.5275
X5.167Y-2.6275
X5.167Y-2.7275
X5.167Y-2.8275
X5.167Y-2.9275
X5.167Y-3.0275
X5.167Y-3.1275
X5.167Y-3.2275
X5.167Y-3.3275
X5.167Y-3.4275
X5.167Y-3.5275
X5.167Y-3.6275
X5.167Y-3.7275
X5.167Y-3.8275
X5.167Y-3.9275
X6.805Y-2.5275
X6.805Y-2.6275
X6.805Y-2.7275
X6.805Y-2.8275
X6.805Y-2.9275
X6.805Y-3.0275
X6.805Y-3.1275
X6.805Y-3.2275
X6.805Y-3.3275
X6.805Y-3.4275
X6.805Y-3.5275
X6.805Y-3.6275
X6.805Y-3.7275
X6.805Y-3.8275
X6.805Y-3.9275
T3
X4.0845Y-1.984
X4.2026Y-1.984
X4.0845Y-2.984
X4.2026Y-2.984
X4.0845Y-3.984
X4.2026Y-3.984
X7.7899Y-2.9817
X7.908Y-2.9817
X7.7799Y-3.9723
X7.898Y-3.9723
X4.0845Y-4.964
X4.2026Y-4.964
X7.7899Y-1.981
X7.908Y-1.981
X7.7899Y-4.981
X7.908Y-4.981
X5.9569Y-4.9709
X5.9569Y-5.089
X6.075Y-4.9709
X6.075Y-5.089
T4
X3.9144Y-3.984
X8.0781Y-2.9817
X3.9144Y-4.964
X8.0781Y-1.981
X6.0159Y-5.2591
X3.9144Y-1.984
X3.9144Y-2.984
X8.0681Y-3.9723
X8.0781Y-4.981
T5
X6.7913Y-2.313
X5.1772Y-2.313
X7.6693Y-4.4185
X6.7913Y-4.1634
X4.126Y-4.4185
X5.1772Y-4.1634
X4.126Y-2.45
X7.6693Y-2.45
T0
M30
