%TF.GenerationSoftware,KiCad,Pcbnew,5.1.5+dfsg1-2build2*%
%TF.CreationDate,2021-01-24T20:27:35+01:00*%
%TF.ProjectId,PlacaStepperShield,506c6163-6153-4746-9570-706572536869,rev?*%
%TF.SameCoordinates,Original*%
%TF.FileFunction,Copper,L1,Top*%
%TF.FilePolarity,Positive*%
%FSLAX46Y46*%
G04 Gerber Fmt 4.6, Leading zero omitted, Abs format (unit mm)*
G04 Created by KiCad (PCBNEW 5.1.5+dfsg1-2build2) date 2021-01-24 20:27:35*
%MOMM*%
%LPD*%
G04 APERTURE LIST*
%ADD10R,1.750000X1.750000*%
%ADD11C,1.750000*%
%ADD12C,1.600000*%
%ADD13O,1.700000X1.700000*%
%ADD14R,1.700000X1.700000*%
%ADD15R,1.200000X2.200000*%
%ADD16R,5.800000X6.400000*%
%ADD17R,2.750000X3.050000*%
%ADD18C,0.685800*%
%ADD19C,0.500000*%
%ADD20C,1.500000*%
%ADD21C,0.254000*%
G04 APERTURE END LIST*
D10*
X143250000Y-63250000D03*
D11*
X145750000Y-63250000D03*
X148250000Y-63250000D03*
X150750000Y-63250000D03*
X153250000Y-63250000D03*
X155750000Y-63250000D03*
D12*
X149500000Y-103000000D03*
X149500000Y-100000000D03*
D11*
X155750000Y-74750000D03*
X153250000Y-74750000D03*
X150750000Y-74750000D03*
X148250000Y-74750000D03*
X145750000Y-74750000D03*
D10*
X143250000Y-74750000D03*
D13*
X128750000Y-98810000D03*
X128750000Y-96270000D03*
X128750000Y-93730000D03*
X128750000Y-91190000D03*
X128750000Y-88650000D03*
X128750000Y-86110000D03*
X128750000Y-83570000D03*
X128750000Y-81030000D03*
X128750000Y-78490000D03*
X128750000Y-75950000D03*
X128750000Y-73410000D03*
X128750000Y-70870000D03*
X128750000Y-68330000D03*
X128750000Y-65790000D03*
D14*
X128750000Y-63250000D03*
X169750000Y-63250000D03*
D13*
X169750000Y-65790000D03*
X169750000Y-68330000D03*
X169750000Y-70870000D03*
X169750000Y-73410000D03*
X169750000Y-75950000D03*
X169750000Y-78490000D03*
X169750000Y-81030000D03*
X169750000Y-83570000D03*
X169750000Y-86110000D03*
X169750000Y-88650000D03*
X169750000Y-91190000D03*
X169750000Y-93730000D03*
X169750000Y-96270000D03*
X169750000Y-98810000D03*
D15*
X147220000Y-94800000D03*
X151780000Y-94800000D03*
D16*
X149500000Y-88500000D03*
D17*
X151025000Y-86825000D03*
X147975000Y-90175000D03*
X147975000Y-86825000D03*
X151025000Y-90175000D03*
D18*
X133000000Y-70750000D03*
X136500000Y-67000000D03*
X146250000Y-66750000D03*
X149250000Y-66250000D03*
X137000000Y-75750000D03*
X139750000Y-75750000D03*
X143000000Y-86250000D03*
X144000000Y-88750000D03*
X160750000Y-82750000D03*
X160250000Y-89500000D03*
X163750000Y-87250000D03*
X165250000Y-78750000D03*
X156500000Y-70000000D03*
X158750000Y-68000000D03*
X144250000Y-93500000D03*
D19*
X143250000Y-66750000D02*
X143250000Y-63250000D01*
X142250000Y-67750000D02*
X143250000Y-66750000D01*
X131745989Y-76254011D02*
X140250000Y-67750000D01*
X140250000Y-67750000D02*
X142250000Y-67750000D01*
X131745989Y-83114011D02*
X131745989Y-76254011D01*
X128750000Y-86110000D02*
X131745989Y-83114011D01*
X153250000Y-62000000D02*
X153250000Y-63250000D01*
X152500000Y-61250000D02*
X153250000Y-62000000D01*
X145750000Y-62012564D02*
X146512564Y-61250000D01*
X146512564Y-61250000D02*
X152500000Y-61250000D01*
X145750000Y-63250000D02*
X145750000Y-62012564D01*
X152500000Y-61250000D02*
X160750000Y-61250000D01*
X160750000Y-61250000D02*
X162250000Y-62750000D01*
X162250000Y-62750000D02*
X162250000Y-69500000D01*
X163620000Y-70870000D02*
X169750000Y-70870000D01*
X162250000Y-69500000D02*
X163620000Y-70870000D01*
X148250000Y-63250000D02*
X150750000Y-63250000D01*
X155750000Y-63250000D02*
X150000000Y-69000000D01*
X132500000Y-76566332D02*
X132500000Y-84900000D01*
X150000000Y-69000000D02*
X140066332Y-69000000D01*
X140066332Y-69000000D02*
X132500000Y-76566332D01*
X132500000Y-84900000D02*
X129599999Y-87800001D01*
X129599999Y-87800001D02*
X128750000Y-88650000D01*
D20*
X155750000Y-96670000D02*
X155750000Y-101750000D01*
X153880000Y-94800000D02*
X155750000Y-96670000D01*
X151780000Y-94800000D02*
X153880000Y-94800000D01*
X149500000Y-103000000D02*
X154500000Y-103000000D01*
X154500000Y-103000000D02*
X155750000Y-101750000D01*
X149500000Y-88500000D02*
X149500000Y-100000000D01*
D19*
X137250000Y-84000000D02*
X136250000Y-85000000D01*
X146992798Y-84000000D02*
X137250000Y-84000000D01*
X133480000Y-96270000D02*
X128750000Y-96270000D01*
X136250000Y-85000000D02*
X136250000Y-93500000D01*
X148492798Y-82500000D02*
X146992798Y-84000000D01*
X151750000Y-82500000D02*
X148492798Y-82500000D01*
X153250000Y-81000000D02*
X151750000Y-82500000D01*
X136250000Y-93500000D02*
X133480000Y-96270000D01*
X153250000Y-74750000D02*
X153250000Y-81000000D01*
X135250000Y-84250000D02*
X135250000Y-92000000D01*
X136500000Y-83000000D02*
X135250000Y-84250000D01*
X135250000Y-92000000D02*
X133520000Y-93730000D01*
X148250000Y-80750000D02*
X146000000Y-83000000D01*
X133520000Y-93730000D02*
X128750000Y-93730000D01*
X146000000Y-83000000D02*
X136500000Y-83000000D01*
X148250000Y-74750000D02*
X148250000Y-80750000D01*
X132560000Y-91190000D02*
X128750000Y-91190000D01*
X134250000Y-89500000D02*
X132560000Y-91190000D01*
X134250000Y-84000000D02*
X134250000Y-89500000D01*
X136250000Y-82000000D02*
X134250000Y-84000000D01*
X141500000Y-82000000D02*
X136250000Y-82000000D01*
X143250000Y-80250000D02*
X141500000Y-82000000D01*
X143250000Y-74750000D02*
X143250000Y-80250000D01*
X145550000Y-94800000D02*
X144250000Y-93500000D01*
X147220000Y-94800000D02*
X145550000Y-94800000D01*
D21*
G36*
X172724427Y-54366549D02*
G01*
X172940309Y-54431728D01*
X173139421Y-54537598D01*
X173314171Y-54680121D01*
X173457917Y-54853880D01*
X173565172Y-55052243D01*
X173631855Y-55267661D01*
X173657100Y-55507854D01*
X173657101Y-107483214D01*
X173633450Y-107724430D01*
X173568272Y-107940309D01*
X173462402Y-108139421D01*
X173319877Y-108314174D01*
X173146121Y-108457917D01*
X172947757Y-108565172D01*
X172732339Y-108631855D01*
X172492146Y-108657100D01*
X126266776Y-108657100D01*
X126025570Y-108633450D01*
X125809691Y-108568272D01*
X125610579Y-108462402D01*
X125435826Y-108319877D01*
X125292083Y-108146121D01*
X125184828Y-107947757D01*
X125118145Y-107732339D01*
X125092900Y-107492146D01*
X125092900Y-104804889D01*
X126769000Y-104804889D01*
X126769000Y-105195111D01*
X126845129Y-105577836D01*
X126994461Y-105938355D01*
X127211257Y-106262814D01*
X127487186Y-106538743D01*
X127811645Y-106755539D01*
X128172164Y-106904871D01*
X128554889Y-106981000D01*
X128945111Y-106981000D01*
X129327836Y-106904871D01*
X129688355Y-106755539D01*
X130012814Y-106538743D01*
X130288743Y-106262814D01*
X130505539Y-105938355D01*
X130654871Y-105577836D01*
X130731000Y-105195111D01*
X130731000Y-104804889D01*
X167769000Y-104804889D01*
X167769000Y-105195111D01*
X167845129Y-105577836D01*
X167994461Y-105938355D01*
X168211257Y-106262814D01*
X168487186Y-106538743D01*
X168811645Y-106755539D01*
X169172164Y-106904871D01*
X169554889Y-106981000D01*
X169945111Y-106981000D01*
X170327836Y-106904871D01*
X170688355Y-106755539D01*
X171012814Y-106538743D01*
X171288743Y-106262814D01*
X171505539Y-105938355D01*
X171654871Y-105577836D01*
X171731000Y-105195111D01*
X171731000Y-104804889D01*
X171654871Y-104422164D01*
X171505539Y-104061645D01*
X171288743Y-103737186D01*
X171012814Y-103461257D01*
X170688355Y-103244461D01*
X170327836Y-103095129D01*
X169945111Y-103019000D01*
X169554889Y-103019000D01*
X169172164Y-103095129D01*
X168811645Y-103244461D01*
X168487186Y-103461257D01*
X168211257Y-103737186D01*
X167994461Y-104061645D01*
X167845129Y-104422164D01*
X167769000Y-104804889D01*
X130731000Y-104804889D01*
X130654871Y-104422164D01*
X130505539Y-104061645D01*
X130288743Y-103737186D01*
X130012814Y-103461257D01*
X129688355Y-103244461D01*
X129327836Y-103095129D01*
X128945111Y-103019000D01*
X128554889Y-103019000D01*
X128172164Y-103095129D01*
X127811645Y-103244461D01*
X127487186Y-103461257D01*
X127211257Y-103737186D01*
X126994461Y-104061645D01*
X126845129Y-104422164D01*
X126769000Y-104804889D01*
X125092900Y-104804889D01*
X125092900Y-102883682D01*
X148319000Y-102883682D01*
X148319000Y-103116318D01*
X148364386Y-103344485D01*
X148453412Y-103559413D01*
X148582658Y-103752843D01*
X148747157Y-103917342D01*
X148940587Y-104046588D01*
X149155515Y-104135614D01*
X149383682Y-104181000D01*
X149616318Y-104181000D01*
X149844485Y-104135614D01*
X149855624Y-104131000D01*
X154444450Y-104131000D01*
X154500000Y-104136471D01*
X154555550Y-104131000D01*
X154555558Y-104131000D01*
X154721715Y-104114635D01*
X154934909Y-104049963D01*
X155131390Y-103944942D01*
X155303607Y-103803607D01*
X155339025Y-103760450D01*
X156510455Y-102589021D01*
X156553607Y-102553607D01*
X156694942Y-102381390D01*
X156799963Y-102184909D01*
X156864635Y-101971715D01*
X156881000Y-101805558D01*
X156881000Y-101805551D01*
X156886471Y-101750000D01*
X156881000Y-101694450D01*
X156881000Y-98688757D01*
X168519000Y-98688757D01*
X168519000Y-98931243D01*
X168566307Y-99169069D01*
X168659102Y-99393097D01*
X168793820Y-99594717D01*
X168965283Y-99766180D01*
X169166903Y-99900898D01*
X169390931Y-99993693D01*
X169628757Y-100041000D01*
X169871243Y-100041000D01*
X170109069Y-99993693D01*
X170333097Y-99900898D01*
X170534717Y-99766180D01*
X170706180Y-99594717D01*
X170840898Y-99393097D01*
X170933693Y-99169069D01*
X170981000Y-98931243D01*
X170981000Y-98688757D01*
X170933693Y-98450931D01*
X170840898Y-98226903D01*
X170706180Y-98025283D01*
X170534717Y-97853820D01*
X170333097Y-97719102D01*
X170109069Y-97626307D01*
X169871243Y-97579000D01*
X169628757Y-97579000D01*
X169390931Y-97626307D01*
X169166903Y-97719102D01*
X168965283Y-97853820D01*
X168793820Y-98025283D01*
X168659102Y-98226903D01*
X168566307Y-98450931D01*
X168519000Y-98688757D01*
X156881000Y-98688757D01*
X156881000Y-96725547D01*
X156886471Y-96669999D01*
X156881000Y-96614451D01*
X156881000Y-96614442D01*
X156864635Y-96448285D01*
X156799963Y-96235091D01*
X156753817Y-96148757D01*
X168519000Y-96148757D01*
X168519000Y-96391243D01*
X168566307Y-96629069D01*
X168659102Y-96853097D01*
X168793820Y-97054717D01*
X168965283Y-97226180D01*
X169166903Y-97360898D01*
X169390931Y-97453693D01*
X169628757Y-97501000D01*
X169871243Y-97501000D01*
X170109069Y-97453693D01*
X170333097Y-97360898D01*
X170534717Y-97226180D01*
X170706180Y-97054717D01*
X170840898Y-96853097D01*
X170933693Y-96629069D01*
X170981000Y-96391243D01*
X170981000Y-96148757D01*
X170933693Y-95910931D01*
X170840898Y-95686903D01*
X170706180Y-95485283D01*
X170534717Y-95313820D01*
X170333097Y-95179102D01*
X170109069Y-95086307D01*
X169871243Y-95039000D01*
X169628757Y-95039000D01*
X169390931Y-95086307D01*
X169166903Y-95179102D01*
X168965283Y-95313820D01*
X168793820Y-95485283D01*
X168659102Y-95686903D01*
X168566307Y-95910931D01*
X168519000Y-96148757D01*
X156753817Y-96148757D01*
X156694942Y-96038610D01*
X156553607Y-95866393D01*
X156510450Y-95830975D01*
X154719025Y-94039550D01*
X154683607Y-93996393D01*
X154511390Y-93855058D01*
X154314909Y-93750037D01*
X154101715Y-93685365D01*
X153935558Y-93669000D01*
X153935550Y-93669000D01*
X153880000Y-93663529D01*
X153824450Y-93669000D01*
X152759790Y-93669000D01*
X152755487Y-93625311D01*
X152750466Y-93608757D01*
X168519000Y-93608757D01*
X168519000Y-93851243D01*
X168566307Y-94089069D01*
X168659102Y-94313097D01*
X168793820Y-94514717D01*
X168965283Y-94686180D01*
X169166903Y-94820898D01*
X169390931Y-94913693D01*
X169628757Y-94961000D01*
X169871243Y-94961000D01*
X170109069Y-94913693D01*
X170333097Y-94820898D01*
X170534717Y-94686180D01*
X170706180Y-94514717D01*
X170840898Y-94313097D01*
X170933693Y-94089069D01*
X170981000Y-93851243D01*
X170981000Y-93608757D01*
X170933693Y-93370931D01*
X170840898Y-93146903D01*
X170706180Y-92945283D01*
X170534717Y-92773820D01*
X170333097Y-92639102D01*
X170109069Y-92546307D01*
X169871243Y-92499000D01*
X169628757Y-92499000D01*
X169390931Y-92546307D01*
X169166903Y-92639102D01*
X168965283Y-92773820D01*
X168793820Y-92945283D01*
X168659102Y-93146903D01*
X168566307Y-93370931D01*
X168519000Y-93608757D01*
X152750466Y-93608757D01*
X152733701Y-93553492D01*
X152698322Y-93487304D01*
X152650711Y-93429289D01*
X152592696Y-93381678D01*
X152526508Y-93346299D01*
X152454689Y-93324513D01*
X152380000Y-93317157D01*
X151180000Y-93317157D01*
X151105311Y-93324513D01*
X151033492Y-93346299D01*
X150967304Y-93381678D01*
X150909289Y-93429289D01*
X150861678Y-93487304D01*
X150826299Y-93553492D01*
X150804513Y-93625311D01*
X150797157Y-93700000D01*
X150797157Y-94239518D01*
X150730037Y-94365091D01*
X150665365Y-94578285D01*
X150643528Y-94800000D01*
X150665365Y-95021715D01*
X150730037Y-95234909D01*
X150797157Y-95360482D01*
X150797157Y-95900000D01*
X150804513Y-95974689D01*
X150826299Y-96046508D01*
X150861678Y-96112696D01*
X150909289Y-96170711D01*
X150967304Y-96218322D01*
X151033492Y-96253701D01*
X151105311Y-96275487D01*
X151180000Y-96282843D01*
X152380000Y-96282843D01*
X152454689Y-96275487D01*
X152526508Y-96253701D01*
X152592696Y-96218322D01*
X152650711Y-96170711D01*
X152698322Y-96112696D01*
X152733701Y-96046508D01*
X152755487Y-95974689D01*
X152759790Y-95931000D01*
X153411525Y-95931000D01*
X154619000Y-97138475D01*
X154619001Y-101281523D01*
X154031525Y-101869000D01*
X149855624Y-101869000D01*
X149844485Y-101864386D01*
X149616318Y-101819000D01*
X149383682Y-101819000D01*
X149155515Y-101864386D01*
X148940587Y-101953412D01*
X148747157Y-102082658D01*
X148582658Y-102247157D01*
X148453412Y-102440587D01*
X148364386Y-102655515D01*
X148319000Y-102883682D01*
X125092900Y-102883682D01*
X125092900Y-98688757D01*
X127519000Y-98688757D01*
X127519000Y-98931243D01*
X127566307Y-99169069D01*
X127659102Y-99393097D01*
X127793820Y-99594717D01*
X127965283Y-99766180D01*
X128166903Y-99900898D01*
X128390931Y-99993693D01*
X128628757Y-100041000D01*
X128871243Y-100041000D01*
X129109069Y-99993693D01*
X129333097Y-99900898D01*
X129534717Y-99766180D01*
X129706180Y-99594717D01*
X129840898Y-99393097D01*
X129933693Y-99169069D01*
X129981000Y-98931243D01*
X129981000Y-98908304D01*
X145569000Y-98908304D01*
X145569000Y-99091696D01*
X145604778Y-99271563D01*
X145674958Y-99440994D01*
X145776845Y-99593478D01*
X145906522Y-99723155D01*
X146059006Y-99825042D01*
X146228437Y-99895222D01*
X146408304Y-99931000D01*
X146591696Y-99931000D01*
X146771563Y-99895222D01*
X146940994Y-99825042D01*
X147093478Y-99723155D01*
X147223155Y-99593478D01*
X147325042Y-99440994D01*
X147395222Y-99271563D01*
X147431000Y-99091696D01*
X147431000Y-98908304D01*
X147395222Y-98728437D01*
X147325042Y-98559006D01*
X147223155Y-98406522D01*
X147093478Y-98276845D01*
X146940994Y-98174958D01*
X146771563Y-98104778D01*
X146591696Y-98069000D01*
X146408304Y-98069000D01*
X146228437Y-98104778D01*
X146059006Y-98174958D01*
X145906522Y-98276845D01*
X145776845Y-98406522D01*
X145674958Y-98559006D01*
X145604778Y-98728437D01*
X145569000Y-98908304D01*
X129981000Y-98908304D01*
X129981000Y-98688757D01*
X129933693Y-98450931D01*
X129840898Y-98226903D01*
X129706180Y-98025283D01*
X129534717Y-97853820D01*
X129333097Y-97719102D01*
X129109069Y-97626307D01*
X128871243Y-97579000D01*
X128628757Y-97579000D01*
X128390931Y-97626307D01*
X128166903Y-97719102D01*
X127965283Y-97853820D01*
X127793820Y-98025283D01*
X127659102Y-98226903D01*
X127566307Y-98450931D01*
X127519000Y-98688757D01*
X125092900Y-98688757D01*
X125092900Y-91068757D01*
X127519000Y-91068757D01*
X127519000Y-91311243D01*
X127566307Y-91549069D01*
X127659102Y-91773097D01*
X127793820Y-91974717D01*
X127965283Y-92146180D01*
X128166903Y-92280898D01*
X128390931Y-92373693D01*
X128628757Y-92421000D01*
X128871243Y-92421000D01*
X129109069Y-92373693D01*
X129333097Y-92280898D01*
X129534717Y-92146180D01*
X129706180Y-91974717D01*
X129808890Y-91821000D01*
X132529010Y-91821000D01*
X132560000Y-91824052D01*
X132590990Y-91821000D01*
X132590998Y-91821000D01*
X132683698Y-91811870D01*
X132802642Y-91775789D01*
X132912261Y-91717196D01*
X133008343Y-91638343D01*
X133028105Y-91614263D01*
X134619001Y-90023368D01*
X134619001Y-91738631D01*
X133258632Y-93099000D01*
X129808890Y-93099000D01*
X129706180Y-92945283D01*
X129534717Y-92773820D01*
X129333097Y-92639102D01*
X129109069Y-92546307D01*
X128871243Y-92499000D01*
X128628757Y-92499000D01*
X128390931Y-92546307D01*
X128166903Y-92639102D01*
X127965283Y-92773820D01*
X127793820Y-92945283D01*
X127659102Y-93146903D01*
X127566307Y-93370931D01*
X127519000Y-93608757D01*
X127519000Y-93851243D01*
X127566307Y-94089069D01*
X127659102Y-94313097D01*
X127793820Y-94514717D01*
X127965283Y-94686180D01*
X128166903Y-94820898D01*
X128390931Y-94913693D01*
X128628757Y-94961000D01*
X128871243Y-94961000D01*
X129109069Y-94913693D01*
X129333097Y-94820898D01*
X129534717Y-94686180D01*
X129706180Y-94514717D01*
X129808890Y-94361000D01*
X133489010Y-94361000D01*
X133520000Y-94364052D01*
X133550990Y-94361000D01*
X133550998Y-94361000D01*
X133643698Y-94351870D01*
X133762642Y-94315789D01*
X133872261Y-94257196D01*
X133968343Y-94178343D01*
X133988105Y-94154263D01*
X135619001Y-92523367D01*
X135619001Y-93238630D01*
X133218632Y-95639000D01*
X129808890Y-95639000D01*
X129706180Y-95485283D01*
X129534717Y-95313820D01*
X129333097Y-95179102D01*
X129109069Y-95086307D01*
X128871243Y-95039000D01*
X128628757Y-95039000D01*
X128390931Y-95086307D01*
X128166903Y-95179102D01*
X127965283Y-95313820D01*
X127793820Y-95485283D01*
X127659102Y-95686903D01*
X127566307Y-95910931D01*
X127519000Y-96148757D01*
X127519000Y-96391243D01*
X127566307Y-96629069D01*
X127659102Y-96853097D01*
X127793820Y-97054717D01*
X127965283Y-97226180D01*
X128166903Y-97360898D01*
X128390931Y-97453693D01*
X128628757Y-97501000D01*
X128871243Y-97501000D01*
X129109069Y-97453693D01*
X129333097Y-97360898D01*
X129534717Y-97226180D01*
X129706180Y-97054717D01*
X129808890Y-96901000D01*
X133449010Y-96901000D01*
X133480000Y-96904052D01*
X133510990Y-96901000D01*
X133510998Y-96901000D01*
X133603698Y-96891870D01*
X133722642Y-96855789D01*
X133832261Y-96797196D01*
X133928343Y-96718343D01*
X133948105Y-96694263D01*
X136674268Y-93968101D01*
X136698343Y-93948343D01*
X136718104Y-93924265D01*
X136777196Y-93852261D01*
X136835789Y-93742642D01*
X136871870Y-93623698D01*
X136884053Y-93500000D01*
X136881000Y-93469002D01*
X136881000Y-93428702D01*
X143526100Y-93428702D01*
X143526100Y-93571298D01*
X143553919Y-93711154D01*
X143608488Y-93842895D01*
X143687710Y-93961460D01*
X143788540Y-94062290D01*
X143907105Y-94141512D01*
X144038846Y-94196081D01*
X144057404Y-94199772D01*
X145081899Y-95224268D01*
X145101657Y-95248343D01*
X145125732Y-95268101D01*
X145125734Y-95268103D01*
X145197739Y-95327196D01*
X145307358Y-95385789D01*
X145426302Y-95421870D01*
X145550000Y-95434053D01*
X145580998Y-95431000D01*
X146237157Y-95431000D01*
X146237157Y-95900000D01*
X146244513Y-95974689D01*
X146266299Y-96046508D01*
X146301678Y-96112696D01*
X146349289Y-96170711D01*
X146407304Y-96218322D01*
X146473492Y-96253701D01*
X146545311Y-96275487D01*
X146620000Y-96282843D01*
X147820000Y-96282843D01*
X147894689Y-96275487D01*
X147966508Y-96253701D01*
X148032696Y-96218322D01*
X148090711Y-96170711D01*
X148138322Y-96112696D01*
X148173701Y-96046508D01*
X148195487Y-95974689D01*
X148202843Y-95900000D01*
X148202843Y-93700000D01*
X148195487Y-93625311D01*
X148173701Y-93553492D01*
X148138322Y-93487304D01*
X148090711Y-93429289D01*
X148032696Y-93381678D01*
X147966508Y-93346299D01*
X147894689Y-93324513D01*
X147820000Y-93317157D01*
X146620000Y-93317157D01*
X146545311Y-93324513D01*
X146473492Y-93346299D01*
X146407304Y-93381678D01*
X146349289Y-93429289D01*
X146301678Y-93487304D01*
X146266299Y-93553492D01*
X146244513Y-93625311D01*
X146237157Y-93700000D01*
X146237157Y-94169000D01*
X145811369Y-94169000D01*
X144949772Y-93307404D01*
X144946081Y-93288846D01*
X144891512Y-93157105D01*
X144812290Y-93038540D01*
X144711460Y-92937710D01*
X144592895Y-92858488D01*
X144461154Y-92803919D01*
X144321298Y-92776100D01*
X144178702Y-92776100D01*
X144038846Y-92803919D01*
X143907105Y-92858488D01*
X143788540Y-92937710D01*
X143687710Y-93038540D01*
X143608488Y-93157105D01*
X143553919Y-93288846D01*
X143526100Y-93428702D01*
X136881000Y-93428702D01*
X136881000Y-85300000D01*
X146217157Y-85300000D01*
X146217157Y-91700000D01*
X146224513Y-91774689D01*
X146246299Y-91846508D01*
X146281678Y-91912696D01*
X146329289Y-91970711D01*
X146387304Y-92018322D01*
X146453492Y-92053701D01*
X146525311Y-92075487D01*
X146600000Y-92082843D01*
X148369000Y-92082843D01*
X148369001Y-99644373D01*
X148364386Y-99655515D01*
X148319000Y-99883682D01*
X148319000Y-100116318D01*
X148364386Y-100344485D01*
X148453412Y-100559413D01*
X148582658Y-100752843D01*
X148747157Y-100917342D01*
X148940587Y-101046588D01*
X149155515Y-101135614D01*
X149383682Y-101181000D01*
X149616318Y-101181000D01*
X149844485Y-101135614D01*
X150059413Y-101046588D01*
X150252843Y-100917342D01*
X150417342Y-100752843D01*
X150546588Y-100559413D01*
X150635614Y-100344485D01*
X150681000Y-100116318D01*
X150681000Y-99883682D01*
X150635614Y-99655515D01*
X150631000Y-99644376D01*
X150631000Y-98968304D01*
X151569000Y-98968304D01*
X151569000Y-99151696D01*
X151604778Y-99331563D01*
X151674958Y-99500994D01*
X151776845Y-99653478D01*
X151906522Y-99783155D01*
X152059006Y-99885042D01*
X152228437Y-99955222D01*
X152408304Y-99991000D01*
X152591696Y-99991000D01*
X152771563Y-99955222D01*
X152940994Y-99885042D01*
X153093478Y-99783155D01*
X153223155Y-99653478D01*
X153325042Y-99500994D01*
X153395222Y-99331563D01*
X153431000Y-99151696D01*
X153431000Y-98968304D01*
X153395222Y-98788437D01*
X153325042Y-98619006D01*
X153223155Y-98466522D01*
X153093478Y-98336845D01*
X152940994Y-98234958D01*
X152771563Y-98164778D01*
X152591696Y-98129000D01*
X152408304Y-98129000D01*
X152228437Y-98164778D01*
X152059006Y-98234958D01*
X151906522Y-98336845D01*
X151776845Y-98466522D01*
X151674958Y-98619006D01*
X151604778Y-98788437D01*
X151569000Y-98968304D01*
X150631000Y-98968304D01*
X150631000Y-92082843D01*
X152400000Y-92082843D01*
X152474689Y-92075487D01*
X152546508Y-92053701D01*
X152612696Y-92018322D01*
X152670711Y-91970711D01*
X152718322Y-91912696D01*
X152753701Y-91846508D01*
X152775487Y-91774689D01*
X152782843Y-91700000D01*
X152782843Y-91068757D01*
X168519000Y-91068757D01*
X168519000Y-91311243D01*
X168566307Y-91549069D01*
X168659102Y-91773097D01*
X168793820Y-91974717D01*
X168965283Y-92146180D01*
X169166903Y-92280898D01*
X169390931Y-92373693D01*
X169628757Y-92421000D01*
X169871243Y-92421000D01*
X170109069Y-92373693D01*
X170333097Y-92280898D01*
X170534717Y-92146180D01*
X170706180Y-91974717D01*
X170840898Y-91773097D01*
X170933693Y-91549069D01*
X170981000Y-91311243D01*
X170981000Y-91068757D01*
X170933693Y-90830931D01*
X170840898Y-90606903D01*
X170706180Y-90405283D01*
X170534717Y-90233820D01*
X170333097Y-90099102D01*
X170109069Y-90006307D01*
X169871243Y-89959000D01*
X169628757Y-89959000D01*
X169390931Y-90006307D01*
X169166903Y-90099102D01*
X168965283Y-90233820D01*
X168793820Y-90405283D01*
X168659102Y-90606903D01*
X168566307Y-90830931D01*
X168519000Y-91068757D01*
X152782843Y-91068757D01*
X152782843Y-88528757D01*
X168519000Y-88528757D01*
X168519000Y-88771243D01*
X168566307Y-89009069D01*
X168659102Y-89233097D01*
X168793820Y-89434717D01*
X168965283Y-89606180D01*
X169166903Y-89740898D01*
X169390931Y-89833693D01*
X169628757Y-89881000D01*
X169871243Y-89881000D01*
X170109069Y-89833693D01*
X170333097Y-89740898D01*
X170534717Y-89606180D01*
X170706180Y-89434717D01*
X170840898Y-89233097D01*
X170933693Y-89009069D01*
X170981000Y-88771243D01*
X170981000Y-88528757D01*
X170933693Y-88290931D01*
X170840898Y-88066903D01*
X170706180Y-87865283D01*
X170534717Y-87693820D01*
X170333097Y-87559102D01*
X170109069Y-87466307D01*
X169871243Y-87419000D01*
X169628757Y-87419000D01*
X169390931Y-87466307D01*
X169166903Y-87559102D01*
X168965283Y-87693820D01*
X168793820Y-87865283D01*
X168659102Y-88066903D01*
X168566307Y-88290931D01*
X168519000Y-88528757D01*
X152782843Y-88528757D01*
X152782843Y-85988757D01*
X168519000Y-85988757D01*
X168519000Y-86231243D01*
X168566307Y-86469069D01*
X168659102Y-86693097D01*
X168793820Y-86894717D01*
X168965283Y-87066180D01*
X169166903Y-87200898D01*
X169390931Y-87293693D01*
X169628757Y-87341000D01*
X169871243Y-87341000D01*
X170109069Y-87293693D01*
X170333097Y-87200898D01*
X170534717Y-87066180D01*
X170706180Y-86894717D01*
X170840898Y-86693097D01*
X170933693Y-86469069D01*
X170981000Y-86231243D01*
X170981000Y-85988757D01*
X170933693Y-85750931D01*
X170840898Y-85526903D01*
X170706180Y-85325283D01*
X170534717Y-85153820D01*
X170333097Y-85019102D01*
X170109069Y-84926307D01*
X169871243Y-84879000D01*
X169628757Y-84879000D01*
X169390931Y-84926307D01*
X169166903Y-85019102D01*
X168965283Y-85153820D01*
X168793820Y-85325283D01*
X168659102Y-85526903D01*
X168566307Y-85750931D01*
X168519000Y-85988757D01*
X152782843Y-85988757D01*
X152782843Y-85300000D01*
X152775487Y-85225311D01*
X152753701Y-85153492D01*
X152718322Y-85087304D01*
X152670711Y-85029289D01*
X152612696Y-84981678D01*
X152546508Y-84946299D01*
X152474689Y-84924513D01*
X152400000Y-84917157D01*
X146600000Y-84917157D01*
X146525311Y-84924513D01*
X146453492Y-84946299D01*
X146387304Y-84981678D01*
X146329289Y-85029289D01*
X146281678Y-85087304D01*
X146246299Y-85153492D01*
X146224513Y-85225311D01*
X146217157Y-85300000D01*
X136881000Y-85300000D01*
X136881000Y-85261368D01*
X137511369Y-84631000D01*
X146961808Y-84631000D01*
X146992798Y-84634052D01*
X147023788Y-84631000D01*
X147023796Y-84631000D01*
X147116496Y-84621870D01*
X147235440Y-84585789D01*
X147345059Y-84527196D01*
X147441141Y-84448343D01*
X147460903Y-84424263D01*
X148436409Y-83448757D01*
X168519000Y-83448757D01*
X168519000Y-83691243D01*
X168566307Y-83929069D01*
X168659102Y-84153097D01*
X168793820Y-84354717D01*
X168965283Y-84526180D01*
X169166903Y-84660898D01*
X169390931Y-84753693D01*
X169628757Y-84801000D01*
X169871243Y-84801000D01*
X170109069Y-84753693D01*
X170333097Y-84660898D01*
X170534717Y-84526180D01*
X170706180Y-84354717D01*
X170840898Y-84153097D01*
X170933693Y-83929069D01*
X170981000Y-83691243D01*
X170981000Y-83448757D01*
X170933693Y-83210931D01*
X170840898Y-82986903D01*
X170706180Y-82785283D01*
X170534717Y-82613820D01*
X170333097Y-82479102D01*
X170109069Y-82386307D01*
X169871243Y-82339000D01*
X169628757Y-82339000D01*
X169390931Y-82386307D01*
X169166903Y-82479102D01*
X168965283Y-82613820D01*
X168793820Y-82785283D01*
X168659102Y-82986903D01*
X168566307Y-83210931D01*
X168519000Y-83448757D01*
X148436409Y-83448757D01*
X148754167Y-83131000D01*
X151719010Y-83131000D01*
X151750000Y-83134052D01*
X151780990Y-83131000D01*
X151780998Y-83131000D01*
X151873698Y-83121870D01*
X151992642Y-83085789D01*
X152102261Y-83027196D01*
X152198343Y-82948343D01*
X152218105Y-82924263D01*
X153674268Y-81468101D01*
X153698343Y-81448343D01*
X153777196Y-81352261D01*
X153835789Y-81242642D01*
X153871870Y-81123698D01*
X153881000Y-81030998D01*
X153881000Y-81030989D01*
X153884052Y-81000001D01*
X153881000Y-80969013D01*
X153881000Y-80908757D01*
X168519000Y-80908757D01*
X168519000Y-81151243D01*
X168566307Y-81389069D01*
X168659102Y-81613097D01*
X168793820Y-81814717D01*
X168965283Y-81986180D01*
X169166903Y-82120898D01*
X169390931Y-82213693D01*
X169628757Y-82261000D01*
X169871243Y-82261000D01*
X170109069Y-82213693D01*
X170333097Y-82120898D01*
X170534717Y-81986180D01*
X170706180Y-81814717D01*
X170840898Y-81613097D01*
X170933693Y-81389069D01*
X170981000Y-81151243D01*
X170981000Y-80908757D01*
X170933693Y-80670931D01*
X170840898Y-80446903D01*
X170706180Y-80245283D01*
X170534717Y-80073820D01*
X170333097Y-79939102D01*
X170109069Y-79846307D01*
X169871243Y-79799000D01*
X169628757Y-79799000D01*
X169390931Y-79846307D01*
X169166903Y-79939102D01*
X168965283Y-80073820D01*
X168793820Y-80245283D01*
X168659102Y-80446903D01*
X168566307Y-80670931D01*
X168519000Y-80908757D01*
X153881000Y-80908757D01*
X153881000Y-78368757D01*
X168519000Y-78368757D01*
X168519000Y-78611243D01*
X168566307Y-78849069D01*
X168659102Y-79073097D01*
X168793820Y-79274717D01*
X168965283Y-79446180D01*
X169166903Y-79580898D01*
X169390931Y-79673693D01*
X169628757Y-79721000D01*
X169871243Y-79721000D01*
X170109069Y-79673693D01*
X170333097Y-79580898D01*
X170534717Y-79446180D01*
X170706180Y-79274717D01*
X170840898Y-79073097D01*
X170933693Y-78849069D01*
X170981000Y-78611243D01*
X170981000Y-78368757D01*
X170933693Y-78130931D01*
X170840898Y-77906903D01*
X170706180Y-77705283D01*
X170534717Y-77533820D01*
X170333097Y-77399102D01*
X170109069Y-77306307D01*
X169871243Y-77259000D01*
X169628757Y-77259000D01*
X169390931Y-77306307D01*
X169166903Y-77399102D01*
X168965283Y-77533820D01*
X168793820Y-77705283D01*
X168659102Y-77906903D01*
X168566307Y-78130931D01*
X168519000Y-78368757D01*
X153881000Y-78368757D01*
X153881000Y-75838958D01*
X153944931Y-75796240D01*
X154883365Y-75796240D01*
X154964025Y-76047868D01*
X155232329Y-76176267D01*
X155520526Y-76249855D01*
X155817543Y-76265804D01*
X156111963Y-76223501D01*
X156392474Y-76124572D01*
X156535975Y-76047868D01*
X156606211Y-75828757D01*
X168519000Y-75828757D01*
X168519000Y-76071243D01*
X168566307Y-76309069D01*
X168659102Y-76533097D01*
X168793820Y-76734717D01*
X168965283Y-76906180D01*
X169166903Y-77040898D01*
X169390931Y-77133693D01*
X169628757Y-77181000D01*
X169871243Y-77181000D01*
X170109069Y-77133693D01*
X170333097Y-77040898D01*
X170534717Y-76906180D01*
X170706180Y-76734717D01*
X170840898Y-76533097D01*
X170933693Y-76309069D01*
X170981000Y-76071243D01*
X170981000Y-75828757D01*
X170933693Y-75590931D01*
X170840898Y-75366903D01*
X170706180Y-75165283D01*
X170534717Y-74993820D01*
X170333097Y-74859102D01*
X170109069Y-74766307D01*
X169871243Y-74719000D01*
X169628757Y-74719000D01*
X169390931Y-74766307D01*
X169166903Y-74859102D01*
X168965283Y-74993820D01*
X168793820Y-75165283D01*
X168659102Y-75366903D01*
X168566307Y-75590931D01*
X168519000Y-75828757D01*
X156606211Y-75828757D01*
X156616635Y-75796240D01*
X155750000Y-74929605D01*
X154883365Y-75796240D01*
X153944931Y-75796240D01*
X154050653Y-75725599D01*
X154225599Y-75550653D01*
X154360180Y-75349239D01*
X154375428Y-75392474D01*
X154452132Y-75535975D01*
X154703760Y-75616635D01*
X155570395Y-74750000D01*
X155929605Y-74750000D01*
X156796240Y-75616635D01*
X157047868Y-75535975D01*
X157176267Y-75267671D01*
X157249855Y-74979474D01*
X157265804Y-74682457D01*
X157223501Y-74388037D01*
X157124572Y-74107526D01*
X157047868Y-73964025D01*
X156796240Y-73883365D01*
X155929605Y-74750000D01*
X155570395Y-74750000D01*
X154703760Y-73883365D01*
X154452132Y-73964025D01*
X154361688Y-74153018D01*
X154225599Y-73949347D01*
X154050653Y-73774401D01*
X153944932Y-73703760D01*
X154883365Y-73703760D01*
X155750000Y-74570395D01*
X156616635Y-73703760D01*
X156535975Y-73452132D01*
X156267671Y-73323733D01*
X156130693Y-73288757D01*
X168519000Y-73288757D01*
X168519000Y-73531243D01*
X168566307Y-73769069D01*
X168659102Y-73993097D01*
X168793820Y-74194717D01*
X168965283Y-74366180D01*
X169166903Y-74500898D01*
X169390931Y-74593693D01*
X169628757Y-74641000D01*
X169871243Y-74641000D01*
X170109069Y-74593693D01*
X170333097Y-74500898D01*
X170534717Y-74366180D01*
X170706180Y-74194717D01*
X170840898Y-73993097D01*
X170933693Y-73769069D01*
X170981000Y-73531243D01*
X170981000Y-73288757D01*
X170933693Y-73050931D01*
X170840898Y-72826903D01*
X170706180Y-72625283D01*
X170534717Y-72453820D01*
X170333097Y-72319102D01*
X170109069Y-72226307D01*
X169871243Y-72179000D01*
X169628757Y-72179000D01*
X169390931Y-72226307D01*
X169166903Y-72319102D01*
X168965283Y-72453820D01*
X168793820Y-72625283D01*
X168659102Y-72826903D01*
X168566307Y-73050931D01*
X168519000Y-73288757D01*
X156130693Y-73288757D01*
X155979474Y-73250145D01*
X155682457Y-73234196D01*
X155388037Y-73276499D01*
X155107526Y-73375428D01*
X154964025Y-73452132D01*
X154883365Y-73703760D01*
X153944932Y-73703760D01*
X153844939Y-73636947D01*
X153616362Y-73542268D01*
X153373705Y-73494000D01*
X153126295Y-73494000D01*
X152883638Y-73542268D01*
X152655061Y-73636947D01*
X152449347Y-73774401D01*
X152274401Y-73949347D01*
X152139820Y-74150761D01*
X152124572Y-74107526D01*
X152047868Y-73964025D01*
X151796240Y-73883365D01*
X150929605Y-74750000D01*
X151796240Y-75616635D01*
X152047868Y-75535975D01*
X152138312Y-75346982D01*
X152274401Y-75550653D01*
X152449347Y-75725599D01*
X152619000Y-75838958D01*
X152619001Y-80738630D01*
X151488632Y-81869000D01*
X148523785Y-81869000D01*
X148492797Y-81865948D01*
X148461809Y-81869000D01*
X148461800Y-81869000D01*
X148369100Y-81878130D01*
X148250156Y-81914211D01*
X148140537Y-81972804D01*
X148140535Y-81972805D01*
X148140536Y-81972805D01*
X148107398Y-82000001D01*
X148044455Y-82051657D01*
X148024697Y-82075732D01*
X146731430Y-83369000D01*
X146523368Y-83369000D01*
X148674268Y-81218101D01*
X148698343Y-81198343D01*
X148777196Y-81102261D01*
X148835789Y-80992642D01*
X148871870Y-80873698D01*
X148881000Y-80780998D01*
X148884053Y-80750000D01*
X148881000Y-80719002D01*
X148881000Y-75838958D01*
X148944931Y-75796240D01*
X149883365Y-75796240D01*
X149964025Y-76047868D01*
X150232329Y-76176267D01*
X150520526Y-76249855D01*
X150817543Y-76265804D01*
X151111963Y-76223501D01*
X151392474Y-76124572D01*
X151535975Y-76047868D01*
X151616635Y-75796240D01*
X150750000Y-74929605D01*
X149883365Y-75796240D01*
X148944931Y-75796240D01*
X149050653Y-75725599D01*
X149225599Y-75550653D01*
X149360180Y-75349239D01*
X149375428Y-75392474D01*
X149452132Y-75535975D01*
X149703760Y-75616635D01*
X150570395Y-74750000D01*
X149703760Y-73883365D01*
X149452132Y-73964025D01*
X149361688Y-74153018D01*
X149225599Y-73949347D01*
X149050653Y-73774401D01*
X148944932Y-73703760D01*
X149883365Y-73703760D01*
X150750000Y-74570395D01*
X151616635Y-73703760D01*
X151535975Y-73452132D01*
X151267671Y-73323733D01*
X150979474Y-73250145D01*
X150682457Y-73234196D01*
X150388037Y-73276499D01*
X150107526Y-73375428D01*
X149964025Y-73452132D01*
X149883365Y-73703760D01*
X148944932Y-73703760D01*
X148844939Y-73636947D01*
X148616362Y-73542268D01*
X148373705Y-73494000D01*
X148126295Y-73494000D01*
X147883638Y-73542268D01*
X147655061Y-73636947D01*
X147449347Y-73774401D01*
X147274401Y-73949347D01*
X147139820Y-74150761D01*
X147124572Y-74107526D01*
X147047868Y-73964025D01*
X146796240Y-73883365D01*
X145929605Y-74750000D01*
X146796240Y-75616635D01*
X147047868Y-75535975D01*
X147138312Y-75346982D01*
X147274401Y-75550653D01*
X147449347Y-75725599D01*
X147619000Y-75838958D01*
X147619001Y-80488630D01*
X145738632Y-82369000D01*
X142023368Y-82369000D01*
X143674268Y-80718101D01*
X143698343Y-80698343D01*
X143777196Y-80602261D01*
X143835789Y-80492642D01*
X143871870Y-80373698D01*
X143881000Y-80280998D01*
X143881000Y-80280991D01*
X143884052Y-80250000D01*
X143881000Y-80219010D01*
X143881000Y-76007843D01*
X144125000Y-76007843D01*
X144199689Y-76000487D01*
X144271508Y-75978701D01*
X144337696Y-75943322D01*
X144395711Y-75895711D01*
X144443322Y-75837696D01*
X144465481Y-75796240D01*
X144883365Y-75796240D01*
X144964025Y-76047868D01*
X145232329Y-76176267D01*
X145520526Y-76249855D01*
X145817543Y-76265804D01*
X146111963Y-76223501D01*
X146392474Y-76124572D01*
X146535975Y-76047868D01*
X146616635Y-75796240D01*
X145750000Y-74929605D01*
X144883365Y-75796240D01*
X144465481Y-75796240D01*
X144478701Y-75771508D01*
X144500487Y-75699689D01*
X144507843Y-75625000D01*
X144507843Y-75553833D01*
X144703760Y-75616635D01*
X145570395Y-74750000D01*
X144703760Y-73883365D01*
X144507843Y-73946167D01*
X144507843Y-73875000D01*
X144500487Y-73800311D01*
X144478701Y-73728492D01*
X144465482Y-73703760D01*
X144883365Y-73703760D01*
X145750000Y-74570395D01*
X146616635Y-73703760D01*
X146535975Y-73452132D01*
X146267671Y-73323733D01*
X145979474Y-73250145D01*
X145682457Y-73234196D01*
X145388037Y-73276499D01*
X145107526Y-73375428D01*
X144964025Y-73452132D01*
X144883365Y-73703760D01*
X144465482Y-73703760D01*
X144443322Y-73662304D01*
X144395711Y-73604289D01*
X144337696Y-73556678D01*
X144271508Y-73521299D01*
X144199689Y-73499513D01*
X144125000Y-73492157D01*
X142375000Y-73492157D01*
X142300311Y-73499513D01*
X142228492Y-73521299D01*
X142162304Y-73556678D01*
X142104289Y-73604289D01*
X142056678Y-73662304D01*
X142021299Y-73728492D01*
X141999513Y-73800311D01*
X141992157Y-73875000D01*
X141992157Y-75625000D01*
X141999513Y-75699689D01*
X142021299Y-75771508D01*
X142056678Y-75837696D01*
X142104289Y-75895711D01*
X142162304Y-75943322D01*
X142228492Y-75978701D01*
X142300311Y-76000487D01*
X142375000Y-76007843D01*
X142619000Y-76007843D01*
X142619001Y-79988630D01*
X141238632Y-81369000D01*
X136280987Y-81369000D01*
X136249999Y-81365948D01*
X136219011Y-81369000D01*
X136219002Y-81369000D01*
X136126302Y-81378130D01*
X136007358Y-81414211D01*
X135897739Y-81472804D01*
X135831463Y-81527196D01*
X135801657Y-81551657D01*
X135781899Y-81575732D01*
X133825737Y-83531895D01*
X133801657Y-83551657D01*
X133722804Y-83647740D01*
X133664211Y-83757359D01*
X133628130Y-83876303D01*
X133619000Y-83969003D01*
X133619000Y-83969010D01*
X133615948Y-84000000D01*
X133619000Y-84030990D01*
X133619001Y-89238630D01*
X132298632Y-90559000D01*
X129808890Y-90559000D01*
X129706180Y-90405283D01*
X129534717Y-90233820D01*
X129333097Y-90099102D01*
X129109069Y-90006307D01*
X128871243Y-89959000D01*
X128628757Y-89959000D01*
X128390931Y-90006307D01*
X128166903Y-90099102D01*
X127965283Y-90233820D01*
X127793820Y-90405283D01*
X127659102Y-90606903D01*
X127566307Y-90830931D01*
X127519000Y-91068757D01*
X125092900Y-91068757D01*
X125092900Y-83448757D01*
X127519000Y-83448757D01*
X127519000Y-83691243D01*
X127566307Y-83929069D01*
X127659102Y-84153097D01*
X127793820Y-84354717D01*
X127965283Y-84526180D01*
X128166903Y-84660898D01*
X128390931Y-84753693D01*
X128628757Y-84801000D01*
X128871243Y-84801000D01*
X129109069Y-84753693D01*
X129288092Y-84679540D01*
X129052564Y-84915067D01*
X128871243Y-84879000D01*
X128628757Y-84879000D01*
X128390931Y-84926307D01*
X128166903Y-85019102D01*
X127965283Y-85153820D01*
X127793820Y-85325283D01*
X127659102Y-85526903D01*
X127566307Y-85750931D01*
X127519000Y-85988757D01*
X127519000Y-86231243D01*
X127566307Y-86469069D01*
X127659102Y-86693097D01*
X127793820Y-86894717D01*
X127965283Y-87066180D01*
X128166903Y-87200898D01*
X128390931Y-87293693D01*
X128628757Y-87341000D01*
X128871243Y-87341000D01*
X129109069Y-87293693D01*
X129288093Y-87219539D01*
X129175738Y-87331893D01*
X129052564Y-87455067D01*
X128871243Y-87419000D01*
X128628757Y-87419000D01*
X128390931Y-87466307D01*
X128166903Y-87559102D01*
X127965283Y-87693820D01*
X127793820Y-87865283D01*
X127659102Y-88066903D01*
X127566307Y-88290931D01*
X127519000Y-88528757D01*
X127519000Y-88771243D01*
X127566307Y-89009069D01*
X127659102Y-89233097D01*
X127793820Y-89434717D01*
X127965283Y-89606180D01*
X128166903Y-89740898D01*
X128390931Y-89833693D01*
X128628757Y-89881000D01*
X128871243Y-89881000D01*
X129109069Y-89833693D01*
X129333097Y-89740898D01*
X129534717Y-89606180D01*
X129706180Y-89434717D01*
X129840898Y-89233097D01*
X129933693Y-89009069D01*
X129981000Y-88771243D01*
X129981000Y-88528757D01*
X129944933Y-88347436D01*
X132924268Y-85368101D01*
X132948343Y-85348343D01*
X132988018Y-85300000D01*
X133027196Y-85252261D01*
X133085789Y-85142642D01*
X133121870Y-85023698D01*
X133124204Y-85000000D01*
X133131000Y-84930998D01*
X133131000Y-84930991D01*
X133134052Y-84900000D01*
X133131000Y-84869010D01*
X133131000Y-76827700D01*
X140327701Y-69631000D01*
X149969010Y-69631000D01*
X150000000Y-69634052D01*
X150030990Y-69631000D01*
X150030998Y-69631000D01*
X150123698Y-69621870D01*
X150242642Y-69585789D01*
X150352261Y-69527196D01*
X150448343Y-69448343D01*
X150468105Y-69424263D01*
X155426176Y-64466193D01*
X155626295Y-64506000D01*
X155873705Y-64506000D01*
X156116362Y-64457732D01*
X156344939Y-64363053D01*
X156550653Y-64225599D01*
X156725599Y-64050653D01*
X156863053Y-63844939D01*
X156957732Y-63616362D01*
X157006000Y-63373705D01*
X157006000Y-63126295D01*
X156957732Y-62883638D01*
X156863053Y-62655061D01*
X156725599Y-62449347D01*
X156550653Y-62274401D01*
X156344939Y-62136947D01*
X156116362Y-62042268D01*
X155873705Y-61994000D01*
X155626295Y-61994000D01*
X155383638Y-62042268D01*
X155155061Y-62136947D01*
X154949347Y-62274401D01*
X154774401Y-62449347D01*
X154636947Y-62655061D01*
X154542268Y-62883638D01*
X154500000Y-63096131D01*
X154457732Y-62883638D01*
X154363053Y-62655061D01*
X154225599Y-62449347D01*
X154050653Y-62274401D01*
X153881000Y-62161042D01*
X153881000Y-62030987D01*
X153884052Y-61999999D01*
X153881000Y-61969011D01*
X153881000Y-61969002D01*
X153872333Y-61881000D01*
X160488632Y-61881000D01*
X161619000Y-63011369D01*
X161619001Y-69469000D01*
X161615948Y-69500000D01*
X161628130Y-69623697D01*
X161664211Y-69742641D01*
X161722804Y-69852260D01*
X161781897Y-69924265D01*
X161781900Y-69924268D01*
X161801658Y-69948343D01*
X161825733Y-69968101D01*
X163151899Y-71294268D01*
X163171657Y-71318343D01*
X163195732Y-71338101D01*
X163195734Y-71338103D01*
X163267739Y-71397196D01*
X163377358Y-71455789D01*
X163496302Y-71491870D01*
X163620000Y-71504053D01*
X163650998Y-71501000D01*
X168691110Y-71501000D01*
X168793820Y-71654717D01*
X168965283Y-71826180D01*
X169166903Y-71960898D01*
X169390931Y-72053693D01*
X169628757Y-72101000D01*
X169871243Y-72101000D01*
X170109069Y-72053693D01*
X170333097Y-71960898D01*
X170534717Y-71826180D01*
X170706180Y-71654717D01*
X170840898Y-71453097D01*
X170933693Y-71229069D01*
X170981000Y-70991243D01*
X170981000Y-70748757D01*
X170933693Y-70510931D01*
X170840898Y-70286903D01*
X170706180Y-70085283D01*
X170534717Y-69913820D01*
X170333097Y-69779102D01*
X170109069Y-69686307D01*
X169871243Y-69639000D01*
X169628757Y-69639000D01*
X169390931Y-69686307D01*
X169166903Y-69779102D01*
X168965283Y-69913820D01*
X168793820Y-70085283D01*
X168691110Y-70239000D01*
X163881369Y-70239000D01*
X162881000Y-69238632D01*
X162881000Y-66146890D01*
X168308524Y-66146890D01*
X168353175Y-66294099D01*
X168478359Y-66556920D01*
X168652412Y-66790269D01*
X168868645Y-66985178D01*
X169118748Y-67134157D01*
X169281168Y-67191772D01*
X169166903Y-67239102D01*
X168965283Y-67373820D01*
X168793820Y-67545283D01*
X168659102Y-67746903D01*
X168566307Y-67970931D01*
X168519000Y-68208757D01*
X168519000Y-68451243D01*
X168566307Y-68689069D01*
X168659102Y-68913097D01*
X168793820Y-69114717D01*
X168965283Y-69286180D01*
X169166903Y-69420898D01*
X169390931Y-69513693D01*
X169628757Y-69561000D01*
X169871243Y-69561000D01*
X170109069Y-69513693D01*
X170333097Y-69420898D01*
X170534717Y-69286180D01*
X170706180Y-69114717D01*
X170840898Y-68913097D01*
X170933693Y-68689069D01*
X170981000Y-68451243D01*
X170981000Y-68208757D01*
X170933693Y-67970931D01*
X170840898Y-67746903D01*
X170706180Y-67545283D01*
X170534717Y-67373820D01*
X170333097Y-67239102D01*
X170218832Y-67191772D01*
X170381252Y-67134157D01*
X170631355Y-66985178D01*
X170847588Y-66790269D01*
X171021641Y-66556920D01*
X171146825Y-66294099D01*
X171191476Y-66146890D01*
X171070155Y-65917000D01*
X169877000Y-65917000D01*
X169877000Y-65937000D01*
X169623000Y-65937000D01*
X169623000Y-65917000D01*
X168429845Y-65917000D01*
X168308524Y-66146890D01*
X162881000Y-66146890D01*
X162881000Y-65433110D01*
X168308524Y-65433110D01*
X168429845Y-65663000D01*
X169623000Y-65663000D01*
X169623000Y-65643000D01*
X169877000Y-65643000D01*
X169877000Y-65663000D01*
X171070155Y-65663000D01*
X171191476Y-65433110D01*
X171146825Y-65285901D01*
X171021641Y-65023080D01*
X170847588Y-64789731D01*
X170631355Y-64594822D01*
X170443367Y-64482843D01*
X170600000Y-64482843D01*
X170674689Y-64475487D01*
X170746508Y-64453701D01*
X170812696Y-64418322D01*
X170870711Y-64370711D01*
X170918322Y-64312696D01*
X170953701Y-64246508D01*
X170975487Y-64174689D01*
X170982843Y-64100000D01*
X170982843Y-62400000D01*
X170975487Y-62325311D01*
X170953701Y-62253492D01*
X170918322Y-62187304D01*
X170870711Y-62129289D01*
X170812696Y-62081678D01*
X170746508Y-62046299D01*
X170674689Y-62024513D01*
X170600000Y-62017157D01*
X168900000Y-62017157D01*
X168825311Y-62024513D01*
X168753492Y-62046299D01*
X168687304Y-62081678D01*
X168629289Y-62129289D01*
X168581678Y-62187304D01*
X168546299Y-62253492D01*
X168524513Y-62325311D01*
X168517157Y-62400000D01*
X168517157Y-64100000D01*
X168524513Y-64174689D01*
X168546299Y-64246508D01*
X168581678Y-64312696D01*
X168629289Y-64370711D01*
X168687304Y-64418322D01*
X168753492Y-64453701D01*
X168825311Y-64475487D01*
X168900000Y-64482843D01*
X169056633Y-64482843D01*
X168868645Y-64594822D01*
X168652412Y-64789731D01*
X168478359Y-65023080D01*
X168353175Y-65285901D01*
X168308524Y-65433110D01*
X162881000Y-65433110D01*
X162881000Y-62780987D01*
X162884052Y-62749999D01*
X162881000Y-62719011D01*
X162881000Y-62719002D01*
X162871870Y-62626302D01*
X162835789Y-62507358D01*
X162777196Y-62397739D01*
X162698343Y-62301657D01*
X162674269Y-62281900D01*
X161218105Y-60825737D01*
X161198343Y-60801657D01*
X161102261Y-60722804D01*
X160992642Y-60664211D01*
X160873698Y-60628130D01*
X160780998Y-60619000D01*
X160780990Y-60619000D01*
X160750000Y-60615948D01*
X160719010Y-60619000D01*
X152530990Y-60619000D01*
X152500000Y-60615948D01*
X152469010Y-60619000D01*
X146543551Y-60619000D01*
X146512563Y-60615948D01*
X146481575Y-60619000D01*
X146481566Y-60619000D01*
X146388866Y-60628130D01*
X146269922Y-60664211D01*
X146160303Y-60722804D01*
X146064221Y-60801657D01*
X146044463Y-60825732D01*
X145325733Y-61544463D01*
X145301658Y-61564221D01*
X145281900Y-61588296D01*
X145281897Y-61588299D01*
X145222804Y-61660304D01*
X145164211Y-61769923D01*
X145128130Y-61888867D01*
X145115948Y-62012564D01*
X145119001Y-62043564D01*
X145119001Y-62161042D01*
X144949347Y-62274401D01*
X144774401Y-62449347D01*
X144636947Y-62655061D01*
X144542268Y-62883638D01*
X144507843Y-63056702D01*
X144507843Y-62375000D01*
X144500487Y-62300311D01*
X144478701Y-62228492D01*
X144443322Y-62162304D01*
X144395711Y-62104289D01*
X144337696Y-62056678D01*
X144271508Y-62021299D01*
X144199689Y-61999513D01*
X144125000Y-61992157D01*
X142375000Y-61992157D01*
X142300311Y-61999513D01*
X142228492Y-62021299D01*
X142162304Y-62056678D01*
X142104289Y-62104289D01*
X142056678Y-62162304D01*
X142021299Y-62228492D01*
X141999513Y-62300311D01*
X141992157Y-62375000D01*
X141992157Y-64125000D01*
X141999513Y-64199689D01*
X142021299Y-64271508D01*
X142056678Y-64337696D01*
X142104289Y-64395711D01*
X142162304Y-64443322D01*
X142228492Y-64478701D01*
X142300311Y-64500487D01*
X142375000Y-64507843D01*
X142619001Y-64507843D01*
X142619000Y-66488631D01*
X141988632Y-67119000D01*
X140280990Y-67119000D01*
X140250000Y-67115948D01*
X140219009Y-67119000D01*
X140219002Y-67119000D01*
X140126302Y-67128130D01*
X140007358Y-67164211D01*
X139897739Y-67222804D01*
X139831463Y-67277196D01*
X139801657Y-67301657D01*
X139781899Y-67325732D01*
X131321722Y-75785910D01*
X131297647Y-75805668D01*
X131277889Y-75829743D01*
X131277886Y-75829746D01*
X131218793Y-75901751D01*
X131160200Y-76011370D01*
X131124119Y-76130314D01*
X131111937Y-76254011D01*
X131114990Y-76285011D01*
X131114989Y-82852642D01*
X129859540Y-84108092D01*
X129933693Y-83929069D01*
X129981000Y-83691243D01*
X129981000Y-83448757D01*
X129933693Y-83210931D01*
X129840898Y-82986903D01*
X129706180Y-82785283D01*
X129534717Y-82613820D01*
X129333097Y-82479102D01*
X129109069Y-82386307D01*
X128871243Y-82339000D01*
X128628757Y-82339000D01*
X128390931Y-82386307D01*
X128166903Y-82479102D01*
X127965283Y-82613820D01*
X127793820Y-82785283D01*
X127659102Y-82986903D01*
X127566307Y-83210931D01*
X127519000Y-83448757D01*
X125092900Y-83448757D01*
X125092900Y-80908757D01*
X127519000Y-80908757D01*
X127519000Y-81151243D01*
X127566307Y-81389069D01*
X127659102Y-81613097D01*
X127793820Y-81814717D01*
X127965283Y-81986180D01*
X128166903Y-82120898D01*
X128390931Y-82213693D01*
X128628757Y-82261000D01*
X128871243Y-82261000D01*
X129109069Y-82213693D01*
X129333097Y-82120898D01*
X129534717Y-81986180D01*
X129706180Y-81814717D01*
X129840898Y-81613097D01*
X129933693Y-81389069D01*
X129981000Y-81151243D01*
X129981000Y-80908757D01*
X129933693Y-80670931D01*
X129840898Y-80446903D01*
X129706180Y-80245283D01*
X129534717Y-80073820D01*
X129333097Y-79939102D01*
X129109069Y-79846307D01*
X128871243Y-79799000D01*
X128628757Y-79799000D01*
X128390931Y-79846307D01*
X128166903Y-79939102D01*
X127965283Y-80073820D01*
X127793820Y-80245283D01*
X127659102Y-80446903D01*
X127566307Y-80670931D01*
X127519000Y-80908757D01*
X125092900Y-80908757D01*
X125092900Y-78368757D01*
X127519000Y-78368757D01*
X127519000Y-78611243D01*
X127566307Y-78849069D01*
X127659102Y-79073097D01*
X127793820Y-79274717D01*
X127965283Y-79446180D01*
X128166903Y-79580898D01*
X128390931Y-79673693D01*
X128628757Y-79721000D01*
X128871243Y-79721000D01*
X129109069Y-79673693D01*
X129333097Y-79580898D01*
X129534717Y-79446180D01*
X129706180Y-79274717D01*
X129840898Y-79073097D01*
X129933693Y-78849069D01*
X129981000Y-78611243D01*
X129981000Y-78368757D01*
X129933693Y-78130931D01*
X129840898Y-77906903D01*
X129706180Y-77705283D01*
X129534717Y-77533820D01*
X129333097Y-77399102D01*
X129109069Y-77306307D01*
X128871243Y-77259000D01*
X128628757Y-77259000D01*
X128390931Y-77306307D01*
X128166903Y-77399102D01*
X127965283Y-77533820D01*
X127793820Y-77705283D01*
X127659102Y-77906903D01*
X127566307Y-78130931D01*
X127519000Y-78368757D01*
X125092900Y-78368757D01*
X125092900Y-75828757D01*
X127519000Y-75828757D01*
X127519000Y-76071243D01*
X127566307Y-76309069D01*
X127659102Y-76533097D01*
X127793820Y-76734717D01*
X127965283Y-76906180D01*
X128166903Y-77040898D01*
X128390931Y-77133693D01*
X128628757Y-77181000D01*
X128871243Y-77181000D01*
X129109069Y-77133693D01*
X129333097Y-77040898D01*
X129534717Y-76906180D01*
X129706180Y-76734717D01*
X129840898Y-76533097D01*
X129933693Y-76309069D01*
X129981000Y-76071243D01*
X129981000Y-75828757D01*
X129933693Y-75590931D01*
X129840898Y-75366903D01*
X129706180Y-75165283D01*
X129534717Y-74993820D01*
X129333097Y-74859102D01*
X129109069Y-74766307D01*
X128871243Y-74719000D01*
X128628757Y-74719000D01*
X128390931Y-74766307D01*
X128166903Y-74859102D01*
X127965283Y-74993820D01*
X127793820Y-75165283D01*
X127659102Y-75366903D01*
X127566307Y-75590931D01*
X127519000Y-75828757D01*
X125092900Y-75828757D01*
X125092900Y-71226890D01*
X127308524Y-71226890D01*
X127353175Y-71374099D01*
X127478359Y-71636920D01*
X127652412Y-71870269D01*
X127868645Y-72065178D01*
X128118748Y-72214157D01*
X128281168Y-72271772D01*
X128166903Y-72319102D01*
X127965283Y-72453820D01*
X127793820Y-72625283D01*
X127659102Y-72826903D01*
X127566307Y-73050931D01*
X127519000Y-73288757D01*
X127519000Y-73531243D01*
X127566307Y-73769069D01*
X127659102Y-73993097D01*
X127793820Y-74194717D01*
X127965283Y-74366180D01*
X128166903Y-74500898D01*
X128390931Y-74593693D01*
X128628757Y-74641000D01*
X128871243Y-74641000D01*
X129109069Y-74593693D01*
X129333097Y-74500898D01*
X129534717Y-74366180D01*
X129706180Y-74194717D01*
X129840898Y-73993097D01*
X129933693Y-73769069D01*
X129981000Y-73531243D01*
X129981000Y-73288757D01*
X129933693Y-73050931D01*
X129840898Y-72826903D01*
X129706180Y-72625283D01*
X129534717Y-72453820D01*
X129333097Y-72319102D01*
X129218832Y-72271772D01*
X129381252Y-72214157D01*
X129631355Y-72065178D01*
X129847588Y-71870269D01*
X130021641Y-71636920D01*
X130146825Y-71374099D01*
X130191476Y-71226890D01*
X130070155Y-70997000D01*
X128877000Y-70997000D01*
X128877000Y-71017000D01*
X128623000Y-71017000D01*
X128623000Y-70997000D01*
X127429845Y-70997000D01*
X127308524Y-71226890D01*
X125092900Y-71226890D01*
X125092900Y-70513110D01*
X127308524Y-70513110D01*
X127429845Y-70743000D01*
X128623000Y-70743000D01*
X128623000Y-70723000D01*
X128877000Y-70723000D01*
X128877000Y-70743000D01*
X130070155Y-70743000D01*
X130191476Y-70513110D01*
X130146825Y-70365901D01*
X130021641Y-70103080D01*
X129847588Y-69869731D01*
X129631355Y-69674822D01*
X129381252Y-69525843D01*
X129218832Y-69468228D01*
X129333097Y-69420898D01*
X129534717Y-69286180D01*
X129706180Y-69114717D01*
X129840898Y-68913097D01*
X129933693Y-68689069D01*
X129981000Y-68451243D01*
X129981000Y-68208757D01*
X129933693Y-67970931D01*
X129840898Y-67746903D01*
X129706180Y-67545283D01*
X129534717Y-67373820D01*
X129333097Y-67239102D01*
X129109069Y-67146307D01*
X128871243Y-67099000D01*
X128628757Y-67099000D01*
X128390931Y-67146307D01*
X128166903Y-67239102D01*
X127965283Y-67373820D01*
X127793820Y-67545283D01*
X127659102Y-67746903D01*
X127566307Y-67970931D01*
X127519000Y-68208757D01*
X127519000Y-68451243D01*
X127566307Y-68689069D01*
X127659102Y-68913097D01*
X127793820Y-69114717D01*
X127965283Y-69286180D01*
X128166903Y-69420898D01*
X128281168Y-69468228D01*
X128118748Y-69525843D01*
X127868645Y-69674822D01*
X127652412Y-69869731D01*
X127478359Y-70103080D01*
X127353175Y-70365901D01*
X127308524Y-70513110D01*
X125092900Y-70513110D01*
X125092900Y-65668757D01*
X127519000Y-65668757D01*
X127519000Y-65911243D01*
X127566307Y-66149069D01*
X127659102Y-66373097D01*
X127793820Y-66574717D01*
X127965283Y-66746180D01*
X128166903Y-66880898D01*
X128390931Y-66973693D01*
X128628757Y-67021000D01*
X128871243Y-67021000D01*
X129109069Y-66973693D01*
X129333097Y-66880898D01*
X129534717Y-66746180D01*
X129706180Y-66574717D01*
X129840898Y-66373097D01*
X129933693Y-66149069D01*
X129981000Y-65911243D01*
X129981000Y-65668757D01*
X129933693Y-65430931D01*
X129840898Y-65206903D01*
X129706180Y-65005283D01*
X129534717Y-64833820D01*
X129333097Y-64699102D01*
X129109069Y-64606307D01*
X128871243Y-64559000D01*
X128628757Y-64559000D01*
X128390931Y-64606307D01*
X128166903Y-64699102D01*
X127965283Y-64833820D01*
X127793820Y-65005283D01*
X127659102Y-65206903D01*
X127566307Y-65430931D01*
X127519000Y-65668757D01*
X125092900Y-65668757D01*
X125092900Y-62400000D01*
X127517157Y-62400000D01*
X127517157Y-64100000D01*
X127524513Y-64174689D01*
X127546299Y-64246508D01*
X127581678Y-64312696D01*
X127629289Y-64370711D01*
X127687304Y-64418322D01*
X127753492Y-64453701D01*
X127825311Y-64475487D01*
X127900000Y-64482843D01*
X129600000Y-64482843D01*
X129674689Y-64475487D01*
X129746508Y-64453701D01*
X129812696Y-64418322D01*
X129870711Y-64370711D01*
X129918322Y-64312696D01*
X129953701Y-64246508D01*
X129975487Y-64174689D01*
X129982843Y-64100000D01*
X129982843Y-62400000D01*
X129975487Y-62325311D01*
X129953701Y-62253492D01*
X129918322Y-62187304D01*
X129870711Y-62129289D01*
X129812696Y-62081678D01*
X129746508Y-62046299D01*
X129674689Y-62024513D01*
X129600000Y-62017157D01*
X127900000Y-62017157D01*
X127825311Y-62024513D01*
X127753492Y-62046299D01*
X127687304Y-62081678D01*
X127629289Y-62129289D01*
X127581678Y-62187304D01*
X127546299Y-62253492D01*
X127524513Y-62325311D01*
X127517157Y-62400000D01*
X125092900Y-62400000D01*
X125092900Y-57804889D01*
X126769000Y-57804889D01*
X126769000Y-58195111D01*
X126845129Y-58577836D01*
X126994461Y-58938355D01*
X127211257Y-59262814D01*
X127487186Y-59538743D01*
X127811645Y-59755539D01*
X128172164Y-59904871D01*
X128554889Y-59981000D01*
X128945111Y-59981000D01*
X129327836Y-59904871D01*
X129688355Y-59755539D01*
X130012814Y-59538743D01*
X130288743Y-59262814D01*
X130505539Y-58938355D01*
X130654871Y-58577836D01*
X130731000Y-58195111D01*
X130731000Y-57804889D01*
X167769000Y-57804889D01*
X167769000Y-58195111D01*
X167845129Y-58577836D01*
X167994461Y-58938355D01*
X168211257Y-59262814D01*
X168487186Y-59538743D01*
X168811645Y-59755539D01*
X169172164Y-59904871D01*
X169554889Y-59981000D01*
X169945111Y-59981000D01*
X170327836Y-59904871D01*
X170688355Y-59755539D01*
X171012814Y-59538743D01*
X171288743Y-59262814D01*
X171505539Y-58938355D01*
X171654871Y-58577836D01*
X171731000Y-58195111D01*
X171731000Y-57804889D01*
X171654871Y-57422164D01*
X171505539Y-57061645D01*
X171288743Y-56737186D01*
X171012814Y-56461257D01*
X170688355Y-56244461D01*
X170327836Y-56095129D01*
X169945111Y-56019000D01*
X169554889Y-56019000D01*
X169172164Y-56095129D01*
X168811645Y-56244461D01*
X168487186Y-56461257D01*
X168211257Y-56737186D01*
X167994461Y-57061645D01*
X167845129Y-57422164D01*
X167769000Y-57804889D01*
X130731000Y-57804889D01*
X130654871Y-57422164D01*
X130505539Y-57061645D01*
X130288743Y-56737186D01*
X130012814Y-56461257D01*
X129688355Y-56244461D01*
X129327836Y-56095129D01*
X128945111Y-56019000D01*
X128554889Y-56019000D01*
X128172164Y-56095129D01*
X127811645Y-56244461D01*
X127487186Y-56461257D01*
X127211257Y-56737186D01*
X126994461Y-57061645D01*
X126845129Y-57422164D01*
X126769000Y-57804889D01*
X125092900Y-57804889D01*
X125092900Y-55516775D01*
X125116549Y-55275573D01*
X125181728Y-55059691D01*
X125287598Y-54860579D01*
X125430121Y-54685829D01*
X125603880Y-54542083D01*
X125802243Y-54434828D01*
X126017661Y-54368145D01*
X126257854Y-54342900D01*
X172483225Y-54342900D01*
X172724427Y-54366549D01*
G37*
X172724427Y-54366549D02*
X172940309Y-54431728D01*
X173139421Y-54537598D01*
X173314171Y-54680121D01*
X173457917Y-54853880D01*
X173565172Y-55052243D01*
X173631855Y-55267661D01*
X173657100Y-55507854D01*
X173657101Y-107483214D01*
X173633450Y-107724430D01*
X173568272Y-107940309D01*
X173462402Y-108139421D01*
X173319877Y-108314174D01*
X173146121Y-108457917D01*
X172947757Y-108565172D01*
X172732339Y-108631855D01*
X172492146Y-108657100D01*
X126266776Y-108657100D01*
X126025570Y-108633450D01*
X125809691Y-108568272D01*
X125610579Y-108462402D01*
X125435826Y-108319877D01*
X125292083Y-108146121D01*
X125184828Y-107947757D01*
X125118145Y-107732339D01*
X125092900Y-107492146D01*
X125092900Y-104804889D01*
X126769000Y-104804889D01*
X126769000Y-105195111D01*
X126845129Y-105577836D01*
X126994461Y-105938355D01*
X127211257Y-106262814D01*
X127487186Y-106538743D01*
X127811645Y-106755539D01*
X128172164Y-106904871D01*
X128554889Y-106981000D01*
X128945111Y-106981000D01*
X129327836Y-106904871D01*
X129688355Y-106755539D01*
X130012814Y-106538743D01*
X130288743Y-106262814D01*
X130505539Y-105938355D01*
X130654871Y-105577836D01*
X130731000Y-105195111D01*
X130731000Y-104804889D01*
X167769000Y-104804889D01*
X167769000Y-105195111D01*
X167845129Y-105577836D01*
X167994461Y-105938355D01*
X168211257Y-106262814D01*
X168487186Y-106538743D01*
X168811645Y-106755539D01*
X169172164Y-106904871D01*
X169554889Y-106981000D01*
X169945111Y-106981000D01*
X170327836Y-106904871D01*
X170688355Y-106755539D01*
X171012814Y-106538743D01*
X171288743Y-106262814D01*
X171505539Y-105938355D01*
X171654871Y-105577836D01*
X171731000Y-105195111D01*
X171731000Y-104804889D01*
X171654871Y-104422164D01*
X171505539Y-104061645D01*
X171288743Y-103737186D01*
X171012814Y-103461257D01*
X170688355Y-103244461D01*
X170327836Y-103095129D01*
X169945111Y-103019000D01*
X169554889Y-103019000D01*
X169172164Y-103095129D01*
X168811645Y-103244461D01*
X168487186Y-103461257D01*
X168211257Y-103737186D01*
X167994461Y-104061645D01*
X167845129Y-104422164D01*
X167769000Y-104804889D01*
X130731000Y-104804889D01*
X130654871Y-104422164D01*
X130505539Y-104061645D01*
X130288743Y-103737186D01*
X130012814Y-103461257D01*
X129688355Y-103244461D01*
X129327836Y-103095129D01*
X128945111Y-103019000D01*
X128554889Y-103019000D01*
X128172164Y-103095129D01*
X127811645Y-103244461D01*
X127487186Y-103461257D01*
X127211257Y-103737186D01*
X126994461Y-104061645D01*
X126845129Y-104422164D01*
X126769000Y-104804889D01*
X125092900Y-104804889D01*
X125092900Y-102883682D01*
X148319000Y-102883682D01*
X148319000Y-103116318D01*
X148364386Y-103344485D01*
X148453412Y-103559413D01*
X148582658Y-103752843D01*
X148747157Y-103917342D01*
X148940587Y-104046588D01*
X149155515Y-104135614D01*
X149383682Y-104181000D01*
X149616318Y-104181000D01*
X149844485Y-104135614D01*
X149855624Y-104131000D01*
X154444450Y-104131000D01*
X154500000Y-104136471D01*
X154555550Y-104131000D01*
X154555558Y-104131000D01*
X154721715Y-104114635D01*
X154934909Y-104049963D01*
X155131390Y-103944942D01*
X155303607Y-103803607D01*
X155339025Y-103760450D01*
X156510455Y-102589021D01*
X156553607Y-102553607D01*
X156694942Y-102381390D01*
X156799963Y-102184909D01*
X156864635Y-101971715D01*
X156881000Y-101805558D01*
X156881000Y-101805551D01*
X156886471Y-101750000D01*
X156881000Y-101694450D01*
X156881000Y-98688757D01*
X168519000Y-98688757D01*
X168519000Y-98931243D01*
X168566307Y-99169069D01*
X168659102Y-99393097D01*
X168793820Y-99594717D01*
X168965283Y-99766180D01*
X169166903Y-99900898D01*
X169390931Y-99993693D01*
X169628757Y-100041000D01*
X169871243Y-100041000D01*
X170109069Y-99993693D01*
X170333097Y-99900898D01*
X170534717Y-99766180D01*
X170706180Y-99594717D01*
X170840898Y-99393097D01*
X170933693Y-99169069D01*
X170981000Y-98931243D01*
X170981000Y-98688757D01*
X170933693Y-98450931D01*
X170840898Y-98226903D01*
X170706180Y-98025283D01*
X170534717Y-97853820D01*
X170333097Y-97719102D01*
X170109069Y-97626307D01*
X169871243Y-97579000D01*
X169628757Y-97579000D01*
X169390931Y-97626307D01*
X169166903Y-97719102D01*
X168965283Y-97853820D01*
X168793820Y-98025283D01*
X168659102Y-98226903D01*
X168566307Y-98450931D01*
X168519000Y-98688757D01*
X156881000Y-98688757D01*
X156881000Y-96725547D01*
X156886471Y-96669999D01*
X156881000Y-96614451D01*
X156881000Y-96614442D01*
X156864635Y-96448285D01*
X156799963Y-96235091D01*
X156753817Y-96148757D01*
X168519000Y-96148757D01*
X168519000Y-96391243D01*
X168566307Y-96629069D01*
X168659102Y-96853097D01*
X168793820Y-97054717D01*
X168965283Y-97226180D01*
X169166903Y-97360898D01*
X169390931Y-97453693D01*
X169628757Y-97501000D01*
X169871243Y-97501000D01*
X170109069Y-97453693D01*
X170333097Y-97360898D01*
X170534717Y-97226180D01*
X170706180Y-97054717D01*
X170840898Y-96853097D01*
X170933693Y-96629069D01*
X170981000Y-96391243D01*
X170981000Y-96148757D01*
X170933693Y-95910931D01*
X170840898Y-95686903D01*
X170706180Y-95485283D01*
X170534717Y-95313820D01*
X170333097Y-95179102D01*
X170109069Y-95086307D01*
X169871243Y-95039000D01*
X169628757Y-95039000D01*
X169390931Y-95086307D01*
X169166903Y-95179102D01*
X168965283Y-95313820D01*
X168793820Y-95485283D01*
X168659102Y-95686903D01*
X168566307Y-95910931D01*
X168519000Y-96148757D01*
X156753817Y-96148757D01*
X156694942Y-96038610D01*
X156553607Y-95866393D01*
X156510450Y-95830975D01*
X154719025Y-94039550D01*
X154683607Y-93996393D01*
X154511390Y-93855058D01*
X154314909Y-93750037D01*
X154101715Y-93685365D01*
X153935558Y-93669000D01*
X153935550Y-93669000D01*
X153880000Y-93663529D01*
X153824450Y-93669000D01*
X152759790Y-93669000D01*
X152755487Y-93625311D01*
X152750466Y-93608757D01*
X168519000Y-93608757D01*
X168519000Y-93851243D01*
X168566307Y-94089069D01*
X168659102Y-94313097D01*
X168793820Y-94514717D01*
X168965283Y-94686180D01*
X169166903Y-94820898D01*
X169390931Y-94913693D01*
X169628757Y-94961000D01*
X169871243Y-94961000D01*
X170109069Y-94913693D01*
X170333097Y-94820898D01*
X170534717Y-94686180D01*
X170706180Y-94514717D01*
X170840898Y-94313097D01*
X170933693Y-94089069D01*
X170981000Y-93851243D01*
X170981000Y-93608757D01*
X170933693Y-93370931D01*
X170840898Y-93146903D01*
X170706180Y-92945283D01*
X170534717Y-92773820D01*
X170333097Y-92639102D01*
X170109069Y-92546307D01*
X169871243Y-92499000D01*
X169628757Y-92499000D01*
X169390931Y-92546307D01*
X169166903Y-92639102D01*
X168965283Y-92773820D01*
X168793820Y-92945283D01*
X168659102Y-93146903D01*
X168566307Y-93370931D01*
X168519000Y-93608757D01*
X152750466Y-93608757D01*
X152733701Y-93553492D01*
X152698322Y-93487304D01*
X152650711Y-93429289D01*
X152592696Y-93381678D01*
X152526508Y-93346299D01*
X152454689Y-93324513D01*
X152380000Y-93317157D01*
X151180000Y-93317157D01*
X151105311Y-93324513D01*
X151033492Y-93346299D01*
X150967304Y-93381678D01*
X150909289Y-93429289D01*
X150861678Y-93487304D01*
X150826299Y-93553492D01*
X150804513Y-93625311D01*
X150797157Y-93700000D01*
X150797157Y-94239518D01*
X150730037Y-94365091D01*
X150665365Y-94578285D01*
X150643528Y-94800000D01*
X150665365Y-95021715D01*
X150730037Y-95234909D01*
X150797157Y-95360482D01*
X150797157Y-95900000D01*
X150804513Y-95974689D01*
X150826299Y-96046508D01*
X150861678Y-96112696D01*
X150909289Y-96170711D01*
X150967304Y-96218322D01*
X151033492Y-96253701D01*
X151105311Y-96275487D01*
X151180000Y-96282843D01*
X152380000Y-96282843D01*
X152454689Y-96275487D01*
X152526508Y-96253701D01*
X152592696Y-96218322D01*
X152650711Y-96170711D01*
X152698322Y-96112696D01*
X152733701Y-96046508D01*
X152755487Y-95974689D01*
X152759790Y-95931000D01*
X153411525Y-95931000D01*
X154619000Y-97138475D01*
X154619001Y-101281523D01*
X154031525Y-101869000D01*
X149855624Y-101869000D01*
X149844485Y-101864386D01*
X149616318Y-101819000D01*
X149383682Y-101819000D01*
X149155515Y-101864386D01*
X148940587Y-101953412D01*
X148747157Y-102082658D01*
X148582658Y-102247157D01*
X148453412Y-102440587D01*
X148364386Y-102655515D01*
X148319000Y-102883682D01*
X125092900Y-102883682D01*
X125092900Y-98688757D01*
X127519000Y-98688757D01*
X127519000Y-98931243D01*
X127566307Y-99169069D01*
X127659102Y-99393097D01*
X127793820Y-99594717D01*
X127965283Y-99766180D01*
X128166903Y-99900898D01*
X128390931Y-99993693D01*
X128628757Y-100041000D01*
X128871243Y-100041000D01*
X129109069Y-99993693D01*
X129333097Y-99900898D01*
X129534717Y-99766180D01*
X129706180Y-99594717D01*
X129840898Y-99393097D01*
X129933693Y-99169069D01*
X129981000Y-98931243D01*
X129981000Y-98908304D01*
X145569000Y-98908304D01*
X145569000Y-99091696D01*
X145604778Y-99271563D01*
X145674958Y-99440994D01*
X145776845Y-99593478D01*
X145906522Y-99723155D01*
X146059006Y-99825042D01*
X146228437Y-99895222D01*
X146408304Y-99931000D01*
X146591696Y-99931000D01*
X146771563Y-99895222D01*
X146940994Y-99825042D01*
X147093478Y-99723155D01*
X147223155Y-99593478D01*
X147325042Y-99440994D01*
X147395222Y-99271563D01*
X147431000Y-99091696D01*
X147431000Y-98908304D01*
X147395222Y-98728437D01*
X147325042Y-98559006D01*
X147223155Y-98406522D01*
X147093478Y-98276845D01*
X146940994Y-98174958D01*
X146771563Y-98104778D01*
X146591696Y-98069000D01*
X146408304Y-98069000D01*
X146228437Y-98104778D01*
X146059006Y-98174958D01*
X145906522Y-98276845D01*
X145776845Y-98406522D01*
X145674958Y-98559006D01*
X145604778Y-98728437D01*
X145569000Y-98908304D01*
X129981000Y-98908304D01*
X129981000Y-98688757D01*
X129933693Y-98450931D01*
X129840898Y-98226903D01*
X129706180Y-98025283D01*
X129534717Y-97853820D01*
X129333097Y-97719102D01*
X129109069Y-97626307D01*
X128871243Y-97579000D01*
X128628757Y-97579000D01*
X128390931Y-97626307D01*
X128166903Y-97719102D01*
X127965283Y-97853820D01*
X127793820Y-98025283D01*
X127659102Y-98226903D01*
X127566307Y-98450931D01*
X127519000Y-98688757D01*
X125092900Y-98688757D01*
X125092900Y-91068757D01*
X127519000Y-91068757D01*
X127519000Y-91311243D01*
X127566307Y-91549069D01*
X127659102Y-91773097D01*
X127793820Y-91974717D01*
X127965283Y-92146180D01*
X128166903Y-92280898D01*
X128390931Y-92373693D01*
X128628757Y-92421000D01*
X128871243Y-92421000D01*
X129109069Y-92373693D01*
X129333097Y-92280898D01*
X129534717Y-92146180D01*
X129706180Y-91974717D01*
X129808890Y-91821000D01*
X132529010Y-91821000D01*
X132560000Y-91824052D01*
X132590990Y-91821000D01*
X132590998Y-91821000D01*
X132683698Y-91811870D01*
X132802642Y-91775789D01*
X132912261Y-91717196D01*
X133008343Y-91638343D01*
X133028105Y-91614263D01*
X134619001Y-90023368D01*
X134619001Y-91738631D01*
X133258632Y-93099000D01*
X129808890Y-93099000D01*
X129706180Y-92945283D01*
X129534717Y-92773820D01*
X129333097Y-92639102D01*
X129109069Y-92546307D01*
X128871243Y-92499000D01*
X128628757Y-92499000D01*
X128390931Y-92546307D01*
X128166903Y-92639102D01*
X127965283Y-92773820D01*
X127793820Y-92945283D01*
X127659102Y-93146903D01*
X127566307Y-93370931D01*
X127519000Y-93608757D01*
X127519000Y-93851243D01*
X127566307Y-94089069D01*
X127659102Y-94313097D01*
X127793820Y-94514717D01*
X127965283Y-94686180D01*
X128166903Y-94820898D01*
X128390931Y-94913693D01*
X128628757Y-94961000D01*
X128871243Y-94961000D01*
X129109069Y-94913693D01*
X129333097Y-94820898D01*
X129534717Y-94686180D01*
X129706180Y-94514717D01*
X129808890Y-94361000D01*
X133489010Y-94361000D01*
X133520000Y-94364052D01*
X133550990Y-94361000D01*
X133550998Y-94361000D01*
X133643698Y-94351870D01*
X133762642Y-94315789D01*
X133872261Y-94257196D01*
X133968343Y-94178343D01*
X133988105Y-94154263D01*
X135619001Y-92523367D01*
X135619001Y-93238630D01*
X133218632Y-95639000D01*
X129808890Y-95639000D01*
X129706180Y-95485283D01*
X129534717Y-95313820D01*
X129333097Y-95179102D01*
X129109069Y-95086307D01*
X128871243Y-95039000D01*
X128628757Y-95039000D01*
X128390931Y-95086307D01*
X128166903Y-95179102D01*
X127965283Y-95313820D01*
X127793820Y-95485283D01*
X127659102Y-95686903D01*
X127566307Y-95910931D01*
X127519000Y-96148757D01*
X127519000Y-96391243D01*
X127566307Y-96629069D01*
X127659102Y-96853097D01*
X127793820Y-97054717D01*
X127965283Y-97226180D01*
X128166903Y-97360898D01*
X128390931Y-97453693D01*
X128628757Y-97501000D01*
X128871243Y-97501000D01*
X129109069Y-97453693D01*
X129333097Y-97360898D01*
X129534717Y-97226180D01*
X129706180Y-97054717D01*
X129808890Y-96901000D01*
X133449010Y-96901000D01*
X133480000Y-96904052D01*
X133510990Y-96901000D01*
X133510998Y-96901000D01*
X133603698Y-96891870D01*
X133722642Y-96855789D01*
X133832261Y-96797196D01*
X133928343Y-96718343D01*
X133948105Y-96694263D01*
X136674268Y-93968101D01*
X136698343Y-93948343D01*
X136718104Y-93924265D01*
X136777196Y-93852261D01*
X136835789Y-93742642D01*
X136871870Y-93623698D01*
X136884053Y-93500000D01*
X136881000Y-93469002D01*
X136881000Y-93428702D01*
X143526100Y-93428702D01*
X143526100Y-93571298D01*
X143553919Y-93711154D01*
X143608488Y-93842895D01*
X143687710Y-93961460D01*
X143788540Y-94062290D01*
X143907105Y-94141512D01*
X144038846Y-94196081D01*
X144057404Y-94199772D01*
X145081899Y-95224268D01*
X145101657Y-95248343D01*
X145125732Y-95268101D01*
X145125734Y-95268103D01*
X145197739Y-95327196D01*
X145307358Y-95385789D01*
X145426302Y-95421870D01*
X145550000Y-95434053D01*
X145580998Y-95431000D01*
X146237157Y-95431000D01*
X146237157Y-95900000D01*
X146244513Y-95974689D01*
X146266299Y-96046508D01*
X146301678Y-96112696D01*
X146349289Y-96170711D01*
X146407304Y-96218322D01*
X146473492Y-96253701D01*
X146545311Y-96275487D01*
X146620000Y-96282843D01*
X147820000Y-96282843D01*
X147894689Y-96275487D01*
X147966508Y-96253701D01*
X148032696Y-96218322D01*
X148090711Y-96170711D01*
X148138322Y-96112696D01*
X148173701Y-96046508D01*
X148195487Y-95974689D01*
X148202843Y-95900000D01*
X148202843Y-93700000D01*
X148195487Y-93625311D01*
X148173701Y-93553492D01*
X148138322Y-93487304D01*
X148090711Y-93429289D01*
X148032696Y-93381678D01*
X147966508Y-93346299D01*
X147894689Y-93324513D01*
X147820000Y-93317157D01*
X146620000Y-93317157D01*
X146545311Y-93324513D01*
X146473492Y-93346299D01*
X146407304Y-93381678D01*
X146349289Y-93429289D01*
X146301678Y-93487304D01*
X146266299Y-93553492D01*
X146244513Y-93625311D01*
X146237157Y-93700000D01*
X146237157Y-94169000D01*
X145811369Y-94169000D01*
X144949772Y-93307404D01*
X144946081Y-93288846D01*
X144891512Y-93157105D01*
X144812290Y-93038540D01*
X144711460Y-92937710D01*
X144592895Y-92858488D01*
X144461154Y-92803919D01*
X144321298Y-92776100D01*
X144178702Y-92776100D01*
X144038846Y-92803919D01*
X143907105Y-92858488D01*
X143788540Y-92937710D01*
X143687710Y-93038540D01*
X143608488Y-93157105D01*
X143553919Y-93288846D01*
X143526100Y-93428702D01*
X136881000Y-93428702D01*
X136881000Y-85300000D01*
X146217157Y-85300000D01*
X146217157Y-91700000D01*
X146224513Y-91774689D01*
X146246299Y-91846508D01*
X146281678Y-91912696D01*
X146329289Y-91970711D01*
X146387304Y-92018322D01*
X146453492Y-92053701D01*
X146525311Y-92075487D01*
X146600000Y-92082843D01*
X148369000Y-92082843D01*
X148369001Y-99644373D01*
X148364386Y-99655515D01*
X148319000Y-99883682D01*
X148319000Y-100116318D01*
X148364386Y-100344485D01*
X148453412Y-100559413D01*
X148582658Y-100752843D01*
X148747157Y-100917342D01*
X148940587Y-101046588D01*
X149155515Y-101135614D01*
X149383682Y-101181000D01*
X149616318Y-101181000D01*
X149844485Y-101135614D01*
X150059413Y-101046588D01*
X150252843Y-100917342D01*
X150417342Y-100752843D01*
X150546588Y-100559413D01*
X150635614Y-100344485D01*
X150681000Y-100116318D01*
X150681000Y-99883682D01*
X150635614Y-99655515D01*
X150631000Y-99644376D01*
X150631000Y-98968304D01*
X151569000Y-98968304D01*
X151569000Y-99151696D01*
X151604778Y-99331563D01*
X151674958Y-99500994D01*
X151776845Y-99653478D01*
X151906522Y-99783155D01*
X152059006Y-99885042D01*
X152228437Y-99955222D01*
X152408304Y-99991000D01*
X152591696Y-99991000D01*
X152771563Y-99955222D01*
X152940994Y-99885042D01*
X153093478Y-99783155D01*
X153223155Y-99653478D01*
X153325042Y-99500994D01*
X153395222Y-99331563D01*
X153431000Y-99151696D01*
X153431000Y-98968304D01*
X153395222Y-98788437D01*
X153325042Y-98619006D01*
X153223155Y-98466522D01*
X153093478Y-98336845D01*
X152940994Y-98234958D01*
X152771563Y-98164778D01*
X152591696Y-98129000D01*
X152408304Y-98129000D01*
X152228437Y-98164778D01*
X152059006Y-98234958D01*
X151906522Y-98336845D01*
X151776845Y-98466522D01*
X151674958Y-98619006D01*
X151604778Y-98788437D01*
X151569000Y-98968304D01*
X150631000Y-98968304D01*
X150631000Y-92082843D01*
X152400000Y-92082843D01*
X152474689Y-92075487D01*
X152546508Y-92053701D01*
X152612696Y-92018322D01*
X152670711Y-91970711D01*
X152718322Y-91912696D01*
X152753701Y-91846508D01*
X152775487Y-91774689D01*
X152782843Y-91700000D01*
X152782843Y-91068757D01*
X168519000Y-91068757D01*
X168519000Y-91311243D01*
X168566307Y-91549069D01*
X168659102Y-91773097D01*
X168793820Y-91974717D01*
X168965283Y-92146180D01*
X169166903Y-92280898D01*
X169390931Y-92373693D01*
X169628757Y-92421000D01*
X169871243Y-92421000D01*
X170109069Y-92373693D01*
X170333097Y-92280898D01*
X170534717Y-92146180D01*
X170706180Y-91974717D01*
X170840898Y-91773097D01*
X170933693Y-91549069D01*
X170981000Y-91311243D01*
X170981000Y-91068757D01*
X170933693Y-90830931D01*
X170840898Y-90606903D01*
X170706180Y-90405283D01*
X170534717Y-90233820D01*
X170333097Y-90099102D01*
X170109069Y-90006307D01*
X169871243Y-89959000D01*
X169628757Y-89959000D01*
X169390931Y-90006307D01*
X169166903Y-90099102D01*
X168965283Y-90233820D01*
X168793820Y-90405283D01*
X168659102Y-90606903D01*
X168566307Y-90830931D01*
X168519000Y-91068757D01*
X152782843Y-91068757D01*
X152782843Y-88528757D01*
X168519000Y-88528757D01*
X168519000Y-88771243D01*
X168566307Y-89009069D01*
X168659102Y-89233097D01*
X168793820Y-89434717D01*
X168965283Y-89606180D01*
X169166903Y-89740898D01*
X169390931Y-89833693D01*
X169628757Y-89881000D01*
X169871243Y-89881000D01*
X170109069Y-89833693D01*
X170333097Y-89740898D01*
X170534717Y-89606180D01*
X170706180Y-89434717D01*
X170840898Y-89233097D01*
X170933693Y-89009069D01*
X170981000Y-88771243D01*
X170981000Y-88528757D01*
X170933693Y-88290931D01*
X170840898Y-88066903D01*
X170706180Y-87865283D01*
X170534717Y-87693820D01*
X170333097Y-87559102D01*
X170109069Y-87466307D01*
X169871243Y-87419000D01*
X169628757Y-87419000D01*
X169390931Y-87466307D01*
X169166903Y-87559102D01*
X168965283Y-87693820D01*
X168793820Y-87865283D01*
X168659102Y-88066903D01*
X168566307Y-88290931D01*
X168519000Y-88528757D01*
X152782843Y-88528757D01*
X152782843Y-85988757D01*
X168519000Y-85988757D01*
X168519000Y-86231243D01*
X168566307Y-86469069D01*
X168659102Y-86693097D01*
X168793820Y-86894717D01*
X168965283Y-87066180D01*
X169166903Y-87200898D01*
X169390931Y-87293693D01*
X169628757Y-87341000D01*
X169871243Y-87341000D01*
X170109069Y-87293693D01*
X170333097Y-87200898D01*
X170534717Y-87066180D01*
X170706180Y-86894717D01*
X170840898Y-86693097D01*
X170933693Y-86469069D01*
X170981000Y-86231243D01*
X170981000Y-85988757D01*
X170933693Y-85750931D01*
X170840898Y-85526903D01*
X170706180Y-85325283D01*
X170534717Y-85153820D01*
X170333097Y-85019102D01*
X170109069Y-84926307D01*
X169871243Y-84879000D01*
X169628757Y-84879000D01*
X169390931Y-84926307D01*
X169166903Y-85019102D01*
X168965283Y-85153820D01*
X168793820Y-85325283D01*
X168659102Y-85526903D01*
X168566307Y-85750931D01*
X168519000Y-85988757D01*
X152782843Y-85988757D01*
X152782843Y-85300000D01*
X152775487Y-85225311D01*
X152753701Y-85153492D01*
X152718322Y-85087304D01*
X152670711Y-85029289D01*
X152612696Y-84981678D01*
X152546508Y-84946299D01*
X152474689Y-84924513D01*
X152400000Y-84917157D01*
X146600000Y-84917157D01*
X146525311Y-84924513D01*
X146453492Y-84946299D01*
X146387304Y-84981678D01*
X146329289Y-85029289D01*
X146281678Y-85087304D01*
X146246299Y-85153492D01*
X146224513Y-85225311D01*
X146217157Y-85300000D01*
X136881000Y-85300000D01*
X136881000Y-85261368D01*
X137511369Y-84631000D01*
X146961808Y-84631000D01*
X146992798Y-84634052D01*
X147023788Y-84631000D01*
X147023796Y-84631000D01*
X147116496Y-84621870D01*
X147235440Y-84585789D01*
X147345059Y-84527196D01*
X147441141Y-84448343D01*
X147460903Y-84424263D01*
X148436409Y-83448757D01*
X168519000Y-83448757D01*
X168519000Y-83691243D01*
X168566307Y-83929069D01*
X168659102Y-84153097D01*
X168793820Y-84354717D01*
X168965283Y-84526180D01*
X169166903Y-84660898D01*
X169390931Y-84753693D01*
X169628757Y-84801000D01*
X169871243Y-84801000D01*
X170109069Y-84753693D01*
X170333097Y-84660898D01*
X170534717Y-84526180D01*
X170706180Y-84354717D01*
X170840898Y-84153097D01*
X170933693Y-83929069D01*
X170981000Y-83691243D01*
X170981000Y-83448757D01*
X170933693Y-83210931D01*
X170840898Y-82986903D01*
X170706180Y-82785283D01*
X170534717Y-82613820D01*
X170333097Y-82479102D01*
X170109069Y-82386307D01*
X169871243Y-82339000D01*
X169628757Y-82339000D01*
X169390931Y-82386307D01*
X169166903Y-82479102D01*
X168965283Y-82613820D01*
X168793820Y-82785283D01*
X168659102Y-82986903D01*
X168566307Y-83210931D01*
X168519000Y-83448757D01*
X148436409Y-83448757D01*
X148754167Y-83131000D01*
X151719010Y-83131000D01*
X151750000Y-83134052D01*
X151780990Y-83131000D01*
X151780998Y-83131000D01*
X151873698Y-83121870D01*
X151992642Y-83085789D01*
X152102261Y-83027196D01*
X152198343Y-82948343D01*
X152218105Y-82924263D01*
X153674268Y-81468101D01*
X153698343Y-81448343D01*
X153777196Y-81352261D01*
X153835789Y-81242642D01*
X153871870Y-81123698D01*
X153881000Y-81030998D01*
X153881000Y-81030989D01*
X153884052Y-81000001D01*
X153881000Y-80969013D01*
X153881000Y-80908757D01*
X168519000Y-80908757D01*
X168519000Y-81151243D01*
X168566307Y-81389069D01*
X168659102Y-81613097D01*
X168793820Y-81814717D01*
X168965283Y-81986180D01*
X169166903Y-82120898D01*
X169390931Y-82213693D01*
X169628757Y-82261000D01*
X169871243Y-82261000D01*
X170109069Y-82213693D01*
X170333097Y-82120898D01*
X170534717Y-81986180D01*
X170706180Y-81814717D01*
X170840898Y-81613097D01*
X170933693Y-81389069D01*
X170981000Y-81151243D01*
X170981000Y-80908757D01*
X170933693Y-80670931D01*
X170840898Y-80446903D01*
X170706180Y-80245283D01*
X170534717Y-80073820D01*
X170333097Y-79939102D01*
X170109069Y-79846307D01*
X169871243Y-79799000D01*
X169628757Y-79799000D01*
X169390931Y-79846307D01*
X169166903Y-79939102D01*
X168965283Y-80073820D01*
X168793820Y-80245283D01*
X168659102Y-80446903D01*
X168566307Y-80670931D01*
X168519000Y-80908757D01*
X153881000Y-80908757D01*
X153881000Y-78368757D01*
X168519000Y-78368757D01*
X168519000Y-78611243D01*
X168566307Y-78849069D01*
X168659102Y-79073097D01*
X168793820Y-79274717D01*
X168965283Y-79446180D01*
X169166903Y-79580898D01*
X169390931Y-79673693D01*
X169628757Y-79721000D01*
X169871243Y-79721000D01*
X170109069Y-79673693D01*
X170333097Y-79580898D01*
X170534717Y-79446180D01*
X170706180Y-79274717D01*
X170840898Y-79073097D01*
X170933693Y-78849069D01*
X170981000Y-78611243D01*
X170981000Y-78368757D01*
X170933693Y-78130931D01*
X170840898Y-77906903D01*
X170706180Y-77705283D01*
X170534717Y-77533820D01*
X170333097Y-77399102D01*
X170109069Y-77306307D01*
X169871243Y-77259000D01*
X169628757Y-77259000D01*
X169390931Y-77306307D01*
X169166903Y-77399102D01*
X168965283Y-77533820D01*
X168793820Y-77705283D01*
X168659102Y-77906903D01*
X168566307Y-78130931D01*
X168519000Y-78368757D01*
X153881000Y-78368757D01*
X153881000Y-75838958D01*
X153944931Y-75796240D01*
X154883365Y-75796240D01*
X154964025Y-76047868D01*
X155232329Y-76176267D01*
X155520526Y-76249855D01*
X155817543Y-76265804D01*
X156111963Y-76223501D01*
X156392474Y-76124572D01*
X156535975Y-76047868D01*
X156606211Y-75828757D01*
X168519000Y-75828757D01*
X168519000Y-76071243D01*
X168566307Y-76309069D01*
X168659102Y-76533097D01*
X168793820Y-76734717D01*
X168965283Y-76906180D01*
X169166903Y-77040898D01*
X169390931Y-77133693D01*
X169628757Y-77181000D01*
X169871243Y-77181000D01*
X170109069Y-77133693D01*
X170333097Y-77040898D01*
X170534717Y-76906180D01*
X170706180Y-76734717D01*
X170840898Y-76533097D01*
X170933693Y-76309069D01*
X170981000Y-76071243D01*
X170981000Y-75828757D01*
X170933693Y-75590931D01*
X170840898Y-75366903D01*
X170706180Y-75165283D01*
X170534717Y-74993820D01*
X170333097Y-74859102D01*
X170109069Y-74766307D01*
X169871243Y-74719000D01*
X169628757Y-74719000D01*
X169390931Y-74766307D01*
X169166903Y-74859102D01*
X168965283Y-74993820D01*
X168793820Y-75165283D01*
X168659102Y-75366903D01*
X168566307Y-75590931D01*
X168519000Y-75828757D01*
X156606211Y-75828757D01*
X156616635Y-75796240D01*
X155750000Y-74929605D01*
X154883365Y-75796240D01*
X153944931Y-75796240D01*
X154050653Y-75725599D01*
X154225599Y-75550653D01*
X154360180Y-75349239D01*
X154375428Y-75392474D01*
X154452132Y-75535975D01*
X154703760Y-75616635D01*
X155570395Y-74750000D01*
X155929605Y-74750000D01*
X156796240Y-75616635D01*
X157047868Y-75535975D01*
X157176267Y-75267671D01*
X157249855Y-74979474D01*
X157265804Y-74682457D01*
X157223501Y-74388037D01*
X157124572Y-74107526D01*
X157047868Y-73964025D01*
X156796240Y-73883365D01*
X155929605Y-74750000D01*
X155570395Y-74750000D01*
X154703760Y-73883365D01*
X154452132Y-73964025D01*
X154361688Y-74153018D01*
X154225599Y-73949347D01*
X154050653Y-73774401D01*
X153944932Y-73703760D01*
X154883365Y-73703760D01*
X155750000Y-74570395D01*
X156616635Y-73703760D01*
X156535975Y-73452132D01*
X156267671Y-73323733D01*
X156130693Y-73288757D01*
X168519000Y-73288757D01*
X168519000Y-73531243D01*
X168566307Y-73769069D01*
X168659102Y-73993097D01*
X168793820Y-74194717D01*
X168965283Y-74366180D01*
X169166903Y-74500898D01*
X169390931Y-74593693D01*
X169628757Y-74641000D01*
X169871243Y-74641000D01*
X170109069Y-74593693D01*
X170333097Y-74500898D01*
X170534717Y-74366180D01*
X170706180Y-74194717D01*
X170840898Y-73993097D01*
X170933693Y-73769069D01*
X170981000Y-73531243D01*
X170981000Y-73288757D01*
X170933693Y-73050931D01*
X170840898Y-72826903D01*
X170706180Y-72625283D01*
X170534717Y-72453820D01*
X170333097Y-72319102D01*
X170109069Y-72226307D01*
X169871243Y-72179000D01*
X169628757Y-72179000D01*
X169390931Y-72226307D01*
X169166903Y-72319102D01*
X168965283Y-72453820D01*
X168793820Y-72625283D01*
X168659102Y-72826903D01*
X168566307Y-73050931D01*
X168519000Y-73288757D01*
X156130693Y-73288757D01*
X155979474Y-73250145D01*
X155682457Y-73234196D01*
X155388037Y-73276499D01*
X155107526Y-73375428D01*
X154964025Y-73452132D01*
X154883365Y-73703760D01*
X153944932Y-73703760D01*
X153844939Y-73636947D01*
X153616362Y-73542268D01*
X153373705Y-73494000D01*
X153126295Y-73494000D01*
X152883638Y-73542268D01*
X152655061Y-73636947D01*
X152449347Y-73774401D01*
X152274401Y-73949347D01*
X152139820Y-74150761D01*
X152124572Y-74107526D01*
X152047868Y-73964025D01*
X151796240Y-73883365D01*
X150929605Y-74750000D01*
X151796240Y-75616635D01*
X152047868Y-75535975D01*
X152138312Y-75346982D01*
X152274401Y-75550653D01*
X152449347Y-75725599D01*
X152619000Y-75838958D01*
X152619001Y-80738630D01*
X151488632Y-81869000D01*
X148523785Y-81869000D01*
X148492797Y-81865948D01*
X148461809Y-81869000D01*
X148461800Y-81869000D01*
X148369100Y-81878130D01*
X148250156Y-81914211D01*
X148140537Y-81972804D01*
X148140535Y-81972805D01*
X148140536Y-81972805D01*
X148107398Y-82000001D01*
X148044455Y-82051657D01*
X148024697Y-82075732D01*
X146731430Y-83369000D01*
X146523368Y-83369000D01*
X148674268Y-81218101D01*
X148698343Y-81198343D01*
X148777196Y-81102261D01*
X148835789Y-80992642D01*
X148871870Y-80873698D01*
X148881000Y-80780998D01*
X148884053Y-80750000D01*
X148881000Y-80719002D01*
X148881000Y-75838958D01*
X148944931Y-75796240D01*
X149883365Y-75796240D01*
X149964025Y-76047868D01*
X150232329Y-76176267D01*
X150520526Y-76249855D01*
X150817543Y-76265804D01*
X151111963Y-76223501D01*
X151392474Y-76124572D01*
X151535975Y-76047868D01*
X151616635Y-75796240D01*
X150750000Y-74929605D01*
X149883365Y-75796240D01*
X148944931Y-75796240D01*
X149050653Y-75725599D01*
X149225599Y-75550653D01*
X149360180Y-75349239D01*
X149375428Y-75392474D01*
X149452132Y-75535975D01*
X149703760Y-75616635D01*
X150570395Y-74750000D01*
X149703760Y-73883365D01*
X149452132Y-73964025D01*
X149361688Y-74153018D01*
X149225599Y-73949347D01*
X149050653Y-73774401D01*
X148944932Y-73703760D01*
X149883365Y-73703760D01*
X150750000Y-74570395D01*
X151616635Y-73703760D01*
X151535975Y-73452132D01*
X151267671Y-73323733D01*
X150979474Y-73250145D01*
X150682457Y-73234196D01*
X150388037Y-73276499D01*
X150107526Y-73375428D01*
X149964025Y-73452132D01*
X149883365Y-73703760D01*
X148944932Y-73703760D01*
X148844939Y-73636947D01*
X148616362Y-73542268D01*
X148373705Y-73494000D01*
X148126295Y-73494000D01*
X147883638Y-73542268D01*
X147655061Y-73636947D01*
X147449347Y-73774401D01*
X147274401Y-73949347D01*
X147139820Y-74150761D01*
X147124572Y-74107526D01*
X147047868Y-73964025D01*
X146796240Y-73883365D01*
X145929605Y-74750000D01*
X146796240Y-75616635D01*
X147047868Y-75535975D01*
X147138312Y-75346982D01*
X147274401Y-75550653D01*
X147449347Y-75725599D01*
X147619000Y-75838958D01*
X147619001Y-80488630D01*
X145738632Y-82369000D01*
X142023368Y-82369000D01*
X143674268Y-80718101D01*
X143698343Y-80698343D01*
X143777196Y-80602261D01*
X143835789Y-80492642D01*
X143871870Y-80373698D01*
X143881000Y-80280998D01*
X143881000Y-80280991D01*
X143884052Y-80250000D01*
X143881000Y-80219010D01*
X143881000Y-76007843D01*
X144125000Y-76007843D01*
X144199689Y-76000487D01*
X144271508Y-75978701D01*
X144337696Y-75943322D01*
X144395711Y-75895711D01*
X144443322Y-75837696D01*
X144465481Y-75796240D01*
X144883365Y-75796240D01*
X144964025Y-76047868D01*
X145232329Y-76176267D01*
X145520526Y-76249855D01*
X145817543Y-76265804D01*
X146111963Y-76223501D01*
X146392474Y-76124572D01*
X146535975Y-76047868D01*
X146616635Y-75796240D01*
X145750000Y-74929605D01*
X144883365Y-75796240D01*
X144465481Y-75796240D01*
X144478701Y-75771508D01*
X144500487Y-75699689D01*
X144507843Y-75625000D01*
X144507843Y-75553833D01*
X144703760Y-75616635D01*
X145570395Y-74750000D01*
X144703760Y-73883365D01*
X144507843Y-73946167D01*
X144507843Y-73875000D01*
X144500487Y-73800311D01*
X144478701Y-73728492D01*
X144465482Y-73703760D01*
X144883365Y-73703760D01*
X145750000Y-74570395D01*
X146616635Y-73703760D01*
X146535975Y-73452132D01*
X146267671Y-73323733D01*
X145979474Y-73250145D01*
X145682457Y-73234196D01*
X145388037Y-73276499D01*
X145107526Y-73375428D01*
X144964025Y-73452132D01*
X144883365Y-73703760D01*
X144465482Y-73703760D01*
X144443322Y-73662304D01*
X144395711Y-73604289D01*
X144337696Y-73556678D01*
X144271508Y-73521299D01*
X144199689Y-73499513D01*
X144125000Y-73492157D01*
X142375000Y-73492157D01*
X142300311Y-73499513D01*
X142228492Y-73521299D01*
X142162304Y-73556678D01*
X142104289Y-73604289D01*
X142056678Y-73662304D01*
X142021299Y-73728492D01*
X141999513Y-73800311D01*
X141992157Y-73875000D01*
X141992157Y-75625000D01*
X141999513Y-75699689D01*
X142021299Y-75771508D01*
X142056678Y-75837696D01*
X142104289Y-75895711D01*
X142162304Y-75943322D01*
X142228492Y-75978701D01*
X142300311Y-76000487D01*
X142375000Y-76007843D01*
X142619000Y-76007843D01*
X142619001Y-79988630D01*
X141238632Y-81369000D01*
X136280987Y-81369000D01*
X136249999Y-81365948D01*
X136219011Y-81369000D01*
X136219002Y-81369000D01*
X136126302Y-81378130D01*
X136007358Y-81414211D01*
X135897739Y-81472804D01*
X135831463Y-81527196D01*
X135801657Y-81551657D01*
X135781899Y-81575732D01*
X133825737Y-83531895D01*
X133801657Y-83551657D01*
X133722804Y-83647740D01*
X133664211Y-83757359D01*
X133628130Y-83876303D01*
X133619000Y-83969003D01*
X133619000Y-83969010D01*
X133615948Y-84000000D01*
X133619000Y-84030990D01*
X133619001Y-89238630D01*
X132298632Y-90559000D01*
X129808890Y-90559000D01*
X129706180Y-90405283D01*
X129534717Y-90233820D01*
X129333097Y-90099102D01*
X129109069Y-90006307D01*
X128871243Y-89959000D01*
X128628757Y-89959000D01*
X128390931Y-90006307D01*
X128166903Y-90099102D01*
X127965283Y-90233820D01*
X127793820Y-90405283D01*
X127659102Y-90606903D01*
X127566307Y-90830931D01*
X127519000Y-91068757D01*
X125092900Y-91068757D01*
X125092900Y-83448757D01*
X127519000Y-83448757D01*
X127519000Y-83691243D01*
X127566307Y-83929069D01*
X127659102Y-84153097D01*
X127793820Y-84354717D01*
X127965283Y-84526180D01*
X128166903Y-84660898D01*
X128390931Y-84753693D01*
X128628757Y-84801000D01*
X128871243Y-84801000D01*
X129109069Y-84753693D01*
X129288092Y-84679540D01*
X129052564Y-84915067D01*
X128871243Y-84879000D01*
X128628757Y-84879000D01*
X128390931Y-84926307D01*
X128166903Y-85019102D01*
X127965283Y-85153820D01*
X127793820Y-85325283D01*
X127659102Y-85526903D01*
X127566307Y-85750931D01*
X127519000Y-85988757D01*
X127519000Y-86231243D01*
X127566307Y-86469069D01*
X127659102Y-86693097D01*
X127793820Y-86894717D01*
X127965283Y-87066180D01*
X128166903Y-87200898D01*
X128390931Y-87293693D01*
X128628757Y-87341000D01*
X128871243Y-87341000D01*
X129109069Y-87293693D01*
X129288093Y-87219539D01*
X129175738Y-87331893D01*
X129052564Y-87455067D01*
X128871243Y-87419000D01*
X128628757Y-87419000D01*
X128390931Y-87466307D01*
X128166903Y-87559102D01*
X127965283Y-87693820D01*
X127793820Y-87865283D01*
X127659102Y-88066903D01*
X127566307Y-88290931D01*
X127519000Y-88528757D01*
X127519000Y-88771243D01*
X127566307Y-89009069D01*
X127659102Y-89233097D01*
X127793820Y-89434717D01*
X127965283Y-89606180D01*
X128166903Y-89740898D01*
X128390931Y-89833693D01*
X128628757Y-89881000D01*
X128871243Y-89881000D01*
X129109069Y-89833693D01*
X129333097Y-89740898D01*
X129534717Y-89606180D01*
X129706180Y-89434717D01*
X129840898Y-89233097D01*
X129933693Y-89009069D01*
X129981000Y-88771243D01*
X129981000Y-88528757D01*
X129944933Y-88347436D01*
X132924268Y-85368101D01*
X132948343Y-85348343D01*
X132988018Y-85300000D01*
X133027196Y-85252261D01*
X133085789Y-85142642D01*
X133121870Y-85023698D01*
X133124204Y-85000000D01*
X133131000Y-84930998D01*
X133131000Y-84930991D01*
X133134052Y-84900000D01*
X133131000Y-84869010D01*
X133131000Y-76827700D01*
X140327701Y-69631000D01*
X149969010Y-69631000D01*
X150000000Y-69634052D01*
X150030990Y-69631000D01*
X150030998Y-69631000D01*
X150123698Y-69621870D01*
X150242642Y-69585789D01*
X150352261Y-69527196D01*
X150448343Y-69448343D01*
X150468105Y-69424263D01*
X155426176Y-64466193D01*
X155626295Y-64506000D01*
X155873705Y-64506000D01*
X156116362Y-64457732D01*
X156344939Y-64363053D01*
X156550653Y-64225599D01*
X156725599Y-64050653D01*
X156863053Y-63844939D01*
X156957732Y-63616362D01*
X157006000Y-63373705D01*
X157006000Y-63126295D01*
X156957732Y-62883638D01*
X156863053Y-62655061D01*
X156725599Y-62449347D01*
X156550653Y-62274401D01*
X156344939Y-62136947D01*
X156116362Y-62042268D01*
X155873705Y-61994000D01*
X155626295Y-61994000D01*
X155383638Y-62042268D01*
X155155061Y-62136947D01*
X154949347Y-62274401D01*
X154774401Y-62449347D01*
X154636947Y-62655061D01*
X154542268Y-62883638D01*
X154500000Y-63096131D01*
X154457732Y-62883638D01*
X154363053Y-62655061D01*
X154225599Y-62449347D01*
X154050653Y-62274401D01*
X153881000Y-62161042D01*
X153881000Y-62030987D01*
X153884052Y-61999999D01*
X153881000Y-61969011D01*
X153881000Y-61969002D01*
X153872333Y-61881000D01*
X160488632Y-61881000D01*
X161619000Y-63011369D01*
X161619001Y-69469000D01*
X161615948Y-69500000D01*
X161628130Y-69623697D01*
X161664211Y-69742641D01*
X161722804Y-69852260D01*
X161781897Y-69924265D01*
X161781900Y-69924268D01*
X161801658Y-69948343D01*
X161825733Y-69968101D01*
X163151899Y-71294268D01*
X163171657Y-71318343D01*
X163195732Y-71338101D01*
X163195734Y-71338103D01*
X163267739Y-71397196D01*
X163377358Y-71455789D01*
X163496302Y-71491870D01*
X163620000Y-71504053D01*
X163650998Y-71501000D01*
X168691110Y-71501000D01*
X168793820Y-71654717D01*
X168965283Y-71826180D01*
X169166903Y-71960898D01*
X169390931Y-72053693D01*
X169628757Y-72101000D01*
X169871243Y-72101000D01*
X170109069Y-72053693D01*
X170333097Y-71960898D01*
X170534717Y-71826180D01*
X170706180Y-71654717D01*
X170840898Y-71453097D01*
X170933693Y-71229069D01*
X170981000Y-70991243D01*
X170981000Y-70748757D01*
X170933693Y-70510931D01*
X170840898Y-70286903D01*
X170706180Y-70085283D01*
X170534717Y-69913820D01*
X170333097Y-69779102D01*
X170109069Y-69686307D01*
X169871243Y-69639000D01*
X169628757Y-69639000D01*
X169390931Y-69686307D01*
X169166903Y-69779102D01*
X168965283Y-69913820D01*
X168793820Y-70085283D01*
X168691110Y-70239000D01*
X163881369Y-70239000D01*
X162881000Y-69238632D01*
X162881000Y-66146890D01*
X168308524Y-66146890D01*
X168353175Y-66294099D01*
X168478359Y-66556920D01*
X168652412Y-66790269D01*
X168868645Y-66985178D01*
X169118748Y-67134157D01*
X169281168Y-67191772D01*
X169166903Y-67239102D01*
X168965283Y-67373820D01*
X168793820Y-67545283D01*
X168659102Y-67746903D01*
X168566307Y-67970931D01*
X168519000Y-68208757D01*
X168519000Y-68451243D01*
X168566307Y-68689069D01*
X168659102Y-68913097D01*
X168793820Y-69114717D01*
X168965283Y-69286180D01*
X169166903Y-69420898D01*
X169390931Y-69513693D01*
X169628757Y-69561000D01*
X169871243Y-69561000D01*
X170109069Y-69513693D01*
X170333097Y-69420898D01*
X170534717Y-69286180D01*
X170706180Y-69114717D01*
X170840898Y-68913097D01*
X170933693Y-68689069D01*
X170981000Y-68451243D01*
X170981000Y-68208757D01*
X170933693Y-67970931D01*
X170840898Y-67746903D01*
X170706180Y-67545283D01*
X170534717Y-67373820D01*
X170333097Y-67239102D01*
X170218832Y-67191772D01*
X170381252Y-67134157D01*
X170631355Y-66985178D01*
X170847588Y-66790269D01*
X171021641Y-66556920D01*
X171146825Y-66294099D01*
X171191476Y-66146890D01*
X171070155Y-65917000D01*
X169877000Y-65917000D01*
X169877000Y-65937000D01*
X169623000Y-65937000D01*
X169623000Y-65917000D01*
X168429845Y-65917000D01*
X168308524Y-66146890D01*
X162881000Y-66146890D01*
X162881000Y-65433110D01*
X168308524Y-65433110D01*
X168429845Y-65663000D01*
X169623000Y-65663000D01*
X169623000Y-65643000D01*
X169877000Y-65643000D01*
X169877000Y-65663000D01*
X171070155Y-65663000D01*
X171191476Y-65433110D01*
X171146825Y-65285901D01*
X171021641Y-65023080D01*
X170847588Y-64789731D01*
X170631355Y-64594822D01*
X170443367Y-64482843D01*
X170600000Y-64482843D01*
X170674689Y-64475487D01*
X170746508Y-64453701D01*
X170812696Y-64418322D01*
X170870711Y-64370711D01*
X170918322Y-64312696D01*
X170953701Y-64246508D01*
X170975487Y-64174689D01*
X170982843Y-64100000D01*
X170982843Y-62400000D01*
X170975487Y-62325311D01*
X170953701Y-62253492D01*
X170918322Y-62187304D01*
X170870711Y-62129289D01*
X170812696Y-62081678D01*
X170746508Y-62046299D01*
X170674689Y-62024513D01*
X170600000Y-62017157D01*
X168900000Y-62017157D01*
X168825311Y-62024513D01*
X168753492Y-62046299D01*
X168687304Y-62081678D01*
X168629289Y-62129289D01*
X168581678Y-62187304D01*
X168546299Y-62253492D01*
X168524513Y-62325311D01*
X168517157Y-62400000D01*
X168517157Y-64100000D01*
X168524513Y-64174689D01*
X168546299Y-64246508D01*
X168581678Y-64312696D01*
X168629289Y-64370711D01*
X168687304Y-64418322D01*
X168753492Y-64453701D01*
X168825311Y-64475487D01*
X168900000Y-64482843D01*
X169056633Y-64482843D01*
X168868645Y-64594822D01*
X168652412Y-64789731D01*
X168478359Y-65023080D01*
X168353175Y-65285901D01*
X168308524Y-65433110D01*
X162881000Y-65433110D01*
X162881000Y-62780987D01*
X162884052Y-62749999D01*
X162881000Y-62719011D01*
X162881000Y-62719002D01*
X162871870Y-62626302D01*
X162835789Y-62507358D01*
X162777196Y-62397739D01*
X162698343Y-62301657D01*
X162674269Y-62281900D01*
X161218105Y-60825737D01*
X161198343Y-60801657D01*
X161102261Y-60722804D01*
X160992642Y-60664211D01*
X160873698Y-60628130D01*
X160780998Y-60619000D01*
X160780990Y-60619000D01*
X160750000Y-60615948D01*
X160719010Y-60619000D01*
X152530990Y-60619000D01*
X152500000Y-60615948D01*
X152469010Y-60619000D01*
X146543551Y-60619000D01*
X146512563Y-60615948D01*
X146481575Y-60619000D01*
X146481566Y-60619000D01*
X146388866Y-60628130D01*
X146269922Y-60664211D01*
X146160303Y-60722804D01*
X146064221Y-60801657D01*
X146044463Y-60825732D01*
X145325733Y-61544463D01*
X145301658Y-61564221D01*
X145281900Y-61588296D01*
X145281897Y-61588299D01*
X145222804Y-61660304D01*
X145164211Y-61769923D01*
X145128130Y-61888867D01*
X145115948Y-62012564D01*
X145119001Y-62043564D01*
X145119001Y-62161042D01*
X144949347Y-62274401D01*
X144774401Y-62449347D01*
X144636947Y-62655061D01*
X144542268Y-62883638D01*
X144507843Y-63056702D01*
X144507843Y-62375000D01*
X144500487Y-62300311D01*
X144478701Y-62228492D01*
X144443322Y-62162304D01*
X144395711Y-62104289D01*
X144337696Y-62056678D01*
X144271508Y-62021299D01*
X144199689Y-61999513D01*
X144125000Y-61992157D01*
X142375000Y-61992157D01*
X142300311Y-61999513D01*
X142228492Y-62021299D01*
X142162304Y-62056678D01*
X142104289Y-62104289D01*
X142056678Y-62162304D01*
X142021299Y-62228492D01*
X141999513Y-62300311D01*
X141992157Y-62375000D01*
X141992157Y-64125000D01*
X141999513Y-64199689D01*
X142021299Y-64271508D01*
X142056678Y-64337696D01*
X142104289Y-64395711D01*
X142162304Y-64443322D01*
X142228492Y-64478701D01*
X142300311Y-64500487D01*
X142375000Y-64507843D01*
X142619001Y-64507843D01*
X142619000Y-66488631D01*
X141988632Y-67119000D01*
X140280990Y-67119000D01*
X140250000Y-67115948D01*
X140219009Y-67119000D01*
X140219002Y-67119000D01*
X140126302Y-67128130D01*
X140007358Y-67164211D01*
X139897739Y-67222804D01*
X139831463Y-67277196D01*
X139801657Y-67301657D01*
X139781899Y-67325732D01*
X131321722Y-75785910D01*
X131297647Y-75805668D01*
X131277889Y-75829743D01*
X131277886Y-75829746D01*
X131218793Y-75901751D01*
X131160200Y-76011370D01*
X131124119Y-76130314D01*
X131111937Y-76254011D01*
X131114990Y-76285011D01*
X131114989Y-82852642D01*
X129859540Y-84108092D01*
X129933693Y-83929069D01*
X129981000Y-83691243D01*
X129981000Y-83448757D01*
X129933693Y-83210931D01*
X129840898Y-82986903D01*
X129706180Y-82785283D01*
X129534717Y-82613820D01*
X129333097Y-82479102D01*
X129109069Y-82386307D01*
X128871243Y-82339000D01*
X128628757Y-82339000D01*
X128390931Y-82386307D01*
X128166903Y-82479102D01*
X127965283Y-82613820D01*
X127793820Y-82785283D01*
X127659102Y-82986903D01*
X127566307Y-83210931D01*
X127519000Y-83448757D01*
X125092900Y-83448757D01*
X125092900Y-80908757D01*
X127519000Y-80908757D01*
X127519000Y-81151243D01*
X127566307Y-81389069D01*
X127659102Y-81613097D01*
X127793820Y-81814717D01*
X127965283Y-81986180D01*
X128166903Y-82120898D01*
X128390931Y-82213693D01*
X128628757Y-82261000D01*
X128871243Y-82261000D01*
X129109069Y-82213693D01*
X129333097Y-82120898D01*
X129534717Y-81986180D01*
X129706180Y-81814717D01*
X129840898Y-81613097D01*
X129933693Y-81389069D01*
X129981000Y-81151243D01*
X129981000Y-80908757D01*
X129933693Y-80670931D01*
X129840898Y-80446903D01*
X129706180Y-80245283D01*
X129534717Y-80073820D01*
X129333097Y-79939102D01*
X129109069Y-79846307D01*
X128871243Y-79799000D01*
X128628757Y-79799000D01*
X128390931Y-79846307D01*
X128166903Y-79939102D01*
X127965283Y-80073820D01*
X127793820Y-80245283D01*
X127659102Y-80446903D01*
X127566307Y-80670931D01*
X127519000Y-80908757D01*
X125092900Y-80908757D01*
X125092900Y-78368757D01*
X127519000Y-78368757D01*
X127519000Y-78611243D01*
X127566307Y-78849069D01*
X127659102Y-79073097D01*
X127793820Y-79274717D01*
X127965283Y-79446180D01*
X128166903Y-79580898D01*
X128390931Y-79673693D01*
X128628757Y-79721000D01*
X128871243Y-79721000D01*
X129109069Y-79673693D01*
X129333097Y-79580898D01*
X129534717Y-79446180D01*
X129706180Y-79274717D01*
X129840898Y-79073097D01*
X129933693Y-78849069D01*
X129981000Y-78611243D01*
X129981000Y-78368757D01*
X129933693Y-78130931D01*
X129840898Y-77906903D01*
X129706180Y-77705283D01*
X129534717Y-77533820D01*
X129333097Y-77399102D01*
X129109069Y-77306307D01*
X128871243Y-77259000D01*
X128628757Y-77259000D01*
X128390931Y-77306307D01*
X128166903Y-77399102D01*
X127965283Y-77533820D01*
X127793820Y-77705283D01*
X127659102Y-77906903D01*
X127566307Y-78130931D01*
X127519000Y-78368757D01*
X125092900Y-78368757D01*
X125092900Y-75828757D01*
X127519000Y-75828757D01*
X127519000Y-76071243D01*
X127566307Y-76309069D01*
X127659102Y-76533097D01*
X127793820Y-76734717D01*
X127965283Y-76906180D01*
X128166903Y-77040898D01*
X128390931Y-77133693D01*
X128628757Y-77181000D01*
X128871243Y-77181000D01*
X129109069Y-77133693D01*
X129333097Y-77040898D01*
X129534717Y-76906180D01*
X129706180Y-76734717D01*
X129840898Y-76533097D01*
X129933693Y-76309069D01*
X129981000Y-76071243D01*
X129981000Y-75828757D01*
X129933693Y-75590931D01*
X129840898Y-75366903D01*
X129706180Y-75165283D01*
X129534717Y-74993820D01*
X129333097Y-74859102D01*
X129109069Y-74766307D01*
X128871243Y-74719000D01*
X128628757Y-74719000D01*
X128390931Y-74766307D01*
X128166903Y-74859102D01*
X127965283Y-74993820D01*
X127793820Y-75165283D01*
X127659102Y-75366903D01*
X127566307Y-75590931D01*
X127519000Y-75828757D01*
X125092900Y-75828757D01*
X125092900Y-71226890D01*
X127308524Y-71226890D01*
X127353175Y-71374099D01*
X127478359Y-71636920D01*
X127652412Y-71870269D01*
X127868645Y-72065178D01*
X128118748Y-72214157D01*
X128281168Y-72271772D01*
X128166903Y-72319102D01*
X127965283Y-72453820D01*
X127793820Y-72625283D01*
X127659102Y-72826903D01*
X127566307Y-73050931D01*
X127519000Y-73288757D01*
X127519000Y-73531243D01*
X127566307Y-73769069D01*
X127659102Y-73993097D01*
X127793820Y-74194717D01*
X127965283Y-74366180D01*
X128166903Y-74500898D01*
X128390931Y-74593693D01*
X128628757Y-74641000D01*
X128871243Y-74641000D01*
X129109069Y-74593693D01*
X129333097Y-74500898D01*
X129534717Y-74366180D01*
X129706180Y-74194717D01*
X129840898Y-73993097D01*
X129933693Y-73769069D01*
X129981000Y-73531243D01*
X129981000Y-73288757D01*
X129933693Y-73050931D01*
X129840898Y-72826903D01*
X129706180Y-72625283D01*
X129534717Y-72453820D01*
X129333097Y-72319102D01*
X129218832Y-72271772D01*
X129381252Y-72214157D01*
X129631355Y-72065178D01*
X129847588Y-71870269D01*
X130021641Y-71636920D01*
X130146825Y-71374099D01*
X130191476Y-71226890D01*
X130070155Y-70997000D01*
X128877000Y-70997000D01*
X128877000Y-71017000D01*
X128623000Y-71017000D01*
X128623000Y-70997000D01*
X127429845Y-70997000D01*
X127308524Y-71226890D01*
X125092900Y-71226890D01*
X125092900Y-70513110D01*
X127308524Y-70513110D01*
X127429845Y-70743000D01*
X128623000Y-70743000D01*
X128623000Y-70723000D01*
X128877000Y-70723000D01*
X128877000Y-70743000D01*
X130070155Y-70743000D01*
X130191476Y-70513110D01*
X130146825Y-70365901D01*
X130021641Y-70103080D01*
X129847588Y-69869731D01*
X129631355Y-69674822D01*
X129381252Y-69525843D01*
X129218832Y-69468228D01*
X129333097Y-69420898D01*
X129534717Y-69286180D01*
X129706180Y-69114717D01*
X129840898Y-68913097D01*
X129933693Y-68689069D01*
X129981000Y-68451243D01*
X129981000Y-68208757D01*
X129933693Y-67970931D01*
X129840898Y-67746903D01*
X129706180Y-67545283D01*
X129534717Y-67373820D01*
X129333097Y-67239102D01*
X129109069Y-67146307D01*
X128871243Y-67099000D01*
X128628757Y-67099000D01*
X128390931Y-67146307D01*
X128166903Y-67239102D01*
X127965283Y-67373820D01*
X127793820Y-67545283D01*
X127659102Y-67746903D01*
X127566307Y-67970931D01*
X127519000Y-68208757D01*
X127519000Y-68451243D01*
X127566307Y-68689069D01*
X127659102Y-68913097D01*
X127793820Y-69114717D01*
X127965283Y-69286180D01*
X128166903Y-69420898D01*
X128281168Y-69468228D01*
X128118748Y-69525843D01*
X127868645Y-69674822D01*
X127652412Y-69869731D01*
X127478359Y-70103080D01*
X127353175Y-70365901D01*
X127308524Y-70513110D01*
X125092900Y-70513110D01*
X125092900Y-65668757D01*
X127519000Y-65668757D01*
X127519000Y-65911243D01*
X127566307Y-66149069D01*
X127659102Y-66373097D01*
X127793820Y-66574717D01*
X127965283Y-66746180D01*
X128166903Y-66880898D01*
X128390931Y-66973693D01*
X128628757Y-67021000D01*
X128871243Y-67021000D01*
X129109069Y-66973693D01*
X129333097Y-66880898D01*
X129534717Y-66746180D01*
X129706180Y-66574717D01*
X129840898Y-66373097D01*
X129933693Y-66149069D01*
X129981000Y-65911243D01*
X129981000Y-65668757D01*
X129933693Y-65430931D01*
X129840898Y-65206903D01*
X129706180Y-65005283D01*
X129534717Y-64833820D01*
X129333097Y-64699102D01*
X129109069Y-64606307D01*
X128871243Y-64559000D01*
X128628757Y-64559000D01*
X128390931Y-64606307D01*
X128166903Y-64699102D01*
X127965283Y-64833820D01*
X127793820Y-65005283D01*
X127659102Y-65206903D01*
X127566307Y-65430931D01*
X127519000Y-65668757D01*
X125092900Y-65668757D01*
X125092900Y-62400000D01*
X127517157Y-62400000D01*
X127517157Y-64100000D01*
X127524513Y-64174689D01*
X127546299Y-64246508D01*
X127581678Y-64312696D01*
X127629289Y-64370711D01*
X127687304Y-64418322D01*
X127753492Y-64453701D01*
X127825311Y-64475487D01*
X127900000Y-64482843D01*
X129600000Y-64482843D01*
X129674689Y-64475487D01*
X129746508Y-64453701D01*
X129812696Y-64418322D01*
X129870711Y-64370711D01*
X129918322Y-64312696D01*
X129953701Y-64246508D01*
X129975487Y-64174689D01*
X129982843Y-64100000D01*
X129982843Y-62400000D01*
X129975487Y-62325311D01*
X129953701Y-62253492D01*
X129918322Y-62187304D01*
X129870711Y-62129289D01*
X129812696Y-62081678D01*
X129746508Y-62046299D01*
X129674689Y-62024513D01*
X129600000Y-62017157D01*
X127900000Y-62017157D01*
X127825311Y-62024513D01*
X127753492Y-62046299D01*
X127687304Y-62081678D01*
X127629289Y-62129289D01*
X127581678Y-62187304D01*
X127546299Y-62253492D01*
X127524513Y-62325311D01*
X127517157Y-62400000D01*
X125092900Y-62400000D01*
X125092900Y-57804889D01*
X126769000Y-57804889D01*
X126769000Y-58195111D01*
X126845129Y-58577836D01*
X126994461Y-58938355D01*
X127211257Y-59262814D01*
X127487186Y-59538743D01*
X127811645Y-59755539D01*
X128172164Y-59904871D01*
X128554889Y-59981000D01*
X128945111Y-59981000D01*
X129327836Y-59904871D01*
X129688355Y-59755539D01*
X130012814Y-59538743D01*
X130288743Y-59262814D01*
X130505539Y-58938355D01*
X130654871Y-58577836D01*
X130731000Y-58195111D01*
X130731000Y-57804889D01*
X167769000Y-57804889D01*
X167769000Y-58195111D01*
X167845129Y-58577836D01*
X167994461Y-58938355D01*
X168211257Y-59262814D01*
X168487186Y-59538743D01*
X168811645Y-59755539D01*
X169172164Y-59904871D01*
X169554889Y-59981000D01*
X169945111Y-59981000D01*
X170327836Y-59904871D01*
X170688355Y-59755539D01*
X171012814Y-59538743D01*
X171288743Y-59262814D01*
X171505539Y-58938355D01*
X171654871Y-58577836D01*
X171731000Y-58195111D01*
X171731000Y-57804889D01*
X171654871Y-57422164D01*
X171505539Y-57061645D01*
X171288743Y-56737186D01*
X171012814Y-56461257D01*
X170688355Y-56244461D01*
X170327836Y-56095129D01*
X169945111Y-56019000D01*
X169554889Y-56019000D01*
X169172164Y-56095129D01*
X168811645Y-56244461D01*
X168487186Y-56461257D01*
X168211257Y-56737186D01*
X167994461Y-57061645D01*
X167845129Y-57422164D01*
X167769000Y-57804889D01*
X130731000Y-57804889D01*
X130654871Y-57422164D01*
X130505539Y-57061645D01*
X130288743Y-56737186D01*
X130012814Y-56461257D01*
X129688355Y-56244461D01*
X129327836Y-56095129D01*
X128945111Y-56019000D01*
X128554889Y-56019000D01*
X128172164Y-56095129D01*
X127811645Y-56244461D01*
X127487186Y-56461257D01*
X127211257Y-56737186D01*
X126994461Y-57061645D01*
X126845129Y-57422164D01*
X126769000Y-57804889D01*
X125092900Y-57804889D01*
X125092900Y-55516775D01*
X125116549Y-55275573D01*
X125181728Y-55059691D01*
X125287598Y-54860579D01*
X125430121Y-54685829D01*
X125603880Y-54542083D01*
X125802243Y-54434828D01*
X126017661Y-54368145D01*
X126257854Y-54342900D01*
X172483225Y-54342900D01*
X172724427Y-54366549D01*
G36*
X147464025Y-61952132D02*
G01*
X147383365Y-62203760D01*
X148250000Y-63070395D01*
X149116635Y-62203760D01*
X149035975Y-61952132D01*
X148887337Y-61881000D01*
X150097102Y-61881000D01*
X149964025Y-61952132D01*
X149883365Y-62203760D01*
X150750000Y-63070395D01*
X151616635Y-62203760D01*
X151535975Y-61952132D01*
X151387337Y-61881000D01*
X152238632Y-61881000D01*
X152558859Y-62201227D01*
X152449347Y-62274401D01*
X152274401Y-62449347D01*
X152139820Y-62650761D01*
X152124572Y-62607526D01*
X152047868Y-62464025D01*
X151796240Y-62383365D01*
X150929605Y-63250000D01*
X151796240Y-64116635D01*
X152047868Y-64035975D01*
X152138312Y-63846982D01*
X152274401Y-64050653D01*
X152449347Y-64225599D01*
X152655061Y-64363053D01*
X152883638Y-64457732D01*
X153126295Y-64506000D01*
X153373705Y-64506000D01*
X153616362Y-64457732D01*
X153673613Y-64434018D01*
X149738632Y-68369000D01*
X142383159Y-68369000D01*
X142492642Y-68335789D01*
X142602261Y-68277196D01*
X142698343Y-68198343D01*
X142718105Y-68174263D01*
X143674269Y-67218100D01*
X143698343Y-67198343D01*
X143751020Y-67134157D01*
X143777196Y-67102261D01*
X143835789Y-66992642D01*
X143871870Y-66873698D01*
X143884053Y-66750000D01*
X143881000Y-66719002D01*
X143881000Y-64507843D01*
X144125000Y-64507843D01*
X144199689Y-64500487D01*
X144271508Y-64478701D01*
X144337696Y-64443322D01*
X144395711Y-64395711D01*
X144443322Y-64337696D01*
X144478701Y-64271508D01*
X144500487Y-64199689D01*
X144507843Y-64125000D01*
X144507843Y-63443298D01*
X144542268Y-63616362D01*
X144636947Y-63844939D01*
X144774401Y-64050653D01*
X144949347Y-64225599D01*
X145155061Y-64363053D01*
X145383638Y-64457732D01*
X145626295Y-64506000D01*
X145873705Y-64506000D01*
X146116362Y-64457732D01*
X146344939Y-64363053D01*
X146444931Y-64296240D01*
X147383365Y-64296240D01*
X147464025Y-64547868D01*
X147732329Y-64676267D01*
X148020526Y-64749855D01*
X148317543Y-64765804D01*
X148611963Y-64723501D01*
X148892474Y-64624572D01*
X149035975Y-64547868D01*
X149116635Y-64296240D01*
X149883365Y-64296240D01*
X149964025Y-64547868D01*
X150232329Y-64676267D01*
X150520526Y-64749855D01*
X150817543Y-64765804D01*
X151111963Y-64723501D01*
X151392474Y-64624572D01*
X151535975Y-64547868D01*
X151616635Y-64296240D01*
X150750000Y-63429605D01*
X149883365Y-64296240D01*
X149116635Y-64296240D01*
X148250000Y-63429605D01*
X147383365Y-64296240D01*
X146444931Y-64296240D01*
X146550653Y-64225599D01*
X146725599Y-64050653D01*
X146860180Y-63849239D01*
X146875428Y-63892474D01*
X146952132Y-64035975D01*
X147203760Y-64116635D01*
X148070395Y-63250000D01*
X148429605Y-63250000D01*
X149296240Y-64116635D01*
X149500000Y-64051319D01*
X149703760Y-64116635D01*
X150570395Y-63250000D01*
X149703760Y-62383365D01*
X149500000Y-62448681D01*
X149296240Y-62383365D01*
X148429605Y-63250000D01*
X148070395Y-63250000D01*
X147203760Y-62383365D01*
X146952132Y-62464025D01*
X146861688Y-62653018D01*
X146725599Y-62449347D01*
X146550653Y-62274401D01*
X146448673Y-62206260D01*
X146773933Y-61881000D01*
X147597102Y-61881000D01*
X147464025Y-61952132D01*
G37*
X147464025Y-61952132D02*
X147383365Y-62203760D01*
X148250000Y-63070395D01*
X149116635Y-62203760D01*
X149035975Y-61952132D01*
X148887337Y-61881000D01*
X150097102Y-61881000D01*
X149964025Y-61952132D01*
X149883365Y-62203760D01*
X150750000Y-63070395D01*
X151616635Y-62203760D01*
X151535975Y-61952132D01*
X151387337Y-61881000D01*
X152238632Y-61881000D01*
X152558859Y-62201227D01*
X152449347Y-62274401D01*
X152274401Y-62449347D01*
X152139820Y-62650761D01*
X152124572Y-62607526D01*
X152047868Y-62464025D01*
X151796240Y-62383365D01*
X150929605Y-63250000D01*
X151796240Y-64116635D01*
X152047868Y-64035975D01*
X152138312Y-63846982D01*
X152274401Y-64050653D01*
X152449347Y-64225599D01*
X152655061Y-64363053D01*
X152883638Y-64457732D01*
X153126295Y-64506000D01*
X153373705Y-64506000D01*
X153616362Y-64457732D01*
X153673613Y-64434018D01*
X149738632Y-68369000D01*
X142383159Y-68369000D01*
X142492642Y-68335789D01*
X142602261Y-68277196D01*
X142698343Y-68198343D01*
X142718105Y-68174263D01*
X143674269Y-67218100D01*
X143698343Y-67198343D01*
X143751020Y-67134157D01*
X143777196Y-67102261D01*
X143835789Y-66992642D01*
X143871870Y-66873698D01*
X143884053Y-66750000D01*
X143881000Y-66719002D01*
X143881000Y-64507843D01*
X144125000Y-64507843D01*
X144199689Y-64500487D01*
X144271508Y-64478701D01*
X144337696Y-64443322D01*
X144395711Y-64395711D01*
X144443322Y-64337696D01*
X144478701Y-64271508D01*
X144500487Y-64199689D01*
X144507843Y-64125000D01*
X144507843Y-63443298D01*
X144542268Y-63616362D01*
X144636947Y-63844939D01*
X144774401Y-64050653D01*
X144949347Y-64225599D01*
X145155061Y-64363053D01*
X145383638Y-64457732D01*
X145626295Y-64506000D01*
X145873705Y-64506000D01*
X146116362Y-64457732D01*
X146344939Y-64363053D01*
X146444931Y-64296240D01*
X147383365Y-64296240D01*
X147464025Y-64547868D01*
X147732329Y-64676267D01*
X148020526Y-64749855D01*
X148317543Y-64765804D01*
X148611963Y-64723501D01*
X148892474Y-64624572D01*
X149035975Y-64547868D01*
X149116635Y-64296240D01*
X149883365Y-64296240D01*
X149964025Y-64547868D01*
X150232329Y-64676267D01*
X150520526Y-64749855D01*
X150817543Y-64765804D01*
X151111963Y-64723501D01*
X151392474Y-64624572D01*
X151535975Y-64547868D01*
X151616635Y-64296240D01*
X150750000Y-63429605D01*
X149883365Y-64296240D01*
X149116635Y-64296240D01*
X148250000Y-63429605D01*
X147383365Y-64296240D01*
X146444931Y-64296240D01*
X146550653Y-64225599D01*
X146725599Y-64050653D01*
X146860180Y-63849239D01*
X146875428Y-63892474D01*
X146952132Y-64035975D01*
X147203760Y-64116635D01*
X148070395Y-63250000D01*
X148429605Y-63250000D01*
X149296240Y-64116635D01*
X149500000Y-64051319D01*
X149703760Y-64116635D01*
X150570395Y-63250000D01*
X149703760Y-62383365D01*
X149500000Y-62448681D01*
X149296240Y-62383365D01*
X148429605Y-63250000D01*
X148070395Y-63250000D01*
X147203760Y-62383365D01*
X146952132Y-62464025D01*
X146861688Y-62653018D01*
X146725599Y-62449347D01*
X146550653Y-62274401D01*
X146448673Y-62206260D01*
X146773933Y-61881000D01*
X147597102Y-61881000D01*
X147464025Y-61952132D01*
M02*
