%TF.GenerationSoftware,KiCad,Pcbnew,5.1.5+dfsg1-2build2*%
%TF.CreationDate,2021-01-24T20:27:35+01:00*%
%TF.ProjectId,PlacaStepperShield,506c6163-6153-4746-9570-706572536869,rev?*%
%TF.SameCoordinates,Original*%
%TF.FileFunction,Soldermask,Top*%
%TF.FilePolarity,Negative*%
%FSLAX46Y46*%
G04 Gerber Fmt 4.6, Leading zero omitted, Abs format (unit mm)*
G04 Created by KiCad (PCBNEW 5.1.5+dfsg1-2build2) date 2021-01-24 20:27:35*
%MOMM*%
%LPD*%
G04 APERTURE LIST*
%ADD10C,3.300000*%
%ADD11R,1.850000X1.850000*%
%ADD12C,1.850000*%
%ADD13C,1.200000*%
%ADD14C,1.700000*%
%ADD15O,1.800000X1.800000*%
%ADD16R,1.800000X1.800000*%
%ADD17R,1.300000X2.300000*%
%ADD18R,5.900000X6.500000*%
G04 APERTURE END LIST*
D10*
X128750000Y-105000000D03*
X169750000Y-105000000D03*
X169750000Y-58000000D03*
X128750000Y-58000000D03*
D11*
X143250000Y-63250000D03*
D12*
X145750000Y-63250000D03*
X148250000Y-63250000D03*
X150750000Y-63250000D03*
X153250000Y-63250000D03*
X155750000Y-63250000D03*
D13*
X146500000Y-99000000D03*
D14*
X149500000Y-103000000D03*
X149500000Y-100000000D03*
D13*
X152500000Y-99060000D03*
D12*
X155750000Y-74750000D03*
X153250000Y-74750000D03*
X150750000Y-74750000D03*
X148250000Y-74750000D03*
X145750000Y-74750000D03*
D11*
X143250000Y-74750000D03*
D15*
X128750000Y-98810000D03*
X128750000Y-96270000D03*
X128750000Y-93730000D03*
X128750000Y-91190000D03*
X128750000Y-88650000D03*
X128750000Y-86110000D03*
X128750000Y-83570000D03*
X128750000Y-81030000D03*
X128750000Y-78490000D03*
X128750000Y-75950000D03*
X128750000Y-73410000D03*
X128750000Y-70870000D03*
X128750000Y-68330000D03*
X128750000Y-65790000D03*
D16*
X128750000Y-63250000D03*
X169750000Y-63250000D03*
D15*
X169750000Y-65790000D03*
X169750000Y-68330000D03*
X169750000Y-70870000D03*
X169750000Y-73410000D03*
X169750000Y-75950000D03*
X169750000Y-78490000D03*
X169750000Y-81030000D03*
X169750000Y-83570000D03*
X169750000Y-86110000D03*
X169750000Y-88650000D03*
X169750000Y-91190000D03*
X169750000Y-93730000D03*
X169750000Y-96270000D03*
X169750000Y-98810000D03*
D17*
X147220000Y-94800000D03*
X151780000Y-94800000D03*
D18*
X149500000Y-88500000D03*
M02*
