%TF.GenerationSoftware,KiCad,Pcbnew,5.1.5+dfsg1-2build2*%
%TF.CreationDate,2021-01-24T20:27:35+01:00*%
%TF.ProjectId,PlacaStepperShield,506c6163-6153-4746-9570-706572536869,rev?*%
%TF.SameCoordinates,Original*%
%TF.FileFunction,Legend,Top*%
%TF.FilePolarity,Positive*%
%FSLAX46Y46*%
G04 Gerber Fmt 4.6, Leading zero omitted, Abs format (unit mm)*
G04 Created by KiCad (PCBNEW 5.1.5+dfsg1-2build2) date 2021-01-24 20:27:35*
%MOMM*%
%LPD*%
G04 APERTURE LIST*
%ADD10C,0.127000*%
%ADD11C,0.010000*%
%ADD12C,0.120000*%
%ADD13C,0.150000*%
G04 APERTURE END LIST*
D10*
X140688095Y-103361904D02*
X140688095Y-102561904D01*
X140878571Y-102561904D01*
X140992857Y-102600000D01*
X141069047Y-102676190D01*
X141107142Y-102752380D01*
X141145238Y-102904761D01*
X141145238Y-103019047D01*
X141107142Y-103171428D01*
X141069047Y-103247619D01*
X140992857Y-103323809D01*
X140878571Y-103361904D01*
X140688095Y-103361904D01*
X141945238Y-103361904D02*
X141678571Y-102980952D01*
X141488095Y-103361904D02*
X141488095Y-102561904D01*
X141792857Y-102561904D01*
X141869047Y-102600000D01*
X141907142Y-102638095D01*
X141945238Y-102714285D01*
X141945238Y-102828571D01*
X141907142Y-102904761D01*
X141869047Y-102942857D01*
X141792857Y-102980952D01*
X141488095Y-102980952D01*
X142250000Y-103133333D02*
X142630952Y-103133333D01*
X142173809Y-103361904D02*
X142440476Y-102561904D01*
X142707142Y-103361904D01*
X142973809Y-103361904D02*
X142973809Y-102561904D01*
X143354761Y-103361904D02*
X143354761Y-102561904D01*
X143811904Y-103361904D01*
X143811904Y-102561904D01*
X140021428Y-100323809D02*
X140135714Y-100361904D01*
X140326190Y-100361904D01*
X140402380Y-100323809D01*
X140440476Y-100285714D01*
X140478571Y-100209523D01*
X140478571Y-100133333D01*
X140440476Y-100057142D01*
X140402380Y-100019047D01*
X140326190Y-99980952D01*
X140173809Y-99942857D01*
X140097619Y-99904761D01*
X140059523Y-99866666D01*
X140021428Y-99790476D01*
X140021428Y-99714285D01*
X140059523Y-99638095D01*
X140097619Y-99600000D01*
X140173809Y-99561904D01*
X140364285Y-99561904D01*
X140478571Y-99600000D01*
X140973809Y-99561904D02*
X141126190Y-99561904D01*
X141202380Y-99600000D01*
X141278571Y-99676190D01*
X141316666Y-99828571D01*
X141316666Y-100095238D01*
X141278571Y-100247619D01*
X141202380Y-100323809D01*
X141126190Y-100361904D01*
X140973809Y-100361904D01*
X140897619Y-100323809D01*
X140821428Y-100247619D01*
X140783333Y-100095238D01*
X140783333Y-99828571D01*
X140821428Y-99676190D01*
X140897619Y-99600000D01*
X140973809Y-99561904D01*
X141659523Y-99561904D02*
X141659523Y-100209523D01*
X141697619Y-100285714D01*
X141735714Y-100323809D01*
X141811904Y-100361904D01*
X141964285Y-100361904D01*
X142040476Y-100323809D01*
X142078571Y-100285714D01*
X142116666Y-100209523D01*
X142116666Y-99561904D01*
X142954761Y-100361904D02*
X142688095Y-99980952D01*
X142497619Y-100361904D02*
X142497619Y-99561904D01*
X142802380Y-99561904D01*
X142878571Y-99600000D01*
X142916666Y-99638095D01*
X142954761Y-99714285D01*
X142954761Y-99828571D01*
X142916666Y-99904761D01*
X142878571Y-99942857D01*
X142802380Y-99980952D01*
X142497619Y-99980952D01*
X143754761Y-100285714D02*
X143716666Y-100323809D01*
X143602380Y-100361904D01*
X143526190Y-100361904D01*
X143411904Y-100323809D01*
X143335714Y-100247619D01*
X143297619Y-100171428D01*
X143259523Y-100019047D01*
X143259523Y-99904761D01*
X143297619Y-99752380D01*
X143335714Y-99676190D01*
X143411904Y-99600000D01*
X143526190Y-99561904D01*
X143602380Y-99561904D01*
X143716666Y-99600000D01*
X143754761Y-99638095D01*
X144097619Y-99942857D02*
X144364285Y-99942857D01*
X144478571Y-100361904D02*
X144097619Y-100361904D01*
X144097619Y-99561904D01*
X144478571Y-99561904D01*
X147508409Y-79690219D02*
X148074094Y-79124534D01*
X148208781Y-79259221D01*
X148262656Y-79366971D01*
X148262656Y-79474720D01*
X148235719Y-79555532D01*
X148154906Y-79690219D01*
X148074094Y-79771032D01*
X147939407Y-79851844D01*
X147858595Y-79878781D01*
X147750845Y-79878781D01*
X147643096Y-79824906D01*
X147508409Y-79690219D01*
X148074094Y-80255905D02*
X148639780Y-79690219D01*
X148666717Y-80848528D02*
X148747529Y-80390592D01*
X148343468Y-80525279D02*
X148909154Y-79959593D01*
X149124653Y-80175093D01*
X149151590Y-80255905D01*
X149151590Y-80309780D01*
X149124653Y-80390592D01*
X149043841Y-80471404D01*
X148963028Y-80498341D01*
X148909154Y-80498341D01*
X148828341Y-80471404D01*
X148612842Y-80255905D01*
X155801844Y-79286158D02*
X155774906Y-79205346D01*
X155694094Y-79124534D01*
X155586345Y-79070659D01*
X155478595Y-79070659D01*
X155397783Y-79097597D01*
X155263096Y-79178409D01*
X155182284Y-79259221D01*
X155101471Y-79393908D01*
X155074534Y-79474720D01*
X155074534Y-79582470D01*
X155128409Y-79690219D01*
X155182284Y-79744094D01*
X155290033Y-79797969D01*
X155343908Y-79797969D01*
X155532470Y-79609407D01*
X155424720Y-79501658D01*
X155532470Y-80094280D02*
X156098155Y-79528595D01*
X155855719Y-80417529D01*
X156421404Y-79851844D01*
X156125093Y-80686903D02*
X156690778Y-80121218D01*
X156825465Y-80255905D01*
X156879340Y-80363654D01*
X156879340Y-80471404D01*
X156852402Y-80552216D01*
X156771590Y-80686903D01*
X156690778Y-80767715D01*
X156556091Y-80848528D01*
X156475279Y-80875465D01*
X156367529Y-80875465D01*
X156259780Y-80821590D01*
X156125093Y-80686903D01*
X145641844Y-79286158D02*
X145614906Y-79205346D01*
X145534094Y-79124534D01*
X145426345Y-79070659D01*
X145318595Y-79070659D01*
X145237783Y-79097597D01*
X145103096Y-79178409D01*
X145022284Y-79259221D01*
X144941471Y-79393908D01*
X144914534Y-79474720D01*
X144914534Y-79582470D01*
X144968409Y-79690219D01*
X145022284Y-79744094D01*
X145130033Y-79797969D01*
X145183908Y-79797969D01*
X145372470Y-79609407D01*
X145264720Y-79501658D01*
X145372470Y-80094280D02*
X145938155Y-79528595D01*
X145695719Y-80417529D01*
X146261404Y-79851844D01*
X145965093Y-80686903D02*
X146530778Y-80121218D01*
X146665465Y-80255905D01*
X146719340Y-80363654D01*
X146719340Y-80471404D01*
X146692402Y-80552216D01*
X146611590Y-80686903D01*
X146530778Y-80767715D01*
X146396091Y-80848528D01*
X146315279Y-80875465D01*
X146207529Y-80875465D01*
X146099780Y-80821590D01*
X145965093Y-80686903D01*
X150721844Y-79286158D02*
X150694906Y-79205346D01*
X150614094Y-79124534D01*
X150506345Y-79070659D01*
X150398595Y-79070659D01*
X150317783Y-79097597D01*
X150183096Y-79178409D01*
X150102284Y-79259221D01*
X150021471Y-79393908D01*
X149994534Y-79474720D01*
X149994534Y-79582470D01*
X150048409Y-79690219D01*
X150102284Y-79744094D01*
X150210033Y-79797969D01*
X150263908Y-79797969D01*
X150452470Y-79609407D01*
X150344720Y-79501658D01*
X150452470Y-80094280D02*
X151018155Y-79528595D01*
X150775719Y-80417529D01*
X151341404Y-79851844D01*
X151045093Y-80686903D02*
X151610778Y-80121218D01*
X151745465Y-80255905D01*
X151799340Y-80363654D01*
X151799340Y-80471404D01*
X151772402Y-80552216D01*
X151691590Y-80686903D01*
X151610778Y-80767715D01*
X151476091Y-80848528D01*
X151395279Y-80875465D01*
X151287529Y-80875465D01*
X151179780Y-80821590D01*
X151045093Y-80686903D01*
X142105160Y-79313096D02*
X142159035Y-79420845D01*
X142293722Y-79555532D01*
X142374534Y-79582470D01*
X142428409Y-79582470D01*
X142509221Y-79555532D01*
X142563096Y-79501658D01*
X142590033Y-79420845D01*
X142590033Y-79366971D01*
X142563096Y-79286158D01*
X142482284Y-79151471D01*
X142455346Y-79070659D01*
X142455346Y-79016784D01*
X142482284Y-78935972D01*
X142536158Y-78882097D01*
X142616971Y-78855160D01*
X142670845Y-78855160D01*
X142751658Y-78882097D01*
X142886345Y-79016784D01*
X142940219Y-79124534D01*
X143128781Y-79259221D02*
X143452030Y-79582470D01*
X142724720Y-79986531D02*
X143290406Y-79420845D01*
X143371218Y-80040406D02*
X143559780Y-80228967D01*
X143344280Y-80606091D02*
X143074906Y-80336717D01*
X143640592Y-79771032D01*
X143909966Y-80040406D01*
X143586717Y-80848528D02*
X144152402Y-80282842D01*
X144367902Y-80498341D01*
X144394839Y-80579154D01*
X144394839Y-80633028D01*
X144367902Y-80713841D01*
X144287089Y-80794653D01*
X144206277Y-80821590D01*
X144152402Y-80821590D01*
X144071590Y-80794653D01*
X143856091Y-80579154D01*
X153032876Y-79542064D02*
X153221438Y-79730625D01*
X153005938Y-80107749D02*
X152736564Y-79838375D01*
X153302250Y-79272690D01*
X153571624Y-79542064D01*
X153248375Y-80350186D02*
X153814061Y-79784500D01*
X153571624Y-80673435D01*
X154137309Y-80107749D01*
X154872503Y-67880439D02*
X154926378Y-67988189D01*
X155061065Y-68122876D01*
X155141877Y-68149813D01*
X155195752Y-68149813D01*
X155276564Y-68122876D01*
X155330439Y-68069001D01*
X155357377Y-67988189D01*
X155357377Y-67934314D01*
X155330439Y-67853502D01*
X155249627Y-67718815D01*
X155222690Y-67638003D01*
X155222690Y-67584128D01*
X155249627Y-67503316D01*
X155303502Y-67449441D01*
X155384314Y-67422503D01*
X155438189Y-67422503D01*
X155519001Y-67449441D01*
X155653688Y-67584128D01*
X155707563Y-67691877D01*
X155411251Y-68473062D02*
X155976937Y-67907377D01*
X156515685Y-68500000D02*
X156488748Y-68419187D01*
X156407935Y-68338375D01*
X156300186Y-68284500D01*
X156192436Y-68284500D01*
X156111624Y-68311438D01*
X155976937Y-68392250D01*
X155896125Y-68473062D01*
X155815312Y-68607749D01*
X155788375Y-68688561D01*
X155788375Y-68796311D01*
X155842250Y-68904061D01*
X155896125Y-68957935D01*
X156003874Y-69011810D01*
X156057749Y-69011810D01*
X156246311Y-68823248D01*
X156138561Y-68715499D01*
X156731184Y-68769374D02*
X156785059Y-68769374D01*
X156865871Y-68796311D01*
X157000558Y-68930998D01*
X157027496Y-69011810D01*
X157027496Y-69065685D01*
X157000558Y-69146497D01*
X156946683Y-69200372D01*
X156838934Y-69254247D01*
X156192436Y-69254247D01*
X156542622Y-69604433D01*
X153612030Y-68082470D02*
X153342656Y-67813096D01*
X153046345Y-68055532D01*
X153100219Y-68055532D01*
X153181032Y-68082470D01*
X153315719Y-68217157D01*
X153342656Y-68297969D01*
X153342656Y-68351844D01*
X153315719Y-68432656D01*
X153181032Y-68567343D01*
X153100219Y-68594280D01*
X153046345Y-68594280D01*
X152965532Y-68567343D01*
X152830845Y-68432656D01*
X152803908Y-68351844D01*
X152803908Y-68297969D01*
X153800592Y-68271032D02*
X153423468Y-69025279D01*
X154177715Y-68648155D01*
X150721844Y-67786158D02*
X150694906Y-67705346D01*
X150614094Y-67624534D01*
X150506345Y-67570659D01*
X150398595Y-67570659D01*
X150317783Y-67597597D01*
X150183096Y-67678409D01*
X150102284Y-67759221D01*
X150021471Y-67893908D01*
X149994534Y-67974720D01*
X149994534Y-68082470D01*
X150048409Y-68190219D01*
X150102284Y-68244094D01*
X150210033Y-68297969D01*
X150263908Y-68297969D01*
X150452470Y-68109407D01*
X150344720Y-68001658D01*
X150452470Y-68594280D02*
X151018155Y-68028595D01*
X150775719Y-68917529D01*
X151341404Y-68351844D01*
X151045093Y-69186903D02*
X151610778Y-68621218D01*
X151745465Y-68755905D01*
X151799340Y-68863654D01*
X151799340Y-68971404D01*
X151772402Y-69052216D01*
X151691590Y-69186903D01*
X151610778Y-69267715D01*
X151476091Y-69348528D01*
X151395279Y-69375465D01*
X151287529Y-69375465D01*
X151179780Y-69321590D01*
X151045093Y-69186903D01*
X148181844Y-67786158D02*
X148154906Y-67705346D01*
X148074094Y-67624534D01*
X147966345Y-67570659D01*
X147858595Y-67570659D01*
X147777783Y-67597597D01*
X147643096Y-67678409D01*
X147562284Y-67759221D01*
X147481471Y-67893908D01*
X147454534Y-67974720D01*
X147454534Y-68082470D01*
X147508409Y-68190219D01*
X147562284Y-68244094D01*
X147670033Y-68297969D01*
X147723908Y-68297969D01*
X147912470Y-68109407D01*
X147804720Y-68001658D01*
X147912470Y-68594280D02*
X148478155Y-68028595D01*
X148235719Y-68917529D01*
X148801404Y-68351844D01*
X148505093Y-69186903D02*
X149070778Y-68621218D01*
X149205465Y-68755905D01*
X149259340Y-68863654D01*
X149259340Y-68971404D01*
X149232402Y-69052216D01*
X149151590Y-69186903D01*
X149070778Y-69267715D01*
X148936091Y-69348528D01*
X148855279Y-69375465D01*
X148747529Y-69375465D01*
X148639780Y-69321590D01*
X148505093Y-69186903D01*
X145992030Y-68082470D02*
X145722656Y-67813096D01*
X145426345Y-68055532D01*
X145480219Y-68055532D01*
X145561032Y-68082470D01*
X145695719Y-68217157D01*
X145722656Y-68297969D01*
X145722656Y-68351844D01*
X145695719Y-68432656D01*
X145561032Y-68567343D01*
X145480219Y-68594280D01*
X145426345Y-68594280D01*
X145345532Y-68567343D01*
X145210845Y-68432656D01*
X145183908Y-68351844D01*
X145183908Y-68297969D01*
X146180592Y-68271032D02*
X145803468Y-69025279D01*
X146557715Y-68648155D01*
X142172503Y-67880439D02*
X142226378Y-67988189D01*
X142361065Y-68122876D01*
X142441877Y-68149813D01*
X142495752Y-68149813D01*
X142576564Y-68122876D01*
X142630439Y-68069001D01*
X142657377Y-67988189D01*
X142657377Y-67934314D01*
X142630439Y-67853502D01*
X142549627Y-67718815D01*
X142522690Y-67638003D01*
X142522690Y-67584128D01*
X142549627Y-67503316D01*
X142603502Y-67449441D01*
X142684314Y-67422503D01*
X142738189Y-67422503D01*
X142819001Y-67449441D01*
X142953688Y-67584128D01*
X143007563Y-67691877D01*
X142711251Y-68473062D02*
X143276937Y-67907377D01*
X143815685Y-68500000D02*
X143788748Y-68419187D01*
X143707935Y-68338375D01*
X143600186Y-68284500D01*
X143492436Y-68284500D01*
X143411624Y-68311438D01*
X143276937Y-68392250D01*
X143196125Y-68473062D01*
X143115312Y-68607749D01*
X143088375Y-68688561D01*
X143088375Y-68796311D01*
X143142250Y-68904061D01*
X143196125Y-68957935D01*
X143303874Y-69011810D01*
X143357749Y-69011810D01*
X143546311Y-68823248D01*
X143438561Y-68715499D01*
X143842622Y-69604433D02*
X143519374Y-69281184D01*
X143680998Y-69442809D02*
X144246683Y-68877123D01*
X144111996Y-68904061D01*
X144004247Y-68904061D01*
X143923435Y-68877123D01*
X155442857Y-102985714D02*
X155442857Y-103252380D01*
X155861904Y-103252380D02*
X155061904Y-103252380D01*
X155061904Y-102871428D01*
X155861904Y-102109523D02*
X155480952Y-102376190D01*
X155861904Y-102566666D02*
X155061904Y-102566666D01*
X155061904Y-102261904D01*
X155100000Y-102185714D01*
X155138095Y-102147619D01*
X155214285Y-102109523D01*
X155328571Y-102109523D01*
X155404761Y-102147619D01*
X155442857Y-102185714D01*
X155480952Y-102261904D01*
X155480952Y-102566666D01*
X155442857Y-101766666D02*
X155442857Y-101500000D01*
X155861904Y-101385714D02*
X155861904Y-101766666D01*
X155061904Y-101766666D01*
X155061904Y-101385714D01*
X155861904Y-101042857D02*
X155061904Y-101042857D01*
X155861904Y-100585714D01*
X155061904Y-100585714D01*
X155061904Y-100052380D02*
X155061904Y-99900000D01*
X155100000Y-99823809D01*
X155176190Y-99747619D01*
X155328571Y-99709523D01*
X155595238Y-99709523D01*
X155747619Y-99747619D01*
X155823809Y-99823809D01*
X155861904Y-99900000D01*
X155861904Y-100052380D01*
X155823809Y-100128571D01*
X155747619Y-100204761D01*
X155595238Y-100242857D01*
X155328571Y-100242857D01*
X155176190Y-100204761D01*
X155100000Y-100128571D01*
X155061904Y-100052380D01*
X158050000Y-108111904D02*
X158050000Y-107311904D01*
X158354761Y-107311904D01*
X158430952Y-107350000D01*
X158469047Y-107388095D01*
X158507142Y-107464285D01*
X158507142Y-107578571D01*
X158469047Y-107654761D01*
X158430952Y-107692857D01*
X158354761Y-107730952D01*
X158050000Y-107730952D01*
X158964285Y-108111904D02*
X158888095Y-108073809D01*
X158850000Y-107997619D01*
X158850000Y-107311904D01*
X159611904Y-108111904D02*
X159611904Y-107692857D01*
X159573809Y-107616666D01*
X159497619Y-107578571D01*
X159345238Y-107578571D01*
X159269047Y-107616666D01*
X159611904Y-108073809D02*
X159535714Y-108111904D01*
X159345238Y-108111904D01*
X159269047Y-108073809D01*
X159230952Y-107997619D01*
X159230952Y-107921428D01*
X159269047Y-107845238D01*
X159345238Y-107807142D01*
X159535714Y-107807142D01*
X159611904Y-107769047D01*
X160335714Y-108073809D02*
X160259523Y-108111904D01*
X160107142Y-108111904D01*
X160030952Y-108073809D01*
X159992857Y-108035714D01*
X159954761Y-107959523D01*
X159954761Y-107730952D01*
X159992857Y-107654761D01*
X160030952Y-107616666D01*
X160107142Y-107578571D01*
X160259523Y-107578571D01*
X160335714Y-107616666D01*
X161021428Y-108111904D02*
X161021428Y-107692857D01*
X160983333Y-107616666D01*
X160907142Y-107578571D01*
X160754761Y-107578571D01*
X160678571Y-107616666D01*
X161021428Y-108073809D02*
X160945238Y-108111904D01*
X160754761Y-108111904D01*
X160678571Y-108073809D01*
X160640476Y-107997619D01*
X160640476Y-107921428D01*
X160678571Y-107845238D01*
X160754761Y-107807142D01*
X160945238Y-107807142D01*
X161021428Y-107769047D01*
X161364285Y-108073809D02*
X161478571Y-108111904D01*
X161669047Y-108111904D01*
X161745238Y-108073809D01*
X161783333Y-108035714D01*
X161821428Y-107959523D01*
X161821428Y-107883333D01*
X161783333Y-107807142D01*
X161745238Y-107769047D01*
X161669047Y-107730952D01*
X161516666Y-107692857D01*
X161440476Y-107654761D01*
X161402380Y-107616666D01*
X161364285Y-107540476D01*
X161364285Y-107464285D01*
X161402380Y-107388095D01*
X161440476Y-107350000D01*
X161516666Y-107311904D01*
X161707142Y-107311904D01*
X161821428Y-107350000D01*
X162050000Y-107578571D02*
X162354761Y-107578571D01*
X162164285Y-107311904D02*
X162164285Y-107997619D01*
X162202380Y-108073809D01*
X162278571Y-108111904D01*
X162354761Y-108111904D01*
X162926190Y-108073809D02*
X162850000Y-108111904D01*
X162697619Y-108111904D01*
X162621428Y-108073809D01*
X162583333Y-107997619D01*
X162583333Y-107692857D01*
X162621428Y-107616666D01*
X162697619Y-107578571D01*
X162850000Y-107578571D01*
X162926190Y-107616666D01*
X162964285Y-107692857D01*
X162964285Y-107769047D01*
X162583333Y-107845238D01*
X163307142Y-107578571D02*
X163307142Y-108378571D01*
X163307142Y-107616666D02*
X163383333Y-107578571D01*
X163535714Y-107578571D01*
X163611904Y-107616666D01*
X163650000Y-107654761D01*
X163688095Y-107730952D01*
X163688095Y-107959523D01*
X163650000Y-108035714D01*
X163611904Y-108073809D01*
X163535714Y-108111904D01*
X163383333Y-108111904D01*
X163307142Y-108073809D01*
X164030952Y-107578571D02*
X164030952Y-108378571D01*
X164030952Y-107616666D02*
X164107142Y-107578571D01*
X164259523Y-107578571D01*
X164335714Y-107616666D01*
X164373809Y-107654761D01*
X164411904Y-107730952D01*
X164411904Y-107959523D01*
X164373809Y-108035714D01*
X164335714Y-108073809D01*
X164259523Y-108111904D01*
X164107142Y-108111904D01*
X164030952Y-108073809D01*
X165059523Y-108073809D02*
X164983333Y-108111904D01*
X164830952Y-108111904D01*
X164754761Y-108073809D01*
X164716666Y-107997619D01*
X164716666Y-107692857D01*
X164754761Y-107616666D01*
X164830952Y-107578571D01*
X164983333Y-107578571D01*
X165059523Y-107616666D01*
X165097619Y-107692857D01*
X165097619Y-107769047D01*
X164716666Y-107845238D01*
X165440476Y-108111904D02*
X165440476Y-107578571D01*
X165440476Y-107730952D02*
X165478571Y-107654761D01*
X165516666Y-107616666D01*
X165592857Y-107578571D01*
X165669047Y-107578571D01*
X165897619Y-108073809D02*
X166011904Y-108111904D01*
X166202380Y-108111904D01*
X166278571Y-108073809D01*
X166316666Y-108035714D01*
X166354761Y-107959523D01*
X166354761Y-107883333D01*
X166316666Y-107807142D01*
X166278571Y-107769047D01*
X166202380Y-107730952D01*
X166050000Y-107692857D01*
X165973809Y-107654761D01*
X165935714Y-107616666D01*
X165897619Y-107540476D01*
X165897619Y-107464285D01*
X165935714Y-107388095D01*
X165973809Y-107350000D01*
X166050000Y-107311904D01*
X166240476Y-107311904D01*
X166354761Y-107350000D01*
X166697619Y-108111904D02*
X166697619Y-107311904D01*
X167040476Y-108111904D02*
X167040476Y-107692857D01*
X167002380Y-107616666D01*
X166926190Y-107578571D01*
X166811904Y-107578571D01*
X166735714Y-107616666D01*
X166697619Y-107654761D01*
X167421428Y-108111904D02*
X167421428Y-107578571D01*
X167421428Y-107311904D02*
X167383333Y-107350000D01*
X167421428Y-107388095D01*
X167459523Y-107350000D01*
X167421428Y-107311904D01*
X167421428Y-107388095D01*
X168107142Y-108073809D02*
X168030952Y-108111904D01*
X167878571Y-108111904D01*
X167802380Y-108073809D01*
X167764285Y-107997619D01*
X167764285Y-107692857D01*
X167802380Y-107616666D01*
X167878571Y-107578571D01*
X168030952Y-107578571D01*
X168107142Y-107616666D01*
X168145238Y-107692857D01*
X168145238Y-107769047D01*
X167764285Y-107845238D01*
X168602380Y-108111904D02*
X168526190Y-108073809D01*
X168488095Y-107997619D01*
X168488095Y-107311904D01*
X169250000Y-108111904D02*
X169250000Y-107311904D01*
X169250000Y-108073809D02*
X169173809Y-108111904D01*
X169021428Y-108111904D01*
X168945238Y-108073809D01*
X168907142Y-108035714D01*
X168869047Y-107959523D01*
X168869047Y-107730952D01*
X168907142Y-107654761D01*
X168945238Y-107616666D01*
X169021428Y-107578571D01*
X169173809Y-107578571D01*
X169250000Y-107616666D01*
X170126190Y-107311904D02*
X170392857Y-108111904D01*
X170659523Y-107311904D01*
X171078571Y-107311904D02*
X171154761Y-107311904D01*
X171230952Y-107350000D01*
X171269047Y-107388095D01*
X171307142Y-107464285D01*
X171345238Y-107616666D01*
X171345238Y-107807142D01*
X171307142Y-107959523D01*
X171269047Y-108035714D01*
X171230952Y-108073809D01*
X171154761Y-108111904D01*
X171078571Y-108111904D01*
X171002380Y-108073809D01*
X170964285Y-108035714D01*
X170926190Y-107959523D01*
X170888095Y-107807142D01*
X170888095Y-107616666D01*
X170926190Y-107464285D01*
X170964285Y-107388095D01*
X171002380Y-107350000D01*
X171078571Y-107311904D01*
X171688095Y-108035714D02*
X171726190Y-108073809D01*
X171688095Y-108111904D01*
X171650000Y-108073809D01*
X171688095Y-108035714D01*
X171688095Y-108111904D01*
X172488095Y-108111904D02*
X172030952Y-108111904D01*
X172259523Y-108111904D02*
X172259523Y-107311904D01*
X172183333Y-107426190D01*
X172107142Y-107502380D01*
X172030952Y-107540476D01*
D11*
G36*
X163907422Y-65616828D02*
G01*
X163939548Y-65516411D01*
X163972365Y-65455358D01*
X164020017Y-65397955D01*
X164085227Y-65342525D01*
X164160378Y-65294380D01*
X164237848Y-65258832D01*
X164267906Y-65249296D01*
X164373378Y-65233339D01*
X164478346Y-65240958D01*
X164579132Y-65270527D01*
X164672061Y-65320422D01*
X164753458Y-65389016D01*
X164819646Y-65474685D01*
X164833921Y-65499575D01*
X164854729Y-65540770D01*
X164867854Y-65575676D01*
X164875343Y-65613079D01*
X164879242Y-65661766D01*
X164880725Y-65700500D01*
X164880940Y-65775155D01*
X164875772Y-65831478D01*
X164864592Y-65876087D01*
X164863826Y-65878232D01*
X164819868Y-65966522D01*
X164756213Y-66049504D01*
X164678553Y-66121077D01*
X164592578Y-66175138D01*
X164582418Y-66179955D01*
X164494270Y-66208405D01*
X164397182Y-66219807D01*
X164301585Y-66213390D01*
X164259438Y-66203798D01*
X164187955Y-66175119D01*
X164114149Y-66132219D01*
X164046692Y-66080996D01*
X163994258Y-66027345D01*
X163988110Y-66019297D01*
X163936840Y-65928613D01*
X163906208Y-65827955D01*
X163896356Y-65722352D01*
X163907422Y-65616828D01*
G37*
X163907422Y-65616828D02*
X163939548Y-65516411D01*
X163972365Y-65455358D01*
X164020017Y-65397955D01*
X164085227Y-65342525D01*
X164160378Y-65294380D01*
X164237848Y-65258832D01*
X164267906Y-65249296D01*
X164373378Y-65233339D01*
X164478346Y-65240958D01*
X164579132Y-65270527D01*
X164672061Y-65320422D01*
X164753458Y-65389016D01*
X164819646Y-65474685D01*
X164833921Y-65499575D01*
X164854729Y-65540770D01*
X164867854Y-65575676D01*
X164875343Y-65613079D01*
X164879242Y-65661766D01*
X164880725Y-65700500D01*
X164880940Y-65775155D01*
X164875772Y-65831478D01*
X164864592Y-65876087D01*
X164863826Y-65878232D01*
X164819868Y-65966522D01*
X164756213Y-66049504D01*
X164678553Y-66121077D01*
X164592578Y-66175138D01*
X164582418Y-66179955D01*
X164494270Y-66208405D01*
X164397182Y-66219807D01*
X164301585Y-66213390D01*
X164259438Y-66203798D01*
X164187955Y-66175119D01*
X164114149Y-66132219D01*
X164046692Y-66080996D01*
X163994258Y-66027345D01*
X163988110Y-66019297D01*
X163936840Y-65928613D01*
X163906208Y-65827955D01*
X163896356Y-65722352D01*
X163907422Y-65616828D01*
G36*
X162083899Y-70978849D02*
G01*
X162108978Y-70800397D01*
X162157105Y-70625434D01*
X162228271Y-70456303D01*
X162309433Y-70314945D01*
X162423202Y-70162388D01*
X162552625Y-70028059D01*
X162695922Y-69913279D01*
X162851313Y-69819372D01*
X163017017Y-69747659D01*
X163113556Y-69717712D01*
X163159861Y-69705812D01*
X163200487Y-69697065D01*
X163240770Y-69690988D01*
X163286043Y-69687093D01*
X163341641Y-69684894D01*
X163412899Y-69683906D01*
X163487300Y-69683657D01*
X163575413Y-69683810D01*
X163643396Y-69684805D01*
X163696513Y-69687110D01*
X163740032Y-69691190D01*
X163779216Y-69697513D01*
X163819334Y-69706546D01*
X163857118Y-69716437D01*
X164025511Y-69774661D01*
X164186480Y-69855125D01*
X164337081Y-69955441D01*
X164474365Y-70073221D01*
X164595386Y-70206074D01*
X164697198Y-70351613D01*
X164743220Y-70434775D01*
X164807320Y-70585757D01*
X164854822Y-70748737D01*
X164884822Y-70917736D01*
X164896416Y-71086776D01*
X164888697Y-71249878D01*
X164877861Y-71324335D01*
X164832184Y-71506098D01*
X164762955Y-71680678D01*
X164671632Y-71845330D01*
X164559671Y-71997309D01*
X164467871Y-72096586D01*
X164396646Y-72160828D01*
X164313252Y-72226642D01*
X164224793Y-72289047D01*
X164138371Y-72343062D01*
X164061090Y-72383705D01*
X164053768Y-72387006D01*
X163894275Y-72444563D01*
X163724817Y-72481889D01*
X163549687Y-72499066D01*
X163487300Y-72498045D01*
X163487300Y-71535873D01*
X163545807Y-71534614D01*
X163589506Y-71529393D01*
X163628923Y-71518045D01*
X163674586Y-71498404D01*
X163678584Y-71496523D01*
X163774993Y-71437958D01*
X163856022Y-71361973D01*
X163918761Y-71272039D01*
X163960302Y-71171626D01*
X163964705Y-71155150D01*
X163977133Y-71095957D01*
X163980753Y-71046332D01*
X163975900Y-70993077D01*
X163969710Y-70957303D01*
X163937955Y-70856166D01*
X163884048Y-70765165D01*
X163810107Y-70686936D01*
X163718250Y-70624117D01*
X163691284Y-70610439D01*
X163648399Y-70591353D01*
X163612253Y-70579610D01*
X163573853Y-70573468D01*
X163524211Y-70571189D01*
X163487300Y-70570950D01*
X163428308Y-70571677D01*
X163385872Y-70575080D01*
X163351159Y-70582994D01*
X163315340Y-70597253D01*
X163281434Y-70613718D01*
X163195792Y-70667486D01*
X163121113Y-70735451D01*
X163062560Y-70812210D01*
X163030991Y-70875800D01*
X163016805Y-70918162D01*
X163008756Y-70957667D01*
X163005749Y-71003318D01*
X163006690Y-71064119D01*
X163007022Y-71073024D01*
X163010813Y-71137324D01*
X163017525Y-71185059D01*
X163028966Y-71225041D01*
X163046467Y-71265105D01*
X163097060Y-71342876D01*
X163167602Y-71414159D01*
X163252685Y-71473919D01*
X163293963Y-71495563D01*
X163341320Y-71516357D01*
X163380987Y-71528529D01*
X163423576Y-71534293D01*
X163479703Y-71535862D01*
X163487300Y-71535873D01*
X163487300Y-72498045D01*
X163373177Y-72496175D01*
X163199578Y-72473299D01*
X163033181Y-72430519D01*
X162878280Y-72367917D01*
X162871350Y-72364486D01*
X162715011Y-72272208D01*
X162570549Y-72157510D01*
X162438045Y-72020470D01*
X162317585Y-71861164D01*
X162304486Y-71841387D01*
X162214213Y-71680656D01*
X162147025Y-71511692D01*
X162102915Y-71336840D01*
X162081876Y-71158444D01*
X162083899Y-70978849D01*
G37*
X162083899Y-70978849D02*
X162108978Y-70800397D01*
X162157105Y-70625434D01*
X162228271Y-70456303D01*
X162309433Y-70314945D01*
X162423202Y-70162388D01*
X162552625Y-70028059D01*
X162695922Y-69913279D01*
X162851313Y-69819372D01*
X163017017Y-69747659D01*
X163113556Y-69717712D01*
X163159861Y-69705812D01*
X163200487Y-69697065D01*
X163240770Y-69690988D01*
X163286043Y-69687093D01*
X163341641Y-69684894D01*
X163412899Y-69683906D01*
X163487300Y-69683657D01*
X163575413Y-69683810D01*
X163643396Y-69684805D01*
X163696513Y-69687110D01*
X163740032Y-69691190D01*
X163779216Y-69697513D01*
X163819334Y-69706546D01*
X163857118Y-69716437D01*
X164025511Y-69774661D01*
X164186480Y-69855125D01*
X164337081Y-69955441D01*
X164474365Y-70073221D01*
X164595386Y-70206074D01*
X164697198Y-70351613D01*
X164743220Y-70434775D01*
X164807320Y-70585757D01*
X164854822Y-70748737D01*
X164884822Y-70917736D01*
X164896416Y-71086776D01*
X164888697Y-71249878D01*
X164877861Y-71324335D01*
X164832184Y-71506098D01*
X164762955Y-71680678D01*
X164671632Y-71845330D01*
X164559671Y-71997309D01*
X164467871Y-72096586D01*
X164396646Y-72160828D01*
X164313252Y-72226642D01*
X164224793Y-72289047D01*
X164138371Y-72343062D01*
X164061090Y-72383705D01*
X164053768Y-72387006D01*
X163894275Y-72444563D01*
X163724817Y-72481889D01*
X163549687Y-72499066D01*
X163487300Y-72498045D01*
X163487300Y-71535873D01*
X163545807Y-71534614D01*
X163589506Y-71529393D01*
X163628923Y-71518045D01*
X163674586Y-71498404D01*
X163678584Y-71496523D01*
X163774993Y-71437958D01*
X163856022Y-71361973D01*
X163918761Y-71272039D01*
X163960302Y-71171626D01*
X163964705Y-71155150D01*
X163977133Y-71095957D01*
X163980753Y-71046332D01*
X163975900Y-70993077D01*
X163969710Y-70957303D01*
X163937955Y-70856166D01*
X163884048Y-70765165D01*
X163810107Y-70686936D01*
X163718250Y-70624117D01*
X163691284Y-70610439D01*
X163648399Y-70591353D01*
X163612253Y-70579610D01*
X163573853Y-70573468D01*
X163524211Y-70571189D01*
X163487300Y-70570950D01*
X163428308Y-70571677D01*
X163385872Y-70575080D01*
X163351159Y-70582994D01*
X163315340Y-70597253D01*
X163281434Y-70613718D01*
X163195792Y-70667486D01*
X163121113Y-70735451D01*
X163062560Y-70812210D01*
X163030991Y-70875800D01*
X163016805Y-70918162D01*
X163008756Y-70957667D01*
X163005749Y-71003318D01*
X163006690Y-71064119D01*
X163007022Y-71073024D01*
X163010813Y-71137324D01*
X163017525Y-71185059D01*
X163028966Y-71225041D01*
X163046467Y-71265105D01*
X163097060Y-71342876D01*
X163167602Y-71414159D01*
X163252685Y-71473919D01*
X163293963Y-71495563D01*
X163341320Y-71516357D01*
X163380987Y-71528529D01*
X163423576Y-71534293D01*
X163479703Y-71535862D01*
X163487300Y-71535873D01*
X163487300Y-72498045D01*
X163373177Y-72496175D01*
X163199578Y-72473299D01*
X163033181Y-72430519D01*
X162878280Y-72367917D01*
X162871350Y-72364486D01*
X162715011Y-72272208D01*
X162570549Y-72157510D01*
X162438045Y-72020470D01*
X162317585Y-71861164D01*
X162304486Y-71841387D01*
X162214213Y-71680656D01*
X162147025Y-71511692D01*
X162102915Y-71336840D01*
X162081876Y-71158444D01*
X162083899Y-70978849D01*
G36*
X162091715Y-73998464D02*
G01*
X162123078Y-73825159D01*
X162174384Y-73660296D01*
X162223611Y-73549100D01*
X162291783Y-73431514D01*
X162376850Y-73311795D01*
X162472502Y-73198146D01*
X162564859Y-73105602D01*
X162704920Y-72994909D01*
X162858327Y-72905089D01*
X163023228Y-72836663D01*
X163197771Y-72790154D01*
X163380105Y-72766083D01*
X163568377Y-72764971D01*
X163719094Y-72780518D01*
X163896163Y-72819764D01*
X164065139Y-72881963D01*
X164223989Y-72965402D01*
X164370680Y-73068367D01*
X164503180Y-73189147D01*
X164619455Y-73326027D01*
X164717474Y-73477294D01*
X164795202Y-73641235D01*
X164819467Y-73707906D01*
X164864242Y-73875030D01*
X164889917Y-74048023D01*
X164895974Y-74220471D01*
X164881894Y-74385954D01*
X164876720Y-74417079D01*
X164831424Y-74597592D01*
X164763023Y-74769904D01*
X164673049Y-74931991D01*
X164563035Y-75081831D01*
X164434512Y-75217401D01*
X164289013Y-75336676D01*
X164128070Y-75437636D01*
X164087861Y-75458641D01*
X163941592Y-75519042D01*
X163782246Y-75561057D01*
X163614440Y-75584525D01*
X163508460Y-75587463D01*
X163508460Y-74626697D01*
X163610438Y-74610007D01*
X163709240Y-74569967D01*
X163802012Y-74506440D01*
X163814572Y-74495470D01*
X163867521Y-74437177D01*
X163915260Y-74365249D01*
X163952043Y-74289439D01*
X163969845Y-74231953D01*
X163977241Y-74153290D01*
X163970697Y-74065960D01*
X163951559Y-73981579D01*
X163935965Y-73940210D01*
X163895614Y-73872931D01*
X163837592Y-73805811D01*
X163768771Y-73745558D01*
X163696019Y-73698878D01*
X163681371Y-73691654D01*
X163639862Y-73674202D01*
X163601611Y-73663804D01*
X163557253Y-73658748D01*
X163497422Y-73657321D01*
X163493650Y-73657313D01*
X163434706Y-73658241D01*
X163391393Y-73662497D01*
X163353976Y-73672045D01*
X163312721Y-73688845D01*
X163293963Y-73697563D01*
X163203652Y-73750947D01*
X163125636Y-73818209D01*
X163065287Y-73894345D01*
X163046129Y-73928519D01*
X163030348Y-73962964D01*
X163020141Y-73993843D01*
X163014316Y-74028325D01*
X163011683Y-74073581D01*
X163011050Y-74136781D01*
X163011050Y-74139650D01*
X163013775Y-74225372D01*
X163023585Y-74293016D01*
X163042929Y-74349478D01*
X163074257Y-74401655D01*
X163120018Y-74456441D01*
X163125799Y-74462668D01*
X163211974Y-74538022D01*
X163306376Y-74590569D01*
X163406155Y-74620173D01*
X163508460Y-74626697D01*
X163508460Y-75587463D01*
X163442791Y-75589284D01*
X163271914Y-75575173D01*
X163106427Y-75542031D01*
X162970652Y-75497679D01*
X162816308Y-75423631D01*
X162670365Y-75327668D01*
X162535228Y-75212558D01*
X162413297Y-75081067D01*
X162306975Y-74935963D01*
X162218666Y-74780012D01*
X162150771Y-74615980D01*
X162122322Y-74520691D01*
X162090833Y-74351065D01*
X162080798Y-74175378D01*
X162091715Y-73998464D01*
G37*
X162091715Y-73998464D02*
X162123078Y-73825159D01*
X162174384Y-73660296D01*
X162223611Y-73549100D01*
X162291783Y-73431514D01*
X162376850Y-73311795D01*
X162472502Y-73198146D01*
X162564859Y-73105602D01*
X162704920Y-72994909D01*
X162858327Y-72905089D01*
X163023228Y-72836663D01*
X163197771Y-72790154D01*
X163380105Y-72766083D01*
X163568377Y-72764971D01*
X163719094Y-72780518D01*
X163896163Y-72819764D01*
X164065139Y-72881963D01*
X164223989Y-72965402D01*
X164370680Y-73068367D01*
X164503180Y-73189147D01*
X164619455Y-73326027D01*
X164717474Y-73477294D01*
X164795202Y-73641235D01*
X164819467Y-73707906D01*
X164864242Y-73875030D01*
X164889917Y-74048023D01*
X164895974Y-74220471D01*
X164881894Y-74385954D01*
X164876720Y-74417079D01*
X164831424Y-74597592D01*
X164763023Y-74769904D01*
X164673049Y-74931991D01*
X164563035Y-75081831D01*
X164434512Y-75217401D01*
X164289013Y-75336676D01*
X164128070Y-75437636D01*
X164087861Y-75458641D01*
X163941592Y-75519042D01*
X163782246Y-75561057D01*
X163614440Y-75584525D01*
X163508460Y-75587463D01*
X163508460Y-74626697D01*
X163610438Y-74610007D01*
X163709240Y-74569967D01*
X163802012Y-74506440D01*
X163814572Y-74495470D01*
X163867521Y-74437177D01*
X163915260Y-74365249D01*
X163952043Y-74289439D01*
X163969845Y-74231953D01*
X163977241Y-74153290D01*
X163970697Y-74065960D01*
X163951559Y-73981579D01*
X163935965Y-73940210D01*
X163895614Y-73872931D01*
X163837592Y-73805811D01*
X163768771Y-73745558D01*
X163696019Y-73698878D01*
X163681371Y-73691654D01*
X163639862Y-73674202D01*
X163601611Y-73663804D01*
X163557253Y-73658748D01*
X163497422Y-73657321D01*
X163493650Y-73657313D01*
X163434706Y-73658241D01*
X163391393Y-73662497D01*
X163353976Y-73672045D01*
X163312721Y-73688845D01*
X163293963Y-73697563D01*
X163203652Y-73750947D01*
X163125636Y-73818209D01*
X163065287Y-73894345D01*
X163046129Y-73928519D01*
X163030348Y-73962964D01*
X163020141Y-73993843D01*
X163014316Y-74028325D01*
X163011683Y-74073581D01*
X163011050Y-74136781D01*
X163011050Y-74139650D01*
X163013775Y-74225372D01*
X163023585Y-74293016D01*
X163042929Y-74349478D01*
X163074257Y-74401655D01*
X163120018Y-74456441D01*
X163125799Y-74462668D01*
X163211974Y-74538022D01*
X163306376Y-74590569D01*
X163406155Y-74620173D01*
X163508460Y-74626697D01*
X163508460Y-75587463D01*
X163442791Y-75589284D01*
X163271914Y-75575173D01*
X163106427Y-75542031D01*
X162970652Y-75497679D01*
X162816308Y-75423631D01*
X162670365Y-75327668D01*
X162535228Y-75212558D01*
X162413297Y-75081067D01*
X162306975Y-74935963D01*
X162218666Y-74780012D01*
X162150771Y-74615980D01*
X162122322Y-74520691D01*
X162090833Y-74351065D01*
X162080798Y-74175378D01*
X162091715Y-73998464D01*
G36*
X160769384Y-66971523D02*
G01*
X160783537Y-66878946D01*
X160804020Y-66807227D01*
X160833354Y-66752110D01*
X160874062Y-66709340D01*
X160928666Y-66674661D01*
X160951968Y-66663447D01*
X161017150Y-66633950D01*
X164649350Y-66633950D01*
X164722758Y-66669997D01*
X164770412Y-66696943D01*
X164803314Y-66726484D01*
X164831301Y-66767576D01*
X164832767Y-66770129D01*
X164861000Y-66836065D01*
X164882716Y-66920284D01*
X164897049Y-67016304D01*
X164903135Y-67117644D01*
X164900109Y-67217823D01*
X164896855Y-67250438D01*
X164886753Y-67305862D01*
X164871141Y-67361569D01*
X164858642Y-67393661D01*
X164826614Y-67445202D01*
X164783560Y-67492514D01*
X164736381Y-67529172D01*
X164692063Y-67548732D01*
X164655205Y-67556827D01*
X164719011Y-67637013D01*
X164795870Y-67752145D01*
X164850772Y-67877420D01*
X164884257Y-68014491D01*
X164896864Y-68165013D01*
X164897000Y-68183350D01*
X164884478Y-68346292D01*
X164847176Y-68505051D01*
X164785486Y-68658833D01*
X164699798Y-68806845D01*
X164590507Y-68948292D01*
X164458002Y-69082382D01*
X164448900Y-69090553D01*
X164294461Y-69212499D01*
X164131321Y-69310653D01*
X163959100Y-69385222D01*
X163842566Y-69421022D01*
X163758810Y-69437760D01*
X163658394Y-69449821D01*
X163549695Y-69456809D01*
X163487194Y-69457682D01*
X163487194Y-68488150D01*
X163546636Y-68487392D01*
X163589533Y-68483925D01*
X163624725Y-68475964D01*
X163661050Y-68461720D01*
X163692873Y-68446569D01*
X163780675Y-68390968D01*
X163856761Y-68318326D01*
X163917169Y-68233628D01*
X163957939Y-68141858D01*
X163968914Y-68099127D01*
X163978994Y-68031644D01*
X163978891Y-67973082D01*
X163968350Y-67908985D01*
X163965321Y-67895728D01*
X163929046Y-67795597D01*
X163870663Y-67706839D01*
X163791476Y-67630973D01*
X163692787Y-67569515D01*
X163680081Y-67563362D01*
X163631219Y-67542079D01*
X163590430Y-67530074D01*
X163546229Y-67524934D01*
X163493650Y-67524184D01*
X163388423Y-67534168D01*
X163294699Y-67563942D01*
X163205487Y-67615887D01*
X163189415Y-67627740D01*
X163111693Y-67697760D01*
X163056420Y-67774167D01*
X163022055Y-67860412D01*
X163007058Y-67959945D01*
X163007091Y-68036052D01*
X163023399Y-68147060D01*
X163060988Y-68244333D01*
X163120077Y-68328199D01*
X163200887Y-68398985D01*
X163283193Y-68447343D01*
X163325140Y-68466875D01*
X163360021Y-68478961D01*
X163396619Y-68485358D01*
X163443721Y-68487823D01*
X163487194Y-68488150D01*
X163487194Y-69457682D01*
X163441091Y-69458326D01*
X163340960Y-69453973D01*
X163282956Y-69447599D01*
X163105623Y-69409682D01*
X162937010Y-69348835D01*
X162776238Y-69264587D01*
X162622428Y-69156466D01*
X162474704Y-69024000D01*
X162452607Y-69001580D01*
X162335609Y-68869220D01*
X162242743Y-68737246D01*
X162172904Y-68603161D01*
X162124987Y-68464467D01*
X162097890Y-68318665D01*
X162090388Y-68182207D01*
X162097559Y-68043702D01*
X162120130Y-67922574D01*
X162159409Y-67815070D01*
X162216707Y-67717435D01*
X162278992Y-67641087D01*
X162347035Y-67567400D01*
X161692094Y-67567400D01*
X161546173Y-67567373D01*
X161423373Y-67567232D01*
X161321415Y-67566894D01*
X161238021Y-67566272D01*
X161170911Y-67565281D01*
X161117807Y-67563836D01*
X161076430Y-67561851D01*
X161044501Y-67559240D01*
X161019741Y-67555918D01*
X160999871Y-67551800D01*
X160982613Y-67546801D01*
X160965688Y-67540834D01*
X160963651Y-67540078D01*
X160915906Y-67517765D01*
X160871977Y-67489692D01*
X160850896Y-67471467D01*
X160817188Y-67420814D01*
X160790846Y-67349805D01*
X160772547Y-67262588D01*
X160762967Y-67163309D01*
X160762782Y-67056116D01*
X160769384Y-66971523D01*
G37*
X160769384Y-66971523D02*
X160783537Y-66878946D01*
X160804020Y-66807227D01*
X160833354Y-66752110D01*
X160874062Y-66709340D01*
X160928666Y-66674661D01*
X160951968Y-66663447D01*
X161017150Y-66633950D01*
X164649350Y-66633950D01*
X164722758Y-66669997D01*
X164770412Y-66696943D01*
X164803314Y-66726484D01*
X164831301Y-66767576D01*
X164832767Y-66770129D01*
X164861000Y-66836065D01*
X164882716Y-66920284D01*
X164897049Y-67016304D01*
X164903135Y-67117644D01*
X164900109Y-67217823D01*
X164896855Y-67250438D01*
X164886753Y-67305862D01*
X164871141Y-67361569D01*
X164858642Y-67393661D01*
X164826614Y-67445202D01*
X164783560Y-67492514D01*
X164736381Y-67529172D01*
X164692063Y-67548732D01*
X164655205Y-67556827D01*
X164719011Y-67637013D01*
X164795870Y-67752145D01*
X164850772Y-67877420D01*
X164884257Y-68014491D01*
X164896864Y-68165013D01*
X164897000Y-68183350D01*
X164884478Y-68346292D01*
X164847176Y-68505051D01*
X164785486Y-68658833D01*
X164699798Y-68806845D01*
X164590507Y-68948292D01*
X164458002Y-69082382D01*
X164448900Y-69090553D01*
X164294461Y-69212499D01*
X164131321Y-69310653D01*
X163959100Y-69385222D01*
X163842566Y-69421022D01*
X163758810Y-69437760D01*
X163658394Y-69449821D01*
X163549695Y-69456809D01*
X163487194Y-69457682D01*
X163487194Y-68488150D01*
X163546636Y-68487392D01*
X163589533Y-68483925D01*
X163624725Y-68475964D01*
X163661050Y-68461720D01*
X163692873Y-68446569D01*
X163780675Y-68390968D01*
X163856761Y-68318326D01*
X163917169Y-68233628D01*
X163957939Y-68141858D01*
X163968914Y-68099127D01*
X163978994Y-68031644D01*
X163978891Y-67973082D01*
X163968350Y-67908985D01*
X163965321Y-67895728D01*
X163929046Y-67795597D01*
X163870663Y-67706839D01*
X163791476Y-67630973D01*
X163692787Y-67569515D01*
X163680081Y-67563362D01*
X163631219Y-67542079D01*
X163590430Y-67530074D01*
X163546229Y-67524934D01*
X163493650Y-67524184D01*
X163388423Y-67534168D01*
X163294699Y-67563942D01*
X163205487Y-67615887D01*
X163189415Y-67627740D01*
X163111693Y-67697760D01*
X163056420Y-67774167D01*
X163022055Y-67860412D01*
X163007058Y-67959945D01*
X163007091Y-68036052D01*
X163023399Y-68147060D01*
X163060988Y-68244333D01*
X163120077Y-68328199D01*
X163200887Y-68398985D01*
X163283193Y-68447343D01*
X163325140Y-68466875D01*
X163360021Y-68478961D01*
X163396619Y-68485358D01*
X163443721Y-68487823D01*
X163487194Y-68488150D01*
X163487194Y-69457682D01*
X163441091Y-69458326D01*
X163340960Y-69453973D01*
X163282956Y-69447599D01*
X163105623Y-69409682D01*
X162937010Y-69348835D01*
X162776238Y-69264587D01*
X162622428Y-69156466D01*
X162474704Y-69024000D01*
X162452607Y-69001580D01*
X162335609Y-68869220D01*
X162242743Y-68737246D01*
X162172904Y-68603161D01*
X162124987Y-68464467D01*
X162097890Y-68318665D01*
X162090388Y-68182207D01*
X162097559Y-68043702D01*
X162120130Y-67922574D01*
X162159409Y-67815070D01*
X162216707Y-67717435D01*
X162278992Y-67641087D01*
X162347035Y-67567400D01*
X161692094Y-67567400D01*
X161546173Y-67567373D01*
X161423373Y-67567232D01*
X161321415Y-67566894D01*
X161238021Y-67566272D01*
X161170911Y-67565281D01*
X161117807Y-67563836D01*
X161076430Y-67561851D01*
X161044501Y-67559240D01*
X161019741Y-67555918D01*
X160999871Y-67551800D01*
X160982613Y-67546801D01*
X160965688Y-67540834D01*
X160963651Y-67540078D01*
X160915906Y-67517765D01*
X160871977Y-67489692D01*
X160850896Y-67471467D01*
X160817188Y-67420814D01*
X160790846Y-67349805D01*
X160772547Y-67262588D01*
X160762967Y-67163309D01*
X160762782Y-67056116D01*
X160769384Y-66971523D01*
G36*
X160759049Y-76221057D02*
G01*
X160761164Y-76146649D01*
X160763815Y-76092335D01*
X160767821Y-76052809D01*
X160774000Y-76022765D01*
X160783172Y-75996899D01*
X160796156Y-75969905D01*
X160798534Y-75965334D01*
X160833328Y-75912728D01*
X160874085Y-75872155D01*
X160881720Y-75866719D01*
X160944929Y-75836482D01*
X161026190Y-75814919D01*
X161119679Y-75802042D01*
X161219573Y-75797859D01*
X161320048Y-75802381D01*
X161415280Y-75815619D01*
X161499445Y-75837582D01*
X161562156Y-75865538D01*
X161614972Y-75909712D01*
X161651763Y-75963643D01*
X161666769Y-75993082D01*
X161677377Y-76020717D01*
X161684659Y-76052339D01*
X161689689Y-76093736D01*
X161693542Y-76150698D01*
X161696104Y-76202719D01*
X161701113Y-76291546D01*
X161708923Y-76358163D01*
X161722624Y-76405761D01*
X161745304Y-76437528D01*
X161780053Y-76456652D01*
X161829959Y-76466325D01*
X161898113Y-76469733D01*
X161955098Y-76470100D01*
X162119044Y-76470100D01*
X162111153Y-76416125D01*
X162103785Y-76351881D01*
X162098280Y-76276230D01*
X162094743Y-76195211D01*
X162093278Y-76114864D01*
X162093989Y-76041227D01*
X162096981Y-75980341D01*
X162102358Y-75938244D01*
X162102855Y-75936035D01*
X162133255Y-75842892D01*
X162176151Y-75771084D01*
X162232761Y-75719182D01*
X162304304Y-75685762D01*
X162320697Y-75681123D01*
X162374827Y-75671657D01*
X162445172Y-75665686D01*
X162525016Y-75663125D01*
X162607641Y-75663889D01*
X162686330Y-75667893D01*
X162754366Y-75675052D01*
X162805033Y-75685283D01*
X162811419Y-75687315D01*
X162874157Y-75714142D01*
X162924695Y-75748655D01*
X162963982Y-75793322D01*
X162992964Y-75850611D01*
X163012591Y-75922989D01*
X163023808Y-76012924D01*
X163027565Y-76122883D01*
X163025238Y-76244065D01*
X163016947Y-76468879D01*
X163826798Y-76472665D01*
X164636650Y-76476450D01*
X164708687Y-76505569D01*
X164778432Y-76544302D01*
X164836011Y-76596991D01*
X164875854Y-76658064D01*
X164885065Y-76681927D01*
X164890277Y-76710615D01*
X164895099Y-76758601D01*
X164899316Y-76820010D01*
X164902714Y-76888967D01*
X164905078Y-76959598D01*
X164906191Y-77026028D01*
X164905840Y-77082383D01*
X164903809Y-77122789D01*
X164901715Y-77136850D01*
X164876188Y-77220096D01*
X164844456Y-77283244D01*
X164802593Y-77331495D01*
X164746674Y-77370050D01*
X164712850Y-77387025D01*
X164649350Y-77416250D01*
X163020108Y-77423646D01*
X163015309Y-77565998D01*
X163008633Y-77659529D01*
X162994038Y-77732036D01*
X162969021Y-77787311D01*
X162931082Y-77829145D01*
X162877719Y-77861330D01*
X162806432Y-77887657D01*
X162802297Y-77888904D01*
X162749305Y-77899626D01*
X162679384Y-77906613D01*
X162599833Y-77909868D01*
X162517952Y-77909394D01*
X162441038Y-77905193D01*
X162376392Y-77897268D01*
X162339889Y-77888734D01*
X162255524Y-77850948D01*
X162189838Y-77798788D01*
X162153168Y-77749451D01*
X162138672Y-77720092D01*
X162129008Y-77688633D01*
X162122909Y-77648308D01*
X162119109Y-77592353D01*
X162117829Y-77560780D01*
X162113003Y-77425909D01*
X161882576Y-77419308D01*
X161795045Y-77416389D01*
X161727303Y-77412882D01*
X161673736Y-77408134D01*
X161628735Y-77401491D01*
X161586686Y-77392297D01*
X161541979Y-77379899D01*
X161540295Y-77379398D01*
X161388979Y-77322634D01*
X161248991Y-77246808D01*
X161122659Y-77154074D01*
X161012308Y-77046582D01*
X160920268Y-76926486D01*
X160848864Y-76795936D01*
X160815476Y-76709145D01*
X160788713Y-76612941D01*
X160770717Y-76513729D01*
X160760760Y-76405213D01*
X160758113Y-76281097D01*
X160759049Y-76221057D01*
G37*
X160759049Y-76221057D02*
X160761164Y-76146649D01*
X160763815Y-76092335D01*
X160767821Y-76052809D01*
X160774000Y-76022765D01*
X160783172Y-75996899D01*
X160796156Y-75969905D01*
X160798534Y-75965334D01*
X160833328Y-75912728D01*
X160874085Y-75872155D01*
X160881720Y-75866719D01*
X160944929Y-75836482D01*
X161026190Y-75814919D01*
X161119679Y-75802042D01*
X161219573Y-75797859D01*
X161320048Y-75802381D01*
X161415280Y-75815619D01*
X161499445Y-75837582D01*
X161562156Y-75865538D01*
X161614972Y-75909712D01*
X161651763Y-75963643D01*
X161666769Y-75993082D01*
X161677377Y-76020717D01*
X161684659Y-76052339D01*
X161689689Y-76093736D01*
X161693542Y-76150698D01*
X161696104Y-76202719D01*
X161701113Y-76291546D01*
X161708923Y-76358163D01*
X161722624Y-76405761D01*
X161745304Y-76437528D01*
X161780053Y-76456652D01*
X161829959Y-76466325D01*
X161898113Y-76469733D01*
X161955098Y-76470100D01*
X162119044Y-76470100D01*
X162111153Y-76416125D01*
X162103785Y-76351881D01*
X162098280Y-76276230D01*
X162094743Y-76195211D01*
X162093278Y-76114864D01*
X162093989Y-76041227D01*
X162096981Y-75980341D01*
X162102358Y-75938244D01*
X162102855Y-75936035D01*
X162133255Y-75842892D01*
X162176151Y-75771084D01*
X162232761Y-75719182D01*
X162304304Y-75685762D01*
X162320697Y-75681123D01*
X162374827Y-75671657D01*
X162445172Y-75665686D01*
X162525016Y-75663125D01*
X162607641Y-75663889D01*
X162686330Y-75667893D01*
X162754366Y-75675052D01*
X162805033Y-75685283D01*
X162811419Y-75687315D01*
X162874157Y-75714142D01*
X162924695Y-75748655D01*
X162963982Y-75793322D01*
X162992964Y-75850611D01*
X163012591Y-75922989D01*
X163023808Y-76012924D01*
X163027565Y-76122883D01*
X163025238Y-76244065D01*
X163016947Y-76468879D01*
X163826798Y-76472665D01*
X164636650Y-76476450D01*
X164708687Y-76505569D01*
X164778432Y-76544302D01*
X164836011Y-76596991D01*
X164875854Y-76658064D01*
X164885065Y-76681927D01*
X164890277Y-76710615D01*
X164895099Y-76758601D01*
X164899316Y-76820010D01*
X164902714Y-76888967D01*
X164905078Y-76959598D01*
X164906191Y-77026028D01*
X164905840Y-77082383D01*
X164903809Y-77122789D01*
X164901715Y-77136850D01*
X164876188Y-77220096D01*
X164844456Y-77283244D01*
X164802593Y-77331495D01*
X164746674Y-77370050D01*
X164712850Y-77387025D01*
X164649350Y-77416250D01*
X163020108Y-77423646D01*
X163015309Y-77565998D01*
X163008633Y-77659529D01*
X162994038Y-77732036D01*
X162969021Y-77787311D01*
X162931082Y-77829145D01*
X162877719Y-77861330D01*
X162806432Y-77887657D01*
X162802297Y-77888904D01*
X162749305Y-77899626D01*
X162679384Y-77906613D01*
X162599833Y-77909868D01*
X162517952Y-77909394D01*
X162441038Y-77905193D01*
X162376392Y-77897268D01*
X162339889Y-77888734D01*
X162255524Y-77850948D01*
X162189838Y-77798788D01*
X162153168Y-77749451D01*
X162138672Y-77720092D01*
X162129008Y-77688633D01*
X162122909Y-77648308D01*
X162119109Y-77592353D01*
X162117829Y-77560780D01*
X162113003Y-77425909D01*
X161882576Y-77419308D01*
X161795045Y-77416389D01*
X161727303Y-77412882D01*
X161673736Y-77408134D01*
X161628735Y-77401491D01*
X161586686Y-77392297D01*
X161541979Y-77379899D01*
X161540295Y-77379398D01*
X161388979Y-77322634D01*
X161248991Y-77246808D01*
X161122659Y-77154074D01*
X161012308Y-77046582D01*
X160920268Y-76926486D01*
X160848864Y-76795936D01*
X160815476Y-76709145D01*
X160788713Y-76612941D01*
X160770717Y-76513729D01*
X160760760Y-76405213D01*
X160758113Y-76281097D01*
X160759049Y-76221057D01*
G36*
X160769461Y-80425071D02*
G01*
X160782835Y-80331127D01*
X160806350Y-80255886D01*
X160841172Y-80196613D01*
X160888469Y-80150574D01*
X160945941Y-80116641D01*
X161017150Y-80083250D01*
X161709300Y-80079655D01*
X162401450Y-80076059D01*
X162323486Y-79994739D01*
X162229045Y-79880602D01*
X162158072Y-79759166D01*
X162126634Y-79683200D01*
X162113883Y-79643668D01*
X162105391Y-79605610D01*
X162100360Y-79562255D01*
X162097993Y-79506830D01*
X162097489Y-79435550D01*
X162098923Y-79364883D01*
X162102633Y-79295547D01*
X162108051Y-79235647D01*
X162114397Y-79194250D01*
X162160672Y-79040721D01*
X162229799Y-78894093D01*
X162319696Y-78756410D01*
X162428283Y-78629714D01*
X162553480Y-78516049D01*
X162693207Y-78417458D01*
X162845383Y-78335984D01*
X163007928Y-78273670D01*
X163069622Y-78256051D01*
X163127311Y-78242307D01*
X163187426Y-78230776D01*
X163252653Y-78221288D01*
X163325678Y-78213674D01*
X163409189Y-78207764D01*
X163505870Y-78203391D01*
X163618409Y-78200383D01*
X163749491Y-78198573D01*
X163901802Y-78197790D01*
X163995300Y-78197736D01*
X164146764Y-78198110D01*
X164275117Y-78199110D01*
X164382641Y-78200887D01*
X164471621Y-78203593D01*
X164544341Y-78207378D01*
X164603083Y-78212393D01*
X164650133Y-78218790D01*
X164687773Y-78226719D01*
X164718287Y-78236331D01*
X164742768Y-78247166D01*
X164795462Y-78280685D01*
X164836211Y-78323020D01*
X164866178Y-78377222D01*
X164886529Y-78446342D01*
X164898430Y-78533431D01*
X164903046Y-78641539D01*
X164903199Y-78667200D01*
X164900220Y-78782455D01*
X164890229Y-78875992D01*
X164871957Y-78950833D01*
X164844135Y-79010002D01*
X164805496Y-79056524D01*
X164754769Y-79093422D01*
X164716117Y-79113049D01*
X164700904Y-79119717D01*
X164685996Y-79125336D01*
X164669139Y-79130020D01*
X164648082Y-79133884D01*
X164620571Y-79137041D01*
X164584356Y-79139606D01*
X164537182Y-79141692D01*
X164476798Y-79143414D01*
X164400951Y-79144887D01*
X164307390Y-79146223D01*
X164193861Y-79147538D01*
X164058112Y-79148946D01*
X163995300Y-79149578D01*
X163849698Y-79151061D01*
X163727251Y-79152410D01*
X163625715Y-79153736D01*
X163542844Y-79155153D01*
X163476395Y-79156771D01*
X163424124Y-79158702D01*
X163383786Y-79161058D01*
X163353136Y-79163951D01*
X163329931Y-79167493D01*
X163311926Y-79171795D01*
X163296878Y-79176969D01*
X163282541Y-79183127D01*
X163277750Y-79185317D01*
X163209633Y-79226724D01*
X163145565Y-79283750D01*
X163093192Y-79348741D01*
X163066968Y-79396284D01*
X163038726Y-79492044D01*
X163032024Y-79594193D01*
X163045655Y-79697818D01*
X163078414Y-79798005D01*
X163129095Y-79889839D01*
X163196490Y-79968407D01*
X163210486Y-79980918D01*
X163232799Y-80000209D01*
X163252466Y-80016513D01*
X163271739Y-80030100D01*
X163292872Y-80041242D01*
X163318120Y-80050210D01*
X163349737Y-80057275D01*
X163389975Y-80062708D01*
X163441090Y-80066781D01*
X163505334Y-80069765D01*
X163584963Y-80071932D01*
X163682229Y-80073552D01*
X163799387Y-80074897D01*
X163938691Y-80076238D01*
X164008000Y-80076900D01*
X164662050Y-80083250D01*
X164735701Y-80119394D01*
X164795286Y-80156066D01*
X164838611Y-80201931D01*
X164869436Y-80262299D01*
X164890619Y-80338162D01*
X164901637Y-80413594D01*
X164907129Y-80503253D01*
X164907093Y-80597330D01*
X164901525Y-80686011D01*
X164890745Y-80758020D01*
X164868456Y-80838174D01*
X164839018Y-80897914D01*
X164798579Y-80942011D01*
X164743287Y-80975238D01*
X164702115Y-80991682D01*
X164691750Y-80995179D01*
X164680698Y-80998335D01*
X164667685Y-81001166D01*
X164651434Y-81003686D01*
X164630673Y-81005910D01*
X164604126Y-81007854D01*
X164570518Y-81009531D01*
X164528575Y-81010958D01*
X164477023Y-81012148D01*
X164414586Y-81013116D01*
X164339990Y-81013878D01*
X164251960Y-81014447D01*
X164149222Y-81014840D01*
X164030502Y-81015071D01*
X163894523Y-81015154D01*
X163740013Y-81015105D01*
X163565695Y-81014938D01*
X163370297Y-81014668D01*
X163152542Y-81014310D01*
X162911156Y-81013879D01*
X162810859Y-81013695D01*
X160991750Y-81010350D01*
X160925658Y-80975507D01*
X160871404Y-80938054D01*
X160829345Y-80888036D01*
X160798591Y-80823044D01*
X160778254Y-80740670D01*
X160767445Y-80638507D01*
X160765061Y-80540450D01*
X160769461Y-80425071D01*
G37*
X160769461Y-80425071D02*
X160782835Y-80331127D01*
X160806350Y-80255886D01*
X160841172Y-80196613D01*
X160888469Y-80150574D01*
X160945941Y-80116641D01*
X161017150Y-80083250D01*
X161709300Y-80079655D01*
X162401450Y-80076059D01*
X162323486Y-79994739D01*
X162229045Y-79880602D01*
X162158072Y-79759166D01*
X162126634Y-79683200D01*
X162113883Y-79643668D01*
X162105391Y-79605610D01*
X162100360Y-79562255D01*
X162097993Y-79506830D01*
X162097489Y-79435550D01*
X162098923Y-79364883D01*
X162102633Y-79295547D01*
X162108051Y-79235647D01*
X162114397Y-79194250D01*
X162160672Y-79040721D01*
X162229799Y-78894093D01*
X162319696Y-78756410D01*
X162428283Y-78629714D01*
X162553480Y-78516049D01*
X162693207Y-78417458D01*
X162845383Y-78335984D01*
X163007928Y-78273670D01*
X163069622Y-78256051D01*
X163127311Y-78242307D01*
X163187426Y-78230776D01*
X163252653Y-78221288D01*
X163325678Y-78213674D01*
X163409189Y-78207764D01*
X163505870Y-78203391D01*
X163618409Y-78200383D01*
X163749491Y-78198573D01*
X163901802Y-78197790D01*
X163995300Y-78197736D01*
X164146764Y-78198110D01*
X164275117Y-78199110D01*
X164382641Y-78200887D01*
X164471621Y-78203593D01*
X164544341Y-78207378D01*
X164603083Y-78212393D01*
X164650133Y-78218790D01*
X164687773Y-78226719D01*
X164718287Y-78236331D01*
X164742768Y-78247166D01*
X164795462Y-78280685D01*
X164836211Y-78323020D01*
X164866178Y-78377222D01*
X164886529Y-78446342D01*
X164898430Y-78533431D01*
X164903046Y-78641539D01*
X164903199Y-78667200D01*
X164900220Y-78782455D01*
X164890229Y-78875992D01*
X164871957Y-78950833D01*
X164844135Y-79010002D01*
X164805496Y-79056524D01*
X164754769Y-79093422D01*
X164716117Y-79113049D01*
X164700904Y-79119717D01*
X164685996Y-79125336D01*
X164669139Y-79130020D01*
X164648082Y-79133884D01*
X164620571Y-79137041D01*
X164584356Y-79139606D01*
X164537182Y-79141692D01*
X164476798Y-79143414D01*
X164400951Y-79144887D01*
X164307390Y-79146223D01*
X164193861Y-79147538D01*
X164058112Y-79148946D01*
X163995300Y-79149578D01*
X163849698Y-79151061D01*
X163727251Y-79152410D01*
X163625715Y-79153736D01*
X163542844Y-79155153D01*
X163476395Y-79156771D01*
X163424124Y-79158702D01*
X163383786Y-79161058D01*
X163353136Y-79163951D01*
X163329931Y-79167493D01*
X163311926Y-79171795D01*
X163296878Y-79176969D01*
X163282541Y-79183127D01*
X163277750Y-79185317D01*
X163209633Y-79226724D01*
X163145565Y-79283750D01*
X163093192Y-79348741D01*
X163066968Y-79396284D01*
X163038726Y-79492044D01*
X163032024Y-79594193D01*
X163045655Y-79697818D01*
X163078414Y-79798005D01*
X163129095Y-79889839D01*
X163196490Y-79968407D01*
X163210486Y-79980918D01*
X163232799Y-80000209D01*
X163252466Y-80016513D01*
X163271739Y-80030100D01*
X163292872Y-80041242D01*
X163318120Y-80050210D01*
X163349737Y-80057275D01*
X163389975Y-80062708D01*
X163441090Y-80066781D01*
X163505334Y-80069765D01*
X163584963Y-80071932D01*
X163682229Y-80073552D01*
X163799387Y-80074897D01*
X163938691Y-80076238D01*
X164008000Y-80076900D01*
X164662050Y-80083250D01*
X164735701Y-80119394D01*
X164795286Y-80156066D01*
X164838611Y-80201931D01*
X164869436Y-80262299D01*
X164890619Y-80338162D01*
X164901637Y-80413594D01*
X164907129Y-80503253D01*
X164907093Y-80597330D01*
X164901525Y-80686011D01*
X164890745Y-80758020D01*
X164868456Y-80838174D01*
X164839018Y-80897914D01*
X164798579Y-80942011D01*
X164743287Y-80975238D01*
X164702115Y-80991682D01*
X164691750Y-80995179D01*
X164680698Y-80998335D01*
X164667685Y-81001166D01*
X164651434Y-81003686D01*
X164630673Y-81005910D01*
X164604126Y-81007854D01*
X164570518Y-81009531D01*
X164528575Y-81010958D01*
X164477023Y-81012148D01*
X164414586Y-81013116D01*
X164339990Y-81013878D01*
X164251960Y-81014447D01*
X164149222Y-81014840D01*
X164030502Y-81015071D01*
X163894523Y-81015154D01*
X163740013Y-81015105D01*
X163565695Y-81014938D01*
X163370297Y-81014668D01*
X163152542Y-81014310D01*
X162911156Y-81013879D01*
X162810859Y-81013695D01*
X160991750Y-81010350D01*
X160925658Y-80975507D01*
X160871404Y-80938054D01*
X160829345Y-80888036D01*
X160798591Y-80823044D01*
X160778254Y-80740670D01*
X160767445Y-80638507D01*
X160765061Y-80540450D01*
X160769461Y-80425071D01*
G36*
X161120702Y-88080428D02*
G01*
X161139772Y-87979369D01*
X161171067Y-87893303D01*
X161213840Y-87825147D01*
X161258609Y-87783514D01*
X161287155Y-87766582D01*
X161320643Y-87752964D01*
X161361970Y-87742332D01*
X161414033Y-87734355D01*
X161479727Y-87728703D01*
X161561949Y-87725046D01*
X161663596Y-87723055D01*
X161787564Y-87722400D01*
X161795266Y-87722396D01*
X162116183Y-87722300D01*
X162107299Y-87687375D01*
X162104480Y-87664032D01*
X162101936Y-87619897D01*
X162099827Y-87559579D01*
X162098311Y-87487686D01*
X162097547Y-87408826D01*
X162097532Y-87404800D01*
X162097398Y-87318577D01*
X162097956Y-87253498D01*
X162099591Y-87205309D01*
X162102693Y-87169757D01*
X162107647Y-87142589D01*
X162114841Y-87119549D01*
X162124662Y-87096385D01*
X162125845Y-87093809D01*
X162157102Y-87035430D01*
X162191782Y-86994414D01*
X162237519Y-86963074D01*
X162272524Y-86946124D01*
X162302770Y-86934214D01*
X162334535Y-86925684D01*
X162373315Y-86919785D01*
X162424607Y-86915769D01*
X162493907Y-86912886D01*
X162522958Y-86912020D01*
X162642546Y-86911684D01*
X162740328Y-86918677D01*
X162819093Y-86933970D01*
X162881627Y-86958535D01*
X162930718Y-86993344D01*
X162969151Y-87039370D01*
X162989166Y-87074600D01*
X163023750Y-87144450D01*
X163022184Y-87433988D01*
X163020619Y-87723526D01*
X163453984Y-87719738D01*
X163586765Y-87718583D01*
X163696427Y-87716897D01*
X163785246Y-87713547D01*
X163855495Y-87707402D01*
X163909450Y-87697327D01*
X163949384Y-87682189D01*
X163977573Y-87660857D01*
X163996291Y-87632197D01*
X164007813Y-87595075D01*
X164014413Y-87548359D01*
X164018365Y-87490917D01*
X164021109Y-87437249D01*
X164025251Y-87366371D01*
X164029829Y-87314916D01*
X164035987Y-87276916D01*
X164044871Y-87246404D01*
X164057624Y-87217411D01*
X164066575Y-87200189D01*
X164092809Y-87157298D01*
X164121510Y-87127774D01*
X164162321Y-87102386D01*
X164176144Y-87095305D01*
X164247236Y-87069995D01*
X164334754Y-87054523D01*
X164431779Y-87048721D01*
X164531391Y-87052422D01*
X164626669Y-87065459D01*
X164710695Y-87087663D01*
X164760764Y-87109462D01*
X164811395Y-87145137D01*
X164850336Y-87192129D01*
X164878521Y-87253115D01*
X164896884Y-87330772D01*
X164906362Y-87427776D01*
X164908093Y-87531294D01*
X164906497Y-87602882D01*
X164903398Y-87675087D01*
X164899267Y-87738782D01*
X164895293Y-87779450D01*
X164861468Y-87957259D01*
X164806270Y-88122048D01*
X164774826Y-88191343D01*
X164704397Y-88309685D01*
X164618234Y-88409977D01*
X164515454Y-88492775D01*
X164395173Y-88558632D01*
X164256509Y-88608104D01*
X164098577Y-88641747D01*
X164046433Y-88648943D01*
X164008287Y-88652031D01*
X163948518Y-88654862D01*
X163870901Y-88657347D01*
X163779211Y-88659400D01*
X163677223Y-88660932D01*
X163568714Y-88661857D01*
X163478639Y-88662100D01*
X163018462Y-88662100D01*
X163026054Y-88786713D01*
X163028425Y-88868320D01*
X163023364Y-88931142D01*
X163009603Y-88981035D01*
X162985871Y-89023856D01*
X162970261Y-89043980D01*
X162913293Y-89092259D01*
X162835071Y-89127249D01*
X162736034Y-89148869D01*
X162616621Y-89157040D01*
X162477273Y-89151684D01*
X162409884Y-89145036D01*
X162306001Y-89126037D01*
X162223963Y-89094715D01*
X162162780Y-89049870D01*
X162121461Y-88990299D01*
X162099016Y-88914803D01*
X162094455Y-88822179D01*
X162098725Y-88767696D01*
X162110489Y-88663741D01*
X161728919Y-88659746D01*
X161347350Y-88655750D01*
X161277500Y-88617650D01*
X161224189Y-88580328D01*
X161183510Y-88531668D01*
X161153594Y-88468040D01*
X161132576Y-88385817D01*
X161122226Y-88315849D01*
X161114604Y-88193561D01*
X161120702Y-88080428D01*
G37*
X161120702Y-88080428D02*
X161139772Y-87979369D01*
X161171067Y-87893303D01*
X161213840Y-87825147D01*
X161258609Y-87783514D01*
X161287155Y-87766582D01*
X161320643Y-87752964D01*
X161361970Y-87742332D01*
X161414033Y-87734355D01*
X161479727Y-87728703D01*
X161561949Y-87725046D01*
X161663596Y-87723055D01*
X161787564Y-87722400D01*
X161795266Y-87722396D01*
X162116183Y-87722300D01*
X162107299Y-87687375D01*
X162104480Y-87664032D01*
X162101936Y-87619897D01*
X162099827Y-87559579D01*
X162098311Y-87487686D01*
X162097547Y-87408826D01*
X162097532Y-87404800D01*
X162097398Y-87318577D01*
X162097956Y-87253498D01*
X162099591Y-87205309D01*
X162102693Y-87169757D01*
X162107647Y-87142589D01*
X162114841Y-87119549D01*
X162124662Y-87096385D01*
X162125845Y-87093809D01*
X162157102Y-87035430D01*
X162191782Y-86994414D01*
X162237519Y-86963074D01*
X162272524Y-86946124D01*
X162302770Y-86934214D01*
X162334535Y-86925684D01*
X162373315Y-86919785D01*
X162424607Y-86915769D01*
X162493907Y-86912886D01*
X162522958Y-86912020D01*
X162642546Y-86911684D01*
X162740328Y-86918677D01*
X162819093Y-86933970D01*
X162881627Y-86958535D01*
X162930718Y-86993344D01*
X162969151Y-87039370D01*
X162989166Y-87074600D01*
X163023750Y-87144450D01*
X163022184Y-87433988D01*
X163020619Y-87723526D01*
X163453984Y-87719738D01*
X163586765Y-87718583D01*
X163696427Y-87716897D01*
X163785246Y-87713547D01*
X163855495Y-87707402D01*
X163909450Y-87697327D01*
X163949384Y-87682189D01*
X163977573Y-87660857D01*
X163996291Y-87632197D01*
X164007813Y-87595075D01*
X164014413Y-87548359D01*
X164018365Y-87490917D01*
X164021109Y-87437249D01*
X164025251Y-87366371D01*
X164029829Y-87314916D01*
X164035987Y-87276916D01*
X164044871Y-87246404D01*
X164057624Y-87217411D01*
X164066575Y-87200189D01*
X164092809Y-87157298D01*
X164121510Y-87127774D01*
X164162321Y-87102386D01*
X164176144Y-87095305D01*
X164247236Y-87069995D01*
X164334754Y-87054523D01*
X164431779Y-87048721D01*
X164531391Y-87052422D01*
X164626669Y-87065459D01*
X164710695Y-87087663D01*
X164760764Y-87109462D01*
X164811395Y-87145137D01*
X164850336Y-87192129D01*
X164878521Y-87253115D01*
X164896884Y-87330772D01*
X164906362Y-87427776D01*
X164908093Y-87531294D01*
X164906497Y-87602882D01*
X164903398Y-87675087D01*
X164899267Y-87738782D01*
X164895293Y-87779450D01*
X164861468Y-87957259D01*
X164806270Y-88122048D01*
X164774826Y-88191343D01*
X164704397Y-88309685D01*
X164618234Y-88409977D01*
X164515454Y-88492775D01*
X164395173Y-88558632D01*
X164256509Y-88608104D01*
X164098577Y-88641747D01*
X164046433Y-88648943D01*
X164008287Y-88652031D01*
X163948518Y-88654862D01*
X163870901Y-88657347D01*
X163779211Y-88659400D01*
X163677223Y-88660932D01*
X163568714Y-88661857D01*
X163478639Y-88662100D01*
X163018462Y-88662100D01*
X163026054Y-88786713D01*
X163028425Y-88868320D01*
X163023364Y-88931142D01*
X163009603Y-88981035D01*
X162985871Y-89023856D01*
X162970261Y-89043980D01*
X162913293Y-89092259D01*
X162835071Y-89127249D01*
X162736034Y-89148869D01*
X162616621Y-89157040D01*
X162477273Y-89151684D01*
X162409884Y-89145036D01*
X162306001Y-89126037D01*
X162223963Y-89094715D01*
X162162780Y-89049870D01*
X162121461Y-88990299D01*
X162099016Y-88914803D01*
X162094455Y-88822179D01*
X162098725Y-88767696D01*
X162110489Y-88663741D01*
X161728919Y-88659746D01*
X161347350Y-88655750D01*
X161277500Y-88617650D01*
X161224189Y-88580328D01*
X161183510Y-88531668D01*
X161153594Y-88468040D01*
X161132576Y-88385817D01*
X161122226Y-88315849D01*
X161114604Y-88193561D01*
X161120702Y-88080428D01*
G36*
X162085040Y-85221433D02*
G01*
X162089752Y-85175134D01*
X162122935Y-84994497D01*
X162175037Y-84830673D01*
X162246325Y-84683231D01*
X162337069Y-84551741D01*
X162447535Y-84435772D01*
X162577993Y-84334894D01*
X162635841Y-84298668D01*
X162758541Y-84237817D01*
X162890155Y-84193190D01*
X163026243Y-84165165D01*
X163162366Y-84154118D01*
X163294087Y-84160428D01*
X163416967Y-84184471D01*
X163520218Y-84223466D01*
X163583107Y-84263947D01*
X163646449Y-84321469D01*
X163703360Y-84388757D01*
X163746955Y-84458536D01*
X163751512Y-84467892D01*
X163785750Y-84540950D01*
X163789352Y-85210875D01*
X163790073Y-85361605D01*
X163790674Y-85488789D01*
X163791443Y-85594280D01*
X163792667Y-85679930D01*
X163794634Y-85747591D01*
X163797633Y-85799113D01*
X163801951Y-85836350D01*
X163807875Y-85861153D01*
X163815695Y-85875373D01*
X163825698Y-85880863D01*
X163838171Y-85879474D01*
X163853402Y-85873058D01*
X163871680Y-85863467D01*
X163889393Y-85854411D01*
X163936925Y-85825394D01*
X163978020Y-85785579D01*
X164016892Y-85730079D01*
X164051736Y-85666121D01*
X164079778Y-85605368D01*
X164099788Y-85548075D01*
X164112715Y-85488369D01*
X164119509Y-85420376D01*
X164121120Y-85338223D01*
X164119026Y-85250130D01*
X164114767Y-85163448D01*
X164107897Y-85090534D01*
X164096887Y-85024050D01*
X164080207Y-84956661D01*
X164056328Y-84881028D01*
X164023720Y-84789816D01*
X164022213Y-84785743D01*
X164004141Y-84719427D01*
X163996257Y-84650642D01*
X163998857Y-84587664D01*
X164012234Y-84538770D01*
X164013374Y-84536486D01*
X164046687Y-84490509D01*
X164098488Y-84441408D01*
X164163081Y-84393819D01*
X164234768Y-84352378D01*
X164246940Y-84346426D01*
X164341941Y-84310867D01*
X164435856Y-84293833D01*
X164523485Y-84295860D01*
X164585201Y-84311428D01*
X164658956Y-84353159D01*
X164724082Y-84418614D01*
X164780463Y-84507587D01*
X164827986Y-84619871D01*
X164866535Y-84755260D01*
X164885953Y-84851141D01*
X164897187Y-84931496D01*
X164906210Y-85028941D01*
X164912904Y-85137801D01*
X164917150Y-85252398D01*
X164918831Y-85367053D01*
X164917828Y-85476090D01*
X164914023Y-85573831D01*
X164907298Y-85654598D01*
X164903278Y-85683950D01*
X164861600Y-85874094D01*
X164800502Y-86049022D01*
X164720359Y-86208106D01*
X164621549Y-86350719D01*
X164504447Y-86476233D01*
X164369429Y-86584021D01*
X164359587Y-86590705D01*
X164186508Y-86692297D01*
X164006047Y-86769683D01*
X163819001Y-86822703D01*
X163626169Y-86851197D01*
X163428348Y-86855004D01*
X163311805Y-86842867D01*
X163311805Y-85893500D01*
X163315100Y-85881449D01*
X163317737Y-85847874D01*
X163319731Y-85796641D01*
X163321096Y-85731617D01*
X163321847Y-85656668D01*
X163321998Y-85575662D01*
X163321565Y-85492465D01*
X163320562Y-85410944D01*
X163319003Y-85334965D01*
X163316903Y-85268395D01*
X163314277Y-85215102D01*
X163311139Y-85178951D01*
X163309057Y-85167242D01*
X163281782Y-85112285D01*
X163237281Y-85074340D01*
X163179486Y-85056359D01*
X163160135Y-85055300D01*
X163082457Y-85066321D01*
X163017527Y-85098438D01*
X162966330Y-85150236D01*
X162929852Y-85220299D01*
X162909079Y-85307211D01*
X162904995Y-85409556D01*
X162905566Y-85420991D01*
X162910833Y-85478603D01*
X162921118Y-85524875D01*
X162939838Y-85571832D01*
X162959564Y-85611120D01*
X163008070Y-85688244D01*
X163067183Y-85758363D01*
X163131892Y-85816706D01*
X163197185Y-85858499D01*
X163235515Y-85873932D01*
X163274169Y-85884879D01*
X163302683Y-85891981D01*
X163311805Y-85893500D01*
X163311805Y-86842867D01*
X163226337Y-86833966D01*
X163183199Y-86826328D01*
X163006144Y-86780327D01*
X162840657Y-86712348D01*
X162687949Y-86623606D01*
X162549229Y-86515316D01*
X162425709Y-86388691D01*
X162318597Y-86244947D01*
X162229104Y-86085297D01*
X162158441Y-85910956D01*
X162114464Y-85753800D01*
X162098573Y-85662917D01*
X162087316Y-85555616D01*
X162081063Y-85440520D01*
X162080181Y-85326252D01*
X162085040Y-85221433D01*
G37*
X162085040Y-85221433D02*
X162089752Y-85175134D01*
X162122935Y-84994497D01*
X162175037Y-84830673D01*
X162246325Y-84683231D01*
X162337069Y-84551741D01*
X162447535Y-84435772D01*
X162577993Y-84334894D01*
X162635841Y-84298668D01*
X162758541Y-84237817D01*
X162890155Y-84193190D01*
X163026243Y-84165165D01*
X163162366Y-84154118D01*
X163294087Y-84160428D01*
X163416967Y-84184471D01*
X163520218Y-84223466D01*
X163583107Y-84263947D01*
X163646449Y-84321469D01*
X163703360Y-84388757D01*
X163746955Y-84458536D01*
X163751512Y-84467892D01*
X163785750Y-84540950D01*
X163789352Y-85210875D01*
X163790073Y-85361605D01*
X163790674Y-85488789D01*
X163791443Y-85594280D01*
X163792667Y-85679930D01*
X163794634Y-85747591D01*
X163797633Y-85799113D01*
X163801951Y-85836350D01*
X163807875Y-85861153D01*
X163815695Y-85875373D01*
X163825698Y-85880863D01*
X163838171Y-85879474D01*
X163853402Y-85873058D01*
X163871680Y-85863467D01*
X163889393Y-85854411D01*
X163936925Y-85825394D01*
X163978020Y-85785579D01*
X164016892Y-85730079D01*
X164051736Y-85666121D01*
X164079778Y-85605368D01*
X164099788Y-85548075D01*
X164112715Y-85488369D01*
X164119509Y-85420376D01*
X164121120Y-85338223D01*
X164119026Y-85250130D01*
X164114767Y-85163448D01*
X164107897Y-85090534D01*
X164096887Y-85024050D01*
X164080207Y-84956661D01*
X164056328Y-84881028D01*
X164023720Y-84789816D01*
X164022213Y-84785743D01*
X164004141Y-84719427D01*
X163996257Y-84650642D01*
X163998857Y-84587664D01*
X164012234Y-84538770D01*
X164013374Y-84536486D01*
X164046687Y-84490509D01*
X164098488Y-84441408D01*
X164163081Y-84393819D01*
X164234768Y-84352378D01*
X164246940Y-84346426D01*
X164341941Y-84310867D01*
X164435856Y-84293833D01*
X164523485Y-84295860D01*
X164585201Y-84311428D01*
X164658956Y-84353159D01*
X164724082Y-84418614D01*
X164780463Y-84507587D01*
X164827986Y-84619871D01*
X164866535Y-84755260D01*
X164885953Y-84851141D01*
X164897187Y-84931496D01*
X164906210Y-85028941D01*
X164912904Y-85137801D01*
X164917150Y-85252398D01*
X164918831Y-85367053D01*
X164917828Y-85476090D01*
X164914023Y-85573831D01*
X164907298Y-85654598D01*
X164903278Y-85683950D01*
X164861600Y-85874094D01*
X164800502Y-86049022D01*
X164720359Y-86208106D01*
X164621549Y-86350719D01*
X164504447Y-86476233D01*
X164369429Y-86584021D01*
X164359587Y-86590705D01*
X164186508Y-86692297D01*
X164006047Y-86769683D01*
X163819001Y-86822703D01*
X163626169Y-86851197D01*
X163428348Y-86855004D01*
X163311805Y-86842867D01*
X163311805Y-85893500D01*
X163315100Y-85881449D01*
X163317737Y-85847874D01*
X163319731Y-85796641D01*
X163321096Y-85731617D01*
X163321847Y-85656668D01*
X163321998Y-85575662D01*
X163321565Y-85492465D01*
X163320562Y-85410944D01*
X163319003Y-85334965D01*
X163316903Y-85268395D01*
X163314277Y-85215102D01*
X163311139Y-85178951D01*
X163309057Y-85167242D01*
X163281782Y-85112285D01*
X163237281Y-85074340D01*
X163179486Y-85056359D01*
X163160135Y-85055300D01*
X163082457Y-85066321D01*
X163017527Y-85098438D01*
X162966330Y-85150236D01*
X162929852Y-85220299D01*
X162909079Y-85307211D01*
X162904995Y-85409556D01*
X162905566Y-85420991D01*
X162910833Y-85478603D01*
X162921118Y-85524875D01*
X162939838Y-85571832D01*
X162959564Y-85611120D01*
X163008070Y-85688244D01*
X163067183Y-85758363D01*
X163131892Y-85816706D01*
X163197185Y-85858499D01*
X163235515Y-85873932D01*
X163274169Y-85884879D01*
X163302683Y-85891981D01*
X163311805Y-85893500D01*
X163311805Y-86842867D01*
X163226337Y-86833966D01*
X163183199Y-86826328D01*
X163006144Y-86780327D01*
X162840657Y-86712348D01*
X162687949Y-86623606D01*
X162549229Y-86515316D01*
X162425709Y-86388691D01*
X162318597Y-86244947D01*
X162229104Y-86085297D01*
X162158441Y-85910956D01*
X162114464Y-85753800D01*
X162098573Y-85662917D01*
X162087316Y-85555616D01*
X162081063Y-85440520D01*
X162080181Y-85326252D01*
X162085040Y-85221433D01*
G36*
X162084116Y-90329460D02*
G01*
X162109060Y-90155197D01*
X162152508Y-89991198D01*
X162179882Y-89917746D01*
X162251598Y-89776516D01*
X162344168Y-89647593D01*
X162455171Y-89533114D01*
X162582184Y-89435215D01*
X162722788Y-89356032D01*
X162874562Y-89297702D01*
X162886600Y-89294149D01*
X162955673Y-89279418D01*
X163040007Y-89269417D01*
X163132497Y-89264233D01*
X163226041Y-89263953D01*
X163313534Y-89268665D01*
X163387873Y-89278456D01*
X163425647Y-89287544D01*
X163526016Y-89331428D01*
X163616355Y-89396044D01*
X163692432Y-89477395D01*
X163750016Y-89571486D01*
X163765832Y-89608848D01*
X163771688Y-89625342D01*
X163776603Y-89642375D01*
X163780659Y-89662218D01*
X163783939Y-89687141D01*
X163786525Y-89719414D01*
X163788499Y-89761308D01*
X163789943Y-89815092D01*
X163790940Y-89883036D01*
X163791572Y-89967412D01*
X163791921Y-90070489D01*
X163792070Y-90194536D01*
X163792100Y-90334004D01*
X163792100Y-90988954D01*
X163823289Y-90981126D01*
X163898238Y-90952470D01*
X163961042Y-90905870D01*
X164014790Y-90838603D01*
X164044734Y-90785690D01*
X164078291Y-90712620D01*
X164101049Y-90644653D01*
X164114765Y-90573609D01*
X164121194Y-90491309D01*
X164122300Y-90424353D01*
X164119657Y-90309022D01*
X164110745Y-90209669D01*
X164094083Y-90117328D01*
X164068195Y-90023033D01*
X164044663Y-89953490D01*
X164014681Y-89860593D01*
X163998274Y-89784795D01*
X163995218Y-89721875D01*
X164005287Y-89667608D01*
X164026877Y-89620100D01*
X164071519Y-89564255D01*
X164135167Y-89511623D01*
X164211742Y-89465046D01*
X164295168Y-89427368D01*
X164379364Y-89401433D01*
X164458254Y-89390084D01*
X164512002Y-89393153D01*
X164594885Y-89418570D01*
X164667572Y-89463993D01*
X164730571Y-89530187D01*
X164784389Y-89617917D01*
X164829532Y-89727949D01*
X164866508Y-89861048D01*
X164885911Y-89957500D01*
X164895428Y-90025994D01*
X164903532Y-90112735D01*
X164910061Y-90212139D01*
X164914856Y-90318617D01*
X164917755Y-90426582D01*
X164918598Y-90530447D01*
X164917223Y-90624625D01*
X164913471Y-90703530D01*
X164908740Y-90751250D01*
X164875588Y-90918546D01*
X164823366Y-91085080D01*
X164754804Y-91243587D01*
X164672629Y-91386798D01*
X164666886Y-91395397D01*
X164581034Y-91503271D01*
X164474328Y-91605560D01*
X164351177Y-91699323D01*
X164215987Y-91781618D01*
X164073168Y-91849505D01*
X163927128Y-91900041D01*
X163899614Y-91907379D01*
X163706039Y-91943894D01*
X163507738Y-91957238D01*
X163322200Y-91948037D01*
X163322200Y-90998266D01*
X163322129Y-90658858D01*
X163321625Y-90562432D01*
X163320237Y-90473793D01*
X163318090Y-90396614D01*
X163315306Y-90334569D01*
X163312010Y-90291333D01*
X163309112Y-90272842D01*
X163293711Y-90232856D01*
X163273765Y-90198630D01*
X163272205Y-90196642D01*
X163256761Y-90181151D01*
X163237140Y-90172213D01*
X163206414Y-90168092D01*
X163157655Y-90167053D01*
X163154058Y-90167050D01*
X163102476Y-90168196D01*
X163067598Y-90173061D01*
X163040778Y-90183789D01*
X163014536Y-90201630D01*
X162981369Y-90234534D01*
X162950024Y-90277664D01*
X162939325Y-90296880D01*
X162925306Y-90328928D01*
X162916435Y-90360970D01*
X162911610Y-90400181D01*
X162909733Y-90453735D01*
X162909556Y-90490900D01*
X162910131Y-90552413D01*
X162912709Y-90596099D01*
X162918745Y-90629523D01*
X162929691Y-90660253D01*
X162947004Y-90695854D01*
X162950085Y-90701786D01*
X163005608Y-90790407D01*
X163072225Y-90867391D01*
X163145862Y-90929185D01*
X163222444Y-90972234D01*
X163280925Y-90990385D01*
X163322200Y-90998266D01*
X163322200Y-91948037D01*
X163309530Y-91947408D01*
X163116234Y-91914397D01*
X163091325Y-91908303D01*
X162922598Y-91852631D01*
X162764418Y-91774470D01*
X162618280Y-91675062D01*
X162485680Y-91555649D01*
X162368109Y-91417473D01*
X162267064Y-91261777D01*
X162230529Y-91192701D01*
X162165708Y-91036559D01*
X162118473Y-90867535D01*
X162089007Y-90690258D01*
X162077493Y-90509356D01*
X162084116Y-90329460D01*
G37*
X162084116Y-90329460D02*
X162109060Y-90155197D01*
X162152508Y-89991198D01*
X162179882Y-89917746D01*
X162251598Y-89776516D01*
X162344168Y-89647593D01*
X162455171Y-89533114D01*
X162582184Y-89435215D01*
X162722788Y-89356032D01*
X162874562Y-89297702D01*
X162886600Y-89294149D01*
X162955673Y-89279418D01*
X163040007Y-89269417D01*
X163132497Y-89264233D01*
X163226041Y-89263953D01*
X163313534Y-89268665D01*
X163387873Y-89278456D01*
X163425647Y-89287544D01*
X163526016Y-89331428D01*
X163616355Y-89396044D01*
X163692432Y-89477395D01*
X163750016Y-89571486D01*
X163765832Y-89608848D01*
X163771688Y-89625342D01*
X163776603Y-89642375D01*
X163780659Y-89662218D01*
X163783939Y-89687141D01*
X163786525Y-89719414D01*
X163788499Y-89761308D01*
X163789943Y-89815092D01*
X163790940Y-89883036D01*
X163791572Y-89967412D01*
X163791921Y-90070489D01*
X163792070Y-90194536D01*
X163792100Y-90334004D01*
X163792100Y-90988954D01*
X163823289Y-90981126D01*
X163898238Y-90952470D01*
X163961042Y-90905870D01*
X164014790Y-90838603D01*
X164044734Y-90785690D01*
X164078291Y-90712620D01*
X164101049Y-90644653D01*
X164114765Y-90573609D01*
X164121194Y-90491309D01*
X164122300Y-90424353D01*
X164119657Y-90309022D01*
X164110745Y-90209669D01*
X164094083Y-90117328D01*
X164068195Y-90023033D01*
X164044663Y-89953490D01*
X164014681Y-89860593D01*
X163998274Y-89784795D01*
X163995218Y-89721875D01*
X164005287Y-89667608D01*
X164026877Y-89620100D01*
X164071519Y-89564255D01*
X164135167Y-89511623D01*
X164211742Y-89465046D01*
X164295168Y-89427368D01*
X164379364Y-89401433D01*
X164458254Y-89390084D01*
X164512002Y-89393153D01*
X164594885Y-89418570D01*
X164667572Y-89463993D01*
X164730571Y-89530187D01*
X164784389Y-89617917D01*
X164829532Y-89727949D01*
X164866508Y-89861048D01*
X164885911Y-89957500D01*
X164895428Y-90025994D01*
X164903532Y-90112735D01*
X164910061Y-90212139D01*
X164914856Y-90318617D01*
X164917755Y-90426582D01*
X164918598Y-90530447D01*
X164917223Y-90624625D01*
X164913471Y-90703530D01*
X164908740Y-90751250D01*
X164875588Y-90918546D01*
X164823366Y-91085080D01*
X164754804Y-91243587D01*
X164672629Y-91386798D01*
X164666886Y-91395397D01*
X164581034Y-91503271D01*
X164474328Y-91605560D01*
X164351177Y-91699323D01*
X164215987Y-91781618D01*
X164073168Y-91849505D01*
X163927128Y-91900041D01*
X163899614Y-91907379D01*
X163706039Y-91943894D01*
X163507738Y-91957238D01*
X163322200Y-91948037D01*
X163322200Y-90998266D01*
X163322129Y-90658858D01*
X163321625Y-90562432D01*
X163320237Y-90473793D01*
X163318090Y-90396614D01*
X163315306Y-90334569D01*
X163312010Y-90291333D01*
X163309112Y-90272842D01*
X163293711Y-90232856D01*
X163273765Y-90198630D01*
X163272205Y-90196642D01*
X163256761Y-90181151D01*
X163237140Y-90172213D01*
X163206414Y-90168092D01*
X163157655Y-90167053D01*
X163154058Y-90167050D01*
X163102476Y-90168196D01*
X163067598Y-90173061D01*
X163040778Y-90183789D01*
X163014536Y-90201630D01*
X162981369Y-90234534D01*
X162950024Y-90277664D01*
X162939325Y-90296880D01*
X162925306Y-90328928D01*
X162916435Y-90360970D01*
X162911610Y-90400181D01*
X162909733Y-90453735D01*
X162909556Y-90490900D01*
X162910131Y-90552413D01*
X162912709Y-90596099D01*
X162918745Y-90629523D01*
X162929691Y-90660253D01*
X162947004Y-90695854D01*
X162950085Y-90701786D01*
X163005608Y-90790407D01*
X163072225Y-90867391D01*
X163145862Y-90929185D01*
X163222444Y-90972234D01*
X163280925Y-90990385D01*
X163322200Y-90998266D01*
X163322200Y-91948037D01*
X163309530Y-91947408D01*
X163116234Y-91914397D01*
X163091325Y-91908303D01*
X162922598Y-91852631D01*
X162764418Y-91774470D01*
X162618280Y-91675062D01*
X162485680Y-91555649D01*
X162368109Y-91417473D01*
X162267064Y-91261777D01*
X162230529Y-91192701D01*
X162165708Y-91036559D01*
X162118473Y-90867535D01*
X162089007Y-90690258D01*
X162077493Y-90509356D01*
X162084116Y-90329460D01*
G36*
X162055919Y-95494598D02*
G01*
X162075893Y-95424850D01*
X162088959Y-95398884D01*
X162104500Y-95374945D01*
X162124292Y-95352166D01*
X162150111Y-95329679D01*
X162183733Y-95306615D01*
X162226933Y-95282106D01*
X162281488Y-95255285D01*
X162349172Y-95225282D01*
X162431762Y-95191229D01*
X162531034Y-95152258D01*
X162648763Y-95107502D01*
X162786724Y-95056090D01*
X162946695Y-94997157D01*
X162962413Y-94991388D01*
X163044288Y-94960824D01*
X163116779Y-94932759D01*
X163176929Y-94908420D01*
X163221784Y-94889034D01*
X163248387Y-94875829D01*
X163254207Y-94870200D01*
X163239176Y-94864050D01*
X163203003Y-94850273D01*
X163148429Y-94829884D01*
X163078197Y-94803897D01*
X162995049Y-94773327D01*
X162901728Y-94739188D01*
X162800977Y-94702495D01*
X162794844Y-94700266D01*
X162683560Y-94659354D01*
X162581025Y-94620721D01*
X162489912Y-94585433D01*
X162412894Y-94554555D01*
X162352644Y-94529154D01*
X162311836Y-94510293D01*
X162296265Y-94501550D01*
X162238429Y-94452218D01*
X162181186Y-94386513D01*
X162131198Y-94312724D01*
X162105903Y-94264679D01*
X162083444Y-94189876D01*
X162077267Y-94104141D01*
X162087045Y-94015760D01*
X162112450Y-93933018D01*
X162119605Y-93917409D01*
X162165455Y-93843625D01*
X162226490Y-93773587D01*
X162295165Y-93715107D01*
X162343941Y-93685132D01*
X162372533Y-93672348D01*
X162421471Y-93652374D01*
X162487186Y-93626586D01*
X162566112Y-93596359D01*
X162654681Y-93563069D01*
X162749325Y-93528091D01*
X162787057Y-93514309D01*
X162908671Y-93469959D01*
X163008345Y-93433397D01*
X163088057Y-93403850D01*
X163149781Y-93380547D01*
X163195493Y-93362714D01*
X163227167Y-93349579D01*
X163246780Y-93340369D01*
X163256307Y-93334313D01*
X163257723Y-93330638D01*
X163257474Y-93330351D01*
X163244803Y-93325008D01*
X163210891Y-93311935D01*
X163158355Y-93292109D01*
X163089814Y-93266508D01*
X163007889Y-93236109D01*
X162915197Y-93201890D01*
X162814358Y-93164829D01*
X162795150Y-93157787D01*
X162690126Y-93119023D01*
X162590276Y-93081644D01*
X162498679Y-93046842D01*
X162418413Y-93015808D01*
X162352559Y-92989733D01*
X162304197Y-92969811D01*
X162276405Y-92957231D01*
X162275194Y-92956594D01*
X162212102Y-92915060D01*
X162153005Y-92862360D01*
X162104314Y-92805100D01*
X162072438Y-92749888D01*
X162070931Y-92746084D01*
X162058273Y-92702042D01*
X162053243Y-92651621D01*
X162054692Y-92588575D01*
X162058994Y-92537888D01*
X162066912Y-92495397D01*
X162080980Y-92452426D01*
X162103731Y-92400300D01*
X162118997Y-92368419D01*
X162179050Y-92260222D01*
X162242310Y-92176598D01*
X162309613Y-92116832D01*
X162381792Y-92080208D01*
X162459684Y-92066011D01*
X162472134Y-92065771D01*
X162511024Y-92066942D01*
X162548143Y-92071240D01*
X162587966Y-92079966D01*
X162634966Y-92094423D01*
X162693619Y-92115915D01*
X162768396Y-92145744D01*
X162820550Y-92167225D01*
X162863017Y-92184776D01*
X162926505Y-92210930D01*
X163008529Y-92244667D01*
X163106605Y-92284968D01*
X163218247Y-92330810D01*
X163340969Y-92381176D01*
X163472288Y-92435043D01*
X163609718Y-92491392D01*
X163750773Y-92549203D01*
X163811150Y-92573940D01*
X163948657Y-92630341D01*
X164080266Y-92684457D01*
X164203929Y-92735435D01*
X164317595Y-92782425D01*
X164419214Y-92824575D01*
X164506737Y-92861034D01*
X164578114Y-92890951D01*
X164631295Y-92913475D01*
X164664230Y-92927754D01*
X164673378Y-92931989D01*
X164735619Y-92972792D01*
X164797817Y-93029358D01*
X164851659Y-93093436D01*
X164878325Y-93135370D01*
X164897649Y-93175228D01*
X164909703Y-93214058D01*
X164916669Y-93261163D01*
X164920180Y-93313827D01*
X164922151Y-93369642D01*
X164920544Y-93409233D01*
X164913739Y-93441701D01*
X164900118Y-93476148D01*
X164886078Y-93505463D01*
X164833044Y-93588507D01*
X164761184Y-93665019D01*
X164677072Y-93728533D01*
X164635520Y-93751885D01*
X164605772Y-93765305D01*
X164555598Y-93786228D01*
X164488380Y-93813316D01*
X164407503Y-93845230D01*
X164316352Y-93880631D01*
X164218309Y-93918181D01*
X164144351Y-93946173D01*
X164025524Y-93991253D01*
X163929479Y-94028471D01*
X163855016Y-94058333D01*
X163800937Y-94081348D01*
X163766044Y-94098025D01*
X163749136Y-94108872D01*
X163748300Y-94114066D01*
X163764949Y-94121122D01*
X163802339Y-94135651D01*
X163857326Y-94156473D01*
X163926770Y-94182410D01*
X164007528Y-94212285D01*
X164096459Y-94244918D01*
X164126298Y-94255813D01*
X164220987Y-94290467D01*
X164311922Y-94323981D01*
X164395232Y-94354910D01*
X164467046Y-94381810D01*
X164523491Y-94403237D01*
X164560697Y-94417745D01*
X164565469Y-94419681D01*
X164682005Y-94477145D01*
X164775971Y-94544879D01*
X164848378Y-94623721D01*
X164886024Y-94684503D01*
X164903722Y-94735257D01*
X164915157Y-94801609D01*
X164919787Y-94874408D01*
X164917070Y-94944505D01*
X164906466Y-95002750D01*
X164905117Y-95007067D01*
X164871831Y-95078365D01*
X164821119Y-95150255D01*
X164759569Y-95215053D01*
X164693770Y-95265075D01*
X164674750Y-95275764D01*
X164653740Y-95285284D01*
X164611326Y-95303426D01*
X164549657Y-95329316D01*
X164470885Y-95362077D01*
X164377159Y-95400833D01*
X164270630Y-95444710D01*
X164153450Y-95492832D01*
X164027768Y-95544322D01*
X163895737Y-95598305D01*
X163759505Y-95653906D01*
X163621224Y-95710249D01*
X163483045Y-95766458D01*
X163347118Y-95821657D01*
X163215594Y-95874971D01*
X163090624Y-95925524D01*
X162974358Y-95972441D01*
X162868947Y-96014845D01*
X162776542Y-96051862D01*
X162699293Y-96082615D01*
X162639352Y-96106229D01*
X162598868Y-96121828D01*
X162581087Y-96128216D01*
X162507296Y-96147430D01*
X162447624Y-96153432D01*
X162394381Y-96146035D01*
X162339880Y-96125053D01*
X162334073Y-96122205D01*
X162280868Y-96089775D01*
X162235264Y-96047507D01*
X162193308Y-95990736D01*
X162151042Y-95914798D01*
X162141161Y-95894750D01*
X162095386Y-95784953D01*
X162065597Y-95679334D01*
X162052280Y-95581385D01*
X162055919Y-95494598D01*
G37*
X162055919Y-95494598D02*
X162075893Y-95424850D01*
X162088959Y-95398884D01*
X162104500Y-95374945D01*
X162124292Y-95352166D01*
X162150111Y-95329679D01*
X162183733Y-95306615D01*
X162226933Y-95282106D01*
X162281488Y-95255285D01*
X162349172Y-95225282D01*
X162431762Y-95191229D01*
X162531034Y-95152258D01*
X162648763Y-95107502D01*
X162786724Y-95056090D01*
X162946695Y-94997157D01*
X162962413Y-94991388D01*
X163044288Y-94960824D01*
X163116779Y-94932759D01*
X163176929Y-94908420D01*
X163221784Y-94889034D01*
X163248387Y-94875829D01*
X163254207Y-94870200D01*
X163239176Y-94864050D01*
X163203003Y-94850273D01*
X163148429Y-94829884D01*
X163078197Y-94803897D01*
X162995049Y-94773327D01*
X162901728Y-94739188D01*
X162800977Y-94702495D01*
X162794844Y-94700266D01*
X162683560Y-94659354D01*
X162581025Y-94620721D01*
X162489912Y-94585433D01*
X162412894Y-94554555D01*
X162352644Y-94529154D01*
X162311836Y-94510293D01*
X162296265Y-94501550D01*
X162238429Y-94452218D01*
X162181186Y-94386513D01*
X162131198Y-94312724D01*
X162105903Y-94264679D01*
X162083444Y-94189876D01*
X162077267Y-94104141D01*
X162087045Y-94015760D01*
X162112450Y-93933018D01*
X162119605Y-93917409D01*
X162165455Y-93843625D01*
X162226490Y-93773587D01*
X162295165Y-93715107D01*
X162343941Y-93685132D01*
X162372533Y-93672348D01*
X162421471Y-93652374D01*
X162487186Y-93626586D01*
X162566112Y-93596359D01*
X162654681Y-93563069D01*
X162749325Y-93528091D01*
X162787057Y-93514309D01*
X162908671Y-93469959D01*
X163008345Y-93433397D01*
X163088057Y-93403850D01*
X163149781Y-93380547D01*
X163195493Y-93362714D01*
X163227167Y-93349579D01*
X163246780Y-93340369D01*
X163256307Y-93334313D01*
X163257723Y-93330638D01*
X163257474Y-93330351D01*
X163244803Y-93325008D01*
X163210891Y-93311935D01*
X163158355Y-93292109D01*
X163089814Y-93266508D01*
X163007889Y-93236109D01*
X162915197Y-93201890D01*
X162814358Y-93164829D01*
X162795150Y-93157787D01*
X162690126Y-93119023D01*
X162590276Y-93081644D01*
X162498679Y-93046842D01*
X162418413Y-93015808D01*
X162352559Y-92989733D01*
X162304197Y-92969811D01*
X162276405Y-92957231D01*
X162275194Y-92956594D01*
X162212102Y-92915060D01*
X162153005Y-92862360D01*
X162104314Y-92805100D01*
X162072438Y-92749888D01*
X162070931Y-92746084D01*
X162058273Y-92702042D01*
X162053243Y-92651621D01*
X162054692Y-92588575D01*
X162058994Y-92537888D01*
X162066912Y-92495397D01*
X162080980Y-92452426D01*
X162103731Y-92400300D01*
X162118997Y-92368419D01*
X162179050Y-92260222D01*
X162242310Y-92176598D01*
X162309613Y-92116832D01*
X162381792Y-92080208D01*
X162459684Y-92066011D01*
X162472134Y-92065771D01*
X162511024Y-92066942D01*
X162548143Y-92071240D01*
X162587966Y-92079966D01*
X162634966Y-92094423D01*
X162693619Y-92115915D01*
X162768396Y-92145744D01*
X162820550Y-92167225D01*
X162863017Y-92184776D01*
X162926505Y-92210930D01*
X163008529Y-92244667D01*
X163106605Y-92284968D01*
X163218247Y-92330810D01*
X163340969Y-92381176D01*
X163472288Y-92435043D01*
X163609718Y-92491392D01*
X163750773Y-92549203D01*
X163811150Y-92573940D01*
X163948657Y-92630341D01*
X164080266Y-92684457D01*
X164203929Y-92735435D01*
X164317595Y-92782425D01*
X164419214Y-92824575D01*
X164506737Y-92861034D01*
X164578114Y-92890951D01*
X164631295Y-92913475D01*
X164664230Y-92927754D01*
X164673378Y-92931989D01*
X164735619Y-92972792D01*
X164797817Y-93029358D01*
X164851659Y-93093436D01*
X164878325Y-93135370D01*
X164897649Y-93175228D01*
X164909703Y-93214058D01*
X164916669Y-93261163D01*
X164920180Y-93313827D01*
X164922151Y-93369642D01*
X164920544Y-93409233D01*
X164913739Y-93441701D01*
X164900118Y-93476148D01*
X164886078Y-93505463D01*
X164833044Y-93588507D01*
X164761184Y-93665019D01*
X164677072Y-93728533D01*
X164635520Y-93751885D01*
X164605772Y-93765305D01*
X164555598Y-93786228D01*
X164488380Y-93813316D01*
X164407503Y-93845230D01*
X164316352Y-93880631D01*
X164218309Y-93918181D01*
X164144351Y-93946173D01*
X164025524Y-93991253D01*
X163929479Y-94028471D01*
X163855016Y-94058333D01*
X163800937Y-94081348D01*
X163766044Y-94098025D01*
X163749136Y-94108872D01*
X163748300Y-94114066D01*
X163764949Y-94121122D01*
X163802339Y-94135651D01*
X163857326Y-94156473D01*
X163926770Y-94182410D01*
X164007528Y-94212285D01*
X164096459Y-94244918D01*
X164126298Y-94255813D01*
X164220987Y-94290467D01*
X164311922Y-94323981D01*
X164395232Y-94354910D01*
X164467046Y-94381810D01*
X164523491Y-94403237D01*
X164560697Y-94417745D01*
X164565469Y-94419681D01*
X164682005Y-94477145D01*
X164775971Y-94544879D01*
X164848378Y-94623721D01*
X164886024Y-94684503D01*
X164903722Y-94735257D01*
X164915157Y-94801609D01*
X164919787Y-94874408D01*
X164917070Y-94944505D01*
X164906466Y-95002750D01*
X164905117Y-95007067D01*
X164871831Y-95078365D01*
X164821119Y-95150255D01*
X164759569Y-95215053D01*
X164693770Y-95265075D01*
X164674750Y-95275764D01*
X164653740Y-95285284D01*
X164611326Y-95303426D01*
X164549657Y-95329316D01*
X164470885Y-95362077D01*
X164377159Y-95400833D01*
X164270630Y-95444710D01*
X164153450Y-95492832D01*
X164027768Y-95544322D01*
X163895737Y-95598305D01*
X163759505Y-95653906D01*
X163621224Y-95710249D01*
X163483045Y-95766458D01*
X163347118Y-95821657D01*
X163215594Y-95874971D01*
X163090624Y-95925524D01*
X162974358Y-95972441D01*
X162868947Y-96014845D01*
X162776542Y-96051862D01*
X162699293Y-96082615D01*
X162639352Y-96106229D01*
X162598868Y-96121828D01*
X162581087Y-96128216D01*
X162507296Y-96147430D01*
X162447624Y-96153432D01*
X162394381Y-96146035D01*
X162339880Y-96125053D01*
X162334073Y-96122205D01*
X162280868Y-96089775D01*
X162235264Y-96047507D01*
X162193308Y-95990736D01*
X162151042Y-95914798D01*
X162141161Y-95894750D01*
X162095386Y-95784953D01*
X162065597Y-95679334D01*
X162052280Y-95581385D01*
X162055919Y-95494598D01*
G36*
X162056202Y-82289015D02*
G01*
X162067989Y-82159238D01*
X162092571Y-82034011D01*
X162131370Y-81903924D01*
X162138774Y-81882646D01*
X162175060Y-81794058D01*
X162221388Y-81702180D01*
X162274513Y-81611956D01*
X162331190Y-81528331D01*
X162388175Y-81456248D01*
X162442222Y-81400651D01*
X162469267Y-81379069D01*
X162499201Y-81359713D01*
X162526027Y-81348195D01*
X162558058Y-81342514D01*
X162603609Y-81340665D01*
X162629205Y-81340550D01*
X162684641Y-81341618D01*
X162725773Y-81346557D01*
X162763446Y-81357972D01*
X162808501Y-81378469D01*
X162828181Y-81388351D01*
X162912179Y-81436535D01*
X162994706Y-81493869D01*
X163069729Y-81555517D01*
X163131213Y-81616642D01*
X163163209Y-81656881D01*
X163202050Y-81731020D01*
X163217720Y-81808138D01*
X163210074Y-81889734D01*
X163178968Y-81977306D01*
X163124257Y-82072355D01*
X163123047Y-82074155D01*
X163082953Y-82135015D01*
X163055388Y-82182371D01*
X163038020Y-82223315D01*
X163028514Y-82264940D01*
X163024535Y-82314339D01*
X163023750Y-82375868D01*
X163024306Y-82437748D01*
X163026955Y-82482046D01*
X163033170Y-82516571D01*
X163044422Y-82549133D01*
X163062183Y-82587541D01*
X163064557Y-82592375D01*
X163125123Y-82689611D01*
X163200251Y-82766850D01*
X163287959Y-82823074D01*
X163386265Y-82857264D01*
X163493186Y-82868400D01*
X163584952Y-82859786D01*
X163688052Y-82830322D01*
X163775909Y-82781090D01*
X163849517Y-82711292D01*
X163909872Y-82620131D01*
X163926942Y-82585458D01*
X163958492Y-82486860D01*
X163967108Y-82382258D01*
X163953185Y-82275689D01*
X163917120Y-82171193D01*
X163879621Y-82102550D01*
X163825585Y-82008890D01*
X163792123Y-81926756D01*
X163779459Y-81852470D01*
X163787820Y-81782355D01*
X163817431Y-81712731D01*
X163868520Y-81639923D01*
X163911000Y-81591654D01*
X164010122Y-81495042D01*
X164105757Y-81420544D01*
X164196897Y-81368766D01*
X164282533Y-81340316D01*
X164338200Y-81334603D01*
X164410766Y-81342952D01*
X164479183Y-81368762D01*
X164545665Y-81413678D01*
X164612428Y-81479346D01*
X164681688Y-81567412D01*
X164713105Y-81613050D01*
X164785661Y-81731376D01*
X164841195Y-81845022D01*
X164881561Y-81960099D01*
X164908617Y-82082718D01*
X164924218Y-82218987D01*
X164929290Y-82324800D01*
X164930608Y-82428880D01*
X164928223Y-82512990D01*
X164921897Y-82582320D01*
X164915681Y-82621279D01*
X164874198Y-82785131D01*
X164813261Y-82947182D01*
X164735318Y-83103495D01*
X164642812Y-83250130D01*
X164538192Y-83383148D01*
X164423901Y-83498611D01*
X164319859Y-83580784D01*
X164165987Y-83674976D01*
X164008850Y-83746117D01*
X163844533Y-83795485D01*
X163669120Y-83824361D01*
X163549249Y-83832677D01*
X163357904Y-83830237D01*
X163180520Y-83807847D01*
X163014360Y-83764697D01*
X162856684Y-83699976D01*
X162704754Y-83612873D01*
X162629656Y-83560354D01*
X162543279Y-83490257D01*
X162465018Y-83412860D01*
X162389697Y-83322508D01*
X162312140Y-83213544D01*
X162311836Y-83213091D01*
X162223471Y-83069280D01*
X162155863Y-82931125D01*
X162107104Y-82792816D01*
X162075288Y-82648540D01*
X162058507Y-82492485D01*
X162055794Y-82432750D01*
X162056202Y-82289015D01*
G37*
X162056202Y-82289015D02*
X162067989Y-82159238D01*
X162092571Y-82034011D01*
X162131370Y-81903924D01*
X162138774Y-81882646D01*
X162175060Y-81794058D01*
X162221388Y-81702180D01*
X162274513Y-81611956D01*
X162331190Y-81528331D01*
X162388175Y-81456248D01*
X162442222Y-81400651D01*
X162469267Y-81379069D01*
X162499201Y-81359713D01*
X162526027Y-81348195D01*
X162558058Y-81342514D01*
X162603609Y-81340665D01*
X162629205Y-81340550D01*
X162684641Y-81341618D01*
X162725773Y-81346557D01*
X162763446Y-81357972D01*
X162808501Y-81378469D01*
X162828181Y-81388351D01*
X162912179Y-81436535D01*
X162994706Y-81493869D01*
X163069729Y-81555517D01*
X163131213Y-81616642D01*
X163163209Y-81656881D01*
X163202050Y-81731020D01*
X163217720Y-81808138D01*
X163210074Y-81889734D01*
X163178968Y-81977306D01*
X163124257Y-82072355D01*
X163123047Y-82074155D01*
X163082953Y-82135015D01*
X163055388Y-82182371D01*
X163038020Y-82223315D01*
X163028514Y-82264940D01*
X163024535Y-82314339D01*
X163023750Y-82375868D01*
X163024306Y-82437748D01*
X163026955Y-82482046D01*
X163033170Y-82516571D01*
X163044422Y-82549133D01*
X163062183Y-82587541D01*
X163064557Y-82592375D01*
X163125123Y-82689611D01*
X163200251Y-82766850D01*
X163287959Y-82823074D01*
X163386265Y-82857264D01*
X163493186Y-82868400D01*
X163584952Y-82859786D01*
X163688052Y-82830322D01*
X163775909Y-82781090D01*
X163849517Y-82711292D01*
X163909872Y-82620131D01*
X163926942Y-82585458D01*
X163958492Y-82486860D01*
X163967108Y-82382258D01*
X163953185Y-82275689D01*
X163917120Y-82171193D01*
X163879621Y-82102550D01*
X163825585Y-82008890D01*
X163792123Y-81926756D01*
X163779459Y-81852470D01*
X163787820Y-81782355D01*
X163817431Y-81712731D01*
X163868520Y-81639923D01*
X163911000Y-81591654D01*
X164010122Y-81495042D01*
X164105757Y-81420544D01*
X164196897Y-81368766D01*
X164282533Y-81340316D01*
X164338200Y-81334603D01*
X164410766Y-81342952D01*
X164479183Y-81368762D01*
X164545665Y-81413678D01*
X164612428Y-81479346D01*
X164681688Y-81567412D01*
X164713105Y-81613050D01*
X164785661Y-81731376D01*
X164841195Y-81845022D01*
X164881561Y-81960099D01*
X164908617Y-82082718D01*
X164924218Y-82218987D01*
X164929290Y-82324800D01*
X164930608Y-82428880D01*
X164928223Y-82512990D01*
X164921897Y-82582320D01*
X164915681Y-82621279D01*
X164874198Y-82785131D01*
X164813261Y-82947182D01*
X164735318Y-83103495D01*
X164642812Y-83250130D01*
X164538192Y-83383148D01*
X164423901Y-83498611D01*
X164319859Y-83580784D01*
X164165987Y-83674976D01*
X164008850Y-83746117D01*
X163844533Y-83795485D01*
X163669120Y-83824361D01*
X163549249Y-83832677D01*
X163357904Y-83830237D01*
X163180520Y-83807847D01*
X163014360Y-83764697D01*
X162856684Y-83699976D01*
X162704754Y-83612873D01*
X162629656Y-83560354D01*
X162543279Y-83490257D01*
X162465018Y-83412860D01*
X162389697Y-83322508D01*
X162312140Y-83213544D01*
X162311836Y-83213091D01*
X162223471Y-83069280D01*
X162155863Y-82931125D01*
X162107104Y-82792816D01*
X162075288Y-82648540D01*
X162058507Y-82492485D01*
X162055794Y-82432750D01*
X162056202Y-82289015D01*
G36*
X165303394Y-71176457D02*
G01*
X165303400Y-71091026D01*
X165303376Y-70891112D01*
X165303375Y-70715016D01*
X165303499Y-70561156D01*
X165303850Y-70427951D01*
X165304531Y-70313817D01*
X165305644Y-70217173D01*
X165307292Y-70136438D01*
X165309577Y-70070028D01*
X165312602Y-70016363D01*
X165316469Y-69973861D01*
X165321281Y-69940938D01*
X165327140Y-69916014D01*
X165334150Y-69897507D01*
X165342411Y-69883834D01*
X165352028Y-69873413D01*
X165363102Y-69864663D01*
X165375736Y-69856002D01*
X165383800Y-69850410D01*
X165433381Y-69828302D01*
X165500867Y-69817711D01*
X165581381Y-69818915D01*
X165670051Y-69832195D01*
X165676803Y-69833665D01*
X165800060Y-69871867D01*
X165907737Y-69928434D01*
X166000161Y-70003838D01*
X166077661Y-70098556D01*
X166140565Y-70213061D01*
X166189199Y-70347830D01*
X166223893Y-70503336D01*
X166242784Y-70653500D01*
X166246835Y-70716464D01*
X166249948Y-70799571D01*
X166252127Y-70897723D01*
X166253379Y-71005822D01*
X166253706Y-71118769D01*
X166253114Y-71231465D01*
X166251606Y-71338811D01*
X166249189Y-71435708D01*
X166245865Y-71517057D01*
X166241968Y-71574250D01*
X166218065Y-71736053D01*
X166177893Y-71880803D01*
X166122167Y-72007740D01*
X166051598Y-72116104D01*
X165966899Y-72205137D01*
X165868785Y-72274079D01*
X165757966Y-72322171D01*
X165635156Y-72348653D01*
X165510790Y-72353221D01*
X165456672Y-72350010D01*
X165420819Y-72344535D01*
X165396095Y-72334932D01*
X165375369Y-72319333D01*
X165373058Y-72317200D01*
X165361186Y-72306443D01*
X165350742Y-72296682D01*
X165341635Y-72286309D01*
X165333774Y-72273717D01*
X165327068Y-72257297D01*
X165321425Y-72235442D01*
X165316754Y-72206544D01*
X165312963Y-72168996D01*
X165309961Y-72121188D01*
X165307657Y-72061513D01*
X165305959Y-71988364D01*
X165304777Y-71900132D01*
X165304018Y-71795210D01*
X165303592Y-71671989D01*
X165303407Y-71528862D01*
X165303372Y-71364220D01*
X165303394Y-71176457D01*
G37*
X165303394Y-71176457D02*
X165303400Y-71091026D01*
X165303376Y-70891112D01*
X165303375Y-70715016D01*
X165303499Y-70561156D01*
X165303850Y-70427951D01*
X165304531Y-70313817D01*
X165305644Y-70217173D01*
X165307292Y-70136438D01*
X165309577Y-70070028D01*
X165312602Y-70016363D01*
X165316469Y-69973861D01*
X165321281Y-69940938D01*
X165327140Y-69916014D01*
X165334150Y-69897507D01*
X165342411Y-69883834D01*
X165352028Y-69873413D01*
X165363102Y-69864663D01*
X165375736Y-69856002D01*
X165383800Y-69850410D01*
X165433381Y-69828302D01*
X165500867Y-69817711D01*
X165581381Y-69818915D01*
X165670051Y-69832195D01*
X165676803Y-69833665D01*
X165800060Y-69871867D01*
X165907737Y-69928434D01*
X166000161Y-70003838D01*
X166077661Y-70098556D01*
X166140565Y-70213061D01*
X166189199Y-70347830D01*
X166223893Y-70503336D01*
X166242784Y-70653500D01*
X166246835Y-70716464D01*
X166249948Y-70799571D01*
X166252127Y-70897723D01*
X166253379Y-71005822D01*
X166253706Y-71118769D01*
X166253114Y-71231465D01*
X166251606Y-71338811D01*
X166249189Y-71435708D01*
X166245865Y-71517057D01*
X166241968Y-71574250D01*
X166218065Y-71736053D01*
X166177893Y-71880803D01*
X166122167Y-72007740D01*
X166051598Y-72116104D01*
X165966899Y-72205137D01*
X165868785Y-72274079D01*
X165757966Y-72322171D01*
X165635156Y-72348653D01*
X165510790Y-72353221D01*
X165456672Y-72350010D01*
X165420819Y-72344535D01*
X165396095Y-72334932D01*
X165375369Y-72319333D01*
X165373058Y-72317200D01*
X165361186Y-72306443D01*
X165350742Y-72296682D01*
X165341635Y-72286309D01*
X165333774Y-72273717D01*
X165327068Y-72257297D01*
X165321425Y-72235442D01*
X165316754Y-72206544D01*
X165312963Y-72168996D01*
X165309961Y-72121188D01*
X165307657Y-72061513D01*
X165305959Y-71988364D01*
X165304777Y-71900132D01*
X165304018Y-71795210D01*
X165303592Y-71671989D01*
X165303407Y-71528862D01*
X165303372Y-71364220D01*
X165303394Y-71176457D01*
G36*
X165306375Y-74162966D02*
G01*
X165309750Y-73022050D01*
X165338485Y-72981765D01*
X165373599Y-72947823D01*
X165421502Y-72920810D01*
X165425871Y-72919080D01*
X165456912Y-72908619D01*
X165486010Y-72903420D01*
X165520810Y-72903159D01*
X165568956Y-72907513D01*
X165602702Y-72911607D01*
X165706560Y-72929638D01*
X165794281Y-72956817D01*
X165874404Y-72996263D01*
X165926133Y-73029734D01*
X166015372Y-73107825D01*
X166090448Y-73206912D01*
X166151304Y-73326865D01*
X166197883Y-73467556D01*
X166230126Y-73628856D01*
X166242932Y-73739600D01*
X166246953Y-73802893D01*
X166250036Y-73886435D01*
X166252186Y-73985094D01*
X166253408Y-74093737D01*
X166253706Y-74207231D01*
X166253085Y-74320445D01*
X166251552Y-74428244D01*
X166249110Y-74525496D01*
X166245765Y-74607068D01*
X166242033Y-74662314D01*
X166218240Y-74828414D01*
X166178281Y-74975147D01*
X166122241Y-75102415D01*
X166050205Y-75210118D01*
X165962258Y-75298157D01*
X165858486Y-75366434D01*
X165738974Y-75414849D01*
X165603807Y-75443302D01*
X165566839Y-75447353D01*
X165483615Y-75448318D01*
X165418344Y-75433570D01*
X165368181Y-75401979D01*
X165330938Y-75353589D01*
X165303000Y-75303881D01*
X165306375Y-74162966D01*
G37*
X165306375Y-74162966D02*
X165309750Y-73022050D01*
X165338485Y-72981765D01*
X165373599Y-72947823D01*
X165421502Y-72920810D01*
X165425871Y-72919080D01*
X165456912Y-72908619D01*
X165486010Y-72903420D01*
X165520810Y-72903159D01*
X165568956Y-72907513D01*
X165602702Y-72911607D01*
X165706560Y-72929638D01*
X165794281Y-72956817D01*
X165874404Y-72996263D01*
X165926133Y-73029734D01*
X166015372Y-73107825D01*
X166090448Y-73206912D01*
X166151304Y-73326865D01*
X166197883Y-73467556D01*
X166230126Y-73628856D01*
X166242932Y-73739600D01*
X166246953Y-73802893D01*
X166250036Y-73886435D01*
X166252186Y-73985094D01*
X166253408Y-74093737D01*
X166253706Y-74207231D01*
X166253085Y-74320445D01*
X166251552Y-74428244D01*
X166249110Y-74525496D01*
X166245765Y-74607068D01*
X166242033Y-74662314D01*
X166218240Y-74828414D01*
X166178281Y-74975147D01*
X166122241Y-75102415D01*
X166050205Y-75210118D01*
X165962258Y-75298157D01*
X165858486Y-75366434D01*
X165738974Y-75414849D01*
X165603807Y-75443302D01*
X165566839Y-75447353D01*
X165483615Y-75448318D01*
X165418344Y-75433570D01*
X165368181Y-75401979D01*
X165330938Y-75353589D01*
X165303000Y-75303881D01*
X165306375Y-74162966D01*
D12*
X140700000Y-60800000D02*
X140700000Y-66750000D01*
X140700000Y-66750000D02*
X158300000Y-66750000D01*
X158300000Y-66750000D02*
X158300000Y-60800000D01*
X158300000Y-60800000D02*
X140700000Y-60800000D01*
X144000000Y-60800000D02*
X144000000Y-61550000D01*
X144000000Y-61550000D02*
X155000000Y-61550000D01*
X155000000Y-61550000D02*
X155000000Y-60800000D01*
X155000000Y-60800000D02*
X144000000Y-60800000D01*
X140700000Y-60800000D02*
X140700000Y-61550000D01*
X140700000Y-61550000D02*
X142500000Y-61550000D01*
X142500000Y-61550000D02*
X142500000Y-60800000D01*
X142500000Y-60800000D02*
X140700000Y-60800000D01*
X156500000Y-60800000D02*
X156500000Y-61550000D01*
X156500000Y-61550000D02*
X158300000Y-61550000D01*
X158300000Y-61550000D02*
X158300000Y-60800000D01*
X158300000Y-60800000D02*
X156500000Y-60800000D01*
X140700000Y-63050000D02*
X141450000Y-63050000D01*
X141450000Y-63050000D02*
X141450000Y-66000000D01*
X141450000Y-66000000D02*
X149500000Y-66000000D01*
X158300000Y-63050000D02*
X157550000Y-63050000D01*
X157550000Y-63050000D02*
X157550000Y-66000000D01*
X157550000Y-66000000D02*
X149500000Y-66000000D01*
X142900000Y-60500000D02*
X140400000Y-60500000D01*
X140400000Y-60500000D02*
X140400000Y-63000000D01*
X153800000Y-105650000D02*
X153800000Y-97900000D01*
X145200000Y-105650000D02*
X145200000Y-97900000D01*
X153800000Y-105650000D02*
X145200000Y-105650000D01*
X153800000Y-97900000D02*
X145200000Y-97900000D01*
X140400000Y-72000000D02*
X140400000Y-74500000D01*
X142900000Y-72000000D02*
X140400000Y-72000000D01*
X157550000Y-77500000D02*
X149500000Y-77500000D01*
X157550000Y-74550000D02*
X157550000Y-77500000D01*
X158300000Y-74550000D02*
X157550000Y-74550000D01*
X141450000Y-77500000D02*
X149500000Y-77500000D01*
X141450000Y-74550000D02*
X141450000Y-77500000D01*
X140700000Y-74550000D02*
X141450000Y-74550000D01*
X158300000Y-72300000D02*
X156500000Y-72300000D01*
X158300000Y-73050000D02*
X158300000Y-72300000D01*
X156500000Y-73050000D02*
X158300000Y-73050000D01*
X156500000Y-72300000D02*
X156500000Y-73050000D01*
X142500000Y-72300000D02*
X140700000Y-72300000D01*
X142500000Y-73050000D02*
X142500000Y-72300000D01*
X140700000Y-73050000D02*
X142500000Y-73050000D01*
X140700000Y-72300000D02*
X140700000Y-73050000D01*
X155000000Y-72300000D02*
X144000000Y-72300000D01*
X155000000Y-73050000D02*
X155000000Y-72300000D01*
X144000000Y-73050000D02*
X155000000Y-73050000D01*
X144000000Y-72300000D02*
X144000000Y-73050000D01*
X158300000Y-72300000D02*
X140700000Y-72300000D01*
X158300000Y-78250000D02*
X158300000Y-72300000D01*
X140700000Y-78250000D02*
X158300000Y-78250000D01*
X140700000Y-72300000D02*
X140700000Y-78250000D01*
X127420000Y-61920000D02*
X128750000Y-61920000D01*
X127420000Y-63250000D02*
X127420000Y-61920000D01*
X127420000Y-64520000D02*
X130080000Y-64520000D01*
X130080000Y-64520000D02*
X130080000Y-100140000D01*
X127420000Y-64520000D02*
X127420000Y-100140000D01*
X127420000Y-100140000D02*
X130080000Y-100140000D01*
X168420000Y-100140000D02*
X171080000Y-100140000D01*
X168420000Y-64520000D02*
X168420000Y-100140000D01*
X171080000Y-64520000D02*
X171080000Y-100140000D01*
X168420000Y-64520000D02*
X171080000Y-64520000D01*
X168420000Y-63250000D02*
X168420000Y-61920000D01*
X168420000Y-61920000D02*
X169750000Y-61920000D01*
X146050000Y-91570000D02*
X146050000Y-93070000D01*
X146050000Y-93070000D02*
X146320000Y-93070000D01*
X146320000Y-93070000D02*
X146320000Y-95900000D01*
X152950000Y-91570000D02*
X152950000Y-93070000D01*
X152950000Y-93070000D02*
X152680000Y-93070000D01*
X152680000Y-93070000D02*
X152680000Y-94170000D01*
D13*
X148761904Y-60202380D02*
X148761904Y-59202380D01*
X149142857Y-59202380D01*
X149238095Y-59250000D01*
X149285714Y-59297619D01*
X149333333Y-59392857D01*
X149333333Y-59535714D01*
X149285714Y-59630952D01*
X149238095Y-59678571D01*
X149142857Y-59726190D01*
X148761904Y-59726190D01*
X150285714Y-60202380D02*
X149714285Y-60202380D01*
X150000000Y-60202380D02*
X150000000Y-59202380D01*
X149904761Y-59345238D01*
X149809523Y-59440476D01*
X149714285Y-59488095D01*
X154761904Y-97952380D02*
X154761904Y-96952380D01*
X155142857Y-96952380D01*
X155238095Y-97000000D01*
X155285714Y-97047619D01*
X155333333Y-97142857D01*
X155333333Y-97285714D01*
X155285714Y-97380952D01*
X155238095Y-97428571D01*
X155142857Y-97476190D01*
X154761904Y-97476190D01*
X155714285Y-97047619D02*
X155761904Y-97000000D01*
X155857142Y-96952380D01*
X156095238Y-96952380D01*
X156190476Y-97000000D01*
X156238095Y-97047619D01*
X156285714Y-97142857D01*
X156285714Y-97238095D01*
X156238095Y-97380952D01*
X155666666Y-97952380D01*
X156285714Y-97952380D01*
X148761904Y-71702380D02*
X148761904Y-70702380D01*
X149142857Y-70702380D01*
X149238095Y-70750000D01*
X149285714Y-70797619D01*
X149333333Y-70892857D01*
X149333333Y-71035714D01*
X149285714Y-71130952D01*
X149238095Y-71178571D01*
X149142857Y-71226190D01*
X148761904Y-71226190D01*
X149666666Y-70702380D02*
X150285714Y-70702380D01*
X149952380Y-71083333D01*
X150095238Y-71083333D01*
X150190476Y-71130952D01*
X150238095Y-71178571D01*
X150285714Y-71273809D01*
X150285714Y-71511904D01*
X150238095Y-71607142D01*
X150190476Y-71654761D01*
X150095238Y-71702380D01*
X149809523Y-71702380D01*
X149714285Y-71654761D01*
X149666666Y-71607142D01*
X128011904Y-61372380D02*
X128011904Y-60372380D01*
X128392857Y-60372380D01*
X128488095Y-60420000D01*
X128535714Y-60467619D01*
X128583333Y-60562857D01*
X128583333Y-60705714D01*
X128535714Y-60800952D01*
X128488095Y-60848571D01*
X128392857Y-60896190D01*
X128011904Y-60896190D01*
X129440476Y-60705714D02*
X129440476Y-61372380D01*
X129202380Y-60324761D02*
X128964285Y-61039047D01*
X129583333Y-61039047D01*
X169011904Y-61372380D02*
X169011904Y-60372380D01*
X169392857Y-60372380D01*
X169488095Y-60420000D01*
X169535714Y-60467619D01*
X169583333Y-60562857D01*
X169583333Y-60705714D01*
X169535714Y-60800952D01*
X169488095Y-60848571D01*
X169392857Y-60896190D01*
X169011904Y-60896190D01*
X170488095Y-60372380D02*
X170011904Y-60372380D01*
X169964285Y-60848571D01*
X170011904Y-60800952D01*
X170107142Y-60753333D01*
X170345238Y-60753333D01*
X170440476Y-60800952D01*
X170488095Y-60848571D01*
X170535714Y-60943809D01*
X170535714Y-61181904D01*
X170488095Y-61277142D01*
X170440476Y-61324761D01*
X170345238Y-61372380D01*
X170107142Y-61372380D01*
X170011904Y-61324761D01*
X169964285Y-61277142D01*
X145547619Y-90695238D02*
X145500000Y-90790476D01*
X145404761Y-90885714D01*
X145261904Y-91028571D01*
X145214285Y-91123809D01*
X145214285Y-91219047D01*
X145452380Y-91171428D02*
X145404761Y-91266666D01*
X145309523Y-91361904D01*
X145119047Y-91409523D01*
X144785714Y-91409523D01*
X144595238Y-91361904D01*
X144500000Y-91266666D01*
X144452380Y-91171428D01*
X144452380Y-90980952D01*
X144500000Y-90885714D01*
X144595238Y-90790476D01*
X144785714Y-90742857D01*
X145119047Y-90742857D01*
X145309523Y-90790476D01*
X145404761Y-90885714D01*
X145452380Y-90980952D01*
X145452380Y-91171428D01*
X145452380Y-89790476D02*
X145452380Y-90361904D01*
X145452380Y-90076190D02*
X144452380Y-90076190D01*
X144595238Y-90171428D01*
X144690476Y-90266666D01*
X144738095Y-90361904D01*
M02*
