%TF.GenerationSoftware,KiCad,Pcbnew,5.1.5+dfsg1-2build2*%
%TF.CreationDate,2021-01-24T20:27:35+01:00*%
%TF.ProjectId,PlacaStepperShield,506c6163-6153-4746-9570-706572536869,rev?*%
%TF.SameCoordinates,Original*%
%TF.FileFunction,Copper,L2,Bot*%
%TF.FilePolarity,Positive*%
%FSLAX46Y46*%
G04 Gerber Fmt 4.6, Leading zero omitted, Abs format (unit mm)*
G04 Created by KiCad (PCBNEW 5.1.5+dfsg1-2build2) date 2021-01-24 20:27:35*
%MOMM*%
%LPD*%
G04 APERTURE LIST*
%ADD10R,1.750000X1.750000*%
%ADD11C,1.750000*%
%ADD12C,1.600000*%
%ADD13O,1.700000X1.700000*%
%ADD14R,1.700000X1.700000*%
%ADD15C,0.685800*%
%ADD16C,0.500000*%
%ADD17C,0.254000*%
G04 APERTURE END LIST*
D10*
X143250000Y-63250000D03*
D11*
X145750000Y-63250000D03*
X148250000Y-63250000D03*
X150750000Y-63250000D03*
X153250000Y-63250000D03*
X155750000Y-63250000D03*
D12*
X149500000Y-103000000D03*
X149500000Y-100000000D03*
D11*
X155750000Y-74750000D03*
X153250000Y-74750000D03*
X150750000Y-74750000D03*
X148250000Y-74750000D03*
X145750000Y-74750000D03*
D10*
X143250000Y-74750000D03*
D13*
X128750000Y-98810000D03*
X128750000Y-96270000D03*
X128750000Y-93730000D03*
X128750000Y-91190000D03*
X128750000Y-88650000D03*
X128750000Y-86110000D03*
X128750000Y-83570000D03*
X128750000Y-81030000D03*
X128750000Y-78490000D03*
X128750000Y-75950000D03*
X128750000Y-73410000D03*
X128750000Y-70870000D03*
X128750000Y-68330000D03*
X128750000Y-65790000D03*
D14*
X128750000Y-63250000D03*
X169750000Y-63250000D03*
D13*
X169750000Y-65790000D03*
X169750000Y-68330000D03*
X169750000Y-70870000D03*
X169750000Y-73410000D03*
X169750000Y-75950000D03*
X169750000Y-78490000D03*
X169750000Y-81030000D03*
X169750000Y-83570000D03*
X169750000Y-86110000D03*
X169750000Y-88650000D03*
X169750000Y-91190000D03*
X169750000Y-93730000D03*
X169750000Y-96270000D03*
X169750000Y-98810000D03*
D15*
X133000000Y-70750000D03*
X136500000Y-67000000D03*
X146250000Y-66750000D03*
X149250000Y-66250000D03*
X137000000Y-75750000D03*
X139750000Y-75750000D03*
X143000000Y-86250000D03*
X144000000Y-88750000D03*
X160750000Y-82750000D03*
X160250000Y-89500000D03*
X163750000Y-87250000D03*
X165250000Y-78750000D03*
X156500000Y-70000000D03*
X158750000Y-68000000D03*
X144250000Y-93500000D03*
D16*
X128750000Y-78490000D02*
X134740000Y-78490000D01*
X137250000Y-81000000D02*
X137250000Y-86500000D01*
X134740000Y-78490000D02*
X137250000Y-81000000D01*
X144250000Y-93500000D02*
X137250000Y-86500000D01*
D17*
G36*
X172724427Y-54366549D02*
G01*
X172940309Y-54431728D01*
X173139421Y-54537598D01*
X173314171Y-54680121D01*
X173457917Y-54853880D01*
X173565172Y-55052243D01*
X173631855Y-55267661D01*
X173657100Y-55507854D01*
X173657101Y-107483214D01*
X173633450Y-107724430D01*
X173568272Y-107940309D01*
X173462402Y-108139421D01*
X173319877Y-108314174D01*
X173146121Y-108457917D01*
X172947757Y-108565172D01*
X172732339Y-108631855D01*
X172492146Y-108657100D01*
X126266776Y-108657100D01*
X126025570Y-108633450D01*
X125809691Y-108568272D01*
X125610579Y-108462402D01*
X125435826Y-108319877D01*
X125292083Y-108146121D01*
X125184828Y-107947757D01*
X125118145Y-107732339D01*
X125092900Y-107492146D01*
X125092900Y-104804889D01*
X126769000Y-104804889D01*
X126769000Y-105195111D01*
X126845129Y-105577836D01*
X126994461Y-105938355D01*
X127211257Y-106262814D01*
X127487186Y-106538743D01*
X127811645Y-106755539D01*
X128172164Y-106904871D01*
X128554889Y-106981000D01*
X128945111Y-106981000D01*
X129327836Y-106904871D01*
X129688355Y-106755539D01*
X130012814Y-106538743D01*
X130288743Y-106262814D01*
X130505539Y-105938355D01*
X130654871Y-105577836D01*
X130731000Y-105195111D01*
X130731000Y-104804889D01*
X167769000Y-104804889D01*
X167769000Y-105195111D01*
X167845129Y-105577836D01*
X167994461Y-105938355D01*
X168211257Y-106262814D01*
X168487186Y-106538743D01*
X168811645Y-106755539D01*
X169172164Y-106904871D01*
X169554889Y-106981000D01*
X169945111Y-106981000D01*
X170327836Y-106904871D01*
X170688355Y-106755539D01*
X171012814Y-106538743D01*
X171288743Y-106262814D01*
X171505539Y-105938355D01*
X171654871Y-105577836D01*
X171731000Y-105195111D01*
X171731000Y-104804889D01*
X171654871Y-104422164D01*
X171505539Y-104061645D01*
X171288743Y-103737186D01*
X171012814Y-103461257D01*
X170688355Y-103244461D01*
X170327836Y-103095129D01*
X169945111Y-103019000D01*
X169554889Y-103019000D01*
X169172164Y-103095129D01*
X168811645Y-103244461D01*
X168487186Y-103461257D01*
X168211257Y-103737186D01*
X167994461Y-104061645D01*
X167845129Y-104422164D01*
X167769000Y-104804889D01*
X130731000Y-104804889D01*
X130654871Y-104422164D01*
X130505539Y-104061645D01*
X130288743Y-103737186D01*
X130012814Y-103461257D01*
X129688355Y-103244461D01*
X129327836Y-103095129D01*
X128945111Y-103019000D01*
X128554889Y-103019000D01*
X128172164Y-103095129D01*
X127811645Y-103244461D01*
X127487186Y-103461257D01*
X127211257Y-103737186D01*
X126994461Y-104061645D01*
X126845129Y-104422164D01*
X126769000Y-104804889D01*
X125092900Y-104804889D01*
X125092900Y-102883682D01*
X148319000Y-102883682D01*
X148319000Y-103116318D01*
X148364386Y-103344485D01*
X148453412Y-103559413D01*
X148582658Y-103752843D01*
X148747157Y-103917342D01*
X148940587Y-104046588D01*
X149155515Y-104135614D01*
X149383682Y-104181000D01*
X149616318Y-104181000D01*
X149844485Y-104135614D01*
X150059413Y-104046588D01*
X150252843Y-103917342D01*
X150417342Y-103752843D01*
X150546588Y-103559413D01*
X150635614Y-103344485D01*
X150681000Y-103116318D01*
X150681000Y-102883682D01*
X150635614Y-102655515D01*
X150546588Y-102440587D01*
X150417342Y-102247157D01*
X150252843Y-102082658D01*
X150059413Y-101953412D01*
X149844485Y-101864386D01*
X149616318Y-101819000D01*
X149383682Y-101819000D01*
X149155515Y-101864386D01*
X148940587Y-101953412D01*
X148747157Y-102082658D01*
X148582658Y-102247157D01*
X148453412Y-102440587D01*
X148364386Y-102655515D01*
X148319000Y-102883682D01*
X125092900Y-102883682D01*
X125092900Y-98688757D01*
X127519000Y-98688757D01*
X127519000Y-98931243D01*
X127566307Y-99169069D01*
X127659102Y-99393097D01*
X127793820Y-99594717D01*
X127965283Y-99766180D01*
X128166903Y-99900898D01*
X128390931Y-99993693D01*
X128628757Y-100041000D01*
X128871243Y-100041000D01*
X129109069Y-99993693D01*
X129333097Y-99900898D01*
X129534717Y-99766180D01*
X129706180Y-99594717D01*
X129840898Y-99393097D01*
X129933693Y-99169069D01*
X129981000Y-98931243D01*
X129981000Y-98908304D01*
X145569000Y-98908304D01*
X145569000Y-99091696D01*
X145604778Y-99271563D01*
X145674958Y-99440994D01*
X145776845Y-99593478D01*
X145906522Y-99723155D01*
X146059006Y-99825042D01*
X146228437Y-99895222D01*
X146408304Y-99931000D01*
X146591696Y-99931000D01*
X146771563Y-99895222D01*
X146799423Y-99883682D01*
X148319000Y-99883682D01*
X148319000Y-100116318D01*
X148364386Y-100344485D01*
X148453412Y-100559413D01*
X148582658Y-100752843D01*
X148747157Y-100917342D01*
X148940587Y-101046588D01*
X149155515Y-101135614D01*
X149383682Y-101181000D01*
X149616318Y-101181000D01*
X149844485Y-101135614D01*
X150059413Y-101046588D01*
X150252843Y-100917342D01*
X150417342Y-100752843D01*
X150546588Y-100559413D01*
X150635614Y-100344485D01*
X150681000Y-100116318D01*
X150681000Y-99883682D01*
X150635614Y-99655515D01*
X150546588Y-99440587D01*
X150417342Y-99247157D01*
X150252843Y-99082658D01*
X150081701Y-98968304D01*
X151569000Y-98968304D01*
X151569000Y-99151696D01*
X151604778Y-99331563D01*
X151674958Y-99500994D01*
X151776845Y-99653478D01*
X151906522Y-99783155D01*
X152059006Y-99885042D01*
X152228437Y-99955222D01*
X152408304Y-99991000D01*
X152591696Y-99991000D01*
X152771563Y-99955222D01*
X152940994Y-99885042D01*
X153093478Y-99783155D01*
X153223155Y-99653478D01*
X153325042Y-99500994D01*
X153395222Y-99331563D01*
X153431000Y-99151696D01*
X153431000Y-98968304D01*
X153395222Y-98788437D01*
X153353934Y-98688757D01*
X168519000Y-98688757D01*
X168519000Y-98931243D01*
X168566307Y-99169069D01*
X168659102Y-99393097D01*
X168793820Y-99594717D01*
X168965283Y-99766180D01*
X169166903Y-99900898D01*
X169390931Y-99993693D01*
X169628757Y-100041000D01*
X169871243Y-100041000D01*
X170109069Y-99993693D01*
X170333097Y-99900898D01*
X170534717Y-99766180D01*
X170706180Y-99594717D01*
X170840898Y-99393097D01*
X170933693Y-99169069D01*
X170981000Y-98931243D01*
X170981000Y-98688757D01*
X170933693Y-98450931D01*
X170840898Y-98226903D01*
X170706180Y-98025283D01*
X170534717Y-97853820D01*
X170333097Y-97719102D01*
X170109069Y-97626307D01*
X169871243Y-97579000D01*
X169628757Y-97579000D01*
X169390931Y-97626307D01*
X169166903Y-97719102D01*
X168965283Y-97853820D01*
X168793820Y-98025283D01*
X168659102Y-98226903D01*
X168566307Y-98450931D01*
X168519000Y-98688757D01*
X153353934Y-98688757D01*
X153325042Y-98619006D01*
X153223155Y-98466522D01*
X153093478Y-98336845D01*
X152940994Y-98234958D01*
X152771563Y-98164778D01*
X152591696Y-98129000D01*
X152408304Y-98129000D01*
X152228437Y-98164778D01*
X152059006Y-98234958D01*
X151906522Y-98336845D01*
X151776845Y-98466522D01*
X151674958Y-98619006D01*
X151604778Y-98788437D01*
X151569000Y-98968304D01*
X150081701Y-98968304D01*
X150059413Y-98953412D01*
X149844485Y-98864386D01*
X149616318Y-98819000D01*
X149383682Y-98819000D01*
X149155515Y-98864386D01*
X148940587Y-98953412D01*
X148747157Y-99082658D01*
X148582658Y-99247157D01*
X148453412Y-99440587D01*
X148364386Y-99655515D01*
X148319000Y-99883682D01*
X146799423Y-99883682D01*
X146940994Y-99825042D01*
X147093478Y-99723155D01*
X147223155Y-99593478D01*
X147325042Y-99440994D01*
X147395222Y-99271563D01*
X147431000Y-99091696D01*
X147431000Y-98908304D01*
X147395222Y-98728437D01*
X147325042Y-98559006D01*
X147223155Y-98406522D01*
X147093478Y-98276845D01*
X146940994Y-98174958D01*
X146771563Y-98104778D01*
X146591696Y-98069000D01*
X146408304Y-98069000D01*
X146228437Y-98104778D01*
X146059006Y-98174958D01*
X145906522Y-98276845D01*
X145776845Y-98406522D01*
X145674958Y-98559006D01*
X145604778Y-98728437D01*
X145569000Y-98908304D01*
X129981000Y-98908304D01*
X129981000Y-98688757D01*
X129933693Y-98450931D01*
X129840898Y-98226903D01*
X129706180Y-98025283D01*
X129534717Y-97853820D01*
X129333097Y-97719102D01*
X129109069Y-97626307D01*
X128871243Y-97579000D01*
X128628757Y-97579000D01*
X128390931Y-97626307D01*
X128166903Y-97719102D01*
X127965283Y-97853820D01*
X127793820Y-98025283D01*
X127659102Y-98226903D01*
X127566307Y-98450931D01*
X127519000Y-98688757D01*
X125092900Y-98688757D01*
X125092900Y-96148757D01*
X127519000Y-96148757D01*
X127519000Y-96391243D01*
X127566307Y-96629069D01*
X127659102Y-96853097D01*
X127793820Y-97054717D01*
X127965283Y-97226180D01*
X128166903Y-97360898D01*
X128390931Y-97453693D01*
X128628757Y-97501000D01*
X128871243Y-97501000D01*
X129109069Y-97453693D01*
X129333097Y-97360898D01*
X129534717Y-97226180D01*
X129706180Y-97054717D01*
X129840898Y-96853097D01*
X129933693Y-96629069D01*
X129981000Y-96391243D01*
X129981000Y-96148757D01*
X168519000Y-96148757D01*
X168519000Y-96391243D01*
X168566307Y-96629069D01*
X168659102Y-96853097D01*
X168793820Y-97054717D01*
X168965283Y-97226180D01*
X169166903Y-97360898D01*
X169390931Y-97453693D01*
X169628757Y-97501000D01*
X169871243Y-97501000D01*
X170109069Y-97453693D01*
X170333097Y-97360898D01*
X170534717Y-97226180D01*
X170706180Y-97054717D01*
X170840898Y-96853097D01*
X170933693Y-96629069D01*
X170981000Y-96391243D01*
X170981000Y-96148757D01*
X170933693Y-95910931D01*
X170840898Y-95686903D01*
X170706180Y-95485283D01*
X170534717Y-95313820D01*
X170333097Y-95179102D01*
X170109069Y-95086307D01*
X169871243Y-95039000D01*
X169628757Y-95039000D01*
X169390931Y-95086307D01*
X169166903Y-95179102D01*
X168965283Y-95313820D01*
X168793820Y-95485283D01*
X168659102Y-95686903D01*
X168566307Y-95910931D01*
X168519000Y-96148757D01*
X129981000Y-96148757D01*
X129933693Y-95910931D01*
X129840898Y-95686903D01*
X129706180Y-95485283D01*
X129534717Y-95313820D01*
X129333097Y-95179102D01*
X129109069Y-95086307D01*
X128871243Y-95039000D01*
X128628757Y-95039000D01*
X128390931Y-95086307D01*
X128166903Y-95179102D01*
X127965283Y-95313820D01*
X127793820Y-95485283D01*
X127659102Y-95686903D01*
X127566307Y-95910931D01*
X127519000Y-96148757D01*
X125092900Y-96148757D01*
X125092900Y-93608757D01*
X127519000Y-93608757D01*
X127519000Y-93851243D01*
X127566307Y-94089069D01*
X127659102Y-94313097D01*
X127793820Y-94514717D01*
X127965283Y-94686180D01*
X128166903Y-94820898D01*
X128390931Y-94913693D01*
X128628757Y-94961000D01*
X128871243Y-94961000D01*
X129109069Y-94913693D01*
X129333097Y-94820898D01*
X129534717Y-94686180D01*
X129706180Y-94514717D01*
X129840898Y-94313097D01*
X129933693Y-94089069D01*
X129981000Y-93851243D01*
X129981000Y-93608757D01*
X129933693Y-93370931D01*
X129840898Y-93146903D01*
X129706180Y-92945283D01*
X129534717Y-92773820D01*
X129333097Y-92639102D01*
X129109069Y-92546307D01*
X128871243Y-92499000D01*
X128628757Y-92499000D01*
X128390931Y-92546307D01*
X128166903Y-92639102D01*
X127965283Y-92773820D01*
X127793820Y-92945283D01*
X127659102Y-93146903D01*
X127566307Y-93370931D01*
X127519000Y-93608757D01*
X125092900Y-93608757D01*
X125092900Y-91068757D01*
X127519000Y-91068757D01*
X127519000Y-91311243D01*
X127566307Y-91549069D01*
X127659102Y-91773097D01*
X127793820Y-91974717D01*
X127965283Y-92146180D01*
X128166903Y-92280898D01*
X128390931Y-92373693D01*
X128628757Y-92421000D01*
X128871243Y-92421000D01*
X129109069Y-92373693D01*
X129333097Y-92280898D01*
X129534717Y-92146180D01*
X129706180Y-91974717D01*
X129840898Y-91773097D01*
X129933693Y-91549069D01*
X129981000Y-91311243D01*
X129981000Y-91068757D01*
X129933693Y-90830931D01*
X129840898Y-90606903D01*
X129706180Y-90405283D01*
X129534717Y-90233820D01*
X129333097Y-90099102D01*
X129109069Y-90006307D01*
X128871243Y-89959000D01*
X128628757Y-89959000D01*
X128390931Y-90006307D01*
X128166903Y-90099102D01*
X127965283Y-90233820D01*
X127793820Y-90405283D01*
X127659102Y-90606903D01*
X127566307Y-90830931D01*
X127519000Y-91068757D01*
X125092900Y-91068757D01*
X125092900Y-88528757D01*
X127519000Y-88528757D01*
X127519000Y-88771243D01*
X127566307Y-89009069D01*
X127659102Y-89233097D01*
X127793820Y-89434717D01*
X127965283Y-89606180D01*
X128166903Y-89740898D01*
X128390931Y-89833693D01*
X128628757Y-89881000D01*
X128871243Y-89881000D01*
X129109069Y-89833693D01*
X129333097Y-89740898D01*
X129534717Y-89606180D01*
X129706180Y-89434717D01*
X129840898Y-89233097D01*
X129933693Y-89009069D01*
X129981000Y-88771243D01*
X129981000Y-88528757D01*
X129933693Y-88290931D01*
X129840898Y-88066903D01*
X129706180Y-87865283D01*
X129534717Y-87693820D01*
X129333097Y-87559102D01*
X129109069Y-87466307D01*
X128871243Y-87419000D01*
X128628757Y-87419000D01*
X128390931Y-87466307D01*
X128166903Y-87559102D01*
X127965283Y-87693820D01*
X127793820Y-87865283D01*
X127659102Y-88066903D01*
X127566307Y-88290931D01*
X127519000Y-88528757D01*
X125092900Y-88528757D01*
X125092900Y-85988757D01*
X127519000Y-85988757D01*
X127519000Y-86231243D01*
X127566307Y-86469069D01*
X127659102Y-86693097D01*
X127793820Y-86894717D01*
X127965283Y-87066180D01*
X128166903Y-87200898D01*
X128390931Y-87293693D01*
X128628757Y-87341000D01*
X128871243Y-87341000D01*
X129109069Y-87293693D01*
X129333097Y-87200898D01*
X129534717Y-87066180D01*
X129706180Y-86894717D01*
X129840898Y-86693097D01*
X129933693Y-86469069D01*
X129981000Y-86231243D01*
X129981000Y-85988757D01*
X129933693Y-85750931D01*
X129840898Y-85526903D01*
X129706180Y-85325283D01*
X129534717Y-85153820D01*
X129333097Y-85019102D01*
X129109069Y-84926307D01*
X128871243Y-84879000D01*
X128628757Y-84879000D01*
X128390931Y-84926307D01*
X128166903Y-85019102D01*
X127965283Y-85153820D01*
X127793820Y-85325283D01*
X127659102Y-85526903D01*
X127566307Y-85750931D01*
X127519000Y-85988757D01*
X125092900Y-85988757D01*
X125092900Y-83448757D01*
X127519000Y-83448757D01*
X127519000Y-83691243D01*
X127566307Y-83929069D01*
X127659102Y-84153097D01*
X127793820Y-84354717D01*
X127965283Y-84526180D01*
X128166903Y-84660898D01*
X128390931Y-84753693D01*
X128628757Y-84801000D01*
X128871243Y-84801000D01*
X129109069Y-84753693D01*
X129333097Y-84660898D01*
X129534717Y-84526180D01*
X129706180Y-84354717D01*
X129840898Y-84153097D01*
X129933693Y-83929069D01*
X129981000Y-83691243D01*
X129981000Y-83448757D01*
X129933693Y-83210931D01*
X129840898Y-82986903D01*
X129706180Y-82785283D01*
X129534717Y-82613820D01*
X129333097Y-82479102D01*
X129109069Y-82386307D01*
X128871243Y-82339000D01*
X128628757Y-82339000D01*
X128390931Y-82386307D01*
X128166903Y-82479102D01*
X127965283Y-82613820D01*
X127793820Y-82785283D01*
X127659102Y-82986903D01*
X127566307Y-83210931D01*
X127519000Y-83448757D01*
X125092900Y-83448757D01*
X125092900Y-80908757D01*
X127519000Y-80908757D01*
X127519000Y-81151243D01*
X127566307Y-81389069D01*
X127659102Y-81613097D01*
X127793820Y-81814717D01*
X127965283Y-81986180D01*
X128166903Y-82120898D01*
X128390931Y-82213693D01*
X128628757Y-82261000D01*
X128871243Y-82261000D01*
X129109069Y-82213693D01*
X129333097Y-82120898D01*
X129534717Y-81986180D01*
X129706180Y-81814717D01*
X129840898Y-81613097D01*
X129933693Y-81389069D01*
X129981000Y-81151243D01*
X129981000Y-80908757D01*
X129933693Y-80670931D01*
X129840898Y-80446903D01*
X129706180Y-80245283D01*
X129534717Y-80073820D01*
X129333097Y-79939102D01*
X129109069Y-79846307D01*
X128871243Y-79799000D01*
X128628757Y-79799000D01*
X128390931Y-79846307D01*
X128166903Y-79939102D01*
X127965283Y-80073820D01*
X127793820Y-80245283D01*
X127659102Y-80446903D01*
X127566307Y-80670931D01*
X127519000Y-80908757D01*
X125092900Y-80908757D01*
X125092900Y-78368757D01*
X127519000Y-78368757D01*
X127519000Y-78611243D01*
X127566307Y-78849069D01*
X127659102Y-79073097D01*
X127793820Y-79274717D01*
X127965283Y-79446180D01*
X128166903Y-79580898D01*
X128390931Y-79673693D01*
X128628757Y-79721000D01*
X128871243Y-79721000D01*
X129109069Y-79673693D01*
X129333097Y-79580898D01*
X129534717Y-79446180D01*
X129706180Y-79274717D01*
X129808890Y-79121000D01*
X134478632Y-79121000D01*
X136619000Y-81261369D01*
X136619001Y-86469000D01*
X136615948Y-86500000D01*
X136628130Y-86623697D01*
X136664211Y-86742641D01*
X136722804Y-86852260D01*
X136781897Y-86924265D01*
X136781900Y-86924268D01*
X136801658Y-86948343D01*
X136825733Y-86968101D01*
X143550228Y-93692597D01*
X143553919Y-93711154D01*
X143608488Y-93842895D01*
X143687710Y-93961460D01*
X143788540Y-94062290D01*
X143907105Y-94141512D01*
X144038846Y-94196081D01*
X144178702Y-94223900D01*
X144321298Y-94223900D01*
X144461154Y-94196081D01*
X144592895Y-94141512D01*
X144711460Y-94062290D01*
X144812290Y-93961460D01*
X144891512Y-93842895D01*
X144946081Y-93711154D01*
X144966448Y-93608757D01*
X168519000Y-93608757D01*
X168519000Y-93851243D01*
X168566307Y-94089069D01*
X168659102Y-94313097D01*
X168793820Y-94514717D01*
X168965283Y-94686180D01*
X169166903Y-94820898D01*
X169390931Y-94913693D01*
X169628757Y-94961000D01*
X169871243Y-94961000D01*
X170109069Y-94913693D01*
X170333097Y-94820898D01*
X170534717Y-94686180D01*
X170706180Y-94514717D01*
X170840898Y-94313097D01*
X170933693Y-94089069D01*
X170981000Y-93851243D01*
X170981000Y-93608757D01*
X170933693Y-93370931D01*
X170840898Y-93146903D01*
X170706180Y-92945283D01*
X170534717Y-92773820D01*
X170333097Y-92639102D01*
X170109069Y-92546307D01*
X169871243Y-92499000D01*
X169628757Y-92499000D01*
X169390931Y-92546307D01*
X169166903Y-92639102D01*
X168965283Y-92773820D01*
X168793820Y-92945283D01*
X168659102Y-93146903D01*
X168566307Y-93370931D01*
X168519000Y-93608757D01*
X144966448Y-93608757D01*
X144973900Y-93571298D01*
X144973900Y-93428702D01*
X144946081Y-93288846D01*
X144891512Y-93157105D01*
X144812290Y-93038540D01*
X144711460Y-92937710D01*
X144592895Y-92858488D01*
X144461154Y-92803919D01*
X144442597Y-92800228D01*
X142711126Y-91068757D01*
X168519000Y-91068757D01*
X168519000Y-91311243D01*
X168566307Y-91549069D01*
X168659102Y-91773097D01*
X168793820Y-91974717D01*
X168965283Y-92146180D01*
X169166903Y-92280898D01*
X169390931Y-92373693D01*
X169628757Y-92421000D01*
X169871243Y-92421000D01*
X170109069Y-92373693D01*
X170333097Y-92280898D01*
X170534717Y-92146180D01*
X170706180Y-91974717D01*
X170840898Y-91773097D01*
X170933693Y-91549069D01*
X170981000Y-91311243D01*
X170981000Y-91068757D01*
X170933693Y-90830931D01*
X170840898Y-90606903D01*
X170706180Y-90405283D01*
X170534717Y-90233820D01*
X170333097Y-90099102D01*
X170109069Y-90006307D01*
X169871243Y-89959000D01*
X169628757Y-89959000D01*
X169390931Y-90006307D01*
X169166903Y-90099102D01*
X168965283Y-90233820D01*
X168793820Y-90405283D01*
X168659102Y-90606903D01*
X168566307Y-90830931D01*
X168519000Y-91068757D01*
X142711126Y-91068757D01*
X140171126Y-88528757D01*
X168519000Y-88528757D01*
X168519000Y-88771243D01*
X168566307Y-89009069D01*
X168659102Y-89233097D01*
X168793820Y-89434717D01*
X168965283Y-89606180D01*
X169166903Y-89740898D01*
X169390931Y-89833693D01*
X169628757Y-89881000D01*
X169871243Y-89881000D01*
X170109069Y-89833693D01*
X170333097Y-89740898D01*
X170534717Y-89606180D01*
X170706180Y-89434717D01*
X170840898Y-89233097D01*
X170933693Y-89009069D01*
X170981000Y-88771243D01*
X170981000Y-88528757D01*
X170933693Y-88290931D01*
X170840898Y-88066903D01*
X170706180Y-87865283D01*
X170534717Y-87693820D01*
X170333097Y-87559102D01*
X170109069Y-87466307D01*
X169871243Y-87419000D01*
X169628757Y-87419000D01*
X169390931Y-87466307D01*
X169166903Y-87559102D01*
X168965283Y-87693820D01*
X168793820Y-87865283D01*
X168659102Y-88066903D01*
X168566307Y-88290931D01*
X168519000Y-88528757D01*
X140171126Y-88528757D01*
X137881000Y-86238632D01*
X137881000Y-85988757D01*
X168519000Y-85988757D01*
X168519000Y-86231243D01*
X168566307Y-86469069D01*
X168659102Y-86693097D01*
X168793820Y-86894717D01*
X168965283Y-87066180D01*
X169166903Y-87200898D01*
X169390931Y-87293693D01*
X169628757Y-87341000D01*
X169871243Y-87341000D01*
X170109069Y-87293693D01*
X170333097Y-87200898D01*
X170534717Y-87066180D01*
X170706180Y-86894717D01*
X170840898Y-86693097D01*
X170933693Y-86469069D01*
X170981000Y-86231243D01*
X170981000Y-85988757D01*
X170933693Y-85750931D01*
X170840898Y-85526903D01*
X170706180Y-85325283D01*
X170534717Y-85153820D01*
X170333097Y-85019102D01*
X170109069Y-84926307D01*
X169871243Y-84879000D01*
X169628757Y-84879000D01*
X169390931Y-84926307D01*
X169166903Y-85019102D01*
X168965283Y-85153820D01*
X168793820Y-85325283D01*
X168659102Y-85526903D01*
X168566307Y-85750931D01*
X168519000Y-85988757D01*
X137881000Y-85988757D01*
X137881000Y-83448757D01*
X168519000Y-83448757D01*
X168519000Y-83691243D01*
X168566307Y-83929069D01*
X168659102Y-84153097D01*
X168793820Y-84354717D01*
X168965283Y-84526180D01*
X169166903Y-84660898D01*
X169390931Y-84753693D01*
X169628757Y-84801000D01*
X169871243Y-84801000D01*
X170109069Y-84753693D01*
X170333097Y-84660898D01*
X170534717Y-84526180D01*
X170706180Y-84354717D01*
X170840898Y-84153097D01*
X170933693Y-83929069D01*
X170981000Y-83691243D01*
X170981000Y-83448757D01*
X170933693Y-83210931D01*
X170840898Y-82986903D01*
X170706180Y-82785283D01*
X170534717Y-82613820D01*
X170333097Y-82479102D01*
X170109069Y-82386307D01*
X169871243Y-82339000D01*
X169628757Y-82339000D01*
X169390931Y-82386307D01*
X169166903Y-82479102D01*
X168965283Y-82613820D01*
X168793820Y-82785283D01*
X168659102Y-82986903D01*
X168566307Y-83210931D01*
X168519000Y-83448757D01*
X137881000Y-83448757D01*
X137881000Y-81030987D01*
X137884052Y-80999999D01*
X137881000Y-80969011D01*
X137881000Y-80969002D01*
X137875067Y-80908757D01*
X168519000Y-80908757D01*
X168519000Y-81151243D01*
X168566307Y-81389069D01*
X168659102Y-81613097D01*
X168793820Y-81814717D01*
X168965283Y-81986180D01*
X169166903Y-82120898D01*
X169390931Y-82213693D01*
X169628757Y-82261000D01*
X169871243Y-82261000D01*
X170109069Y-82213693D01*
X170333097Y-82120898D01*
X170534717Y-81986180D01*
X170706180Y-81814717D01*
X170840898Y-81613097D01*
X170933693Y-81389069D01*
X170981000Y-81151243D01*
X170981000Y-80908757D01*
X170933693Y-80670931D01*
X170840898Y-80446903D01*
X170706180Y-80245283D01*
X170534717Y-80073820D01*
X170333097Y-79939102D01*
X170109069Y-79846307D01*
X169871243Y-79799000D01*
X169628757Y-79799000D01*
X169390931Y-79846307D01*
X169166903Y-79939102D01*
X168965283Y-80073820D01*
X168793820Y-80245283D01*
X168659102Y-80446903D01*
X168566307Y-80670931D01*
X168519000Y-80908757D01*
X137875067Y-80908757D01*
X137871870Y-80876302D01*
X137835789Y-80757358D01*
X137777196Y-80647739D01*
X137698343Y-80551657D01*
X137674269Y-80531900D01*
X135511126Y-78368757D01*
X168519000Y-78368757D01*
X168519000Y-78611243D01*
X168566307Y-78849069D01*
X168659102Y-79073097D01*
X168793820Y-79274717D01*
X168965283Y-79446180D01*
X169166903Y-79580898D01*
X169390931Y-79673693D01*
X169628757Y-79721000D01*
X169871243Y-79721000D01*
X170109069Y-79673693D01*
X170333097Y-79580898D01*
X170534717Y-79446180D01*
X170706180Y-79274717D01*
X170840898Y-79073097D01*
X170933693Y-78849069D01*
X170981000Y-78611243D01*
X170981000Y-78368757D01*
X170933693Y-78130931D01*
X170840898Y-77906903D01*
X170706180Y-77705283D01*
X170534717Y-77533820D01*
X170333097Y-77399102D01*
X170109069Y-77306307D01*
X169871243Y-77259000D01*
X169628757Y-77259000D01*
X169390931Y-77306307D01*
X169166903Y-77399102D01*
X168965283Y-77533820D01*
X168793820Y-77705283D01*
X168659102Y-77906903D01*
X168566307Y-78130931D01*
X168519000Y-78368757D01*
X135511126Y-78368757D01*
X135208105Y-78065737D01*
X135188343Y-78041657D01*
X135092261Y-77962804D01*
X134982642Y-77904211D01*
X134863698Y-77868130D01*
X134770998Y-77859000D01*
X134770990Y-77859000D01*
X134740000Y-77855948D01*
X134709010Y-77859000D01*
X129808890Y-77859000D01*
X129706180Y-77705283D01*
X129534717Y-77533820D01*
X129333097Y-77399102D01*
X129109069Y-77306307D01*
X128871243Y-77259000D01*
X128628757Y-77259000D01*
X128390931Y-77306307D01*
X128166903Y-77399102D01*
X127965283Y-77533820D01*
X127793820Y-77705283D01*
X127659102Y-77906903D01*
X127566307Y-78130931D01*
X127519000Y-78368757D01*
X125092900Y-78368757D01*
X125092900Y-75828757D01*
X127519000Y-75828757D01*
X127519000Y-76071243D01*
X127566307Y-76309069D01*
X127659102Y-76533097D01*
X127793820Y-76734717D01*
X127965283Y-76906180D01*
X128166903Y-77040898D01*
X128390931Y-77133693D01*
X128628757Y-77181000D01*
X128871243Y-77181000D01*
X129109069Y-77133693D01*
X129333097Y-77040898D01*
X129534717Y-76906180D01*
X129706180Y-76734717D01*
X129840898Y-76533097D01*
X129933693Y-76309069D01*
X129981000Y-76071243D01*
X129981000Y-75828757D01*
X129933693Y-75590931D01*
X129840898Y-75366903D01*
X129706180Y-75165283D01*
X129534717Y-74993820D01*
X129333097Y-74859102D01*
X129109069Y-74766307D01*
X128871243Y-74719000D01*
X128628757Y-74719000D01*
X128390931Y-74766307D01*
X128166903Y-74859102D01*
X127965283Y-74993820D01*
X127793820Y-75165283D01*
X127659102Y-75366903D01*
X127566307Y-75590931D01*
X127519000Y-75828757D01*
X125092900Y-75828757D01*
X125092900Y-71226890D01*
X127308524Y-71226890D01*
X127353175Y-71374099D01*
X127478359Y-71636920D01*
X127652412Y-71870269D01*
X127868645Y-72065178D01*
X128118748Y-72214157D01*
X128281168Y-72271772D01*
X128166903Y-72319102D01*
X127965283Y-72453820D01*
X127793820Y-72625283D01*
X127659102Y-72826903D01*
X127566307Y-73050931D01*
X127519000Y-73288757D01*
X127519000Y-73531243D01*
X127566307Y-73769069D01*
X127659102Y-73993097D01*
X127793820Y-74194717D01*
X127965283Y-74366180D01*
X128166903Y-74500898D01*
X128390931Y-74593693D01*
X128628757Y-74641000D01*
X128871243Y-74641000D01*
X129109069Y-74593693D01*
X129333097Y-74500898D01*
X129534717Y-74366180D01*
X129706180Y-74194717D01*
X129840898Y-73993097D01*
X129889815Y-73875000D01*
X141992157Y-73875000D01*
X141992157Y-75625000D01*
X141999513Y-75699689D01*
X142021299Y-75771508D01*
X142056678Y-75837696D01*
X142104289Y-75895711D01*
X142162304Y-75943322D01*
X142228492Y-75978701D01*
X142300311Y-76000487D01*
X142375000Y-76007843D01*
X144125000Y-76007843D01*
X144199689Y-76000487D01*
X144271508Y-75978701D01*
X144337696Y-75943322D01*
X144395711Y-75895711D01*
X144443322Y-75837696D01*
X144465481Y-75796240D01*
X144883365Y-75796240D01*
X144964025Y-76047868D01*
X145232329Y-76176267D01*
X145520526Y-76249855D01*
X145817543Y-76265804D01*
X146111963Y-76223501D01*
X146392474Y-76124572D01*
X146535975Y-76047868D01*
X146616635Y-75796240D01*
X145750000Y-74929605D01*
X144883365Y-75796240D01*
X144465481Y-75796240D01*
X144478701Y-75771508D01*
X144500487Y-75699689D01*
X144507843Y-75625000D01*
X144507843Y-75553833D01*
X144703760Y-75616635D01*
X145570395Y-74750000D01*
X145929605Y-74750000D01*
X146796240Y-75616635D01*
X147047868Y-75535975D01*
X147138312Y-75346982D01*
X147274401Y-75550653D01*
X147449347Y-75725599D01*
X147655061Y-75863053D01*
X147883638Y-75957732D01*
X148126295Y-76006000D01*
X148373705Y-76006000D01*
X148616362Y-75957732D01*
X148844939Y-75863053D01*
X148944931Y-75796240D01*
X149883365Y-75796240D01*
X149964025Y-76047868D01*
X150232329Y-76176267D01*
X150520526Y-76249855D01*
X150817543Y-76265804D01*
X151111963Y-76223501D01*
X151392474Y-76124572D01*
X151535975Y-76047868D01*
X151616635Y-75796240D01*
X150750000Y-74929605D01*
X149883365Y-75796240D01*
X148944931Y-75796240D01*
X149050653Y-75725599D01*
X149225599Y-75550653D01*
X149360180Y-75349239D01*
X149375428Y-75392474D01*
X149452132Y-75535975D01*
X149703760Y-75616635D01*
X150570395Y-74750000D01*
X150929605Y-74750000D01*
X151796240Y-75616635D01*
X152047868Y-75535975D01*
X152138312Y-75346982D01*
X152274401Y-75550653D01*
X152449347Y-75725599D01*
X152655061Y-75863053D01*
X152883638Y-75957732D01*
X153126295Y-76006000D01*
X153373705Y-76006000D01*
X153616362Y-75957732D01*
X153844939Y-75863053D01*
X153944931Y-75796240D01*
X154883365Y-75796240D01*
X154964025Y-76047868D01*
X155232329Y-76176267D01*
X155520526Y-76249855D01*
X155817543Y-76265804D01*
X156111963Y-76223501D01*
X156392474Y-76124572D01*
X156535975Y-76047868D01*
X156606211Y-75828757D01*
X168519000Y-75828757D01*
X168519000Y-76071243D01*
X168566307Y-76309069D01*
X168659102Y-76533097D01*
X168793820Y-76734717D01*
X168965283Y-76906180D01*
X169166903Y-77040898D01*
X169390931Y-77133693D01*
X169628757Y-77181000D01*
X169871243Y-77181000D01*
X170109069Y-77133693D01*
X170333097Y-77040898D01*
X170534717Y-76906180D01*
X170706180Y-76734717D01*
X170840898Y-76533097D01*
X170933693Y-76309069D01*
X170981000Y-76071243D01*
X170981000Y-75828757D01*
X170933693Y-75590931D01*
X170840898Y-75366903D01*
X170706180Y-75165283D01*
X170534717Y-74993820D01*
X170333097Y-74859102D01*
X170109069Y-74766307D01*
X169871243Y-74719000D01*
X169628757Y-74719000D01*
X169390931Y-74766307D01*
X169166903Y-74859102D01*
X168965283Y-74993820D01*
X168793820Y-75165283D01*
X168659102Y-75366903D01*
X168566307Y-75590931D01*
X168519000Y-75828757D01*
X156606211Y-75828757D01*
X156616635Y-75796240D01*
X155750000Y-74929605D01*
X154883365Y-75796240D01*
X153944931Y-75796240D01*
X154050653Y-75725599D01*
X154225599Y-75550653D01*
X154360180Y-75349239D01*
X154375428Y-75392474D01*
X154452132Y-75535975D01*
X154703760Y-75616635D01*
X155570395Y-74750000D01*
X155929605Y-74750000D01*
X156796240Y-75616635D01*
X157047868Y-75535975D01*
X157176267Y-75267671D01*
X157249855Y-74979474D01*
X157265804Y-74682457D01*
X157223501Y-74388037D01*
X157124572Y-74107526D01*
X157047868Y-73964025D01*
X156796240Y-73883365D01*
X155929605Y-74750000D01*
X155570395Y-74750000D01*
X154703760Y-73883365D01*
X154452132Y-73964025D01*
X154361688Y-74153018D01*
X154225599Y-73949347D01*
X154050653Y-73774401D01*
X153944932Y-73703760D01*
X154883365Y-73703760D01*
X155750000Y-74570395D01*
X156616635Y-73703760D01*
X156535975Y-73452132D01*
X156267671Y-73323733D01*
X156130693Y-73288757D01*
X168519000Y-73288757D01*
X168519000Y-73531243D01*
X168566307Y-73769069D01*
X168659102Y-73993097D01*
X168793820Y-74194717D01*
X168965283Y-74366180D01*
X169166903Y-74500898D01*
X169390931Y-74593693D01*
X169628757Y-74641000D01*
X169871243Y-74641000D01*
X170109069Y-74593693D01*
X170333097Y-74500898D01*
X170534717Y-74366180D01*
X170706180Y-74194717D01*
X170840898Y-73993097D01*
X170933693Y-73769069D01*
X170981000Y-73531243D01*
X170981000Y-73288757D01*
X170933693Y-73050931D01*
X170840898Y-72826903D01*
X170706180Y-72625283D01*
X170534717Y-72453820D01*
X170333097Y-72319102D01*
X170109069Y-72226307D01*
X169871243Y-72179000D01*
X169628757Y-72179000D01*
X169390931Y-72226307D01*
X169166903Y-72319102D01*
X168965283Y-72453820D01*
X168793820Y-72625283D01*
X168659102Y-72826903D01*
X168566307Y-73050931D01*
X168519000Y-73288757D01*
X156130693Y-73288757D01*
X155979474Y-73250145D01*
X155682457Y-73234196D01*
X155388037Y-73276499D01*
X155107526Y-73375428D01*
X154964025Y-73452132D01*
X154883365Y-73703760D01*
X153944932Y-73703760D01*
X153844939Y-73636947D01*
X153616362Y-73542268D01*
X153373705Y-73494000D01*
X153126295Y-73494000D01*
X152883638Y-73542268D01*
X152655061Y-73636947D01*
X152449347Y-73774401D01*
X152274401Y-73949347D01*
X152139820Y-74150761D01*
X152124572Y-74107526D01*
X152047868Y-73964025D01*
X151796240Y-73883365D01*
X150929605Y-74750000D01*
X150570395Y-74750000D01*
X149703760Y-73883365D01*
X149452132Y-73964025D01*
X149361688Y-74153018D01*
X149225599Y-73949347D01*
X149050653Y-73774401D01*
X148944932Y-73703760D01*
X149883365Y-73703760D01*
X150750000Y-74570395D01*
X151616635Y-73703760D01*
X151535975Y-73452132D01*
X151267671Y-73323733D01*
X150979474Y-73250145D01*
X150682457Y-73234196D01*
X150388037Y-73276499D01*
X150107526Y-73375428D01*
X149964025Y-73452132D01*
X149883365Y-73703760D01*
X148944932Y-73703760D01*
X148844939Y-73636947D01*
X148616362Y-73542268D01*
X148373705Y-73494000D01*
X148126295Y-73494000D01*
X147883638Y-73542268D01*
X147655061Y-73636947D01*
X147449347Y-73774401D01*
X147274401Y-73949347D01*
X147139820Y-74150761D01*
X147124572Y-74107526D01*
X147047868Y-73964025D01*
X146796240Y-73883365D01*
X145929605Y-74750000D01*
X145570395Y-74750000D01*
X144703760Y-73883365D01*
X144507843Y-73946167D01*
X144507843Y-73875000D01*
X144500487Y-73800311D01*
X144478701Y-73728492D01*
X144465482Y-73703760D01*
X144883365Y-73703760D01*
X145750000Y-74570395D01*
X146616635Y-73703760D01*
X146535975Y-73452132D01*
X146267671Y-73323733D01*
X145979474Y-73250145D01*
X145682457Y-73234196D01*
X145388037Y-73276499D01*
X145107526Y-73375428D01*
X144964025Y-73452132D01*
X144883365Y-73703760D01*
X144465482Y-73703760D01*
X144443322Y-73662304D01*
X144395711Y-73604289D01*
X144337696Y-73556678D01*
X144271508Y-73521299D01*
X144199689Y-73499513D01*
X144125000Y-73492157D01*
X142375000Y-73492157D01*
X142300311Y-73499513D01*
X142228492Y-73521299D01*
X142162304Y-73556678D01*
X142104289Y-73604289D01*
X142056678Y-73662304D01*
X142021299Y-73728492D01*
X141999513Y-73800311D01*
X141992157Y-73875000D01*
X129889815Y-73875000D01*
X129933693Y-73769069D01*
X129981000Y-73531243D01*
X129981000Y-73288757D01*
X129933693Y-73050931D01*
X129840898Y-72826903D01*
X129706180Y-72625283D01*
X129534717Y-72453820D01*
X129333097Y-72319102D01*
X129218832Y-72271772D01*
X129381252Y-72214157D01*
X129631355Y-72065178D01*
X129847588Y-71870269D01*
X130021641Y-71636920D01*
X130146825Y-71374099D01*
X130191476Y-71226890D01*
X130070155Y-70997000D01*
X128877000Y-70997000D01*
X128877000Y-71017000D01*
X128623000Y-71017000D01*
X128623000Y-70997000D01*
X127429845Y-70997000D01*
X127308524Y-71226890D01*
X125092900Y-71226890D01*
X125092900Y-70748757D01*
X168519000Y-70748757D01*
X168519000Y-70991243D01*
X168566307Y-71229069D01*
X168659102Y-71453097D01*
X168793820Y-71654717D01*
X168965283Y-71826180D01*
X169166903Y-71960898D01*
X169390931Y-72053693D01*
X169628757Y-72101000D01*
X169871243Y-72101000D01*
X170109069Y-72053693D01*
X170333097Y-71960898D01*
X170534717Y-71826180D01*
X170706180Y-71654717D01*
X170840898Y-71453097D01*
X170933693Y-71229069D01*
X170981000Y-70991243D01*
X170981000Y-70748757D01*
X170933693Y-70510931D01*
X170840898Y-70286903D01*
X170706180Y-70085283D01*
X170534717Y-69913820D01*
X170333097Y-69779102D01*
X170109069Y-69686307D01*
X169871243Y-69639000D01*
X169628757Y-69639000D01*
X169390931Y-69686307D01*
X169166903Y-69779102D01*
X168965283Y-69913820D01*
X168793820Y-70085283D01*
X168659102Y-70286903D01*
X168566307Y-70510931D01*
X168519000Y-70748757D01*
X125092900Y-70748757D01*
X125092900Y-70513110D01*
X127308524Y-70513110D01*
X127429845Y-70743000D01*
X128623000Y-70743000D01*
X128623000Y-70723000D01*
X128877000Y-70723000D01*
X128877000Y-70743000D01*
X130070155Y-70743000D01*
X130191476Y-70513110D01*
X130146825Y-70365901D01*
X130021641Y-70103080D01*
X129847588Y-69869731D01*
X129631355Y-69674822D01*
X129381252Y-69525843D01*
X129218832Y-69468228D01*
X129333097Y-69420898D01*
X129534717Y-69286180D01*
X129706180Y-69114717D01*
X129840898Y-68913097D01*
X129933693Y-68689069D01*
X129981000Y-68451243D01*
X129981000Y-68208757D01*
X129933693Y-67970931D01*
X129840898Y-67746903D01*
X129706180Y-67545283D01*
X129534717Y-67373820D01*
X129333097Y-67239102D01*
X129109069Y-67146307D01*
X128871243Y-67099000D01*
X128628757Y-67099000D01*
X128390931Y-67146307D01*
X128166903Y-67239102D01*
X127965283Y-67373820D01*
X127793820Y-67545283D01*
X127659102Y-67746903D01*
X127566307Y-67970931D01*
X127519000Y-68208757D01*
X127519000Y-68451243D01*
X127566307Y-68689069D01*
X127659102Y-68913097D01*
X127793820Y-69114717D01*
X127965283Y-69286180D01*
X128166903Y-69420898D01*
X128281168Y-69468228D01*
X128118748Y-69525843D01*
X127868645Y-69674822D01*
X127652412Y-69869731D01*
X127478359Y-70103080D01*
X127353175Y-70365901D01*
X127308524Y-70513110D01*
X125092900Y-70513110D01*
X125092900Y-65668757D01*
X127519000Y-65668757D01*
X127519000Y-65911243D01*
X127566307Y-66149069D01*
X127659102Y-66373097D01*
X127793820Y-66574717D01*
X127965283Y-66746180D01*
X128166903Y-66880898D01*
X128390931Y-66973693D01*
X128628757Y-67021000D01*
X128871243Y-67021000D01*
X129109069Y-66973693D01*
X129333097Y-66880898D01*
X129534717Y-66746180D01*
X129706180Y-66574717D01*
X129840898Y-66373097D01*
X129933693Y-66149069D01*
X129934126Y-66146890D01*
X168308524Y-66146890D01*
X168353175Y-66294099D01*
X168478359Y-66556920D01*
X168652412Y-66790269D01*
X168868645Y-66985178D01*
X169118748Y-67134157D01*
X169281168Y-67191772D01*
X169166903Y-67239102D01*
X168965283Y-67373820D01*
X168793820Y-67545283D01*
X168659102Y-67746903D01*
X168566307Y-67970931D01*
X168519000Y-68208757D01*
X168519000Y-68451243D01*
X168566307Y-68689069D01*
X168659102Y-68913097D01*
X168793820Y-69114717D01*
X168965283Y-69286180D01*
X169166903Y-69420898D01*
X169390931Y-69513693D01*
X169628757Y-69561000D01*
X169871243Y-69561000D01*
X170109069Y-69513693D01*
X170333097Y-69420898D01*
X170534717Y-69286180D01*
X170706180Y-69114717D01*
X170840898Y-68913097D01*
X170933693Y-68689069D01*
X170981000Y-68451243D01*
X170981000Y-68208757D01*
X170933693Y-67970931D01*
X170840898Y-67746903D01*
X170706180Y-67545283D01*
X170534717Y-67373820D01*
X170333097Y-67239102D01*
X170218832Y-67191772D01*
X170381252Y-67134157D01*
X170631355Y-66985178D01*
X170847588Y-66790269D01*
X171021641Y-66556920D01*
X171146825Y-66294099D01*
X171191476Y-66146890D01*
X171070155Y-65917000D01*
X169877000Y-65917000D01*
X169877000Y-65937000D01*
X169623000Y-65937000D01*
X169623000Y-65917000D01*
X168429845Y-65917000D01*
X168308524Y-66146890D01*
X129934126Y-66146890D01*
X129981000Y-65911243D01*
X129981000Y-65668757D01*
X129934127Y-65433110D01*
X168308524Y-65433110D01*
X168429845Y-65663000D01*
X169623000Y-65663000D01*
X169623000Y-65643000D01*
X169877000Y-65643000D01*
X169877000Y-65663000D01*
X171070155Y-65663000D01*
X171191476Y-65433110D01*
X171146825Y-65285901D01*
X171021641Y-65023080D01*
X170847588Y-64789731D01*
X170631355Y-64594822D01*
X170443367Y-64482843D01*
X170600000Y-64482843D01*
X170674689Y-64475487D01*
X170746508Y-64453701D01*
X170812696Y-64418322D01*
X170870711Y-64370711D01*
X170918322Y-64312696D01*
X170953701Y-64246508D01*
X170975487Y-64174689D01*
X170982843Y-64100000D01*
X170982843Y-62400000D01*
X170975487Y-62325311D01*
X170953701Y-62253492D01*
X170918322Y-62187304D01*
X170870711Y-62129289D01*
X170812696Y-62081678D01*
X170746508Y-62046299D01*
X170674689Y-62024513D01*
X170600000Y-62017157D01*
X168900000Y-62017157D01*
X168825311Y-62024513D01*
X168753492Y-62046299D01*
X168687304Y-62081678D01*
X168629289Y-62129289D01*
X168581678Y-62187304D01*
X168546299Y-62253492D01*
X168524513Y-62325311D01*
X168517157Y-62400000D01*
X168517157Y-64100000D01*
X168524513Y-64174689D01*
X168546299Y-64246508D01*
X168581678Y-64312696D01*
X168629289Y-64370711D01*
X168687304Y-64418322D01*
X168753492Y-64453701D01*
X168825311Y-64475487D01*
X168900000Y-64482843D01*
X169056633Y-64482843D01*
X168868645Y-64594822D01*
X168652412Y-64789731D01*
X168478359Y-65023080D01*
X168353175Y-65285901D01*
X168308524Y-65433110D01*
X129934127Y-65433110D01*
X129933693Y-65430931D01*
X129840898Y-65206903D01*
X129706180Y-65005283D01*
X129534717Y-64833820D01*
X129333097Y-64699102D01*
X129109069Y-64606307D01*
X128871243Y-64559000D01*
X128628757Y-64559000D01*
X128390931Y-64606307D01*
X128166903Y-64699102D01*
X127965283Y-64833820D01*
X127793820Y-65005283D01*
X127659102Y-65206903D01*
X127566307Y-65430931D01*
X127519000Y-65668757D01*
X125092900Y-65668757D01*
X125092900Y-62400000D01*
X127517157Y-62400000D01*
X127517157Y-64100000D01*
X127524513Y-64174689D01*
X127546299Y-64246508D01*
X127581678Y-64312696D01*
X127629289Y-64370711D01*
X127687304Y-64418322D01*
X127753492Y-64453701D01*
X127825311Y-64475487D01*
X127900000Y-64482843D01*
X129600000Y-64482843D01*
X129674689Y-64475487D01*
X129746508Y-64453701D01*
X129812696Y-64418322D01*
X129870711Y-64370711D01*
X129918322Y-64312696D01*
X129953701Y-64246508D01*
X129975487Y-64174689D01*
X129982843Y-64100000D01*
X129982843Y-62400000D01*
X129980381Y-62375000D01*
X141992157Y-62375000D01*
X141992157Y-64125000D01*
X141999513Y-64199689D01*
X142021299Y-64271508D01*
X142056678Y-64337696D01*
X142104289Y-64395711D01*
X142162304Y-64443322D01*
X142228492Y-64478701D01*
X142300311Y-64500487D01*
X142375000Y-64507843D01*
X144125000Y-64507843D01*
X144199689Y-64500487D01*
X144271508Y-64478701D01*
X144337696Y-64443322D01*
X144395711Y-64395711D01*
X144443322Y-64337696D01*
X144478701Y-64271508D01*
X144500487Y-64199689D01*
X144507843Y-64125000D01*
X144507843Y-63443298D01*
X144542268Y-63616362D01*
X144636947Y-63844939D01*
X144774401Y-64050653D01*
X144949347Y-64225599D01*
X145155061Y-64363053D01*
X145383638Y-64457732D01*
X145626295Y-64506000D01*
X145873705Y-64506000D01*
X146116362Y-64457732D01*
X146344939Y-64363053D01*
X146444931Y-64296240D01*
X147383365Y-64296240D01*
X147464025Y-64547868D01*
X147732329Y-64676267D01*
X148020526Y-64749855D01*
X148317543Y-64765804D01*
X148611963Y-64723501D01*
X148892474Y-64624572D01*
X149035975Y-64547868D01*
X149116635Y-64296240D01*
X149883365Y-64296240D01*
X149964025Y-64547868D01*
X150232329Y-64676267D01*
X150520526Y-64749855D01*
X150817543Y-64765804D01*
X151111963Y-64723501D01*
X151392474Y-64624572D01*
X151535975Y-64547868D01*
X151616635Y-64296240D01*
X150750000Y-63429605D01*
X149883365Y-64296240D01*
X149116635Y-64296240D01*
X148250000Y-63429605D01*
X147383365Y-64296240D01*
X146444931Y-64296240D01*
X146550653Y-64225599D01*
X146725599Y-64050653D01*
X146860180Y-63849239D01*
X146875428Y-63892474D01*
X146952132Y-64035975D01*
X147203760Y-64116635D01*
X148070395Y-63250000D01*
X148429605Y-63250000D01*
X149296240Y-64116635D01*
X149500000Y-64051319D01*
X149703760Y-64116635D01*
X150570395Y-63250000D01*
X150929605Y-63250000D01*
X151796240Y-64116635D01*
X152047868Y-64035975D01*
X152138312Y-63846982D01*
X152274401Y-64050653D01*
X152449347Y-64225599D01*
X152655061Y-64363053D01*
X152883638Y-64457732D01*
X153126295Y-64506000D01*
X153373705Y-64506000D01*
X153616362Y-64457732D01*
X153844939Y-64363053D01*
X154050653Y-64225599D01*
X154225599Y-64050653D01*
X154363053Y-63844939D01*
X154457732Y-63616362D01*
X154500000Y-63403869D01*
X154542268Y-63616362D01*
X154636947Y-63844939D01*
X154774401Y-64050653D01*
X154949347Y-64225599D01*
X155155061Y-64363053D01*
X155383638Y-64457732D01*
X155626295Y-64506000D01*
X155873705Y-64506000D01*
X156116362Y-64457732D01*
X156344939Y-64363053D01*
X156550653Y-64225599D01*
X156725599Y-64050653D01*
X156863053Y-63844939D01*
X156957732Y-63616362D01*
X157006000Y-63373705D01*
X157006000Y-63126295D01*
X156957732Y-62883638D01*
X156863053Y-62655061D01*
X156725599Y-62449347D01*
X156550653Y-62274401D01*
X156344939Y-62136947D01*
X156116362Y-62042268D01*
X155873705Y-61994000D01*
X155626295Y-61994000D01*
X155383638Y-62042268D01*
X155155061Y-62136947D01*
X154949347Y-62274401D01*
X154774401Y-62449347D01*
X154636947Y-62655061D01*
X154542268Y-62883638D01*
X154500000Y-63096131D01*
X154457732Y-62883638D01*
X154363053Y-62655061D01*
X154225599Y-62449347D01*
X154050653Y-62274401D01*
X153844939Y-62136947D01*
X153616362Y-62042268D01*
X153373705Y-61994000D01*
X153126295Y-61994000D01*
X152883638Y-62042268D01*
X152655061Y-62136947D01*
X152449347Y-62274401D01*
X152274401Y-62449347D01*
X152139820Y-62650761D01*
X152124572Y-62607526D01*
X152047868Y-62464025D01*
X151796240Y-62383365D01*
X150929605Y-63250000D01*
X150570395Y-63250000D01*
X149703760Y-62383365D01*
X149500000Y-62448681D01*
X149296240Y-62383365D01*
X148429605Y-63250000D01*
X148070395Y-63250000D01*
X147203760Y-62383365D01*
X146952132Y-62464025D01*
X146861688Y-62653018D01*
X146725599Y-62449347D01*
X146550653Y-62274401D01*
X146444932Y-62203760D01*
X147383365Y-62203760D01*
X148250000Y-63070395D01*
X149116635Y-62203760D01*
X149883365Y-62203760D01*
X150750000Y-63070395D01*
X151616635Y-62203760D01*
X151535975Y-61952132D01*
X151267671Y-61823733D01*
X150979474Y-61750145D01*
X150682457Y-61734196D01*
X150388037Y-61776499D01*
X150107526Y-61875428D01*
X149964025Y-61952132D01*
X149883365Y-62203760D01*
X149116635Y-62203760D01*
X149035975Y-61952132D01*
X148767671Y-61823733D01*
X148479474Y-61750145D01*
X148182457Y-61734196D01*
X147888037Y-61776499D01*
X147607526Y-61875428D01*
X147464025Y-61952132D01*
X147383365Y-62203760D01*
X146444932Y-62203760D01*
X146344939Y-62136947D01*
X146116362Y-62042268D01*
X145873705Y-61994000D01*
X145626295Y-61994000D01*
X145383638Y-62042268D01*
X145155061Y-62136947D01*
X144949347Y-62274401D01*
X144774401Y-62449347D01*
X144636947Y-62655061D01*
X144542268Y-62883638D01*
X144507843Y-63056702D01*
X144507843Y-62375000D01*
X144500487Y-62300311D01*
X144478701Y-62228492D01*
X144443322Y-62162304D01*
X144395711Y-62104289D01*
X144337696Y-62056678D01*
X144271508Y-62021299D01*
X144199689Y-61999513D01*
X144125000Y-61992157D01*
X142375000Y-61992157D01*
X142300311Y-61999513D01*
X142228492Y-62021299D01*
X142162304Y-62056678D01*
X142104289Y-62104289D01*
X142056678Y-62162304D01*
X142021299Y-62228492D01*
X141999513Y-62300311D01*
X141992157Y-62375000D01*
X129980381Y-62375000D01*
X129975487Y-62325311D01*
X129953701Y-62253492D01*
X129918322Y-62187304D01*
X129870711Y-62129289D01*
X129812696Y-62081678D01*
X129746508Y-62046299D01*
X129674689Y-62024513D01*
X129600000Y-62017157D01*
X127900000Y-62017157D01*
X127825311Y-62024513D01*
X127753492Y-62046299D01*
X127687304Y-62081678D01*
X127629289Y-62129289D01*
X127581678Y-62187304D01*
X127546299Y-62253492D01*
X127524513Y-62325311D01*
X127517157Y-62400000D01*
X125092900Y-62400000D01*
X125092900Y-57804889D01*
X126769000Y-57804889D01*
X126769000Y-58195111D01*
X126845129Y-58577836D01*
X126994461Y-58938355D01*
X127211257Y-59262814D01*
X127487186Y-59538743D01*
X127811645Y-59755539D01*
X128172164Y-59904871D01*
X128554889Y-59981000D01*
X128945111Y-59981000D01*
X129327836Y-59904871D01*
X129688355Y-59755539D01*
X130012814Y-59538743D01*
X130288743Y-59262814D01*
X130505539Y-58938355D01*
X130654871Y-58577836D01*
X130731000Y-58195111D01*
X130731000Y-57804889D01*
X167769000Y-57804889D01*
X167769000Y-58195111D01*
X167845129Y-58577836D01*
X167994461Y-58938355D01*
X168211257Y-59262814D01*
X168487186Y-59538743D01*
X168811645Y-59755539D01*
X169172164Y-59904871D01*
X169554889Y-59981000D01*
X169945111Y-59981000D01*
X170327836Y-59904871D01*
X170688355Y-59755539D01*
X171012814Y-59538743D01*
X171288743Y-59262814D01*
X171505539Y-58938355D01*
X171654871Y-58577836D01*
X171731000Y-58195111D01*
X171731000Y-57804889D01*
X171654871Y-57422164D01*
X171505539Y-57061645D01*
X171288743Y-56737186D01*
X171012814Y-56461257D01*
X170688355Y-56244461D01*
X170327836Y-56095129D01*
X169945111Y-56019000D01*
X169554889Y-56019000D01*
X169172164Y-56095129D01*
X168811645Y-56244461D01*
X168487186Y-56461257D01*
X168211257Y-56737186D01*
X167994461Y-57061645D01*
X167845129Y-57422164D01*
X167769000Y-57804889D01*
X130731000Y-57804889D01*
X130654871Y-57422164D01*
X130505539Y-57061645D01*
X130288743Y-56737186D01*
X130012814Y-56461257D01*
X129688355Y-56244461D01*
X129327836Y-56095129D01*
X128945111Y-56019000D01*
X128554889Y-56019000D01*
X128172164Y-56095129D01*
X127811645Y-56244461D01*
X127487186Y-56461257D01*
X127211257Y-56737186D01*
X126994461Y-57061645D01*
X126845129Y-57422164D01*
X126769000Y-57804889D01*
X125092900Y-57804889D01*
X125092900Y-55516775D01*
X125116549Y-55275573D01*
X125181728Y-55059691D01*
X125287598Y-54860579D01*
X125430121Y-54685829D01*
X125603880Y-54542083D01*
X125802243Y-54434828D01*
X126017661Y-54368145D01*
X126257854Y-54342900D01*
X172483225Y-54342900D01*
X172724427Y-54366549D01*
G37*
X172724427Y-54366549D02*
X172940309Y-54431728D01*
X173139421Y-54537598D01*
X173314171Y-54680121D01*
X173457917Y-54853880D01*
X173565172Y-55052243D01*
X173631855Y-55267661D01*
X173657100Y-55507854D01*
X173657101Y-107483214D01*
X173633450Y-107724430D01*
X173568272Y-107940309D01*
X173462402Y-108139421D01*
X173319877Y-108314174D01*
X173146121Y-108457917D01*
X172947757Y-108565172D01*
X172732339Y-108631855D01*
X172492146Y-108657100D01*
X126266776Y-108657100D01*
X126025570Y-108633450D01*
X125809691Y-108568272D01*
X125610579Y-108462402D01*
X125435826Y-108319877D01*
X125292083Y-108146121D01*
X125184828Y-107947757D01*
X125118145Y-107732339D01*
X125092900Y-107492146D01*
X125092900Y-104804889D01*
X126769000Y-104804889D01*
X126769000Y-105195111D01*
X126845129Y-105577836D01*
X126994461Y-105938355D01*
X127211257Y-106262814D01*
X127487186Y-106538743D01*
X127811645Y-106755539D01*
X128172164Y-106904871D01*
X128554889Y-106981000D01*
X128945111Y-106981000D01*
X129327836Y-106904871D01*
X129688355Y-106755539D01*
X130012814Y-106538743D01*
X130288743Y-106262814D01*
X130505539Y-105938355D01*
X130654871Y-105577836D01*
X130731000Y-105195111D01*
X130731000Y-104804889D01*
X167769000Y-104804889D01*
X167769000Y-105195111D01*
X167845129Y-105577836D01*
X167994461Y-105938355D01*
X168211257Y-106262814D01*
X168487186Y-106538743D01*
X168811645Y-106755539D01*
X169172164Y-106904871D01*
X169554889Y-106981000D01*
X169945111Y-106981000D01*
X170327836Y-106904871D01*
X170688355Y-106755539D01*
X171012814Y-106538743D01*
X171288743Y-106262814D01*
X171505539Y-105938355D01*
X171654871Y-105577836D01*
X171731000Y-105195111D01*
X171731000Y-104804889D01*
X171654871Y-104422164D01*
X171505539Y-104061645D01*
X171288743Y-103737186D01*
X171012814Y-103461257D01*
X170688355Y-103244461D01*
X170327836Y-103095129D01*
X169945111Y-103019000D01*
X169554889Y-103019000D01*
X169172164Y-103095129D01*
X168811645Y-103244461D01*
X168487186Y-103461257D01*
X168211257Y-103737186D01*
X167994461Y-104061645D01*
X167845129Y-104422164D01*
X167769000Y-104804889D01*
X130731000Y-104804889D01*
X130654871Y-104422164D01*
X130505539Y-104061645D01*
X130288743Y-103737186D01*
X130012814Y-103461257D01*
X129688355Y-103244461D01*
X129327836Y-103095129D01*
X128945111Y-103019000D01*
X128554889Y-103019000D01*
X128172164Y-103095129D01*
X127811645Y-103244461D01*
X127487186Y-103461257D01*
X127211257Y-103737186D01*
X126994461Y-104061645D01*
X126845129Y-104422164D01*
X126769000Y-104804889D01*
X125092900Y-104804889D01*
X125092900Y-102883682D01*
X148319000Y-102883682D01*
X148319000Y-103116318D01*
X148364386Y-103344485D01*
X148453412Y-103559413D01*
X148582658Y-103752843D01*
X148747157Y-103917342D01*
X148940587Y-104046588D01*
X149155515Y-104135614D01*
X149383682Y-104181000D01*
X149616318Y-104181000D01*
X149844485Y-104135614D01*
X150059413Y-104046588D01*
X150252843Y-103917342D01*
X150417342Y-103752843D01*
X150546588Y-103559413D01*
X150635614Y-103344485D01*
X150681000Y-103116318D01*
X150681000Y-102883682D01*
X150635614Y-102655515D01*
X150546588Y-102440587D01*
X150417342Y-102247157D01*
X150252843Y-102082658D01*
X150059413Y-101953412D01*
X149844485Y-101864386D01*
X149616318Y-101819000D01*
X149383682Y-101819000D01*
X149155515Y-101864386D01*
X148940587Y-101953412D01*
X148747157Y-102082658D01*
X148582658Y-102247157D01*
X148453412Y-102440587D01*
X148364386Y-102655515D01*
X148319000Y-102883682D01*
X125092900Y-102883682D01*
X125092900Y-98688757D01*
X127519000Y-98688757D01*
X127519000Y-98931243D01*
X127566307Y-99169069D01*
X127659102Y-99393097D01*
X127793820Y-99594717D01*
X127965283Y-99766180D01*
X128166903Y-99900898D01*
X128390931Y-99993693D01*
X128628757Y-100041000D01*
X128871243Y-100041000D01*
X129109069Y-99993693D01*
X129333097Y-99900898D01*
X129534717Y-99766180D01*
X129706180Y-99594717D01*
X129840898Y-99393097D01*
X129933693Y-99169069D01*
X129981000Y-98931243D01*
X129981000Y-98908304D01*
X145569000Y-98908304D01*
X145569000Y-99091696D01*
X145604778Y-99271563D01*
X145674958Y-99440994D01*
X145776845Y-99593478D01*
X145906522Y-99723155D01*
X146059006Y-99825042D01*
X146228437Y-99895222D01*
X146408304Y-99931000D01*
X146591696Y-99931000D01*
X146771563Y-99895222D01*
X146799423Y-99883682D01*
X148319000Y-99883682D01*
X148319000Y-100116318D01*
X148364386Y-100344485D01*
X148453412Y-100559413D01*
X148582658Y-100752843D01*
X148747157Y-100917342D01*
X148940587Y-101046588D01*
X149155515Y-101135614D01*
X149383682Y-101181000D01*
X149616318Y-101181000D01*
X149844485Y-101135614D01*
X150059413Y-101046588D01*
X150252843Y-100917342D01*
X150417342Y-100752843D01*
X150546588Y-100559413D01*
X150635614Y-100344485D01*
X150681000Y-100116318D01*
X150681000Y-99883682D01*
X150635614Y-99655515D01*
X150546588Y-99440587D01*
X150417342Y-99247157D01*
X150252843Y-99082658D01*
X150081701Y-98968304D01*
X151569000Y-98968304D01*
X151569000Y-99151696D01*
X151604778Y-99331563D01*
X151674958Y-99500994D01*
X151776845Y-99653478D01*
X151906522Y-99783155D01*
X152059006Y-99885042D01*
X152228437Y-99955222D01*
X152408304Y-99991000D01*
X152591696Y-99991000D01*
X152771563Y-99955222D01*
X152940994Y-99885042D01*
X153093478Y-99783155D01*
X153223155Y-99653478D01*
X153325042Y-99500994D01*
X153395222Y-99331563D01*
X153431000Y-99151696D01*
X153431000Y-98968304D01*
X153395222Y-98788437D01*
X153353934Y-98688757D01*
X168519000Y-98688757D01*
X168519000Y-98931243D01*
X168566307Y-99169069D01*
X168659102Y-99393097D01*
X168793820Y-99594717D01*
X168965283Y-99766180D01*
X169166903Y-99900898D01*
X169390931Y-99993693D01*
X169628757Y-100041000D01*
X169871243Y-100041000D01*
X170109069Y-99993693D01*
X170333097Y-99900898D01*
X170534717Y-99766180D01*
X170706180Y-99594717D01*
X170840898Y-99393097D01*
X170933693Y-99169069D01*
X170981000Y-98931243D01*
X170981000Y-98688757D01*
X170933693Y-98450931D01*
X170840898Y-98226903D01*
X170706180Y-98025283D01*
X170534717Y-97853820D01*
X170333097Y-97719102D01*
X170109069Y-97626307D01*
X169871243Y-97579000D01*
X169628757Y-97579000D01*
X169390931Y-97626307D01*
X169166903Y-97719102D01*
X168965283Y-97853820D01*
X168793820Y-98025283D01*
X168659102Y-98226903D01*
X168566307Y-98450931D01*
X168519000Y-98688757D01*
X153353934Y-98688757D01*
X153325042Y-98619006D01*
X153223155Y-98466522D01*
X153093478Y-98336845D01*
X152940994Y-98234958D01*
X152771563Y-98164778D01*
X152591696Y-98129000D01*
X152408304Y-98129000D01*
X152228437Y-98164778D01*
X152059006Y-98234958D01*
X151906522Y-98336845D01*
X151776845Y-98466522D01*
X151674958Y-98619006D01*
X151604778Y-98788437D01*
X151569000Y-98968304D01*
X150081701Y-98968304D01*
X150059413Y-98953412D01*
X149844485Y-98864386D01*
X149616318Y-98819000D01*
X149383682Y-98819000D01*
X149155515Y-98864386D01*
X148940587Y-98953412D01*
X148747157Y-99082658D01*
X148582658Y-99247157D01*
X148453412Y-99440587D01*
X148364386Y-99655515D01*
X148319000Y-99883682D01*
X146799423Y-99883682D01*
X146940994Y-99825042D01*
X147093478Y-99723155D01*
X147223155Y-99593478D01*
X147325042Y-99440994D01*
X147395222Y-99271563D01*
X147431000Y-99091696D01*
X147431000Y-98908304D01*
X147395222Y-98728437D01*
X147325042Y-98559006D01*
X147223155Y-98406522D01*
X147093478Y-98276845D01*
X146940994Y-98174958D01*
X146771563Y-98104778D01*
X146591696Y-98069000D01*
X146408304Y-98069000D01*
X146228437Y-98104778D01*
X146059006Y-98174958D01*
X145906522Y-98276845D01*
X145776845Y-98406522D01*
X145674958Y-98559006D01*
X145604778Y-98728437D01*
X145569000Y-98908304D01*
X129981000Y-98908304D01*
X129981000Y-98688757D01*
X129933693Y-98450931D01*
X129840898Y-98226903D01*
X129706180Y-98025283D01*
X129534717Y-97853820D01*
X129333097Y-97719102D01*
X129109069Y-97626307D01*
X128871243Y-97579000D01*
X128628757Y-97579000D01*
X128390931Y-97626307D01*
X128166903Y-97719102D01*
X127965283Y-97853820D01*
X127793820Y-98025283D01*
X127659102Y-98226903D01*
X127566307Y-98450931D01*
X127519000Y-98688757D01*
X125092900Y-98688757D01*
X125092900Y-96148757D01*
X127519000Y-96148757D01*
X127519000Y-96391243D01*
X127566307Y-96629069D01*
X127659102Y-96853097D01*
X127793820Y-97054717D01*
X127965283Y-97226180D01*
X128166903Y-97360898D01*
X128390931Y-97453693D01*
X128628757Y-97501000D01*
X128871243Y-97501000D01*
X129109069Y-97453693D01*
X129333097Y-97360898D01*
X129534717Y-97226180D01*
X129706180Y-97054717D01*
X129840898Y-96853097D01*
X129933693Y-96629069D01*
X129981000Y-96391243D01*
X129981000Y-96148757D01*
X168519000Y-96148757D01*
X168519000Y-96391243D01*
X168566307Y-96629069D01*
X168659102Y-96853097D01*
X168793820Y-97054717D01*
X168965283Y-97226180D01*
X169166903Y-97360898D01*
X169390931Y-97453693D01*
X169628757Y-97501000D01*
X169871243Y-97501000D01*
X170109069Y-97453693D01*
X170333097Y-97360898D01*
X170534717Y-97226180D01*
X170706180Y-97054717D01*
X170840898Y-96853097D01*
X170933693Y-96629069D01*
X170981000Y-96391243D01*
X170981000Y-96148757D01*
X170933693Y-95910931D01*
X170840898Y-95686903D01*
X170706180Y-95485283D01*
X170534717Y-95313820D01*
X170333097Y-95179102D01*
X170109069Y-95086307D01*
X169871243Y-95039000D01*
X169628757Y-95039000D01*
X169390931Y-95086307D01*
X169166903Y-95179102D01*
X168965283Y-95313820D01*
X168793820Y-95485283D01*
X168659102Y-95686903D01*
X168566307Y-95910931D01*
X168519000Y-96148757D01*
X129981000Y-96148757D01*
X129933693Y-95910931D01*
X129840898Y-95686903D01*
X129706180Y-95485283D01*
X129534717Y-95313820D01*
X129333097Y-95179102D01*
X129109069Y-95086307D01*
X128871243Y-95039000D01*
X128628757Y-95039000D01*
X128390931Y-95086307D01*
X128166903Y-95179102D01*
X127965283Y-95313820D01*
X127793820Y-95485283D01*
X127659102Y-95686903D01*
X127566307Y-95910931D01*
X127519000Y-96148757D01*
X125092900Y-96148757D01*
X125092900Y-93608757D01*
X127519000Y-93608757D01*
X127519000Y-93851243D01*
X127566307Y-94089069D01*
X127659102Y-94313097D01*
X127793820Y-94514717D01*
X127965283Y-94686180D01*
X128166903Y-94820898D01*
X128390931Y-94913693D01*
X128628757Y-94961000D01*
X128871243Y-94961000D01*
X129109069Y-94913693D01*
X129333097Y-94820898D01*
X129534717Y-94686180D01*
X129706180Y-94514717D01*
X129840898Y-94313097D01*
X129933693Y-94089069D01*
X129981000Y-93851243D01*
X129981000Y-93608757D01*
X129933693Y-93370931D01*
X129840898Y-93146903D01*
X129706180Y-92945283D01*
X129534717Y-92773820D01*
X129333097Y-92639102D01*
X129109069Y-92546307D01*
X128871243Y-92499000D01*
X128628757Y-92499000D01*
X128390931Y-92546307D01*
X128166903Y-92639102D01*
X127965283Y-92773820D01*
X127793820Y-92945283D01*
X127659102Y-93146903D01*
X127566307Y-93370931D01*
X127519000Y-93608757D01*
X125092900Y-93608757D01*
X125092900Y-91068757D01*
X127519000Y-91068757D01*
X127519000Y-91311243D01*
X127566307Y-91549069D01*
X127659102Y-91773097D01*
X127793820Y-91974717D01*
X127965283Y-92146180D01*
X128166903Y-92280898D01*
X128390931Y-92373693D01*
X128628757Y-92421000D01*
X128871243Y-92421000D01*
X129109069Y-92373693D01*
X129333097Y-92280898D01*
X129534717Y-92146180D01*
X129706180Y-91974717D01*
X129840898Y-91773097D01*
X129933693Y-91549069D01*
X129981000Y-91311243D01*
X129981000Y-91068757D01*
X129933693Y-90830931D01*
X129840898Y-90606903D01*
X129706180Y-90405283D01*
X129534717Y-90233820D01*
X129333097Y-90099102D01*
X129109069Y-90006307D01*
X128871243Y-89959000D01*
X128628757Y-89959000D01*
X128390931Y-90006307D01*
X128166903Y-90099102D01*
X127965283Y-90233820D01*
X127793820Y-90405283D01*
X127659102Y-90606903D01*
X127566307Y-90830931D01*
X127519000Y-91068757D01*
X125092900Y-91068757D01*
X125092900Y-88528757D01*
X127519000Y-88528757D01*
X127519000Y-88771243D01*
X127566307Y-89009069D01*
X127659102Y-89233097D01*
X127793820Y-89434717D01*
X127965283Y-89606180D01*
X128166903Y-89740898D01*
X128390931Y-89833693D01*
X128628757Y-89881000D01*
X128871243Y-89881000D01*
X129109069Y-89833693D01*
X129333097Y-89740898D01*
X129534717Y-89606180D01*
X129706180Y-89434717D01*
X129840898Y-89233097D01*
X129933693Y-89009069D01*
X129981000Y-88771243D01*
X129981000Y-88528757D01*
X129933693Y-88290931D01*
X129840898Y-88066903D01*
X129706180Y-87865283D01*
X129534717Y-87693820D01*
X129333097Y-87559102D01*
X129109069Y-87466307D01*
X128871243Y-87419000D01*
X128628757Y-87419000D01*
X128390931Y-87466307D01*
X128166903Y-87559102D01*
X127965283Y-87693820D01*
X127793820Y-87865283D01*
X127659102Y-88066903D01*
X127566307Y-88290931D01*
X127519000Y-88528757D01*
X125092900Y-88528757D01*
X125092900Y-85988757D01*
X127519000Y-85988757D01*
X127519000Y-86231243D01*
X127566307Y-86469069D01*
X127659102Y-86693097D01*
X127793820Y-86894717D01*
X127965283Y-87066180D01*
X128166903Y-87200898D01*
X128390931Y-87293693D01*
X128628757Y-87341000D01*
X128871243Y-87341000D01*
X129109069Y-87293693D01*
X129333097Y-87200898D01*
X129534717Y-87066180D01*
X129706180Y-86894717D01*
X129840898Y-86693097D01*
X129933693Y-86469069D01*
X129981000Y-86231243D01*
X129981000Y-85988757D01*
X129933693Y-85750931D01*
X129840898Y-85526903D01*
X129706180Y-85325283D01*
X129534717Y-85153820D01*
X129333097Y-85019102D01*
X129109069Y-84926307D01*
X128871243Y-84879000D01*
X128628757Y-84879000D01*
X128390931Y-84926307D01*
X128166903Y-85019102D01*
X127965283Y-85153820D01*
X127793820Y-85325283D01*
X127659102Y-85526903D01*
X127566307Y-85750931D01*
X127519000Y-85988757D01*
X125092900Y-85988757D01*
X125092900Y-83448757D01*
X127519000Y-83448757D01*
X127519000Y-83691243D01*
X127566307Y-83929069D01*
X127659102Y-84153097D01*
X127793820Y-84354717D01*
X127965283Y-84526180D01*
X128166903Y-84660898D01*
X128390931Y-84753693D01*
X128628757Y-84801000D01*
X128871243Y-84801000D01*
X129109069Y-84753693D01*
X129333097Y-84660898D01*
X129534717Y-84526180D01*
X129706180Y-84354717D01*
X129840898Y-84153097D01*
X129933693Y-83929069D01*
X129981000Y-83691243D01*
X129981000Y-83448757D01*
X129933693Y-83210931D01*
X129840898Y-82986903D01*
X129706180Y-82785283D01*
X129534717Y-82613820D01*
X129333097Y-82479102D01*
X129109069Y-82386307D01*
X128871243Y-82339000D01*
X128628757Y-82339000D01*
X128390931Y-82386307D01*
X128166903Y-82479102D01*
X127965283Y-82613820D01*
X127793820Y-82785283D01*
X127659102Y-82986903D01*
X127566307Y-83210931D01*
X127519000Y-83448757D01*
X125092900Y-83448757D01*
X125092900Y-80908757D01*
X127519000Y-80908757D01*
X127519000Y-81151243D01*
X127566307Y-81389069D01*
X127659102Y-81613097D01*
X127793820Y-81814717D01*
X127965283Y-81986180D01*
X128166903Y-82120898D01*
X128390931Y-82213693D01*
X128628757Y-82261000D01*
X128871243Y-82261000D01*
X129109069Y-82213693D01*
X129333097Y-82120898D01*
X129534717Y-81986180D01*
X129706180Y-81814717D01*
X129840898Y-81613097D01*
X129933693Y-81389069D01*
X129981000Y-81151243D01*
X129981000Y-80908757D01*
X129933693Y-80670931D01*
X129840898Y-80446903D01*
X129706180Y-80245283D01*
X129534717Y-80073820D01*
X129333097Y-79939102D01*
X129109069Y-79846307D01*
X128871243Y-79799000D01*
X128628757Y-79799000D01*
X128390931Y-79846307D01*
X128166903Y-79939102D01*
X127965283Y-80073820D01*
X127793820Y-80245283D01*
X127659102Y-80446903D01*
X127566307Y-80670931D01*
X127519000Y-80908757D01*
X125092900Y-80908757D01*
X125092900Y-78368757D01*
X127519000Y-78368757D01*
X127519000Y-78611243D01*
X127566307Y-78849069D01*
X127659102Y-79073097D01*
X127793820Y-79274717D01*
X127965283Y-79446180D01*
X128166903Y-79580898D01*
X128390931Y-79673693D01*
X128628757Y-79721000D01*
X128871243Y-79721000D01*
X129109069Y-79673693D01*
X129333097Y-79580898D01*
X129534717Y-79446180D01*
X129706180Y-79274717D01*
X129808890Y-79121000D01*
X134478632Y-79121000D01*
X136619000Y-81261369D01*
X136619001Y-86469000D01*
X136615948Y-86500000D01*
X136628130Y-86623697D01*
X136664211Y-86742641D01*
X136722804Y-86852260D01*
X136781897Y-86924265D01*
X136781900Y-86924268D01*
X136801658Y-86948343D01*
X136825733Y-86968101D01*
X143550228Y-93692597D01*
X143553919Y-93711154D01*
X143608488Y-93842895D01*
X143687710Y-93961460D01*
X143788540Y-94062290D01*
X143907105Y-94141512D01*
X144038846Y-94196081D01*
X144178702Y-94223900D01*
X144321298Y-94223900D01*
X144461154Y-94196081D01*
X144592895Y-94141512D01*
X144711460Y-94062290D01*
X144812290Y-93961460D01*
X144891512Y-93842895D01*
X144946081Y-93711154D01*
X144966448Y-93608757D01*
X168519000Y-93608757D01*
X168519000Y-93851243D01*
X168566307Y-94089069D01*
X168659102Y-94313097D01*
X168793820Y-94514717D01*
X168965283Y-94686180D01*
X169166903Y-94820898D01*
X169390931Y-94913693D01*
X169628757Y-94961000D01*
X169871243Y-94961000D01*
X170109069Y-94913693D01*
X170333097Y-94820898D01*
X170534717Y-94686180D01*
X170706180Y-94514717D01*
X170840898Y-94313097D01*
X170933693Y-94089069D01*
X170981000Y-93851243D01*
X170981000Y-93608757D01*
X170933693Y-93370931D01*
X170840898Y-93146903D01*
X170706180Y-92945283D01*
X170534717Y-92773820D01*
X170333097Y-92639102D01*
X170109069Y-92546307D01*
X169871243Y-92499000D01*
X169628757Y-92499000D01*
X169390931Y-92546307D01*
X169166903Y-92639102D01*
X168965283Y-92773820D01*
X168793820Y-92945283D01*
X168659102Y-93146903D01*
X168566307Y-93370931D01*
X168519000Y-93608757D01*
X144966448Y-93608757D01*
X144973900Y-93571298D01*
X144973900Y-93428702D01*
X144946081Y-93288846D01*
X144891512Y-93157105D01*
X144812290Y-93038540D01*
X144711460Y-92937710D01*
X144592895Y-92858488D01*
X144461154Y-92803919D01*
X144442597Y-92800228D01*
X142711126Y-91068757D01*
X168519000Y-91068757D01*
X168519000Y-91311243D01*
X168566307Y-91549069D01*
X168659102Y-91773097D01*
X168793820Y-91974717D01*
X168965283Y-92146180D01*
X169166903Y-92280898D01*
X169390931Y-92373693D01*
X169628757Y-92421000D01*
X169871243Y-92421000D01*
X170109069Y-92373693D01*
X170333097Y-92280898D01*
X170534717Y-92146180D01*
X170706180Y-91974717D01*
X170840898Y-91773097D01*
X170933693Y-91549069D01*
X170981000Y-91311243D01*
X170981000Y-91068757D01*
X170933693Y-90830931D01*
X170840898Y-90606903D01*
X170706180Y-90405283D01*
X170534717Y-90233820D01*
X170333097Y-90099102D01*
X170109069Y-90006307D01*
X169871243Y-89959000D01*
X169628757Y-89959000D01*
X169390931Y-90006307D01*
X169166903Y-90099102D01*
X168965283Y-90233820D01*
X168793820Y-90405283D01*
X168659102Y-90606903D01*
X168566307Y-90830931D01*
X168519000Y-91068757D01*
X142711126Y-91068757D01*
X140171126Y-88528757D01*
X168519000Y-88528757D01*
X168519000Y-88771243D01*
X168566307Y-89009069D01*
X168659102Y-89233097D01*
X168793820Y-89434717D01*
X168965283Y-89606180D01*
X169166903Y-89740898D01*
X169390931Y-89833693D01*
X169628757Y-89881000D01*
X169871243Y-89881000D01*
X170109069Y-89833693D01*
X170333097Y-89740898D01*
X170534717Y-89606180D01*
X170706180Y-89434717D01*
X170840898Y-89233097D01*
X170933693Y-89009069D01*
X170981000Y-88771243D01*
X170981000Y-88528757D01*
X170933693Y-88290931D01*
X170840898Y-88066903D01*
X170706180Y-87865283D01*
X170534717Y-87693820D01*
X170333097Y-87559102D01*
X170109069Y-87466307D01*
X169871243Y-87419000D01*
X169628757Y-87419000D01*
X169390931Y-87466307D01*
X169166903Y-87559102D01*
X168965283Y-87693820D01*
X168793820Y-87865283D01*
X168659102Y-88066903D01*
X168566307Y-88290931D01*
X168519000Y-88528757D01*
X140171126Y-88528757D01*
X137881000Y-86238632D01*
X137881000Y-85988757D01*
X168519000Y-85988757D01*
X168519000Y-86231243D01*
X168566307Y-86469069D01*
X168659102Y-86693097D01*
X168793820Y-86894717D01*
X168965283Y-87066180D01*
X169166903Y-87200898D01*
X169390931Y-87293693D01*
X169628757Y-87341000D01*
X169871243Y-87341000D01*
X170109069Y-87293693D01*
X170333097Y-87200898D01*
X170534717Y-87066180D01*
X170706180Y-86894717D01*
X170840898Y-86693097D01*
X170933693Y-86469069D01*
X170981000Y-86231243D01*
X170981000Y-85988757D01*
X170933693Y-85750931D01*
X170840898Y-85526903D01*
X170706180Y-85325283D01*
X170534717Y-85153820D01*
X170333097Y-85019102D01*
X170109069Y-84926307D01*
X169871243Y-84879000D01*
X169628757Y-84879000D01*
X169390931Y-84926307D01*
X169166903Y-85019102D01*
X168965283Y-85153820D01*
X168793820Y-85325283D01*
X168659102Y-85526903D01*
X168566307Y-85750931D01*
X168519000Y-85988757D01*
X137881000Y-85988757D01*
X137881000Y-83448757D01*
X168519000Y-83448757D01*
X168519000Y-83691243D01*
X168566307Y-83929069D01*
X168659102Y-84153097D01*
X168793820Y-84354717D01*
X168965283Y-84526180D01*
X169166903Y-84660898D01*
X169390931Y-84753693D01*
X169628757Y-84801000D01*
X169871243Y-84801000D01*
X170109069Y-84753693D01*
X170333097Y-84660898D01*
X170534717Y-84526180D01*
X170706180Y-84354717D01*
X170840898Y-84153097D01*
X170933693Y-83929069D01*
X170981000Y-83691243D01*
X170981000Y-83448757D01*
X170933693Y-83210931D01*
X170840898Y-82986903D01*
X170706180Y-82785283D01*
X170534717Y-82613820D01*
X170333097Y-82479102D01*
X170109069Y-82386307D01*
X169871243Y-82339000D01*
X169628757Y-82339000D01*
X169390931Y-82386307D01*
X169166903Y-82479102D01*
X168965283Y-82613820D01*
X168793820Y-82785283D01*
X168659102Y-82986903D01*
X168566307Y-83210931D01*
X168519000Y-83448757D01*
X137881000Y-83448757D01*
X137881000Y-81030987D01*
X137884052Y-80999999D01*
X137881000Y-80969011D01*
X137881000Y-80969002D01*
X137875067Y-80908757D01*
X168519000Y-80908757D01*
X168519000Y-81151243D01*
X168566307Y-81389069D01*
X168659102Y-81613097D01*
X168793820Y-81814717D01*
X168965283Y-81986180D01*
X169166903Y-82120898D01*
X169390931Y-82213693D01*
X169628757Y-82261000D01*
X169871243Y-82261000D01*
X170109069Y-82213693D01*
X170333097Y-82120898D01*
X170534717Y-81986180D01*
X170706180Y-81814717D01*
X170840898Y-81613097D01*
X170933693Y-81389069D01*
X170981000Y-81151243D01*
X170981000Y-80908757D01*
X170933693Y-80670931D01*
X170840898Y-80446903D01*
X170706180Y-80245283D01*
X170534717Y-80073820D01*
X170333097Y-79939102D01*
X170109069Y-79846307D01*
X169871243Y-79799000D01*
X169628757Y-79799000D01*
X169390931Y-79846307D01*
X169166903Y-79939102D01*
X168965283Y-80073820D01*
X168793820Y-80245283D01*
X168659102Y-80446903D01*
X168566307Y-80670931D01*
X168519000Y-80908757D01*
X137875067Y-80908757D01*
X137871870Y-80876302D01*
X137835789Y-80757358D01*
X137777196Y-80647739D01*
X137698343Y-80551657D01*
X137674269Y-80531900D01*
X135511126Y-78368757D01*
X168519000Y-78368757D01*
X168519000Y-78611243D01*
X168566307Y-78849069D01*
X168659102Y-79073097D01*
X168793820Y-79274717D01*
X168965283Y-79446180D01*
X169166903Y-79580898D01*
X169390931Y-79673693D01*
X169628757Y-79721000D01*
X169871243Y-79721000D01*
X170109069Y-79673693D01*
X170333097Y-79580898D01*
X170534717Y-79446180D01*
X170706180Y-79274717D01*
X170840898Y-79073097D01*
X170933693Y-78849069D01*
X170981000Y-78611243D01*
X170981000Y-78368757D01*
X170933693Y-78130931D01*
X170840898Y-77906903D01*
X170706180Y-77705283D01*
X170534717Y-77533820D01*
X170333097Y-77399102D01*
X170109069Y-77306307D01*
X169871243Y-77259000D01*
X169628757Y-77259000D01*
X169390931Y-77306307D01*
X169166903Y-77399102D01*
X168965283Y-77533820D01*
X168793820Y-77705283D01*
X168659102Y-77906903D01*
X168566307Y-78130931D01*
X168519000Y-78368757D01*
X135511126Y-78368757D01*
X135208105Y-78065737D01*
X135188343Y-78041657D01*
X135092261Y-77962804D01*
X134982642Y-77904211D01*
X134863698Y-77868130D01*
X134770998Y-77859000D01*
X134770990Y-77859000D01*
X134740000Y-77855948D01*
X134709010Y-77859000D01*
X129808890Y-77859000D01*
X129706180Y-77705283D01*
X129534717Y-77533820D01*
X129333097Y-77399102D01*
X129109069Y-77306307D01*
X128871243Y-77259000D01*
X128628757Y-77259000D01*
X128390931Y-77306307D01*
X128166903Y-77399102D01*
X127965283Y-77533820D01*
X127793820Y-77705283D01*
X127659102Y-77906903D01*
X127566307Y-78130931D01*
X127519000Y-78368757D01*
X125092900Y-78368757D01*
X125092900Y-75828757D01*
X127519000Y-75828757D01*
X127519000Y-76071243D01*
X127566307Y-76309069D01*
X127659102Y-76533097D01*
X127793820Y-76734717D01*
X127965283Y-76906180D01*
X128166903Y-77040898D01*
X128390931Y-77133693D01*
X128628757Y-77181000D01*
X128871243Y-77181000D01*
X129109069Y-77133693D01*
X129333097Y-77040898D01*
X129534717Y-76906180D01*
X129706180Y-76734717D01*
X129840898Y-76533097D01*
X129933693Y-76309069D01*
X129981000Y-76071243D01*
X129981000Y-75828757D01*
X129933693Y-75590931D01*
X129840898Y-75366903D01*
X129706180Y-75165283D01*
X129534717Y-74993820D01*
X129333097Y-74859102D01*
X129109069Y-74766307D01*
X128871243Y-74719000D01*
X128628757Y-74719000D01*
X128390931Y-74766307D01*
X128166903Y-74859102D01*
X127965283Y-74993820D01*
X127793820Y-75165283D01*
X127659102Y-75366903D01*
X127566307Y-75590931D01*
X127519000Y-75828757D01*
X125092900Y-75828757D01*
X125092900Y-71226890D01*
X127308524Y-71226890D01*
X127353175Y-71374099D01*
X127478359Y-71636920D01*
X127652412Y-71870269D01*
X127868645Y-72065178D01*
X128118748Y-72214157D01*
X128281168Y-72271772D01*
X128166903Y-72319102D01*
X127965283Y-72453820D01*
X127793820Y-72625283D01*
X127659102Y-72826903D01*
X127566307Y-73050931D01*
X127519000Y-73288757D01*
X127519000Y-73531243D01*
X127566307Y-73769069D01*
X127659102Y-73993097D01*
X127793820Y-74194717D01*
X127965283Y-74366180D01*
X128166903Y-74500898D01*
X128390931Y-74593693D01*
X128628757Y-74641000D01*
X128871243Y-74641000D01*
X129109069Y-74593693D01*
X129333097Y-74500898D01*
X129534717Y-74366180D01*
X129706180Y-74194717D01*
X129840898Y-73993097D01*
X129889815Y-73875000D01*
X141992157Y-73875000D01*
X141992157Y-75625000D01*
X141999513Y-75699689D01*
X142021299Y-75771508D01*
X142056678Y-75837696D01*
X142104289Y-75895711D01*
X142162304Y-75943322D01*
X142228492Y-75978701D01*
X142300311Y-76000487D01*
X142375000Y-76007843D01*
X144125000Y-76007843D01*
X144199689Y-76000487D01*
X144271508Y-75978701D01*
X144337696Y-75943322D01*
X144395711Y-75895711D01*
X144443322Y-75837696D01*
X144465481Y-75796240D01*
X144883365Y-75796240D01*
X144964025Y-76047868D01*
X145232329Y-76176267D01*
X145520526Y-76249855D01*
X145817543Y-76265804D01*
X146111963Y-76223501D01*
X146392474Y-76124572D01*
X146535975Y-76047868D01*
X146616635Y-75796240D01*
X145750000Y-74929605D01*
X144883365Y-75796240D01*
X144465481Y-75796240D01*
X144478701Y-75771508D01*
X144500487Y-75699689D01*
X144507843Y-75625000D01*
X144507843Y-75553833D01*
X144703760Y-75616635D01*
X145570395Y-74750000D01*
X145929605Y-74750000D01*
X146796240Y-75616635D01*
X147047868Y-75535975D01*
X147138312Y-75346982D01*
X147274401Y-75550653D01*
X147449347Y-75725599D01*
X147655061Y-75863053D01*
X147883638Y-75957732D01*
X148126295Y-76006000D01*
X148373705Y-76006000D01*
X148616362Y-75957732D01*
X148844939Y-75863053D01*
X148944931Y-75796240D01*
X149883365Y-75796240D01*
X149964025Y-76047868D01*
X150232329Y-76176267D01*
X150520526Y-76249855D01*
X150817543Y-76265804D01*
X151111963Y-76223501D01*
X151392474Y-76124572D01*
X151535975Y-76047868D01*
X151616635Y-75796240D01*
X150750000Y-74929605D01*
X149883365Y-75796240D01*
X148944931Y-75796240D01*
X149050653Y-75725599D01*
X149225599Y-75550653D01*
X149360180Y-75349239D01*
X149375428Y-75392474D01*
X149452132Y-75535975D01*
X149703760Y-75616635D01*
X150570395Y-74750000D01*
X150929605Y-74750000D01*
X151796240Y-75616635D01*
X152047868Y-75535975D01*
X152138312Y-75346982D01*
X152274401Y-75550653D01*
X152449347Y-75725599D01*
X152655061Y-75863053D01*
X152883638Y-75957732D01*
X153126295Y-76006000D01*
X153373705Y-76006000D01*
X153616362Y-75957732D01*
X153844939Y-75863053D01*
X153944931Y-75796240D01*
X154883365Y-75796240D01*
X154964025Y-76047868D01*
X155232329Y-76176267D01*
X155520526Y-76249855D01*
X155817543Y-76265804D01*
X156111963Y-76223501D01*
X156392474Y-76124572D01*
X156535975Y-76047868D01*
X156606211Y-75828757D01*
X168519000Y-75828757D01*
X168519000Y-76071243D01*
X168566307Y-76309069D01*
X168659102Y-76533097D01*
X168793820Y-76734717D01*
X168965283Y-76906180D01*
X169166903Y-77040898D01*
X169390931Y-77133693D01*
X169628757Y-77181000D01*
X169871243Y-77181000D01*
X170109069Y-77133693D01*
X170333097Y-77040898D01*
X170534717Y-76906180D01*
X170706180Y-76734717D01*
X170840898Y-76533097D01*
X170933693Y-76309069D01*
X170981000Y-76071243D01*
X170981000Y-75828757D01*
X170933693Y-75590931D01*
X170840898Y-75366903D01*
X170706180Y-75165283D01*
X170534717Y-74993820D01*
X170333097Y-74859102D01*
X170109069Y-74766307D01*
X169871243Y-74719000D01*
X169628757Y-74719000D01*
X169390931Y-74766307D01*
X169166903Y-74859102D01*
X168965283Y-74993820D01*
X168793820Y-75165283D01*
X168659102Y-75366903D01*
X168566307Y-75590931D01*
X168519000Y-75828757D01*
X156606211Y-75828757D01*
X156616635Y-75796240D01*
X155750000Y-74929605D01*
X154883365Y-75796240D01*
X153944931Y-75796240D01*
X154050653Y-75725599D01*
X154225599Y-75550653D01*
X154360180Y-75349239D01*
X154375428Y-75392474D01*
X154452132Y-75535975D01*
X154703760Y-75616635D01*
X155570395Y-74750000D01*
X155929605Y-74750000D01*
X156796240Y-75616635D01*
X157047868Y-75535975D01*
X157176267Y-75267671D01*
X157249855Y-74979474D01*
X157265804Y-74682457D01*
X157223501Y-74388037D01*
X157124572Y-74107526D01*
X157047868Y-73964025D01*
X156796240Y-73883365D01*
X155929605Y-74750000D01*
X155570395Y-74750000D01*
X154703760Y-73883365D01*
X154452132Y-73964025D01*
X154361688Y-74153018D01*
X154225599Y-73949347D01*
X154050653Y-73774401D01*
X153944932Y-73703760D01*
X154883365Y-73703760D01*
X155750000Y-74570395D01*
X156616635Y-73703760D01*
X156535975Y-73452132D01*
X156267671Y-73323733D01*
X156130693Y-73288757D01*
X168519000Y-73288757D01*
X168519000Y-73531243D01*
X168566307Y-73769069D01*
X168659102Y-73993097D01*
X168793820Y-74194717D01*
X168965283Y-74366180D01*
X169166903Y-74500898D01*
X169390931Y-74593693D01*
X169628757Y-74641000D01*
X169871243Y-74641000D01*
X170109069Y-74593693D01*
X170333097Y-74500898D01*
X170534717Y-74366180D01*
X170706180Y-74194717D01*
X170840898Y-73993097D01*
X170933693Y-73769069D01*
X170981000Y-73531243D01*
X170981000Y-73288757D01*
X170933693Y-73050931D01*
X170840898Y-72826903D01*
X170706180Y-72625283D01*
X170534717Y-72453820D01*
X170333097Y-72319102D01*
X170109069Y-72226307D01*
X169871243Y-72179000D01*
X169628757Y-72179000D01*
X169390931Y-72226307D01*
X169166903Y-72319102D01*
X168965283Y-72453820D01*
X168793820Y-72625283D01*
X168659102Y-72826903D01*
X168566307Y-73050931D01*
X168519000Y-73288757D01*
X156130693Y-73288757D01*
X155979474Y-73250145D01*
X155682457Y-73234196D01*
X155388037Y-73276499D01*
X155107526Y-73375428D01*
X154964025Y-73452132D01*
X154883365Y-73703760D01*
X153944932Y-73703760D01*
X153844939Y-73636947D01*
X153616362Y-73542268D01*
X153373705Y-73494000D01*
X153126295Y-73494000D01*
X152883638Y-73542268D01*
X152655061Y-73636947D01*
X152449347Y-73774401D01*
X152274401Y-73949347D01*
X152139820Y-74150761D01*
X152124572Y-74107526D01*
X152047868Y-73964025D01*
X151796240Y-73883365D01*
X150929605Y-74750000D01*
X150570395Y-74750000D01*
X149703760Y-73883365D01*
X149452132Y-73964025D01*
X149361688Y-74153018D01*
X149225599Y-73949347D01*
X149050653Y-73774401D01*
X148944932Y-73703760D01*
X149883365Y-73703760D01*
X150750000Y-74570395D01*
X151616635Y-73703760D01*
X151535975Y-73452132D01*
X151267671Y-73323733D01*
X150979474Y-73250145D01*
X150682457Y-73234196D01*
X150388037Y-73276499D01*
X150107526Y-73375428D01*
X149964025Y-73452132D01*
X149883365Y-73703760D01*
X148944932Y-73703760D01*
X148844939Y-73636947D01*
X148616362Y-73542268D01*
X148373705Y-73494000D01*
X148126295Y-73494000D01*
X147883638Y-73542268D01*
X147655061Y-73636947D01*
X147449347Y-73774401D01*
X147274401Y-73949347D01*
X147139820Y-74150761D01*
X147124572Y-74107526D01*
X147047868Y-73964025D01*
X146796240Y-73883365D01*
X145929605Y-74750000D01*
X145570395Y-74750000D01*
X144703760Y-73883365D01*
X144507843Y-73946167D01*
X144507843Y-73875000D01*
X144500487Y-73800311D01*
X144478701Y-73728492D01*
X144465482Y-73703760D01*
X144883365Y-73703760D01*
X145750000Y-74570395D01*
X146616635Y-73703760D01*
X146535975Y-73452132D01*
X146267671Y-73323733D01*
X145979474Y-73250145D01*
X145682457Y-73234196D01*
X145388037Y-73276499D01*
X145107526Y-73375428D01*
X144964025Y-73452132D01*
X144883365Y-73703760D01*
X144465482Y-73703760D01*
X144443322Y-73662304D01*
X144395711Y-73604289D01*
X144337696Y-73556678D01*
X144271508Y-73521299D01*
X144199689Y-73499513D01*
X144125000Y-73492157D01*
X142375000Y-73492157D01*
X142300311Y-73499513D01*
X142228492Y-73521299D01*
X142162304Y-73556678D01*
X142104289Y-73604289D01*
X142056678Y-73662304D01*
X142021299Y-73728492D01*
X141999513Y-73800311D01*
X141992157Y-73875000D01*
X129889815Y-73875000D01*
X129933693Y-73769069D01*
X129981000Y-73531243D01*
X129981000Y-73288757D01*
X129933693Y-73050931D01*
X129840898Y-72826903D01*
X129706180Y-72625283D01*
X129534717Y-72453820D01*
X129333097Y-72319102D01*
X129218832Y-72271772D01*
X129381252Y-72214157D01*
X129631355Y-72065178D01*
X129847588Y-71870269D01*
X130021641Y-71636920D01*
X130146825Y-71374099D01*
X130191476Y-71226890D01*
X130070155Y-70997000D01*
X128877000Y-70997000D01*
X128877000Y-71017000D01*
X128623000Y-71017000D01*
X128623000Y-70997000D01*
X127429845Y-70997000D01*
X127308524Y-71226890D01*
X125092900Y-71226890D01*
X125092900Y-70748757D01*
X168519000Y-70748757D01*
X168519000Y-70991243D01*
X168566307Y-71229069D01*
X168659102Y-71453097D01*
X168793820Y-71654717D01*
X168965283Y-71826180D01*
X169166903Y-71960898D01*
X169390931Y-72053693D01*
X169628757Y-72101000D01*
X169871243Y-72101000D01*
X170109069Y-72053693D01*
X170333097Y-71960898D01*
X170534717Y-71826180D01*
X170706180Y-71654717D01*
X170840898Y-71453097D01*
X170933693Y-71229069D01*
X170981000Y-70991243D01*
X170981000Y-70748757D01*
X170933693Y-70510931D01*
X170840898Y-70286903D01*
X170706180Y-70085283D01*
X170534717Y-69913820D01*
X170333097Y-69779102D01*
X170109069Y-69686307D01*
X169871243Y-69639000D01*
X169628757Y-69639000D01*
X169390931Y-69686307D01*
X169166903Y-69779102D01*
X168965283Y-69913820D01*
X168793820Y-70085283D01*
X168659102Y-70286903D01*
X168566307Y-70510931D01*
X168519000Y-70748757D01*
X125092900Y-70748757D01*
X125092900Y-70513110D01*
X127308524Y-70513110D01*
X127429845Y-70743000D01*
X128623000Y-70743000D01*
X128623000Y-70723000D01*
X128877000Y-70723000D01*
X128877000Y-70743000D01*
X130070155Y-70743000D01*
X130191476Y-70513110D01*
X130146825Y-70365901D01*
X130021641Y-70103080D01*
X129847588Y-69869731D01*
X129631355Y-69674822D01*
X129381252Y-69525843D01*
X129218832Y-69468228D01*
X129333097Y-69420898D01*
X129534717Y-69286180D01*
X129706180Y-69114717D01*
X129840898Y-68913097D01*
X129933693Y-68689069D01*
X129981000Y-68451243D01*
X129981000Y-68208757D01*
X129933693Y-67970931D01*
X129840898Y-67746903D01*
X129706180Y-67545283D01*
X129534717Y-67373820D01*
X129333097Y-67239102D01*
X129109069Y-67146307D01*
X128871243Y-67099000D01*
X128628757Y-67099000D01*
X128390931Y-67146307D01*
X128166903Y-67239102D01*
X127965283Y-67373820D01*
X127793820Y-67545283D01*
X127659102Y-67746903D01*
X127566307Y-67970931D01*
X127519000Y-68208757D01*
X127519000Y-68451243D01*
X127566307Y-68689069D01*
X127659102Y-68913097D01*
X127793820Y-69114717D01*
X127965283Y-69286180D01*
X128166903Y-69420898D01*
X128281168Y-69468228D01*
X128118748Y-69525843D01*
X127868645Y-69674822D01*
X127652412Y-69869731D01*
X127478359Y-70103080D01*
X127353175Y-70365901D01*
X127308524Y-70513110D01*
X125092900Y-70513110D01*
X125092900Y-65668757D01*
X127519000Y-65668757D01*
X127519000Y-65911243D01*
X127566307Y-66149069D01*
X127659102Y-66373097D01*
X127793820Y-66574717D01*
X127965283Y-66746180D01*
X128166903Y-66880898D01*
X128390931Y-66973693D01*
X128628757Y-67021000D01*
X128871243Y-67021000D01*
X129109069Y-66973693D01*
X129333097Y-66880898D01*
X129534717Y-66746180D01*
X129706180Y-66574717D01*
X129840898Y-66373097D01*
X129933693Y-66149069D01*
X129934126Y-66146890D01*
X168308524Y-66146890D01*
X168353175Y-66294099D01*
X168478359Y-66556920D01*
X168652412Y-66790269D01*
X168868645Y-66985178D01*
X169118748Y-67134157D01*
X169281168Y-67191772D01*
X169166903Y-67239102D01*
X168965283Y-67373820D01*
X168793820Y-67545283D01*
X168659102Y-67746903D01*
X168566307Y-67970931D01*
X168519000Y-68208757D01*
X168519000Y-68451243D01*
X168566307Y-68689069D01*
X168659102Y-68913097D01*
X168793820Y-69114717D01*
X168965283Y-69286180D01*
X169166903Y-69420898D01*
X169390931Y-69513693D01*
X169628757Y-69561000D01*
X169871243Y-69561000D01*
X170109069Y-69513693D01*
X170333097Y-69420898D01*
X170534717Y-69286180D01*
X170706180Y-69114717D01*
X170840898Y-68913097D01*
X170933693Y-68689069D01*
X170981000Y-68451243D01*
X170981000Y-68208757D01*
X170933693Y-67970931D01*
X170840898Y-67746903D01*
X170706180Y-67545283D01*
X170534717Y-67373820D01*
X170333097Y-67239102D01*
X170218832Y-67191772D01*
X170381252Y-67134157D01*
X170631355Y-66985178D01*
X170847588Y-66790269D01*
X171021641Y-66556920D01*
X171146825Y-66294099D01*
X171191476Y-66146890D01*
X171070155Y-65917000D01*
X169877000Y-65917000D01*
X169877000Y-65937000D01*
X169623000Y-65937000D01*
X169623000Y-65917000D01*
X168429845Y-65917000D01*
X168308524Y-66146890D01*
X129934126Y-66146890D01*
X129981000Y-65911243D01*
X129981000Y-65668757D01*
X129934127Y-65433110D01*
X168308524Y-65433110D01*
X168429845Y-65663000D01*
X169623000Y-65663000D01*
X169623000Y-65643000D01*
X169877000Y-65643000D01*
X169877000Y-65663000D01*
X171070155Y-65663000D01*
X171191476Y-65433110D01*
X171146825Y-65285901D01*
X171021641Y-65023080D01*
X170847588Y-64789731D01*
X170631355Y-64594822D01*
X170443367Y-64482843D01*
X170600000Y-64482843D01*
X170674689Y-64475487D01*
X170746508Y-64453701D01*
X170812696Y-64418322D01*
X170870711Y-64370711D01*
X170918322Y-64312696D01*
X170953701Y-64246508D01*
X170975487Y-64174689D01*
X170982843Y-64100000D01*
X170982843Y-62400000D01*
X170975487Y-62325311D01*
X170953701Y-62253492D01*
X170918322Y-62187304D01*
X170870711Y-62129289D01*
X170812696Y-62081678D01*
X170746508Y-62046299D01*
X170674689Y-62024513D01*
X170600000Y-62017157D01*
X168900000Y-62017157D01*
X168825311Y-62024513D01*
X168753492Y-62046299D01*
X168687304Y-62081678D01*
X168629289Y-62129289D01*
X168581678Y-62187304D01*
X168546299Y-62253492D01*
X168524513Y-62325311D01*
X168517157Y-62400000D01*
X168517157Y-64100000D01*
X168524513Y-64174689D01*
X168546299Y-64246508D01*
X168581678Y-64312696D01*
X168629289Y-64370711D01*
X168687304Y-64418322D01*
X168753492Y-64453701D01*
X168825311Y-64475487D01*
X168900000Y-64482843D01*
X169056633Y-64482843D01*
X168868645Y-64594822D01*
X168652412Y-64789731D01*
X168478359Y-65023080D01*
X168353175Y-65285901D01*
X168308524Y-65433110D01*
X129934127Y-65433110D01*
X129933693Y-65430931D01*
X129840898Y-65206903D01*
X129706180Y-65005283D01*
X129534717Y-64833820D01*
X129333097Y-64699102D01*
X129109069Y-64606307D01*
X128871243Y-64559000D01*
X128628757Y-64559000D01*
X128390931Y-64606307D01*
X128166903Y-64699102D01*
X127965283Y-64833820D01*
X127793820Y-65005283D01*
X127659102Y-65206903D01*
X127566307Y-65430931D01*
X127519000Y-65668757D01*
X125092900Y-65668757D01*
X125092900Y-62400000D01*
X127517157Y-62400000D01*
X127517157Y-64100000D01*
X127524513Y-64174689D01*
X127546299Y-64246508D01*
X127581678Y-64312696D01*
X127629289Y-64370711D01*
X127687304Y-64418322D01*
X127753492Y-64453701D01*
X127825311Y-64475487D01*
X127900000Y-64482843D01*
X129600000Y-64482843D01*
X129674689Y-64475487D01*
X129746508Y-64453701D01*
X129812696Y-64418322D01*
X129870711Y-64370711D01*
X129918322Y-64312696D01*
X129953701Y-64246508D01*
X129975487Y-64174689D01*
X129982843Y-64100000D01*
X129982843Y-62400000D01*
X129980381Y-62375000D01*
X141992157Y-62375000D01*
X141992157Y-64125000D01*
X141999513Y-64199689D01*
X142021299Y-64271508D01*
X142056678Y-64337696D01*
X142104289Y-64395711D01*
X142162304Y-64443322D01*
X142228492Y-64478701D01*
X142300311Y-64500487D01*
X142375000Y-64507843D01*
X144125000Y-64507843D01*
X144199689Y-64500487D01*
X144271508Y-64478701D01*
X144337696Y-64443322D01*
X144395711Y-64395711D01*
X144443322Y-64337696D01*
X144478701Y-64271508D01*
X144500487Y-64199689D01*
X144507843Y-64125000D01*
X144507843Y-63443298D01*
X144542268Y-63616362D01*
X144636947Y-63844939D01*
X144774401Y-64050653D01*
X144949347Y-64225599D01*
X145155061Y-64363053D01*
X145383638Y-64457732D01*
X145626295Y-64506000D01*
X145873705Y-64506000D01*
X146116362Y-64457732D01*
X146344939Y-64363053D01*
X146444931Y-64296240D01*
X147383365Y-64296240D01*
X147464025Y-64547868D01*
X147732329Y-64676267D01*
X148020526Y-64749855D01*
X148317543Y-64765804D01*
X148611963Y-64723501D01*
X148892474Y-64624572D01*
X149035975Y-64547868D01*
X149116635Y-64296240D01*
X149883365Y-64296240D01*
X149964025Y-64547868D01*
X150232329Y-64676267D01*
X150520526Y-64749855D01*
X150817543Y-64765804D01*
X151111963Y-64723501D01*
X151392474Y-64624572D01*
X151535975Y-64547868D01*
X151616635Y-64296240D01*
X150750000Y-63429605D01*
X149883365Y-64296240D01*
X149116635Y-64296240D01*
X148250000Y-63429605D01*
X147383365Y-64296240D01*
X146444931Y-64296240D01*
X146550653Y-64225599D01*
X146725599Y-64050653D01*
X146860180Y-63849239D01*
X146875428Y-63892474D01*
X146952132Y-64035975D01*
X147203760Y-64116635D01*
X148070395Y-63250000D01*
X148429605Y-63250000D01*
X149296240Y-64116635D01*
X149500000Y-64051319D01*
X149703760Y-64116635D01*
X150570395Y-63250000D01*
X150929605Y-63250000D01*
X151796240Y-64116635D01*
X152047868Y-64035975D01*
X152138312Y-63846982D01*
X152274401Y-64050653D01*
X152449347Y-64225599D01*
X152655061Y-64363053D01*
X152883638Y-64457732D01*
X153126295Y-64506000D01*
X153373705Y-64506000D01*
X153616362Y-64457732D01*
X153844939Y-64363053D01*
X154050653Y-64225599D01*
X154225599Y-64050653D01*
X154363053Y-63844939D01*
X154457732Y-63616362D01*
X154500000Y-63403869D01*
X154542268Y-63616362D01*
X154636947Y-63844939D01*
X154774401Y-64050653D01*
X154949347Y-64225599D01*
X155155061Y-64363053D01*
X155383638Y-64457732D01*
X155626295Y-64506000D01*
X155873705Y-64506000D01*
X156116362Y-64457732D01*
X156344939Y-64363053D01*
X156550653Y-64225599D01*
X156725599Y-64050653D01*
X156863053Y-63844939D01*
X156957732Y-63616362D01*
X157006000Y-63373705D01*
X157006000Y-63126295D01*
X156957732Y-62883638D01*
X156863053Y-62655061D01*
X156725599Y-62449347D01*
X156550653Y-62274401D01*
X156344939Y-62136947D01*
X156116362Y-62042268D01*
X155873705Y-61994000D01*
X155626295Y-61994000D01*
X155383638Y-62042268D01*
X155155061Y-62136947D01*
X154949347Y-62274401D01*
X154774401Y-62449347D01*
X154636947Y-62655061D01*
X154542268Y-62883638D01*
X154500000Y-63096131D01*
X154457732Y-62883638D01*
X154363053Y-62655061D01*
X154225599Y-62449347D01*
X154050653Y-62274401D01*
X153844939Y-62136947D01*
X153616362Y-62042268D01*
X153373705Y-61994000D01*
X153126295Y-61994000D01*
X152883638Y-62042268D01*
X152655061Y-62136947D01*
X152449347Y-62274401D01*
X152274401Y-62449347D01*
X152139820Y-62650761D01*
X152124572Y-62607526D01*
X152047868Y-62464025D01*
X151796240Y-62383365D01*
X150929605Y-63250000D01*
X150570395Y-63250000D01*
X149703760Y-62383365D01*
X149500000Y-62448681D01*
X149296240Y-62383365D01*
X148429605Y-63250000D01*
X148070395Y-63250000D01*
X147203760Y-62383365D01*
X146952132Y-62464025D01*
X146861688Y-62653018D01*
X146725599Y-62449347D01*
X146550653Y-62274401D01*
X146444932Y-62203760D01*
X147383365Y-62203760D01*
X148250000Y-63070395D01*
X149116635Y-62203760D01*
X149883365Y-62203760D01*
X150750000Y-63070395D01*
X151616635Y-62203760D01*
X151535975Y-61952132D01*
X151267671Y-61823733D01*
X150979474Y-61750145D01*
X150682457Y-61734196D01*
X150388037Y-61776499D01*
X150107526Y-61875428D01*
X149964025Y-61952132D01*
X149883365Y-62203760D01*
X149116635Y-62203760D01*
X149035975Y-61952132D01*
X148767671Y-61823733D01*
X148479474Y-61750145D01*
X148182457Y-61734196D01*
X147888037Y-61776499D01*
X147607526Y-61875428D01*
X147464025Y-61952132D01*
X147383365Y-62203760D01*
X146444932Y-62203760D01*
X146344939Y-62136947D01*
X146116362Y-62042268D01*
X145873705Y-61994000D01*
X145626295Y-61994000D01*
X145383638Y-62042268D01*
X145155061Y-62136947D01*
X144949347Y-62274401D01*
X144774401Y-62449347D01*
X144636947Y-62655061D01*
X144542268Y-62883638D01*
X144507843Y-63056702D01*
X144507843Y-62375000D01*
X144500487Y-62300311D01*
X144478701Y-62228492D01*
X144443322Y-62162304D01*
X144395711Y-62104289D01*
X144337696Y-62056678D01*
X144271508Y-62021299D01*
X144199689Y-61999513D01*
X144125000Y-61992157D01*
X142375000Y-61992157D01*
X142300311Y-61999513D01*
X142228492Y-62021299D01*
X142162304Y-62056678D01*
X142104289Y-62104289D01*
X142056678Y-62162304D01*
X142021299Y-62228492D01*
X141999513Y-62300311D01*
X141992157Y-62375000D01*
X129980381Y-62375000D01*
X129975487Y-62325311D01*
X129953701Y-62253492D01*
X129918322Y-62187304D01*
X129870711Y-62129289D01*
X129812696Y-62081678D01*
X129746508Y-62046299D01*
X129674689Y-62024513D01*
X129600000Y-62017157D01*
X127900000Y-62017157D01*
X127825311Y-62024513D01*
X127753492Y-62046299D01*
X127687304Y-62081678D01*
X127629289Y-62129289D01*
X127581678Y-62187304D01*
X127546299Y-62253492D01*
X127524513Y-62325311D01*
X127517157Y-62400000D01*
X125092900Y-62400000D01*
X125092900Y-57804889D01*
X126769000Y-57804889D01*
X126769000Y-58195111D01*
X126845129Y-58577836D01*
X126994461Y-58938355D01*
X127211257Y-59262814D01*
X127487186Y-59538743D01*
X127811645Y-59755539D01*
X128172164Y-59904871D01*
X128554889Y-59981000D01*
X128945111Y-59981000D01*
X129327836Y-59904871D01*
X129688355Y-59755539D01*
X130012814Y-59538743D01*
X130288743Y-59262814D01*
X130505539Y-58938355D01*
X130654871Y-58577836D01*
X130731000Y-58195111D01*
X130731000Y-57804889D01*
X167769000Y-57804889D01*
X167769000Y-58195111D01*
X167845129Y-58577836D01*
X167994461Y-58938355D01*
X168211257Y-59262814D01*
X168487186Y-59538743D01*
X168811645Y-59755539D01*
X169172164Y-59904871D01*
X169554889Y-59981000D01*
X169945111Y-59981000D01*
X170327836Y-59904871D01*
X170688355Y-59755539D01*
X171012814Y-59538743D01*
X171288743Y-59262814D01*
X171505539Y-58938355D01*
X171654871Y-58577836D01*
X171731000Y-58195111D01*
X171731000Y-57804889D01*
X171654871Y-57422164D01*
X171505539Y-57061645D01*
X171288743Y-56737186D01*
X171012814Y-56461257D01*
X170688355Y-56244461D01*
X170327836Y-56095129D01*
X169945111Y-56019000D01*
X169554889Y-56019000D01*
X169172164Y-56095129D01*
X168811645Y-56244461D01*
X168487186Y-56461257D01*
X168211257Y-56737186D01*
X167994461Y-57061645D01*
X167845129Y-57422164D01*
X167769000Y-57804889D01*
X130731000Y-57804889D01*
X130654871Y-57422164D01*
X130505539Y-57061645D01*
X130288743Y-56737186D01*
X130012814Y-56461257D01*
X129688355Y-56244461D01*
X129327836Y-56095129D01*
X128945111Y-56019000D01*
X128554889Y-56019000D01*
X128172164Y-56095129D01*
X127811645Y-56244461D01*
X127487186Y-56461257D01*
X127211257Y-56737186D01*
X126994461Y-57061645D01*
X126845129Y-57422164D01*
X126769000Y-57804889D01*
X125092900Y-57804889D01*
X125092900Y-55516775D01*
X125116549Y-55275573D01*
X125181728Y-55059691D01*
X125287598Y-54860579D01*
X125430121Y-54685829D01*
X125603880Y-54542083D01*
X125802243Y-54434828D01*
X126017661Y-54368145D01*
X126257854Y-54342900D01*
X172483225Y-54342900D01*
X172724427Y-54366549D01*
M02*
