M48
; DRILL file {KiCad 5.1.5+dfsg1-2build2} date Sun Jan 24 20:27:38 2021
; FORMAT={-:-/ absolute / inch / decimal}
; #@! TF.CreationDate,2021-01-24T20:27:38+01:00
; #@! TF.GenerationSoftware,Kicad,Pcbnew,5.1.5+dfsg1-2build2
FMAT,2
INCH
T1C0.0130
T2C0.0394
T3C0.0433
T4C0.0433
T5C0.1260
%
G90
G05
T1
X5.2362Y-2.7854
X5.374Y-2.6378
X5.3937Y-2.9823
X5.502Y-2.9823
X5.6299Y-3.3957
X5.6693Y-3.4941
X5.6791Y-3.6811
X5.7579Y-2.628
X5.876Y-2.6083
X6.1614Y-2.7559
X6.25Y-2.6772
X6.3091Y-3.5236
X6.3287Y-3.2579
X6.4469Y-3.435
X6.5059Y-3.1004
T2
X5.6398Y-2.4902
X5.7382Y-2.4902
X5.8366Y-2.4902
X5.935Y-2.4902
X6.0335Y-2.4902
X6.1319Y-2.4902
X5.0689Y-2.4902
X5.0689Y-2.5902
X5.0689Y-2.6902
X5.0689Y-2.7902
X5.0689Y-2.8902
X5.0689Y-2.9902
X5.0689Y-3.0902
X5.0689Y-3.1902
X5.0689Y-3.2902
X5.0689Y-3.3902
X5.0689Y-3.4902
X5.0689Y-3.5902
X5.0689Y-3.6902
X5.0689Y-3.7902
X5.0689Y-3.8902
X5.6398Y-2.9429
X5.7382Y-2.9429
X5.8366Y-2.9429
X5.935Y-2.9429
X6.0335Y-2.9429
X6.1319Y-2.9429
X6.6831Y-2.4902
X6.6831Y-2.5902
X6.6831Y-2.6902
X6.6831Y-2.7902
X6.6831Y-2.8902
X6.6831Y-2.9902
X6.6831Y-3.0902
X6.6831Y-3.1902
X6.6831Y-3.2902
X6.6831Y-3.3902
X6.6831Y-3.4902
X6.6831Y-3.5902
X6.6831Y-3.6902
X6.6831Y-3.7902
X6.6831Y-3.8902
T3
X5.8858Y-3.937
X5.8858Y-4.0551
T4
X5.7677Y-3.8976
X6.0039Y-3.9
T5
X5.0689Y-4.1339
X6.6831Y-4.1339
X6.6831Y-2.2835
X5.0689Y-2.2835
T0
M30
