%TF.GenerationSoftware,KiCad,Pcbnew,5.1.5+dfsg1-2build2*%
%TF.CreationDate,2021-01-24T18:32:34+01:00*%
%TF.ProjectId,PlacaDynamixel,506c6163-6144-4796-9e61-6d6978656c2e,rev?*%
%TF.SameCoordinates,Original*%
%TF.FileFunction,Soldermask,Bot*%
%TF.FilePolarity,Negative*%
%FSLAX46Y46*%
G04 Gerber Fmt 4.6, Leading zero omitted, Abs format (unit mm)*
G04 Created by KiCad (PCBNEW 5.1.5+dfsg1-2build2) date 2021-01-24 18:32:34*
%MOMM*%
%LPD*%
G04 APERTURE LIST*
%ADD10C,3.300000*%
%ADD11R,2.700000X2.100000*%
%ADD12O,2.700000X2.100000*%
%ADD13C,1.600000*%
%ADD14C,3.200000*%
%ADD15O,1.800000X1.800000*%
%ADD16R,1.800000X1.800000*%
G04 APERTURE END LIST*
D10*
X166400000Y-114600000D03*
X125200000Y-114600000D03*
X125200000Y-67600000D03*
X166400000Y-67600000D03*
D11*
X158150000Y-73150000D03*
D12*
X158150000Y-70610000D03*
X158150000Y-68070000D03*
X134750000Y-68070000D03*
X134750000Y-70610000D03*
D11*
X134750000Y-73150000D03*
D13*
X145850000Y-106325000D03*
X145850000Y-109325000D03*
D14*
X145850000Y-113645000D03*
D11*
X150350000Y-73150000D03*
D12*
X150350000Y-70610000D03*
X150350000Y-68070000D03*
X142550000Y-68070000D03*
X142550000Y-70610000D03*
D11*
X142550000Y-73150000D03*
D15*
X125225000Y-108255000D03*
X125225000Y-105715000D03*
X125225000Y-103175000D03*
X125225000Y-100635000D03*
X125225000Y-98095000D03*
X125225000Y-95555000D03*
X125225000Y-93015000D03*
X125225000Y-90475000D03*
X125225000Y-87935000D03*
X125225000Y-85395000D03*
X125225000Y-82855000D03*
X125225000Y-80315000D03*
X125225000Y-77775000D03*
X125225000Y-75235000D03*
D16*
X125225000Y-72695000D03*
X166175000Y-72775000D03*
D15*
X166175000Y-75315000D03*
X166175000Y-77855000D03*
X166175000Y-80395000D03*
X166175000Y-82935000D03*
X166175000Y-85475000D03*
X166175000Y-88015000D03*
X166175000Y-90555000D03*
X166175000Y-93095000D03*
X166175000Y-95635000D03*
X166175000Y-98175000D03*
X166175000Y-100715000D03*
X166175000Y-103255000D03*
X166175000Y-105795000D03*
X166175000Y-108335000D03*
M02*
