M48
; DRILL file {KiCad 5.1.5+dfsg1-2build2} date dom 24 ene 2021 18:32:36
; FORMAT={-:-/ absolute / inch / decimal}
; #@! TF.CreationDate,2021-01-24T18:32:36+01:00
; #@! TF.GenerationSoftware,Kicad,Pcbnew,5.1.5+dfsg1-2build2
FMAT,2
INCH
T1C0.0394
T2C0.0433
T3C0.0472
T4C0.1220
T5C0.1260
%
G90
G05
T1
X6.5423Y-2.8652
X6.5423Y-2.9652
X6.5423Y-3.0652
X6.5423Y-3.1652
X6.5423Y-3.2652
X6.5423Y-3.3652
X6.5423Y-3.4652
X6.5423Y-3.5652
X6.5423Y-3.6652
X6.5423Y-3.7652
X6.5423Y-3.8652
X6.5423Y-3.9652
X6.5423Y-4.0652
X6.5423Y-4.1652
X6.5423Y-4.2652
X4.9301Y-2.862
X4.9301Y-2.962
X4.9301Y-3.062
X4.9301Y-3.162
X4.9301Y-3.262
X4.9301Y-3.362
X4.9301Y-3.462
X4.9301Y-3.562
X4.9301Y-3.662
X4.9301Y-3.762
X4.9301Y-3.862
X4.9301Y-3.962
X4.9301Y-4.062
X4.9301Y-4.162
X4.9301Y-4.262
T2
X5.7421Y-4.186
X5.7421Y-4.3041
T3
X5.6122Y-2.6799
X5.6122Y-2.7799
X5.6122Y-2.8799
X5.9193Y-2.6799
X5.9193Y-2.7799
X5.9193Y-2.8799
X5.3051Y-2.6799
X5.3051Y-2.7799
X5.3051Y-2.8799
X6.2264Y-2.6799
X6.2264Y-2.7799
X6.2264Y-2.8799
T4
X5.7421Y-4.4742
T5
X4.9291Y-2.6614
X6.5512Y-4.5118
X6.5512Y-2.6614
X4.9291Y-4.5118
T0
M30
