%TF.GenerationSoftware,KiCad,Pcbnew,5.1.5+dfsg1-2build2*%
%TF.CreationDate,2021-01-24T18:32:34+01:00*%
%TF.ProjectId,PlacaDynamixel,506c6163-6144-4796-9e61-6d6978656c2e,rev?*%
%TF.SameCoordinates,Original*%
%TF.FileFunction,Legend,Top*%
%TF.FilePolarity,Positive*%
%FSLAX46Y46*%
G04 Gerber Fmt 4.6, Leading zero omitted, Abs format (unit mm)*
G04 Created by KiCad (PCBNEW 5.1.5+dfsg1-2build2) date 2021-01-24 18:32:34*
%MOMM*%
%LPD*%
G04 APERTURE LIST*
%ADD10C,0.127000*%
%ADD11C,0.010000*%
%ADD12C,0.120000*%
%ADD13C,0.200000*%
%ADD14C,0.150000*%
G04 APERTURE END LIST*
D10*
X157135714Y-117611904D02*
X157135714Y-116811904D01*
X157440476Y-116811904D01*
X157516666Y-116850000D01*
X157554761Y-116888095D01*
X157592857Y-116964285D01*
X157592857Y-117078571D01*
X157554761Y-117154761D01*
X157516666Y-117192857D01*
X157440476Y-117230952D01*
X157135714Y-117230952D01*
X158050000Y-117611904D02*
X157973809Y-117573809D01*
X157935714Y-117497619D01*
X157935714Y-116811904D01*
X158697619Y-117611904D02*
X158697619Y-117192857D01*
X158659523Y-117116666D01*
X158583333Y-117078571D01*
X158430952Y-117078571D01*
X158354761Y-117116666D01*
X158697619Y-117573809D02*
X158621428Y-117611904D01*
X158430952Y-117611904D01*
X158354761Y-117573809D01*
X158316666Y-117497619D01*
X158316666Y-117421428D01*
X158354761Y-117345238D01*
X158430952Y-117307142D01*
X158621428Y-117307142D01*
X158697619Y-117269047D01*
X159421428Y-117573809D02*
X159345238Y-117611904D01*
X159192857Y-117611904D01*
X159116666Y-117573809D01*
X159078571Y-117535714D01*
X159040476Y-117459523D01*
X159040476Y-117230952D01*
X159078571Y-117154761D01*
X159116666Y-117116666D01*
X159192857Y-117078571D01*
X159345238Y-117078571D01*
X159421428Y-117116666D01*
X160107142Y-117611904D02*
X160107142Y-117192857D01*
X160069047Y-117116666D01*
X159992857Y-117078571D01*
X159840476Y-117078571D01*
X159764285Y-117116666D01*
X160107142Y-117573809D02*
X160030952Y-117611904D01*
X159840476Y-117611904D01*
X159764285Y-117573809D01*
X159726190Y-117497619D01*
X159726190Y-117421428D01*
X159764285Y-117345238D01*
X159840476Y-117307142D01*
X160030952Y-117307142D01*
X160107142Y-117269047D01*
X160488095Y-117611904D02*
X160488095Y-116811904D01*
X160678571Y-116811904D01*
X160792857Y-116850000D01*
X160869047Y-116926190D01*
X160907142Y-117002380D01*
X160945238Y-117154761D01*
X160945238Y-117269047D01*
X160907142Y-117421428D01*
X160869047Y-117497619D01*
X160792857Y-117573809D01*
X160678571Y-117611904D01*
X160488095Y-117611904D01*
X161211904Y-117078571D02*
X161402380Y-117611904D01*
X161592857Y-117078571D02*
X161402380Y-117611904D01*
X161326190Y-117802380D01*
X161288095Y-117840476D01*
X161211904Y-117878571D01*
X161897619Y-117078571D02*
X161897619Y-117611904D01*
X161897619Y-117154761D02*
X161935714Y-117116666D01*
X162011904Y-117078571D01*
X162126190Y-117078571D01*
X162202380Y-117116666D01*
X162240476Y-117192857D01*
X162240476Y-117611904D01*
X162964285Y-117611904D02*
X162964285Y-117192857D01*
X162926190Y-117116666D01*
X162850000Y-117078571D01*
X162697619Y-117078571D01*
X162621428Y-117116666D01*
X162964285Y-117573809D02*
X162888095Y-117611904D01*
X162697619Y-117611904D01*
X162621428Y-117573809D01*
X162583333Y-117497619D01*
X162583333Y-117421428D01*
X162621428Y-117345238D01*
X162697619Y-117307142D01*
X162888095Y-117307142D01*
X162964285Y-117269047D01*
X163345238Y-117611904D02*
X163345238Y-117078571D01*
X163345238Y-117154761D02*
X163383333Y-117116666D01*
X163459523Y-117078571D01*
X163573809Y-117078571D01*
X163650000Y-117116666D01*
X163688095Y-117192857D01*
X163688095Y-117611904D01*
X163688095Y-117192857D02*
X163726190Y-117116666D01*
X163802380Y-117078571D01*
X163916666Y-117078571D01*
X163992857Y-117116666D01*
X164030952Y-117192857D01*
X164030952Y-117611904D01*
X164411904Y-117611904D02*
X164411904Y-117078571D01*
X164411904Y-116811904D02*
X164373809Y-116850000D01*
X164411904Y-116888095D01*
X164450000Y-116850000D01*
X164411904Y-116811904D01*
X164411904Y-116888095D01*
X164716666Y-117611904D02*
X165135714Y-117078571D01*
X164716666Y-117078571D02*
X165135714Y-117611904D01*
X165745238Y-117573809D02*
X165669047Y-117611904D01*
X165516666Y-117611904D01*
X165440476Y-117573809D01*
X165402380Y-117497619D01*
X165402380Y-117192857D01*
X165440476Y-117116666D01*
X165516666Y-117078571D01*
X165669047Y-117078571D01*
X165745238Y-117116666D01*
X165783333Y-117192857D01*
X165783333Y-117269047D01*
X165402380Y-117345238D01*
X166240476Y-117611904D02*
X166164285Y-117573809D01*
X166126190Y-117497619D01*
X166126190Y-116811904D01*
X167040476Y-116811904D02*
X167307142Y-117611904D01*
X167573809Y-116811904D01*
X167992857Y-116811904D02*
X168069047Y-116811904D01*
X168145238Y-116850000D01*
X168183333Y-116888095D01*
X168221428Y-116964285D01*
X168259523Y-117116666D01*
X168259523Y-117307142D01*
X168221428Y-117459523D01*
X168183333Y-117535714D01*
X168145238Y-117573809D01*
X168069047Y-117611904D01*
X167992857Y-117611904D01*
X167916666Y-117573809D01*
X167878571Y-117535714D01*
X167840476Y-117459523D01*
X167802380Y-117307142D01*
X167802380Y-117116666D01*
X167840476Y-116964285D01*
X167878571Y-116888095D01*
X167916666Y-116850000D01*
X167992857Y-116811904D01*
X168602380Y-117535714D02*
X168640476Y-117573809D01*
X168602380Y-117611904D01*
X168564285Y-117573809D01*
X168602380Y-117535714D01*
X168602380Y-117611904D01*
X169402380Y-117611904D02*
X168945238Y-117611904D01*
X169173809Y-117611904D02*
X169173809Y-116811904D01*
X169097619Y-116926190D01*
X169021428Y-117002380D01*
X168945238Y-117040476D01*
X150369047Y-109321428D02*
X151130952Y-109321428D01*
X150750000Y-109702380D02*
X150750000Y-108940476D01*
X160450000Y-68457142D02*
X160421428Y-68514285D01*
X160421428Y-68600000D01*
X160450000Y-68685714D01*
X160507142Y-68742857D01*
X160564285Y-68771428D01*
X160678571Y-68800000D01*
X160764285Y-68800000D01*
X160878571Y-68771428D01*
X160935714Y-68742857D01*
X160992857Y-68685714D01*
X161021428Y-68600000D01*
X161021428Y-68542857D01*
X160992857Y-68457142D01*
X160964285Y-68428571D01*
X160764285Y-68428571D01*
X160764285Y-68542857D01*
X161021428Y-68171428D02*
X160421428Y-68171428D01*
X161021428Y-67828571D01*
X160421428Y-67828571D01*
X161021428Y-67542857D02*
X160421428Y-67542857D01*
X160421428Y-67400000D01*
X160450000Y-67314285D01*
X160507142Y-67257142D01*
X160564285Y-67228571D01*
X160678571Y-67200000D01*
X160764285Y-67200000D01*
X160878571Y-67228571D01*
X160935714Y-67257142D01*
X160992857Y-67314285D01*
X161021428Y-67400000D01*
X161021428Y-67542857D01*
X152700000Y-68457142D02*
X152671428Y-68514285D01*
X152671428Y-68600000D01*
X152700000Y-68685714D01*
X152757142Y-68742857D01*
X152814285Y-68771428D01*
X152928571Y-68800000D01*
X153014285Y-68800000D01*
X153128571Y-68771428D01*
X153185714Y-68742857D01*
X153242857Y-68685714D01*
X153271428Y-68600000D01*
X153271428Y-68542857D01*
X153242857Y-68457142D01*
X153214285Y-68428571D01*
X153014285Y-68428571D01*
X153014285Y-68542857D01*
X153271428Y-68171428D02*
X152671428Y-68171428D01*
X153271428Y-67828571D01*
X152671428Y-67828571D01*
X153271428Y-67542857D02*
X152671428Y-67542857D01*
X152671428Y-67400000D01*
X152700000Y-67314285D01*
X152757142Y-67257142D01*
X152814285Y-67228571D01*
X152928571Y-67200000D01*
X153014285Y-67200000D01*
X153128571Y-67228571D01*
X153185714Y-67257142D01*
X153242857Y-67314285D01*
X153271428Y-67400000D01*
X153271428Y-67542857D01*
X144950000Y-68457142D02*
X144921428Y-68514285D01*
X144921428Y-68600000D01*
X144950000Y-68685714D01*
X145007142Y-68742857D01*
X145064285Y-68771428D01*
X145178571Y-68800000D01*
X145264285Y-68800000D01*
X145378571Y-68771428D01*
X145435714Y-68742857D01*
X145492857Y-68685714D01*
X145521428Y-68600000D01*
X145521428Y-68542857D01*
X145492857Y-68457142D01*
X145464285Y-68428571D01*
X145264285Y-68428571D01*
X145264285Y-68542857D01*
X145521428Y-68171428D02*
X144921428Y-68171428D01*
X145521428Y-67828571D01*
X144921428Y-67828571D01*
X145521428Y-67542857D02*
X144921428Y-67542857D01*
X144921428Y-67400000D01*
X144950000Y-67314285D01*
X145007142Y-67257142D01*
X145064285Y-67228571D01*
X145178571Y-67200000D01*
X145264285Y-67200000D01*
X145378571Y-67228571D01*
X145435714Y-67257142D01*
X145492857Y-67314285D01*
X145521428Y-67400000D01*
X145521428Y-67542857D01*
X136950000Y-68457142D02*
X136921428Y-68514285D01*
X136921428Y-68600000D01*
X136950000Y-68685714D01*
X137007142Y-68742857D01*
X137064285Y-68771428D01*
X137178571Y-68800000D01*
X137264285Y-68800000D01*
X137378571Y-68771428D01*
X137435714Y-68742857D01*
X137492857Y-68685714D01*
X137521428Y-68600000D01*
X137521428Y-68542857D01*
X137492857Y-68457142D01*
X137464285Y-68428571D01*
X137264285Y-68428571D01*
X137264285Y-68542857D01*
X137521428Y-68171428D02*
X136921428Y-68171428D01*
X137521428Y-67828571D01*
X136921428Y-67828571D01*
X137521428Y-67542857D02*
X136921428Y-67542857D01*
X136921428Y-67400000D01*
X136950000Y-67314285D01*
X137007142Y-67257142D01*
X137064285Y-67228571D01*
X137178571Y-67200000D01*
X137264285Y-67200000D01*
X137378571Y-67228571D01*
X137435714Y-67257142D01*
X137492857Y-67314285D01*
X137521428Y-67400000D01*
X137521428Y-67542857D01*
X136921428Y-71300000D02*
X137521428Y-71100000D01*
X136921428Y-70900000D01*
X137521428Y-70700000D02*
X136921428Y-70700000D01*
X136921428Y-70557142D01*
X136950000Y-70471428D01*
X137007142Y-70414285D01*
X137064285Y-70385714D01*
X137178571Y-70357142D01*
X137264285Y-70357142D01*
X137378571Y-70385714D01*
X137435714Y-70414285D01*
X137492857Y-70471428D01*
X137521428Y-70557142D01*
X137521428Y-70700000D01*
X137521428Y-70100000D02*
X136921428Y-70100000D01*
X136921428Y-69957142D01*
X136950000Y-69871428D01*
X137007142Y-69814285D01*
X137064285Y-69785714D01*
X137178571Y-69757142D01*
X137264285Y-69757142D01*
X137378571Y-69785714D01*
X137435714Y-69814285D01*
X137492857Y-69871428D01*
X137521428Y-69957142D01*
X137521428Y-70100000D01*
X144921428Y-71300000D02*
X145521428Y-71100000D01*
X144921428Y-70900000D01*
X145521428Y-70700000D02*
X144921428Y-70700000D01*
X144921428Y-70557142D01*
X144950000Y-70471428D01*
X145007142Y-70414285D01*
X145064285Y-70385714D01*
X145178571Y-70357142D01*
X145264285Y-70357142D01*
X145378571Y-70385714D01*
X145435714Y-70414285D01*
X145492857Y-70471428D01*
X145521428Y-70557142D01*
X145521428Y-70700000D01*
X145521428Y-70100000D02*
X144921428Y-70100000D01*
X144921428Y-69957142D01*
X144950000Y-69871428D01*
X145007142Y-69814285D01*
X145064285Y-69785714D01*
X145178571Y-69757142D01*
X145264285Y-69757142D01*
X145378571Y-69785714D01*
X145435714Y-69814285D01*
X145492857Y-69871428D01*
X145521428Y-69957142D01*
X145521428Y-70100000D01*
X152671428Y-71300000D02*
X153271428Y-71100000D01*
X152671428Y-70900000D01*
X153271428Y-70700000D02*
X152671428Y-70700000D01*
X152671428Y-70557142D01*
X152700000Y-70471428D01*
X152757142Y-70414285D01*
X152814285Y-70385714D01*
X152928571Y-70357142D01*
X153014285Y-70357142D01*
X153128571Y-70385714D01*
X153185714Y-70414285D01*
X153242857Y-70471428D01*
X153271428Y-70557142D01*
X153271428Y-70700000D01*
X153271428Y-70100000D02*
X152671428Y-70100000D01*
X152671428Y-69957142D01*
X152700000Y-69871428D01*
X152757142Y-69814285D01*
X152814285Y-69785714D01*
X152928571Y-69757142D01*
X153014285Y-69757142D01*
X153128571Y-69785714D01*
X153185714Y-69814285D01*
X153242857Y-69871428D01*
X153271428Y-69957142D01*
X153271428Y-70100000D01*
X160421428Y-71300000D02*
X161021428Y-71100000D01*
X160421428Y-70900000D01*
X161021428Y-70700000D02*
X160421428Y-70700000D01*
X160421428Y-70557142D01*
X160450000Y-70471428D01*
X160507142Y-70414285D01*
X160564285Y-70385714D01*
X160678571Y-70357142D01*
X160764285Y-70357142D01*
X160878571Y-70385714D01*
X160935714Y-70414285D01*
X160992857Y-70471428D01*
X161021428Y-70557142D01*
X161021428Y-70700000D01*
X161021428Y-70100000D02*
X160421428Y-70100000D01*
X160421428Y-69957142D01*
X160450000Y-69871428D01*
X160507142Y-69814285D01*
X160564285Y-69785714D01*
X160678571Y-69757142D01*
X160764285Y-69757142D01*
X160878571Y-69785714D01*
X160935714Y-69814285D01*
X160992857Y-69871428D01*
X161021428Y-69957142D01*
X161021428Y-70100000D01*
X161021428Y-73900000D02*
X160421428Y-73900000D01*
X160421428Y-73757142D01*
X160450000Y-73671428D01*
X160507142Y-73614285D01*
X160564285Y-73585714D01*
X160678571Y-73557142D01*
X160764285Y-73557142D01*
X160878571Y-73585714D01*
X160935714Y-73614285D01*
X160992857Y-73671428D01*
X161021428Y-73757142D01*
X161021428Y-73900000D01*
X160850000Y-73328571D02*
X160850000Y-73042857D01*
X161021428Y-73385714D02*
X160421428Y-73185714D01*
X161021428Y-72985714D01*
X160421428Y-72871428D02*
X160421428Y-72528571D01*
X161021428Y-72700000D02*
X160421428Y-72700000D01*
X160850000Y-72357142D02*
X160850000Y-72071428D01*
X161021428Y-72414285D02*
X160421428Y-72214285D01*
X161021428Y-72014285D01*
X153271428Y-73900000D02*
X152671428Y-73900000D01*
X152671428Y-73757142D01*
X152700000Y-73671428D01*
X152757142Y-73614285D01*
X152814285Y-73585714D01*
X152928571Y-73557142D01*
X153014285Y-73557142D01*
X153128571Y-73585714D01*
X153185714Y-73614285D01*
X153242857Y-73671428D01*
X153271428Y-73757142D01*
X153271428Y-73900000D01*
X153100000Y-73328571D02*
X153100000Y-73042857D01*
X153271428Y-73385714D02*
X152671428Y-73185714D01*
X153271428Y-72985714D01*
X152671428Y-72871428D02*
X152671428Y-72528571D01*
X153271428Y-72700000D02*
X152671428Y-72700000D01*
X153100000Y-72357142D02*
X153100000Y-72071428D01*
X153271428Y-72414285D02*
X152671428Y-72214285D01*
X153271428Y-72014285D01*
X145521428Y-73900000D02*
X144921428Y-73900000D01*
X144921428Y-73757142D01*
X144950000Y-73671428D01*
X145007142Y-73614285D01*
X145064285Y-73585714D01*
X145178571Y-73557142D01*
X145264285Y-73557142D01*
X145378571Y-73585714D01*
X145435714Y-73614285D01*
X145492857Y-73671428D01*
X145521428Y-73757142D01*
X145521428Y-73900000D01*
X145350000Y-73328571D02*
X145350000Y-73042857D01*
X145521428Y-73385714D02*
X144921428Y-73185714D01*
X145521428Y-72985714D01*
X144921428Y-72871428D02*
X144921428Y-72528571D01*
X145521428Y-72700000D02*
X144921428Y-72700000D01*
X145350000Y-72357142D02*
X145350000Y-72071428D01*
X145521428Y-72414285D02*
X144921428Y-72214285D01*
X145521428Y-72014285D01*
X137521428Y-73900000D02*
X136921428Y-73900000D01*
X136921428Y-73757142D01*
X136950000Y-73671428D01*
X137007142Y-73614285D01*
X137064285Y-73585714D01*
X137178571Y-73557142D01*
X137264285Y-73557142D01*
X137378571Y-73585714D01*
X137435714Y-73614285D01*
X137492857Y-73671428D01*
X137521428Y-73757142D01*
X137521428Y-73900000D01*
X137350000Y-73328571D02*
X137350000Y-73042857D01*
X137521428Y-73385714D02*
X136921428Y-73185714D01*
X137521428Y-72985714D01*
X136921428Y-72871428D02*
X136921428Y-72528571D01*
X137521428Y-72700000D02*
X136921428Y-72700000D01*
X137350000Y-72357142D02*
X137350000Y-72071428D01*
X137521428Y-72414285D02*
X136921428Y-72214285D01*
X137521428Y-72014285D01*
D11*
G36*
X133657422Y-78616828D02*
G01*
X133689548Y-78516411D01*
X133722365Y-78455358D01*
X133770017Y-78397955D01*
X133835227Y-78342525D01*
X133910378Y-78294380D01*
X133987848Y-78258832D01*
X134017906Y-78249296D01*
X134123378Y-78233339D01*
X134228346Y-78240958D01*
X134329132Y-78270527D01*
X134422061Y-78320422D01*
X134503458Y-78389016D01*
X134569646Y-78474685D01*
X134583921Y-78499575D01*
X134604729Y-78540770D01*
X134617854Y-78575676D01*
X134625343Y-78613079D01*
X134629242Y-78661766D01*
X134630725Y-78700500D01*
X134630940Y-78775155D01*
X134625772Y-78831478D01*
X134614592Y-78876087D01*
X134613826Y-78878232D01*
X134569868Y-78966522D01*
X134506213Y-79049504D01*
X134428553Y-79121077D01*
X134342578Y-79175138D01*
X134332418Y-79179955D01*
X134244270Y-79208405D01*
X134147182Y-79219807D01*
X134051585Y-79213390D01*
X134009438Y-79203798D01*
X133937955Y-79175119D01*
X133864149Y-79132219D01*
X133796692Y-79080996D01*
X133744258Y-79027345D01*
X133738110Y-79019297D01*
X133686840Y-78928613D01*
X133656208Y-78827955D01*
X133646356Y-78722352D01*
X133657422Y-78616828D01*
G37*
X133657422Y-78616828D02*
X133689548Y-78516411D01*
X133722365Y-78455358D01*
X133770017Y-78397955D01*
X133835227Y-78342525D01*
X133910378Y-78294380D01*
X133987848Y-78258832D01*
X134017906Y-78249296D01*
X134123378Y-78233339D01*
X134228346Y-78240958D01*
X134329132Y-78270527D01*
X134422061Y-78320422D01*
X134503458Y-78389016D01*
X134569646Y-78474685D01*
X134583921Y-78499575D01*
X134604729Y-78540770D01*
X134617854Y-78575676D01*
X134625343Y-78613079D01*
X134629242Y-78661766D01*
X134630725Y-78700500D01*
X134630940Y-78775155D01*
X134625772Y-78831478D01*
X134614592Y-78876087D01*
X134613826Y-78878232D01*
X134569868Y-78966522D01*
X134506213Y-79049504D01*
X134428553Y-79121077D01*
X134342578Y-79175138D01*
X134332418Y-79179955D01*
X134244270Y-79208405D01*
X134147182Y-79219807D01*
X134051585Y-79213390D01*
X134009438Y-79203798D01*
X133937955Y-79175119D01*
X133864149Y-79132219D01*
X133796692Y-79080996D01*
X133744258Y-79027345D01*
X133738110Y-79019297D01*
X133686840Y-78928613D01*
X133656208Y-78827955D01*
X133646356Y-78722352D01*
X133657422Y-78616828D01*
G36*
X131833899Y-83978849D02*
G01*
X131858978Y-83800397D01*
X131907105Y-83625434D01*
X131978271Y-83456303D01*
X132059433Y-83314945D01*
X132173202Y-83162388D01*
X132302625Y-83028059D01*
X132445922Y-82913279D01*
X132601313Y-82819372D01*
X132767017Y-82747659D01*
X132863556Y-82717712D01*
X132909861Y-82705812D01*
X132950487Y-82697065D01*
X132990770Y-82690988D01*
X133036043Y-82687093D01*
X133091641Y-82684894D01*
X133162899Y-82683906D01*
X133237300Y-82683657D01*
X133325413Y-82683810D01*
X133393396Y-82684805D01*
X133446513Y-82687110D01*
X133490032Y-82691190D01*
X133529216Y-82697513D01*
X133569334Y-82706546D01*
X133607118Y-82716437D01*
X133775511Y-82774661D01*
X133936480Y-82855125D01*
X134087081Y-82955441D01*
X134224365Y-83073221D01*
X134345386Y-83206074D01*
X134447198Y-83351613D01*
X134493220Y-83434775D01*
X134557320Y-83585757D01*
X134604822Y-83748737D01*
X134634822Y-83917736D01*
X134646416Y-84086776D01*
X134638697Y-84249878D01*
X134627861Y-84324335D01*
X134582184Y-84506098D01*
X134512955Y-84680678D01*
X134421632Y-84845330D01*
X134309671Y-84997309D01*
X134217871Y-85096586D01*
X134146646Y-85160828D01*
X134063252Y-85226642D01*
X133974793Y-85289047D01*
X133888371Y-85343062D01*
X133811090Y-85383705D01*
X133803768Y-85387006D01*
X133644275Y-85444563D01*
X133474817Y-85481889D01*
X133299687Y-85499066D01*
X133237300Y-85498045D01*
X133237300Y-84535873D01*
X133295807Y-84534614D01*
X133339506Y-84529393D01*
X133378923Y-84518045D01*
X133424586Y-84498404D01*
X133428584Y-84496523D01*
X133524993Y-84437958D01*
X133606022Y-84361973D01*
X133668761Y-84272039D01*
X133710302Y-84171626D01*
X133714705Y-84155150D01*
X133727133Y-84095957D01*
X133730753Y-84046332D01*
X133725900Y-83993077D01*
X133719710Y-83957303D01*
X133687955Y-83856166D01*
X133634048Y-83765165D01*
X133560107Y-83686936D01*
X133468250Y-83624117D01*
X133441284Y-83610439D01*
X133398399Y-83591353D01*
X133362253Y-83579610D01*
X133323853Y-83573468D01*
X133274211Y-83571189D01*
X133237300Y-83570950D01*
X133178308Y-83571677D01*
X133135872Y-83575080D01*
X133101159Y-83582994D01*
X133065340Y-83597253D01*
X133031434Y-83613718D01*
X132945792Y-83667486D01*
X132871113Y-83735451D01*
X132812560Y-83812210D01*
X132780991Y-83875800D01*
X132766805Y-83918162D01*
X132758756Y-83957667D01*
X132755749Y-84003318D01*
X132756690Y-84064119D01*
X132757022Y-84073024D01*
X132760813Y-84137324D01*
X132767525Y-84185059D01*
X132778966Y-84225041D01*
X132796467Y-84265105D01*
X132847060Y-84342876D01*
X132917602Y-84414159D01*
X133002685Y-84473919D01*
X133043963Y-84495563D01*
X133091320Y-84516357D01*
X133130987Y-84528529D01*
X133173576Y-84534293D01*
X133229703Y-84535862D01*
X133237300Y-84535873D01*
X133237300Y-85498045D01*
X133123177Y-85496175D01*
X132949578Y-85473299D01*
X132783181Y-85430519D01*
X132628280Y-85367917D01*
X132621350Y-85364486D01*
X132465011Y-85272208D01*
X132320549Y-85157510D01*
X132188045Y-85020470D01*
X132067585Y-84861164D01*
X132054486Y-84841387D01*
X131964213Y-84680656D01*
X131897025Y-84511692D01*
X131852915Y-84336840D01*
X131831876Y-84158444D01*
X131833899Y-83978849D01*
G37*
X131833899Y-83978849D02*
X131858978Y-83800397D01*
X131907105Y-83625434D01*
X131978271Y-83456303D01*
X132059433Y-83314945D01*
X132173202Y-83162388D01*
X132302625Y-83028059D01*
X132445922Y-82913279D01*
X132601313Y-82819372D01*
X132767017Y-82747659D01*
X132863556Y-82717712D01*
X132909861Y-82705812D01*
X132950487Y-82697065D01*
X132990770Y-82690988D01*
X133036043Y-82687093D01*
X133091641Y-82684894D01*
X133162899Y-82683906D01*
X133237300Y-82683657D01*
X133325413Y-82683810D01*
X133393396Y-82684805D01*
X133446513Y-82687110D01*
X133490032Y-82691190D01*
X133529216Y-82697513D01*
X133569334Y-82706546D01*
X133607118Y-82716437D01*
X133775511Y-82774661D01*
X133936480Y-82855125D01*
X134087081Y-82955441D01*
X134224365Y-83073221D01*
X134345386Y-83206074D01*
X134447198Y-83351613D01*
X134493220Y-83434775D01*
X134557320Y-83585757D01*
X134604822Y-83748737D01*
X134634822Y-83917736D01*
X134646416Y-84086776D01*
X134638697Y-84249878D01*
X134627861Y-84324335D01*
X134582184Y-84506098D01*
X134512955Y-84680678D01*
X134421632Y-84845330D01*
X134309671Y-84997309D01*
X134217871Y-85096586D01*
X134146646Y-85160828D01*
X134063252Y-85226642D01*
X133974793Y-85289047D01*
X133888371Y-85343062D01*
X133811090Y-85383705D01*
X133803768Y-85387006D01*
X133644275Y-85444563D01*
X133474817Y-85481889D01*
X133299687Y-85499066D01*
X133237300Y-85498045D01*
X133237300Y-84535873D01*
X133295807Y-84534614D01*
X133339506Y-84529393D01*
X133378923Y-84518045D01*
X133424586Y-84498404D01*
X133428584Y-84496523D01*
X133524993Y-84437958D01*
X133606022Y-84361973D01*
X133668761Y-84272039D01*
X133710302Y-84171626D01*
X133714705Y-84155150D01*
X133727133Y-84095957D01*
X133730753Y-84046332D01*
X133725900Y-83993077D01*
X133719710Y-83957303D01*
X133687955Y-83856166D01*
X133634048Y-83765165D01*
X133560107Y-83686936D01*
X133468250Y-83624117D01*
X133441284Y-83610439D01*
X133398399Y-83591353D01*
X133362253Y-83579610D01*
X133323853Y-83573468D01*
X133274211Y-83571189D01*
X133237300Y-83570950D01*
X133178308Y-83571677D01*
X133135872Y-83575080D01*
X133101159Y-83582994D01*
X133065340Y-83597253D01*
X133031434Y-83613718D01*
X132945792Y-83667486D01*
X132871113Y-83735451D01*
X132812560Y-83812210D01*
X132780991Y-83875800D01*
X132766805Y-83918162D01*
X132758756Y-83957667D01*
X132755749Y-84003318D01*
X132756690Y-84064119D01*
X132757022Y-84073024D01*
X132760813Y-84137324D01*
X132767525Y-84185059D01*
X132778966Y-84225041D01*
X132796467Y-84265105D01*
X132847060Y-84342876D01*
X132917602Y-84414159D01*
X133002685Y-84473919D01*
X133043963Y-84495563D01*
X133091320Y-84516357D01*
X133130987Y-84528529D01*
X133173576Y-84534293D01*
X133229703Y-84535862D01*
X133237300Y-84535873D01*
X133237300Y-85498045D01*
X133123177Y-85496175D01*
X132949578Y-85473299D01*
X132783181Y-85430519D01*
X132628280Y-85367917D01*
X132621350Y-85364486D01*
X132465011Y-85272208D01*
X132320549Y-85157510D01*
X132188045Y-85020470D01*
X132067585Y-84861164D01*
X132054486Y-84841387D01*
X131964213Y-84680656D01*
X131897025Y-84511692D01*
X131852915Y-84336840D01*
X131831876Y-84158444D01*
X131833899Y-83978849D01*
G36*
X131841715Y-86998464D02*
G01*
X131873078Y-86825159D01*
X131924384Y-86660296D01*
X131973611Y-86549100D01*
X132041783Y-86431514D01*
X132126850Y-86311795D01*
X132222502Y-86198146D01*
X132314859Y-86105602D01*
X132454920Y-85994909D01*
X132608327Y-85905089D01*
X132773228Y-85836663D01*
X132947771Y-85790154D01*
X133130105Y-85766083D01*
X133318377Y-85764971D01*
X133469094Y-85780518D01*
X133646163Y-85819764D01*
X133815139Y-85881963D01*
X133973989Y-85965402D01*
X134120680Y-86068367D01*
X134253180Y-86189147D01*
X134369455Y-86326027D01*
X134467474Y-86477294D01*
X134545202Y-86641235D01*
X134569467Y-86707906D01*
X134614242Y-86875030D01*
X134639917Y-87048023D01*
X134645974Y-87220471D01*
X134631894Y-87385954D01*
X134626720Y-87417079D01*
X134581424Y-87597592D01*
X134513023Y-87769904D01*
X134423049Y-87931991D01*
X134313035Y-88081831D01*
X134184512Y-88217401D01*
X134039013Y-88336676D01*
X133878070Y-88437636D01*
X133837861Y-88458641D01*
X133691592Y-88519042D01*
X133532246Y-88561057D01*
X133364440Y-88584525D01*
X133258460Y-88587463D01*
X133258460Y-87626697D01*
X133360438Y-87610007D01*
X133459240Y-87569967D01*
X133552012Y-87506440D01*
X133564572Y-87495470D01*
X133617521Y-87437177D01*
X133665260Y-87365249D01*
X133702043Y-87289439D01*
X133719845Y-87231953D01*
X133727241Y-87153290D01*
X133720697Y-87065960D01*
X133701559Y-86981579D01*
X133685965Y-86940210D01*
X133645614Y-86872931D01*
X133587592Y-86805811D01*
X133518771Y-86745558D01*
X133446019Y-86698878D01*
X133431371Y-86691654D01*
X133389862Y-86674202D01*
X133351611Y-86663804D01*
X133307253Y-86658748D01*
X133247422Y-86657321D01*
X133243650Y-86657313D01*
X133184706Y-86658241D01*
X133141393Y-86662497D01*
X133103976Y-86672045D01*
X133062721Y-86688845D01*
X133043963Y-86697563D01*
X132953652Y-86750947D01*
X132875636Y-86818209D01*
X132815287Y-86894345D01*
X132796129Y-86928519D01*
X132780348Y-86962964D01*
X132770141Y-86993843D01*
X132764316Y-87028325D01*
X132761683Y-87073581D01*
X132761050Y-87136781D01*
X132761050Y-87139650D01*
X132763775Y-87225372D01*
X132773585Y-87293016D01*
X132792929Y-87349478D01*
X132824257Y-87401655D01*
X132870018Y-87456441D01*
X132875799Y-87462668D01*
X132961974Y-87538022D01*
X133056376Y-87590569D01*
X133156155Y-87620173D01*
X133258460Y-87626697D01*
X133258460Y-88587463D01*
X133192791Y-88589284D01*
X133021914Y-88575173D01*
X132856427Y-88542031D01*
X132720652Y-88497679D01*
X132566308Y-88423631D01*
X132420365Y-88327668D01*
X132285228Y-88212558D01*
X132163297Y-88081067D01*
X132056975Y-87935963D01*
X131968666Y-87780012D01*
X131900771Y-87615980D01*
X131872322Y-87520691D01*
X131840833Y-87351065D01*
X131830798Y-87175378D01*
X131841715Y-86998464D01*
G37*
X131841715Y-86998464D02*
X131873078Y-86825159D01*
X131924384Y-86660296D01*
X131973611Y-86549100D01*
X132041783Y-86431514D01*
X132126850Y-86311795D01*
X132222502Y-86198146D01*
X132314859Y-86105602D01*
X132454920Y-85994909D01*
X132608327Y-85905089D01*
X132773228Y-85836663D01*
X132947771Y-85790154D01*
X133130105Y-85766083D01*
X133318377Y-85764971D01*
X133469094Y-85780518D01*
X133646163Y-85819764D01*
X133815139Y-85881963D01*
X133973989Y-85965402D01*
X134120680Y-86068367D01*
X134253180Y-86189147D01*
X134369455Y-86326027D01*
X134467474Y-86477294D01*
X134545202Y-86641235D01*
X134569467Y-86707906D01*
X134614242Y-86875030D01*
X134639917Y-87048023D01*
X134645974Y-87220471D01*
X134631894Y-87385954D01*
X134626720Y-87417079D01*
X134581424Y-87597592D01*
X134513023Y-87769904D01*
X134423049Y-87931991D01*
X134313035Y-88081831D01*
X134184512Y-88217401D01*
X134039013Y-88336676D01*
X133878070Y-88437636D01*
X133837861Y-88458641D01*
X133691592Y-88519042D01*
X133532246Y-88561057D01*
X133364440Y-88584525D01*
X133258460Y-88587463D01*
X133258460Y-87626697D01*
X133360438Y-87610007D01*
X133459240Y-87569967D01*
X133552012Y-87506440D01*
X133564572Y-87495470D01*
X133617521Y-87437177D01*
X133665260Y-87365249D01*
X133702043Y-87289439D01*
X133719845Y-87231953D01*
X133727241Y-87153290D01*
X133720697Y-87065960D01*
X133701559Y-86981579D01*
X133685965Y-86940210D01*
X133645614Y-86872931D01*
X133587592Y-86805811D01*
X133518771Y-86745558D01*
X133446019Y-86698878D01*
X133431371Y-86691654D01*
X133389862Y-86674202D01*
X133351611Y-86663804D01*
X133307253Y-86658748D01*
X133247422Y-86657321D01*
X133243650Y-86657313D01*
X133184706Y-86658241D01*
X133141393Y-86662497D01*
X133103976Y-86672045D01*
X133062721Y-86688845D01*
X133043963Y-86697563D01*
X132953652Y-86750947D01*
X132875636Y-86818209D01*
X132815287Y-86894345D01*
X132796129Y-86928519D01*
X132780348Y-86962964D01*
X132770141Y-86993843D01*
X132764316Y-87028325D01*
X132761683Y-87073581D01*
X132761050Y-87136781D01*
X132761050Y-87139650D01*
X132763775Y-87225372D01*
X132773585Y-87293016D01*
X132792929Y-87349478D01*
X132824257Y-87401655D01*
X132870018Y-87456441D01*
X132875799Y-87462668D01*
X132961974Y-87538022D01*
X133056376Y-87590569D01*
X133156155Y-87620173D01*
X133258460Y-87626697D01*
X133258460Y-88587463D01*
X133192791Y-88589284D01*
X133021914Y-88575173D01*
X132856427Y-88542031D01*
X132720652Y-88497679D01*
X132566308Y-88423631D01*
X132420365Y-88327668D01*
X132285228Y-88212558D01*
X132163297Y-88081067D01*
X132056975Y-87935963D01*
X131968666Y-87780012D01*
X131900771Y-87615980D01*
X131872322Y-87520691D01*
X131840833Y-87351065D01*
X131830798Y-87175378D01*
X131841715Y-86998464D01*
G36*
X130519384Y-79971523D02*
G01*
X130533537Y-79878946D01*
X130554020Y-79807227D01*
X130583354Y-79752110D01*
X130624062Y-79709340D01*
X130678666Y-79674661D01*
X130701968Y-79663447D01*
X130767150Y-79633950D01*
X134399350Y-79633950D01*
X134472758Y-79669997D01*
X134520412Y-79696943D01*
X134553314Y-79726484D01*
X134581301Y-79767576D01*
X134582767Y-79770129D01*
X134611000Y-79836065D01*
X134632716Y-79920284D01*
X134647049Y-80016304D01*
X134653135Y-80117644D01*
X134650109Y-80217823D01*
X134646855Y-80250438D01*
X134636753Y-80305862D01*
X134621141Y-80361569D01*
X134608642Y-80393661D01*
X134576614Y-80445202D01*
X134533560Y-80492514D01*
X134486381Y-80529172D01*
X134442063Y-80548732D01*
X134405205Y-80556827D01*
X134469011Y-80637013D01*
X134545870Y-80752145D01*
X134600772Y-80877420D01*
X134634257Y-81014491D01*
X134646864Y-81165013D01*
X134647000Y-81183350D01*
X134634478Y-81346292D01*
X134597176Y-81505051D01*
X134535486Y-81658833D01*
X134449798Y-81806845D01*
X134340507Y-81948292D01*
X134208002Y-82082382D01*
X134198900Y-82090553D01*
X134044461Y-82212499D01*
X133881321Y-82310653D01*
X133709100Y-82385222D01*
X133592566Y-82421022D01*
X133508810Y-82437760D01*
X133408394Y-82449821D01*
X133299695Y-82456809D01*
X133237194Y-82457682D01*
X133237194Y-81488150D01*
X133296636Y-81487392D01*
X133339533Y-81483925D01*
X133374725Y-81475964D01*
X133411050Y-81461720D01*
X133442873Y-81446569D01*
X133530675Y-81390968D01*
X133606761Y-81318326D01*
X133667169Y-81233628D01*
X133707939Y-81141858D01*
X133718914Y-81099127D01*
X133728994Y-81031644D01*
X133728891Y-80973082D01*
X133718350Y-80908985D01*
X133715321Y-80895728D01*
X133679046Y-80795597D01*
X133620663Y-80706839D01*
X133541476Y-80630973D01*
X133442787Y-80569515D01*
X133430081Y-80563362D01*
X133381219Y-80542079D01*
X133340430Y-80530074D01*
X133296229Y-80524934D01*
X133243650Y-80524184D01*
X133138423Y-80534168D01*
X133044699Y-80563942D01*
X132955487Y-80615887D01*
X132939415Y-80627740D01*
X132861693Y-80697760D01*
X132806420Y-80774167D01*
X132772055Y-80860412D01*
X132757058Y-80959945D01*
X132757091Y-81036052D01*
X132773399Y-81147060D01*
X132810988Y-81244333D01*
X132870077Y-81328199D01*
X132950887Y-81398985D01*
X133033193Y-81447343D01*
X133075140Y-81466875D01*
X133110021Y-81478961D01*
X133146619Y-81485358D01*
X133193721Y-81487823D01*
X133237194Y-81488150D01*
X133237194Y-82457682D01*
X133191091Y-82458326D01*
X133090960Y-82453973D01*
X133032956Y-82447599D01*
X132855623Y-82409682D01*
X132687010Y-82348835D01*
X132526238Y-82264587D01*
X132372428Y-82156466D01*
X132224704Y-82024000D01*
X132202607Y-82001580D01*
X132085609Y-81869220D01*
X131992743Y-81737246D01*
X131922904Y-81603161D01*
X131874987Y-81464467D01*
X131847890Y-81318665D01*
X131840388Y-81182207D01*
X131847559Y-81043702D01*
X131870130Y-80922574D01*
X131909409Y-80815070D01*
X131966707Y-80717435D01*
X132028992Y-80641087D01*
X132097035Y-80567400D01*
X131442094Y-80567400D01*
X131296173Y-80567373D01*
X131173373Y-80567232D01*
X131071415Y-80566894D01*
X130988021Y-80566272D01*
X130920911Y-80565281D01*
X130867807Y-80563836D01*
X130826430Y-80561851D01*
X130794501Y-80559240D01*
X130769741Y-80555918D01*
X130749871Y-80551800D01*
X130732613Y-80546801D01*
X130715688Y-80540834D01*
X130713651Y-80540078D01*
X130665906Y-80517765D01*
X130621977Y-80489692D01*
X130600896Y-80471467D01*
X130567188Y-80420814D01*
X130540846Y-80349805D01*
X130522547Y-80262588D01*
X130512967Y-80163309D01*
X130512782Y-80056116D01*
X130519384Y-79971523D01*
G37*
X130519384Y-79971523D02*
X130533537Y-79878946D01*
X130554020Y-79807227D01*
X130583354Y-79752110D01*
X130624062Y-79709340D01*
X130678666Y-79674661D01*
X130701968Y-79663447D01*
X130767150Y-79633950D01*
X134399350Y-79633950D01*
X134472758Y-79669997D01*
X134520412Y-79696943D01*
X134553314Y-79726484D01*
X134581301Y-79767576D01*
X134582767Y-79770129D01*
X134611000Y-79836065D01*
X134632716Y-79920284D01*
X134647049Y-80016304D01*
X134653135Y-80117644D01*
X134650109Y-80217823D01*
X134646855Y-80250438D01*
X134636753Y-80305862D01*
X134621141Y-80361569D01*
X134608642Y-80393661D01*
X134576614Y-80445202D01*
X134533560Y-80492514D01*
X134486381Y-80529172D01*
X134442063Y-80548732D01*
X134405205Y-80556827D01*
X134469011Y-80637013D01*
X134545870Y-80752145D01*
X134600772Y-80877420D01*
X134634257Y-81014491D01*
X134646864Y-81165013D01*
X134647000Y-81183350D01*
X134634478Y-81346292D01*
X134597176Y-81505051D01*
X134535486Y-81658833D01*
X134449798Y-81806845D01*
X134340507Y-81948292D01*
X134208002Y-82082382D01*
X134198900Y-82090553D01*
X134044461Y-82212499D01*
X133881321Y-82310653D01*
X133709100Y-82385222D01*
X133592566Y-82421022D01*
X133508810Y-82437760D01*
X133408394Y-82449821D01*
X133299695Y-82456809D01*
X133237194Y-82457682D01*
X133237194Y-81488150D01*
X133296636Y-81487392D01*
X133339533Y-81483925D01*
X133374725Y-81475964D01*
X133411050Y-81461720D01*
X133442873Y-81446569D01*
X133530675Y-81390968D01*
X133606761Y-81318326D01*
X133667169Y-81233628D01*
X133707939Y-81141858D01*
X133718914Y-81099127D01*
X133728994Y-81031644D01*
X133728891Y-80973082D01*
X133718350Y-80908985D01*
X133715321Y-80895728D01*
X133679046Y-80795597D01*
X133620663Y-80706839D01*
X133541476Y-80630973D01*
X133442787Y-80569515D01*
X133430081Y-80563362D01*
X133381219Y-80542079D01*
X133340430Y-80530074D01*
X133296229Y-80524934D01*
X133243650Y-80524184D01*
X133138423Y-80534168D01*
X133044699Y-80563942D01*
X132955487Y-80615887D01*
X132939415Y-80627740D01*
X132861693Y-80697760D01*
X132806420Y-80774167D01*
X132772055Y-80860412D01*
X132757058Y-80959945D01*
X132757091Y-81036052D01*
X132773399Y-81147060D01*
X132810988Y-81244333D01*
X132870077Y-81328199D01*
X132950887Y-81398985D01*
X133033193Y-81447343D01*
X133075140Y-81466875D01*
X133110021Y-81478961D01*
X133146619Y-81485358D01*
X133193721Y-81487823D01*
X133237194Y-81488150D01*
X133237194Y-82457682D01*
X133191091Y-82458326D01*
X133090960Y-82453973D01*
X133032956Y-82447599D01*
X132855623Y-82409682D01*
X132687010Y-82348835D01*
X132526238Y-82264587D01*
X132372428Y-82156466D01*
X132224704Y-82024000D01*
X132202607Y-82001580D01*
X132085609Y-81869220D01*
X131992743Y-81737246D01*
X131922904Y-81603161D01*
X131874987Y-81464467D01*
X131847890Y-81318665D01*
X131840388Y-81182207D01*
X131847559Y-81043702D01*
X131870130Y-80922574D01*
X131909409Y-80815070D01*
X131966707Y-80717435D01*
X132028992Y-80641087D01*
X132097035Y-80567400D01*
X131442094Y-80567400D01*
X131296173Y-80567373D01*
X131173373Y-80567232D01*
X131071415Y-80566894D01*
X130988021Y-80566272D01*
X130920911Y-80565281D01*
X130867807Y-80563836D01*
X130826430Y-80561851D01*
X130794501Y-80559240D01*
X130769741Y-80555918D01*
X130749871Y-80551800D01*
X130732613Y-80546801D01*
X130715688Y-80540834D01*
X130713651Y-80540078D01*
X130665906Y-80517765D01*
X130621977Y-80489692D01*
X130600896Y-80471467D01*
X130567188Y-80420814D01*
X130540846Y-80349805D01*
X130522547Y-80262588D01*
X130512967Y-80163309D01*
X130512782Y-80056116D01*
X130519384Y-79971523D01*
G36*
X130509049Y-89221057D02*
G01*
X130511164Y-89146649D01*
X130513815Y-89092335D01*
X130517821Y-89052809D01*
X130524000Y-89022765D01*
X130533172Y-88996899D01*
X130546156Y-88969905D01*
X130548534Y-88965334D01*
X130583328Y-88912728D01*
X130624085Y-88872155D01*
X130631720Y-88866719D01*
X130694929Y-88836482D01*
X130776190Y-88814919D01*
X130869679Y-88802042D01*
X130969573Y-88797859D01*
X131070048Y-88802381D01*
X131165280Y-88815619D01*
X131249445Y-88837582D01*
X131312156Y-88865538D01*
X131364972Y-88909712D01*
X131401763Y-88963643D01*
X131416769Y-88993082D01*
X131427377Y-89020717D01*
X131434659Y-89052339D01*
X131439689Y-89093736D01*
X131443542Y-89150698D01*
X131446104Y-89202719D01*
X131451113Y-89291546D01*
X131458923Y-89358163D01*
X131472624Y-89405761D01*
X131495304Y-89437528D01*
X131530053Y-89456652D01*
X131579959Y-89466325D01*
X131648113Y-89469733D01*
X131705098Y-89470100D01*
X131869044Y-89470100D01*
X131861153Y-89416125D01*
X131853785Y-89351881D01*
X131848280Y-89276230D01*
X131844743Y-89195211D01*
X131843278Y-89114864D01*
X131843989Y-89041227D01*
X131846981Y-88980341D01*
X131852358Y-88938244D01*
X131852855Y-88936035D01*
X131883255Y-88842892D01*
X131926151Y-88771084D01*
X131982761Y-88719182D01*
X132054304Y-88685762D01*
X132070697Y-88681123D01*
X132124827Y-88671657D01*
X132195172Y-88665686D01*
X132275016Y-88663125D01*
X132357641Y-88663889D01*
X132436330Y-88667893D01*
X132504366Y-88675052D01*
X132555033Y-88685283D01*
X132561419Y-88687315D01*
X132624157Y-88714142D01*
X132674695Y-88748655D01*
X132713982Y-88793322D01*
X132742964Y-88850611D01*
X132762591Y-88922989D01*
X132773808Y-89012924D01*
X132777565Y-89122883D01*
X132775238Y-89244065D01*
X132766947Y-89468879D01*
X133576798Y-89472665D01*
X134386650Y-89476450D01*
X134458687Y-89505569D01*
X134528432Y-89544302D01*
X134586011Y-89596991D01*
X134625854Y-89658064D01*
X134635065Y-89681927D01*
X134640277Y-89710615D01*
X134645099Y-89758601D01*
X134649316Y-89820010D01*
X134652714Y-89888967D01*
X134655078Y-89959598D01*
X134656191Y-90026028D01*
X134655840Y-90082383D01*
X134653809Y-90122789D01*
X134651715Y-90136850D01*
X134626188Y-90220096D01*
X134594456Y-90283244D01*
X134552593Y-90331495D01*
X134496674Y-90370050D01*
X134462850Y-90387025D01*
X134399350Y-90416250D01*
X132770108Y-90423646D01*
X132765309Y-90565998D01*
X132758633Y-90659529D01*
X132744038Y-90732036D01*
X132719021Y-90787311D01*
X132681082Y-90829145D01*
X132627719Y-90861330D01*
X132556432Y-90887657D01*
X132552297Y-90888904D01*
X132499305Y-90899626D01*
X132429384Y-90906613D01*
X132349833Y-90909868D01*
X132267952Y-90909394D01*
X132191038Y-90905193D01*
X132126392Y-90897268D01*
X132089889Y-90888734D01*
X132005524Y-90850948D01*
X131939838Y-90798788D01*
X131903168Y-90749451D01*
X131888672Y-90720092D01*
X131879008Y-90688633D01*
X131872909Y-90648308D01*
X131869109Y-90592353D01*
X131867829Y-90560780D01*
X131863003Y-90425909D01*
X131632576Y-90419308D01*
X131545045Y-90416389D01*
X131477303Y-90412882D01*
X131423736Y-90408134D01*
X131378735Y-90401491D01*
X131336686Y-90392297D01*
X131291979Y-90379899D01*
X131290295Y-90379398D01*
X131138979Y-90322634D01*
X130998991Y-90246808D01*
X130872659Y-90154074D01*
X130762308Y-90046582D01*
X130670268Y-89926486D01*
X130598864Y-89795936D01*
X130565476Y-89709145D01*
X130538713Y-89612941D01*
X130520717Y-89513729D01*
X130510760Y-89405213D01*
X130508113Y-89281097D01*
X130509049Y-89221057D01*
G37*
X130509049Y-89221057D02*
X130511164Y-89146649D01*
X130513815Y-89092335D01*
X130517821Y-89052809D01*
X130524000Y-89022765D01*
X130533172Y-88996899D01*
X130546156Y-88969905D01*
X130548534Y-88965334D01*
X130583328Y-88912728D01*
X130624085Y-88872155D01*
X130631720Y-88866719D01*
X130694929Y-88836482D01*
X130776190Y-88814919D01*
X130869679Y-88802042D01*
X130969573Y-88797859D01*
X131070048Y-88802381D01*
X131165280Y-88815619D01*
X131249445Y-88837582D01*
X131312156Y-88865538D01*
X131364972Y-88909712D01*
X131401763Y-88963643D01*
X131416769Y-88993082D01*
X131427377Y-89020717D01*
X131434659Y-89052339D01*
X131439689Y-89093736D01*
X131443542Y-89150698D01*
X131446104Y-89202719D01*
X131451113Y-89291546D01*
X131458923Y-89358163D01*
X131472624Y-89405761D01*
X131495304Y-89437528D01*
X131530053Y-89456652D01*
X131579959Y-89466325D01*
X131648113Y-89469733D01*
X131705098Y-89470100D01*
X131869044Y-89470100D01*
X131861153Y-89416125D01*
X131853785Y-89351881D01*
X131848280Y-89276230D01*
X131844743Y-89195211D01*
X131843278Y-89114864D01*
X131843989Y-89041227D01*
X131846981Y-88980341D01*
X131852358Y-88938244D01*
X131852855Y-88936035D01*
X131883255Y-88842892D01*
X131926151Y-88771084D01*
X131982761Y-88719182D01*
X132054304Y-88685762D01*
X132070697Y-88681123D01*
X132124827Y-88671657D01*
X132195172Y-88665686D01*
X132275016Y-88663125D01*
X132357641Y-88663889D01*
X132436330Y-88667893D01*
X132504366Y-88675052D01*
X132555033Y-88685283D01*
X132561419Y-88687315D01*
X132624157Y-88714142D01*
X132674695Y-88748655D01*
X132713982Y-88793322D01*
X132742964Y-88850611D01*
X132762591Y-88922989D01*
X132773808Y-89012924D01*
X132777565Y-89122883D01*
X132775238Y-89244065D01*
X132766947Y-89468879D01*
X133576798Y-89472665D01*
X134386650Y-89476450D01*
X134458687Y-89505569D01*
X134528432Y-89544302D01*
X134586011Y-89596991D01*
X134625854Y-89658064D01*
X134635065Y-89681927D01*
X134640277Y-89710615D01*
X134645099Y-89758601D01*
X134649316Y-89820010D01*
X134652714Y-89888967D01*
X134655078Y-89959598D01*
X134656191Y-90026028D01*
X134655840Y-90082383D01*
X134653809Y-90122789D01*
X134651715Y-90136850D01*
X134626188Y-90220096D01*
X134594456Y-90283244D01*
X134552593Y-90331495D01*
X134496674Y-90370050D01*
X134462850Y-90387025D01*
X134399350Y-90416250D01*
X132770108Y-90423646D01*
X132765309Y-90565998D01*
X132758633Y-90659529D01*
X132744038Y-90732036D01*
X132719021Y-90787311D01*
X132681082Y-90829145D01*
X132627719Y-90861330D01*
X132556432Y-90887657D01*
X132552297Y-90888904D01*
X132499305Y-90899626D01*
X132429384Y-90906613D01*
X132349833Y-90909868D01*
X132267952Y-90909394D01*
X132191038Y-90905193D01*
X132126392Y-90897268D01*
X132089889Y-90888734D01*
X132005524Y-90850948D01*
X131939838Y-90798788D01*
X131903168Y-90749451D01*
X131888672Y-90720092D01*
X131879008Y-90688633D01*
X131872909Y-90648308D01*
X131869109Y-90592353D01*
X131867829Y-90560780D01*
X131863003Y-90425909D01*
X131632576Y-90419308D01*
X131545045Y-90416389D01*
X131477303Y-90412882D01*
X131423736Y-90408134D01*
X131378735Y-90401491D01*
X131336686Y-90392297D01*
X131291979Y-90379899D01*
X131290295Y-90379398D01*
X131138979Y-90322634D01*
X130998991Y-90246808D01*
X130872659Y-90154074D01*
X130762308Y-90046582D01*
X130670268Y-89926486D01*
X130598864Y-89795936D01*
X130565476Y-89709145D01*
X130538713Y-89612941D01*
X130520717Y-89513729D01*
X130510760Y-89405213D01*
X130508113Y-89281097D01*
X130509049Y-89221057D01*
G36*
X130519461Y-93425071D02*
G01*
X130532835Y-93331127D01*
X130556350Y-93255886D01*
X130591172Y-93196613D01*
X130638469Y-93150574D01*
X130695941Y-93116641D01*
X130767150Y-93083250D01*
X131459300Y-93079655D01*
X132151450Y-93076059D01*
X132073486Y-92994739D01*
X131979045Y-92880602D01*
X131908072Y-92759166D01*
X131876634Y-92683200D01*
X131863883Y-92643668D01*
X131855391Y-92605610D01*
X131850360Y-92562255D01*
X131847993Y-92506830D01*
X131847489Y-92435550D01*
X131848923Y-92364883D01*
X131852633Y-92295547D01*
X131858051Y-92235647D01*
X131864397Y-92194250D01*
X131910672Y-92040721D01*
X131979799Y-91894093D01*
X132069696Y-91756410D01*
X132178283Y-91629714D01*
X132303480Y-91516049D01*
X132443207Y-91417458D01*
X132595383Y-91335984D01*
X132757928Y-91273670D01*
X132819622Y-91256051D01*
X132877311Y-91242307D01*
X132937426Y-91230776D01*
X133002653Y-91221288D01*
X133075678Y-91213674D01*
X133159189Y-91207764D01*
X133255870Y-91203391D01*
X133368409Y-91200383D01*
X133499491Y-91198573D01*
X133651802Y-91197790D01*
X133745300Y-91197736D01*
X133896764Y-91198110D01*
X134025117Y-91199110D01*
X134132641Y-91200887D01*
X134221621Y-91203593D01*
X134294341Y-91207378D01*
X134353083Y-91212393D01*
X134400133Y-91218790D01*
X134437773Y-91226719D01*
X134468287Y-91236331D01*
X134492768Y-91247166D01*
X134545462Y-91280685D01*
X134586211Y-91323020D01*
X134616178Y-91377222D01*
X134636529Y-91446342D01*
X134648430Y-91533431D01*
X134653046Y-91641539D01*
X134653199Y-91667200D01*
X134650220Y-91782455D01*
X134640229Y-91875992D01*
X134621957Y-91950833D01*
X134594135Y-92010002D01*
X134555496Y-92056524D01*
X134504769Y-92093422D01*
X134466117Y-92113049D01*
X134450904Y-92119717D01*
X134435996Y-92125336D01*
X134419139Y-92130020D01*
X134398082Y-92133884D01*
X134370571Y-92137041D01*
X134334356Y-92139606D01*
X134287182Y-92141692D01*
X134226798Y-92143414D01*
X134150951Y-92144887D01*
X134057390Y-92146223D01*
X133943861Y-92147538D01*
X133808112Y-92148946D01*
X133745300Y-92149578D01*
X133599698Y-92151061D01*
X133477251Y-92152410D01*
X133375715Y-92153736D01*
X133292844Y-92155153D01*
X133226395Y-92156771D01*
X133174124Y-92158702D01*
X133133786Y-92161058D01*
X133103136Y-92163951D01*
X133079931Y-92167493D01*
X133061926Y-92171795D01*
X133046878Y-92176969D01*
X133032541Y-92183127D01*
X133027750Y-92185317D01*
X132959633Y-92226724D01*
X132895565Y-92283750D01*
X132843192Y-92348741D01*
X132816968Y-92396284D01*
X132788726Y-92492044D01*
X132782024Y-92594193D01*
X132795655Y-92697818D01*
X132828414Y-92798005D01*
X132879095Y-92889839D01*
X132946490Y-92968407D01*
X132960486Y-92980918D01*
X132982799Y-93000209D01*
X133002466Y-93016513D01*
X133021739Y-93030100D01*
X133042872Y-93041242D01*
X133068120Y-93050210D01*
X133099737Y-93057275D01*
X133139975Y-93062708D01*
X133191090Y-93066781D01*
X133255334Y-93069765D01*
X133334963Y-93071932D01*
X133432229Y-93073552D01*
X133549387Y-93074897D01*
X133688691Y-93076238D01*
X133758000Y-93076900D01*
X134412050Y-93083250D01*
X134485701Y-93119394D01*
X134545286Y-93156066D01*
X134588611Y-93201931D01*
X134619436Y-93262299D01*
X134640619Y-93338162D01*
X134651637Y-93413594D01*
X134657129Y-93503253D01*
X134657093Y-93597330D01*
X134651525Y-93686011D01*
X134640745Y-93758020D01*
X134618456Y-93838174D01*
X134589018Y-93897914D01*
X134548579Y-93942011D01*
X134493287Y-93975238D01*
X134452115Y-93991682D01*
X134441750Y-93995179D01*
X134430698Y-93998335D01*
X134417685Y-94001166D01*
X134401434Y-94003686D01*
X134380673Y-94005910D01*
X134354126Y-94007854D01*
X134320518Y-94009531D01*
X134278575Y-94010958D01*
X134227023Y-94012148D01*
X134164586Y-94013116D01*
X134089990Y-94013878D01*
X134001960Y-94014447D01*
X133899222Y-94014840D01*
X133780502Y-94015071D01*
X133644523Y-94015154D01*
X133490013Y-94015105D01*
X133315695Y-94014938D01*
X133120297Y-94014668D01*
X132902542Y-94014310D01*
X132661156Y-94013879D01*
X132560859Y-94013695D01*
X130741750Y-94010350D01*
X130675658Y-93975507D01*
X130621404Y-93938054D01*
X130579345Y-93888036D01*
X130548591Y-93823044D01*
X130528254Y-93740670D01*
X130517445Y-93638507D01*
X130515061Y-93540450D01*
X130519461Y-93425071D01*
G37*
X130519461Y-93425071D02*
X130532835Y-93331127D01*
X130556350Y-93255886D01*
X130591172Y-93196613D01*
X130638469Y-93150574D01*
X130695941Y-93116641D01*
X130767150Y-93083250D01*
X131459300Y-93079655D01*
X132151450Y-93076059D01*
X132073486Y-92994739D01*
X131979045Y-92880602D01*
X131908072Y-92759166D01*
X131876634Y-92683200D01*
X131863883Y-92643668D01*
X131855391Y-92605610D01*
X131850360Y-92562255D01*
X131847993Y-92506830D01*
X131847489Y-92435550D01*
X131848923Y-92364883D01*
X131852633Y-92295547D01*
X131858051Y-92235647D01*
X131864397Y-92194250D01*
X131910672Y-92040721D01*
X131979799Y-91894093D01*
X132069696Y-91756410D01*
X132178283Y-91629714D01*
X132303480Y-91516049D01*
X132443207Y-91417458D01*
X132595383Y-91335984D01*
X132757928Y-91273670D01*
X132819622Y-91256051D01*
X132877311Y-91242307D01*
X132937426Y-91230776D01*
X133002653Y-91221288D01*
X133075678Y-91213674D01*
X133159189Y-91207764D01*
X133255870Y-91203391D01*
X133368409Y-91200383D01*
X133499491Y-91198573D01*
X133651802Y-91197790D01*
X133745300Y-91197736D01*
X133896764Y-91198110D01*
X134025117Y-91199110D01*
X134132641Y-91200887D01*
X134221621Y-91203593D01*
X134294341Y-91207378D01*
X134353083Y-91212393D01*
X134400133Y-91218790D01*
X134437773Y-91226719D01*
X134468287Y-91236331D01*
X134492768Y-91247166D01*
X134545462Y-91280685D01*
X134586211Y-91323020D01*
X134616178Y-91377222D01*
X134636529Y-91446342D01*
X134648430Y-91533431D01*
X134653046Y-91641539D01*
X134653199Y-91667200D01*
X134650220Y-91782455D01*
X134640229Y-91875992D01*
X134621957Y-91950833D01*
X134594135Y-92010002D01*
X134555496Y-92056524D01*
X134504769Y-92093422D01*
X134466117Y-92113049D01*
X134450904Y-92119717D01*
X134435996Y-92125336D01*
X134419139Y-92130020D01*
X134398082Y-92133884D01*
X134370571Y-92137041D01*
X134334356Y-92139606D01*
X134287182Y-92141692D01*
X134226798Y-92143414D01*
X134150951Y-92144887D01*
X134057390Y-92146223D01*
X133943861Y-92147538D01*
X133808112Y-92148946D01*
X133745300Y-92149578D01*
X133599698Y-92151061D01*
X133477251Y-92152410D01*
X133375715Y-92153736D01*
X133292844Y-92155153D01*
X133226395Y-92156771D01*
X133174124Y-92158702D01*
X133133786Y-92161058D01*
X133103136Y-92163951D01*
X133079931Y-92167493D01*
X133061926Y-92171795D01*
X133046878Y-92176969D01*
X133032541Y-92183127D01*
X133027750Y-92185317D01*
X132959633Y-92226724D01*
X132895565Y-92283750D01*
X132843192Y-92348741D01*
X132816968Y-92396284D01*
X132788726Y-92492044D01*
X132782024Y-92594193D01*
X132795655Y-92697818D01*
X132828414Y-92798005D01*
X132879095Y-92889839D01*
X132946490Y-92968407D01*
X132960486Y-92980918D01*
X132982799Y-93000209D01*
X133002466Y-93016513D01*
X133021739Y-93030100D01*
X133042872Y-93041242D01*
X133068120Y-93050210D01*
X133099737Y-93057275D01*
X133139975Y-93062708D01*
X133191090Y-93066781D01*
X133255334Y-93069765D01*
X133334963Y-93071932D01*
X133432229Y-93073552D01*
X133549387Y-93074897D01*
X133688691Y-93076238D01*
X133758000Y-93076900D01*
X134412050Y-93083250D01*
X134485701Y-93119394D01*
X134545286Y-93156066D01*
X134588611Y-93201931D01*
X134619436Y-93262299D01*
X134640619Y-93338162D01*
X134651637Y-93413594D01*
X134657129Y-93503253D01*
X134657093Y-93597330D01*
X134651525Y-93686011D01*
X134640745Y-93758020D01*
X134618456Y-93838174D01*
X134589018Y-93897914D01*
X134548579Y-93942011D01*
X134493287Y-93975238D01*
X134452115Y-93991682D01*
X134441750Y-93995179D01*
X134430698Y-93998335D01*
X134417685Y-94001166D01*
X134401434Y-94003686D01*
X134380673Y-94005910D01*
X134354126Y-94007854D01*
X134320518Y-94009531D01*
X134278575Y-94010958D01*
X134227023Y-94012148D01*
X134164586Y-94013116D01*
X134089990Y-94013878D01*
X134001960Y-94014447D01*
X133899222Y-94014840D01*
X133780502Y-94015071D01*
X133644523Y-94015154D01*
X133490013Y-94015105D01*
X133315695Y-94014938D01*
X133120297Y-94014668D01*
X132902542Y-94014310D01*
X132661156Y-94013879D01*
X132560859Y-94013695D01*
X130741750Y-94010350D01*
X130675658Y-93975507D01*
X130621404Y-93938054D01*
X130579345Y-93888036D01*
X130548591Y-93823044D01*
X130528254Y-93740670D01*
X130517445Y-93638507D01*
X130515061Y-93540450D01*
X130519461Y-93425071D01*
G36*
X130870702Y-101080428D02*
G01*
X130889772Y-100979369D01*
X130921067Y-100893303D01*
X130963840Y-100825147D01*
X131008609Y-100783514D01*
X131037155Y-100766582D01*
X131070643Y-100752964D01*
X131111970Y-100742332D01*
X131164033Y-100734355D01*
X131229727Y-100728703D01*
X131311949Y-100725046D01*
X131413596Y-100723055D01*
X131537564Y-100722400D01*
X131545266Y-100722396D01*
X131866183Y-100722300D01*
X131857299Y-100687375D01*
X131854480Y-100664032D01*
X131851936Y-100619897D01*
X131849827Y-100559579D01*
X131848311Y-100487686D01*
X131847547Y-100408826D01*
X131847532Y-100404800D01*
X131847398Y-100318577D01*
X131847956Y-100253498D01*
X131849591Y-100205309D01*
X131852693Y-100169757D01*
X131857647Y-100142589D01*
X131864841Y-100119549D01*
X131874662Y-100096385D01*
X131875845Y-100093809D01*
X131907102Y-100035430D01*
X131941782Y-99994414D01*
X131987519Y-99963074D01*
X132022524Y-99946124D01*
X132052770Y-99934214D01*
X132084535Y-99925684D01*
X132123315Y-99919785D01*
X132174607Y-99915769D01*
X132243907Y-99912886D01*
X132272958Y-99912020D01*
X132392546Y-99911684D01*
X132490328Y-99918677D01*
X132569093Y-99933970D01*
X132631627Y-99958535D01*
X132680718Y-99993344D01*
X132719151Y-100039370D01*
X132739166Y-100074600D01*
X132773750Y-100144450D01*
X132772184Y-100433988D01*
X132770619Y-100723526D01*
X133203984Y-100719738D01*
X133336765Y-100718583D01*
X133446427Y-100716897D01*
X133535246Y-100713547D01*
X133605495Y-100707402D01*
X133659450Y-100697327D01*
X133699384Y-100682189D01*
X133727573Y-100660857D01*
X133746291Y-100632197D01*
X133757813Y-100595075D01*
X133764413Y-100548359D01*
X133768365Y-100490917D01*
X133771109Y-100437249D01*
X133775251Y-100366371D01*
X133779829Y-100314916D01*
X133785987Y-100276916D01*
X133794871Y-100246404D01*
X133807624Y-100217411D01*
X133816575Y-100200189D01*
X133842809Y-100157298D01*
X133871510Y-100127774D01*
X133912321Y-100102386D01*
X133926144Y-100095305D01*
X133997236Y-100069995D01*
X134084754Y-100054523D01*
X134181779Y-100048721D01*
X134281391Y-100052422D01*
X134376669Y-100065459D01*
X134460695Y-100087663D01*
X134510764Y-100109462D01*
X134561395Y-100145137D01*
X134600336Y-100192129D01*
X134628521Y-100253115D01*
X134646884Y-100330772D01*
X134656362Y-100427776D01*
X134658093Y-100531294D01*
X134656497Y-100602882D01*
X134653398Y-100675087D01*
X134649267Y-100738782D01*
X134645293Y-100779450D01*
X134611468Y-100957259D01*
X134556270Y-101122048D01*
X134524826Y-101191343D01*
X134454397Y-101309685D01*
X134368234Y-101409977D01*
X134265454Y-101492775D01*
X134145173Y-101558632D01*
X134006509Y-101608104D01*
X133848577Y-101641747D01*
X133796433Y-101648943D01*
X133758287Y-101652031D01*
X133698518Y-101654862D01*
X133620901Y-101657347D01*
X133529211Y-101659400D01*
X133427223Y-101660932D01*
X133318714Y-101661857D01*
X133228639Y-101662100D01*
X132768462Y-101662100D01*
X132776054Y-101786713D01*
X132778425Y-101868320D01*
X132773364Y-101931142D01*
X132759603Y-101981035D01*
X132735871Y-102023856D01*
X132720261Y-102043980D01*
X132663293Y-102092259D01*
X132585071Y-102127249D01*
X132486034Y-102148869D01*
X132366621Y-102157040D01*
X132227273Y-102151684D01*
X132159884Y-102145036D01*
X132056001Y-102126037D01*
X131973963Y-102094715D01*
X131912780Y-102049870D01*
X131871461Y-101990299D01*
X131849016Y-101914803D01*
X131844455Y-101822179D01*
X131848725Y-101767696D01*
X131860489Y-101663741D01*
X131478919Y-101659746D01*
X131097350Y-101655750D01*
X131027500Y-101617650D01*
X130974189Y-101580328D01*
X130933510Y-101531668D01*
X130903594Y-101468040D01*
X130882576Y-101385817D01*
X130872226Y-101315849D01*
X130864604Y-101193561D01*
X130870702Y-101080428D01*
G37*
X130870702Y-101080428D02*
X130889772Y-100979369D01*
X130921067Y-100893303D01*
X130963840Y-100825147D01*
X131008609Y-100783514D01*
X131037155Y-100766582D01*
X131070643Y-100752964D01*
X131111970Y-100742332D01*
X131164033Y-100734355D01*
X131229727Y-100728703D01*
X131311949Y-100725046D01*
X131413596Y-100723055D01*
X131537564Y-100722400D01*
X131545266Y-100722396D01*
X131866183Y-100722300D01*
X131857299Y-100687375D01*
X131854480Y-100664032D01*
X131851936Y-100619897D01*
X131849827Y-100559579D01*
X131848311Y-100487686D01*
X131847547Y-100408826D01*
X131847532Y-100404800D01*
X131847398Y-100318577D01*
X131847956Y-100253498D01*
X131849591Y-100205309D01*
X131852693Y-100169757D01*
X131857647Y-100142589D01*
X131864841Y-100119549D01*
X131874662Y-100096385D01*
X131875845Y-100093809D01*
X131907102Y-100035430D01*
X131941782Y-99994414D01*
X131987519Y-99963074D01*
X132022524Y-99946124D01*
X132052770Y-99934214D01*
X132084535Y-99925684D01*
X132123315Y-99919785D01*
X132174607Y-99915769D01*
X132243907Y-99912886D01*
X132272958Y-99912020D01*
X132392546Y-99911684D01*
X132490328Y-99918677D01*
X132569093Y-99933970D01*
X132631627Y-99958535D01*
X132680718Y-99993344D01*
X132719151Y-100039370D01*
X132739166Y-100074600D01*
X132773750Y-100144450D01*
X132772184Y-100433988D01*
X132770619Y-100723526D01*
X133203984Y-100719738D01*
X133336765Y-100718583D01*
X133446427Y-100716897D01*
X133535246Y-100713547D01*
X133605495Y-100707402D01*
X133659450Y-100697327D01*
X133699384Y-100682189D01*
X133727573Y-100660857D01*
X133746291Y-100632197D01*
X133757813Y-100595075D01*
X133764413Y-100548359D01*
X133768365Y-100490917D01*
X133771109Y-100437249D01*
X133775251Y-100366371D01*
X133779829Y-100314916D01*
X133785987Y-100276916D01*
X133794871Y-100246404D01*
X133807624Y-100217411D01*
X133816575Y-100200189D01*
X133842809Y-100157298D01*
X133871510Y-100127774D01*
X133912321Y-100102386D01*
X133926144Y-100095305D01*
X133997236Y-100069995D01*
X134084754Y-100054523D01*
X134181779Y-100048721D01*
X134281391Y-100052422D01*
X134376669Y-100065459D01*
X134460695Y-100087663D01*
X134510764Y-100109462D01*
X134561395Y-100145137D01*
X134600336Y-100192129D01*
X134628521Y-100253115D01*
X134646884Y-100330772D01*
X134656362Y-100427776D01*
X134658093Y-100531294D01*
X134656497Y-100602882D01*
X134653398Y-100675087D01*
X134649267Y-100738782D01*
X134645293Y-100779450D01*
X134611468Y-100957259D01*
X134556270Y-101122048D01*
X134524826Y-101191343D01*
X134454397Y-101309685D01*
X134368234Y-101409977D01*
X134265454Y-101492775D01*
X134145173Y-101558632D01*
X134006509Y-101608104D01*
X133848577Y-101641747D01*
X133796433Y-101648943D01*
X133758287Y-101652031D01*
X133698518Y-101654862D01*
X133620901Y-101657347D01*
X133529211Y-101659400D01*
X133427223Y-101660932D01*
X133318714Y-101661857D01*
X133228639Y-101662100D01*
X132768462Y-101662100D01*
X132776054Y-101786713D01*
X132778425Y-101868320D01*
X132773364Y-101931142D01*
X132759603Y-101981035D01*
X132735871Y-102023856D01*
X132720261Y-102043980D01*
X132663293Y-102092259D01*
X132585071Y-102127249D01*
X132486034Y-102148869D01*
X132366621Y-102157040D01*
X132227273Y-102151684D01*
X132159884Y-102145036D01*
X132056001Y-102126037D01*
X131973963Y-102094715D01*
X131912780Y-102049870D01*
X131871461Y-101990299D01*
X131849016Y-101914803D01*
X131844455Y-101822179D01*
X131848725Y-101767696D01*
X131860489Y-101663741D01*
X131478919Y-101659746D01*
X131097350Y-101655750D01*
X131027500Y-101617650D01*
X130974189Y-101580328D01*
X130933510Y-101531668D01*
X130903594Y-101468040D01*
X130882576Y-101385817D01*
X130872226Y-101315849D01*
X130864604Y-101193561D01*
X130870702Y-101080428D01*
G36*
X131835040Y-98221433D02*
G01*
X131839752Y-98175134D01*
X131872935Y-97994497D01*
X131925037Y-97830673D01*
X131996325Y-97683231D01*
X132087069Y-97551741D01*
X132197535Y-97435772D01*
X132327993Y-97334894D01*
X132385841Y-97298668D01*
X132508541Y-97237817D01*
X132640155Y-97193190D01*
X132776243Y-97165165D01*
X132912366Y-97154118D01*
X133044087Y-97160428D01*
X133166967Y-97184471D01*
X133270218Y-97223466D01*
X133333107Y-97263947D01*
X133396449Y-97321469D01*
X133453360Y-97388757D01*
X133496955Y-97458536D01*
X133501512Y-97467892D01*
X133535750Y-97540950D01*
X133539352Y-98210875D01*
X133540073Y-98361605D01*
X133540674Y-98488789D01*
X133541443Y-98594280D01*
X133542667Y-98679930D01*
X133544634Y-98747591D01*
X133547633Y-98799113D01*
X133551951Y-98836350D01*
X133557875Y-98861153D01*
X133565695Y-98875373D01*
X133575698Y-98880863D01*
X133588171Y-98879474D01*
X133603402Y-98873058D01*
X133621680Y-98863467D01*
X133639393Y-98854411D01*
X133686925Y-98825394D01*
X133728020Y-98785579D01*
X133766892Y-98730079D01*
X133801736Y-98666121D01*
X133829778Y-98605368D01*
X133849788Y-98548075D01*
X133862715Y-98488369D01*
X133869509Y-98420376D01*
X133871120Y-98338223D01*
X133869026Y-98250130D01*
X133864767Y-98163448D01*
X133857897Y-98090534D01*
X133846887Y-98024050D01*
X133830207Y-97956661D01*
X133806328Y-97881028D01*
X133773720Y-97789816D01*
X133772213Y-97785743D01*
X133754141Y-97719427D01*
X133746257Y-97650642D01*
X133748857Y-97587664D01*
X133762234Y-97538770D01*
X133763374Y-97536486D01*
X133796687Y-97490509D01*
X133848488Y-97441408D01*
X133913081Y-97393819D01*
X133984768Y-97352378D01*
X133996940Y-97346426D01*
X134091941Y-97310867D01*
X134185856Y-97293833D01*
X134273485Y-97295860D01*
X134335201Y-97311428D01*
X134408956Y-97353159D01*
X134474082Y-97418614D01*
X134530463Y-97507587D01*
X134577986Y-97619871D01*
X134616535Y-97755260D01*
X134635953Y-97851141D01*
X134647187Y-97931496D01*
X134656210Y-98028941D01*
X134662904Y-98137801D01*
X134667150Y-98252398D01*
X134668831Y-98367053D01*
X134667828Y-98476090D01*
X134664023Y-98573831D01*
X134657298Y-98654598D01*
X134653278Y-98683950D01*
X134611600Y-98874094D01*
X134550502Y-99049022D01*
X134470359Y-99208106D01*
X134371549Y-99350719D01*
X134254447Y-99476233D01*
X134119429Y-99584021D01*
X134109587Y-99590705D01*
X133936508Y-99692297D01*
X133756047Y-99769683D01*
X133569001Y-99822703D01*
X133376169Y-99851197D01*
X133178348Y-99855004D01*
X133061805Y-99842867D01*
X133061805Y-98893500D01*
X133065100Y-98881449D01*
X133067737Y-98847874D01*
X133069731Y-98796641D01*
X133071096Y-98731617D01*
X133071847Y-98656668D01*
X133071998Y-98575662D01*
X133071565Y-98492465D01*
X133070562Y-98410944D01*
X133069003Y-98334965D01*
X133066903Y-98268395D01*
X133064277Y-98215102D01*
X133061139Y-98178951D01*
X133059057Y-98167242D01*
X133031782Y-98112285D01*
X132987281Y-98074340D01*
X132929486Y-98056359D01*
X132910135Y-98055300D01*
X132832457Y-98066321D01*
X132767527Y-98098438D01*
X132716330Y-98150236D01*
X132679852Y-98220299D01*
X132659079Y-98307211D01*
X132654995Y-98409556D01*
X132655566Y-98420991D01*
X132660833Y-98478603D01*
X132671118Y-98524875D01*
X132689838Y-98571832D01*
X132709564Y-98611120D01*
X132758070Y-98688244D01*
X132817183Y-98758363D01*
X132881892Y-98816706D01*
X132947185Y-98858499D01*
X132985515Y-98873932D01*
X133024169Y-98884879D01*
X133052683Y-98891981D01*
X133061805Y-98893500D01*
X133061805Y-99842867D01*
X132976337Y-99833966D01*
X132933199Y-99826328D01*
X132756144Y-99780327D01*
X132590657Y-99712348D01*
X132437949Y-99623606D01*
X132299229Y-99515316D01*
X132175709Y-99388691D01*
X132068597Y-99244947D01*
X131979104Y-99085297D01*
X131908441Y-98910956D01*
X131864464Y-98753800D01*
X131848573Y-98662917D01*
X131837316Y-98555616D01*
X131831063Y-98440520D01*
X131830181Y-98326252D01*
X131835040Y-98221433D01*
G37*
X131835040Y-98221433D02*
X131839752Y-98175134D01*
X131872935Y-97994497D01*
X131925037Y-97830673D01*
X131996325Y-97683231D01*
X132087069Y-97551741D01*
X132197535Y-97435772D01*
X132327993Y-97334894D01*
X132385841Y-97298668D01*
X132508541Y-97237817D01*
X132640155Y-97193190D01*
X132776243Y-97165165D01*
X132912366Y-97154118D01*
X133044087Y-97160428D01*
X133166967Y-97184471D01*
X133270218Y-97223466D01*
X133333107Y-97263947D01*
X133396449Y-97321469D01*
X133453360Y-97388757D01*
X133496955Y-97458536D01*
X133501512Y-97467892D01*
X133535750Y-97540950D01*
X133539352Y-98210875D01*
X133540073Y-98361605D01*
X133540674Y-98488789D01*
X133541443Y-98594280D01*
X133542667Y-98679930D01*
X133544634Y-98747591D01*
X133547633Y-98799113D01*
X133551951Y-98836350D01*
X133557875Y-98861153D01*
X133565695Y-98875373D01*
X133575698Y-98880863D01*
X133588171Y-98879474D01*
X133603402Y-98873058D01*
X133621680Y-98863467D01*
X133639393Y-98854411D01*
X133686925Y-98825394D01*
X133728020Y-98785579D01*
X133766892Y-98730079D01*
X133801736Y-98666121D01*
X133829778Y-98605368D01*
X133849788Y-98548075D01*
X133862715Y-98488369D01*
X133869509Y-98420376D01*
X133871120Y-98338223D01*
X133869026Y-98250130D01*
X133864767Y-98163448D01*
X133857897Y-98090534D01*
X133846887Y-98024050D01*
X133830207Y-97956661D01*
X133806328Y-97881028D01*
X133773720Y-97789816D01*
X133772213Y-97785743D01*
X133754141Y-97719427D01*
X133746257Y-97650642D01*
X133748857Y-97587664D01*
X133762234Y-97538770D01*
X133763374Y-97536486D01*
X133796687Y-97490509D01*
X133848488Y-97441408D01*
X133913081Y-97393819D01*
X133984768Y-97352378D01*
X133996940Y-97346426D01*
X134091941Y-97310867D01*
X134185856Y-97293833D01*
X134273485Y-97295860D01*
X134335201Y-97311428D01*
X134408956Y-97353159D01*
X134474082Y-97418614D01*
X134530463Y-97507587D01*
X134577986Y-97619871D01*
X134616535Y-97755260D01*
X134635953Y-97851141D01*
X134647187Y-97931496D01*
X134656210Y-98028941D01*
X134662904Y-98137801D01*
X134667150Y-98252398D01*
X134668831Y-98367053D01*
X134667828Y-98476090D01*
X134664023Y-98573831D01*
X134657298Y-98654598D01*
X134653278Y-98683950D01*
X134611600Y-98874094D01*
X134550502Y-99049022D01*
X134470359Y-99208106D01*
X134371549Y-99350719D01*
X134254447Y-99476233D01*
X134119429Y-99584021D01*
X134109587Y-99590705D01*
X133936508Y-99692297D01*
X133756047Y-99769683D01*
X133569001Y-99822703D01*
X133376169Y-99851197D01*
X133178348Y-99855004D01*
X133061805Y-99842867D01*
X133061805Y-98893500D01*
X133065100Y-98881449D01*
X133067737Y-98847874D01*
X133069731Y-98796641D01*
X133071096Y-98731617D01*
X133071847Y-98656668D01*
X133071998Y-98575662D01*
X133071565Y-98492465D01*
X133070562Y-98410944D01*
X133069003Y-98334965D01*
X133066903Y-98268395D01*
X133064277Y-98215102D01*
X133061139Y-98178951D01*
X133059057Y-98167242D01*
X133031782Y-98112285D01*
X132987281Y-98074340D01*
X132929486Y-98056359D01*
X132910135Y-98055300D01*
X132832457Y-98066321D01*
X132767527Y-98098438D01*
X132716330Y-98150236D01*
X132679852Y-98220299D01*
X132659079Y-98307211D01*
X132654995Y-98409556D01*
X132655566Y-98420991D01*
X132660833Y-98478603D01*
X132671118Y-98524875D01*
X132689838Y-98571832D01*
X132709564Y-98611120D01*
X132758070Y-98688244D01*
X132817183Y-98758363D01*
X132881892Y-98816706D01*
X132947185Y-98858499D01*
X132985515Y-98873932D01*
X133024169Y-98884879D01*
X133052683Y-98891981D01*
X133061805Y-98893500D01*
X133061805Y-99842867D01*
X132976337Y-99833966D01*
X132933199Y-99826328D01*
X132756144Y-99780327D01*
X132590657Y-99712348D01*
X132437949Y-99623606D01*
X132299229Y-99515316D01*
X132175709Y-99388691D01*
X132068597Y-99244947D01*
X131979104Y-99085297D01*
X131908441Y-98910956D01*
X131864464Y-98753800D01*
X131848573Y-98662917D01*
X131837316Y-98555616D01*
X131831063Y-98440520D01*
X131830181Y-98326252D01*
X131835040Y-98221433D01*
G36*
X131834116Y-103329460D02*
G01*
X131859060Y-103155197D01*
X131902508Y-102991198D01*
X131929882Y-102917746D01*
X132001598Y-102776516D01*
X132094168Y-102647593D01*
X132205171Y-102533114D01*
X132332184Y-102435215D01*
X132472788Y-102356032D01*
X132624562Y-102297702D01*
X132636600Y-102294149D01*
X132705673Y-102279418D01*
X132790007Y-102269417D01*
X132882497Y-102264233D01*
X132976041Y-102263953D01*
X133063534Y-102268665D01*
X133137873Y-102278456D01*
X133175647Y-102287544D01*
X133276016Y-102331428D01*
X133366355Y-102396044D01*
X133442432Y-102477395D01*
X133500016Y-102571486D01*
X133515832Y-102608848D01*
X133521688Y-102625342D01*
X133526603Y-102642375D01*
X133530659Y-102662218D01*
X133533939Y-102687141D01*
X133536525Y-102719414D01*
X133538499Y-102761308D01*
X133539943Y-102815092D01*
X133540940Y-102883036D01*
X133541572Y-102967412D01*
X133541921Y-103070489D01*
X133542070Y-103194536D01*
X133542100Y-103334004D01*
X133542100Y-103988954D01*
X133573289Y-103981126D01*
X133648238Y-103952470D01*
X133711042Y-103905870D01*
X133764790Y-103838603D01*
X133794734Y-103785690D01*
X133828291Y-103712620D01*
X133851049Y-103644653D01*
X133864765Y-103573609D01*
X133871194Y-103491309D01*
X133872300Y-103424353D01*
X133869657Y-103309022D01*
X133860745Y-103209669D01*
X133844083Y-103117328D01*
X133818195Y-103023033D01*
X133794663Y-102953490D01*
X133764681Y-102860593D01*
X133748274Y-102784795D01*
X133745218Y-102721875D01*
X133755287Y-102667608D01*
X133776877Y-102620100D01*
X133821519Y-102564255D01*
X133885167Y-102511623D01*
X133961742Y-102465046D01*
X134045168Y-102427368D01*
X134129364Y-102401433D01*
X134208254Y-102390084D01*
X134262002Y-102393153D01*
X134344885Y-102418570D01*
X134417572Y-102463993D01*
X134480571Y-102530187D01*
X134534389Y-102617917D01*
X134579532Y-102727949D01*
X134616508Y-102861048D01*
X134635911Y-102957500D01*
X134645428Y-103025994D01*
X134653532Y-103112735D01*
X134660061Y-103212139D01*
X134664856Y-103318617D01*
X134667755Y-103426582D01*
X134668598Y-103530447D01*
X134667223Y-103624625D01*
X134663471Y-103703530D01*
X134658740Y-103751250D01*
X134625588Y-103918546D01*
X134573366Y-104085080D01*
X134504804Y-104243587D01*
X134422629Y-104386798D01*
X134416886Y-104395397D01*
X134331034Y-104503271D01*
X134224328Y-104605560D01*
X134101177Y-104699323D01*
X133965987Y-104781618D01*
X133823168Y-104849505D01*
X133677128Y-104900041D01*
X133649614Y-104907379D01*
X133456039Y-104943894D01*
X133257738Y-104957238D01*
X133072200Y-104948037D01*
X133072200Y-103998266D01*
X133072129Y-103658858D01*
X133071625Y-103562432D01*
X133070237Y-103473793D01*
X133068090Y-103396614D01*
X133065306Y-103334569D01*
X133062010Y-103291333D01*
X133059112Y-103272842D01*
X133043711Y-103232856D01*
X133023765Y-103198630D01*
X133022205Y-103196642D01*
X133006761Y-103181151D01*
X132987140Y-103172213D01*
X132956414Y-103168092D01*
X132907655Y-103167053D01*
X132904058Y-103167050D01*
X132852476Y-103168196D01*
X132817598Y-103173061D01*
X132790778Y-103183789D01*
X132764536Y-103201630D01*
X132731369Y-103234534D01*
X132700024Y-103277664D01*
X132689325Y-103296880D01*
X132675306Y-103328928D01*
X132666435Y-103360970D01*
X132661610Y-103400181D01*
X132659733Y-103453735D01*
X132659556Y-103490900D01*
X132660131Y-103552413D01*
X132662709Y-103596099D01*
X132668745Y-103629523D01*
X132679691Y-103660253D01*
X132697004Y-103695854D01*
X132700085Y-103701786D01*
X132755608Y-103790407D01*
X132822225Y-103867391D01*
X132895862Y-103929185D01*
X132972444Y-103972234D01*
X133030925Y-103990385D01*
X133072200Y-103998266D01*
X133072200Y-104948037D01*
X133059530Y-104947408D01*
X132866234Y-104914397D01*
X132841325Y-104908303D01*
X132672598Y-104852631D01*
X132514418Y-104774470D01*
X132368280Y-104675062D01*
X132235680Y-104555649D01*
X132118109Y-104417473D01*
X132017064Y-104261777D01*
X131980529Y-104192701D01*
X131915708Y-104036559D01*
X131868473Y-103867535D01*
X131839007Y-103690258D01*
X131827493Y-103509356D01*
X131834116Y-103329460D01*
G37*
X131834116Y-103329460D02*
X131859060Y-103155197D01*
X131902508Y-102991198D01*
X131929882Y-102917746D01*
X132001598Y-102776516D01*
X132094168Y-102647593D01*
X132205171Y-102533114D01*
X132332184Y-102435215D01*
X132472788Y-102356032D01*
X132624562Y-102297702D01*
X132636600Y-102294149D01*
X132705673Y-102279418D01*
X132790007Y-102269417D01*
X132882497Y-102264233D01*
X132976041Y-102263953D01*
X133063534Y-102268665D01*
X133137873Y-102278456D01*
X133175647Y-102287544D01*
X133276016Y-102331428D01*
X133366355Y-102396044D01*
X133442432Y-102477395D01*
X133500016Y-102571486D01*
X133515832Y-102608848D01*
X133521688Y-102625342D01*
X133526603Y-102642375D01*
X133530659Y-102662218D01*
X133533939Y-102687141D01*
X133536525Y-102719414D01*
X133538499Y-102761308D01*
X133539943Y-102815092D01*
X133540940Y-102883036D01*
X133541572Y-102967412D01*
X133541921Y-103070489D01*
X133542070Y-103194536D01*
X133542100Y-103334004D01*
X133542100Y-103988954D01*
X133573289Y-103981126D01*
X133648238Y-103952470D01*
X133711042Y-103905870D01*
X133764790Y-103838603D01*
X133794734Y-103785690D01*
X133828291Y-103712620D01*
X133851049Y-103644653D01*
X133864765Y-103573609D01*
X133871194Y-103491309D01*
X133872300Y-103424353D01*
X133869657Y-103309022D01*
X133860745Y-103209669D01*
X133844083Y-103117328D01*
X133818195Y-103023033D01*
X133794663Y-102953490D01*
X133764681Y-102860593D01*
X133748274Y-102784795D01*
X133745218Y-102721875D01*
X133755287Y-102667608D01*
X133776877Y-102620100D01*
X133821519Y-102564255D01*
X133885167Y-102511623D01*
X133961742Y-102465046D01*
X134045168Y-102427368D01*
X134129364Y-102401433D01*
X134208254Y-102390084D01*
X134262002Y-102393153D01*
X134344885Y-102418570D01*
X134417572Y-102463993D01*
X134480571Y-102530187D01*
X134534389Y-102617917D01*
X134579532Y-102727949D01*
X134616508Y-102861048D01*
X134635911Y-102957500D01*
X134645428Y-103025994D01*
X134653532Y-103112735D01*
X134660061Y-103212139D01*
X134664856Y-103318617D01*
X134667755Y-103426582D01*
X134668598Y-103530447D01*
X134667223Y-103624625D01*
X134663471Y-103703530D01*
X134658740Y-103751250D01*
X134625588Y-103918546D01*
X134573366Y-104085080D01*
X134504804Y-104243587D01*
X134422629Y-104386798D01*
X134416886Y-104395397D01*
X134331034Y-104503271D01*
X134224328Y-104605560D01*
X134101177Y-104699323D01*
X133965987Y-104781618D01*
X133823168Y-104849505D01*
X133677128Y-104900041D01*
X133649614Y-104907379D01*
X133456039Y-104943894D01*
X133257738Y-104957238D01*
X133072200Y-104948037D01*
X133072200Y-103998266D01*
X133072129Y-103658858D01*
X133071625Y-103562432D01*
X133070237Y-103473793D01*
X133068090Y-103396614D01*
X133065306Y-103334569D01*
X133062010Y-103291333D01*
X133059112Y-103272842D01*
X133043711Y-103232856D01*
X133023765Y-103198630D01*
X133022205Y-103196642D01*
X133006761Y-103181151D01*
X132987140Y-103172213D01*
X132956414Y-103168092D01*
X132907655Y-103167053D01*
X132904058Y-103167050D01*
X132852476Y-103168196D01*
X132817598Y-103173061D01*
X132790778Y-103183789D01*
X132764536Y-103201630D01*
X132731369Y-103234534D01*
X132700024Y-103277664D01*
X132689325Y-103296880D01*
X132675306Y-103328928D01*
X132666435Y-103360970D01*
X132661610Y-103400181D01*
X132659733Y-103453735D01*
X132659556Y-103490900D01*
X132660131Y-103552413D01*
X132662709Y-103596099D01*
X132668745Y-103629523D01*
X132679691Y-103660253D01*
X132697004Y-103695854D01*
X132700085Y-103701786D01*
X132755608Y-103790407D01*
X132822225Y-103867391D01*
X132895862Y-103929185D01*
X132972444Y-103972234D01*
X133030925Y-103990385D01*
X133072200Y-103998266D01*
X133072200Y-104948037D01*
X133059530Y-104947408D01*
X132866234Y-104914397D01*
X132841325Y-104908303D01*
X132672598Y-104852631D01*
X132514418Y-104774470D01*
X132368280Y-104675062D01*
X132235680Y-104555649D01*
X132118109Y-104417473D01*
X132017064Y-104261777D01*
X131980529Y-104192701D01*
X131915708Y-104036559D01*
X131868473Y-103867535D01*
X131839007Y-103690258D01*
X131827493Y-103509356D01*
X131834116Y-103329460D01*
G36*
X131805919Y-108494598D02*
G01*
X131825893Y-108424850D01*
X131838959Y-108398884D01*
X131854500Y-108374945D01*
X131874292Y-108352166D01*
X131900111Y-108329679D01*
X131933733Y-108306615D01*
X131976933Y-108282106D01*
X132031488Y-108255285D01*
X132099172Y-108225282D01*
X132181762Y-108191229D01*
X132281034Y-108152258D01*
X132398763Y-108107502D01*
X132536724Y-108056090D01*
X132696695Y-107997157D01*
X132712413Y-107991388D01*
X132794288Y-107960824D01*
X132866779Y-107932759D01*
X132926929Y-107908420D01*
X132971784Y-107889034D01*
X132998387Y-107875829D01*
X133004207Y-107870200D01*
X132989176Y-107864050D01*
X132953003Y-107850273D01*
X132898429Y-107829884D01*
X132828197Y-107803897D01*
X132745049Y-107773327D01*
X132651728Y-107739188D01*
X132550977Y-107702495D01*
X132544844Y-107700266D01*
X132433560Y-107659354D01*
X132331025Y-107620721D01*
X132239912Y-107585433D01*
X132162894Y-107554555D01*
X132102644Y-107529154D01*
X132061836Y-107510293D01*
X132046265Y-107501550D01*
X131988429Y-107452218D01*
X131931186Y-107386513D01*
X131881198Y-107312724D01*
X131855903Y-107264679D01*
X131833444Y-107189876D01*
X131827267Y-107104141D01*
X131837045Y-107015760D01*
X131862450Y-106933018D01*
X131869605Y-106917409D01*
X131915455Y-106843625D01*
X131976490Y-106773587D01*
X132045165Y-106715107D01*
X132093941Y-106685132D01*
X132122533Y-106672348D01*
X132171471Y-106652374D01*
X132237186Y-106626586D01*
X132316112Y-106596359D01*
X132404681Y-106563069D01*
X132499325Y-106528091D01*
X132537057Y-106514309D01*
X132658671Y-106469959D01*
X132758345Y-106433397D01*
X132838057Y-106403850D01*
X132899781Y-106380547D01*
X132945493Y-106362714D01*
X132977167Y-106349579D01*
X132996780Y-106340369D01*
X133006307Y-106334313D01*
X133007723Y-106330638D01*
X133007474Y-106330351D01*
X132994803Y-106325008D01*
X132960891Y-106311935D01*
X132908355Y-106292109D01*
X132839814Y-106266508D01*
X132757889Y-106236109D01*
X132665197Y-106201890D01*
X132564358Y-106164829D01*
X132545150Y-106157787D01*
X132440126Y-106119023D01*
X132340276Y-106081644D01*
X132248679Y-106046842D01*
X132168413Y-106015808D01*
X132102559Y-105989733D01*
X132054197Y-105969811D01*
X132026405Y-105957231D01*
X132025194Y-105956594D01*
X131962102Y-105915060D01*
X131903005Y-105862360D01*
X131854314Y-105805100D01*
X131822438Y-105749888D01*
X131820931Y-105746084D01*
X131808273Y-105702042D01*
X131803243Y-105651621D01*
X131804692Y-105588575D01*
X131808994Y-105537888D01*
X131816912Y-105495397D01*
X131830980Y-105452426D01*
X131853731Y-105400300D01*
X131868997Y-105368419D01*
X131929050Y-105260222D01*
X131992310Y-105176598D01*
X132059613Y-105116832D01*
X132131792Y-105080208D01*
X132209684Y-105066011D01*
X132222134Y-105065771D01*
X132261024Y-105066942D01*
X132298143Y-105071240D01*
X132337966Y-105079966D01*
X132384966Y-105094423D01*
X132443619Y-105115915D01*
X132518396Y-105145744D01*
X132570550Y-105167225D01*
X132613017Y-105184776D01*
X132676505Y-105210930D01*
X132758529Y-105244667D01*
X132856605Y-105284968D01*
X132968247Y-105330810D01*
X133090969Y-105381176D01*
X133222288Y-105435043D01*
X133359718Y-105491392D01*
X133500773Y-105549203D01*
X133561150Y-105573940D01*
X133698657Y-105630341D01*
X133830266Y-105684457D01*
X133953929Y-105735435D01*
X134067595Y-105782425D01*
X134169214Y-105824575D01*
X134256737Y-105861034D01*
X134328114Y-105890951D01*
X134381295Y-105913475D01*
X134414230Y-105927754D01*
X134423378Y-105931989D01*
X134485619Y-105972792D01*
X134547817Y-106029358D01*
X134601659Y-106093436D01*
X134628325Y-106135370D01*
X134647649Y-106175228D01*
X134659703Y-106214058D01*
X134666669Y-106261163D01*
X134670180Y-106313827D01*
X134672151Y-106369642D01*
X134670544Y-106409233D01*
X134663739Y-106441701D01*
X134650118Y-106476148D01*
X134636078Y-106505463D01*
X134583044Y-106588507D01*
X134511184Y-106665019D01*
X134427072Y-106728533D01*
X134385520Y-106751885D01*
X134355772Y-106765305D01*
X134305598Y-106786228D01*
X134238380Y-106813316D01*
X134157503Y-106845230D01*
X134066352Y-106880631D01*
X133968309Y-106918181D01*
X133894351Y-106946173D01*
X133775524Y-106991253D01*
X133679479Y-107028471D01*
X133605016Y-107058333D01*
X133550937Y-107081348D01*
X133516044Y-107098025D01*
X133499136Y-107108872D01*
X133498300Y-107114066D01*
X133514949Y-107121122D01*
X133552339Y-107135651D01*
X133607326Y-107156473D01*
X133676770Y-107182410D01*
X133757528Y-107212285D01*
X133846459Y-107244918D01*
X133876298Y-107255813D01*
X133970987Y-107290467D01*
X134061922Y-107323981D01*
X134145232Y-107354910D01*
X134217046Y-107381810D01*
X134273491Y-107403237D01*
X134310697Y-107417745D01*
X134315469Y-107419681D01*
X134432005Y-107477145D01*
X134525971Y-107544879D01*
X134598378Y-107623721D01*
X134636024Y-107684503D01*
X134653722Y-107735257D01*
X134665157Y-107801609D01*
X134669787Y-107874408D01*
X134667070Y-107944505D01*
X134656466Y-108002750D01*
X134655117Y-108007067D01*
X134621831Y-108078365D01*
X134571119Y-108150255D01*
X134509569Y-108215053D01*
X134443770Y-108265075D01*
X134424750Y-108275764D01*
X134403740Y-108285284D01*
X134361326Y-108303426D01*
X134299657Y-108329316D01*
X134220885Y-108362077D01*
X134127159Y-108400833D01*
X134020630Y-108444710D01*
X133903450Y-108492832D01*
X133777768Y-108544322D01*
X133645737Y-108598305D01*
X133509505Y-108653906D01*
X133371224Y-108710249D01*
X133233045Y-108766458D01*
X133097118Y-108821657D01*
X132965594Y-108874971D01*
X132840624Y-108925524D01*
X132724358Y-108972441D01*
X132618947Y-109014845D01*
X132526542Y-109051862D01*
X132449293Y-109082615D01*
X132389352Y-109106229D01*
X132348868Y-109121828D01*
X132331087Y-109128216D01*
X132257296Y-109147430D01*
X132197624Y-109153432D01*
X132144381Y-109146035D01*
X132089880Y-109125053D01*
X132084073Y-109122205D01*
X132030868Y-109089775D01*
X131985264Y-109047507D01*
X131943308Y-108990736D01*
X131901042Y-108914798D01*
X131891161Y-108894750D01*
X131845386Y-108784953D01*
X131815597Y-108679334D01*
X131802280Y-108581385D01*
X131805919Y-108494598D01*
G37*
X131805919Y-108494598D02*
X131825893Y-108424850D01*
X131838959Y-108398884D01*
X131854500Y-108374945D01*
X131874292Y-108352166D01*
X131900111Y-108329679D01*
X131933733Y-108306615D01*
X131976933Y-108282106D01*
X132031488Y-108255285D01*
X132099172Y-108225282D01*
X132181762Y-108191229D01*
X132281034Y-108152258D01*
X132398763Y-108107502D01*
X132536724Y-108056090D01*
X132696695Y-107997157D01*
X132712413Y-107991388D01*
X132794288Y-107960824D01*
X132866779Y-107932759D01*
X132926929Y-107908420D01*
X132971784Y-107889034D01*
X132998387Y-107875829D01*
X133004207Y-107870200D01*
X132989176Y-107864050D01*
X132953003Y-107850273D01*
X132898429Y-107829884D01*
X132828197Y-107803897D01*
X132745049Y-107773327D01*
X132651728Y-107739188D01*
X132550977Y-107702495D01*
X132544844Y-107700266D01*
X132433560Y-107659354D01*
X132331025Y-107620721D01*
X132239912Y-107585433D01*
X132162894Y-107554555D01*
X132102644Y-107529154D01*
X132061836Y-107510293D01*
X132046265Y-107501550D01*
X131988429Y-107452218D01*
X131931186Y-107386513D01*
X131881198Y-107312724D01*
X131855903Y-107264679D01*
X131833444Y-107189876D01*
X131827267Y-107104141D01*
X131837045Y-107015760D01*
X131862450Y-106933018D01*
X131869605Y-106917409D01*
X131915455Y-106843625D01*
X131976490Y-106773587D01*
X132045165Y-106715107D01*
X132093941Y-106685132D01*
X132122533Y-106672348D01*
X132171471Y-106652374D01*
X132237186Y-106626586D01*
X132316112Y-106596359D01*
X132404681Y-106563069D01*
X132499325Y-106528091D01*
X132537057Y-106514309D01*
X132658671Y-106469959D01*
X132758345Y-106433397D01*
X132838057Y-106403850D01*
X132899781Y-106380547D01*
X132945493Y-106362714D01*
X132977167Y-106349579D01*
X132996780Y-106340369D01*
X133006307Y-106334313D01*
X133007723Y-106330638D01*
X133007474Y-106330351D01*
X132994803Y-106325008D01*
X132960891Y-106311935D01*
X132908355Y-106292109D01*
X132839814Y-106266508D01*
X132757889Y-106236109D01*
X132665197Y-106201890D01*
X132564358Y-106164829D01*
X132545150Y-106157787D01*
X132440126Y-106119023D01*
X132340276Y-106081644D01*
X132248679Y-106046842D01*
X132168413Y-106015808D01*
X132102559Y-105989733D01*
X132054197Y-105969811D01*
X132026405Y-105957231D01*
X132025194Y-105956594D01*
X131962102Y-105915060D01*
X131903005Y-105862360D01*
X131854314Y-105805100D01*
X131822438Y-105749888D01*
X131820931Y-105746084D01*
X131808273Y-105702042D01*
X131803243Y-105651621D01*
X131804692Y-105588575D01*
X131808994Y-105537888D01*
X131816912Y-105495397D01*
X131830980Y-105452426D01*
X131853731Y-105400300D01*
X131868997Y-105368419D01*
X131929050Y-105260222D01*
X131992310Y-105176598D01*
X132059613Y-105116832D01*
X132131792Y-105080208D01*
X132209684Y-105066011D01*
X132222134Y-105065771D01*
X132261024Y-105066942D01*
X132298143Y-105071240D01*
X132337966Y-105079966D01*
X132384966Y-105094423D01*
X132443619Y-105115915D01*
X132518396Y-105145744D01*
X132570550Y-105167225D01*
X132613017Y-105184776D01*
X132676505Y-105210930D01*
X132758529Y-105244667D01*
X132856605Y-105284968D01*
X132968247Y-105330810D01*
X133090969Y-105381176D01*
X133222288Y-105435043D01*
X133359718Y-105491392D01*
X133500773Y-105549203D01*
X133561150Y-105573940D01*
X133698657Y-105630341D01*
X133830266Y-105684457D01*
X133953929Y-105735435D01*
X134067595Y-105782425D01*
X134169214Y-105824575D01*
X134256737Y-105861034D01*
X134328114Y-105890951D01*
X134381295Y-105913475D01*
X134414230Y-105927754D01*
X134423378Y-105931989D01*
X134485619Y-105972792D01*
X134547817Y-106029358D01*
X134601659Y-106093436D01*
X134628325Y-106135370D01*
X134647649Y-106175228D01*
X134659703Y-106214058D01*
X134666669Y-106261163D01*
X134670180Y-106313827D01*
X134672151Y-106369642D01*
X134670544Y-106409233D01*
X134663739Y-106441701D01*
X134650118Y-106476148D01*
X134636078Y-106505463D01*
X134583044Y-106588507D01*
X134511184Y-106665019D01*
X134427072Y-106728533D01*
X134385520Y-106751885D01*
X134355772Y-106765305D01*
X134305598Y-106786228D01*
X134238380Y-106813316D01*
X134157503Y-106845230D01*
X134066352Y-106880631D01*
X133968309Y-106918181D01*
X133894351Y-106946173D01*
X133775524Y-106991253D01*
X133679479Y-107028471D01*
X133605016Y-107058333D01*
X133550937Y-107081348D01*
X133516044Y-107098025D01*
X133499136Y-107108872D01*
X133498300Y-107114066D01*
X133514949Y-107121122D01*
X133552339Y-107135651D01*
X133607326Y-107156473D01*
X133676770Y-107182410D01*
X133757528Y-107212285D01*
X133846459Y-107244918D01*
X133876298Y-107255813D01*
X133970987Y-107290467D01*
X134061922Y-107323981D01*
X134145232Y-107354910D01*
X134217046Y-107381810D01*
X134273491Y-107403237D01*
X134310697Y-107417745D01*
X134315469Y-107419681D01*
X134432005Y-107477145D01*
X134525971Y-107544879D01*
X134598378Y-107623721D01*
X134636024Y-107684503D01*
X134653722Y-107735257D01*
X134665157Y-107801609D01*
X134669787Y-107874408D01*
X134667070Y-107944505D01*
X134656466Y-108002750D01*
X134655117Y-108007067D01*
X134621831Y-108078365D01*
X134571119Y-108150255D01*
X134509569Y-108215053D01*
X134443770Y-108265075D01*
X134424750Y-108275764D01*
X134403740Y-108285284D01*
X134361326Y-108303426D01*
X134299657Y-108329316D01*
X134220885Y-108362077D01*
X134127159Y-108400833D01*
X134020630Y-108444710D01*
X133903450Y-108492832D01*
X133777768Y-108544322D01*
X133645737Y-108598305D01*
X133509505Y-108653906D01*
X133371224Y-108710249D01*
X133233045Y-108766458D01*
X133097118Y-108821657D01*
X132965594Y-108874971D01*
X132840624Y-108925524D01*
X132724358Y-108972441D01*
X132618947Y-109014845D01*
X132526542Y-109051862D01*
X132449293Y-109082615D01*
X132389352Y-109106229D01*
X132348868Y-109121828D01*
X132331087Y-109128216D01*
X132257296Y-109147430D01*
X132197624Y-109153432D01*
X132144381Y-109146035D01*
X132089880Y-109125053D01*
X132084073Y-109122205D01*
X132030868Y-109089775D01*
X131985264Y-109047507D01*
X131943308Y-108990736D01*
X131901042Y-108914798D01*
X131891161Y-108894750D01*
X131845386Y-108784953D01*
X131815597Y-108679334D01*
X131802280Y-108581385D01*
X131805919Y-108494598D01*
G36*
X131806202Y-95289015D02*
G01*
X131817989Y-95159238D01*
X131842571Y-95034011D01*
X131881370Y-94903924D01*
X131888774Y-94882646D01*
X131925060Y-94794058D01*
X131971388Y-94702180D01*
X132024513Y-94611956D01*
X132081190Y-94528331D01*
X132138175Y-94456248D01*
X132192222Y-94400651D01*
X132219267Y-94379069D01*
X132249201Y-94359713D01*
X132276027Y-94348195D01*
X132308058Y-94342514D01*
X132353609Y-94340665D01*
X132379205Y-94340550D01*
X132434641Y-94341618D01*
X132475773Y-94346557D01*
X132513446Y-94357972D01*
X132558501Y-94378469D01*
X132578181Y-94388351D01*
X132662179Y-94436535D01*
X132744706Y-94493869D01*
X132819729Y-94555517D01*
X132881213Y-94616642D01*
X132913209Y-94656881D01*
X132952050Y-94731020D01*
X132967720Y-94808138D01*
X132960074Y-94889734D01*
X132928968Y-94977306D01*
X132874257Y-95072355D01*
X132873047Y-95074155D01*
X132832953Y-95135015D01*
X132805388Y-95182371D01*
X132788020Y-95223315D01*
X132778514Y-95264940D01*
X132774535Y-95314339D01*
X132773750Y-95375868D01*
X132774306Y-95437748D01*
X132776955Y-95482046D01*
X132783170Y-95516571D01*
X132794422Y-95549133D01*
X132812183Y-95587541D01*
X132814557Y-95592375D01*
X132875123Y-95689611D01*
X132950251Y-95766850D01*
X133037959Y-95823074D01*
X133136265Y-95857264D01*
X133243186Y-95868400D01*
X133334952Y-95859786D01*
X133438052Y-95830322D01*
X133525909Y-95781090D01*
X133599517Y-95711292D01*
X133659872Y-95620131D01*
X133676942Y-95585458D01*
X133708492Y-95486860D01*
X133717108Y-95382258D01*
X133703185Y-95275689D01*
X133667120Y-95171193D01*
X133629621Y-95102550D01*
X133575585Y-95008890D01*
X133542123Y-94926756D01*
X133529459Y-94852470D01*
X133537820Y-94782355D01*
X133567431Y-94712731D01*
X133618520Y-94639923D01*
X133661000Y-94591654D01*
X133760122Y-94495042D01*
X133855757Y-94420544D01*
X133946897Y-94368766D01*
X134032533Y-94340316D01*
X134088200Y-94334603D01*
X134160766Y-94342952D01*
X134229183Y-94368762D01*
X134295665Y-94413678D01*
X134362428Y-94479346D01*
X134431688Y-94567412D01*
X134463105Y-94613050D01*
X134535661Y-94731376D01*
X134591195Y-94845022D01*
X134631561Y-94960099D01*
X134658617Y-95082718D01*
X134674218Y-95218987D01*
X134679290Y-95324800D01*
X134680608Y-95428880D01*
X134678223Y-95512990D01*
X134671897Y-95582320D01*
X134665681Y-95621279D01*
X134624198Y-95785131D01*
X134563261Y-95947182D01*
X134485318Y-96103495D01*
X134392812Y-96250130D01*
X134288192Y-96383148D01*
X134173901Y-96498611D01*
X134069859Y-96580784D01*
X133915987Y-96674976D01*
X133758850Y-96746117D01*
X133594533Y-96795485D01*
X133419120Y-96824361D01*
X133299249Y-96832677D01*
X133107904Y-96830237D01*
X132930520Y-96807847D01*
X132764360Y-96764697D01*
X132606684Y-96699976D01*
X132454754Y-96612873D01*
X132379656Y-96560354D01*
X132293279Y-96490257D01*
X132215018Y-96412860D01*
X132139697Y-96322508D01*
X132062140Y-96213544D01*
X132061836Y-96213091D01*
X131973471Y-96069280D01*
X131905863Y-95931125D01*
X131857104Y-95792816D01*
X131825288Y-95648540D01*
X131808507Y-95492485D01*
X131805794Y-95432750D01*
X131806202Y-95289015D01*
G37*
X131806202Y-95289015D02*
X131817989Y-95159238D01*
X131842571Y-95034011D01*
X131881370Y-94903924D01*
X131888774Y-94882646D01*
X131925060Y-94794058D01*
X131971388Y-94702180D01*
X132024513Y-94611956D01*
X132081190Y-94528331D01*
X132138175Y-94456248D01*
X132192222Y-94400651D01*
X132219267Y-94379069D01*
X132249201Y-94359713D01*
X132276027Y-94348195D01*
X132308058Y-94342514D01*
X132353609Y-94340665D01*
X132379205Y-94340550D01*
X132434641Y-94341618D01*
X132475773Y-94346557D01*
X132513446Y-94357972D01*
X132558501Y-94378469D01*
X132578181Y-94388351D01*
X132662179Y-94436535D01*
X132744706Y-94493869D01*
X132819729Y-94555517D01*
X132881213Y-94616642D01*
X132913209Y-94656881D01*
X132952050Y-94731020D01*
X132967720Y-94808138D01*
X132960074Y-94889734D01*
X132928968Y-94977306D01*
X132874257Y-95072355D01*
X132873047Y-95074155D01*
X132832953Y-95135015D01*
X132805388Y-95182371D01*
X132788020Y-95223315D01*
X132778514Y-95264940D01*
X132774535Y-95314339D01*
X132773750Y-95375868D01*
X132774306Y-95437748D01*
X132776955Y-95482046D01*
X132783170Y-95516571D01*
X132794422Y-95549133D01*
X132812183Y-95587541D01*
X132814557Y-95592375D01*
X132875123Y-95689611D01*
X132950251Y-95766850D01*
X133037959Y-95823074D01*
X133136265Y-95857264D01*
X133243186Y-95868400D01*
X133334952Y-95859786D01*
X133438052Y-95830322D01*
X133525909Y-95781090D01*
X133599517Y-95711292D01*
X133659872Y-95620131D01*
X133676942Y-95585458D01*
X133708492Y-95486860D01*
X133717108Y-95382258D01*
X133703185Y-95275689D01*
X133667120Y-95171193D01*
X133629621Y-95102550D01*
X133575585Y-95008890D01*
X133542123Y-94926756D01*
X133529459Y-94852470D01*
X133537820Y-94782355D01*
X133567431Y-94712731D01*
X133618520Y-94639923D01*
X133661000Y-94591654D01*
X133760122Y-94495042D01*
X133855757Y-94420544D01*
X133946897Y-94368766D01*
X134032533Y-94340316D01*
X134088200Y-94334603D01*
X134160766Y-94342952D01*
X134229183Y-94368762D01*
X134295665Y-94413678D01*
X134362428Y-94479346D01*
X134431688Y-94567412D01*
X134463105Y-94613050D01*
X134535661Y-94731376D01*
X134591195Y-94845022D01*
X134631561Y-94960099D01*
X134658617Y-95082718D01*
X134674218Y-95218987D01*
X134679290Y-95324800D01*
X134680608Y-95428880D01*
X134678223Y-95512990D01*
X134671897Y-95582320D01*
X134665681Y-95621279D01*
X134624198Y-95785131D01*
X134563261Y-95947182D01*
X134485318Y-96103495D01*
X134392812Y-96250130D01*
X134288192Y-96383148D01*
X134173901Y-96498611D01*
X134069859Y-96580784D01*
X133915987Y-96674976D01*
X133758850Y-96746117D01*
X133594533Y-96795485D01*
X133419120Y-96824361D01*
X133299249Y-96832677D01*
X133107904Y-96830237D01*
X132930520Y-96807847D01*
X132764360Y-96764697D01*
X132606684Y-96699976D01*
X132454754Y-96612873D01*
X132379656Y-96560354D01*
X132293279Y-96490257D01*
X132215018Y-96412860D01*
X132139697Y-96322508D01*
X132062140Y-96213544D01*
X132061836Y-96213091D01*
X131973471Y-96069280D01*
X131905863Y-95931125D01*
X131857104Y-95792816D01*
X131825288Y-95648540D01*
X131808507Y-95492485D01*
X131805794Y-95432750D01*
X131806202Y-95289015D01*
G36*
X135053394Y-84176457D02*
G01*
X135053400Y-84091026D01*
X135053376Y-83891112D01*
X135053375Y-83715016D01*
X135053499Y-83561156D01*
X135053850Y-83427951D01*
X135054531Y-83313817D01*
X135055644Y-83217173D01*
X135057292Y-83136438D01*
X135059577Y-83070028D01*
X135062602Y-83016363D01*
X135066469Y-82973861D01*
X135071281Y-82940938D01*
X135077140Y-82916014D01*
X135084150Y-82897507D01*
X135092411Y-82883834D01*
X135102028Y-82873413D01*
X135113102Y-82864663D01*
X135125736Y-82856002D01*
X135133800Y-82850410D01*
X135183381Y-82828302D01*
X135250867Y-82817711D01*
X135331381Y-82818915D01*
X135420051Y-82832195D01*
X135426803Y-82833665D01*
X135550060Y-82871867D01*
X135657737Y-82928434D01*
X135750161Y-83003838D01*
X135827661Y-83098556D01*
X135890565Y-83213061D01*
X135939199Y-83347830D01*
X135973893Y-83503336D01*
X135992784Y-83653500D01*
X135996835Y-83716464D01*
X135999948Y-83799571D01*
X136002127Y-83897723D01*
X136003379Y-84005822D01*
X136003706Y-84118769D01*
X136003114Y-84231465D01*
X136001606Y-84338811D01*
X135999189Y-84435708D01*
X135995865Y-84517057D01*
X135991968Y-84574250D01*
X135968065Y-84736053D01*
X135927893Y-84880803D01*
X135872167Y-85007740D01*
X135801598Y-85116104D01*
X135716899Y-85205137D01*
X135618785Y-85274079D01*
X135507966Y-85322171D01*
X135385156Y-85348653D01*
X135260790Y-85353221D01*
X135206672Y-85350010D01*
X135170819Y-85344535D01*
X135146095Y-85334932D01*
X135125369Y-85319333D01*
X135123058Y-85317200D01*
X135111186Y-85306443D01*
X135100742Y-85296682D01*
X135091635Y-85286309D01*
X135083774Y-85273717D01*
X135077068Y-85257297D01*
X135071425Y-85235442D01*
X135066754Y-85206544D01*
X135062963Y-85168996D01*
X135059961Y-85121188D01*
X135057657Y-85061513D01*
X135055959Y-84988364D01*
X135054777Y-84900132D01*
X135054018Y-84795210D01*
X135053592Y-84671989D01*
X135053407Y-84528862D01*
X135053372Y-84364220D01*
X135053394Y-84176457D01*
G37*
X135053394Y-84176457D02*
X135053400Y-84091026D01*
X135053376Y-83891112D01*
X135053375Y-83715016D01*
X135053499Y-83561156D01*
X135053850Y-83427951D01*
X135054531Y-83313817D01*
X135055644Y-83217173D01*
X135057292Y-83136438D01*
X135059577Y-83070028D01*
X135062602Y-83016363D01*
X135066469Y-82973861D01*
X135071281Y-82940938D01*
X135077140Y-82916014D01*
X135084150Y-82897507D01*
X135092411Y-82883834D01*
X135102028Y-82873413D01*
X135113102Y-82864663D01*
X135125736Y-82856002D01*
X135133800Y-82850410D01*
X135183381Y-82828302D01*
X135250867Y-82817711D01*
X135331381Y-82818915D01*
X135420051Y-82832195D01*
X135426803Y-82833665D01*
X135550060Y-82871867D01*
X135657737Y-82928434D01*
X135750161Y-83003838D01*
X135827661Y-83098556D01*
X135890565Y-83213061D01*
X135939199Y-83347830D01*
X135973893Y-83503336D01*
X135992784Y-83653500D01*
X135996835Y-83716464D01*
X135999948Y-83799571D01*
X136002127Y-83897723D01*
X136003379Y-84005822D01*
X136003706Y-84118769D01*
X136003114Y-84231465D01*
X136001606Y-84338811D01*
X135999189Y-84435708D01*
X135995865Y-84517057D01*
X135991968Y-84574250D01*
X135968065Y-84736053D01*
X135927893Y-84880803D01*
X135872167Y-85007740D01*
X135801598Y-85116104D01*
X135716899Y-85205137D01*
X135618785Y-85274079D01*
X135507966Y-85322171D01*
X135385156Y-85348653D01*
X135260790Y-85353221D01*
X135206672Y-85350010D01*
X135170819Y-85344535D01*
X135146095Y-85334932D01*
X135125369Y-85319333D01*
X135123058Y-85317200D01*
X135111186Y-85306443D01*
X135100742Y-85296682D01*
X135091635Y-85286309D01*
X135083774Y-85273717D01*
X135077068Y-85257297D01*
X135071425Y-85235442D01*
X135066754Y-85206544D01*
X135062963Y-85168996D01*
X135059961Y-85121188D01*
X135057657Y-85061513D01*
X135055959Y-84988364D01*
X135054777Y-84900132D01*
X135054018Y-84795210D01*
X135053592Y-84671989D01*
X135053407Y-84528862D01*
X135053372Y-84364220D01*
X135053394Y-84176457D01*
G36*
X135056375Y-87162966D02*
G01*
X135059750Y-86022050D01*
X135088485Y-85981765D01*
X135123599Y-85947823D01*
X135171502Y-85920810D01*
X135175871Y-85919080D01*
X135206912Y-85908619D01*
X135236010Y-85903420D01*
X135270810Y-85903159D01*
X135318956Y-85907513D01*
X135352702Y-85911607D01*
X135456560Y-85929638D01*
X135544281Y-85956817D01*
X135624404Y-85996263D01*
X135676133Y-86029734D01*
X135765372Y-86107825D01*
X135840448Y-86206912D01*
X135901304Y-86326865D01*
X135947883Y-86467556D01*
X135980126Y-86628856D01*
X135992932Y-86739600D01*
X135996953Y-86802893D01*
X136000036Y-86886435D01*
X136002186Y-86985094D01*
X136003408Y-87093737D01*
X136003706Y-87207231D01*
X136003085Y-87320445D01*
X136001552Y-87428244D01*
X135999110Y-87525496D01*
X135995765Y-87607068D01*
X135992033Y-87662314D01*
X135968240Y-87828414D01*
X135928281Y-87975147D01*
X135872241Y-88102415D01*
X135800205Y-88210118D01*
X135712258Y-88298157D01*
X135608486Y-88366434D01*
X135488974Y-88414849D01*
X135353807Y-88443302D01*
X135316839Y-88447353D01*
X135233615Y-88448318D01*
X135168344Y-88433570D01*
X135118181Y-88401979D01*
X135080938Y-88353589D01*
X135053000Y-88303881D01*
X135056375Y-87162966D01*
G37*
X135056375Y-87162966D02*
X135059750Y-86022050D01*
X135088485Y-85981765D01*
X135123599Y-85947823D01*
X135171502Y-85920810D01*
X135175871Y-85919080D01*
X135206912Y-85908619D01*
X135236010Y-85903420D01*
X135270810Y-85903159D01*
X135318956Y-85907513D01*
X135352702Y-85911607D01*
X135456560Y-85929638D01*
X135544281Y-85956817D01*
X135624404Y-85996263D01*
X135676133Y-86029734D01*
X135765372Y-86107825D01*
X135840448Y-86206912D01*
X135901304Y-86326865D01*
X135947883Y-86467556D01*
X135980126Y-86628856D01*
X135992932Y-86739600D01*
X135996953Y-86802893D01*
X136000036Y-86886435D01*
X136002186Y-86985094D01*
X136003408Y-87093737D01*
X136003706Y-87207231D01*
X136003085Y-87320445D01*
X136001552Y-87428244D01*
X135999110Y-87525496D01*
X135995765Y-87607068D01*
X135992033Y-87662314D01*
X135968240Y-87828414D01*
X135928281Y-87975147D01*
X135872241Y-88102415D01*
X135800205Y-88210118D01*
X135712258Y-88298157D01*
X135608486Y-88366434D01*
X135488974Y-88414849D01*
X135353807Y-88443302D01*
X135316839Y-88447353D01*
X135233615Y-88448318D01*
X135168344Y-88433570D01*
X135118181Y-88401979D01*
X135080938Y-88353589D01*
X135053000Y-88303881D01*
X135056375Y-87162966D01*
D12*
X143400000Y-95600000D02*
X141400000Y-95600000D01*
X141400000Y-95600000D02*
X141400000Y-99500000D01*
X143400000Y-95600000D02*
X143400000Y-99500000D01*
X159950000Y-66700000D02*
X158950000Y-65700000D01*
X155050000Y-75600000D02*
X159950000Y-75600000D01*
X159950000Y-75600000D02*
X159950000Y-66700000D01*
X158950000Y-65700000D02*
X155050000Y-65700000D01*
X155050000Y-65700000D02*
X155050000Y-75600000D01*
X131650000Y-65700000D02*
X131650000Y-75600000D01*
X135550000Y-65700000D02*
X131650000Y-65700000D01*
X136550000Y-75600000D02*
X136550000Y-66700000D01*
X131650000Y-75600000D02*
X136550000Y-75600000D01*
X136550000Y-66700000D02*
X135550000Y-65700000D01*
X142150000Y-118325000D02*
X142150000Y-104975000D01*
X142150000Y-104975000D02*
X149550000Y-104975000D01*
X149550000Y-104975000D02*
X149550000Y-118325000D01*
X149550000Y-118325000D02*
X142150000Y-118325000D01*
X152150000Y-66700000D02*
X151150000Y-65700000D01*
X147250000Y-75600000D02*
X152150000Y-75600000D01*
X152150000Y-75600000D02*
X152150000Y-66700000D01*
X151150000Y-65700000D02*
X147250000Y-65700000D01*
X147250000Y-65700000D02*
X147250000Y-75600000D01*
X139450000Y-65700000D02*
X139450000Y-75600000D01*
X143350000Y-65700000D02*
X139450000Y-65700000D01*
X144350000Y-75600000D02*
X144350000Y-66700000D01*
X139450000Y-75600000D02*
X144350000Y-75600000D01*
X144350000Y-66700000D02*
X143350000Y-65700000D01*
X123895000Y-71365000D02*
X125225000Y-71365000D01*
X123895000Y-72695000D02*
X123895000Y-71365000D01*
X123895000Y-73965000D02*
X126555000Y-73965000D01*
X126555000Y-73965000D02*
X126555000Y-109585000D01*
X123895000Y-73965000D02*
X123895000Y-109585000D01*
X123895000Y-109585000D02*
X126555000Y-109585000D01*
X164845000Y-109665000D02*
X167505000Y-109665000D01*
X164845000Y-74045000D02*
X164845000Y-109665000D01*
X167505000Y-74045000D02*
X167505000Y-109665000D01*
X164845000Y-74045000D02*
X167505000Y-74045000D01*
X164845000Y-72775000D02*
X164845000Y-71445000D01*
X164845000Y-71445000D02*
X166175000Y-71445000D01*
X149430000Y-93650000D02*
X147930000Y-93650000D01*
X147930000Y-93650000D02*
X147930000Y-93920000D01*
X147930000Y-93920000D02*
X145100000Y-93920000D01*
X149430000Y-100550000D02*
X147930000Y-100550000D01*
X147930000Y-100550000D02*
X147930000Y-100280000D01*
X147930000Y-100280000D02*
X146830000Y-100280000D01*
X150600000Y-76320000D02*
X151800000Y-76320000D01*
X151800000Y-78080000D02*
X150600000Y-78080000D01*
X140780000Y-96500000D02*
X140780000Y-97700000D01*
X139020000Y-97700000D02*
X139020000Y-96500000D01*
D13*
X152201753Y-78100000D02*
G75*
G03X152201753Y-78100000I-100000J0D01*
G01*
D10*
X152286753Y-81000000D02*
X152286753Y-88600000D01*
X139286753Y-81000000D02*
X139286753Y-88600000D01*
D14*
X142852380Y-94738095D02*
X141852380Y-94738095D01*
X141852380Y-94500000D01*
X141900000Y-94357142D01*
X141995238Y-94261904D01*
X142090476Y-94214285D01*
X142280952Y-94166666D01*
X142423809Y-94166666D01*
X142614285Y-94214285D01*
X142709523Y-94261904D01*
X142804761Y-94357142D01*
X142852380Y-94500000D01*
X142852380Y-94738095D01*
X142852380Y-93214285D02*
X142852380Y-93785714D01*
X142852380Y-93500000D02*
X141852380Y-93500000D01*
X141995238Y-93595238D01*
X142090476Y-93690476D01*
X142138095Y-93785714D01*
D10*
X127692000Y-73536171D02*
X127692000Y-73971600D01*
X127662971Y-74058685D01*
X127604914Y-74116742D01*
X127517828Y-74145771D01*
X127459771Y-74145771D01*
X127982285Y-74145771D02*
X127982285Y-73536171D01*
X128214514Y-73536171D01*
X128272571Y-73565200D01*
X128301600Y-73594228D01*
X128330628Y-73652285D01*
X128330628Y-73739371D01*
X128301600Y-73797428D01*
X128272571Y-73826457D01*
X128214514Y-73855485D01*
X127982285Y-73855485D01*
X128911200Y-74145771D02*
X128562857Y-74145771D01*
X128737028Y-74145771D02*
X128737028Y-73536171D01*
X128678971Y-73623257D01*
X128620914Y-73681314D01*
X128562857Y-73710342D01*
X127692000Y-76136171D02*
X127692000Y-76571600D01*
X127662971Y-76658685D01*
X127604914Y-76716742D01*
X127517828Y-76745771D01*
X127459771Y-76745771D01*
X127982285Y-76745771D02*
X127982285Y-76136171D01*
X128214514Y-76136171D01*
X128272571Y-76165200D01*
X128301600Y-76194228D01*
X128330628Y-76252285D01*
X128330628Y-76339371D01*
X128301600Y-76397428D01*
X128272571Y-76426457D01*
X128214514Y-76455485D01*
X127982285Y-76455485D01*
X128562857Y-76194228D02*
X128591885Y-76165200D01*
X128649942Y-76136171D01*
X128795085Y-76136171D01*
X128853142Y-76165200D01*
X128882171Y-76194228D01*
X128911200Y-76252285D01*
X128911200Y-76310342D01*
X128882171Y-76397428D01*
X128533828Y-76745771D01*
X128911200Y-76745771D01*
D14*
X157511904Y-76952380D02*
X157511904Y-75952380D01*
X157892857Y-75952380D01*
X157988095Y-76000000D01*
X158035714Y-76047619D01*
X158083333Y-76142857D01*
X158083333Y-76285714D01*
X158035714Y-76380952D01*
X157988095Y-76428571D01*
X157892857Y-76476190D01*
X157511904Y-76476190D01*
X159035714Y-76952380D02*
X158464285Y-76952380D01*
X158750000Y-76952380D02*
X158750000Y-75952380D01*
X158654761Y-76095238D01*
X158559523Y-76190476D01*
X158464285Y-76238095D01*
X134011904Y-76952380D02*
X134011904Y-75952380D01*
X134392857Y-75952380D01*
X134488095Y-76000000D01*
X134535714Y-76047619D01*
X134583333Y-76142857D01*
X134583333Y-76285714D01*
X134535714Y-76380952D01*
X134488095Y-76428571D01*
X134392857Y-76476190D01*
X134011904Y-76476190D01*
X134964285Y-76047619D02*
X135011904Y-76000000D01*
X135107142Y-75952380D01*
X135345238Y-75952380D01*
X135440476Y-76000000D01*
X135488095Y-76047619D01*
X135535714Y-76142857D01*
X135535714Y-76238095D01*
X135488095Y-76380952D01*
X134916666Y-76952380D01*
X135535714Y-76952380D01*
X142261904Y-104452380D02*
X142261904Y-103452380D01*
X142642857Y-103452380D01*
X142738095Y-103500000D01*
X142785714Y-103547619D01*
X142833333Y-103642857D01*
X142833333Y-103785714D01*
X142785714Y-103880952D01*
X142738095Y-103928571D01*
X142642857Y-103976190D01*
X142261904Y-103976190D01*
X143166666Y-103452380D02*
X143785714Y-103452380D01*
X143452380Y-103833333D01*
X143595238Y-103833333D01*
X143690476Y-103880952D01*
X143738095Y-103928571D01*
X143785714Y-104023809D01*
X143785714Y-104261904D01*
X143738095Y-104357142D01*
X143690476Y-104404761D01*
X143595238Y-104452380D01*
X143309523Y-104452380D01*
X143214285Y-104404761D01*
X143166666Y-104357142D01*
X147761904Y-76952380D02*
X147761904Y-75952380D01*
X148142857Y-75952380D01*
X148238095Y-76000000D01*
X148285714Y-76047619D01*
X148333333Y-76142857D01*
X148333333Y-76285714D01*
X148285714Y-76380952D01*
X148238095Y-76428571D01*
X148142857Y-76476190D01*
X147761904Y-76476190D01*
X149190476Y-76285714D02*
X149190476Y-76952380D01*
X148952380Y-75904761D02*
X148714285Y-76619047D01*
X149333333Y-76619047D01*
X141761904Y-76952380D02*
X141761904Y-75952380D01*
X142142857Y-75952380D01*
X142238095Y-76000000D01*
X142285714Y-76047619D01*
X142333333Y-76142857D01*
X142333333Y-76285714D01*
X142285714Y-76380952D01*
X142238095Y-76428571D01*
X142142857Y-76476190D01*
X141761904Y-76476190D01*
X143238095Y-75952380D02*
X142761904Y-75952380D01*
X142714285Y-76428571D01*
X142761904Y-76380952D01*
X142857142Y-76333333D01*
X143095238Y-76333333D01*
X143190476Y-76380952D01*
X143238095Y-76428571D01*
X143285714Y-76523809D01*
X143285714Y-76761904D01*
X143238095Y-76857142D01*
X143190476Y-76904761D01*
X143095238Y-76952380D01*
X142857142Y-76952380D01*
X142761904Y-76904761D01*
X142714285Y-76857142D01*
X124486904Y-70817380D02*
X124486904Y-69817380D01*
X124867857Y-69817380D01*
X124963095Y-69865000D01*
X125010714Y-69912619D01*
X125058333Y-70007857D01*
X125058333Y-70150714D01*
X125010714Y-70245952D01*
X124963095Y-70293571D01*
X124867857Y-70341190D01*
X124486904Y-70341190D01*
X125915476Y-69817380D02*
X125725000Y-69817380D01*
X125629761Y-69865000D01*
X125582142Y-69912619D01*
X125486904Y-70055476D01*
X125439285Y-70245952D01*
X125439285Y-70626904D01*
X125486904Y-70722142D01*
X125534523Y-70769761D01*
X125629761Y-70817380D01*
X125820238Y-70817380D01*
X125915476Y-70769761D01*
X125963095Y-70722142D01*
X126010714Y-70626904D01*
X126010714Y-70388809D01*
X125963095Y-70293571D01*
X125915476Y-70245952D01*
X125820238Y-70198333D01*
X125629761Y-70198333D01*
X125534523Y-70245952D01*
X125486904Y-70293571D01*
X125439285Y-70388809D01*
X165436904Y-70897380D02*
X165436904Y-69897380D01*
X165817857Y-69897380D01*
X165913095Y-69945000D01*
X165960714Y-69992619D01*
X166008333Y-70087857D01*
X166008333Y-70230714D01*
X165960714Y-70325952D01*
X165913095Y-70373571D01*
X165817857Y-70421190D01*
X165436904Y-70421190D01*
X166341666Y-69897380D02*
X167008333Y-69897380D01*
X166579761Y-70897380D01*
X150304761Y-93147619D02*
X150209523Y-93100000D01*
X150114285Y-93004761D01*
X149971428Y-92861904D01*
X149876190Y-92814285D01*
X149780952Y-92814285D01*
X149828571Y-93052380D02*
X149733333Y-93004761D01*
X149638095Y-92909523D01*
X149590476Y-92719047D01*
X149590476Y-92385714D01*
X149638095Y-92195238D01*
X149733333Y-92100000D01*
X149828571Y-92052380D01*
X150019047Y-92052380D01*
X150114285Y-92100000D01*
X150209523Y-92195238D01*
X150257142Y-92385714D01*
X150257142Y-92719047D01*
X150209523Y-92909523D01*
X150114285Y-93004761D01*
X150019047Y-93052380D01*
X149828571Y-93052380D01*
X151209523Y-93052380D02*
X150638095Y-93052380D01*
X150923809Y-93052380D02*
X150923809Y-92052380D01*
X150828571Y-92195238D01*
X150733333Y-92290476D01*
X150638095Y-92338095D01*
X153833333Y-77652380D02*
X153500000Y-77176190D01*
X153261904Y-77652380D02*
X153261904Y-76652380D01*
X153642857Y-76652380D01*
X153738095Y-76700000D01*
X153785714Y-76747619D01*
X153833333Y-76842857D01*
X153833333Y-76985714D01*
X153785714Y-77080952D01*
X153738095Y-77128571D01*
X153642857Y-77176190D01*
X153261904Y-77176190D01*
X154785714Y-77652380D02*
X154214285Y-77652380D01*
X154500000Y-77652380D02*
X154500000Y-76652380D01*
X154404761Y-76795238D01*
X154309523Y-76890476D01*
X154214285Y-76938095D01*
X138652380Y-97366666D02*
X138176190Y-97700000D01*
X138652380Y-97938095D02*
X137652380Y-97938095D01*
X137652380Y-97557142D01*
X137700000Y-97461904D01*
X137747619Y-97414285D01*
X137842857Y-97366666D01*
X137985714Y-97366666D01*
X138080952Y-97414285D01*
X138128571Y-97461904D01*
X138176190Y-97557142D01*
X138176190Y-97938095D01*
X137747619Y-96985714D02*
X137700000Y-96938095D01*
X137652380Y-96842857D01*
X137652380Y-96604761D01*
X137700000Y-96509523D01*
X137747619Y-96461904D01*
X137842857Y-96414285D01*
X137938095Y-96414285D01*
X138080952Y-96461904D01*
X138652380Y-97033333D01*
X138652380Y-96414285D01*
X152874133Y-82876904D02*
X153683657Y-82876904D01*
X153778895Y-82829285D01*
X153826514Y-82781666D01*
X153874133Y-82686428D01*
X153874133Y-82495952D01*
X153826514Y-82400714D01*
X153778895Y-82353095D01*
X153683657Y-82305476D01*
X152874133Y-82305476D01*
X153874133Y-81305476D02*
X153874133Y-81876904D01*
X153874133Y-81591190D02*
X152874133Y-81591190D01*
X153016991Y-81686428D01*
X153112229Y-81781666D01*
X153159848Y-81876904D01*
M02*
