%TF.GenerationSoftware,KiCad,Pcbnew,5.1.5+dfsg1-2build2*%
%TF.CreationDate,2021-01-07T13:42:11+01:00*%
%TF.ProjectId,BasicAtmega328,42617369-6341-4746-9d65-67613332382e,rev?*%
%TF.SameCoordinates,Original*%
%TF.FileFunction,Legend,Bot*%
%TF.FilePolarity,Positive*%
%FSLAX46Y46*%
G04 Gerber Fmt 4.6, Leading zero omitted, Abs format (unit mm)*
G04 Created by KiCad (PCBNEW 5.1.5+dfsg1-2build2) date 2021-01-07 13:42:11*
%MOMM*%
%LPD*%
G04 APERTURE LIST*
%ADD10C,0.127000*%
%ADD11C,0.150000*%
%ADD12C,0.100000*%
%ADD13C,0.010000*%
%ADD14C,0.120000*%
G04 APERTURE END LIST*
D10*
X86000000Y-110006900D02*
G75*
G02X84493100Y-108500000I0J1506900D01*
G01*
X133500000Y-108000000D02*
G75*
G02X131500000Y-110000000I-2000000J0D01*
G01*
X84500000Y-56500000D02*
G75*
G02X86000000Y-55000000I1500000J0D01*
G01*
X132000000Y-55000000D02*
G75*
G02X133500000Y-56500000I0J-1500000D01*
G01*
D11*
X85578957Y-62516366D02*
X85617052Y-62630652D01*
X85655147Y-62668747D01*
X85731338Y-62706842D01*
X85845623Y-62706842D01*
X85921814Y-62668747D01*
X85959909Y-62630652D01*
X85998004Y-62554461D01*
X85998004Y-62249700D01*
X85198004Y-62249700D01*
X85198004Y-62516366D01*
X85236100Y-62592557D01*
X85274195Y-62630652D01*
X85350385Y-62668747D01*
X85426576Y-62668747D01*
X85502766Y-62630652D01*
X85540861Y-62592557D01*
X85578957Y-62516366D01*
X85578957Y-62249700D01*
X85998004Y-63392557D02*
X85578957Y-63392557D01*
X85502766Y-63354461D01*
X85464671Y-63278271D01*
X85464671Y-63125890D01*
X85502766Y-63049700D01*
X85959909Y-63392557D02*
X85998004Y-63316366D01*
X85998004Y-63125890D01*
X85959909Y-63049700D01*
X85883719Y-63011604D01*
X85807528Y-63011604D01*
X85731338Y-63049700D01*
X85693242Y-63125890D01*
X85693242Y-63316366D01*
X85655147Y-63392557D01*
X85959909Y-63735414D02*
X85998004Y-63811604D01*
X85998004Y-63963985D01*
X85959909Y-64040176D01*
X85883719Y-64078271D01*
X85845623Y-64078271D01*
X85769433Y-64040176D01*
X85731338Y-63963985D01*
X85731338Y-63849700D01*
X85693242Y-63773509D01*
X85617052Y-63735414D01*
X85578957Y-63735414D01*
X85502766Y-63773509D01*
X85464671Y-63849700D01*
X85464671Y-63963985D01*
X85502766Y-64040176D01*
X85998004Y-64421128D02*
X85464671Y-64421128D01*
X85198004Y-64421128D02*
X85236100Y-64383033D01*
X85274195Y-64421128D01*
X85236100Y-64459223D01*
X85198004Y-64421128D01*
X85274195Y-64421128D01*
X85959909Y-65144938D02*
X85998004Y-65068747D01*
X85998004Y-64916366D01*
X85959909Y-64840176D01*
X85921814Y-64802080D01*
X85845623Y-64763985D01*
X85617052Y-64763985D01*
X85540861Y-64802080D01*
X85502766Y-64840176D01*
X85464671Y-64916366D01*
X85464671Y-65068747D01*
X85502766Y-65144938D01*
X85769433Y-65449700D02*
X85769433Y-65830652D01*
X85998004Y-65373509D02*
X85198004Y-65640176D01*
X85998004Y-65906842D01*
X85464671Y-66059223D02*
X85464671Y-66363985D01*
X85198004Y-66173509D02*
X85883719Y-66173509D01*
X85959909Y-66211604D01*
X85998004Y-66287795D01*
X85998004Y-66363985D01*
X85998004Y-66630652D02*
X85464671Y-66630652D01*
X85540861Y-66630652D02*
X85502766Y-66668747D01*
X85464671Y-66744938D01*
X85464671Y-66859223D01*
X85502766Y-66935414D01*
X85578957Y-66973509D01*
X85998004Y-66973509D01*
X85578957Y-66973509D02*
X85502766Y-67011604D01*
X85464671Y-67087795D01*
X85464671Y-67202080D01*
X85502766Y-67278271D01*
X85578957Y-67316366D01*
X85998004Y-67316366D01*
X85959909Y-68002080D02*
X85998004Y-67925890D01*
X85998004Y-67773509D01*
X85959909Y-67697319D01*
X85883719Y-67659223D01*
X85578957Y-67659223D01*
X85502766Y-67697319D01*
X85464671Y-67773509D01*
X85464671Y-67925890D01*
X85502766Y-68002080D01*
X85578957Y-68040176D01*
X85655147Y-68040176D01*
X85731338Y-67659223D01*
X85464671Y-68725890D02*
X86112290Y-68725890D01*
X86188480Y-68687795D01*
X86226576Y-68649700D01*
X86264671Y-68573509D01*
X86264671Y-68459223D01*
X86226576Y-68383033D01*
X85959909Y-68725890D02*
X85998004Y-68649700D01*
X85998004Y-68497319D01*
X85959909Y-68421128D01*
X85921814Y-68383033D01*
X85845623Y-68344938D01*
X85617052Y-68344938D01*
X85540861Y-68383033D01*
X85502766Y-68421128D01*
X85464671Y-68497319D01*
X85464671Y-68649700D01*
X85502766Y-68725890D01*
X85998004Y-69449700D02*
X85578957Y-69449700D01*
X85502766Y-69411604D01*
X85464671Y-69335414D01*
X85464671Y-69183033D01*
X85502766Y-69106842D01*
X85959909Y-69449700D02*
X85998004Y-69373509D01*
X85998004Y-69183033D01*
X85959909Y-69106842D01*
X85883719Y-69068747D01*
X85807528Y-69068747D01*
X85731338Y-69106842D01*
X85693242Y-69183033D01*
X85693242Y-69373509D01*
X85655147Y-69449700D01*
X85198004Y-70325890D02*
X85998004Y-70592557D01*
X85198004Y-70859223D01*
X85198004Y-71278271D02*
X85198004Y-71354461D01*
X85236100Y-71430652D01*
X85274195Y-71468747D01*
X85350385Y-71506842D01*
X85502766Y-71544938D01*
X85693242Y-71544938D01*
X85845623Y-71506842D01*
X85921814Y-71468747D01*
X85959909Y-71430652D01*
X85998004Y-71354461D01*
X85998004Y-71278271D01*
X85959909Y-71202080D01*
X85921814Y-71163985D01*
X85845623Y-71125890D01*
X85693242Y-71087795D01*
X85502766Y-71087795D01*
X85350385Y-71125890D01*
X85274195Y-71163985D01*
X85236100Y-71202080D01*
X85198004Y-71278271D01*
X85921814Y-71887795D02*
X85959909Y-71925890D01*
X85998004Y-71887795D01*
X85959909Y-71849700D01*
X85921814Y-71887795D01*
X85998004Y-71887795D01*
X85998004Y-72687795D02*
X85998004Y-72230652D01*
X85998004Y-72459223D02*
X85198004Y-72459223D01*
X85312290Y-72383033D01*
X85388480Y-72306842D01*
X85426576Y-72230652D01*
D12*
X133500000Y-56500000D02*
X133500000Y-108000000D01*
X86000000Y-55000000D02*
X132000000Y-55000000D01*
X84493100Y-108500000D02*
X84500000Y-56500000D01*
X131500000Y-110000000D02*
X86000000Y-110006900D01*
D13*
G36*
X91866828Y-80407422D02*
G01*
X91766411Y-80439548D01*
X91705358Y-80472365D01*
X91647955Y-80520017D01*
X91592525Y-80585227D01*
X91544380Y-80660378D01*
X91508832Y-80737848D01*
X91499296Y-80767906D01*
X91483339Y-80873378D01*
X91490958Y-80978346D01*
X91520527Y-81079132D01*
X91570422Y-81172061D01*
X91639016Y-81253458D01*
X91724685Y-81319646D01*
X91749575Y-81333921D01*
X91790770Y-81354729D01*
X91825676Y-81367854D01*
X91863079Y-81375343D01*
X91911766Y-81379242D01*
X91950500Y-81380725D01*
X92025155Y-81380940D01*
X92081478Y-81375772D01*
X92126087Y-81364592D01*
X92128232Y-81363826D01*
X92216522Y-81319868D01*
X92299504Y-81256213D01*
X92371077Y-81178553D01*
X92425138Y-81092578D01*
X92429955Y-81082418D01*
X92458405Y-80994270D01*
X92469807Y-80897182D01*
X92463390Y-80801585D01*
X92453798Y-80759438D01*
X92425119Y-80687955D01*
X92382219Y-80614149D01*
X92330996Y-80546692D01*
X92277345Y-80494258D01*
X92269297Y-80488110D01*
X92178613Y-80436840D01*
X92077955Y-80406208D01*
X91972352Y-80396356D01*
X91866828Y-80407422D01*
G37*
X91866828Y-80407422D02*
X91766411Y-80439548D01*
X91705358Y-80472365D01*
X91647955Y-80520017D01*
X91592525Y-80585227D01*
X91544380Y-80660378D01*
X91508832Y-80737848D01*
X91499296Y-80767906D01*
X91483339Y-80873378D01*
X91490958Y-80978346D01*
X91520527Y-81079132D01*
X91570422Y-81172061D01*
X91639016Y-81253458D01*
X91724685Y-81319646D01*
X91749575Y-81333921D01*
X91790770Y-81354729D01*
X91825676Y-81367854D01*
X91863079Y-81375343D01*
X91911766Y-81379242D01*
X91950500Y-81380725D01*
X92025155Y-81380940D01*
X92081478Y-81375772D01*
X92126087Y-81364592D01*
X92128232Y-81363826D01*
X92216522Y-81319868D01*
X92299504Y-81256213D01*
X92371077Y-81178553D01*
X92425138Y-81092578D01*
X92429955Y-81082418D01*
X92458405Y-80994270D01*
X92469807Y-80897182D01*
X92463390Y-80801585D01*
X92453798Y-80759438D01*
X92425119Y-80687955D01*
X92382219Y-80614149D01*
X92330996Y-80546692D01*
X92277345Y-80494258D01*
X92269297Y-80488110D01*
X92178613Y-80436840D01*
X92077955Y-80406208D01*
X91972352Y-80396356D01*
X91866828Y-80407422D01*
G36*
X97228849Y-78583899D02*
G01*
X97050397Y-78608978D01*
X96875434Y-78657105D01*
X96706303Y-78728271D01*
X96564945Y-78809433D01*
X96412388Y-78923202D01*
X96278059Y-79052625D01*
X96163279Y-79195922D01*
X96069372Y-79351313D01*
X95997659Y-79517017D01*
X95967712Y-79613556D01*
X95955812Y-79659861D01*
X95947065Y-79700487D01*
X95940988Y-79740770D01*
X95937093Y-79786043D01*
X95934894Y-79841641D01*
X95933906Y-79912899D01*
X95933657Y-79987300D01*
X95933810Y-80075413D01*
X95934805Y-80143396D01*
X95937110Y-80196513D01*
X95941190Y-80240032D01*
X95947513Y-80279216D01*
X95956546Y-80319334D01*
X95966437Y-80357118D01*
X96024661Y-80525511D01*
X96105125Y-80686480D01*
X96205441Y-80837081D01*
X96323221Y-80974365D01*
X96456074Y-81095386D01*
X96601613Y-81197198D01*
X96684775Y-81243220D01*
X96835757Y-81307320D01*
X96998737Y-81354822D01*
X97167736Y-81384822D01*
X97336776Y-81396416D01*
X97499878Y-81388697D01*
X97574335Y-81377861D01*
X97756098Y-81332184D01*
X97930678Y-81262955D01*
X98095330Y-81171632D01*
X98247309Y-81059671D01*
X98346586Y-80967871D01*
X98410828Y-80896646D01*
X98476642Y-80813252D01*
X98539047Y-80724793D01*
X98593062Y-80638371D01*
X98633705Y-80561090D01*
X98637006Y-80553768D01*
X98694563Y-80394275D01*
X98731889Y-80224817D01*
X98749066Y-80049687D01*
X98748045Y-79987300D01*
X97785873Y-79987300D01*
X97784614Y-80045807D01*
X97779393Y-80089506D01*
X97768045Y-80128923D01*
X97748404Y-80174586D01*
X97746523Y-80178584D01*
X97687958Y-80274993D01*
X97611973Y-80356022D01*
X97522039Y-80418761D01*
X97421626Y-80460302D01*
X97405150Y-80464705D01*
X97345957Y-80477133D01*
X97296332Y-80480753D01*
X97243077Y-80475900D01*
X97207303Y-80469710D01*
X97106166Y-80437955D01*
X97015165Y-80384048D01*
X96936936Y-80310107D01*
X96874117Y-80218250D01*
X96860439Y-80191284D01*
X96841353Y-80148399D01*
X96829610Y-80112253D01*
X96823468Y-80073853D01*
X96821189Y-80024211D01*
X96820950Y-79987300D01*
X96821677Y-79928308D01*
X96825080Y-79885872D01*
X96832994Y-79851159D01*
X96847253Y-79815340D01*
X96863718Y-79781434D01*
X96917486Y-79695792D01*
X96985451Y-79621113D01*
X97062210Y-79562560D01*
X97125800Y-79530991D01*
X97168162Y-79516805D01*
X97207667Y-79508756D01*
X97253318Y-79505749D01*
X97314119Y-79506690D01*
X97323024Y-79507022D01*
X97387324Y-79510813D01*
X97435059Y-79517525D01*
X97475041Y-79528966D01*
X97515105Y-79546467D01*
X97592876Y-79597060D01*
X97664159Y-79667602D01*
X97723919Y-79752685D01*
X97745563Y-79793963D01*
X97766357Y-79841320D01*
X97778529Y-79880987D01*
X97784293Y-79923576D01*
X97785862Y-79979703D01*
X97785873Y-79987300D01*
X98748045Y-79987300D01*
X98746175Y-79873177D01*
X98723299Y-79699578D01*
X98680519Y-79533181D01*
X98617917Y-79378280D01*
X98614486Y-79371350D01*
X98522208Y-79215011D01*
X98407510Y-79070549D01*
X98270470Y-78938045D01*
X98111164Y-78817585D01*
X98091387Y-78804486D01*
X97930656Y-78714213D01*
X97761692Y-78647025D01*
X97586840Y-78602915D01*
X97408444Y-78581876D01*
X97228849Y-78583899D01*
G37*
X97228849Y-78583899D02*
X97050397Y-78608978D01*
X96875434Y-78657105D01*
X96706303Y-78728271D01*
X96564945Y-78809433D01*
X96412388Y-78923202D01*
X96278059Y-79052625D01*
X96163279Y-79195922D01*
X96069372Y-79351313D01*
X95997659Y-79517017D01*
X95967712Y-79613556D01*
X95955812Y-79659861D01*
X95947065Y-79700487D01*
X95940988Y-79740770D01*
X95937093Y-79786043D01*
X95934894Y-79841641D01*
X95933906Y-79912899D01*
X95933657Y-79987300D01*
X95933810Y-80075413D01*
X95934805Y-80143396D01*
X95937110Y-80196513D01*
X95941190Y-80240032D01*
X95947513Y-80279216D01*
X95956546Y-80319334D01*
X95966437Y-80357118D01*
X96024661Y-80525511D01*
X96105125Y-80686480D01*
X96205441Y-80837081D01*
X96323221Y-80974365D01*
X96456074Y-81095386D01*
X96601613Y-81197198D01*
X96684775Y-81243220D01*
X96835757Y-81307320D01*
X96998737Y-81354822D01*
X97167736Y-81384822D01*
X97336776Y-81396416D01*
X97499878Y-81388697D01*
X97574335Y-81377861D01*
X97756098Y-81332184D01*
X97930678Y-81262955D01*
X98095330Y-81171632D01*
X98247309Y-81059671D01*
X98346586Y-80967871D01*
X98410828Y-80896646D01*
X98476642Y-80813252D01*
X98539047Y-80724793D01*
X98593062Y-80638371D01*
X98633705Y-80561090D01*
X98637006Y-80553768D01*
X98694563Y-80394275D01*
X98731889Y-80224817D01*
X98749066Y-80049687D01*
X98748045Y-79987300D01*
X97785873Y-79987300D01*
X97784614Y-80045807D01*
X97779393Y-80089506D01*
X97768045Y-80128923D01*
X97748404Y-80174586D01*
X97746523Y-80178584D01*
X97687958Y-80274993D01*
X97611973Y-80356022D01*
X97522039Y-80418761D01*
X97421626Y-80460302D01*
X97405150Y-80464705D01*
X97345957Y-80477133D01*
X97296332Y-80480753D01*
X97243077Y-80475900D01*
X97207303Y-80469710D01*
X97106166Y-80437955D01*
X97015165Y-80384048D01*
X96936936Y-80310107D01*
X96874117Y-80218250D01*
X96860439Y-80191284D01*
X96841353Y-80148399D01*
X96829610Y-80112253D01*
X96823468Y-80073853D01*
X96821189Y-80024211D01*
X96820950Y-79987300D01*
X96821677Y-79928308D01*
X96825080Y-79885872D01*
X96832994Y-79851159D01*
X96847253Y-79815340D01*
X96863718Y-79781434D01*
X96917486Y-79695792D01*
X96985451Y-79621113D01*
X97062210Y-79562560D01*
X97125800Y-79530991D01*
X97168162Y-79516805D01*
X97207667Y-79508756D01*
X97253318Y-79505749D01*
X97314119Y-79506690D01*
X97323024Y-79507022D01*
X97387324Y-79510813D01*
X97435059Y-79517525D01*
X97475041Y-79528966D01*
X97515105Y-79546467D01*
X97592876Y-79597060D01*
X97664159Y-79667602D01*
X97723919Y-79752685D01*
X97745563Y-79793963D01*
X97766357Y-79841320D01*
X97778529Y-79880987D01*
X97784293Y-79923576D01*
X97785862Y-79979703D01*
X97785873Y-79987300D01*
X98748045Y-79987300D01*
X98746175Y-79873177D01*
X98723299Y-79699578D01*
X98680519Y-79533181D01*
X98617917Y-79378280D01*
X98614486Y-79371350D01*
X98522208Y-79215011D01*
X98407510Y-79070549D01*
X98270470Y-78938045D01*
X98111164Y-78817585D01*
X98091387Y-78804486D01*
X97930656Y-78714213D01*
X97761692Y-78647025D01*
X97586840Y-78602915D01*
X97408444Y-78581876D01*
X97228849Y-78583899D01*
G36*
X100248464Y-78591715D02*
G01*
X100075159Y-78623078D01*
X99910296Y-78674384D01*
X99799100Y-78723611D01*
X99681514Y-78791783D01*
X99561795Y-78876850D01*
X99448146Y-78972502D01*
X99355602Y-79064859D01*
X99244909Y-79204920D01*
X99155089Y-79358327D01*
X99086663Y-79523228D01*
X99040154Y-79697771D01*
X99016083Y-79880105D01*
X99014971Y-80068377D01*
X99030518Y-80219094D01*
X99069764Y-80396163D01*
X99131963Y-80565139D01*
X99215402Y-80723989D01*
X99318367Y-80870680D01*
X99439147Y-81003180D01*
X99576027Y-81119455D01*
X99727294Y-81217474D01*
X99891235Y-81295202D01*
X99957906Y-81319467D01*
X100125030Y-81364242D01*
X100298023Y-81389917D01*
X100470471Y-81395974D01*
X100635954Y-81381894D01*
X100667079Y-81376720D01*
X100847592Y-81331424D01*
X101019904Y-81263023D01*
X101181991Y-81173049D01*
X101331831Y-81063035D01*
X101467401Y-80934512D01*
X101586676Y-80789013D01*
X101687636Y-80628070D01*
X101708641Y-80587861D01*
X101769042Y-80441592D01*
X101811057Y-80282246D01*
X101834525Y-80114440D01*
X101837463Y-80008460D01*
X100876697Y-80008460D01*
X100860007Y-80110438D01*
X100819967Y-80209240D01*
X100756440Y-80302012D01*
X100745470Y-80314572D01*
X100687177Y-80367521D01*
X100615249Y-80415260D01*
X100539439Y-80452043D01*
X100481953Y-80469845D01*
X100403290Y-80477241D01*
X100315960Y-80470697D01*
X100231579Y-80451559D01*
X100190210Y-80435965D01*
X100122931Y-80395614D01*
X100055811Y-80337592D01*
X99995558Y-80268771D01*
X99948878Y-80196019D01*
X99941654Y-80181371D01*
X99924202Y-80139862D01*
X99913804Y-80101611D01*
X99908748Y-80057253D01*
X99907321Y-79997422D01*
X99907313Y-79993650D01*
X99908241Y-79934706D01*
X99912497Y-79891393D01*
X99922045Y-79853976D01*
X99938845Y-79812721D01*
X99947563Y-79793963D01*
X100000947Y-79703652D01*
X100068209Y-79625636D01*
X100144345Y-79565287D01*
X100178519Y-79546129D01*
X100212964Y-79530348D01*
X100243843Y-79520141D01*
X100278325Y-79514316D01*
X100323581Y-79511683D01*
X100386781Y-79511050D01*
X100389650Y-79511050D01*
X100475372Y-79513775D01*
X100543016Y-79523585D01*
X100599478Y-79542929D01*
X100651655Y-79574257D01*
X100706441Y-79620018D01*
X100712668Y-79625799D01*
X100788022Y-79711974D01*
X100840569Y-79806376D01*
X100870173Y-79906155D01*
X100876697Y-80008460D01*
X101837463Y-80008460D01*
X101839284Y-79942791D01*
X101825173Y-79771914D01*
X101792031Y-79606427D01*
X101747679Y-79470652D01*
X101673631Y-79316308D01*
X101577668Y-79170365D01*
X101462558Y-79035228D01*
X101331067Y-78913297D01*
X101185963Y-78806975D01*
X101030012Y-78718666D01*
X100865980Y-78650771D01*
X100770691Y-78622322D01*
X100601065Y-78590833D01*
X100425378Y-78580798D01*
X100248464Y-78591715D01*
G37*
X100248464Y-78591715D02*
X100075159Y-78623078D01*
X99910296Y-78674384D01*
X99799100Y-78723611D01*
X99681514Y-78791783D01*
X99561795Y-78876850D01*
X99448146Y-78972502D01*
X99355602Y-79064859D01*
X99244909Y-79204920D01*
X99155089Y-79358327D01*
X99086663Y-79523228D01*
X99040154Y-79697771D01*
X99016083Y-79880105D01*
X99014971Y-80068377D01*
X99030518Y-80219094D01*
X99069764Y-80396163D01*
X99131963Y-80565139D01*
X99215402Y-80723989D01*
X99318367Y-80870680D01*
X99439147Y-81003180D01*
X99576027Y-81119455D01*
X99727294Y-81217474D01*
X99891235Y-81295202D01*
X99957906Y-81319467D01*
X100125030Y-81364242D01*
X100298023Y-81389917D01*
X100470471Y-81395974D01*
X100635954Y-81381894D01*
X100667079Y-81376720D01*
X100847592Y-81331424D01*
X101019904Y-81263023D01*
X101181991Y-81173049D01*
X101331831Y-81063035D01*
X101467401Y-80934512D01*
X101586676Y-80789013D01*
X101687636Y-80628070D01*
X101708641Y-80587861D01*
X101769042Y-80441592D01*
X101811057Y-80282246D01*
X101834525Y-80114440D01*
X101837463Y-80008460D01*
X100876697Y-80008460D01*
X100860007Y-80110438D01*
X100819967Y-80209240D01*
X100756440Y-80302012D01*
X100745470Y-80314572D01*
X100687177Y-80367521D01*
X100615249Y-80415260D01*
X100539439Y-80452043D01*
X100481953Y-80469845D01*
X100403290Y-80477241D01*
X100315960Y-80470697D01*
X100231579Y-80451559D01*
X100190210Y-80435965D01*
X100122931Y-80395614D01*
X100055811Y-80337592D01*
X99995558Y-80268771D01*
X99948878Y-80196019D01*
X99941654Y-80181371D01*
X99924202Y-80139862D01*
X99913804Y-80101611D01*
X99908748Y-80057253D01*
X99907321Y-79997422D01*
X99907313Y-79993650D01*
X99908241Y-79934706D01*
X99912497Y-79891393D01*
X99922045Y-79853976D01*
X99938845Y-79812721D01*
X99947563Y-79793963D01*
X100000947Y-79703652D01*
X100068209Y-79625636D01*
X100144345Y-79565287D01*
X100178519Y-79546129D01*
X100212964Y-79530348D01*
X100243843Y-79520141D01*
X100278325Y-79514316D01*
X100323581Y-79511683D01*
X100386781Y-79511050D01*
X100389650Y-79511050D01*
X100475372Y-79513775D01*
X100543016Y-79523585D01*
X100599478Y-79542929D01*
X100651655Y-79574257D01*
X100706441Y-79620018D01*
X100712668Y-79625799D01*
X100788022Y-79711974D01*
X100840569Y-79806376D01*
X100870173Y-79906155D01*
X100876697Y-80008460D01*
X101837463Y-80008460D01*
X101839284Y-79942791D01*
X101825173Y-79771914D01*
X101792031Y-79606427D01*
X101747679Y-79470652D01*
X101673631Y-79316308D01*
X101577668Y-79170365D01*
X101462558Y-79035228D01*
X101331067Y-78913297D01*
X101185963Y-78806975D01*
X101030012Y-78718666D01*
X100865980Y-78650771D01*
X100770691Y-78622322D01*
X100601065Y-78590833D01*
X100425378Y-78580798D01*
X100248464Y-78591715D01*
G36*
X93221523Y-77269384D02*
G01*
X93128946Y-77283537D01*
X93057227Y-77304020D01*
X93002110Y-77333354D01*
X92959340Y-77374062D01*
X92924661Y-77428666D01*
X92913447Y-77451968D01*
X92883950Y-77517150D01*
X92883950Y-81149350D01*
X92919997Y-81222758D01*
X92946943Y-81270412D01*
X92976484Y-81303314D01*
X93017576Y-81331301D01*
X93020129Y-81332767D01*
X93086065Y-81361000D01*
X93170284Y-81382716D01*
X93266304Y-81397049D01*
X93367644Y-81403135D01*
X93467823Y-81400109D01*
X93500438Y-81396855D01*
X93555862Y-81386753D01*
X93611569Y-81371141D01*
X93643661Y-81358642D01*
X93695202Y-81326614D01*
X93742514Y-81283560D01*
X93779172Y-81236381D01*
X93798732Y-81192063D01*
X93806827Y-81155205D01*
X93887013Y-81219011D01*
X94002145Y-81295870D01*
X94127420Y-81350772D01*
X94264491Y-81384257D01*
X94415013Y-81396864D01*
X94433350Y-81397000D01*
X94596292Y-81384478D01*
X94755051Y-81347176D01*
X94908833Y-81285486D01*
X95056845Y-81199798D01*
X95198292Y-81090507D01*
X95332382Y-80958002D01*
X95340553Y-80948900D01*
X95462499Y-80794461D01*
X95560653Y-80631321D01*
X95635222Y-80459100D01*
X95671022Y-80342566D01*
X95687760Y-80258810D01*
X95699821Y-80158394D01*
X95706809Y-80049695D01*
X95707682Y-79987194D01*
X94738150Y-79987194D01*
X94737392Y-80046636D01*
X94733925Y-80089533D01*
X94725964Y-80124725D01*
X94711720Y-80161050D01*
X94696569Y-80192873D01*
X94640968Y-80280675D01*
X94568326Y-80356761D01*
X94483628Y-80417169D01*
X94391858Y-80457939D01*
X94349127Y-80468914D01*
X94281644Y-80478994D01*
X94223082Y-80478891D01*
X94158985Y-80468350D01*
X94145728Y-80465321D01*
X94045597Y-80429046D01*
X93956839Y-80370663D01*
X93880973Y-80291476D01*
X93819515Y-80192787D01*
X93813362Y-80180081D01*
X93792079Y-80131219D01*
X93780074Y-80090430D01*
X93774934Y-80046229D01*
X93774184Y-79993650D01*
X93784168Y-79888423D01*
X93813942Y-79794699D01*
X93865887Y-79705487D01*
X93877740Y-79689415D01*
X93947760Y-79611693D01*
X94024167Y-79556420D01*
X94110412Y-79522055D01*
X94209945Y-79507058D01*
X94286052Y-79507091D01*
X94397060Y-79523399D01*
X94494333Y-79560988D01*
X94578199Y-79620077D01*
X94648985Y-79700887D01*
X94697343Y-79783193D01*
X94716875Y-79825140D01*
X94728961Y-79860021D01*
X94735358Y-79896619D01*
X94737823Y-79943721D01*
X94738150Y-79987194D01*
X95707682Y-79987194D01*
X95708326Y-79941091D01*
X95703973Y-79840960D01*
X95697599Y-79782956D01*
X95659682Y-79605623D01*
X95598835Y-79437010D01*
X95514587Y-79276238D01*
X95406466Y-79122428D01*
X95274000Y-78974704D01*
X95251580Y-78952607D01*
X95119220Y-78835609D01*
X94987246Y-78742743D01*
X94853161Y-78672904D01*
X94714467Y-78624987D01*
X94568665Y-78597890D01*
X94432207Y-78590388D01*
X94293702Y-78597559D01*
X94172574Y-78620130D01*
X94065070Y-78659409D01*
X93967435Y-78716707D01*
X93891087Y-78778992D01*
X93817400Y-78847035D01*
X93817400Y-78192094D01*
X93817373Y-78046173D01*
X93817232Y-77923373D01*
X93816894Y-77821415D01*
X93816272Y-77738021D01*
X93815281Y-77670911D01*
X93813836Y-77617807D01*
X93811851Y-77576430D01*
X93809240Y-77544501D01*
X93805918Y-77519741D01*
X93801800Y-77499871D01*
X93796801Y-77482613D01*
X93790834Y-77465688D01*
X93790078Y-77463651D01*
X93767765Y-77415906D01*
X93739692Y-77371977D01*
X93721467Y-77350896D01*
X93670814Y-77317188D01*
X93599805Y-77290846D01*
X93512588Y-77272547D01*
X93413309Y-77262967D01*
X93306116Y-77262782D01*
X93221523Y-77269384D01*
G37*
X93221523Y-77269384D02*
X93128946Y-77283537D01*
X93057227Y-77304020D01*
X93002110Y-77333354D01*
X92959340Y-77374062D01*
X92924661Y-77428666D01*
X92913447Y-77451968D01*
X92883950Y-77517150D01*
X92883950Y-81149350D01*
X92919997Y-81222758D01*
X92946943Y-81270412D01*
X92976484Y-81303314D01*
X93017576Y-81331301D01*
X93020129Y-81332767D01*
X93086065Y-81361000D01*
X93170284Y-81382716D01*
X93266304Y-81397049D01*
X93367644Y-81403135D01*
X93467823Y-81400109D01*
X93500438Y-81396855D01*
X93555862Y-81386753D01*
X93611569Y-81371141D01*
X93643661Y-81358642D01*
X93695202Y-81326614D01*
X93742514Y-81283560D01*
X93779172Y-81236381D01*
X93798732Y-81192063D01*
X93806827Y-81155205D01*
X93887013Y-81219011D01*
X94002145Y-81295870D01*
X94127420Y-81350772D01*
X94264491Y-81384257D01*
X94415013Y-81396864D01*
X94433350Y-81397000D01*
X94596292Y-81384478D01*
X94755051Y-81347176D01*
X94908833Y-81285486D01*
X95056845Y-81199798D01*
X95198292Y-81090507D01*
X95332382Y-80958002D01*
X95340553Y-80948900D01*
X95462499Y-80794461D01*
X95560653Y-80631321D01*
X95635222Y-80459100D01*
X95671022Y-80342566D01*
X95687760Y-80258810D01*
X95699821Y-80158394D01*
X95706809Y-80049695D01*
X95707682Y-79987194D01*
X94738150Y-79987194D01*
X94737392Y-80046636D01*
X94733925Y-80089533D01*
X94725964Y-80124725D01*
X94711720Y-80161050D01*
X94696569Y-80192873D01*
X94640968Y-80280675D01*
X94568326Y-80356761D01*
X94483628Y-80417169D01*
X94391858Y-80457939D01*
X94349127Y-80468914D01*
X94281644Y-80478994D01*
X94223082Y-80478891D01*
X94158985Y-80468350D01*
X94145728Y-80465321D01*
X94045597Y-80429046D01*
X93956839Y-80370663D01*
X93880973Y-80291476D01*
X93819515Y-80192787D01*
X93813362Y-80180081D01*
X93792079Y-80131219D01*
X93780074Y-80090430D01*
X93774934Y-80046229D01*
X93774184Y-79993650D01*
X93784168Y-79888423D01*
X93813942Y-79794699D01*
X93865887Y-79705487D01*
X93877740Y-79689415D01*
X93947760Y-79611693D01*
X94024167Y-79556420D01*
X94110412Y-79522055D01*
X94209945Y-79507058D01*
X94286052Y-79507091D01*
X94397060Y-79523399D01*
X94494333Y-79560988D01*
X94578199Y-79620077D01*
X94648985Y-79700887D01*
X94697343Y-79783193D01*
X94716875Y-79825140D01*
X94728961Y-79860021D01*
X94735358Y-79896619D01*
X94737823Y-79943721D01*
X94738150Y-79987194D01*
X95707682Y-79987194D01*
X95708326Y-79941091D01*
X95703973Y-79840960D01*
X95697599Y-79782956D01*
X95659682Y-79605623D01*
X95598835Y-79437010D01*
X95514587Y-79276238D01*
X95406466Y-79122428D01*
X95274000Y-78974704D01*
X95251580Y-78952607D01*
X95119220Y-78835609D01*
X94987246Y-78742743D01*
X94853161Y-78672904D01*
X94714467Y-78624987D01*
X94568665Y-78597890D01*
X94432207Y-78590388D01*
X94293702Y-78597559D01*
X94172574Y-78620130D01*
X94065070Y-78659409D01*
X93967435Y-78716707D01*
X93891087Y-78778992D01*
X93817400Y-78847035D01*
X93817400Y-78192094D01*
X93817373Y-78046173D01*
X93817232Y-77923373D01*
X93816894Y-77821415D01*
X93816272Y-77738021D01*
X93815281Y-77670911D01*
X93813836Y-77617807D01*
X93811851Y-77576430D01*
X93809240Y-77544501D01*
X93805918Y-77519741D01*
X93801800Y-77499871D01*
X93796801Y-77482613D01*
X93790834Y-77465688D01*
X93790078Y-77463651D01*
X93767765Y-77415906D01*
X93739692Y-77371977D01*
X93721467Y-77350896D01*
X93670814Y-77317188D01*
X93599805Y-77290846D01*
X93512588Y-77272547D01*
X93413309Y-77262967D01*
X93306116Y-77262782D01*
X93221523Y-77269384D01*
G36*
X102471057Y-77259049D02*
G01*
X102396649Y-77261164D01*
X102342335Y-77263815D01*
X102302809Y-77267821D01*
X102272765Y-77274000D01*
X102246899Y-77283172D01*
X102219905Y-77296156D01*
X102215334Y-77298534D01*
X102162728Y-77333328D01*
X102122155Y-77374085D01*
X102116719Y-77381720D01*
X102086482Y-77444929D01*
X102064919Y-77526190D01*
X102052042Y-77619679D01*
X102047859Y-77719573D01*
X102052381Y-77820048D01*
X102065619Y-77915280D01*
X102087582Y-77999445D01*
X102115538Y-78062156D01*
X102159712Y-78114972D01*
X102213643Y-78151763D01*
X102243082Y-78166769D01*
X102270717Y-78177377D01*
X102302339Y-78184659D01*
X102343736Y-78189689D01*
X102400698Y-78193542D01*
X102452719Y-78196104D01*
X102541546Y-78201113D01*
X102608163Y-78208923D01*
X102655761Y-78222624D01*
X102687528Y-78245304D01*
X102706652Y-78280053D01*
X102716325Y-78329959D01*
X102719733Y-78398113D01*
X102720100Y-78455098D01*
X102720100Y-78619044D01*
X102666125Y-78611153D01*
X102601881Y-78603785D01*
X102526230Y-78598280D01*
X102445211Y-78594743D01*
X102364864Y-78593278D01*
X102291227Y-78593989D01*
X102230341Y-78596981D01*
X102188244Y-78602358D01*
X102186035Y-78602855D01*
X102092892Y-78633255D01*
X102021084Y-78676151D01*
X101969182Y-78732761D01*
X101935762Y-78804304D01*
X101931123Y-78820697D01*
X101921657Y-78874827D01*
X101915686Y-78945172D01*
X101913125Y-79025016D01*
X101913889Y-79107641D01*
X101917893Y-79186330D01*
X101925052Y-79254366D01*
X101935283Y-79305033D01*
X101937315Y-79311419D01*
X101964142Y-79374157D01*
X101998655Y-79424695D01*
X102043322Y-79463982D01*
X102100611Y-79492964D01*
X102172989Y-79512591D01*
X102262924Y-79523808D01*
X102372883Y-79527565D01*
X102494065Y-79525238D01*
X102718879Y-79516947D01*
X102722665Y-80326798D01*
X102726450Y-81136650D01*
X102755569Y-81208687D01*
X102794302Y-81278432D01*
X102846991Y-81336011D01*
X102908064Y-81375854D01*
X102931927Y-81385065D01*
X102960615Y-81390277D01*
X103008601Y-81395099D01*
X103070010Y-81399316D01*
X103138967Y-81402714D01*
X103209598Y-81405078D01*
X103276028Y-81406191D01*
X103332383Y-81405840D01*
X103372789Y-81403809D01*
X103386850Y-81401715D01*
X103470096Y-81376188D01*
X103533244Y-81344456D01*
X103581495Y-81302593D01*
X103620050Y-81246674D01*
X103637025Y-81212850D01*
X103666250Y-81149350D01*
X103673646Y-79520108D01*
X103815998Y-79515309D01*
X103909529Y-79508633D01*
X103982036Y-79494038D01*
X104037311Y-79469021D01*
X104079145Y-79431082D01*
X104111330Y-79377719D01*
X104137657Y-79306432D01*
X104138904Y-79302297D01*
X104149626Y-79249305D01*
X104156613Y-79179384D01*
X104159868Y-79099833D01*
X104159394Y-79017952D01*
X104155193Y-78941038D01*
X104147268Y-78876392D01*
X104138734Y-78839889D01*
X104100948Y-78755524D01*
X104048788Y-78689838D01*
X103999451Y-78653168D01*
X103970092Y-78638672D01*
X103938633Y-78629008D01*
X103898308Y-78622909D01*
X103842353Y-78619109D01*
X103810780Y-78617829D01*
X103675909Y-78613003D01*
X103669308Y-78382576D01*
X103666389Y-78295045D01*
X103662882Y-78227303D01*
X103658134Y-78173736D01*
X103651491Y-78128735D01*
X103642297Y-78086686D01*
X103629899Y-78041979D01*
X103629398Y-78040295D01*
X103572634Y-77888979D01*
X103496808Y-77748991D01*
X103404074Y-77622659D01*
X103296582Y-77512308D01*
X103176486Y-77420268D01*
X103045936Y-77348864D01*
X102959145Y-77315476D01*
X102862941Y-77288713D01*
X102763729Y-77270717D01*
X102655213Y-77260760D01*
X102531097Y-77258113D01*
X102471057Y-77259049D01*
G37*
X102471057Y-77259049D02*
X102396649Y-77261164D01*
X102342335Y-77263815D01*
X102302809Y-77267821D01*
X102272765Y-77274000D01*
X102246899Y-77283172D01*
X102219905Y-77296156D01*
X102215334Y-77298534D01*
X102162728Y-77333328D01*
X102122155Y-77374085D01*
X102116719Y-77381720D01*
X102086482Y-77444929D01*
X102064919Y-77526190D01*
X102052042Y-77619679D01*
X102047859Y-77719573D01*
X102052381Y-77820048D01*
X102065619Y-77915280D01*
X102087582Y-77999445D01*
X102115538Y-78062156D01*
X102159712Y-78114972D01*
X102213643Y-78151763D01*
X102243082Y-78166769D01*
X102270717Y-78177377D01*
X102302339Y-78184659D01*
X102343736Y-78189689D01*
X102400698Y-78193542D01*
X102452719Y-78196104D01*
X102541546Y-78201113D01*
X102608163Y-78208923D01*
X102655761Y-78222624D01*
X102687528Y-78245304D01*
X102706652Y-78280053D01*
X102716325Y-78329959D01*
X102719733Y-78398113D01*
X102720100Y-78455098D01*
X102720100Y-78619044D01*
X102666125Y-78611153D01*
X102601881Y-78603785D01*
X102526230Y-78598280D01*
X102445211Y-78594743D01*
X102364864Y-78593278D01*
X102291227Y-78593989D01*
X102230341Y-78596981D01*
X102188244Y-78602358D01*
X102186035Y-78602855D01*
X102092892Y-78633255D01*
X102021084Y-78676151D01*
X101969182Y-78732761D01*
X101935762Y-78804304D01*
X101931123Y-78820697D01*
X101921657Y-78874827D01*
X101915686Y-78945172D01*
X101913125Y-79025016D01*
X101913889Y-79107641D01*
X101917893Y-79186330D01*
X101925052Y-79254366D01*
X101935283Y-79305033D01*
X101937315Y-79311419D01*
X101964142Y-79374157D01*
X101998655Y-79424695D01*
X102043322Y-79463982D01*
X102100611Y-79492964D01*
X102172989Y-79512591D01*
X102262924Y-79523808D01*
X102372883Y-79527565D01*
X102494065Y-79525238D01*
X102718879Y-79516947D01*
X102722665Y-80326798D01*
X102726450Y-81136650D01*
X102755569Y-81208687D01*
X102794302Y-81278432D01*
X102846991Y-81336011D01*
X102908064Y-81375854D01*
X102931927Y-81385065D01*
X102960615Y-81390277D01*
X103008601Y-81395099D01*
X103070010Y-81399316D01*
X103138967Y-81402714D01*
X103209598Y-81405078D01*
X103276028Y-81406191D01*
X103332383Y-81405840D01*
X103372789Y-81403809D01*
X103386850Y-81401715D01*
X103470096Y-81376188D01*
X103533244Y-81344456D01*
X103581495Y-81302593D01*
X103620050Y-81246674D01*
X103637025Y-81212850D01*
X103666250Y-81149350D01*
X103673646Y-79520108D01*
X103815998Y-79515309D01*
X103909529Y-79508633D01*
X103982036Y-79494038D01*
X104037311Y-79469021D01*
X104079145Y-79431082D01*
X104111330Y-79377719D01*
X104137657Y-79306432D01*
X104138904Y-79302297D01*
X104149626Y-79249305D01*
X104156613Y-79179384D01*
X104159868Y-79099833D01*
X104159394Y-79017952D01*
X104155193Y-78941038D01*
X104147268Y-78876392D01*
X104138734Y-78839889D01*
X104100948Y-78755524D01*
X104048788Y-78689838D01*
X103999451Y-78653168D01*
X103970092Y-78638672D01*
X103938633Y-78629008D01*
X103898308Y-78622909D01*
X103842353Y-78619109D01*
X103810780Y-78617829D01*
X103675909Y-78613003D01*
X103669308Y-78382576D01*
X103666389Y-78295045D01*
X103662882Y-78227303D01*
X103658134Y-78173736D01*
X103651491Y-78128735D01*
X103642297Y-78086686D01*
X103629899Y-78041979D01*
X103629398Y-78040295D01*
X103572634Y-77888979D01*
X103496808Y-77748991D01*
X103404074Y-77622659D01*
X103296582Y-77512308D01*
X103176486Y-77420268D01*
X103045936Y-77348864D01*
X102959145Y-77315476D01*
X102862941Y-77288713D01*
X102763729Y-77270717D01*
X102655213Y-77260760D01*
X102531097Y-77258113D01*
X102471057Y-77259049D01*
G36*
X106675071Y-77269461D02*
G01*
X106581127Y-77282835D01*
X106505886Y-77306350D01*
X106446613Y-77341172D01*
X106400574Y-77388469D01*
X106366641Y-77445941D01*
X106333250Y-77517150D01*
X106329655Y-78209300D01*
X106326059Y-78901450D01*
X106244739Y-78823486D01*
X106130602Y-78729045D01*
X106009166Y-78658072D01*
X105933200Y-78626634D01*
X105893668Y-78613883D01*
X105855610Y-78605391D01*
X105812255Y-78600360D01*
X105756830Y-78597993D01*
X105685550Y-78597489D01*
X105614883Y-78598923D01*
X105545547Y-78602633D01*
X105485647Y-78608051D01*
X105444250Y-78614397D01*
X105290721Y-78660672D01*
X105144093Y-78729799D01*
X105006410Y-78819696D01*
X104879714Y-78928283D01*
X104766049Y-79053480D01*
X104667458Y-79193207D01*
X104585984Y-79345383D01*
X104523670Y-79507928D01*
X104506051Y-79569622D01*
X104492307Y-79627311D01*
X104480776Y-79687426D01*
X104471288Y-79752653D01*
X104463674Y-79825678D01*
X104457764Y-79909189D01*
X104453391Y-80005870D01*
X104450383Y-80118409D01*
X104448573Y-80249491D01*
X104447790Y-80401802D01*
X104447736Y-80495300D01*
X104448110Y-80646764D01*
X104449110Y-80775117D01*
X104450887Y-80882641D01*
X104453593Y-80971621D01*
X104457378Y-81044341D01*
X104462393Y-81103083D01*
X104468790Y-81150133D01*
X104476719Y-81187773D01*
X104486331Y-81218287D01*
X104497166Y-81242768D01*
X104530685Y-81295462D01*
X104573020Y-81336211D01*
X104627222Y-81366178D01*
X104696342Y-81386529D01*
X104783431Y-81398430D01*
X104891539Y-81403046D01*
X104917200Y-81403199D01*
X105032455Y-81400220D01*
X105125992Y-81390229D01*
X105200833Y-81371957D01*
X105260002Y-81344135D01*
X105306524Y-81305496D01*
X105343422Y-81254769D01*
X105363049Y-81216117D01*
X105369717Y-81200904D01*
X105375336Y-81185996D01*
X105380020Y-81169139D01*
X105383884Y-81148082D01*
X105387041Y-81120571D01*
X105389606Y-81084356D01*
X105391692Y-81037182D01*
X105393414Y-80976798D01*
X105394887Y-80900951D01*
X105396223Y-80807390D01*
X105397538Y-80693861D01*
X105398946Y-80558112D01*
X105399578Y-80495300D01*
X105401061Y-80349698D01*
X105402410Y-80227251D01*
X105403736Y-80125715D01*
X105405153Y-80042844D01*
X105406771Y-79976395D01*
X105408702Y-79924124D01*
X105411058Y-79883786D01*
X105413951Y-79853136D01*
X105417493Y-79829931D01*
X105421795Y-79811926D01*
X105426969Y-79796878D01*
X105433127Y-79782541D01*
X105435317Y-79777750D01*
X105476724Y-79709633D01*
X105533750Y-79645565D01*
X105598741Y-79593192D01*
X105646284Y-79566968D01*
X105742044Y-79538726D01*
X105844193Y-79532024D01*
X105947818Y-79545655D01*
X106048005Y-79578414D01*
X106139839Y-79629095D01*
X106218407Y-79696490D01*
X106230918Y-79710486D01*
X106250209Y-79732799D01*
X106266513Y-79752466D01*
X106280100Y-79771739D01*
X106291242Y-79792872D01*
X106300210Y-79818120D01*
X106307275Y-79849737D01*
X106312708Y-79889975D01*
X106316781Y-79941090D01*
X106319765Y-80005334D01*
X106321932Y-80084963D01*
X106323552Y-80182229D01*
X106324897Y-80299387D01*
X106326238Y-80438691D01*
X106326900Y-80508000D01*
X106333250Y-81162050D01*
X106369394Y-81235701D01*
X106406066Y-81295286D01*
X106451931Y-81338611D01*
X106512299Y-81369436D01*
X106588162Y-81390619D01*
X106663594Y-81401637D01*
X106753253Y-81407129D01*
X106847330Y-81407093D01*
X106936011Y-81401525D01*
X107008020Y-81390745D01*
X107088174Y-81368456D01*
X107147914Y-81339018D01*
X107192011Y-81298579D01*
X107225238Y-81243287D01*
X107241682Y-81202115D01*
X107245179Y-81191750D01*
X107248335Y-81180698D01*
X107251166Y-81167685D01*
X107253686Y-81151434D01*
X107255910Y-81130673D01*
X107257854Y-81104126D01*
X107259531Y-81070518D01*
X107260958Y-81028575D01*
X107262148Y-80977023D01*
X107263116Y-80914586D01*
X107263878Y-80839990D01*
X107264447Y-80751960D01*
X107264840Y-80649222D01*
X107265071Y-80530502D01*
X107265154Y-80394523D01*
X107265105Y-80240013D01*
X107264938Y-80065695D01*
X107264668Y-79870297D01*
X107264310Y-79652542D01*
X107263879Y-79411156D01*
X107263695Y-79310859D01*
X107260350Y-77491750D01*
X107225507Y-77425658D01*
X107188054Y-77371404D01*
X107138036Y-77329345D01*
X107073044Y-77298591D01*
X106990670Y-77278254D01*
X106888507Y-77267445D01*
X106790450Y-77265061D01*
X106675071Y-77269461D01*
G37*
X106675071Y-77269461D02*
X106581127Y-77282835D01*
X106505886Y-77306350D01*
X106446613Y-77341172D01*
X106400574Y-77388469D01*
X106366641Y-77445941D01*
X106333250Y-77517150D01*
X106329655Y-78209300D01*
X106326059Y-78901450D01*
X106244739Y-78823486D01*
X106130602Y-78729045D01*
X106009166Y-78658072D01*
X105933200Y-78626634D01*
X105893668Y-78613883D01*
X105855610Y-78605391D01*
X105812255Y-78600360D01*
X105756830Y-78597993D01*
X105685550Y-78597489D01*
X105614883Y-78598923D01*
X105545547Y-78602633D01*
X105485647Y-78608051D01*
X105444250Y-78614397D01*
X105290721Y-78660672D01*
X105144093Y-78729799D01*
X105006410Y-78819696D01*
X104879714Y-78928283D01*
X104766049Y-79053480D01*
X104667458Y-79193207D01*
X104585984Y-79345383D01*
X104523670Y-79507928D01*
X104506051Y-79569622D01*
X104492307Y-79627311D01*
X104480776Y-79687426D01*
X104471288Y-79752653D01*
X104463674Y-79825678D01*
X104457764Y-79909189D01*
X104453391Y-80005870D01*
X104450383Y-80118409D01*
X104448573Y-80249491D01*
X104447790Y-80401802D01*
X104447736Y-80495300D01*
X104448110Y-80646764D01*
X104449110Y-80775117D01*
X104450887Y-80882641D01*
X104453593Y-80971621D01*
X104457378Y-81044341D01*
X104462393Y-81103083D01*
X104468790Y-81150133D01*
X104476719Y-81187773D01*
X104486331Y-81218287D01*
X104497166Y-81242768D01*
X104530685Y-81295462D01*
X104573020Y-81336211D01*
X104627222Y-81366178D01*
X104696342Y-81386529D01*
X104783431Y-81398430D01*
X104891539Y-81403046D01*
X104917200Y-81403199D01*
X105032455Y-81400220D01*
X105125992Y-81390229D01*
X105200833Y-81371957D01*
X105260002Y-81344135D01*
X105306524Y-81305496D01*
X105343422Y-81254769D01*
X105363049Y-81216117D01*
X105369717Y-81200904D01*
X105375336Y-81185996D01*
X105380020Y-81169139D01*
X105383884Y-81148082D01*
X105387041Y-81120571D01*
X105389606Y-81084356D01*
X105391692Y-81037182D01*
X105393414Y-80976798D01*
X105394887Y-80900951D01*
X105396223Y-80807390D01*
X105397538Y-80693861D01*
X105398946Y-80558112D01*
X105399578Y-80495300D01*
X105401061Y-80349698D01*
X105402410Y-80227251D01*
X105403736Y-80125715D01*
X105405153Y-80042844D01*
X105406771Y-79976395D01*
X105408702Y-79924124D01*
X105411058Y-79883786D01*
X105413951Y-79853136D01*
X105417493Y-79829931D01*
X105421795Y-79811926D01*
X105426969Y-79796878D01*
X105433127Y-79782541D01*
X105435317Y-79777750D01*
X105476724Y-79709633D01*
X105533750Y-79645565D01*
X105598741Y-79593192D01*
X105646284Y-79566968D01*
X105742044Y-79538726D01*
X105844193Y-79532024D01*
X105947818Y-79545655D01*
X106048005Y-79578414D01*
X106139839Y-79629095D01*
X106218407Y-79696490D01*
X106230918Y-79710486D01*
X106250209Y-79732799D01*
X106266513Y-79752466D01*
X106280100Y-79771739D01*
X106291242Y-79792872D01*
X106300210Y-79818120D01*
X106307275Y-79849737D01*
X106312708Y-79889975D01*
X106316781Y-79941090D01*
X106319765Y-80005334D01*
X106321932Y-80084963D01*
X106323552Y-80182229D01*
X106324897Y-80299387D01*
X106326238Y-80438691D01*
X106326900Y-80508000D01*
X106333250Y-81162050D01*
X106369394Y-81235701D01*
X106406066Y-81295286D01*
X106451931Y-81338611D01*
X106512299Y-81369436D01*
X106588162Y-81390619D01*
X106663594Y-81401637D01*
X106753253Y-81407129D01*
X106847330Y-81407093D01*
X106936011Y-81401525D01*
X107008020Y-81390745D01*
X107088174Y-81368456D01*
X107147914Y-81339018D01*
X107192011Y-81298579D01*
X107225238Y-81243287D01*
X107241682Y-81202115D01*
X107245179Y-81191750D01*
X107248335Y-81180698D01*
X107251166Y-81167685D01*
X107253686Y-81151434D01*
X107255910Y-81130673D01*
X107257854Y-81104126D01*
X107259531Y-81070518D01*
X107260958Y-81028575D01*
X107262148Y-80977023D01*
X107263116Y-80914586D01*
X107263878Y-80839990D01*
X107264447Y-80751960D01*
X107264840Y-80649222D01*
X107265071Y-80530502D01*
X107265154Y-80394523D01*
X107265105Y-80240013D01*
X107264938Y-80065695D01*
X107264668Y-79870297D01*
X107264310Y-79652542D01*
X107263879Y-79411156D01*
X107263695Y-79310859D01*
X107260350Y-77491750D01*
X107225507Y-77425658D01*
X107188054Y-77371404D01*
X107138036Y-77329345D01*
X107073044Y-77298591D01*
X106990670Y-77278254D01*
X106888507Y-77267445D01*
X106790450Y-77265061D01*
X106675071Y-77269461D01*
G36*
X114330428Y-77620702D02*
G01*
X114229369Y-77639772D01*
X114143303Y-77671067D01*
X114075147Y-77713840D01*
X114033514Y-77758609D01*
X114016582Y-77787155D01*
X114002964Y-77820643D01*
X113992332Y-77861970D01*
X113984355Y-77914033D01*
X113978703Y-77979727D01*
X113975046Y-78061949D01*
X113973055Y-78163596D01*
X113972400Y-78287564D01*
X113972396Y-78295266D01*
X113972300Y-78616183D01*
X113937375Y-78607299D01*
X113914032Y-78604480D01*
X113869897Y-78601936D01*
X113809579Y-78599827D01*
X113737686Y-78598311D01*
X113658826Y-78597547D01*
X113654800Y-78597532D01*
X113568577Y-78597398D01*
X113503498Y-78597956D01*
X113455309Y-78599591D01*
X113419757Y-78602693D01*
X113392589Y-78607647D01*
X113369549Y-78614841D01*
X113346385Y-78624662D01*
X113343809Y-78625845D01*
X113285430Y-78657102D01*
X113244414Y-78691782D01*
X113213074Y-78737519D01*
X113196124Y-78772524D01*
X113184214Y-78802770D01*
X113175684Y-78834535D01*
X113169785Y-78873315D01*
X113165769Y-78924607D01*
X113162886Y-78993907D01*
X113162020Y-79022958D01*
X113161684Y-79142546D01*
X113168677Y-79240328D01*
X113183970Y-79319093D01*
X113208535Y-79381627D01*
X113243344Y-79430718D01*
X113289370Y-79469151D01*
X113324600Y-79489166D01*
X113394450Y-79523750D01*
X113683988Y-79522184D01*
X113973526Y-79520619D01*
X113969738Y-79953984D01*
X113968583Y-80086765D01*
X113966897Y-80196427D01*
X113963547Y-80285246D01*
X113957402Y-80355495D01*
X113947327Y-80409450D01*
X113932189Y-80449384D01*
X113910857Y-80477573D01*
X113882197Y-80496291D01*
X113845075Y-80507813D01*
X113798359Y-80514413D01*
X113740917Y-80518365D01*
X113687249Y-80521109D01*
X113616371Y-80525251D01*
X113564916Y-80529829D01*
X113526916Y-80535987D01*
X113496404Y-80544871D01*
X113467411Y-80557624D01*
X113450189Y-80566575D01*
X113407298Y-80592809D01*
X113377774Y-80621510D01*
X113352386Y-80662321D01*
X113345305Y-80676144D01*
X113319995Y-80747236D01*
X113304523Y-80834754D01*
X113298721Y-80931779D01*
X113302422Y-81031391D01*
X113315459Y-81126669D01*
X113337663Y-81210695D01*
X113359462Y-81260764D01*
X113395137Y-81311395D01*
X113442129Y-81350336D01*
X113503115Y-81378521D01*
X113580772Y-81396884D01*
X113677776Y-81406362D01*
X113781294Y-81408093D01*
X113852882Y-81406497D01*
X113925087Y-81403398D01*
X113988782Y-81399267D01*
X114029450Y-81395293D01*
X114207259Y-81361468D01*
X114372048Y-81306270D01*
X114441343Y-81274826D01*
X114559685Y-81204397D01*
X114659977Y-81118234D01*
X114742775Y-81015454D01*
X114808632Y-80895173D01*
X114858104Y-80756509D01*
X114891747Y-80598577D01*
X114898943Y-80546433D01*
X114902031Y-80508287D01*
X114904862Y-80448518D01*
X114907347Y-80370901D01*
X114909400Y-80279211D01*
X114910932Y-80177223D01*
X114911857Y-80068714D01*
X114912100Y-79978639D01*
X114912100Y-79518462D01*
X115036713Y-79526054D01*
X115118320Y-79528425D01*
X115181142Y-79523364D01*
X115231035Y-79509603D01*
X115273856Y-79485871D01*
X115293980Y-79470261D01*
X115342259Y-79413293D01*
X115377249Y-79335071D01*
X115398869Y-79236034D01*
X115407040Y-79116621D01*
X115401684Y-78977273D01*
X115395036Y-78909884D01*
X115376037Y-78806001D01*
X115344715Y-78723963D01*
X115299870Y-78662780D01*
X115240299Y-78621461D01*
X115164803Y-78599016D01*
X115072179Y-78594455D01*
X115017696Y-78598725D01*
X114913741Y-78610489D01*
X114909746Y-78228919D01*
X114905750Y-77847350D01*
X114867650Y-77777500D01*
X114830328Y-77724189D01*
X114781668Y-77683510D01*
X114718040Y-77653594D01*
X114635817Y-77632576D01*
X114565849Y-77622226D01*
X114443561Y-77614604D01*
X114330428Y-77620702D01*
G37*
X114330428Y-77620702D02*
X114229369Y-77639772D01*
X114143303Y-77671067D01*
X114075147Y-77713840D01*
X114033514Y-77758609D01*
X114016582Y-77787155D01*
X114002964Y-77820643D01*
X113992332Y-77861970D01*
X113984355Y-77914033D01*
X113978703Y-77979727D01*
X113975046Y-78061949D01*
X113973055Y-78163596D01*
X113972400Y-78287564D01*
X113972396Y-78295266D01*
X113972300Y-78616183D01*
X113937375Y-78607299D01*
X113914032Y-78604480D01*
X113869897Y-78601936D01*
X113809579Y-78599827D01*
X113737686Y-78598311D01*
X113658826Y-78597547D01*
X113654800Y-78597532D01*
X113568577Y-78597398D01*
X113503498Y-78597956D01*
X113455309Y-78599591D01*
X113419757Y-78602693D01*
X113392589Y-78607647D01*
X113369549Y-78614841D01*
X113346385Y-78624662D01*
X113343809Y-78625845D01*
X113285430Y-78657102D01*
X113244414Y-78691782D01*
X113213074Y-78737519D01*
X113196124Y-78772524D01*
X113184214Y-78802770D01*
X113175684Y-78834535D01*
X113169785Y-78873315D01*
X113165769Y-78924607D01*
X113162886Y-78993907D01*
X113162020Y-79022958D01*
X113161684Y-79142546D01*
X113168677Y-79240328D01*
X113183970Y-79319093D01*
X113208535Y-79381627D01*
X113243344Y-79430718D01*
X113289370Y-79469151D01*
X113324600Y-79489166D01*
X113394450Y-79523750D01*
X113683988Y-79522184D01*
X113973526Y-79520619D01*
X113969738Y-79953984D01*
X113968583Y-80086765D01*
X113966897Y-80196427D01*
X113963547Y-80285246D01*
X113957402Y-80355495D01*
X113947327Y-80409450D01*
X113932189Y-80449384D01*
X113910857Y-80477573D01*
X113882197Y-80496291D01*
X113845075Y-80507813D01*
X113798359Y-80514413D01*
X113740917Y-80518365D01*
X113687249Y-80521109D01*
X113616371Y-80525251D01*
X113564916Y-80529829D01*
X113526916Y-80535987D01*
X113496404Y-80544871D01*
X113467411Y-80557624D01*
X113450189Y-80566575D01*
X113407298Y-80592809D01*
X113377774Y-80621510D01*
X113352386Y-80662321D01*
X113345305Y-80676144D01*
X113319995Y-80747236D01*
X113304523Y-80834754D01*
X113298721Y-80931779D01*
X113302422Y-81031391D01*
X113315459Y-81126669D01*
X113337663Y-81210695D01*
X113359462Y-81260764D01*
X113395137Y-81311395D01*
X113442129Y-81350336D01*
X113503115Y-81378521D01*
X113580772Y-81396884D01*
X113677776Y-81406362D01*
X113781294Y-81408093D01*
X113852882Y-81406497D01*
X113925087Y-81403398D01*
X113988782Y-81399267D01*
X114029450Y-81395293D01*
X114207259Y-81361468D01*
X114372048Y-81306270D01*
X114441343Y-81274826D01*
X114559685Y-81204397D01*
X114659977Y-81118234D01*
X114742775Y-81015454D01*
X114808632Y-80895173D01*
X114858104Y-80756509D01*
X114891747Y-80598577D01*
X114898943Y-80546433D01*
X114902031Y-80508287D01*
X114904862Y-80448518D01*
X114907347Y-80370901D01*
X114909400Y-80279211D01*
X114910932Y-80177223D01*
X114911857Y-80068714D01*
X114912100Y-79978639D01*
X114912100Y-79518462D01*
X115036713Y-79526054D01*
X115118320Y-79528425D01*
X115181142Y-79523364D01*
X115231035Y-79509603D01*
X115273856Y-79485871D01*
X115293980Y-79470261D01*
X115342259Y-79413293D01*
X115377249Y-79335071D01*
X115398869Y-79236034D01*
X115407040Y-79116621D01*
X115401684Y-78977273D01*
X115395036Y-78909884D01*
X115376037Y-78806001D01*
X115344715Y-78723963D01*
X115299870Y-78662780D01*
X115240299Y-78621461D01*
X115164803Y-78599016D01*
X115072179Y-78594455D01*
X115017696Y-78598725D01*
X114913741Y-78610489D01*
X114909746Y-78228919D01*
X114905750Y-77847350D01*
X114867650Y-77777500D01*
X114830328Y-77724189D01*
X114781668Y-77683510D01*
X114718040Y-77653594D01*
X114635817Y-77632576D01*
X114565849Y-77622226D01*
X114443561Y-77614604D01*
X114330428Y-77620702D01*
G36*
X111471433Y-78585040D02*
G01*
X111425134Y-78589752D01*
X111244497Y-78622935D01*
X111080673Y-78675037D01*
X110933231Y-78746325D01*
X110801741Y-78837069D01*
X110685772Y-78947535D01*
X110584894Y-79077993D01*
X110548668Y-79135841D01*
X110487817Y-79258541D01*
X110443190Y-79390155D01*
X110415165Y-79526243D01*
X110404118Y-79662366D01*
X110410428Y-79794087D01*
X110434471Y-79916967D01*
X110473466Y-80020218D01*
X110513947Y-80083107D01*
X110571469Y-80146449D01*
X110638757Y-80203360D01*
X110708536Y-80246955D01*
X110717892Y-80251512D01*
X110790950Y-80285750D01*
X111460875Y-80289352D01*
X111611605Y-80290073D01*
X111738789Y-80290674D01*
X111844280Y-80291443D01*
X111929930Y-80292667D01*
X111997591Y-80294634D01*
X112049113Y-80297633D01*
X112086350Y-80301951D01*
X112111153Y-80307875D01*
X112125373Y-80315695D01*
X112130863Y-80325698D01*
X112129474Y-80338171D01*
X112123058Y-80353402D01*
X112113467Y-80371680D01*
X112104411Y-80389393D01*
X112075394Y-80436925D01*
X112035579Y-80478020D01*
X111980079Y-80516892D01*
X111916121Y-80551736D01*
X111855368Y-80579778D01*
X111798075Y-80599788D01*
X111738369Y-80612715D01*
X111670376Y-80619509D01*
X111588223Y-80621120D01*
X111500130Y-80619026D01*
X111413448Y-80614767D01*
X111340534Y-80607897D01*
X111274050Y-80596887D01*
X111206661Y-80580207D01*
X111131028Y-80556328D01*
X111039816Y-80523720D01*
X111035743Y-80522213D01*
X110969427Y-80504141D01*
X110900642Y-80496257D01*
X110837664Y-80498857D01*
X110788770Y-80512234D01*
X110786486Y-80513374D01*
X110740509Y-80546687D01*
X110691408Y-80598488D01*
X110643819Y-80663081D01*
X110602378Y-80734768D01*
X110596426Y-80746940D01*
X110560867Y-80841941D01*
X110543833Y-80935856D01*
X110545860Y-81023485D01*
X110561428Y-81085201D01*
X110603159Y-81158956D01*
X110668614Y-81224082D01*
X110757587Y-81280463D01*
X110869871Y-81327986D01*
X111005260Y-81366535D01*
X111101141Y-81385953D01*
X111181496Y-81397187D01*
X111278941Y-81406210D01*
X111387801Y-81412904D01*
X111502398Y-81417150D01*
X111617053Y-81418831D01*
X111726090Y-81417828D01*
X111823831Y-81414023D01*
X111904598Y-81407298D01*
X111933950Y-81403278D01*
X112124094Y-81361600D01*
X112299022Y-81300502D01*
X112458106Y-81220359D01*
X112600719Y-81121549D01*
X112726233Y-81004447D01*
X112834021Y-80869429D01*
X112840705Y-80859587D01*
X112942297Y-80686508D01*
X113019683Y-80506047D01*
X113072703Y-80319001D01*
X113101197Y-80126169D01*
X113105004Y-79928348D01*
X113092867Y-79811805D01*
X112143500Y-79811805D01*
X112131449Y-79815100D01*
X112097874Y-79817737D01*
X112046641Y-79819731D01*
X111981617Y-79821096D01*
X111906668Y-79821847D01*
X111825662Y-79821998D01*
X111742465Y-79821565D01*
X111660944Y-79820562D01*
X111584965Y-79819003D01*
X111518395Y-79816903D01*
X111465102Y-79814277D01*
X111428951Y-79811139D01*
X111417242Y-79809057D01*
X111362285Y-79781782D01*
X111324340Y-79737281D01*
X111306359Y-79679486D01*
X111305300Y-79660135D01*
X111316321Y-79582457D01*
X111348438Y-79517527D01*
X111400236Y-79466330D01*
X111470299Y-79429852D01*
X111557211Y-79409079D01*
X111659556Y-79404995D01*
X111670991Y-79405566D01*
X111728603Y-79410833D01*
X111774875Y-79421118D01*
X111821832Y-79439838D01*
X111861120Y-79459564D01*
X111938244Y-79508070D01*
X112008363Y-79567183D01*
X112066706Y-79631892D01*
X112108499Y-79697185D01*
X112123932Y-79735515D01*
X112134879Y-79774169D01*
X112141981Y-79802683D01*
X112143500Y-79811805D01*
X113092867Y-79811805D01*
X113083966Y-79726337D01*
X113076328Y-79683199D01*
X113030327Y-79506144D01*
X112962348Y-79340657D01*
X112873606Y-79187949D01*
X112765316Y-79049229D01*
X112638691Y-78925709D01*
X112494947Y-78818597D01*
X112335297Y-78729104D01*
X112160956Y-78658441D01*
X112003800Y-78614464D01*
X111912917Y-78598573D01*
X111805616Y-78587316D01*
X111690520Y-78581063D01*
X111576252Y-78580181D01*
X111471433Y-78585040D01*
G37*
X111471433Y-78585040D02*
X111425134Y-78589752D01*
X111244497Y-78622935D01*
X111080673Y-78675037D01*
X110933231Y-78746325D01*
X110801741Y-78837069D01*
X110685772Y-78947535D01*
X110584894Y-79077993D01*
X110548668Y-79135841D01*
X110487817Y-79258541D01*
X110443190Y-79390155D01*
X110415165Y-79526243D01*
X110404118Y-79662366D01*
X110410428Y-79794087D01*
X110434471Y-79916967D01*
X110473466Y-80020218D01*
X110513947Y-80083107D01*
X110571469Y-80146449D01*
X110638757Y-80203360D01*
X110708536Y-80246955D01*
X110717892Y-80251512D01*
X110790950Y-80285750D01*
X111460875Y-80289352D01*
X111611605Y-80290073D01*
X111738789Y-80290674D01*
X111844280Y-80291443D01*
X111929930Y-80292667D01*
X111997591Y-80294634D01*
X112049113Y-80297633D01*
X112086350Y-80301951D01*
X112111153Y-80307875D01*
X112125373Y-80315695D01*
X112130863Y-80325698D01*
X112129474Y-80338171D01*
X112123058Y-80353402D01*
X112113467Y-80371680D01*
X112104411Y-80389393D01*
X112075394Y-80436925D01*
X112035579Y-80478020D01*
X111980079Y-80516892D01*
X111916121Y-80551736D01*
X111855368Y-80579778D01*
X111798075Y-80599788D01*
X111738369Y-80612715D01*
X111670376Y-80619509D01*
X111588223Y-80621120D01*
X111500130Y-80619026D01*
X111413448Y-80614767D01*
X111340534Y-80607897D01*
X111274050Y-80596887D01*
X111206661Y-80580207D01*
X111131028Y-80556328D01*
X111039816Y-80523720D01*
X111035743Y-80522213D01*
X110969427Y-80504141D01*
X110900642Y-80496257D01*
X110837664Y-80498857D01*
X110788770Y-80512234D01*
X110786486Y-80513374D01*
X110740509Y-80546687D01*
X110691408Y-80598488D01*
X110643819Y-80663081D01*
X110602378Y-80734768D01*
X110596426Y-80746940D01*
X110560867Y-80841941D01*
X110543833Y-80935856D01*
X110545860Y-81023485D01*
X110561428Y-81085201D01*
X110603159Y-81158956D01*
X110668614Y-81224082D01*
X110757587Y-81280463D01*
X110869871Y-81327986D01*
X111005260Y-81366535D01*
X111101141Y-81385953D01*
X111181496Y-81397187D01*
X111278941Y-81406210D01*
X111387801Y-81412904D01*
X111502398Y-81417150D01*
X111617053Y-81418831D01*
X111726090Y-81417828D01*
X111823831Y-81414023D01*
X111904598Y-81407298D01*
X111933950Y-81403278D01*
X112124094Y-81361600D01*
X112299022Y-81300502D01*
X112458106Y-81220359D01*
X112600719Y-81121549D01*
X112726233Y-81004447D01*
X112834021Y-80869429D01*
X112840705Y-80859587D01*
X112942297Y-80686508D01*
X113019683Y-80506047D01*
X113072703Y-80319001D01*
X113101197Y-80126169D01*
X113105004Y-79928348D01*
X113092867Y-79811805D01*
X112143500Y-79811805D01*
X112131449Y-79815100D01*
X112097874Y-79817737D01*
X112046641Y-79819731D01*
X111981617Y-79821096D01*
X111906668Y-79821847D01*
X111825662Y-79821998D01*
X111742465Y-79821565D01*
X111660944Y-79820562D01*
X111584965Y-79819003D01*
X111518395Y-79816903D01*
X111465102Y-79814277D01*
X111428951Y-79811139D01*
X111417242Y-79809057D01*
X111362285Y-79781782D01*
X111324340Y-79737281D01*
X111306359Y-79679486D01*
X111305300Y-79660135D01*
X111316321Y-79582457D01*
X111348438Y-79517527D01*
X111400236Y-79466330D01*
X111470299Y-79429852D01*
X111557211Y-79409079D01*
X111659556Y-79404995D01*
X111670991Y-79405566D01*
X111728603Y-79410833D01*
X111774875Y-79421118D01*
X111821832Y-79439838D01*
X111861120Y-79459564D01*
X111938244Y-79508070D01*
X112008363Y-79567183D01*
X112066706Y-79631892D01*
X112108499Y-79697185D01*
X112123932Y-79735515D01*
X112134879Y-79774169D01*
X112141981Y-79802683D01*
X112143500Y-79811805D01*
X113092867Y-79811805D01*
X113083966Y-79726337D01*
X113076328Y-79683199D01*
X113030327Y-79506144D01*
X112962348Y-79340657D01*
X112873606Y-79187949D01*
X112765316Y-79049229D01*
X112638691Y-78925709D01*
X112494947Y-78818597D01*
X112335297Y-78729104D01*
X112160956Y-78658441D01*
X112003800Y-78614464D01*
X111912917Y-78598573D01*
X111805616Y-78587316D01*
X111690520Y-78581063D01*
X111576252Y-78580181D01*
X111471433Y-78585040D01*
G36*
X116579460Y-78584116D02*
G01*
X116405197Y-78609060D01*
X116241198Y-78652508D01*
X116167746Y-78679882D01*
X116026516Y-78751598D01*
X115897593Y-78844168D01*
X115783114Y-78955171D01*
X115685215Y-79082184D01*
X115606032Y-79222788D01*
X115547702Y-79374562D01*
X115544149Y-79386600D01*
X115529418Y-79455673D01*
X115519417Y-79540007D01*
X115514233Y-79632497D01*
X115513953Y-79726041D01*
X115518665Y-79813534D01*
X115528456Y-79887873D01*
X115537544Y-79925647D01*
X115581428Y-80026016D01*
X115646044Y-80116355D01*
X115727395Y-80192432D01*
X115821486Y-80250016D01*
X115858848Y-80265832D01*
X115875342Y-80271688D01*
X115892375Y-80276603D01*
X115912218Y-80280659D01*
X115937141Y-80283939D01*
X115969414Y-80286525D01*
X116011308Y-80288499D01*
X116065092Y-80289943D01*
X116133036Y-80290940D01*
X116217412Y-80291572D01*
X116320489Y-80291921D01*
X116444536Y-80292070D01*
X116584004Y-80292100D01*
X117238954Y-80292100D01*
X117231126Y-80323289D01*
X117202470Y-80398238D01*
X117155870Y-80461042D01*
X117088603Y-80514790D01*
X117035690Y-80544734D01*
X116962620Y-80578291D01*
X116894653Y-80601049D01*
X116823609Y-80614765D01*
X116741309Y-80621194D01*
X116674353Y-80622300D01*
X116559022Y-80619657D01*
X116459669Y-80610745D01*
X116367328Y-80594083D01*
X116273033Y-80568195D01*
X116203490Y-80544663D01*
X116110593Y-80514681D01*
X116034795Y-80498274D01*
X115971875Y-80495218D01*
X115917608Y-80505287D01*
X115870100Y-80526877D01*
X115814255Y-80571519D01*
X115761623Y-80635167D01*
X115715046Y-80711742D01*
X115677368Y-80795168D01*
X115651433Y-80879364D01*
X115640084Y-80958254D01*
X115643153Y-81012002D01*
X115668570Y-81094885D01*
X115713993Y-81167572D01*
X115780187Y-81230571D01*
X115867917Y-81284389D01*
X115977949Y-81329532D01*
X116111048Y-81366508D01*
X116207500Y-81385911D01*
X116275994Y-81395428D01*
X116362735Y-81403532D01*
X116462139Y-81410061D01*
X116568617Y-81414856D01*
X116676582Y-81417755D01*
X116780447Y-81418598D01*
X116874625Y-81417223D01*
X116953530Y-81413471D01*
X117001250Y-81408740D01*
X117168546Y-81375588D01*
X117335080Y-81323366D01*
X117493587Y-81254804D01*
X117636798Y-81172629D01*
X117645397Y-81166886D01*
X117753271Y-81081034D01*
X117855560Y-80974328D01*
X117949323Y-80851177D01*
X118031618Y-80715987D01*
X118099505Y-80573168D01*
X118150041Y-80427128D01*
X118157379Y-80399614D01*
X118193894Y-80206039D01*
X118207238Y-80007738D01*
X118198037Y-79822200D01*
X117248266Y-79822200D01*
X116908858Y-79822129D01*
X116812432Y-79821625D01*
X116723793Y-79820237D01*
X116646614Y-79818090D01*
X116584569Y-79815306D01*
X116541333Y-79812010D01*
X116522842Y-79809112D01*
X116482856Y-79793711D01*
X116448630Y-79773765D01*
X116446642Y-79772205D01*
X116431151Y-79756761D01*
X116422213Y-79737140D01*
X116418092Y-79706414D01*
X116417053Y-79657655D01*
X116417050Y-79654058D01*
X116418196Y-79602476D01*
X116423061Y-79567598D01*
X116433789Y-79540778D01*
X116451630Y-79514536D01*
X116484534Y-79481369D01*
X116527664Y-79450024D01*
X116546880Y-79439325D01*
X116578928Y-79425306D01*
X116610970Y-79416435D01*
X116650181Y-79411610D01*
X116703735Y-79409733D01*
X116740900Y-79409556D01*
X116802413Y-79410131D01*
X116846099Y-79412709D01*
X116879523Y-79418745D01*
X116910253Y-79429691D01*
X116945854Y-79447004D01*
X116951786Y-79450085D01*
X117040407Y-79505608D01*
X117117391Y-79572225D01*
X117179185Y-79645862D01*
X117222234Y-79722444D01*
X117240385Y-79780925D01*
X117248266Y-79822200D01*
X118198037Y-79822200D01*
X118197408Y-79809530D01*
X118164397Y-79616234D01*
X118158303Y-79591325D01*
X118102631Y-79422598D01*
X118024470Y-79264418D01*
X117925062Y-79118280D01*
X117805649Y-78985680D01*
X117667473Y-78868109D01*
X117511777Y-78767064D01*
X117442701Y-78730529D01*
X117286559Y-78665708D01*
X117117535Y-78618473D01*
X116940258Y-78589007D01*
X116759356Y-78577493D01*
X116579460Y-78584116D01*
G37*
X116579460Y-78584116D02*
X116405197Y-78609060D01*
X116241198Y-78652508D01*
X116167746Y-78679882D01*
X116026516Y-78751598D01*
X115897593Y-78844168D01*
X115783114Y-78955171D01*
X115685215Y-79082184D01*
X115606032Y-79222788D01*
X115547702Y-79374562D01*
X115544149Y-79386600D01*
X115529418Y-79455673D01*
X115519417Y-79540007D01*
X115514233Y-79632497D01*
X115513953Y-79726041D01*
X115518665Y-79813534D01*
X115528456Y-79887873D01*
X115537544Y-79925647D01*
X115581428Y-80026016D01*
X115646044Y-80116355D01*
X115727395Y-80192432D01*
X115821486Y-80250016D01*
X115858848Y-80265832D01*
X115875342Y-80271688D01*
X115892375Y-80276603D01*
X115912218Y-80280659D01*
X115937141Y-80283939D01*
X115969414Y-80286525D01*
X116011308Y-80288499D01*
X116065092Y-80289943D01*
X116133036Y-80290940D01*
X116217412Y-80291572D01*
X116320489Y-80291921D01*
X116444536Y-80292070D01*
X116584004Y-80292100D01*
X117238954Y-80292100D01*
X117231126Y-80323289D01*
X117202470Y-80398238D01*
X117155870Y-80461042D01*
X117088603Y-80514790D01*
X117035690Y-80544734D01*
X116962620Y-80578291D01*
X116894653Y-80601049D01*
X116823609Y-80614765D01*
X116741309Y-80621194D01*
X116674353Y-80622300D01*
X116559022Y-80619657D01*
X116459669Y-80610745D01*
X116367328Y-80594083D01*
X116273033Y-80568195D01*
X116203490Y-80544663D01*
X116110593Y-80514681D01*
X116034795Y-80498274D01*
X115971875Y-80495218D01*
X115917608Y-80505287D01*
X115870100Y-80526877D01*
X115814255Y-80571519D01*
X115761623Y-80635167D01*
X115715046Y-80711742D01*
X115677368Y-80795168D01*
X115651433Y-80879364D01*
X115640084Y-80958254D01*
X115643153Y-81012002D01*
X115668570Y-81094885D01*
X115713993Y-81167572D01*
X115780187Y-81230571D01*
X115867917Y-81284389D01*
X115977949Y-81329532D01*
X116111048Y-81366508D01*
X116207500Y-81385911D01*
X116275994Y-81395428D01*
X116362735Y-81403532D01*
X116462139Y-81410061D01*
X116568617Y-81414856D01*
X116676582Y-81417755D01*
X116780447Y-81418598D01*
X116874625Y-81417223D01*
X116953530Y-81413471D01*
X117001250Y-81408740D01*
X117168546Y-81375588D01*
X117335080Y-81323366D01*
X117493587Y-81254804D01*
X117636798Y-81172629D01*
X117645397Y-81166886D01*
X117753271Y-81081034D01*
X117855560Y-80974328D01*
X117949323Y-80851177D01*
X118031618Y-80715987D01*
X118099505Y-80573168D01*
X118150041Y-80427128D01*
X118157379Y-80399614D01*
X118193894Y-80206039D01*
X118207238Y-80007738D01*
X118198037Y-79822200D01*
X117248266Y-79822200D01*
X116908858Y-79822129D01*
X116812432Y-79821625D01*
X116723793Y-79820237D01*
X116646614Y-79818090D01*
X116584569Y-79815306D01*
X116541333Y-79812010D01*
X116522842Y-79809112D01*
X116482856Y-79793711D01*
X116448630Y-79773765D01*
X116446642Y-79772205D01*
X116431151Y-79756761D01*
X116422213Y-79737140D01*
X116418092Y-79706414D01*
X116417053Y-79657655D01*
X116417050Y-79654058D01*
X116418196Y-79602476D01*
X116423061Y-79567598D01*
X116433789Y-79540778D01*
X116451630Y-79514536D01*
X116484534Y-79481369D01*
X116527664Y-79450024D01*
X116546880Y-79439325D01*
X116578928Y-79425306D01*
X116610970Y-79416435D01*
X116650181Y-79411610D01*
X116703735Y-79409733D01*
X116740900Y-79409556D01*
X116802413Y-79410131D01*
X116846099Y-79412709D01*
X116879523Y-79418745D01*
X116910253Y-79429691D01*
X116945854Y-79447004D01*
X116951786Y-79450085D01*
X117040407Y-79505608D01*
X117117391Y-79572225D01*
X117179185Y-79645862D01*
X117222234Y-79722444D01*
X117240385Y-79780925D01*
X117248266Y-79822200D01*
X118198037Y-79822200D01*
X118197408Y-79809530D01*
X118164397Y-79616234D01*
X118158303Y-79591325D01*
X118102631Y-79422598D01*
X118024470Y-79264418D01*
X117925062Y-79118280D01*
X117805649Y-78985680D01*
X117667473Y-78868109D01*
X117511777Y-78767064D01*
X117442701Y-78730529D01*
X117286559Y-78665708D01*
X117117535Y-78618473D01*
X116940258Y-78589007D01*
X116759356Y-78577493D01*
X116579460Y-78584116D01*
G36*
X121744598Y-78555919D02*
G01*
X121674850Y-78575893D01*
X121648884Y-78588959D01*
X121624945Y-78604500D01*
X121602166Y-78624292D01*
X121579679Y-78650111D01*
X121556615Y-78683733D01*
X121532106Y-78726933D01*
X121505285Y-78781488D01*
X121475282Y-78849172D01*
X121441229Y-78931762D01*
X121402258Y-79031034D01*
X121357502Y-79148763D01*
X121306090Y-79286724D01*
X121247157Y-79446695D01*
X121241388Y-79462413D01*
X121210824Y-79544288D01*
X121182759Y-79616779D01*
X121158420Y-79676929D01*
X121139034Y-79721784D01*
X121125829Y-79748387D01*
X121120200Y-79754207D01*
X121114050Y-79739176D01*
X121100273Y-79703003D01*
X121079884Y-79648429D01*
X121053897Y-79578197D01*
X121023327Y-79495049D01*
X120989188Y-79401728D01*
X120952495Y-79300977D01*
X120950266Y-79294844D01*
X120909354Y-79183560D01*
X120870721Y-79081025D01*
X120835433Y-78989912D01*
X120804555Y-78912894D01*
X120779154Y-78852644D01*
X120760293Y-78811836D01*
X120751550Y-78796265D01*
X120702218Y-78738429D01*
X120636513Y-78681186D01*
X120562724Y-78631198D01*
X120514679Y-78605903D01*
X120439876Y-78583444D01*
X120354141Y-78577267D01*
X120265760Y-78587045D01*
X120183018Y-78612450D01*
X120167409Y-78619605D01*
X120093625Y-78665455D01*
X120023587Y-78726490D01*
X119965107Y-78795165D01*
X119935132Y-78843941D01*
X119922348Y-78872533D01*
X119902374Y-78921471D01*
X119876586Y-78987186D01*
X119846359Y-79066112D01*
X119813069Y-79154681D01*
X119778091Y-79249325D01*
X119764309Y-79287057D01*
X119719959Y-79408671D01*
X119683397Y-79508345D01*
X119653850Y-79588057D01*
X119630547Y-79649781D01*
X119612714Y-79695493D01*
X119599579Y-79727167D01*
X119590369Y-79746780D01*
X119584313Y-79756307D01*
X119580638Y-79757723D01*
X119580351Y-79757474D01*
X119575008Y-79744803D01*
X119561935Y-79710891D01*
X119542109Y-79658355D01*
X119516508Y-79589814D01*
X119486109Y-79507889D01*
X119451890Y-79415197D01*
X119414829Y-79314358D01*
X119407787Y-79295150D01*
X119369023Y-79190126D01*
X119331644Y-79090276D01*
X119296842Y-78998679D01*
X119265808Y-78918413D01*
X119239733Y-78852559D01*
X119219811Y-78804197D01*
X119207231Y-78776405D01*
X119206594Y-78775194D01*
X119165060Y-78712102D01*
X119112360Y-78653005D01*
X119055100Y-78604314D01*
X118999888Y-78572438D01*
X118996084Y-78570931D01*
X118952042Y-78558273D01*
X118901621Y-78553243D01*
X118838575Y-78554692D01*
X118787888Y-78558994D01*
X118745397Y-78566912D01*
X118702426Y-78580980D01*
X118650300Y-78603731D01*
X118618419Y-78618997D01*
X118510222Y-78679050D01*
X118426598Y-78742310D01*
X118366832Y-78809613D01*
X118330208Y-78881792D01*
X118316011Y-78959684D01*
X118315771Y-78972134D01*
X118316942Y-79011024D01*
X118321240Y-79048143D01*
X118329966Y-79087966D01*
X118344423Y-79134966D01*
X118365915Y-79193619D01*
X118395744Y-79268396D01*
X118417225Y-79320550D01*
X118434776Y-79363017D01*
X118460930Y-79426505D01*
X118494667Y-79508529D01*
X118534968Y-79606605D01*
X118580810Y-79718247D01*
X118631176Y-79840969D01*
X118685043Y-79972288D01*
X118741392Y-80109718D01*
X118799203Y-80250773D01*
X118823940Y-80311150D01*
X118880341Y-80448657D01*
X118934457Y-80580266D01*
X118985435Y-80703929D01*
X119032425Y-80817595D01*
X119074575Y-80919214D01*
X119111034Y-81006737D01*
X119140951Y-81078114D01*
X119163475Y-81131295D01*
X119177754Y-81164230D01*
X119181989Y-81173378D01*
X119222792Y-81235619D01*
X119279358Y-81297817D01*
X119343436Y-81351659D01*
X119385370Y-81378325D01*
X119425228Y-81397649D01*
X119464058Y-81409703D01*
X119511163Y-81416669D01*
X119563827Y-81420180D01*
X119619642Y-81422151D01*
X119659233Y-81420544D01*
X119691701Y-81413739D01*
X119726148Y-81400118D01*
X119755463Y-81386078D01*
X119838507Y-81333044D01*
X119915019Y-81261184D01*
X119978533Y-81177072D01*
X120001885Y-81135520D01*
X120015305Y-81105772D01*
X120036228Y-81055598D01*
X120063316Y-80988380D01*
X120095230Y-80907503D01*
X120130631Y-80816352D01*
X120168181Y-80718309D01*
X120196173Y-80644351D01*
X120241253Y-80525524D01*
X120278471Y-80429479D01*
X120308333Y-80355016D01*
X120331348Y-80300937D01*
X120348025Y-80266044D01*
X120358872Y-80249136D01*
X120364066Y-80248300D01*
X120371122Y-80264949D01*
X120385651Y-80302339D01*
X120406473Y-80357326D01*
X120432410Y-80426770D01*
X120462285Y-80507528D01*
X120494918Y-80596459D01*
X120505813Y-80626298D01*
X120540467Y-80720987D01*
X120573981Y-80811922D01*
X120604910Y-80895232D01*
X120631810Y-80967046D01*
X120653237Y-81023491D01*
X120667745Y-81060697D01*
X120669681Y-81065469D01*
X120727145Y-81182005D01*
X120794879Y-81275971D01*
X120873721Y-81348378D01*
X120934503Y-81386024D01*
X120985257Y-81403722D01*
X121051609Y-81415157D01*
X121124408Y-81419787D01*
X121194505Y-81417070D01*
X121252750Y-81406466D01*
X121257067Y-81405117D01*
X121328365Y-81371831D01*
X121400255Y-81321119D01*
X121465053Y-81259569D01*
X121515075Y-81193770D01*
X121525764Y-81174750D01*
X121535284Y-81153740D01*
X121553426Y-81111326D01*
X121579316Y-81049657D01*
X121612077Y-80970885D01*
X121650833Y-80877159D01*
X121694710Y-80770630D01*
X121742832Y-80653450D01*
X121794322Y-80527768D01*
X121848305Y-80395737D01*
X121903906Y-80259505D01*
X121960249Y-80121224D01*
X122016458Y-79983045D01*
X122071657Y-79847118D01*
X122124971Y-79715594D01*
X122175524Y-79590624D01*
X122222441Y-79474358D01*
X122264845Y-79368947D01*
X122301862Y-79276542D01*
X122332615Y-79199293D01*
X122356229Y-79139352D01*
X122371828Y-79098868D01*
X122378216Y-79081087D01*
X122397430Y-79007296D01*
X122403432Y-78947624D01*
X122396035Y-78894381D01*
X122375053Y-78839880D01*
X122372205Y-78834073D01*
X122339775Y-78780868D01*
X122297507Y-78735264D01*
X122240736Y-78693308D01*
X122164798Y-78651042D01*
X122144750Y-78641161D01*
X122034953Y-78595386D01*
X121929334Y-78565597D01*
X121831385Y-78552280D01*
X121744598Y-78555919D01*
G37*
X121744598Y-78555919D02*
X121674850Y-78575893D01*
X121648884Y-78588959D01*
X121624945Y-78604500D01*
X121602166Y-78624292D01*
X121579679Y-78650111D01*
X121556615Y-78683733D01*
X121532106Y-78726933D01*
X121505285Y-78781488D01*
X121475282Y-78849172D01*
X121441229Y-78931762D01*
X121402258Y-79031034D01*
X121357502Y-79148763D01*
X121306090Y-79286724D01*
X121247157Y-79446695D01*
X121241388Y-79462413D01*
X121210824Y-79544288D01*
X121182759Y-79616779D01*
X121158420Y-79676929D01*
X121139034Y-79721784D01*
X121125829Y-79748387D01*
X121120200Y-79754207D01*
X121114050Y-79739176D01*
X121100273Y-79703003D01*
X121079884Y-79648429D01*
X121053897Y-79578197D01*
X121023327Y-79495049D01*
X120989188Y-79401728D01*
X120952495Y-79300977D01*
X120950266Y-79294844D01*
X120909354Y-79183560D01*
X120870721Y-79081025D01*
X120835433Y-78989912D01*
X120804555Y-78912894D01*
X120779154Y-78852644D01*
X120760293Y-78811836D01*
X120751550Y-78796265D01*
X120702218Y-78738429D01*
X120636513Y-78681186D01*
X120562724Y-78631198D01*
X120514679Y-78605903D01*
X120439876Y-78583444D01*
X120354141Y-78577267D01*
X120265760Y-78587045D01*
X120183018Y-78612450D01*
X120167409Y-78619605D01*
X120093625Y-78665455D01*
X120023587Y-78726490D01*
X119965107Y-78795165D01*
X119935132Y-78843941D01*
X119922348Y-78872533D01*
X119902374Y-78921471D01*
X119876586Y-78987186D01*
X119846359Y-79066112D01*
X119813069Y-79154681D01*
X119778091Y-79249325D01*
X119764309Y-79287057D01*
X119719959Y-79408671D01*
X119683397Y-79508345D01*
X119653850Y-79588057D01*
X119630547Y-79649781D01*
X119612714Y-79695493D01*
X119599579Y-79727167D01*
X119590369Y-79746780D01*
X119584313Y-79756307D01*
X119580638Y-79757723D01*
X119580351Y-79757474D01*
X119575008Y-79744803D01*
X119561935Y-79710891D01*
X119542109Y-79658355D01*
X119516508Y-79589814D01*
X119486109Y-79507889D01*
X119451890Y-79415197D01*
X119414829Y-79314358D01*
X119407787Y-79295150D01*
X119369023Y-79190126D01*
X119331644Y-79090276D01*
X119296842Y-78998679D01*
X119265808Y-78918413D01*
X119239733Y-78852559D01*
X119219811Y-78804197D01*
X119207231Y-78776405D01*
X119206594Y-78775194D01*
X119165060Y-78712102D01*
X119112360Y-78653005D01*
X119055100Y-78604314D01*
X118999888Y-78572438D01*
X118996084Y-78570931D01*
X118952042Y-78558273D01*
X118901621Y-78553243D01*
X118838575Y-78554692D01*
X118787888Y-78558994D01*
X118745397Y-78566912D01*
X118702426Y-78580980D01*
X118650300Y-78603731D01*
X118618419Y-78618997D01*
X118510222Y-78679050D01*
X118426598Y-78742310D01*
X118366832Y-78809613D01*
X118330208Y-78881792D01*
X118316011Y-78959684D01*
X118315771Y-78972134D01*
X118316942Y-79011024D01*
X118321240Y-79048143D01*
X118329966Y-79087966D01*
X118344423Y-79134966D01*
X118365915Y-79193619D01*
X118395744Y-79268396D01*
X118417225Y-79320550D01*
X118434776Y-79363017D01*
X118460930Y-79426505D01*
X118494667Y-79508529D01*
X118534968Y-79606605D01*
X118580810Y-79718247D01*
X118631176Y-79840969D01*
X118685043Y-79972288D01*
X118741392Y-80109718D01*
X118799203Y-80250773D01*
X118823940Y-80311150D01*
X118880341Y-80448657D01*
X118934457Y-80580266D01*
X118985435Y-80703929D01*
X119032425Y-80817595D01*
X119074575Y-80919214D01*
X119111034Y-81006737D01*
X119140951Y-81078114D01*
X119163475Y-81131295D01*
X119177754Y-81164230D01*
X119181989Y-81173378D01*
X119222792Y-81235619D01*
X119279358Y-81297817D01*
X119343436Y-81351659D01*
X119385370Y-81378325D01*
X119425228Y-81397649D01*
X119464058Y-81409703D01*
X119511163Y-81416669D01*
X119563827Y-81420180D01*
X119619642Y-81422151D01*
X119659233Y-81420544D01*
X119691701Y-81413739D01*
X119726148Y-81400118D01*
X119755463Y-81386078D01*
X119838507Y-81333044D01*
X119915019Y-81261184D01*
X119978533Y-81177072D01*
X120001885Y-81135520D01*
X120015305Y-81105772D01*
X120036228Y-81055598D01*
X120063316Y-80988380D01*
X120095230Y-80907503D01*
X120130631Y-80816352D01*
X120168181Y-80718309D01*
X120196173Y-80644351D01*
X120241253Y-80525524D01*
X120278471Y-80429479D01*
X120308333Y-80355016D01*
X120331348Y-80300937D01*
X120348025Y-80266044D01*
X120358872Y-80249136D01*
X120364066Y-80248300D01*
X120371122Y-80264949D01*
X120385651Y-80302339D01*
X120406473Y-80357326D01*
X120432410Y-80426770D01*
X120462285Y-80507528D01*
X120494918Y-80596459D01*
X120505813Y-80626298D01*
X120540467Y-80720987D01*
X120573981Y-80811922D01*
X120604910Y-80895232D01*
X120631810Y-80967046D01*
X120653237Y-81023491D01*
X120667745Y-81060697D01*
X120669681Y-81065469D01*
X120727145Y-81182005D01*
X120794879Y-81275971D01*
X120873721Y-81348378D01*
X120934503Y-81386024D01*
X120985257Y-81403722D01*
X121051609Y-81415157D01*
X121124408Y-81419787D01*
X121194505Y-81417070D01*
X121252750Y-81406466D01*
X121257067Y-81405117D01*
X121328365Y-81371831D01*
X121400255Y-81321119D01*
X121465053Y-81259569D01*
X121515075Y-81193770D01*
X121525764Y-81174750D01*
X121535284Y-81153740D01*
X121553426Y-81111326D01*
X121579316Y-81049657D01*
X121612077Y-80970885D01*
X121650833Y-80877159D01*
X121694710Y-80770630D01*
X121742832Y-80653450D01*
X121794322Y-80527768D01*
X121848305Y-80395737D01*
X121903906Y-80259505D01*
X121960249Y-80121224D01*
X122016458Y-79983045D01*
X122071657Y-79847118D01*
X122124971Y-79715594D01*
X122175524Y-79590624D01*
X122222441Y-79474358D01*
X122264845Y-79368947D01*
X122301862Y-79276542D01*
X122332615Y-79199293D01*
X122356229Y-79139352D01*
X122371828Y-79098868D01*
X122378216Y-79081087D01*
X122397430Y-79007296D01*
X122403432Y-78947624D01*
X122396035Y-78894381D01*
X122375053Y-78839880D01*
X122372205Y-78834073D01*
X122339775Y-78780868D01*
X122297507Y-78735264D01*
X122240736Y-78693308D01*
X122164798Y-78651042D01*
X122144750Y-78641161D01*
X122034953Y-78595386D01*
X121929334Y-78565597D01*
X121831385Y-78552280D01*
X121744598Y-78555919D01*
G36*
X108539015Y-78556202D02*
G01*
X108409238Y-78567989D01*
X108284011Y-78592571D01*
X108153924Y-78631370D01*
X108132646Y-78638774D01*
X108044058Y-78675060D01*
X107952180Y-78721388D01*
X107861956Y-78774513D01*
X107778331Y-78831190D01*
X107706248Y-78888175D01*
X107650651Y-78942222D01*
X107629069Y-78969267D01*
X107609713Y-78999201D01*
X107598195Y-79026027D01*
X107592514Y-79058058D01*
X107590665Y-79103609D01*
X107590550Y-79129205D01*
X107591618Y-79184641D01*
X107596557Y-79225773D01*
X107607972Y-79263446D01*
X107628469Y-79308501D01*
X107638351Y-79328181D01*
X107686535Y-79412179D01*
X107743869Y-79494706D01*
X107805517Y-79569729D01*
X107866642Y-79631213D01*
X107906881Y-79663209D01*
X107981020Y-79702050D01*
X108058138Y-79717720D01*
X108139734Y-79710074D01*
X108227306Y-79678968D01*
X108322355Y-79624257D01*
X108324155Y-79623047D01*
X108385015Y-79582953D01*
X108432371Y-79555388D01*
X108473315Y-79538020D01*
X108514940Y-79528514D01*
X108564339Y-79524535D01*
X108625868Y-79523750D01*
X108687748Y-79524306D01*
X108732046Y-79526955D01*
X108766571Y-79533170D01*
X108799133Y-79544422D01*
X108837541Y-79562183D01*
X108842375Y-79564557D01*
X108939611Y-79625123D01*
X109016850Y-79700251D01*
X109073074Y-79787959D01*
X109107264Y-79886265D01*
X109118400Y-79993186D01*
X109109786Y-80084952D01*
X109080322Y-80188052D01*
X109031090Y-80275909D01*
X108961292Y-80349517D01*
X108870131Y-80409872D01*
X108835458Y-80426942D01*
X108736860Y-80458492D01*
X108632258Y-80467108D01*
X108525689Y-80453185D01*
X108421193Y-80417120D01*
X108352550Y-80379621D01*
X108258890Y-80325585D01*
X108176756Y-80292123D01*
X108102470Y-80279459D01*
X108032355Y-80287820D01*
X107962731Y-80317431D01*
X107889923Y-80368520D01*
X107841654Y-80411000D01*
X107745042Y-80510122D01*
X107670544Y-80605757D01*
X107618766Y-80696897D01*
X107590316Y-80782533D01*
X107584603Y-80838200D01*
X107592952Y-80910766D01*
X107618762Y-80979183D01*
X107663678Y-81045665D01*
X107729346Y-81112428D01*
X107817412Y-81181688D01*
X107863050Y-81213105D01*
X107981376Y-81285661D01*
X108095022Y-81341195D01*
X108210099Y-81381561D01*
X108332718Y-81408617D01*
X108468987Y-81424218D01*
X108574800Y-81429290D01*
X108678880Y-81430608D01*
X108762990Y-81428223D01*
X108832320Y-81421897D01*
X108871279Y-81415681D01*
X109035131Y-81374198D01*
X109197182Y-81313261D01*
X109353495Y-81235318D01*
X109500130Y-81142812D01*
X109633148Y-81038192D01*
X109748611Y-80923901D01*
X109830784Y-80819859D01*
X109924976Y-80665987D01*
X109996117Y-80508850D01*
X110045485Y-80344533D01*
X110074361Y-80169120D01*
X110082677Y-80049249D01*
X110080237Y-79857904D01*
X110057847Y-79680520D01*
X110014697Y-79514360D01*
X109949976Y-79356684D01*
X109862873Y-79204754D01*
X109810354Y-79129656D01*
X109740257Y-79043279D01*
X109662860Y-78965018D01*
X109572508Y-78889697D01*
X109463544Y-78812140D01*
X109463091Y-78811836D01*
X109319280Y-78723471D01*
X109181125Y-78655863D01*
X109042816Y-78607104D01*
X108898540Y-78575288D01*
X108742485Y-78558507D01*
X108682750Y-78555794D01*
X108539015Y-78556202D01*
G37*
X108539015Y-78556202D02*
X108409238Y-78567989D01*
X108284011Y-78592571D01*
X108153924Y-78631370D01*
X108132646Y-78638774D01*
X108044058Y-78675060D01*
X107952180Y-78721388D01*
X107861956Y-78774513D01*
X107778331Y-78831190D01*
X107706248Y-78888175D01*
X107650651Y-78942222D01*
X107629069Y-78969267D01*
X107609713Y-78999201D01*
X107598195Y-79026027D01*
X107592514Y-79058058D01*
X107590665Y-79103609D01*
X107590550Y-79129205D01*
X107591618Y-79184641D01*
X107596557Y-79225773D01*
X107607972Y-79263446D01*
X107628469Y-79308501D01*
X107638351Y-79328181D01*
X107686535Y-79412179D01*
X107743869Y-79494706D01*
X107805517Y-79569729D01*
X107866642Y-79631213D01*
X107906881Y-79663209D01*
X107981020Y-79702050D01*
X108058138Y-79717720D01*
X108139734Y-79710074D01*
X108227306Y-79678968D01*
X108322355Y-79624257D01*
X108324155Y-79623047D01*
X108385015Y-79582953D01*
X108432371Y-79555388D01*
X108473315Y-79538020D01*
X108514940Y-79528514D01*
X108564339Y-79524535D01*
X108625868Y-79523750D01*
X108687748Y-79524306D01*
X108732046Y-79526955D01*
X108766571Y-79533170D01*
X108799133Y-79544422D01*
X108837541Y-79562183D01*
X108842375Y-79564557D01*
X108939611Y-79625123D01*
X109016850Y-79700251D01*
X109073074Y-79787959D01*
X109107264Y-79886265D01*
X109118400Y-79993186D01*
X109109786Y-80084952D01*
X109080322Y-80188052D01*
X109031090Y-80275909D01*
X108961292Y-80349517D01*
X108870131Y-80409872D01*
X108835458Y-80426942D01*
X108736860Y-80458492D01*
X108632258Y-80467108D01*
X108525689Y-80453185D01*
X108421193Y-80417120D01*
X108352550Y-80379621D01*
X108258890Y-80325585D01*
X108176756Y-80292123D01*
X108102470Y-80279459D01*
X108032355Y-80287820D01*
X107962731Y-80317431D01*
X107889923Y-80368520D01*
X107841654Y-80411000D01*
X107745042Y-80510122D01*
X107670544Y-80605757D01*
X107618766Y-80696897D01*
X107590316Y-80782533D01*
X107584603Y-80838200D01*
X107592952Y-80910766D01*
X107618762Y-80979183D01*
X107663678Y-81045665D01*
X107729346Y-81112428D01*
X107817412Y-81181688D01*
X107863050Y-81213105D01*
X107981376Y-81285661D01*
X108095022Y-81341195D01*
X108210099Y-81381561D01*
X108332718Y-81408617D01*
X108468987Y-81424218D01*
X108574800Y-81429290D01*
X108678880Y-81430608D01*
X108762990Y-81428223D01*
X108832320Y-81421897D01*
X108871279Y-81415681D01*
X109035131Y-81374198D01*
X109197182Y-81313261D01*
X109353495Y-81235318D01*
X109500130Y-81142812D01*
X109633148Y-81038192D01*
X109748611Y-80923901D01*
X109830784Y-80819859D01*
X109924976Y-80665987D01*
X109996117Y-80508850D01*
X110045485Y-80344533D01*
X110074361Y-80169120D01*
X110082677Y-80049249D01*
X110080237Y-79857904D01*
X110057847Y-79680520D01*
X110014697Y-79514360D01*
X109949976Y-79356684D01*
X109862873Y-79204754D01*
X109810354Y-79129656D01*
X109740257Y-79043279D01*
X109662860Y-78965018D01*
X109572508Y-78889697D01*
X109463544Y-78812140D01*
X109463091Y-78811836D01*
X109319280Y-78723471D01*
X109181125Y-78655863D01*
X109042816Y-78607104D01*
X108898540Y-78575288D01*
X108742485Y-78558507D01*
X108682750Y-78555794D01*
X108539015Y-78556202D01*
G36*
X97426457Y-81803394D02*
G01*
X97341026Y-81803400D01*
X97141112Y-81803376D01*
X96965016Y-81803375D01*
X96811156Y-81803499D01*
X96677951Y-81803850D01*
X96563817Y-81804531D01*
X96467173Y-81805644D01*
X96386438Y-81807292D01*
X96320028Y-81809577D01*
X96266363Y-81812602D01*
X96223861Y-81816469D01*
X96190938Y-81821281D01*
X96166014Y-81827140D01*
X96147507Y-81834150D01*
X96133834Y-81842411D01*
X96123413Y-81852028D01*
X96114663Y-81863102D01*
X96106002Y-81875736D01*
X96100410Y-81883800D01*
X96078302Y-81933381D01*
X96067711Y-82000867D01*
X96068915Y-82081381D01*
X96082195Y-82170051D01*
X96083665Y-82176803D01*
X96121867Y-82300060D01*
X96178434Y-82407737D01*
X96253838Y-82500161D01*
X96348556Y-82577661D01*
X96463061Y-82640565D01*
X96597830Y-82689199D01*
X96753336Y-82723893D01*
X96903500Y-82742784D01*
X96966464Y-82746835D01*
X97049571Y-82749948D01*
X97147723Y-82752127D01*
X97255822Y-82753379D01*
X97368769Y-82753706D01*
X97481465Y-82753114D01*
X97588811Y-82751606D01*
X97685708Y-82749189D01*
X97767057Y-82745865D01*
X97824250Y-82741968D01*
X97986053Y-82718065D01*
X98130803Y-82677893D01*
X98257740Y-82622167D01*
X98366104Y-82551598D01*
X98455137Y-82466899D01*
X98524079Y-82368785D01*
X98572171Y-82257966D01*
X98598653Y-82135156D01*
X98603221Y-82010790D01*
X98600010Y-81956672D01*
X98594535Y-81920819D01*
X98584932Y-81896095D01*
X98569333Y-81875369D01*
X98567200Y-81873058D01*
X98556443Y-81861186D01*
X98546682Y-81850742D01*
X98536309Y-81841635D01*
X98523717Y-81833774D01*
X98507297Y-81827068D01*
X98485442Y-81821425D01*
X98456544Y-81816754D01*
X98418996Y-81812963D01*
X98371188Y-81809961D01*
X98311513Y-81807657D01*
X98238364Y-81805959D01*
X98150132Y-81804777D01*
X98045210Y-81804018D01*
X97921989Y-81803592D01*
X97778862Y-81803407D01*
X97614220Y-81803372D01*
X97426457Y-81803394D01*
G37*
X97426457Y-81803394D02*
X97341026Y-81803400D01*
X97141112Y-81803376D01*
X96965016Y-81803375D01*
X96811156Y-81803499D01*
X96677951Y-81803850D01*
X96563817Y-81804531D01*
X96467173Y-81805644D01*
X96386438Y-81807292D01*
X96320028Y-81809577D01*
X96266363Y-81812602D01*
X96223861Y-81816469D01*
X96190938Y-81821281D01*
X96166014Y-81827140D01*
X96147507Y-81834150D01*
X96133834Y-81842411D01*
X96123413Y-81852028D01*
X96114663Y-81863102D01*
X96106002Y-81875736D01*
X96100410Y-81883800D01*
X96078302Y-81933381D01*
X96067711Y-82000867D01*
X96068915Y-82081381D01*
X96082195Y-82170051D01*
X96083665Y-82176803D01*
X96121867Y-82300060D01*
X96178434Y-82407737D01*
X96253838Y-82500161D01*
X96348556Y-82577661D01*
X96463061Y-82640565D01*
X96597830Y-82689199D01*
X96753336Y-82723893D01*
X96903500Y-82742784D01*
X96966464Y-82746835D01*
X97049571Y-82749948D01*
X97147723Y-82752127D01*
X97255822Y-82753379D01*
X97368769Y-82753706D01*
X97481465Y-82753114D01*
X97588811Y-82751606D01*
X97685708Y-82749189D01*
X97767057Y-82745865D01*
X97824250Y-82741968D01*
X97986053Y-82718065D01*
X98130803Y-82677893D01*
X98257740Y-82622167D01*
X98366104Y-82551598D01*
X98455137Y-82466899D01*
X98524079Y-82368785D01*
X98572171Y-82257966D01*
X98598653Y-82135156D01*
X98603221Y-82010790D01*
X98600010Y-81956672D01*
X98594535Y-81920819D01*
X98584932Y-81896095D01*
X98569333Y-81875369D01*
X98567200Y-81873058D01*
X98556443Y-81861186D01*
X98546682Y-81850742D01*
X98536309Y-81841635D01*
X98523717Y-81833774D01*
X98507297Y-81827068D01*
X98485442Y-81821425D01*
X98456544Y-81816754D01*
X98418996Y-81812963D01*
X98371188Y-81809961D01*
X98311513Y-81807657D01*
X98238364Y-81805959D01*
X98150132Y-81804777D01*
X98045210Y-81804018D01*
X97921989Y-81803592D01*
X97778862Y-81803407D01*
X97614220Y-81803372D01*
X97426457Y-81803394D01*
G36*
X100412966Y-81806375D02*
G01*
X99272050Y-81809750D01*
X99231765Y-81838485D01*
X99197823Y-81873599D01*
X99170810Y-81921502D01*
X99169080Y-81925871D01*
X99158619Y-81956912D01*
X99153420Y-81986010D01*
X99153159Y-82020810D01*
X99157513Y-82068956D01*
X99161607Y-82102702D01*
X99179638Y-82206560D01*
X99206817Y-82294281D01*
X99246263Y-82374404D01*
X99279734Y-82426133D01*
X99357825Y-82515372D01*
X99456912Y-82590448D01*
X99576865Y-82651304D01*
X99717556Y-82697883D01*
X99878856Y-82730126D01*
X99989600Y-82742932D01*
X100052893Y-82746953D01*
X100136435Y-82750036D01*
X100235094Y-82752186D01*
X100343737Y-82753408D01*
X100457231Y-82753706D01*
X100570445Y-82753085D01*
X100678244Y-82751552D01*
X100775496Y-82749110D01*
X100857068Y-82745765D01*
X100912314Y-82742033D01*
X101078414Y-82718240D01*
X101225147Y-82678281D01*
X101352415Y-82622241D01*
X101460118Y-82550205D01*
X101548157Y-82462258D01*
X101616434Y-82358486D01*
X101664849Y-82238974D01*
X101693302Y-82103807D01*
X101697353Y-82066839D01*
X101698318Y-81983615D01*
X101683570Y-81918344D01*
X101651979Y-81868181D01*
X101603589Y-81830938D01*
X101553881Y-81803000D01*
X100412966Y-81806375D01*
G37*
X100412966Y-81806375D02*
X99272050Y-81809750D01*
X99231765Y-81838485D01*
X99197823Y-81873599D01*
X99170810Y-81921502D01*
X99169080Y-81925871D01*
X99158619Y-81956912D01*
X99153420Y-81986010D01*
X99153159Y-82020810D01*
X99157513Y-82068956D01*
X99161607Y-82102702D01*
X99179638Y-82206560D01*
X99206817Y-82294281D01*
X99246263Y-82374404D01*
X99279734Y-82426133D01*
X99357825Y-82515372D01*
X99456912Y-82590448D01*
X99576865Y-82651304D01*
X99717556Y-82697883D01*
X99878856Y-82730126D01*
X99989600Y-82742932D01*
X100052893Y-82746953D01*
X100136435Y-82750036D01*
X100235094Y-82752186D01*
X100343737Y-82753408D01*
X100457231Y-82753706D01*
X100570445Y-82753085D01*
X100678244Y-82751552D01*
X100775496Y-82749110D01*
X100857068Y-82745765D01*
X100912314Y-82742033D01*
X101078414Y-82718240D01*
X101225147Y-82678281D01*
X101352415Y-82622241D01*
X101460118Y-82550205D01*
X101548157Y-82462258D01*
X101616434Y-82358486D01*
X101664849Y-82238974D01*
X101693302Y-82103807D01*
X101697353Y-82066839D01*
X101698318Y-81983615D01*
X101683570Y-81918344D01*
X101651979Y-81868181D01*
X101603589Y-81830938D01*
X101553881Y-81803000D01*
X100412966Y-81806375D01*
D14*
X113835885Y-108441202D02*
X113835885Y-109841202D01*
X113835885Y-109841202D02*
X111035885Y-109841202D01*
X113835885Y-108441202D02*
X111035885Y-108441202D01*
X120986900Y-69147800D02*
X115286900Y-69147800D01*
X120986900Y-73447800D02*
X115286900Y-73447800D01*
X120986900Y-69147800D02*
X120986900Y-73447800D01*
X112668400Y-69198600D02*
X112668400Y-73498600D01*
X112668400Y-73498600D02*
X106968400Y-73498600D01*
X112668400Y-69198600D02*
X106968400Y-69198600D01*
X104362600Y-69185900D02*
X104362600Y-73485900D01*
X104362600Y-73485900D02*
X98662600Y-73485900D01*
X104362600Y-69185900D02*
X98662600Y-69185900D01*
X112666186Y-106343502D02*
X111466186Y-106343502D01*
X111466186Y-108103502D02*
X112666186Y-108103502D01*
X117859100Y-73986500D02*
X116659100Y-73986500D01*
X116659100Y-75746500D02*
X117859100Y-75746500D01*
D11*
X116104895Y-109646980D02*
X116104895Y-108646980D01*
X115866800Y-108646980D01*
X115723942Y-108694600D01*
X115628704Y-108789838D01*
X115581085Y-108885076D01*
X115533466Y-109075552D01*
X115533466Y-109218409D01*
X115581085Y-109408885D01*
X115628704Y-109504123D01*
X115723942Y-109599361D01*
X115866800Y-109646980D01*
X116104895Y-109646980D01*
X115152514Y-108742219D02*
X115104895Y-108694600D01*
X115009657Y-108646980D01*
X114771561Y-108646980D01*
X114676323Y-108694600D01*
X114628704Y-108742219D01*
X114581085Y-108837457D01*
X114581085Y-108932695D01*
X114628704Y-109075552D01*
X115200133Y-109646980D01*
X114581085Y-109646980D01*
X122738095Y-73952380D02*
X122738095Y-72952380D01*
X122500000Y-72952380D01*
X122357142Y-73000000D01*
X122261904Y-73095238D01*
X122214285Y-73190476D01*
X122166666Y-73380952D01*
X122166666Y-73523809D01*
X122214285Y-73714285D01*
X122261904Y-73809523D01*
X122357142Y-73904761D01*
X122500000Y-73952380D01*
X122738095Y-73952380D01*
X121833333Y-72952380D02*
X121214285Y-72952380D01*
X121547619Y-73333333D01*
X121404761Y-73333333D01*
X121309523Y-73380952D01*
X121261904Y-73428571D01*
X121214285Y-73523809D01*
X121214285Y-73761904D01*
X121261904Y-73857142D01*
X121309523Y-73904761D01*
X121404761Y-73952380D01*
X121690476Y-73952380D01*
X121785714Y-73904761D01*
X121833333Y-73857142D01*
X109818395Y-74912480D02*
X109818395Y-73912480D01*
X109580300Y-73912480D01*
X109437442Y-73960100D01*
X109342204Y-74055338D01*
X109294585Y-74150576D01*
X109246966Y-74341052D01*
X109246966Y-74483909D01*
X109294585Y-74674385D01*
X109342204Y-74769623D01*
X109437442Y-74864861D01*
X109580300Y-74912480D01*
X109818395Y-74912480D01*
X108389823Y-74245814D02*
X108389823Y-74912480D01*
X108627919Y-73864861D02*
X108866014Y-74579147D01*
X108246966Y-74579147D01*
X101525295Y-75115680D02*
X101525295Y-74115680D01*
X101287200Y-74115680D01*
X101144342Y-74163300D01*
X101049104Y-74258538D01*
X101001485Y-74353776D01*
X100953866Y-74544252D01*
X100953866Y-74687109D01*
X101001485Y-74877585D01*
X101049104Y-74972823D01*
X101144342Y-75068061D01*
X101287200Y-75115680D01*
X101525295Y-75115680D01*
X100049104Y-74115680D02*
X100525295Y-74115680D01*
X100572914Y-74591871D01*
X100525295Y-74544252D01*
X100430057Y-74496633D01*
X100191961Y-74496633D01*
X100096723Y-74544252D01*
X100049104Y-74591871D01*
X100001485Y-74687109D01*
X100001485Y-74925204D01*
X100049104Y-75020442D01*
X100096723Y-75068061D01*
X100191961Y-75115680D01*
X100430057Y-75115680D01*
X100525295Y-75068061D01*
X100572914Y-75020442D01*
D10*
X123336957Y-69443600D02*
X123336957Y-69240400D01*
X123656271Y-69240400D02*
X123046671Y-69240400D01*
X123046671Y-69530685D01*
X123656271Y-70082228D02*
X123656271Y-69733885D01*
X123656271Y-69908057D02*
X123046671Y-69908057D01*
X123133757Y-69850000D01*
X123191814Y-69791942D01*
X123220842Y-69733885D01*
X94622257Y-69481700D02*
X94622257Y-69278500D01*
X94941571Y-69278500D02*
X94331971Y-69278500D01*
X94331971Y-69568785D01*
X94390028Y-69771985D02*
X94361000Y-69801014D01*
X94331971Y-69859071D01*
X94331971Y-70004214D01*
X94361000Y-70062271D01*
X94390028Y-70091300D01*
X94448085Y-70120328D01*
X94506142Y-70120328D01*
X94593228Y-70091300D01*
X94941571Y-69742957D01*
X94941571Y-70120328D01*
X96278700Y-84286271D02*
X96278700Y-84721700D01*
X96307728Y-84808785D01*
X96365785Y-84866842D01*
X96452871Y-84895871D01*
X96510928Y-84895871D01*
X95988414Y-84895871D02*
X95988414Y-84286271D01*
X95756185Y-84286271D01*
X95698128Y-84315300D01*
X95669100Y-84344328D01*
X95640071Y-84402385D01*
X95640071Y-84489471D01*
X95669100Y-84547528D01*
X95698128Y-84576557D01*
X95756185Y-84605585D01*
X95988414Y-84605585D01*
X95059500Y-84895871D02*
X95407842Y-84895871D01*
X95233671Y-84895871D02*
X95233671Y-84286271D01*
X95291728Y-84373357D01*
X95349785Y-84431414D01*
X95407842Y-84460442D01*
X124936171Y-79004700D02*
X125371600Y-79004700D01*
X125458685Y-78975671D01*
X125516742Y-78917614D01*
X125545771Y-78830528D01*
X125545771Y-78772471D01*
X125545771Y-79294985D02*
X124936171Y-79294985D01*
X124936171Y-79527214D01*
X124965200Y-79585271D01*
X124994228Y-79614300D01*
X125052285Y-79643328D01*
X125139371Y-79643328D01*
X125197428Y-79614300D01*
X125226457Y-79585271D01*
X125255485Y-79527214D01*
X125255485Y-79294985D01*
X124994228Y-79875557D02*
X124965200Y-79904585D01*
X124936171Y-79962642D01*
X124936171Y-80107785D01*
X124965200Y-80165842D01*
X124994228Y-80194871D01*
X125052285Y-80223900D01*
X125110342Y-80223900D01*
X125197428Y-80194871D01*
X125545771Y-79846528D01*
X125545771Y-80223900D01*
X98573771Y-102768400D02*
X99009200Y-102768400D01*
X99096285Y-102739371D01*
X99154342Y-102681314D01*
X99183371Y-102594228D01*
X99183371Y-102536171D01*
X99183371Y-103058685D02*
X98573771Y-103058685D01*
X98573771Y-103290914D01*
X98602800Y-103348971D01*
X98631828Y-103378000D01*
X98689885Y-103407028D01*
X98776971Y-103407028D01*
X98835028Y-103378000D01*
X98864057Y-103348971D01*
X98893085Y-103290914D01*
X98893085Y-103058685D01*
X98573771Y-103610228D02*
X98573771Y-103987600D01*
X98806000Y-103784400D01*
X98806000Y-103871485D01*
X98835028Y-103929542D01*
X98864057Y-103958571D01*
X98922114Y-103987600D01*
X99067257Y-103987600D01*
X99125314Y-103958571D01*
X99154342Y-103929542D01*
X99183371Y-103871485D01*
X99183371Y-103697314D01*
X99154342Y-103639257D01*
X99125314Y-103610228D01*
D11*
X114631766Y-107627680D02*
X114965100Y-107151490D01*
X115203195Y-107627680D02*
X115203195Y-106627680D01*
X114822242Y-106627680D01*
X114727004Y-106675300D01*
X114679385Y-106722919D01*
X114631766Y-106818157D01*
X114631766Y-106961014D01*
X114679385Y-107056252D01*
X114727004Y-107103871D01*
X114822242Y-107151490D01*
X115203195Y-107151490D01*
X113679385Y-107627680D02*
X114250814Y-107627680D01*
X113965100Y-107627680D02*
X113965100Y-106627680D01*
X114060338Y-106770538D01*
X114155576Y-106865776D01*
X114250814Y-106913395D01*
X120166666Y-75452380D02*
X120500000Y-74976190D01*
X120738095Y-75452380D02*
X120738095Y-74452380D01*
X120357142Y-74452380D01*
X120261904Y-74500000D01*
X120214285Y-74547619D01*
X120166666Y-74642857D01*
X120166666Y-74785714D01*
X120214285Y-74880952D01*
X120261904Y-74928571D01*
X120357142Y-74976190D01*
X120738095Y-74976190D01*
X119595238Y-74880952D02*
X119690476Y-74833333D01*
X119738095Y-74785714D01*
X119785714Y-74690476D01*
X119785714Y-74642857D01*
X119738095Y-74547619D01*
X119690476Y-74500000D01*
X119595238Y-74452380D01*
X119404761Y-74452380D01*
X119309523Y-74500000D01*
X119261904Y-74547619D01*
X119214285Y-74642857D01*
X119214285Y-74690476D01*
X119261904Y-74785714D01*
X119309523Y-74833333D01*
X119404761Y-74880952D01*
X119595238Y-74880952D01*
X119690476Y-74928571D01*
X119738095Y-74976190D01*
X119785714Y-75071428D01*
X119785714Y-75261904D01*
X119738095Y-75357142D01*
X119690476Y-75404761D01*
X119595238Y-75452380D01*
X119404761Y-75452380D01*
X119309523Y-75404761D01*
X119261904Y-75357142D01*
X119214285Y-75261904D01*
X119214285Y-75071428D01*
X119261904Y-74976190D01*
X119309523Y-74928571D01*
X119404761Y-74880952D01*
M02*
