  0
SECTION
  2
HEADER
  9
$ANGBASE
  50
0.0
  9
$ANGDIR
  70
1
  9
$MEASUREMENT
  70
1
  0
ENDSEC
  0
SECTION
  2
TABLES
  0
TABLE
  2
LTYPE
  70
4
  0
LTYPE
  5
40F
  2
CONTINUOUS
  70
0
  3
Solid line
  72
65
  73
0
  40
0.0
  0
LTYPE
  5
410
  2
DASHDOT
 70
0
  3
Dash Dot ____ _ ____ _
 72
65
 73
4
 40
2.0
 49
1.25
 49
-0.25
 49
0.25
 49
-0.25
  0
LTYPE
  5
411
  2
DASHED
 70
0
  3
Dashed __ __ __ __ __
 72
65
 73
2
 40
0.75
 49
0.5
 49
-0.25
  0
LTYPE
  5
43B
  2
DOTTED
 70
0
  3
Dotted .  .  .  .
 72
65
 73
2
 40
0.2
 49
0.0
 49
-0.2
  0
ENDTAB
  0
TABLE
  2
STYLE
  70
4
  0
STYLE
  2
KICAD
  70
0
  40
0
  41
1
  42
1
  50
0
  71
0
  3
isocp.shx
  0
STYLE
  2
KICADB
  70
0
  40
0
  41
1
  42
1
  50
0
  71
0
  3
isocp.shx
  0
STYLE
  2
KICADI
  70
0
  40
0
  41
1
  42
1
  50
15
  71
0
  3
isocp.shx
  0
STYLE
  2
KICADBI
  70
0
  40
0
  41
1
  42
1
  50
15
  71
0
  3
isocp.shx
  0
ENDTAB
  0
TABLE
  2
LAYER
  70
1
  0
LAYER
  2
BLACK
  70
0
  62
7
  6
CONTINUOUS
  0
ENDTAB
  0
ENDSEC
  0
SECTION
  2
ENTITIES
0
LINE
8
BLACK
6
CONTINUOUS
10
111.586
20
-109.791
11
110.286
21
-109.791
0
LINE
8
BLACK
6
CONTINUOUS
10
110.286
20
-109.791
11
110.286
21
-108.491
0
LINE
8
BLACK
6
CONTINUOUS
10
110.286
20
-108.491
11
111.586
21
-108.491
0
LINE
8
BLACK
6
CONTINUOUS
10
111.586
20
-108.491
11
111.586
21
-109.791
0
LINE
8
BLACK
6
CONTINUOUS
10
113.786
20
-109.791
11
112.486
21
-109.791
0
LINE
8
BLACK
6
CONTINUOUS
10
112.486
20
-109.791
11
112.486
21
-108.491
0
LINE
8
BLACK
6
CONTINUOUS
10
112.486
20
-108.491
11
113.786
21
-108.491
0
LINE
8
BLACK
6
CONTINUOUS
10
113.786
20
-108.491
11
113.786
21
-109.791
0
LINE
8
BLACK
6
CONTINUOUS
10
113.416
20
-107.924
11
112.616
21
-107.924
0
LINE
8
BLACK
6
CONTINUOUS
10
112.616
20
-107.924
11
112.616
21
-106.524
0
LINE
8
BLACK
6
CONTINUOUS
10
112.616
20
-106.524
11
113.416
21
-106.524
0
LINE
8
BLACK
6
CONTINUOUS
10
113.416
20
-106.524
11
113.416
21
-107.924
0
LINE
8
BLACK
6
CONTINUOUS
10
111.516
20
-107.924
11
110.716
21
-107.924
0
LINE
8
BLACK
6
CONTINUOUS
10
110.716
20
-107.924
11
110.716
21
-106.524
0
LINE
8
BLACK
6
CONTINUOUS
10
110.716
20
-106.524
11
111.516
21
-106.524
0
LINE
8
BLACK
6
CONTINUOUS
10
111.516
20
-106.524
11
111.516
21
-107.924
0
LINE
8
BLACK
6
CONTINUOUS
10
88.9813
20
-104.413
11
89.2816
21
-104.538
0
LINE
8
BLACK
6
CONTINUOUS
10
89.2816
20
-104.538
11
89.5518
21
-104.718
0
LINE
8
BLACK
6
CONTINUOUS
10
89.5518
20
-104.718
11
89.7816
21
-104.948
0
LINE
8
BLACK
6
CONTINUOUS
10
89.7816
20
-104.948
11
89.9622
21
-105.218
0
LINE
8
BLACK
6
CONTINUOUS
10
89.9622
20
-105.218
11
90.0866
21
-105.519
0
LINE
8
BLACK
6
CONTINUOUS
10
90.0866
20
-105.519
11
90.15
21
-105.837
0
LINE
8
BLACK
6
CONTINUOUS
10
90.15
20
-105.837
11
90.15
21
-106.163
0
LINE
8
BLACK
6
CONTINUOUS
10
90.15
20
-106.163
11
90.0866
21
-106.481
0
LINE
8
BLACK
6
CONTINUOUS
10
90.0866
20
-106.481
11
89.9622
21
-106.782
0
LINE
8
BLACK
6
CONTINUOUS
10
89.9622
20
-106.782
11
89.7816
21
-107.052
0
LINE
8
BLACK
6
CONTINUOUS
10
89.7816
20
-107.052
11
89.5518
21
-107.282
0
LINE
8
BLACK
6
CONTINUOUS
10
89.5518
20
-107.282
11
89.2816
21
-107.462
0
LINE
8
BLACK
6
CONTINUOUS
10
89.2816
20
-107.462
11
88.9813
21
-107.587
0
LINE
8
BLACK
6
CONTINUOUS
10
88.9813
20
-107.587
11
88.6625
21
-107.65
0
LINE
8
BLACK
6
CONTINUOUS
10
88.6625
20
-107.65
11
88.3375
21
-107.65
0
LINE
8
BLACK
6
CONTINUOUS
10
88.3375
20
-107.65
11
88.0187
21
-107.587
0
LINE
8
BLACK
6
CONTINUOUS
10
88.0187
20
-107.587
11
87.7184
21
-107.462
0
LINE
8
BLACK
6
CONTINUOUS
10
87.7184
20
-107.462
11
87.4482
21
-107.282
0
LINE
8
BLACK
6
CONTINUOUS
10
87.4482
20
-107.282
11
87.2184
21
-107.052
0
LINE
8
BLACK
6
CONTINUOUS
10
87.2184
20
-107.052
11
87.0378
21
-106.782
0
LINE
8
BLACK
6
CONTINUOUS
10
87.0378
20
-106.782
11
86.9134
21
-106.481
0
LINE
8
BLACK
6
CONTINUOUS
10
86.9134
20
-106.481
11
86.85
21
-106.163
0
LINE
8
BLACK
6
CONTINUOUS
10
86.85
20
-106.163
11
86.85
21
-105.837
0
LINE
8
BLACK
6
CONTINUOUS
10
86.85
20
-105.837
11
86.9134
21
-105.519
0
LINE
8
BLACK
6
CONTINUOUS
10
86.9134
20
-105.519
11
87.0378
21
-105.218
0
LINE
8
BLACK
6
CONTINUOUS
10
87.0378
20
-105.218
11
87.2184
21
-104.948
0
LINE
8
BLACK
6
CONTINUOUS
10
87.2184
20
-104.948
11
87.4482
21
-104.718
0
LINE
8
BLACK
6
CONTINUOUS
10
87.4482
20
-104.718
11
87.7184
21
-104.538
0
LINE
8
BLACK
6
CONTINUOUS
10
87.7184
20
-104.538
11
88.0187
21
-104.413
0
LINE
8
BLACK
6
CONTINUOUS
10
88.0187
20
-104.413
11
88.3375
21
-104.35
0
LINE
8
BLACK
6
CONTINUOUS
10
88.3375
20
-104.35
11
88.6625
21
-104.35
0
LINE
8
BLACK
6
CONTINUOUS
10
88.6625
20
-104.35
11
88.9813
21
-104.413
0
LINE
8
BLACK
6
CONTINUOUS
10
129.981
20
-104.413
11
130.282
21
-104.538
0
LINE
8
BLACK
6
CONTINUOUS
10
130.282
20
-104.538
11
130.552
21
-104.718
0
LINE
8
BLACK
6
CONTINUOUS
10
130.552
20
-104.718
11
130.782
21
-104.948
0
LINE
8
BLACK
6
CONTINUOUS
10
130.782
20
-104.948
11
130.962
21
-105.218
0
LINE
8
BLACK
6
CONTINUOUS
10
130.962
20
-105.218
11
131.087
21
-105.519
0
LINE
8
BLACK
6
CONTINUOUS
10
131.087
20
-105.519
11
131.15
21
-105.837
0
LINE
8
BLACK
6
CONTINUOUS
10
131.15
20
-105.837
11
131.15
21
-106.163
0
LINE
8
BLACK
6
CONTINUOUS
10
131.15
20
-106.163
11
131.087
21
-106.481
0
LINE
8
BLACK
6
CONTINUOUS
10
131.087
20
-106.481
11
130.962
21
-106.782
0
LINE
8
BLACK
6
CONTINUOUS
10
130.962
20
-106.782
11
130.782
21
-107.052
0
LINE
8
BLACK
6
CONTINUOUS
10
130.782
20
-107.052
11
130.552
21
-107.282
0
LINE
8
BLACK
6
CONTINUOUS
10
130.552
20
-107.282
11
130.282
21
-107.462
0
LINE
8
BLACK
6
CONTINUOUS
10
130.282
20
-107.462
11
129.981
21
-107.587
0
LINE
8
BLACK
6
CONTINUOUS
10
129.981
20
-107.587
11
129.663
21
-107.65
0
LINE
8
BLACK
6
CONTINUOUS
10
129.663
20
-107.65
11
129.337
21
-107.65
0
LINE
8
BLACK
6
CONTINUOUS
10
129.337
20
-107.65
11
129.019
21
-107.587
0
LINE
8
BLACK
6
CONTINUOUS
10
129.019
20
-107.587
11
128.718
21
-107.462
0
LINE
8
BLACK
6
CONTINUOUS
10
128.718
20
-107.462
11
128.448
21
-107.282
0
LINE
8
BLACK
6
CONTINUOUS
10
128.448
20
-107.282
11
128.218
21
-107.052
0
LINE
8
BLACK
6
CONTINUOUS
10
128.218
20
-107.052
11
128.038
21
-106.782
0
LINE
8
BLACK
6
CONTINUOUS
10
128.038
20
-106.782
11
127.913
21
-106.481
0
LINE
8
BLACK
6
CONTINUOUS
10
127.913
20
-106.481
11
127.85
21
-106.163
0
LINE
8
BLACK
6
CONTINUOUS
10
127.85
20
-106.163
11
127.85
21
-105.837
0
LINE
8
BLACK
6
CONTINUOUS
10
127.85
20
-105.837
11
127.913
21
-105.519
0
LINE
8
BLACK
6
CONTINUOUS
10
127.913
20
-105.519
11
128.038
21
-105.218
0
LINE
8
BLACK
6
CONTINUOUS
10
128.038
20
-105.218
11
128.218
21
-104.948
0
LINE
8
BLACK
6
CONTINUOUS
10
128.218
20
-104.948
11
128.448
21
-104.718
0
LINE
8
BLACK
6
CONTINUOUS
10
128.448
20
-104.718
11
128.718
21
-104.538
0
LINE
8
BLACK
6
CONTINUOUS
10
128.718
20
-104.538
11
129.019
21
-104.413
0
LINE
8
BLACK
6
CONTINUOUS
10
129.019
20
-104.413
11
129.337
21
-104.35
0
LINE
8
BLACK
6
CONTINUOUS
10
129.337
20
-104.35
11
129.663
21
-104.35
0
LINE
8
BLACK
6
CONTINUOUS
10
129.663
20
-104.35
11
129.981
21
-104.413
0
LINE
8
BLACK
6
CONTINUOUS
10
103.524
20
-104.011
11
103.647
21
-104.049
0
LINE
8
BLACK
6
CONTINUOUS
10
103.647
20
-104.049
11
103.76
21
-104.109
0
LINE
8
BLACK
6
CONTINUOUS
10
103.76
20
-104.109
11
103.859
21
-104.19
0
LINE
8
BLACK
6
CONTINUOUS
10
103.859
20
-104.19
11
103.94
21
-104.289
0
LINE
8
BLACK
6
CONTINUOUS
10
103.94
20
-104.289
11
104
21
-104.402
0
LINE
8
BLACK
6
CONTINUOUS
10
104
20
-104.402
11
104.037
21
-104.525
0
LINE
8
BLACK
6
CONTINUOUS
10
104.037
20
-104.525
11
104.047
21
-104.62
0
LINE
8
BLACK
6
CONTINUOUS
10
104.047
20
-104.62
11
104.047
21
-105.184
0
LINE
8
BLACK
6
CONTINUOUS
10
104.047
20
-105.184
11
104.037
21
-105.279
0
LINE
8
BLACK
6
CONTINUOUS
10
104.037
20
-105.279
11
104
21
-105.402
0
LINE
8
BLACK
6
CONTINUOUS
10
104
20
-105.402
11
103.94
21
-105.515
0
LINE
8
BLACK
6
CONTINUOUS
10
103.94
20
-105.515
11
103.859
21
-105.614
0
LINE
8
BLACK
6
CONTINUOUS
10
103.859
20
-105.614
11
103.76
21
-105.695
0
LINE
8
BLACK
6
CONTINUOUS
10
103.76
20
-105.695
11
103.647
21
-105.755
0
LINE
8
BLACK
6
CONTINUOUS
10
103.647
20
-105.755
11
103.524
21
-105.793
0
LINE
8
BLACK
6
CONTINUOUS
10
103.524
20
-105.793
11
103.397
21
-105.805
0
LINE
8
BLACK
6
CONTINUOUS
10
103.397
20
-105.805
11
103.269
21
-105.793
0
LINE
8
BLACK
6
CONTINUOUS
10
103.269
20
-105.793
11
103.147
21
-105.755
0
LINE
8
BLACK
6
CONTINUOUS
10
103.147
20
-105.755
11
103.034
21
-105.695
0
LINE
8
BLACK
6
CONTINUOUS
10
103.034
20
-105.695
11
102.935
21
-105.614
0
LINE
8
BLACK
6
CONTINUOUS
10
102.935
20
-105.614
11
102.854
21
-105.515
0
LINE
8
BLACK
6
CONTINUOUS
10
102.854
20
-105.515
11
102.793
21
-105.402
0
LINE
8
BLACK
6
CONTINUOUS
10
102.793
20
-105.402
11
102.756
21
-105.279
0
LINE
8
BLACK
6
CONTINUOUS
10
102.756
20
-105.279
11
102.747
21
-105.184
0
LINE
8
BLACK
6
CONTINUOUS
10
102.747
20
-105.184
11
102.747
21
-104.62
0
LINE
8
BLACK
6
CONTINUOUS
10
102.747
20
-104.62
11
102.756
21
-104.525
0
LINE
8
BLACK
6
CONTINUOUS
10
102.756
20
-104.525
11
102.793
21
-104.402
0
LINE
8
BLACK
6
CONTINUOUS
10
102.793
20
-104.402
11
102.854
21
-104.289
0
LINE
8
BLACK
6
CONTINUOUS
10
102.854
20
-104.289
11
102.935
21
-104.19
0
LINE
8
BLACK
6
CONTINUOUS
10
102.935
20
-104.19
11
103.034
21
-104.109
0
LINE
8
BLACK
6
CONTINUOUS
10
103.034
20
-104.109
11
103.147
21
-104.049
0
LINE
8
BLACK
6
CONTINUOUS
10
103.147
20
-104.049
11
103.269
21
-104.011
0
LINE
8
BLACK
6
CONTINUOUS
10
103.269
20
-104.011
11
103.397
21
-103.999
0
LINE
8
BLACK
6
CONTINUOUS
10
103.397
20
-103.999
11
103.524
21
-104.011
0
LINE
8
BLACK
6
CONTINUOUS
10
105.524
20
-104.011
11
105.647
21
-104.049
0
LINE
8
BLACK
6
CONTINUOUS
10
105.647
20
-104.049
11
105.76
21
-104.109
0
LINE
8
BLACK
6
CONTINUOUS
10
105.76
20
-104.109
11
105.859
21
-104.19
0
LINE
8
BLACK
6
CONTINUOUS
10
105.859
20
-104.19
11
105.94
21
-104.289
0
LINE
8
BLACK
6
CONTINUOUS
10
105.94
20
-104.289
11
106
21
-104.402
0
LINE
8
BLACK
6
CONTINUOUS
10
106
20
-104.402
11
106.037
21
-104.525
0
LINE
8
BLACK
6
CONTINUOUS
10
106.037
20
-104.525
11
106.047
21
-104.62
0
LINE
8
BLACK
6
CONTINUOUS
10
106.047
20
-104.62
11
106.047
21
-105.184
0
LINE
8
BLACK
6
CONTINUOUS
10
106.047
20
-105.184
11
106.037
21
-105.279
0
LINE
8
BLACK
6
CONTINUOUS
10
106.037
20
-105.279
11
106
21
-105.402
0
LINE
8
BLACK
6
CONTINUOUS
10
106
20
-105.402
11
105.94
21
-105.515
0
LINE
8
BLACK
6
CONTINUOUS
10
105.94
20
-105.515
11
105.859
21
-105.614
0
LINE
8
BLACK
6
CONTINUOUS
10
105.859
20
-105.614
11
105.76
21
-105.695
0
LINE
8
BLACK
6
CONTINUOUS
10
105.76
20
-105.695
11
105.647
21
-105.755
0
LINE
8
BLACK
6
CONTINUOUS
10
105.647
20
-105.755
11
105.524
21
-105.793
0
LINE
8
BLACK
6
CONTINUOUS
10
105.524
20
-105.793
11
105.397
21
-105.805
0
LINE
8
BLACK
6
CONTINUOUS
10
105.397
20
-105.805
11
105.269
21
-105.793
0
LINE
8
BLACK
6
CONTINUOUS
10
105.269
20
-105.793
11
105.147
21
-105.755
0
LINE
8
BLACK
6
CONTINUOUS
10
105.147
20
-105.755
11
105.034
21
-105.695
0
LINE
8
BLACK
6
CONTINUOUS
10
105.034
20
-105.695
11
104.935
21
-105.614
0
LINE
8
BLACK
6
CONTINUOUS
10
104.935
20
-105.614
11
104.854
21
-105.515
0
LINE
8
BLACK
6
CONTINUOUS
10
104.854
20
-105.515
11
104.793
21
-105.402
0
LINE
8
BLACK
6
CONTINUOUS
10
104.793
20
-105.402
11
104.756
21
-105.279
0
LINE
8
BLACK
6
CONTINUOUS
10
104.756
20
-105.279
11
104.747
21
-105.184
0
LINE
8
BLACK
6
CONTINUOUS
10
104.747
20
-105.184
11
104.747
21
-104.62
0
LINE
8
BLACK
6
CONTINUOUS
10
104.747
20
-104.62
11
104.756
21
-104.525
0
LINE
8
BLACK
6
CONTINUOUS
10
104.756
20
-104.525
11
104.793
21
-104.402
0
LINE
8
BLACK
6
CONTINUOUS
10
104.793
20
-104.402
11
104.854
21
-104.289
0
LINE
8
BLACK
6
CONTINUOUS
10
104.854
20
-104.289
11
104.935
21
-104.19
0
LINE
8
BLACK
6
CONTINUOUS
10
104.935
20
-104.19
11
105.034
21
-104.109
0
LINE
8
BLACK
6
CONTINUOUS
10
105.034
20
-104.109
11
105.147
21
-104.049
0
LINE
8
BLACK
6
CONTINUOUS
10
105.147
20
-104.049
11
105.269
21
-104.011
0
LINE
8
BLACK
6
CONTINUOUS
10
105.269
20
-104.011
11
105.397
21
-103.999
0
LINE
8
BLACK
6
CONTINUOUS
10
105.397
20
-103.999
11
105.524
21
-104.011
0
LINE
8
BLACK
6
CONTINUOUS
10
107.524
20
-104.011
11
107.647
21
-104.049
0
LINE
8
BLACK
6
CONTINUOUS
10
107.647
20
-104.049
11
107.76
21
-104.109
0
LINE
8
BLACK
6
CONTINUOUS
10
107.76
20
-104.109
11
107.859
21
-104.19
0
LINE
8
BLACK
6
CONTINUOUS
10
107.859
20
-104.19
11
107.94
21
-104.289
0
LINE
8
BLACK
6
CONTINUOUS
10
107.94
20
-104.289
11
108
21
-104.402
0
LINE
8
BLACK
6
CONTINUOUS
10
108
20
-104.402
11
108.037
21
-104.525
0
LINE
8
BLACK
6
CONTINUOUS
10
108.037
20
-104.525
11
108.047
21
-104.62
0
LINE
8
BLACK
6
CONTINUOUS
10
108.047
20
-104.62
11
108.047
21
-105.184
0
LINE
8
BLACK
6
CONTINUOUS
10
108.047
20
-105.184
11
108.037
21
-105.279
0
LINE
8
BLACK
6
CONTINUOUS
10
108.037
20
-105.279
11
108
21
-105.402
0
LINE
8
BLACK
6
CONTINUOUS
10
108
20
-105.402
11
107.94
21
-105.515
0
LINE
8
BLACK
6
CONTINUOUS
10
107.94
20
-105.515
11
107.859
21
-105.614
0
LINE
8
BLACK
6
CONTINUOUS
10
107.859
20
-105.614
11
107.76
21
-105.695
0
LINE
8
BLACK
6
CONTINUOUS
10
107.76
20
-105.695
11
107.647
21
-105.755
0
LINE
8
BLACK
6
CONTINUOUS
10
107.647
20
-105.755
11
107.524
21
-105.793
0
LINE
8
BLACK
6
CONTINUOUS
10
107.524
20
-105.793
11
107.397
21
-105.805
0
LINE
8
BLACK
6
CONTINUOUS
10
107.397
20
-105.805
11
107.269
21
-105.793
0
LINE
8
BLACK
6
CONTINUOUS
10
107.269
20
-105.793
11
107.147
21
-105.755
0
LINE
8
BLACK
6
CONTINUOUS
10
107.147
20
-105.755
11
107.034
21
-105.695
0
LINE
8
BLACK
6
CONTINUOUS
10
107.034
20
-105.695
11
106.935
21
-105.614
0
LINE
8
BLACK
6
CONTINUOUS
10
106.935
20
-105.614
11
106.854
21
-105.515
0
LINE
8
BLACK
6
CONTINUOUS
10
106.854
20
-105.515
11
106.793
21
-105.402
0
LINE
8
BLACK
6
CONTINUOUS
10
106.793
20
-105.402
11
106.756
21
-105.279
0
LINE
8
BLACK
6
CONTINUOUS
10
106.756
20
-105.279
11
106.747
21
-105.184
0
LINE
8
BLACK
6
CONTINUOUS
10
106.747
20
-105.184
11
106.747
21
-104.62
0
LINE
8
BLACK
6
CONTINUOUS
10
106.747
20
-104.62
11
106.756
21
-104.525
0
LINE
8
BLACK
6
CONTINUOUS
10
106.756
20
-104.525
11
106.793
21
-104.402
0
LINE
8
BLACK
6
CONTINUOUS
10
106.793
20
-104.402
11
106.854
21
-104.289
0
LINE
8
BLACK
6
CONTINUOUS
10
106.854
20
-104.289
11
106.935
21
-104.19
0
LINE
8
BLACK
6
CONTINUOUS
10
106.935
20
-104.19
11
107.034
21
-104.109
0
LINE
8
BLACK
6
CONTINUOUS
10
107.034
20
-104.109
11
107.147
21
-104.049
0
LINE
8
BLACK
6
CONTINUOUS
10
107.147
20
-104.049
11
107.269
21
-104.011
0
LINE
8
BLACK
6
CONTINUOUS
10
107.269
20
-104.011
11
107.397
21
-103.999
0
LINE
8
BLACK
6
CONTINUOUS
10
107.397
20
-103.999
11
107.524
21
-104.011
0
LINE
8
BLACK
6
CONTINUOUS
10
102.047
20
-105.802
11
100.747
21
-105.802
0
LINE
8
BLACK
6
CONTINUOUS
10
100.747
20
-105.802
11
100.747
21
-104.002
0
LINE
8
BLACK
6
CONTINUOUS
10
100.747
20
-104.002
11
102.047
21
-104.002
0
LINE
8
BLACK
6
CONTINUOUS
10
102.047
20
-104.002
11
102.047
21
-105.802
0
LINE
8
BLACK
6
CONTINUOUS
10
120.621
20
-104.815
11
117.021
21
-104.815
0
LINE
8
BLACK
6
CONTINUOUS
10
117.021
20
-104.815
11
117.021
21
-101.215
0
LINE
8
BLACK
6
CONTINUOUS
10
117.021
20
-101.215
11
120.621
21
-101.215
0
LINE
8
BLACK
6
CONTINUOUS
10
120.621
20
-101.215
11
120.621
21
-104.815
0
LINE
8
BLACK
6
CONTINUOUS
10
96.901
20
-104.102
11
96.901
21
-102.451
0
LINE
8
BLACK
6
CONTINUOUS
10
96.901
20
-102.451
11
98.3742
21
-102.451
0
LINE
8
BLACK
6
CONTINUOUS
10
98.3742
20
-102.451
11
98.3742
21
-104.102
0
LINE
8
BLACK
6
CONTINUOUS
10
98.3742
20
-104.102
11
96.901
21
-104.102
0
LINE
8
BLACK
6
CONTINUOUS
10
125.321
20
-101.815
11
121.721
21
-101.815
0
LINE
8
BLACK
6
CONTINUOUS
10
121.721
20
-101.815
11
121.721
21
-98.2153
0
LINE
8
BLACK
6
CONTINUOUS
10
121.721
20
-98.2153
11
125.321
21
-98.2153
0
LINE
8
BLACK
6
CONTINUOUS
10
125.321
20
-98.2153
11
125.321
21
-101.815
0
LINE
8
BLACK
6
CONTINUOUS
10
129.77
20
-98.8581
11
129.942
21
-98.9104
0
LINE
8
BLACK
6
CONTINUOUS
10
129.942
20
-98.9104
11
130.101
21
-98.9952
0
LINE
8
BLACK
6
CONTINUOUS
10
130.101
20
-98.9952
11
130.24
21
-99.1094
0
LINE
8
BLACK
6
CONTINUOUS
10
130.24
20
-99.1094
11
130.354
21
-99.2485
0
LINE
8
BLACK
6
CONTINUOUS
10
130.354
20
-99.2485
11
130.439
21
-99.4072
0
LINE
8
BLACK
6
CONTINUOUS
10
130.439
20
-99.4072
11
130.491
21
-99.5794
0
LINE
8
BLACK
6
CONTINUOUS
10
130.491
20
-99.5794
11
130.509
21
-99.7585
0
LINE
8
BLACK
6
CONTINUOUS
10
130.509
20
-99.7585
11
130.491
21
-99.9376
0
LINE
8
BLACK
6
CONTINUOUS
10
130.491
20
-99.9376
11
130.439
21
-100.11
0
LINE
8
BLACK
6
CONTINUOUS
10
130.439
20
-100.11
11
130.354
21
-100.269
0
LINE
8
BLACK
6
CONTINUOUS
10
130.354
20
-100.269
11
130.24
21
-100.408
0
LINE
8
BLACK
6
CONTINUOUS
10
130.24
20
-100.408
11
130.101
21
-100.522
0
LINE
8
BLACK
6
CONTINUOUS
10
130.101
20
-100.522
11
129.942
21
-100.607
0
LINE
8
BLACK
6
CONTINUOUS
10
129.942
20
-100.607
11
129.77
21
-100.659
0
LINE
8
BLACK
6
CONTINUOUS
10
129.77
20
-100.659
11
129.636
21
-100.672
0
LINE
8
BLACK
6
CONTINUOUS
10
129.636
20
-100.672
11
129.241
21
-100.672
0
LINE
8
BLACK
6
CONTINUOUS
10
129.241
20
-100.672
11
129.107
21
-100.659
0
LINE
8
BLACK
6
CONTINUOUS
10
129.107
20
-100.659
11
128.935
21
-100.607
0
LINE
8
BLACK
6
CONTINUOUS
10
128.935
20
-100.607
11
128.776
21
-100.522
0
LINE
8
BLACK
6
CONTINUOUS
10
128.776
20
-100.522
11
128.637
21
-100.408
0
LINE
8
BLACK
6
CONTINUOUS
10
128.637
20
-100.408
11
128.523
21
-100.269
0
LINE
8
BLACK
6
CONTINUOUS
10
128.523
20
-100.269
11
128.438
21
-100.11
0
LINE
8
BLACK
6
CONTINUOUS
10
128.438
20
-100.11
11
128.386
21
-99.9376
0
LINE
8
BLACK
6
CONTINUOUS
10
128.386
20
-99.9376
11
128.368
21
-99.7585
0
LINE
8
BLACK
6
CONTINUOUS
10
128.368
20
-99.7585
11
128.386
21
-99.5794
0
LINE
8
BLACK
6
CONTINUOUS
10
128.386
20
-99.5794
11
128.438
21
-99.4072
0
LINE
8
BLACK
6
CONTINUOUS
10
128.438
20
-99.4072
11
128.523
21
-99.2485
0
LINE
8
BLACK
6
CONTINUOUS
10
128.523
20
-99.2485
11
128.637
21
-99.1094
0
LINE
8
BLACK
6
CONTINUOUS
10
128.637
20
-99.1094
11
128.776
21
-98.9952
0
LINE
8
BLACK
6
CONTINUOUS
10
128.776
20
-98.9952
11
128.935
21
-98.9104
0
LINE
8
BLACK
6
CONTINUOUS
10
128.935
20
-98.9104
11
129.107
21
-98.8581
0
LINE
8
BLACK
6
CONTINUOUS
10
129.107
20
-98.8581
11
129.241
21
-98.8449
0
LINE
8
BLACK
6
CONTINUOUS
10
129.241
20
-98.8449
11
129.636
21
-98.8449
0
LINE
8
BLACK
6
CONTINUOUS
10
129.636
20
-98.8449
11
129.77
21
-98.8581
0
LINE
8
BLACK
6
CONTINUOUS
10
88.7489
20
-98.8581
11
88.9211
21
-98.9104
0
LINE
8
BLACK
6
CONTINUOUS
10
88.9211
20
-98.9104
11
89.0798
21
-98.9952
0
LINE
8
BLACK
6
CONTINUOUS
10
89.0798
20
-98.9952
11
89.2189
21
-99.1094
0
LINE
8
BLACK
6
CONTINUOUS
10
89.2189
20
-99.1094
11
89.3331
21
-99.2485
0
LINE
8
BLACK
6
CONTINUOUS
10
89.3331
20
-99.2485
11
89.4179
21
-99.4072
0
LINE
8
BLACK
6
CONTINUOUS
10
89.4179
20
-99.4072
11
89.4702
21
-99.5794
0
LINE
8
BLACK
6
CONTINUOUS
10
89.4702
20
-99.5794
11
89.4878
21
-99.7585
0
LINE
8
BLACK
6
CONTINUOUS
10
89.4878
20
-99.7585
11
89.4702
21
-99.9376
0
LINE
8
BLACK
6
CONTINUOUS
10
89.4702
20
-99.9376
11
89.4179
21
-100.11
0
LINE
8
BLACK
6
CONTINUOUS
10
89.4179
20
-100.11
11
89.3331
21
-100.269
0
LINE
8
BLACK
6
CONTINUOUS
10
89.3331
20
-100.269
11
89.2189
21
-100.408
0
LINE
8
BLACK
6
CONTINUOUS
10
89.2189
20
-100.408
11
89.0798
21
-100.522
0
LINE
8
BLACK
6
CONTINUOUS
10
89.0798
20
-100.522
11
88.9211
21
-100.607
0
LINE
8
BLACK
6
CONTINUOUS
10
88.9211
20
-100.607
11
88.7489
21
-100.659
0
LINE
8
BLACK
6
CONTINUOUS
10
88.7489
20
-100.659
11
88.6147
21
-100.672
0
LINE
8
BLACK
6
CONTINUOUS
10
88.6147
20
-100.672
11
88.2201
21
-100.672
0
LINE
8
BLACK
6
CONTINUOUS
10
88.2201
20
-100.672
11
88.0859
21
-100.659
0
LINE
8
BLACK
6
CONTINUOUS
10
88.0859
20
-100.659
11
87.9137
21
-100.607
0
LINE
8
BLACK
6
CONTINUOUS
10
87.9137
20
-100.607
11
87.755
21
-100.522
0
LINE
8
BLACK
6
CONTINUOUS
10
87.755
20
-100.522
11
87.6159
21
-100.408
0
LINE
8
BLACK
6
CONTINUOUS
10
87.6159
20
-100.408
11
87.5017
21
-100.269
0
LINE
8
BLACK
6
CONTINUOUS
10
87.5017
20
-100.269
11
87.4169
21
-100.11
0
LINE
8
BLACK
6
CONTINUOUS
10
87.4169
20
-100.11
11
87.3646
21
-99.9376
0
LINE
8
BLACK
6
CONTINUOUS
10
87.3646
20
-99.9376
11
87.347
21
-99.7585
0
LINE
8
BLACK
6
CONTINUOUS
10
87.347
20
-99.7585
11
87.3646
21
-99.5794
0
LINE
8
BLACK
6
CONTINUOUS
10
87.3646
20
-99.5794
11
87.4169
21
-99.4072
0
LINE
8
BLACK
6
CONTINUOUS
10
87.4169
20
-99.4072
11
87.5017
21
-99.2485
0
LINE
8
BLACK
6
CONTINUOUS
10
87.5017
20
-99.2485
11
87.6159
21
-99.1094
0
LINE
8
BLACK
6
CONTINUOUS
10
87.6159
20
-99.1094
11
87.755
21
-98.9952
0
LINE
8
BLACK
6
CONTINUOUS
10
87.755
20
-98.9952
11
87.9137
21
-98.9104
0
LINE
8
BLACK
6
CONTINUOUS
10
87.9137
20
-98.9104
11
88.0859
21
-98.8581
0
LINE
8
BLACK
6
CONTINUOUS
10
88.0859
20
-98.8581
11
88.2201
21
-98.8449
0
LINE
8
BLACK
6
CONTINUOUS
10
88.2201
20
-98.8449
11
88.6147
21
-98.8449
0
LINE
8
BLACK
6
CONTINUOUS
10
88.6147
20
-98.8449
11
88.7489
21
-98.8581
0
LINE
8
BLACK
6
CONTINUOUS
10
120.621
20
-98.8153
11
117.021
21
-98.8153
0
LINE
8
BLACK
6
CONTINUOUS
10
117.021
20
-98.8153
11
117.021
21
-95.2153
0
LINE
8
BLACK
6
CONTINUOUS
10
117.021
20
-95.2153
11
120.621
21
-95.2153
0
LINE
8
BLACK
6
CONTINUOUS
10
120.621
20
-95.2153
11
120.621
21
-98.8153
0
LINE
8
BLACK
6
CONTINUOUS
10
129.77
20
-96.3181
11
129.942
21
-96.3704
0
LINE
8
BLACK
6
CONTINUOUS
10
129.942
20
-96.3704
11
130.101
21
-96.4552
0
LINE
8
BLACK
6
CONTINUOUS
10
130.101
20
-96.4552
11
130.24
21
-96.5694
0
LINE
8
BLACK
6
CONTINUOUS
10
130.24
20
-96.5694
11
130.354
21
-96.7085
0
LINE
8
BLACK
6
CONTINUOUS
10
130.354
20
-96.7085
11
130.439
21
-96.8672
0
LINE
8
BLACK
6
CONTINUOUS
10
130.439
20
-96.8672
11
130.491
21
-97.0394
0
LINE
8
BLACK
6
CONTINUOUS
10
130.491
20
-97.0394
11
130.509
21
-97.2185
0
LINE
8
BLACK
6
CONTINUOUS
10
130.509
20
-97.2185
11
130.491
21
-97.3976
0
LINE
8
BLACK
6
CONTINUOUS
10
130.491
20
-97.3976
11
130.439
21
-97.5698
0
LINE
8
BLACK
6
CONTINUOUS
10
130.439
20
-97.5698
11
130.354
21
-97.7285
0
LINE
8
BLACK
6
CONTINUOUS
10
130.354
20
-97.7285
11
130.24
21
-97.8676
0
LINE
8
BLACK
6
CONTINUOUS
10
130.24
20
-97.8676
11
130.101
21
-97.9818
0
LINE
8
BLACK
6
CONTINUOUS
10
130.101
20
-97.9818
11
129.942
21
-98.0666
0
LINE
8
BLACK
6
CONTINUOUS
10
129.942
20
-98.0666
11
129.77
21
-98.1189
0
LINE
8
BLACK
6
CONTINUOUS
10
129.77
20
-98.1189
11
129.636
21
-98.1321
0
LINE
8
BLACK
6
CONTINUOUS
10
129.636
20
-98.1321
11
129.241
21
-98.1321
0
LINE
8
BLACK
6
CONTINUOUS
10
129.241
20
-98.1321
11
129.107
21
-98.1189
0
LINE
8
BLACK
6
CONTINUOUS
10
129.107
20
-98.1189
11
128.935
21
-98.0666
0
LINE
8
BLACK
6
CONTINUOUS
10
128.935
20
-98.0666
11
128.776
21
-97.9818
0
LINE
8
BLACK
6
CONTINUOUS
10
128.776
20
-97.9818
11
128.637
21
-97.8676
0
LINE
8
BLACK
6
CONTINUOUS
10
128.637
20
-97.8676
11
128.523
21
-97.7285
0
LINE
8
BLACK
6
CONTINUOUS
10
128.523
20
-97.7285
11
128.438
21
-97.5698
0
LINE
8
BLACK
6
CONTINUOUS
10
128.438
20
-97.5698
11
128.386
21
-97.3976
0
LINE
8
BLACK
6
CONTINUOUS
10
128.386
20
-97.3976
11
128.368
21
-97.2185
0
LINE
8
BLACK
6
CONTINUOUS
10
128.368
20
-97.2185
11
128.386
21
-97.0394
0
LINE
8
BLACK
6
CONTINUOUS
10
128.386
20
-97.0394
11
128.438
21
-96.8672
0
LINE
8
BLACK
6
CONTINUOUS
10
128.438
20
-96.8672
11
128.523
21
-96.7085
0
LINE
8
BLACK
6
CONTINUOUS
10
128.523
20
-96.7085
11
128.637
21
-96.5694
0
LINE
8
BLACK
6
CONTINUOUS
10
128.637
20
-96.5694
11
128.776
21
-96.4552
0
LINE
8
BLACK
6
CONTINUOUS
10
128.776
20
-96.4552
11
128.935
21
-96.3704
0
LINE
8
BLACK
6
CONTINUOUS
10
128.935
20
-96.3704
11
129.107
21
-96.3181
0
LINE
8
BLACK
6
CONTINUOUS
10
129.107
20
-96.3181
11
129.241
21
-96.3049
0
LINE
8
BLACK
6
CONTINUOUS
10
129.241
20
-96.3049
11
129.636
21
-96.3049
0
LINE
8
BLACK
6
CONTINUOUS
10
129.636
20
-96.3049
11
129.77
21
-96.3181
0
LINE
8
BLACK
6
CONTINUOUS
10
88.7489
20
-96.3181
11
88.9211
21
-96.3704
0
LINE
8
BLACK
6
CONTINUOUS
10
88.9211
20
-96.3704
11
89.0798
21
-96.4552
0
LINE
8
BLACK
6
CONTINUOUS
10
89.0798
20
-96.4552
11
89.2189
21
-96.5694
0
LINE
8
BLACK
6
CONTINUOUS
10
89.2189
20
-96.5694
11
89.3331
21
-96.7085
0
LINE
8
BLACK
6
CONTINUOUS
10
89.3331
20
-96.7085
11
89.4179
21
-96.8672
0
LINE
8
BLACK
6
CONTINUOUS
10
89.4179
20
-96.8672
11
89.4702
21
-97.0394
0
LINE
8
BLACK
6
CONTINUOUS
10
89.4702
20
-97.0394
11
89.4878
21
-97.2185
0
LINE
8
BLACK
6
CONTINUOUS
10
89.4878
20
-97.2185
11
89.4702
21
-97.3976
0
LINE
8
BLACK
6
CONTINUOUS
10
89.4702
20
-97.3976
11
89.4179
21
-97.5698
0
LINE
8
BLACK
6
CONTINUOUS
10
89.4179
20
-97.5698
11
89.3331
21
-97.7285
0
LINE
8
BLACK
6
CONTINUOUS
10
89.3331
20
-97.7285
11
89.2189
21
-97.8676
0
LINE
8
BLACK
6
CONTINUOUS
10
89.2189
20
-97.8676
11
89.0798
21
-97.9818
0
LINE
8
BLACK
6
CONTINUOUS
10
89.0798
20
-97.9818
11
88.9211
21
-98.0666
0
LINE
8
BLACK
6
CONTINUOUS
10
88.9211
20
-98.0666
11
88.7489
21
-98.1189
0
LINE
8
BLACK
6
CONTINUOUS
10
88.7489
20
-98.1189
11
88.6147
21
-98.1321
0
LINE
8
BLACK
6
CONTINUOUS
10
88.6147
20
-98.1321
11
88.2201
21
-98.1321
0
LINE
8
BLACK
6
CONTINUOUS
10
88.2201
20
-98.1321
11
88.0859
21
-98.1189
0
LINE
8
BLACK
6
CONTINUOUS
10
88.0859
20
-98.1189
11
87.9137
21
-98.0666
0
LINE
8
BLACK
6
CONTINUOUS
10
87.9137
20
-98.0666
11
87.755
21
-97.9818
0
LINE
8
BLACK
6
CONTINUOUS
10
87.755
20
-97.9818
11
87.6159
21
-97.8676
0
LINE
8
BLACK
6
CONTINUOUS
10
87.6159
20
-97.8676
11
87.5017
21
-97.7285
0
LINE
8
BLACK
6
CONTINUOUS
10
87.5017
20
-97.7285
11
87.4169
21
-97.5698
0
LINE
8
BLACK
6
CONTINUOUS
10
87.4169
20
-97.5698
11
87.3646
21
-97.3976
0
LINE
8
BLACK
6
CONTINUOUS
10
87.3646
20
-97.3976
11
87.347
21
-97.2185
0
LINE
8
BLACK
6
CONTINUOUS
10
87.347
20
-97.2185
11
87.3646
21
-97.0394
0
LINE
8
BLACK
6
CONTINUOUS
10
87.3646
20
-97.0394
11
87.4169
21
-96.8672
0
LINE
8
BLACK
6
CONTINUOUS
10
87.4169
20
-96.8672
11
87.5017
21
-96.7085
0
LINE
8
BLACK
6
CONTINUOUS
10
87.5017
20
-96.7085
11
87.6159
21
-96.5694
0
LINE
8
BLACK
6
CONTINUOUS
10
87.6159
20
-96.5694
11
87.755
21
-96.4552
0
LINE
8
BLACK
6
CONTINUOUS
10
87.755
20
-96.4552
11
87.9137
21
-96.3704
0
LINE
8
BLACK
6
CONTINUOUS
10
87.9137
20
-96.3704
11
88.0859
21
-96.3181
0
LINE
8
BLACK
6
CONTINUOUS
10
88.0859
20
-96.3181
11
88.2201
21
-96.3049
0
LINE
8
BLACK
6
CONTINUOUS
10
88.2201
20
-96.3049
11
88.6147
21
-96.3049
0
LINE
8
BLACK
6
CONTINUOUS
10
88.6147
20
-96.3049
11
88.7489
21
-96.3181
0
LINE
8
BLACK
6
CONTINUOUS
10
88.7489
20
-93.7781
11
88.9211
21
-93.8304
0
LINE
8
BLACK
6
CONTINUOUS
10
88.9211
20
-93.8304
11
89.0798
21
-93.9152
0
LINE
8
BLACK
6
CONTINUOUS
10
89.0798
20
-93.9152
11
89.2189
21
-94.0294
0
LINE
8
BLACK
6
CONTINUOUS
10
89.2189
20
-94.0294
11
89.3331
21
-94.1685
0
LINE
8
BLACK
6
CONTINUOUS
10
89.3331
20
-94.1685
11
89.4179
21
-94.3272
0
LINE
8
BLACK
6
CONTINUOUS
10
89.4179
20
-94.3272
11
89.4702
21
-94.4994
0
LINE
8
BLACK
6
CONTINUOUS
10
89.4702
20
-94.4994
11
89.4878
21
-94.6785
0
LINE
8
BLACK
6
CONTINUOUS
10
89.4878
20
-94.6785
11
89.4702
21
-94.8576
0
LINE
8
BLACK
6
CONTINUOUS
10
89.4702
20
-94.8576
11
89.4179
21
-95.0298
0
LINE
8
BLACK
6
CONTINUOUS
10
89.4179
20
-95.0298
11
89.3331
21
-95.1885
0
LINE
8
BLACK
6
CONTINUOUS
10
89.3331
20
-95.1885
11
89.2189
21
-95.3276
0
LINE
8
BLACK
6
CONTINUOUS
10
89.2189
20
-95.3276
11
89.0798
21
-95.4418
0
LINE
8
BLACK
6
CONTINUOUS
10
89.0798
20
-95.4418
11
88.9211
21
-95.5266
0
LINE
8
BLACK
6
CONTINUOUS
10
88.9211
20
-95.5266
11
88.7489
21
-95.5789
0
LINE
8
BLACK
6
CONTINUOUS
10
88.7489
20
-95.5789
11
88.6147
21
-95.5921
0
LINE
8
BLACK
6
CONTINUOUS
10
88.6147
20
-95.5921
11
88.2201
21
-95.5921
0
LINE
8
BLACK
6
CONTINUOUS
10
88.2201
20
-95.5921
11
88.0859
21
-95.5789
0
LINE
8
BLACK
6
CONTINUOUS
10
88.0859
20
-95.5789
11
87.9137
21
-95.5266
0
LINE
8
BLACK
6
CONTINUOUS
10
87.9137
20
-95.5266
11
87.755
21
-95.4418
0
LINE
8
BLACK
6
CONTINUOUS
10
87.755
20
-95.4418
11
87.6159
21
-95.3276
0
LINE
8
BLACK
6
CONTINUOUS
10
87.6159
20
-95.3276
11
87.5017
21
-95.1885
0
LINE
8
BLACK
6
CONTINUOUS
10
87.5017
20
-95.1885
11
87.4169
21
-95.0298
0
LINE
8
BLACK
6
CONTINUOUS
10
87.4169
20
-95.0298
11
87.3646
21
-94.8576
0
LINE
8
BLACK
6
CONTINUOUS
10
87.3646
20
-94.8576
11
87.347
21
-94.6785
0
LINE
8
BLACK
6
CONTINUOUS
10
87.347
20
-94.6785
11
87.3646
21
-94.4994
0
LINE
8
BLACK
6
CONTINUOUS
10
87.3646
20
-94.4994
11
87.4169
21
-94.3272
0
LINE
8
BLACK
6
CONTINUOUS
10
87.4169
20
-94.3272
11
87.5017
21
-94.1685
0
LINE
8
BLACK
6
CONTINUOUS
10
87.5017
20
-94.1685
11
87.6159
21
-94.0294
0
LINE
8
BLACK
6
CONTINUOUS
10
87.6159
20
-94.0294
11
87.755
21
-93.9152
0
LINE
8
BLACK
6
CONTINUOUS
10
87.755
20
-93.9152
11
87.9137
21
-93.8304
0
LINE
8
BLACK
6
CONTINUOUS
10
87.9137
20
-93.8304
11
88.0859
21
-93.7781
0
LINE
8
BLACK
6
CONTINUOUS
10
88.0859
20
-93.7781
11
88.2201
21
-93.7649
0
LINE
8
BLACK
6
CONTINUOUS
10
88.2201
20
-93.7649
11
88.6147
21
-93.7649
0
LINE
8
BLACK
6
CONTINUOUS
10
88.6147
20
-93.7649
11
88.7489
21
-93.7781
0
LINE
8
BLACK
6
CONTINUOUS
10
129.77
20
-93.7781
11
129.942
21
-93.8304
0
LINE
8
BLACK
6
CONTINUOUS
10
129.942
20
-93.8304
11
130.101
21
-93.9152
0
LINE
8
BLACK
6
CONTINUOUS
10
130.101
20
-93.9152
11
130.24
21
-94.0294
0
LINE
8
BLACK
6
CONTINUOUS
10
130.24
20
-94.0294
11
130.354
21
-94.1685
0
LINE
8
BLACK
6
CONTINUOUS
10
130.354
20
-94.1685
11
130.439
21
-94.3272
0
LINE
8
BLACK
6
CONTINUOUS
10
130.439
20
-94.3272
11
130.491
21
-94.4994
0
LINE
8
BLACK
6
CONTINUOUS
10
130.491
20
-94.4994
11
130.509
21
-94.6785
0
LINE
8
BLACK
6
CONTINUOUS
10
130.509
20
-94.6785
11
130.491
21
-94.8576
0
LINE
8
BLACK
6
CONTINUOUS
10
130.491
20
-94.8576
11
130.439
21
-95.0298
0
LINE
8
BLACK
6
CONTINUOUS
10
130.439
20
-95.0298
11
130.354
21
-95.1885
0
LINE
8
BLACK
6
CONTINUOUS
10
130.354
20
-95.1885
11
130.24
21
-95.3276
0
LINE
8
BLACK
6
CONTINUOUS
10
130.24
20
-95.3276
11
130.101
21
-95.4418
0
LINE
8
BLACK
6
CONTINUOUS
10
130.101
20
-95.4418
11
129.942
21
-95.5266
0
LINE
8
BLACK
6
CONTINUOUS
10
129.942
20
-95.5266
11
129.77
21
-95.5789
0
LINE
8
BLACK
6
CONTINUOUS
10
129.77
20
-95.5789
11
129.636
21
-95.5921
0
LINE
8
BLACK
6
CONTINUOUS
10
129.636
20
-95.5921
11
129.241
21
-95.5921
0
LINE
8
BLACK
6
CONTINUOUS
10
129.241
20
-95.5921
11
129.107
21
-95.5789
0
LINE
8
BLACK
6
CONTINUOUS
10
129.107
20
-95.5789
11
128.935
21
-95.5266
0
LINE
8
BLACK
6
CONTINUOUS
10
128.935
20
-95.5266
11
128.776
21
-95.4418
0
LINE
8
BLACK
6
CONTINUOUS
10
128.776
20
-95.4418
11
128.637
21
-95.3276
0
LINE
8
BLACK
6
CONTINUOUS
10
128.637
20
-95.3276
11
128.523
21
-95.1885
0
LINE
8
BLACK
6
CONTINUOUS
10
128.523
20
-95.1885
11
128.438
21
-95.0298
0
LINE
8
BLACK
6
CONTINUOUS
10
128.438
20
-95.0298
11
128.386
21
-94.8576
0
LINE
8
BLACK
6
CONTINUOUS
10
128.386
20
-94.8576
11
128.368
21
-94.6785
0
LINE
8
BLACK
6
CONTINUOUS
10
128.368
20
-94.6785
11
128.386
21
-94.4994
0
LINE
8
BLACK
6
CONTINUOUS
10
128.386
20
-94.4994
11
128.438
21
-94.3272
0
LINE
8
BLACK
6
CONTINUOUS
10
128.438
20
-94.3272
11
128.523
21
-94.1685
0
LINE
8
BLACK
6
CONTINUOUS
10
128.523
20
-94.1685
11
128.637
21
-94.0294
0
LINE
8
BLACK
6
CONTINUOUS
10
128.637
20
-94.0294
11
128.776
21
-93.9152
0
LINE
8
BLACK
6
CONTINUOUS
10
128.776
20
-93.9152
11
128.935
21
-93.8304
0
LINE
8
BLACK
6
CONTINUOUS
10
128.935
20
-93.8304
11
129.107
21
-93.7781
0
LINE
8
BLACK
6
CONTINUOUS
10
129.107
20
-93.7781
11
129.241
21
-93.7649
0
LINE
8
BLACK
6
CONTINUOUS
10
129.241
20
-93.7649
11
129.636
21
-93.7649
0
LINE
8
BLACK
6
CONTINUOUS
10
129.636
20
-93.7649
11
129.77
21
-93.7781
0
LINE
8
BLACK
6
CONTINUOUS
10
98.8411
20
-91.8717
11
99.0306
21
-91.9502
0
LINE
8
BLACK
6
CONTINUOUS
10
99.0306
20
-91.9502
11
99.2012
21
-92.0642
0
LINE
8
BLACK
6
CONTINUOUS
10
99.2012
20
-92.0642
11
99.3462
21
-92.2092
0
LINE
8
BLACK
6
CONTINUOUS
10
99.3462
20
-92.2092
11
99.4602
21
-92.3798
0
LINE
8
BLACK
6
CONTINUOUS
10
99.4602
20
-92.3798
11
99.5387
21
-92.5693
0
LINE
8
BLACK
6
CONTINUOUS
10
99.5387
20
-92.5693
11
99.5787
21
-92.7705
0
LINE
8
BLACK
6
CONTINUOUS
10
99.5787
20
-92.7705
11
99.5787
21
-92.9757
0
LINE
8
BLACK
6
CONTINUOUS
10
99.5787
20
-92.9757
11
99.5387
21
-93.1769
0
LINE
8
BLACK
6
CONTINUOUS
10
99.5387
20
-93.1769
11
99.4602
21
-93.3664
0
LINE
8
BLACK
6
CONTINUOUS
10
99.4602
20
-93.3664
11
99.3462
21
-93.537
0
LINE
8
BLACK
6
CONTINUOUS
10
99.3462
20
-93.537
11
99.2012
21
-93.682
0
LINE
8
BLACK
6
CONTINUOUS
10
99.2012
20
-93.682
11
99.0306
21
-93.796
0
LINE
8
BLACK
6
CONTINUOUS
10
99.0306
20
-93.796
11
98.8411
21
-93.8745
0
LINE
8
BLACK
6
CONTINUOUS
10
98.8411
20
-93.8745
11
98.6399
21
-93.9145
0
LINE
8
BLACK
6
CONTINUOUS
10
98.6399
20
-93.9145
11
98.4347
21
-93.9145
0
LINE
8
BLACK
6
CONTINUOUS
10
98.4347
20
-93.9145
11
98.2335
21
-93.8745
0
LINE
8
BLACK
6
CONTINUOUS
10
98.2335
20
-93.8745
11
98.044
21
-93.796
0
LINE
8
BLACK
6
CONTINUOUS
10
98.044
20
-93.796
11
97.8734
21
-93.682
0
LINE
8
BLACK
6
CONTINUOUS
10
97.8734
20
-93.682
11
97.7284
21
-93.537
0
LINE
8
BLACK
6
CONTINUOUS
10
97.7284
20
-93.537
11
97.6144
21
-93.3664
0
LINE
8
BLACK
6
CONTINUOUS
10
97.6144
20
-93.3664
11
97.5359
21
-93.1769
0
LINE
8
BLACK
6
CONTINUOUS
10
97.5359
20
-93.1769
11
97.4959
21
-92.9757
0
LINE
8
BLACK
6
CONTINUOUS
10
97.4959
20
-92.9757
11
97.4959
21
-92.7705
0
LINE
8
BLACK
6
CONTINUOUS
10
97.4959
20
-92.7705
11
97.5359
21
-92.5693
0
LINE
8
BLACK
6
CONTINUOUS
10
97.5359
20
-92.5693
11
97.6144
21
-92.3798
0
LINE
8
BLACK
6
CONTINUOUS
10
97.6144
20
-92.3798
11
97.7284
21
-92.2092
0
LINE
8
BLACK
6
CONTINUOUS
10
97.7284
20
-92.2092
11
97.8734
21
-92.0642
0
LINE
8
BLACK
6
CONTINUOUS
10
97.8734
20
-92.0642
11
98.044
21
-91.9502
0
LINE
8
BLACK
6
CONTINUOUS
10
98.044
20
-91.9502
11
98.2335
21
-91.8717
0
LINE
8
BLACK
6
CONTINUOUS
10
98.2335
20
-91.8717
11
98.4347
21
-91.8317
0
LINE
8
BLACK
6
CONTINUOUS
10
98.4347
20
-91.8317
11
98.6399
21
-91.8317
0
LINE
8
BLACK
6
CONTINUOUS
10
98.6399
20
-91.8317
11
98.8411
21
-91.8717
0
LINE
8
BLACK
6
CONTINUOUS
10
88.7489
20
-91.2381
11
88.9211
21
-91.2904
0
LINE
8
BLACK
6
CONTINUOUS
10
88.9211
20
-91.2904
11
89.0798
21
-91.3752
0
LINE
8
BLACK
6
CONTINUOUS
10
89.0798
20
-91.3752
11
89.2189
21
-91.4894
0
LINE
8
BLACK
6
CONTINUOUS
10
89.2189
20
-91.4894
11
89.3331
21
-91.6285
0
LINE
8
BLACK
6
CONTINUOUS
10
89.3331
20
-91.6285
11
89.4179
21
-91.7872
0
LINE
8
BLACK
6
CONTINUOUS
10
89.4179
20
-91.7872
11
89.4702
21
-91.9594
0
LINE
8
BLACK
6
CONTINUOUS
10
89.4702
20
-91.9594
11
89.4878
21
-92.1385
0
LINE
8
BLACK
6
CONTINUOUS
10
89.4878
20
-92.1385
11
89.4702
21
-92.3176
0
LINE
8
BLACK
6
CONTINUOUS
10
89.4702
20
-92.3176
11
89.4179
21
-92.4898
0
LINE
8
BLACK
6
CONTINUOUS
10
89.4179
20
-92.4898
11
89.3331
21
-92.6485
0
LINE
8
BLACK
6
CONTINUOUS
10
89.3331
20
-92.6485
11
89.2189
21
-92.7876
0
LINE
8
BLACK
6
CONTINUOUS
10
89.2189
20
-92.7876
11
89.0798
21
-92.9018
0
LINE
8
BLACK
6
CONTINUOUS
10
89.0798
20
-92.9018
11
88.9211
21
-92.9866
0
LINE
8
BLACK
6
CONTINUOUS
10
88.9211
20
-92.9866
11
88.7489
21
-93.0389
0
LINE
8
BLACK
6
CONTINUOUS
10
88.7489
20
-93.0389
11
88.6147
21
-93.0521
0
LINE
8
BLACK
6
CONTINUOUS
10
88.6147
20
-93.0521
11
88.2201
21
-93.0521
0
LINE
8
BLACK
6
CONTINUOUS
10
88.2201
20
-93.0521
11
88.0859
21
-93.0389
0
LINE
8
BLACK
6
CONTINUOUS
10
88.0859
20
-93.0389
11
87.9137
21
-92.9866
0
LINE
8
BLACK
6
CONTINUOUS
10
87.9137
20
-92.9866
11
87.755
21
-92.9018
0
LINE
8
BLACK
6
CONTINUOUS
10
87.755
20
-92.9018
11
87.6159
21
-92.7876
0
LINE
8
BLACK
6
CONTINUOUS
10
87.6159
20
-92.7876
11
87.5017
21
-92.6485
0
LINE
8
BLACK
6
CONTINUOUS
10
87.5017
20
-92.6485
11
87.4169
21
-92.4898
0
LINE
8
BLACK
6
CONTINUOUS
10
87.4169
20
-92.4898
11
87.3646
21
-92.3176
0
LINE
8
BLACK
6
CONTINUOUS
10
87.3646
20
-92.3176
11
87.347
21
-92.1385
0
LINE
8
BLACK
6
CONTINUOUS
10
87.347
20
-92.1385
11
87.3646
21
-91.9594
0
LINE
8
BLACK
6
CONTINUOUS
10
87.3646
20
-91.9594
11
87.4169
21
-91.7872
0
LINE
8
BLACK
6
CONTINUOUS
10
87.4169
20
-91.7872
11
87.5017
21
-91.6285
0
LINE
8
BLACK
6
CONTINUOUS
10
87.5017
20
-91.6285
11
87.6159
21
-91.4894
0
LINE
8
BLACK
6
CONTINUOUS
10
87.6159
20
-91.4894
11
87.755
21
-91.3752
0
LINE
8
BLACK
6
CONTINUOUS
10
87.755
20
-91.3752
11
87.9137
21
-91.2904
0
LINE
8
BLACK
6
CONTINUOUS
10
87.9137
20
-91.2904
11
88.0859
21
-91.2381
0
LINE
8
BLACK
6
CONTINUOUS
10
88.0859
20
-91.2381
11
88.2201
21
-91.2249
0
LINE
8
BLACK
6
CONTINUOUS
10
88.2201
20
-91.2249
11
88.6147
21
-91.2249
0
LINE
8
BLACK
6
CONTINUOUS
10
88.6147
20
-91.2249
11
88.7489
21
-91.2381
0
LINE
8
BLACK
6
CONTINUOUS
10
129.77
20
-91.2381
11
129.942
21
-91.2904
0
LINE
8
BLACK
6
CONTINUOUS
10
129.942
20
-91.2904
11
130.101
21
-91.3752
0
LINE
8
BLACK
6
CONTINUOUS
10
130.101
20
-91.3752
11
130.24
21
-91.4894
0
LINE
8
BLACK
6
CONTINUOUS
10
130.24
20
-91.4894
11
130.354
21
-91.6285
0
LINE
8
BLACK
6
CONTINUOUS
10
130.354
20
-91.6285
11
130.439
21
-91.7872
0
LINE
8
BLACK
6
CONTINUOUS
10
130.439
20
-91.7872
11
130.491
21
-91.9594
0
LINE
8
BLACK
6
CONTINUOUS
10
130.491
20
-91.9594
11
130.509
21
-92.1385
0
LINE
8
BLACK
6
CONTINUOUS
10
130.509
20
-92.1385
11
130.491
21
-92.3176
0
LINE
8
BLACK
6
CONTINUOUS
10
130.491
20
-92.3176
11
130.439
21
-92.4898
0
LINE
8
BLACK
6
CONTINUOUS
10
130.439
20
-92.4898
11
130.354
21
-92.6485
0
LINE
8
BLACK
6
CONTINUOUS
10
130.354
20
-92.6485
11
130.24
21
-92.7876
0
LINE
8
BLACK
6
CONTINUOUS
10
130.24
20
-92.7876
11
130.101
21
-92.9018
0
LINE
8
BLACK
6
CONTINUOUS
10
130.101
20
-92.9018
11
129.942
21
-92.9866
0
LINE
8
BLACK
6
CONTINUOUS
10
129.942
20
-92.9866
11
129.77
21
-93.0389
0
LINE
8
BLACK
6
CONTINUOUS
10
129.77
20
-93.0389
11
129.636
21
-93.0521
0
LINE
8
BLACK
6
CONTINUOUS
10
129.636
20
-93.0521
11
129.241
21
-93.0521
0
LINE
8
BLACK
6
CONTINUOUS
10
129.241
20
-93.0521
11
129.107
21
-93.0389
0
LINE
8
BLACK
6
CONTINUOUS
10
129.107
20
-93.0389
11
128.935
21
-92.9866
0
LINE
8
BLACK
6
CONTINUOUS
10
128.935
20
-92.9866
11
128.776
21
-92.9018
0
LINE
8
BLACK
6
CONTINUOUS
10
128.776
20
-92.9018
11
128.637
21
-92.7876
0
LINE
8
BLACK
6
CONTINUOUS
10
128.637
20
-92.7876
11
128.523
21
-92.6485
0
LINE
8
BLACK
6
CONTINUOUS
10
128.523
20
-92.6485
11
128.438
21
-92.4898
0
LINE
8
BLACK
6
CONTINUOUS
10
128.438
20
-92.4898
11
128.386
21
-92.3176
0
LINE
8
BLACK
6
CONTINUOUS
10
128.386
20
-92.3176
11
128.368
21
-92.1385
0
LINE
8
BLACK
6
CONTINUOUS
10
128.368
20
-92.1385
11
128.386
21
-91.9594
0
LINE
8
BLACK
6
CONTINUOUS
10
128.386
20
-91.9594
11
128.438
21
-91.7872
0
LINE
8
BLACK
6
CONTINUOUS
10
128.438
20
-91.7872
11
128.523
21
-91.6285
0
LINE
8
BLACK
6
CONTINUOUS
10
128.523
20
-91.6285
11
128.637
21
-91.4894
0
LINE
8
BLACK
6
CONTINUOUS
10
128.637
20
-91.4894
11
128.776
21
-91.3752
0
LINE
8
BLACK
6
CONTINUOUS
10
128.776
20
-91.3752
11
128.935
21
-91.2904
0
LINE
8
BLACK
6
CONTINUOUS
10
128.935
20
-91.2904
11
129.107
21
-91.2381
0
LINE
8
BLACK
6
CONTINUOUS
10
129.107
20
-91.2381
11
129.241
21
-91.2249
0
LINE
8
BLACK
6
CONTINUOUS
10
129.241
20
-91.2249
11
129.636
21
-91.2249
0
LINE
8
BLACK
6
CONTINUOUS
10
129.636
20
-91.2249
11
129.77
21
-91.2381
0
LINE
8
BLACK
6
CONTINUOUS
10
97.045
20
-90.0757
11
97.2345
21
-90.1542
0
LINE
8
BLACK
6
CONTINUOUS
10
97.2345
20
-90.1542
11
97.4051
21
-90.2681
0
LINE
8
BLACK
6
CONTINUOUS
10
97.4051
20
-90.2681
11
97.5502
21
-90.4132
0
LINE
8
BLACK
6
CONTINUOUS
10
97.5502
20
-90.4132
11
97.6641
21
-90.5838
0
LINE
8
BLACK
6
CONTINUOUS
10
97.6641
20
-90.5838
11
97.7426
21
-90.7733
0
LINE
8
BLACK
6
CONTINUOUS
10
97.7426
20
-90.7733
11
97.7827
21
-90.9745
0
LINE
8
BLACK
6
CONTINUOUS
10
97.7827
20
-90.9745
11
97.7827
21
-91.1796
0
LINE
8
BLACK
6
CONTINUOUS
10
97.7827
20
-91.1796
11
97.7426
21
-91.3808
0
LINE
8
BLACK
6
CONTINUOUS
10
97.7426
20
-91.3808
11
97.6641
21
-91.5703
0
LINE
8
BLACK
6
CONTINUOUS
10
97.6641
20
-91.5703
11
97.5502
21
-91.7409
0
LINE
8
BLACK
6
CONTINUOUS
10
97.5502
20
-91.7409
11
97.4051
21
-91.886
0
LINE
8
BLACK
6
CONTINUOUS
10
97.4051
20
-91.886
11
97.2345
21
-91.9999
0
LINE
8
BLACK
6
CONTINUOUS
10
97.2345
20
-91.9999
11
97.045
21
-92.0784
0
LINE
8
BLACK
6
CONTINUOUS
10
97.045
20
-92.0784
11
96.8438
21
-92.1185
0
LINE
8
BLACK
6
CONTINUOUS
10
96.8438
20
-92.1185
11
96.6387
21
-92.1185
0
LINE
8
BLACK
6
CONTINUOUS
10
96.6387
20
-92.1185
11
96.4375
21
-92.0784
0
LINE
8
BLACK
6
CONTINUOUS
10
96.4375
20
-92.0784
11
96.248
21
-91.9999
0
LINE
8
BLACK
6
CONTINUOUS
10
96.248
20
-91.9999
11
96.0774
21
-91.886
0
LINE
8
BLACK
6
CONTINUOUS
10
96.0774
20
-91.886
11
95.9323
21
-91.7409
0
LINE
8
BLACK
6
CONTINUOUS
10
95.9323
20
-91.7409
11
95.8184
21
-91.5703
0
LINE
8
BLACK
6
CONTINUOUS
10
95.8184
20
-91.5703
11
95.7399
21
-91.3808
0
LINE
8
BLACK
6
CONTINUOUS
10
95.7399
20
-91.3808
11
95.6999
21
-91.1796
0
LINE
8
BLACK
6
CONTINUOUS
10
95.6999
20
-91.1796
11
95.6999
21
-90.9745
0
LINE
8
BLACK
6
CONTINUOUS
10
95.6999
20
-90.9745
11
95.7399
21
-90.7733
0
LINE
8
BLACK
6
CONTINUOUS
10
95.7399
20
-90.7733
11
95.8184
21
-90.5838
0
LINE
8
BLACK
6
CONTINUOUS
10
95.8184
20
-90.5838
11
95.9323
21
-90.4132
0
LINE
8
BLACK
6
CONTINUOUS
10
95.9323
20
-90.4132
11
96.0774
21
-90.2681
0
LINE
8
BLACK
6
CONTINUOUS
10
96.0774
20
-90.2681
11
96.248
21
-90.1542
0
LINE
8
BLACK
6
CONTINUOUS
10
96.248
20
-90.1542
11
96.4375
21
-90.0757
0
LINE
8
BLACK
6
CONTINUOUS
10
96.4375
20
-90.0757
11
96.6387
21
-90.0357
0
LINE
8
BLACK
6
CONTINUOUS
10
96.6387
20
-90.0357
11
96.8438
21
-90.0357
0
LINE
8
BLACK
6
CONTINUOUS
10
96.8438
20
-90.0357
11
97.045
21
-90.0757
0
LINE
8
BLACK
6
CONTINUOUS
10
100.637
20
-90.0757
11
100.827
21
-90.1542
0
LINE
8
BLACK
6
CONTINUOUS
10
100.827
20
-90.1542
11
100.997
21
-90.2681
0
LINE
8
BLACK
6
CONTINUOUS
10
100.997
20
-90.2681
11
101.142
21
-90.4132
0
LINE
8
BLACK
6
CONTINUOUS
10
101.142
20
-90.4132
11
101.256
21
-90.5838
0
LINE
8
BLACK
6
CONTINUOUS
10
101.256
20
-90.5838
11
101.335
21
-90.7733
0
LINE
8
BLACK
6
CONTINUOUS
10
101.335
20
-90.7733
11
101.375
21
-90.9745
0
LINE
8
BLACK
6
CONTINUOUS
10
101.375
20
-90.9745
11
101.375
21
-91.1796
0
LINE
8
BLACK
6
CONTINUOUS
10
101.375
20
-91.1796
11
101.335
21
-91.3808
0
LINE
8
BLACK
6
CONTINUOUS
10
101.335
20
-91.3808
11
101.256
21
-91.5703
0
LINE
8
BLACK
6
CONTINUOUS
10
101.256
20
-91.5703
11
101.142
21
-91.7409
0
LINE
8
BLACK
6
CONTINUOUS
10
101.142
20
-91.7409
11
100.997
21
-91.886
0
LINE
8
BLACK
6
CONTINUOUS
10
100.997
20
-91.886
11
100.827
21
-91.9999
0
LINE
8
BLACK
6
CONTINUOUS
10
100.827
20
-91.9999
11
100.637
21
-92.0784
0
LINE
8
BLACK
6
CONTINUOUS
10
100.637
20
-92.0784
11
100.436
21
-92.1185
0
LINE
8
BLACK
6
CONTINUOUS
10
100.436
20
-92.1185
11
100.231
21
-92.1185
0
LINE
8
BLACK
6
CONTINUOUS
10
100.231
20
-92.1185
11
100.03
21
-92.0784
0
LINE
8
BLACK
6
CONTINUOUS
10
100.03
20
-92.0784
11
99.8401
21
-91.9999
0
LINE
8
BLACK
6
CONTINUOUS
10
99.8401
20
-91.9999
11
99.6695
21
-91.886
0
LINE
8
BLACK
6
CONTINUOUS
10
99.6695
20
-91.886
11
99.5244
21
-91.7409
0
LINE
8
BLACK
6
CONTINUOUS
10
99.5244
20
-91.7409
11
99.4105
21
-91.5703
0
LINE
8
BLACK
6
CONTINUOUS
10
99.4105
20
-91.5703
11
99.332
21
-91.3808
0
LINE
8
BLACK
6
CONTINUOUS
10
99.332
20
-91.3808
11
99.292
21
-91.1796
0
LINE
8
BLACK
6
CONTINUOUS
10
99.292
20
-91.1796
11
99.292
21
-90.9745
0
LINE
8
BLACK
6
CONTINUOUS
10
99.292
20
-90.9745
11
99.332
21
-90.7733
0
LINE
8
BLACK
6
CONTINUOUS
10
99.332
20
-90.7733
11
99.4105
21
-90.5838
0
LINE
8
BLACK
6
CONTINUOUS
10
99.4105
20
-90.5838
11
99.5244
21
-90.4132
0
LINE
8
BLACK
6
CONTINUOUS
10
99.5244
20
-90.4132
11
99.6695
21
-90.2681
0
LINE
8
BLACK
6
CONTINUOUS
10
99.6695
20
-90.2681
11
99.8401
21
-90.1542
0
LINE
8
BLACK
6
CONTINUOUS
10
99.8401
20
-90.1542
11
100.03
21
-90.0757
0
LINE
8
BLACK
6
CONTINUOUS
10
100.03
20
-90.0757
11
100.231
21
-90.0357
0
LINE
8
BLACK
6
CONTINUOUS
10
100.231
20
-90.0357
11
100.436
21
-90.0357
0
LINE
8
BLACK
6
CONTINUOUS
10
100.436
20
-90.0357
11
100.637
21
-90.0757
0
LINE
8
BLACK
6
CONTINUOUS
10
88.7489
20
-88.6981
11
88.9211
21
-88.7504
0
LINE
8
BLACK
6
CONTINUOUS
10
88.9211
20
-88.7504
11
89.0798
21
-88.8352
0
LINE
8
BLACK
6
CONTINUOUS
10
89.0798
20
-88.8352
11
89.2189
21
-88.9494
0
LINE
8
BLACK
6
CONTINUOUS
10
89.2189
20
-88.9494
11
89.3331
21
-89.0885
0
LINE
8
BLACK
6
CONTINUOUS
10
89.3331
20
-89.0885
11
89.4179
21
-89.2472
0
LINE
8
BLACK
6
CONTINUOUS
10
89.4179
20
-89.2472
11
89.4702
21
-89.4194
0
LINE
8
BLACK
6
CONTINUOUS
10
89.4702
20
-89.4194
11
89.4878
21
-89.5985
0
LINE
8
BLACK
6
CONTINUOUS
10
89.4878
20
-89.5985
11
89.4702
21
-89.7776
0
LINE
8
BLACK
6
CONTINUOUS
10
89.4702
20
-89.7776
11
89.4179
21
-89.9498
0
LINE
8
BLACK
6
CONTINUOUS
10
89.4179
20
-89.9498
11
89.3331
21
-90.1085
0
LINE
8
BLACK
6
CONTINUOUS
10
89.3331
20
-90.1085
11
89.2189
21
-90.2476
0
LINE
8
BLACK
6
CONTINUOUS
10
89.2189
20
-90.2476
11
89.0798
21
-90.3618
0
LINE
8
BLACK
6
CONTINUOUS
10
89.0798
20
-90.3618
11
88.9211
21
-90.4466
0
LINE
8
BLACK
6
CONTINUOUS
10
88.9211
20
-90.4466
11
88.7489
21
-90.4989
0
LINE
8
BLACK
6
CONTINUOUS
10
88.7489
20
-90.4989
11
88.6147
21
-90.5121
0
LINE
8
BLACK
6
CONTINUOUS
10
88.6147
20
-90.5121
11
88.2201
21
-90.5121
0
LINE
8
BLACK
6
CONTINUOUS
10
88.2201
20
-90.5121
11
88.0859
21
-90.4989
0
LINE
8
BLACK
6
CONTINUOUS
10
88.0859
20
-90.4989
11
87.9137
21
-90.4466
0
LINE
8
BLACK
6
CONTINUOUS
10
87.9137
20
-90.4466
11
87.755
21
-90.3618
0
LINE
8
BLACK
6
CONTINUOUS
10
87.755
20
-90.3618
11
87.6159
21
-90.2476
0
LINE
8
BLACK
6
CONTINUOUS
10
87.6159
20
-90.2476
11
87.5017
21
-90.1085
0
LINE
8
BLACK
6
CONTINUOUS
10
87.5017
20
-90.1085
11
87.4169
21
-89.9498
0
LINE
8
BLACK
6
CONTINUOUS
10
87.4169
20
-89.9498
11
87.3646
21
-89.7776
0
LINE
8
BLACK
6
CONTINUOUS
10
87.3646
20
-89.7776
11
87.347
21
-89.5985
0
LINE
8
BLACK
6
CONTINUOUS
10
87.347
20
-89.5985
11
87.3646
21
-89.4194
0
LINE
8
BLACK
6
CONTINUOUS
10
87.3646
20
-89.4194
11
87.4169
21
-89.2472
0
LINE
8
BLACK
6
CONTINUOUS
10
87.4169
20
-89.2472
11
87.5017
21
-89.0885
0
LINE
8
BLACK
6
CONTINUOUS
10
87.5017
20
-89.0885
11
87.6159
21
-88.9494
0
LINE
8
BLACK
6
CONTINUOUS
10
87.6159
20
-88.9494
11
87.755
21
-88.8352
0
LINE
8
BLACK
6
CONTINUOUS
10
87.755
20
-88.8352
11
87.9137
21
-88.7504
0
LINE
8
BLACK
6
CONTINUOUS
10
87.9137
20
-88.7504
11
88.0859
21
-88.6981
0
LINE
8
BLACK
6
CONTINUOUS
10
88.0859
20
-88.6981
11
88.2201
21
-88.6849
0
LINE
8
BLACK
6
CONTINUOUS
10
88.2201
20
-88.6849
11
88.6147
21
-88.6849
0
LINE
8
BLACK
6
CONTINUOUS
10
88.6147
20
-88.6849
11
88.7489
21
-88.6981
0
LINE
8
BLACK
6
CONTINUOUS
10
129.77
20
-88.6981
11
129.942
21
-88.7504
0
LINE
8
BLACK
6
CONTINUOUS
10
129.942
20
-88.7504
11
130.101
21
-88.8352
0
LINE
8
BLACK
6
CONTINUOUS
10
130.101
20
-88.8352
11
130.24
21
-88.9494
0
LINE
8
BLACK
6
CONTINUOUS
10
130.24
20
-88.9494
11
130.354
21
-89.0885
0
LINE
8
BLACK
6
CONTINUOUS
10
130.354
20
-89.0885
11
130.439
21
-89.2472
0
LINE
8
BLACK
6
CONTINUOUS
10
130.439
20
-89.2472
11
130.491
21
-89.4194
0
LINE
8
BLACK
6
CONTINUOUS
10
130.491
20
-89.4194
11
130.509
21
-89.5985
0
LINE
8
BLACK
6
CONTINUOUS
10
130.509
20
-89.5985
11
130.491
21
-89.7776
0
LINE
8
BLACK
6
CONTINUOUS
10
130.491
20
-89.7776
11
130.439
21
-89.9498
0
LINE
8
BLACK
6
CONTINUOUS
10
130.439
20
-89.9498
11
130.354
21
-90.1085
0
LINE
8
BLACK
6
CONTINUOUS
10
130.354
20
-90.1085
11
130.24
21
-90.2476
0
LINE
8
BLACK
6
CONTINUOUS
10
130.24
20
-90.2476
11
130.101
21
-90.3618
0
LINE
8
BLACK
6
CONTINUOUS
10
130.101
20
-90.3618
11
129.942
21
-90.4466
0
LINE
8
BLACK
6
CONTINUOUS
10
129.942
20
-90.4466
11
129.77
21
-90.4989
0
LINE
8
BLACK
6
CONTINUOUS
10
129.77
20
-90.4989
11
129.636
21
-90.5121
0
LINE
8
BLACK
6
CONTINUOUS
10
129.636
20
-90.5121
11
129.241
21
-90.5121
0
LINE
8
BLACK
6
CONTINUOUS
10
129.241
20
-90.5121
11
129.107
21
-90.4989
0
LINE
8
BLACK
6
CONTINUOUS
10
129.107
20
-90.4989
11
128.935
21
-90.4466
0
LINE
8
BLACK
6
CONTINUOUS
10
128.935
20
-90.4466
11
128.776
21
-90.3618
0
LINE
8
BLACK
6
CONTINUOUS
10
128.776
20
-90.3618
11
128.637
21
-90.2476
0
LINE
8
BLACK
6
CONTINUOUS
10
128.637
20
-90.2476
11
128.523
21
-90.1085
0
LINE
8
BLACK
6
CONTINUOUS
10
128.523
20
-90.1085
11
128.438
21
-89.9498
0
LINE
8
BLACK
6
CONTINUOUS
10
128.438
20
-89.9498
11
128.386
21
-89.7776
0
LINE
8
BLACK
6
CONTINUOUS
10
128.386
20
-89.7776
11
128.368
21
-89.5985
0
LINE
8
BLACK
6
CONTINUOUS
10
128.368
20
-89.5985
11
128.386
21
-89.4194
0
LINE
8
BLACK
6
CONTINUOUS
10
128.386
20
-89.4194
11
128.438
21
-89.2472
0
LINE
8
BLACK
6
CONTINUOUS
10
128.438
20
-89.2472
11
128.523
21
-89.0885
0
LINE
8
BLACK
6
CONTINUOUS
10
128.523
20
-89.0885
11
128.637
21
-88.9494
0
LINE
8
BLACK
6
CONTINUOUS
10
128.637
20
-88.9494
11
128.776
21
-88.8352
0
LINE
8
BLACK
6
CONTINUOUS
10
128.776
20
-88.8352
11
128.935
21
-88.7504
0
LINE
8
BLACK
6
CONTINUOUS
10
128.935
20
-88.7504
11
129.107
21
-88.6981
0
LINE
8
BLACK
6
CONTINUOUS
10
129.107
20
-88.6981
11
129.241
21
-88.6849
0
LINE
8
BLACK
6
CONTINUOUS
10
129.241
20
-88.6849
11
129.636
21
-88.6849
0
LINE
8
BLACK
6
CONTINUOUS
10
129.636
20
-88.6849
11
129.77
21
-88.6981
0
LINE
8
BLACK
6
CONTINUOUS
10
95.249
20
-88.2796
11
95.4385
21
-88.3581
0
LINE
8
BLACK
6
CONTINUOUS
10
95.4385
20
-88.3581
11
95.6091
21
-88.4721
0
LINE
8
BLACK
6
CONTINUOUS
10
95.6091
20
-88.4721
11
95.7541
21
-88.6171
0
LINE
8
BLACK
6
CONTINUOUS
10
95.7541
20
-88.6171
11
95.8681
21
-88.7877
0
LINE
8
BLACK
6
CONTINUOUS
10
95.8681
20
-88.7877
11
95.9466
21
-88.9772
0
LINE
8
BLACK
6
CONTINUOUS
10
95.9466
20
-88.9772
11
95.9866
21
-89.1784
0
LINE
8
BLACK
6
CONTINUOUS
10
95.9866
20
-89.1784
11
95.9866
21
-89.3836
0
LINE
8
BLACK
6
CONTINUOUS
10
95.9866
20
-89.3836
11
95.9466
21
-89.5848
0
LINE
8
BLACK
6
CONTINUOUS
10
95.9466
20
-89.5848
11
95.8681
21
-89.7743
0
LINE
8
BLACK
6
CONTINUOUS
10
95.8681
20
-89.7743
11
95.7541
21
-89.9449
0
LINE
8
BLACK
6
CONTINUOUS
10
95.7541
20
-89.9449
11
95.6091
21
-90.0899
0
LINE
8
BLACK
6
CONTINUOUS
10
95.6091
20
-90.0899
11
95.4385
21
-90.2039
0
LINE
8
BLACK
6
CONTINUOUS
10
95.4385
20
-90.2039
11
95.249
21
-90.2824
0
LINE
8
BLACK
6
CONTINUOUS
10
95.249
20
-90.2824
11
95.0478
21
-90.3224
0
LINE
8
BLACK
6
CONTINUOUS
10
95.0478
20
-90.3224
11
94.8426
21
-90.3224
0
LINE
8
BLACK
6
CONTINUOUS
10
94.8426
20
-90.3224
11
94.6414
21
-90.2824
0
LINE
8
BLACK
6
CONTINUOUS
10
94.6414
20
-90.2824
11
94.4519
21
-90.2039
0
LINE
8
BLACK
6
CONTINUOUS
10
94.4519
20
-90.2039
11
94.2813
21
-90.0899
0
LINE
8
BLACK
6
CONTINUOUS
10
94.2813
20
-90.0899
11
94.1363
21
-89.9449
0
LINE
8
BLACK
6
CONTINUOUS
10
94.1363
20
-89.9449
11
94.0223
21
-89.7743
0
LINE
8
BLACK
6
CONTINUOUS
10
94.0223
20
-89.7743
11
93.9438
21
-89.5848
0
LINE
8
BLACK
6
CONTINUOUS
10
93.9438
20
-89.5848
11
93.9038
21
-89.3836
0
LINE
8
BLACK
6
CONTINUOUS
10
93.9038
20
-89.3836
11
93.9038
21
-89.1784
0
LINE
8
BLACK
6
CONTINUOUS
10
93.9038
20
-89.1784
11
93.9438
21
-88.9772
0
LINE
8
BLACK
6
CONTINUOUS
10
93.9438
20
-88.9772
11
94.0223
21
-88.7877
0
LINE
8
BLACK
6
CONTINUOUS
10
94.0223
20
-88.7877
11
94.1363
21
-88.6171
0
LINE
8
BLACK
6
CONTINUOUS
10
94.1363
20
-88.6171
11
94.2813
21
-88.4721
0
LINE
8
BLACK
6
CONTINUOUS
10
94.2813
20
-88.4721
11
94.4519
21
-88.3581
0
LINE
8
BLACK
6
CONTINUOUS
10
94.4519
20
-88.3581
11
94.6414
21
-88.2796
0
LINE
8
BLACK
6
CONTINUOUS
10
94.6414
20
-88.2796
11
94.8426
21
-88.2396
0
LINE
8
BLACK
6
CONTINUOUS
10
94.8426
20
-88.2396
11
95.0478
21
-88.2396
0
LINE
8
BLACK
6
CONTINUOUS
10
95.0478
20
-88.2396
11
95.249
21
-88.2796
0
LINE
8
BLACK
6
CONTINUOUS
10
98.8411
20
-88.2796
11
99.0306
21
-88.3581
0
LINE
8
BLACK
6
CONTINUOUS
10
99.0306
20
-88.3581
11
99.2012
21
-88.4721
0
LINE
8
BLACK
6
CONTINUOUS
10
99.2012
20
-88.4721
11
99.3462
21
-88.6171
0
LINE
8
BLACK
6
CONTINUOUS
10
99.3462
20
-88.6171
11
99.4602
21
-88.7877
0
LINE
8
BLACK
6
CONTINUOUS
10
99.4602
20
-88.7877
11
99.5387
21
-88.9772
0
LINE
8
BLACK
6
CONTINUOUS
10
99.5387
20
-88.9772
11
99.5787
21
-89.1784
0
LINE
8
BLACK
6
CONTINUOUS
10
99.5787
20
-89.1784
11
99.5787
21
-89.3836
0
LINE
8
BLACK
6
CONTINUOUS
10
99.5787
20
-89.3836
11
99.5387
21
-89.5848
0
LINE
8
BLACK
6
CONTINUOUS
10
99.5387
20
-89.5848
11
99.4602
21
-89.7743
0
LINE
8
BLACK
6
CONTINUOUS
10
99.4602
20
-89.7743
11
99.3462
21
-89.9449
0
LINE
8
BLACK
6
CONTINUOUS
10
99.3462
20
-89.9449
11
99.2012
21
-90.0899
0
LINE
8
BLACK
6
CONTINUOUS
10
99.2012
20
-90.0899
11
99.0306
21
-90.2039
0
LINE
8
BLACK
6
CONTINUOUS
10
99.0306
20
-90.2039
11
98.8411
21
-90.2824
0
LINE
8
BLACK
6
CONTINUOUS
10
98.8411
20
-90.2824
11
98.6399
21
-90.3224
0
LINE
8
BLACK
6
CONTINUOUS
10
98.6399
20
-90.3224
11
98.4347
21
-90.3224
0
LINE
8
BLACK
6
CONTINUOUS
10
98.4347
20
-90.3224
11
98.2335
21
-90.2824
0
LINE
8
BLACK
6
CONTINUOUS
10
98.2335
20
-90.2824
11
98.044
21
-90.2039
0
LINE
8
BLACK
6
CONTINUOUS
10
98.044
20
-90.2039
11
97.8734
21
-90.0899
0
LINE
8
BLACK
6
CONTINUOUS
10
97.8734
20
-90.0899
11
97.7284
21
-89.9449
0
LINE
8
BLACK
6
CONTINUOUS
10
97.7284
20
-89.9449
11
97.6144
21
-89.7743
0
LINE
8
BLACK
6
CONTINUOUS
10
97.6144
20
-89.7743
11
97.5359
21
-89.5848
0
LINE
8
BLACK
6
CONTINUOUS
10
97.5359
20
-89.5848
11
97.4959
21
-89.3836
0
LINE
8
BLACK
6
CONTINUOUS
10
97.4959
20
-89.3836
11
97.4959
21
-89.1784
0
LINE
8
BLACK
6
CONTINUOUS
10
97.4959
20
-89.1784
11
97.5359
21
-88.9772
0
LINE
8
BLACK
6
CONTINUOUS
10
97.5359
20
-88.9772
11
97.6144
21
-88.7877
0
LINE
8
BLACK
6
CONTINUOUS
10
97.6144
20
-88.7877
11
97.7284
21
-88.6171
0
LINE
8
BLACK
6
CONTINUOUS
10
97.7284
20
-88.6171
11
97.8734
21
-88.4721
0
LINE
8
BLACK
6
CONTINUOUS
10
97.8734
20
-88.4721
11
98.044
21
-88.3581
0
LINE
8
BLACK
6
CONTINUOUS
10
98.044
20
-88.3581
11
98.2335
21
-88.2796
0
LINE
8
BLACK
6
CONTINUOUS
10
98.2335
20
-88.2796
11
98.4347
21
-88.2396
0
LINE
8
BLACK
6
CONTINUOUS
10
98.4347
20
-88.2396
11
98.6399
21
-88.2396
0
LINE
8
BLACK
6
CONTINUOUS
10
98.6399
20
-88.2396
11
98.8411
21
-88.2796
0
LINE
8
BLACK
6
CONTINUOUS
10
97.045
20
-86.4836
11
97.2345
21
-86.5621
0
LINE
8
BLACK
6
CONTINUOUS
10
97.2345
20
-86.5621
11
97.4051
21
-86.676
0
LINE
8
BLACK
6
CONTINUOUS
10
97.4051
20
-86.676
11
97.5502
21
-86.8211
0
LINE
8
BLACK
6
CONTINUOUS
10
97.5502
20
-86.8211
11
97.6641
21
-86.9917
0
LINE
8
BLACK
6
CONTINUOUS
10
97.6641
20
-86.9917
11
97.7426
21
-87.1812
0
LINE
8
BLACK
6
CONTINUOUS
10
97.7426
20
-87.1812
11
97.7827
21
-87.3824
0
LINE
8
BLACK
6
CONTINUOUS
10
97.7827
20
-87.3824
11
97.7827
21
-87.5875
0
LINE
8
BLACK
6
CONTINUOUS
10
97.7827
20
-87.5875
11
97.7426
21
-87.7887
0
LINE
8
BLACK
6
CONTINUOUS
10
97.7426
20
-87.7887
11
97.6641
21
-87.9782
0
LINE
8
BLACK
6
CONTINUOUS
10
97.6641
20
-87.9782
11
97.5502
21
-88.1488
0
LINE
8
BLACK
6
CONTINUOUS
10
97.5502
20
-88.1488
11
97.4051
21
-88.2939
0
LINE
8
BLACK
6
CONTINUOUS
10
97.4051
20
-88.2939
11
97.2345
21
-88.4078
0
LINE
8
BLACK
6
CONTINUOUS
10
97.2345
20
-88.4078
11
97.045
21
-88.4863
0
LINE
8
BLACK
6
CONTINUOUS
10
97.045
20
-88.4863
11
96.8438
21
-88.5263
0
LINE
8
BLACK
6
CONTINUOUS
10
96.8438
20
-88.5263
11
96.6387
21
-88.5263
0
LINE
8
BLACK
6
CONTINUOUS
10
96.6387
20
-88.5263
11
96.4375
21
-88.4863
0
LINE
8
BLACK
6
CONTINUOUS
10
96.4375
20
-88.4863
11
96.248
21
-88.4078
0
LINE
8
BLACK
6
CONTINUOUS
10
96.248
20
-88.4078
11
96.0774
21
-88.2939
0
LINE
8
BLACK
6
CONTINUOUS
10
96.0774
20
-88.2939
11
95.9323
21
-88.1488
0
LINE
8
BLACK
6
CONTINUOUS
10
95.9323
20
-88.1488
11
95.8184
21
-87.9782
0
LINE
8
BLACK
6
CONTINUOUS
10
95.8184
20
-87.9782
11
95.7399
21
-87.7887
0
LINE
8
BLACK
6
CONTINUOUS
10
95.7399
20
-87.7887
11
95.6999
21
-87.5875
0
LINE
8
BLACK
6
CONTINUOUS
10
95.6999
20
-87.5875
11
95.6999
21
-87.3824
0
LINE
8
BLACK
6
CONTINUOUS
10
95.6999
20
-87.3824
11
95.7399
21
-87.1812
0
LINE
8
BLACK
6
CONTINUOUS
10
95.7399
20
-87.1812
11
95.8184
21
-86.9917
0
LINE
8
BLACK
6
CONTINUOUS
10
95.8184
20
-86.9917
11
95.9323
21
-86.8211
0
LINE
8
BLACK
6
CONTINUOUS
10
95.9323
20
-86.8211
11
96.0774
21
-86.676
0
LINE
8
BLACK
6
CONTINUOUS
10
96.0774
20
-86.676
11
96.248
21
-86.5621
0
LINE
8
BLACK
6
CONTINUOUS
10
96.248
20
-86.5621
11
96.4375
21
-86.4836
0
LINE
8
BLACK
6
CONTINUOUS
10
96.4375
20
-86.4836
11
96.6387
21
-86.4435
0
LINE
8
BLACK
6
CONTINUOUS
10
96.6387
20
-86.4435
11
96.8438
21
-86.4435
0
LINE
8
BLACK
6
CONTINUOUS
10
96.8438
20
-86.4435
11
97.045
21
-86.4836
0
LINE
8
BLACK
6
CONTINUOUS
10
88.7489
20
-86.1581
11
88.9211
21
-86.2104
0
LINE
8
BLACK
6
CONTINUOUS
10
88.9211
20
-86.2104
11
89.0798
21
-86.2952
0
LINE
8
BLACK
6
CONTINUOUS
10
89.0798
20
-86.2952
11
89.2189
21
-86.4094
0
LINE
8
BLACK
6
CONTINUOUS
10
89.2189
20
-86.4094
11
89.3331
21
-86.5485
0
LINE
8
BLACK
6
CONTINUOUS
10
89.3331
20
-86.5485
11
89.4179
21
-86.7072
0
LINE
8
BLACK
6
CONTINUOUS
10
89.4179
20
-86.7072
11
89.4702
21
-86.8794
0
LINE
8
BLACK
6
CONTINUOUS
10
89.4702
20
-86.8794
11
89.4878
21
-87.0585
0
LINE
8
BLACK
6
CONTINUOUS
10
89.4878
20
-87.0585
11
89.4702
21
-87.2376
0
LINE
8
BLACK
6
CONTINUOUS
10
89.4702
20
-87.2376
11
89.4179
21
-87.4098
0
LINE
8
BLACK
6
CONTINUOUS
10
89.4179
20
-87.4098
11
89.3331
21
-87.5685
0
LINE
8
BLACK
6
CONTINUOUS
10
89.3331
20
-87.5685
11
89.2189
21
-87.7076
0
LINE
8
BLACK
6
CONTINUOUS
10
89.2189
20
-87.7076
11
89.0798
21
-87.8218
0
LINE
8
BLACK
6
CONTINUOUS
10
89.0798
20
-87.8218
11
88.9211
21
-87.9066
0
LINE
8
BLACK
6
CONTINUOUS
10
88.9211
20
-87.9066
11
88.7489
21
-87.9589
0
LINE
8
BLACK
6
CONTINUOUS
10
88.7489
20
-87.9589
11
88.6147
21
-87.9721
0
LINE
8
BLACK
6
CONTINUOUS
10
88.6147
20
-87.9721
11
88.2201
21
-87.9721
0
LINE
8
BLACK
6
CONTINUOUS
10
88.2201
20
-87.9721
11
88.0859
21
-87.9589
0
LINE
8
BLACK
6
CONTINUOUS
10
88.0859
20
-87.9589
11
87.9137
21
-87.9066
0
LINE
8
BLACK
6
CONTINUOUS
10
87.9137
20
-87.9066
11
87.755
21
-87.8218
0
LINE
8
BLACK
6
CONTINUOUS
10
87.755
20
-87.8218
11
87.6159
21
-87.7076
0
LINE
8
BLACK
6
CONTINUOUS
10
87.6159
20
-87.7076
11
87.5017
21
-87.5685
0
LINE
8
BLACK
6
CONTINUOUS
10
87.5017
20
-87.5685
11
87.4169
21
-87.4098
0
LINE
8
BLACK
6
CONTINUOUS
10
87.4169
20
-87.4098
11
87.3646
21
-87.2376
0
LINE
8
BLACK
6
CONTINUOUS
10
87.3646
20
-87.2376
11
87.347
21
-87.0585
0
LINE
8
BLACK
6
CONTINUOUS
10
87.347
20
-87.0585
11
87.3646
21
-86.8794
0
LINE
8
BLACK
6
CONTINUOUS
10
87.3646
20
-86.8794
11
87.4169
21
-86.7072
0
LINE
8
BLACK
6
CONTINUOUS
10
87.4169
20
-86.7072
11
87.5017
21
-86.5485
0
LINE
8
BLACK
6
CONTINUOUS
10
87.5017
20
-86.5485
11
87.6159
21
-86.4094
0
LINE
8
BLACK
6
CONTINUOUS
10
87.6159
20
-86.4094
11
87.755
21
-86.2952
0
LINE
8
BLACK
6
CONTINUOUS
10
87.755
20
-86.2952
11
87.9137
21
-86.2104
0
LINE
8
BLACK
6
CONTINUOUS
10
87.9137
20
-86.2104
11
88.0859
21
-86.1581
0
LINE
8
BLACK
6
CONTINUOUS
10
88.0859
20
-86.1581
11
88.2201
21
-86.1449
0
LINE
8
BLACK
6
CONTINUOUS
10
88.2201
20
-86.1449
11
88.6147
21
-86.1449
0
LINE
8
BLACK
6
CONTINUOUS
10
88.6147
20
-86.1449
11
88.7489
21
-86.1581
0
LINE
8
BLACK
6
CONTINUOUS
10
129.77
20
-86.1581
11
129.942
21
-86.2104
0
LINE
8
BLACK
6
CONTINUOUS
10
129.942
20
-86.2104
11
130.101
21
-86.2952
0
LINE
8
BLACK
6
CONTINUOUS
10
130.101
20
-86.2952
11
130.24
21
-86.4094
0
LINE
8
BLACK
6
CONTINUOUS
10
130.24
20
-86.4094
11
130.354
21
-86.5485
0
LINE
8
BLACK
6
CONTINUOUS
10
130.354
20
-86.5485
11
130.439
21
-86.7072
0
LINE
8
BLACK
6
CONTINUOUS
10
130.439
20
-86.7072
11
130.491
21
-86.8794
0
LINE
8
BLACK
6
CONTINUOUS
10
130.491
20
-86.8794
11
130.509
21
-87.0585
0
LINE
8
BLACK
6
CONTINUOUS
10
130.509
20
-87.0585
11
130.491
21
-87.2376
0
LINE
8
BLACK
6
CONTINUOUS
10
130.491
20
-87.2376
11
130.439
21
-87.4098
0
LINE
8
BLACK
6
CONTINUOUS
10
130.439
20
-87.4098
11
130.354
21
-87.5685
0
LINE
8
BLACK
6
CONTINUOUS
10
130.354
20
-87.5685
11
130.24
21
-87.7076
0
LINE
8
BLACK
6
CONTINUOUS
10
130.24
20
-87.7076
11
130.101
21
-87.8218
0
LINE
8
BLACK
6
CONTINUOUS
10
130.101
20
-87.8218
11
129.942
21
-87.9066
0
LINE
8
BLACK
6
CONTINUOUS
10
129.942
20
-87.9066
11
129.77
21
-87.9589
0
LINE
8
BLACK
6
CONTINUOUS
10
129.77
20
-87.9589
11
129.636
21
-87.9721
0
LINE
8
BLACK
6
CONTINUOUS
10
129.636
20
-87.9721
11
129.241
21
-87.9721
0
LINE
8
BLACK
6
CONTINUOUS
10
129.241
20
-87.9721
11
129.107
21
-87.9589
0
LINE
8
BLACK
6
CONTINUOUS
10
129.107
20
-87.9589
11
128.935
21
-87.9066
0
LINE
8
BLACK
6
CONTINUOUS
10
128.935
20
-87.9066
11
128.776
21
-87.8218
0
LINE
8
BLACK
6
CONTINUOUS
10
128.776
20
-87.8218
11
128.637
21
-87.7076
0
LINE
8
BLACK
6
CONTINUOUS
10
128.637
20
-87.7076
11
128.523
21
-87.5685
0
LINE
8
BLACK
6
CONTINUOUS
10
128.523
20
-87.5685
11
128.438
21
-87.4098
0
LINE
8
BLACK
6
CONTINUOUS
10
128.438
20
-87.4098
11
128.386
21
-87.2376
0
LINE
8
BLACK
6
CONTINUOUS
10
128.386
20
-87.2376
11
128.368
21
-87.0585
0
LINE
8
BLACK
6
CONTINUOUS
10
128.368
20
-87.0585
11
128.386
21
-86.8794
0
LINE
8
BLACK
6
CONTINUOUS
10
128.386
20
-86.8794
11
128.438
21
-86.7072
0
LINE
8
BLACK
6
CONTINUOUS
10
128.438
20
-86.7072
11
128.523
21
-86.5485
0
LINE
8
BLACK
6
CONTINUOUS
10
128.523
20
-86.5485
11
128.637
21
-86.4094
0
LINE
8
BLACK
6
CONTINUOUS
10
128.637
20
-86.4094
11
128.776
21
-86.2952
0
LINE
8
BLACK
6
CONTINUOUS
10
128.776
20
-86.2952
11
128.935
21
-86.2104
0
LINE
8
BLACK
6
CONTINUOUS
10
128.935
20
-86.2104
11
129.107
21
-86.1581
0
LINE
8
BLACK
6
CONTINUOUS
10
129.107
20
-86.1581
11
129.241
21
-86.1449
0
LINE
8
BLACK
6
CONTINUOUS
10
129.241
20
-86.1449
11
129.636
21
-86.1449
0
LINE
8
BLACK
6
CONTINUOUS
10
129.636
20
-86.1449
11
129.77
21
-86.1581
0
LINE
8
BLACK
6
CONTINUOUS
10
88.7489
20
-83.6181
11
88.9211
21
-83.6704
0
LINE
8
BLACK
6
CONTINUOUS
10
88.9211
20
-83.6704
11
89.0798
21
-83.7552
0
LINE
8
BLACK
6
CONTINUOUS
10
89.0798
20
-83.7552
11
89.2189
21
-83.8694
0
LINE
8
BLACK
6
CONTINUOUS
10
89.2189
20
-83.8694
11
89.3331
21
-84.0085
0
LINE
8
BLACK
6
CONTINUOUS
10
89.3331
20
-84.0085
11
89.4179
21
-84.1672
0
LINE
8
BLACK
6
CONTINUOUS
10
89.4179
20
-84.1672
11
89.4702
21
-84.3394
0
LINE
8
BLACK
6
CONTINUOUS
10
89.4702
20
-84.3394
11
89.4878
21
-84.5185
0
LINE
8
BLACK
6
CONTINUOUS
10
89.4878
20
-84.5185
11
89.4702
21
-84.6976
0
LINE
8
BLACK
6
CONTINUOUS
10
89.4702
20
-84.6976
11
89.4179
21
-84.8698
0
LINE
8
BLACK
6
CONTINUOUS
10
89.4179
20
-84.8698
11
89.3331
21
-85.0285
0
LINE
8
BLACK
6
CONTINUOUS
10
89.3331
20
-85.0285
11
89.2189
21
-85.1676
0
LINE
8
BLACK
6
CONTINUOUS
10
89.2189
20
-85.1676
11
89.0798
21
-85.2818
0
LINE
8
BLACK
6
CONTINUOUS
10
89.0798
20
-85.2818
11
88.9211
21
-85.3666
0
LINE
8
BLACK
6
CONTINUOUS
10
88.9211
20
-85.3666
11
88.7489
21
-85.4189
0
LINE
8
BLACK
6
CONTINUOUS
10
88.7489
20
-85.4189
11
88.6147
21
-85.4321
0
LINE
8
BLACK
6
CONTINUOUS
10
88.6147
20
-85.4321
11
88.2201
21
-85.4321
0
LINE
8
BLACK
6
CONTINUOUS
10
88.2201
20
-85.4321
11
88.0859
21
-85.4189
0
LINE
8
BLACK
6
CONTINUOUS
10
88.0859
20
-85.4189
11
87.9137
21
-85.3666
0
LINE
8
BLACK
6
CONTINUOUS
10
87.9137
20
-85.3666
11
87.755
21
-85.2818
0
LINE
8
BLACK
6
CONTINUOUS
10
87.755
20
-85.2818
11
87.6159
21
-85.1676
0
LINE
8
BLACK
6
CONTINUOUS
10
87.6159
20
-85.1676
11
87.5017
21
-85.0285
0
LINE
8
BLACK
6
CONTINUOUS
10
87.5017
20
-85.0285
11
87.4169
21
-84.8698
0
LINE
8
BLACK
6
CONTINUOUS
10
87.4169
20
-84.8698
11
87.3646
21
-84.6976
0
LINE
8
BLACK
6
CONTINUOUS
10
87.3646
20
-84.6976
11
87.347
21
-84.5185
0
LINE
8
BLACK
6
CONTINUOUS
10
87.347
20
-84.5185
11
87.3646
21
-84.3394
0
LINE
8
BLACK
6
CONTINUOUS
10
87.3646
20
-84.3394
11
87.4169
21
-84.1672
0
LINE
8
BLACK
6
CONTINUOUS
10
87.4169
20
-84.1672
11
87.5017
21
-84.0085
0
LINE
8
BLACK
6
CONTINUOUS
10
87.5017
20
-84.0085
11
87.6159
21
-83.8694
0
LINE
8
BLACK
6
CONTINUOUS
10
87.6159
20
-83.8694
11
87.755
21
-83.7552
0
LINE
8
BLACK
6
CONTINUOUS
10
87.755
20
-83.7552
11
87.9137
21
-83.6704
0
LINE
8
BLACK
6
CONTINUOUS
10
87.9137
20
-83.6704
11
88.0859
21
-83.6181
0
LINE
8
BLACK
6
CONTINUOUS
10
88.0859
20
-83.6181
11
88.2201
21
-83.6049
0
LINE
8
BLACK
6
CONTINUOUS
10
88.2201
20
-83.6049
11
88.6147
21
-83.6049
0
LINE
8
BLACK
6
CONTINUOUS
10
88.6147
20
-83.6049
11
88.7489
21
-83.6181
0
LINE
8
BLACK
6
CONTINUOUS
10
129.77
20
-83.6181
11
129.942
21
-83.6704
0
LINE
8
BLACK
6
CONTINUOUS
10
129.942
20
-83.6704
11
130.101
21
-83.7552
0
LINE
8
BLACK
6
CONTINUOUS
10
130.101
20
-83.7552
11
130.24
21
-83.8694
0
LINE
8
BLACK
6
CONTINUOUS
10
130.24
20
-83.8694
11
130.354
21
-84.0085
0
LINE
8
BLACK
6
CONTINUOUS
10
130.354
20
-84.0085
11
130.439
21
-84.1672
0
LINE
8
BLACK
6
CONTINUOUS
10
130.439
20
-84.1672
11
130.491
21
-84.3394
0
LINE
8
BLACK
6
CONTINUOUS
10
130.491
20
-84.3394
11
130.509
21
-84.5185
0
LINE
8
BLACK
6
CONTINUOUS
10
130.509
20
-84.5185
11
130.491
21
-84.6976
0
LINE
8
BLACK
6
CONTINUOUS
10
130.491
20
-84.6976
11
130.439
21
-84.8698
0
LINE
8
BLACK
6
CONTINUOUS
10
130.439
20
-84.8698
11
130.354
21
-85.0285
0
LINE
8
BLACK
6
CONTINUOUS
10
130.354
20
-85.0285
11
130.24
21
-85.1676
0
LINE
8
BLACK
6
CONTINUOUS
10
130.24
20
-85.1676
11
130.101
21
-85.2818
0
LINE
8
BLACK
6
CONTINUOUS
10
130.101
20
-85.2818
11
129.942
21
-85.3666
0
LINE
8
BLACK
6
CONTINUOUS
10
129.942
20
-85.3666
11
129.77
21
-85.4189
0
LINE
8
BLACK
6
CONTINUOUS
10
129.77
20
-85.4189
11
129.636
21
-85.4321
0
LINE
8
BLACK
6
CONTINUOUS
10
129.636
20
-85.4321
11
129.241
21
-85.4321
0
LINE
8
BLACK
6
CONTINUOUS
10
129.241
20
-85.4321
11
129.107
21
-85.4189
0
LINE
8
BLACK
6
CONTINUOUS
10
129.107
20
-85.4189
11
128.935
21
-85.3666
0
LINE
8
BLACK
6
CONTINUOUS
10
128.935
20
-85.3666
11
128.776
21
-85.2818
0
LINE
8
BLACK
6
CONTINUOUS
10
128.776
20
-85.2818
11
128.637
21
-85.1676
0
LINE
8
BLACK
6
CONTINUOUS
10
128.637
20
-85.1676
11
128.523
21
-85.0285
0
LINE
8
BLACK
6
CONTINUOUS
10
128.523
20
-85.0285
11
128.438
21
-84.8698
0
LINE
8
BLACK
6
CONTINUOUS
10
128.438
20
-84.8698
11
128.386
21
-84.6976
0
LINE
8
BLACK
6
CONTINUOUS
10
128.386
20
-84.6976
11
128.368
21
-84.5185
0
LINE
8
BLACK
6
CONTINUOUS
10
128.368
20
-84.5185
11
128.386
21
-84.3394
0
LINE
8
BLACK
6
CONTINUOUS
10
128.386
20
-84.3394
11
128.438
21
-84.1672
0
LINE
8
BLACK
6
CONTINUOUS
10
128.438
20
-84.1672
11
128.523
21
-84.0085
0
LINE
8
BLACK
6
CONTINUOUS
10
128.523
20
-84.0085
11
128.637
21
-83.8694
0
LINE
8
BLACK
6
CONTINUOUS
10
128.637
20
-83.8694
11
128.776
21
-83.7552
0
LINE
8
BLACK
6
CONTINUOUS
10
128.776
20
-83.7552
11
128.935
21
-83.6704
0
LINE
8
BLACK
6
CONTINUOUS
10
128.935
20
-83.6704
11
129.107
21
-83.6181
0
LINE
8
BLACK
6
CONTINUOUS
10
129.107
20
-83.6181
11
129.241
21
-83.6049
0
LINE
8
BLACK
6
CONTINUOUS
10
129.241
20
-83.6049
11
129.636
21
-83.6049
0
LINE
8
BLACK
6
CONTINUOUS
10
129.636
20
-83.6049
11
129.77
21
-83.6181
0
LINE
8
BLACK
6
CONTINUOUS
10
96.7105
20
-83.947
11
98.3615
21
-83.947
0
LINE
8
BLACK
6
CONTINUOUS
10
98.3615
20
-83.947
11
98.3615
21
-85.4202
0
LINE
8
BLACK
6
CONTINUOUS
10
98.3615
20
-85.4202
11
96.7105
21
-85.4202
0
LINE
8
BLACK
6
CONTINUOUS
10
96.7105
20
-85.4202
11
96.7105
21
-83.947
0
LINE
8
BLACK
6
CONTINUOUS
10
129.77
20
-81.0781
11
129.942
21
-81.1304
0
LINE
8
BLACK
6
CONTINUOUS
10
129.942
20
-81.1304
11
130.101
21
-81.2152
0
LINE
8
BLACK
6
CONTINUOUS
10
130.101
20
-81.2152
11
130.24
21
-81.3294
0
LINE
8
BLACK
6
CONTINUOUS
10
130.24
20
-81.3294
11
130.354
21
-81.4685
0
LINE
8
BLACK
6
CONTINUOUS
10
130.354
20
-81.4685
11
130.439
21
-81.6272
0
LINE
8
BLACK
6
CONTINUOUS
10
130.439
20
-81.6272
11
130.491
21
-81.7994
0
LINE
8
BLACK
6
CONTINUOUS
10
130.491
20
-81.7994
11
130.509
21
-81.9785
0
LINE
8
BLACK
6
CONTINUOUS
10
130.509
20
-81.9785
11
130.491
21
-82.1576
0
LINE
8
BLACK
6
CONTINUOUS
10
130.491
20
-82.1576
11
130.439
21
-82.3298
0
LINE
8
BLACK
6
CONTINUOUS
10
130.439
20
-82.3298
11
130.354
21
-82.4885
0
LINE
8
BLACK
6
CONTINUOUS
10
130.354
20
-82.4885
11
130.24
21
-82.6276
0
LINE
8
BLACK
6
CONTINUOUS
10
130.24
20
-82.6276
11
130.101
21
-82.7418
0
LINE
8
BLACK
6
CONTINUOUS
10
130.101
20
-82.7418
11
129.942
21
-82.8266
0
LINE
8
BLACK
6
CONTINUOUS
10
129.942
20
-82.8266
11
129.77
21
-82.8789
0
LINE
8
BLACK
6
CONTINUOUS
10
129.77
20
-82.8789
11
129.636
21
-82.8921
0
LINE
8
BLACK
6
CONTINUOUS
10
129.636
20
-82.8921
11
129.241
21
-82.8921
0
LINE
8
BLACK
6
CONTINUOUS
10
129.241
20
-82.8921
11
129.107
21
-82.8789
0
LINE
8
BLACK
6
CONTINUOUS
10
129.107
20
-82.8789
11
128.935
21
-82.8266
0
LINE
8
BLACK
6
CONTINUOUS
10
128.935
20
-82.8266
11
128.776
21
-82.7418
0
LINE
8
BLACK
6
CONTINUOUS
10
128.776
20
-82.7418
11
128.637
21
-82.6276
0
LINE
8
BLACK
6
CONTINUOUS
10
128.637
20
-82.6276
11
128.523
21
-82.4885
0
LINE
8
BLACK
6
CONTINUOUS
10
128.523
20
-82.4885
11
128.438
21
-82.3298
0
LINE
8
BLACK
6
CONTINUOUS
10
128.438
20
-82.3298
11
128.386
21
-82.1576
0
LINE
8
BLACK
6
CONTINUOUS
10
128.386
20
-82.1576
11
128.368
21
-81.9785
0
LINE
8
BLACK
6
CONTINUOUS
10
128.368
20
-81.9785
11
128.386
21
-81.7994
0
LINE
8
BLACK
6
CONTINUOUS
10
128.386
20
-81.7994
11
128.438
21
-81.6272
0
LINE
8
BLACK
6
CONTINUOUS
10
128.438
20
-81.6272
11
128.523
21
-81.4685
0
LINE
8
BLACK
6
CONTINUOUS
10
128.523
20
-81.4685
11
128.637
21
-81.3294
0
LINE
8
BLACK
6
CONTINUOUS
10
128.637
20
-81.3294
11
128.776
21
-81.2152
0
LINE
8
BLACK
6
CONTINUOUS
10
128.776
20
-81.2152
11
128.935
21
-81.1304
0
LINE
8
BLACK
6
CONTINUOUS
10
128.935
20
-81.1304
11
129.107
21
-81.0781
0
LINE
8
BLACK
6
CONTINUOUS
10
129.107
20
-81.0781
11
129.241
21
-81.0649
0
LINE
8
BLACK
6
CONTINUOUS
10
129.241
20
-81.0649
11
129.636
21
-81.0649
0
LINE
8
BLACK
6
CONTINUOUS
10
129.636
20
-81.0649
11
129.77
21
-81.0781
0
LINE
8
BLACK
6
CONTINUOUS
10
88.7489
20
-81.0781
11
88.9211
21
-81.1304
0
LINE
8
BLACK
6
CONTINUOUS
10
88.9211
20
-81.1304
11
89.0798
21
-81.2152
0
LINE
8
BLACK
6
CONTINUOUS
10
89.0798
20
-81.2152
11
89.2189
21
-81.3294
0
LINE
8
BLACK
6
CONTINUOUS
10
89.2189
20
-81.3294
11
89.3331
21
-81.4685
0
LINE
8
BLACK
6
CONTINUOUS
10
89.3331
20
-81.4685
11
89.4179
21
-81.6272
0
LINE
8
BLACK
6
CONTINUOUS
10
89.4179
20
-81.6272
11
89.4702
21
-81.7994
0
LINE
8
BLACK
6
CONTINUOUS
10
89.4702
20
-81.7994
11
89.4878
21
-81.9785
0
LINE
8
BLACK
6
CONTINUOUS
10
89.4878
20
-81.9785
11
89.4702
21
-82.1576
0
LINE
8
BLACK
6
CONTINUOUS
10
89.4702
20
-82.1576
11
89.4179
21
-82.3298
0
LINE
8
BLACK
6
CONTINUOUS
10
89.4179
20
-82.3298
11
89.3331
21
-82.4885
0
LINE
8
BLACK
6
CONTINUOUS
10
89.3331
20
-82.4885
11
89.2189
21
-82.6276
0
LINE
8
BLACK
6
CONTINUOUS
10
89.2189
20
-82.6276
11
89.0798
21
-82.7418
0
LINE
8
BLACK
6
CONTINUOUS
10
89.0798
20
-82.7418
11
88.9211
21
-82.8266
0
LINE
8
BLACK
6
CONTINUOUS
10
88.9211
20
-82.8266
11
88.7489
21
-82.8789
0
LINE
8
BLACK
6
CONTINUOUS
10
88.7489
20
-82.8789
11
88.6147
21
-82.8921
0
LINE
8
BLACK
6
CONTINUOUS
10
88.6147
20
-82.8921
11
88.2201
21
-82.8921
0
LINE
8
BLACK
6
CONTINUOUS
10
88.2201
20
-82.8921
11
88.0859
21
-82.8789
0
LINE
8
BLACK
6
CONTINUOUS
10
88.0859
20
-82.8789
11
87.9137
21
-82.8266
0
LINE
8
BLACK
6
CONTINUOUS
10
87.9137
20
-82.8266
11
87.755
21
-82.7418
0
LINE
8
BLACK
6
CONTINUOUS
10
87.755
20
-82.7418
11
87.6159
21
-82.6276
0
LINE
8
BLACK
6
CONTINUOUS
10
87.6159
20
-82.6276
11
87.5017
21
-82.4885
0
LINE
8
BLACK
6
CONTINUOUS
10
87.5017
20
-82.4885
11
87.4169
21
-82.3298
0
LINE
8
BLACK
6
CONTINUOUS
10
87.4169
20
-82.3298
11
87.3646
21
-82.1576
0
LINE
8
BLACK
6
CONTINUOUS
10
87.3646
20
-82.1576
11
87.347
21
-81.9785
0
LINE
8
BLACK
6
CONTINUOUS
10
87.347
20
-81.9785
11
87.3646
21
-81.7994
0
LINE
8
BLACK
6
CONTINUOUS
10
87.3646
20
-81.7994
11
87.4169
21
-81.6272
0
LINE
8
BLACK
6
CONTINUOUS
10
87.4169
20
-81.6272
11
87.5017
21
-81.4685
0
LINE
8
BLACK
6
CONTINUOUS
10
87.5017
20
-81.4685
11
87.6159
21
-81.3294
0
LINE
8
BLACK
6
CONTINUOUS
10
87.6159
20
-81.3294
11
87.755
21
-81.2152
0
LINE
8
BLACK
6
CONTINUOUS
10
87.755
20
-81.2152
11
87.9137
21
-81.1304
0
LINE
8
BLACK
6
CONTINUOUS
10
87.9137
20
-81.1304
11
88.0859
21
-81.0781
0
LINE
8
BLACK
6
CONTINUOUS
10
88.0859
20
-81.0781
11
88.2201
21
-81.0649
0
LINE
8
BLACK
6
CONTINUOUS
10
88.2201
20
-81.0649
11
88.6147
21
-81.0649
0
LINE
8
BLACK
6
CONTINUOUS
10
88.6147
20
-81.0649
11
88.7489
21
-81.0781
0
LINE
8
BLACK
6
CONTINUOUS
10
118.3
20
-79.6798
11
119.951
21
-79.6798
0
LINE
8
BLACK
6
CONTINUOUS
10
119.951
20
-79.6798
11
119.951
21
-81.153
0
LINE
8
BLACK
6
CONTINUOUS
10
119.951
20
-81.153
11
118.3
21
-81.153
0
LINE
8
BLACK
6
CONTINUOUS
10
118.3
20
-81.153
11
118.3
21
-79.6798
0
LINE
8
BLACK
6
CONTINUOUS
10
88.7489
20
-78.5381
11
88.9211
21
-78.5904
0
LINE
8
BLACK
6
CONTINUOUS
10
88.9211
20
-78.5904
11
89.0798
21
-78.6752
0
LINE
8
BLACK
6
CONTINUOUS
10
89.0798
20
-78.6752
11
89.2189
21
-78.7894
0
LINE
8
BLACK
6
CONTINUOUS
10
89.2189
20
-78.7894
11
89.3331
21
-78.9285
0
LINE
8
BLACK
6
CONTINUOUS
10
89.3331
20
-78.9285
11
89.4179
21
-79.0872
0
LINE
8
BLACK
6
CONTINUOUS
10
89.4179
20
-79.0872
11
89.4702
21
-79.2594
0
LINE
8
BLACK
6
CONTINUOUS
10
89.4702
20
-79.2594
11
89.4878
21
-79.4385
0
LINE
8
BLACK
6
CONTINUOUS
10
89.4878
20
-79.4385
11
89.4702
21
-79.6176
0
LINE
8
BLACK
6
CONTINUOUS
10
89.4702
20
-79.6176
11
89.4179
21
-79.7898
0
LINE
8
BLACK
6
CONTINUOUS
10
89.4179
20
-79.7898
11
89.3331
21
-79.9485
0
LINE
8
BLACK
6
CONTINUOUS
10
89.3331
20
-79.9485
11
89.2189
21
-80.0876
0
LINE
8
BLACK
6
CONTINUOUS
10
89.2189
20
-80.0876
11
89.0798
21
-80.2018
0
LINE
8
BLACK
6
CONTINUOUS
10
89.0798
20
-80.2018
11
88.9211
21
-80.2866
0
LINE
8
BLACK
6
CONTINUOUS
10
88.9211
20
-80.2866
11
88.7489
21
-80.3389
0
LINE
8
BLACK
6
CONTINUOUS
10
88.7489
20
-80.3389
11
88.6147
21
-80.3521
0
LINE
8
BLACK
6
CONTINUOUS
10
88.6147
20
-80.3521
11
88.2201
21
-80.3521
0
LINE
8
BLACK
6
CONTINUOUS
10
88.2201
20
-80.3521
11
88.0859
21
-80.3389
0
LINE
8
BLACK
6
CONTINUOUS
10
88.0859
20
-80.3389
11
87.9137
21
-80.2866
0
LINE
8
BLACK
6
CONTINUOUS
10
87.9137
20
-80.2866
11
87.755
21
-80.2018
0
LINE
8
BLACK
6
CONTINUOUS
10
87.755
20
-80.2018
11
87.6159
21
-80.0876
0
LINE
8
BLACK
6
CONTINUOUS
10
87.6159
20
-80.0876
11
87.5017
21
-79.9485
0
LINE
8
BLACK
6
CONTINUOUS
10
87.5017
20
-79.9485
11
87.4169
21
-79.7898
0
LINE
8
BLACK
6
CONTINUOUS
10
87.4169
20
-79.7898
11
87.3646
21
-79.6176
0
LINE
8
BLACK
6
CONTINUOUS
10
87.3646
20
-79.6176
11
87.347
21
-79.4385
0
LINE
8
BLACK
6
CONTINUOUS
10
87.347
20
-79.4385
11
87.3646
21
-79.2594
0
LINE
8
BLACK
6
CONTINUOUS
10
87.3646
20
-79.2594
11
87.4169
21
-79.0872
0
LINE
8
BLACK
6
CONTINUOUS
10
87.4169
20
-79.0872
11
87.5017
21
-78.9285
0
LINE
8
BLACK
6
CONTINUOUS
10
87.5017
20
-78.9285
11
87.6159
21
-78.7894
0
LINE
8
BLACK
6
CONTINUOUS
10
87.6159
20
-78.7894
11
87.755
21
-78.6752
0
LINE
8
BLACK
6
CONTINUOUS
10
87.755
20
-78.6752
11
87.9137
21
-78.5904
0
LINE
8
BLACK
6
CONTINUOUS
10
87.9137
20
-78.5904
11
88.0859
21
-78.5381
0
LINE
8
BLACK
6
CONTINUOUS
10
88.0859
20
-78.5381
11
88.2201
21
-78.5249
0
LINE
8
BLACK
6
CONTINUOUS
10
88.2201
20
-78.5249
11
88.6147
21
-78.5249
0
LINE
8
BLACK
6
CONTINUOUS
10
88.6147
20
-78.5249
11
88.7489
21
-78.5381
0
LINE
8
BLACK
6
CONTINUOUS
10
129.77
20
-78.5381
11
129.942
21
-78.5904
0
LINE
8
BLACK
6
CONTINUOUS
10
129.942
20
-78.5904
11
130.101
21
-78.6752
0
LINE
8
BLACK
6
CONTINUOUS
10
130.101
20
-78.6752
11
130.24
21
-78.7894
0
LINE
8
BLACK
6
CONTINUOUS
10
130.24
20
-78.7894
11
130.354
21
-78.9285
0
LINE
8
BLACK
6
CONTINUOUS
10
130.354
20
-78.9285
11
130.439
21
-79.0872
0
LINE
8
BLACK
6
CONTINUOUS
10
130.439
20
-79.0872
11
130.491
21
-79.2594
0
LINE
8
BLACK
6
CONTINUOUS
10
130.491
20
-79.2594
11
130.509
21
-79.4385
0
LINE
8
BLACK
6
CONTINUOUS
10
130.509
20
-79.4385
11
130.491
21
-79.6176
0
LINE
8
BLACK
6
CONTINUOUS
10
130.491
20
-79.6176
11
130.439
21
-79.7898
0
LINE
8
BLACK
6
CONTINUOUS
10
130.439
20
-79.7898
11
130.354
21
-79.9485
0
LINE
8
BLACK
6
CONTINUOUS
10
130.354
20
-79.9485
11
130.24
21
-80.0876
0
LINE
8
BLACK
6
CONTINUOUS
10
130.24
20
-80.0876
11
130.101
21
-80.2018
0
LINE
8
BLACK
6
CONTINUOUS
10
130.101
20
-80.2018
11
129.942
21
-80.2866
0
LINE
8
BLACK
6
CONTINUOUS
10
129.942
20
-80.2866
11
129.77
21
-80.3389
0
LINE
8
BLACK
6
CONTINUOUS
10
129.77
20
-80.3389
11
129.636
21
-80.3521
0
LINE
8
BLACK
6
CONTINUOUS
10
129.636
20
-80.3521
11
129.241
21
-80.3521
0
LINE
8
BLACK
6
CONTINUOUS
10
129.241
20
-80.3521
11
129.107
21
-80.3389
0
LINE
8
BLACK
6
CONTINUOUS
10
129.107
20
-80.3389
11
128.935
21
-80.2866
0
LINE
8
BLACK
6
CONTINUOUS
10
128.935
20
-80.2866
11
128.776
21
-80.2018
0
LINE
8
BLACK
6
CONTINUOUS
10
128.776
20
-80.2018
11
128.637
21
-80.0876
0
LINE
8
BLACK
6
CONTINUOUS
10
128.637
20
-80.0876
11
128.523
21
-79.9485
0
LINE
8
BLACK
6
CONTINUOUS
10
128.523
20
-79.9485
11
128.438
21
-79.7898
0
LINE
8
BLACK
6
CONTINUOUS
10
128.438
20
-79.7898
11
128.386
21
-79.6176
0
LINE
8
BLACK
6
CONTINUOUS
10
128.386
20
-79.6176
11
128.368
21
-79.4385
0
LINE
8
BLACK
6
CONTINUOUS
10
128.368
20
-79.4385
11
128.386
21
-79.2594
0
LINE
8
BLACK
6
CONTINUOUS
10
128.386
20
-79.2594
11
128.438
21
-79.0872
0
LINE
8
BLACK
6
CONTINUOUS
10
128.438
20
-79.0872
11
128.523
21
-78.9285
0
LINE
8
BLACK
6
CONTINUOUS
10
128.523
20
-78.9285
11
128.637
21
-78.7894
0
LINE
8
BLACK
6
CONTINUOUS
10
128.637
20
-78.7894
11
128.776
21
-78.6752
0
LINE
8
BLACK
6
CONTINUOUS
10
128.776
20
-78.6752
11
128.935
21
-78.5904
0
LINE
8
BLACK
6
CONTINUOUS
10
128.935
20
-78.5904
11
129.107
21
-78.5381
0
LINE
8
BLACK
6
CONTINUOUS
10
129.107
20
-78.5381
11
129.241
21
-78.5249
0
LINE
8
BLACK
6
CONTINUOUS
10
129.241
20
-78.5249
11
129.636
21
-78.5249
0
LINE
8
BLACK
6
CONTINUOUS
10
129.636
20
-78.5249
11
129.77
21
-78.5381
0
LINE
8
BLACK
6
CONTINUOUS
10
88.7489
20
-75.9981
11
88.9211
21
-76.0504
0
LINE
8
BLACK
6
CONTINUOUS
10
88.9211
20
-76.0504
11
89.0798
21
-76.1352
0
LINE
8
BLACK
6
CONTINUOUS
10
89.0798
20
-76.1352
11
89.2189
21
-76.2494
0
LINE
8
BLACK
6
CONTINUOUS
10
89.2189
20
-76.2494
11
89.3331
21
-76.3885
0
LINE
8
BLACK
6
CONTINUOUS
10
89.3331
20
-76.3885
11
89.4179
21
-76.5472
0
LINE
8
BLACK
6
CONTINUOUS
10
89.4179
20
-76.5472
11
89.4702
21
-76.7194
0
LINE
8
BLACK
6
CONTINUOUS
10
89.4702
20
-76.7194
11
89.4878
21
-76.8985
0
LINE
8
BLACK
6
CONTINUOUS
10
89.4878
20
-76.8985
11
89.4702
21
-77.0776
0
LINE
8
BLACK
6
CONTINUOUS
10
89.4702
20
-77.0776
11
89.4179
21
-77.2498
0
LINE
8
BLACK
6
CONTINUOUS
10
89.4179
20
-77.2498
11
89.3331
21
-77.4085
0
LINE
8
BLACK
6
CONTINUOUS
10
89.3331
20
-77.4085
11
89.2189
21
-77.5476
0
LINE
8
BLACK
6
CONTINUOUS
10
89.2189
20
-77.5476
11
89.0798
21
-77.6618
0
LINE
8
BLACK
6
CONTINUOUS
10
89.0798
20
-77.6618
11
88.9211
21
-77.7466
0
LINE
8
BLACK
6
CONTINUOUS
10
88.9211
20
-77.7466
11
88.7489
21
-77.7989
0
LINE
8
BLACK
6
CONTINUOUS
10
88.7489
20
-77.7989
11
88.6147
21
-77.8121
0
LINE
8
BLACK
6
CONTINUOUS
10
88.6147
20
-77.8121
11
88.2201
21
-77.8121
0
LINE
8
BLACK
6
CONTINUOUS
10
88.2201
20
-77.8121
11
88.0859
21
-77.7989
0
LINE
8
BLACK
6
CONTINUOUS
10
88.0859
20
-77.7989
11
87.9137
21
-77.7466
0
LINE
8
BLACK
6
CONTINUOUS
10
87.9137
20
-77.7466
11
87.755
21
-77.6618
0
LINE
8
BLACK
6
CONTINUOUS
10
87.755
20
-77.6618
11
87.6159
21
-77.5476
0
LINE
8
BLACK
6
CONTINUOUS
10
87.6159
20
-77.5476
11
87.5017
21
-77.4085
0
LINE
8
BLACK
6
CONTINUOUS
10
87.5017
20
-77.4085
11
87.4169
21
-77.2498
0
LINE
8
BLACK
6
CONTINUOUS
10
87.4169
20
-77.2498
11
87.3646
21
-77.0776
0
LINE
8
BLACK
6
CONTINUOUS
10
87.3646
20
-77.0776
11
87.347
21
-76.8985
0
LINE
8
BLACK
6
CONTINUOUS
10
87.347
20
-76.8985
11
87.3646
21
-76.7194
0
LINE
8
BLACK
6
CONTINUOUS
10
87.3646
20
-76.7194
11
87.4169
21
-76.5472
0
LINE
8
BLACK
6
CONTINUOUS
10
87.4169
20
-76.5472
11
87.5017
21
-76.3885
0
LINE
8
BLACK
6
CONTINUOUS
10
87.5017
20
-76.3885
11
87.6159
21
-76.2494
0
LINE
8
BLACK
6
CONTINUOUS
10
87.6159
20
-76.2494
11
87.755
21
-76.1352
0
LINE
8
BLACK
6
CONTINUOUS
10
87.755
20
-76.1352
11
87.9137
21
-76.0504
0
LINE
8
BLACK
6
CONTINUOUS
10
87.9137
20
-76.0504
11
88.0859
21
-75.9981
0
LINE
8
BLACK
6
CONTINUOUS
10
88.0859
20
-75.9981
11
88.2201
21
-75.9849
0
LINE
8
BLACK
6
CONTINUOUS
10
88.2201
20
-75.9849
11
88.6147
21
-75.9849
0
LINE
8
BLACK
6
CONTINUOUS
10
88.6147
20
-75.9849
11
88.7489
21
-75.9981
0
LINE
8
BLACK
6
CONTINUOUS
10
129.77
20
-75.9981
11
129.942
21
-76.0504
0
LINE
8
BLACK
6
CONTINUOUS
10
129.942
20
-76.0504
11
130.101
21
-76.1352
0
LINE
8
BLACK
6
CONTINUOUS
10
130.101
20
-76.1352
11
130.24
21
-76.2494
0
LINE
8
BLACK
6
CONTINUOUS
10
130.24
20
-76.2494
11
130.354
21
-76.3885
0
LINE
8
BLACK
6
CONTINUOUS
10
130.354
20
-76.3885
11
130.439
21
-76.5472
0
LINE
8
BLACK
6
CONTINUOUS
10
130.439
20
-76.5472
11
130.491
21
-76.7194
0
LINE
8
BLACK
6
CONTINUOUS
10
130.491
20
-76.7194
11
130.509
21
-76.8985
0
LINE
8
BLACK
6
CONTINUOUS
10
130.509
20
-76.8985
11
130.491
21
-77.0776
0
LINE
8
BLACK
6
CONTINUOUS
10
130.491
20
-77.0776
11
130.439
21
-77.2498
0
LINE
8
BLACK
6
CONTINUOUS
10
130.439
20
-77.2498
11
130.354
21
-77.4085
0
LINE
8
BLACK
6
CONTINUOUS
10
130.354
20
-77.4085
11
130.24
21
-77.5476
0
LINE
8
BLACK
6
CONTINUOUS
10
130.24
20
-77.5476
11
130.101
21
-77.6618
0
LINE
8
BLACK
6
CONTINUOUS
10
130.101
20
-77.6618
11
129.942
21
-77.7466
0
LINE
8
BLACK
6
CONTINUOUS
10
129.942
20
-77.7466
11
129.77
21
-77.7989
0
LINE
8
BLACK
6
CONTINUOUS
10
129.77
20
-77.7989
11
129.636
21
-77.8121
0
LINE
8
BLACK
6
CONTINUOUS
10
129.636
20
-77.8121
11
129.241
21
-77.8121
0
LINE
8
BLACK
6
CONTINUOUS
10
129.241
20
-77.8121
11
129.107
21
-77.7989
0
LINE
8
BLACK
6
CONTINUOUS
10
129.107
20
-77.7989
11
128.935
21
-77.7466
0
LINE
8
BLACK
6
CONTINUOUS
10
128.935
20
-77.7466
11
128.776
21
-77.6618
0
LINE
8
BLACK
6
CONTINUOUS
10
128.776
20
-77.6618
11
128.637
21
-77.5476
0
LINE
8
BLACK
6
CONTINUOUS
10
128.637
20
-77.5476
11
128.523
21
-77.4085
0
LINE
8
BLACK
6
CONTINUOUS
10
128.523
20
-77.4085
11
128.438
21
-77.2498
0
LINE
8
BLACK
6
CONTINUOUS
10
128.438
20
-77.2498
11
128.386
21
-77.0776
0
LINE
8
BLACK
6
CONTINUOUS
10
128.386
20
-77.0776
11
128.368
21
-76.8985
0
LINE
8
BLACK
6
CONTINUOUS
10
128.368
20
-76.8985
11
128.386
21
-76.7194
0
LINE
8
BLACK
6
CONTINUOUS
10
128.386
20
-76.7194
11
128.438
21
-76.5472
0
LINE
8
BLACK
6
CONTINUOUS
10
128.438
20
-76.5472
11
128.523
21
-76.3885
0
LINE
8
BLACK
6
CONTINUOUS
10
128.523
20
-76.3885
11
128.637
21
-76.2494
0
LINE
8
BLACK
6
CONTINUOUS
10
128.637
20
-76.2494
11
128.776
21
-76.1352
0
LINE
8
BLACK
6
CONTINUOUS
10
128.776
20
-76.1352
11
128.935
21
-76.0504
0
LINE
8
BLACK
6
CONTINUOUS
10
128.935
20
-76.0504
11
129.107
21
-75.9981
0
LINE
8
BLACK
6
CONTINUOUS
10
129.107
20
-75.9981
11
129.241
21
-75.9849
0
LINE
8
BLACK
6
CONTINUOUS
10
129.241
20
-75.9849
11
129.636
21
-75.9849
0
LINE
8
BLACK
6
CONTINUOUS
10
129.636
20
-75.9849
11
129.77
21
-75.9981
0
LINE
8
BLACK
6
CONTINUOUS
10
118.609
20
-75.5665
11
117.809
21
-75.5665
0
LINE
8
BLACK
6
CONTINUOUS
10
117.809
20
-75.5665
11
117.809
21
-74.1665
0
LINE
8
BLACK
6
CONTINUOUS
10
117.809
20
-74.1665
11
118.609
21
-74.1665
0
LINE
8
BLACK
6
CONTINUOUS
10
118.609
20
-74.1665
11
118.609
21
-75.5665
0
LINE
8
BLACK
6
CONTINUOUS
10
116.709
20
-75.5665
11
115.909
21
-75.5665
0
LINE
8
BLACK
6
CONTINUOUS
10
115.909
20
-75.5665
11
115.909
21
-74.1665
0
LINE
8
BLACK
6
CONTINUOUS
10
115.909
20
-74.1665
11
116.709
21
-74.1665
0
LINE
8
BLACK
6
CONTINUOUS
10
116.709
20
-74.1665
11
116.709
21
-75.5665
0
LINE
8
BLACK
6
CONTINUOUS
10
88.7489
20
-73.4581
11
88.9211
21
-73.5104
0
LINE
8
BLACK
6
CONTINUOUS
10
88.9211
20
-73.5104
11
89.0798
21
-73.5952
0
LINE
8
BLACK
6
CONTINUOUS
10
89.0798
20
-73.5952
11
89.2189
21
-73.7094
0
LINE
8
BLACK
6
CONTINUOUS
10
89.2189
20
-73.7094
11
89.3331
21
-73.8485
0
LINE
8
BLACK
6
CONTINUOUS
10
89.3331
20
-73.8485
11
89.4179
21
-74.0072
0
LINE
8
BLACK
6
CONTINUOUS
10
89.4179
20
-74.0072
11
89.4702
21
-74.1794
0
LINE
8
BLACK
6
CONTINUOUS
10
89.4702
20
-74.1794
11
89.4878
21
-74.3585
0
LINE
8
BLACK
6
CONTINUOUS
10
89.4878
20
-74.3585
11
89.4702
21
-74.5376
0
LINE
8
BLACK
6
CONTINUOUS
10
89.4702
20
-74.5376
11
89.4179
21
-74.7098
0
LINE
8
BLACK
6
CONTINUOUS
10
89.4179
20
-74.7098
11
89.3331
21
-74.8685
0
LINE
8
BLACK
6
CONTINUOUS
10
89.3331
20
-74.8685
11
89.2189
21
-75.0076
0
LINE
8
BLACK
6
CONTINUOUS
10
89.2189
20
-75.0076
11
89.0798
21
-75.1218
0
LINE
8
BLACK
6
CONTINUOUS
10
89.0798
20
-75.1218
11
88.9211
21
-75.2066
0
LINE
8
BLACK
6
CONTINUOUS
10
88.9211
20
-75.2066
11
88.7489
21
-75.2589
0
LINE
8
BLACK
6
CONTINUOUS
10
88.7489
20
-75.2589
11
88.6147
21
-75.2721
0
LINE
8
BLACK
6
CONTINUOUS
10
88.6147
20
-75.2721
11
88.2201
21
-75.2721
0
LINE
8
BLACK
6
CONTINUOUS
10
88.2201
20
-75.2721
11
88.0859
21
-75.2589
0
LINE
8
BLACK
6
CONTINUOUS
10
88.0859
20
-75.2589
11
87.9137
21
-75.2066
0
LINE
8
BLACK
6
CONTINUOUS
10
87.9137
20
-75.2066
11
87.755
21
-75.1218
0
LINE
8
BLACK
6
CONTINUOUS
10
87.755
20
-75.1218
11
87.6159
21
-75.0076
0
LINE
8
BLACK
6
CONTINUOUS
10
87.6159
20
-75.0076
11
87.5017
21
-74.8685
0
LINE
8
BLACK
6
CONTINUOUS
10
87.5017
20
-74.8685
11
87.4169
21
-74.7098
0
LINE
8
BLACK
6
CONTINUOUS
10
87.4169
20
-74.7098
11
87.3646
21
-74.5376
0
LINE
8
BLACK
6
CONTINUOUS
10
87.3646
20
-74.5376
11
87.347
21
-74.3585
0
LINE
8
BLACK
6
CONTINUOUS
10
87.347
20
-74.3585
11
87.3646
21
-74.1794
0
LINE
8
BLACK
6
CONTINUOUS
10
87.3646
20
-74.1794
11
87.4169
21
-74.0072
0
LINE
8
BLACK
6
CONTINUOUS
10
87.4169
20
-74.0072
11
87.5017
21
-73.8485
0
LINE
8
BLACK
6
CONTINUOUS
10
87.5017
20
-73.8485
11
87.6159
21
-73.7094
0
LINE
8
BLACK
6
CONTINUOUS
10
87.6159
20
-73.7094
11
87.755
21
-73.5952
0
LINE
8
BLACK
6
CONTINUOUS
10
87.755
20
-73.5952
11
87.9137
21
-73.5104
0
LINE
8
BLACK
6
CONTINUOUS
10
87.9137
20
-73.5104
11
88.0859
21
-73.4581
0
LINE
8
BLACK
6
CONTINUOUS
10
88.0859
20
-73.4581
11
88.2201
21
-73.4449
0
LINE
8
BLACK
6
CONTINUOUS
10
88.2201
20
-73.4449
11
88.6147
21
-73.4449
0
LINE
8
BLACK
6
CONTINUOUS
10
88.6147
20
-73.4449
11
88.7489
21
-73.4581
0
LINE
8
BLACK
6
CONTINUOUS
10
129.77
20
-73.4581
11
129.942
21
-73.5104
0
LINE
8
BLACK
6
CONTINUOUS
10
129.942
20
-73.5104
11
130.101
21
-73.5952
0
LINE
8
BLACK
6
CONTINUOUS
10
130.101
20
-73.5952
11
130.24
21
-73.7094
0
LINE
8
BLACK
6
CONTINUOUS
10
130.24
20
-73.7094
11
130.354
21
-73.8485
0
LINE
8
BLACK
6
CONTINUOUS
10
130.354
20
-73.8485
11
130.439
21
-74.0072
0
LINE
8
BLACK
6
CONTINUOUS
10
130.439
20
-74.0072
11
130.491
21
-74.1794
0
LINE
8
BLACK
6
CONTINUOUS
10
130.491
20
-74.1794
11
130.509
21
-74.3585
0
LINE
8
BLACK
6
CONTINUOUS
10
130.509
20
-74.3585
11
130.491
21
-74.5376
0
LINE
8
BLACK
6
CONTINUOUS
10
130.491
20
-74.5376
11
130.439
21
-74.7098
0
LINE
8
BLACK
6
CONTINUOUS
10
130.439
20
-74.7098
11
130.354
21
-74.8685
0
LINE
8
BLACK
6
CONTINUOUS
10
130.354
20
-74.8685
11
130.24
21
-75.0076
0
LINE
8
BLACK
6
CONTINUOUS
10
130.24
20
-75.0076
11
130.101
21
-75.1218
0
LINE
8
BLACK
6
CONTINUOUS
10
130.101
20
-75.1218
11
129.942
21
-75.2066
0
LINE
8
BLACK
6
CONTINUOUS
10
129.942
20
-75.2066
11
129.77
21
-75.2589
0
LINE
8
BLACK
6
CONTINUOUS
10
129.77
20
-75.2589
11
129.636
21
-75.2721
0
LINE
8
BLACK
6
CONTINUOUS
10
129.636
20
-75.2721
11
129.241
21
-75.2721
0
LINE
8
BLACK
6
CONTINUOUS
10
129.241
20
-75.2721
11
129.107
21
-75.2589
0
LINE
8
BLACK
6
CONTINUOUS
10
129.107
20
-75.2589
11
128.935
21
-75.2066
0
LINE
8
BLACK
6
CONTINUOUS
10
128.935
20
-75.2066
11
128.776
21
-75.1218
0
LINE
8
BLACK
6
CONTINUOUS
10
128.776
20
-75.1218
11
128.637
21
-75.0076
0
LINE
8
BLACK
6
CONTINUOUS
10
128.637
20
-75.0076
11
128.523
21
-74.8685
0
LINE
8
BLACK
6
CONTINUOUS
10
128.523
20
-74.8685
11
128.438
21
-74.7098
0
LINE
8
BLACK
6
CONTINUOUS
10
128.438
20
-74.7098
11
128.386
21
-74.5376
0
LINE
8
BLACK
6
CONTINUOUS
10
128.386
20
-74.5376
11
128.368
21
-74.3585
0
LINE
8
BLACK
6
CONTINUOUS
10
128.368
20
-74.3585
11
128.386
21
-74.1794
0
LINE
8
BLACK
6
CONTINUOUS
10
128.386
20
-74.1794
11
128.438
21
-74.0072
0
LINE
8
BLACK
6
CONTINUOUS
10
128.438
20
-74.0072
11
128.523
21
-73.8485
0
LINE
8
BLACK
6
CONTINUOUS
10
128.523
20
-73.8485
11
128.637
21
-73.7094
0
LINE
8
BLACK
6
CONTINUOUS
10
128.637
20
-73.7094
11
128.776
21
-73.5952
0
LINE
8
BLACK
6
CONTINUOUS
10
128.776
20
-73.5952
11
128.935
21
-73.5104
0
LINE
8
BLACK
6
CONTINUOUS
10
128.935
20
-73.5104
11
129.107
21
-73.4581
0
LINE
8
BLACK
6
CONTINUOUS
10
129.107
20
-73.4581
11
129.241
21
-73.4449
0
LINE
8
BLACK
6
CONTINUOUS
10
129.241
20
-73.4449
11
129.636
21
-73.4449
0
LINE
8
BLACK
6
CONTINUOUS
10
129.636
20
-73.4449
11
129.77
21
-73.4581
0
LINE
8
BLACK
6
CONTINUOUS
10
88.7489
20
-70.9181
11
88.9211
21
-70.9704
0
LINE
8
BLACK
6
CONTINUOUS
10
88.9211
20
-70.9704
11
89.0798
21
-71.0552
0
LINE
8
BLACK
6
CONTINUOUS
10
89.0798
20
-71.0552
11
89.2189
21
-71.1694
0
LINE
8
BLACK
6
CONTINUOUS
10
89.2189
20
-71.1694
11
89.3331
21
-71.3085
0
LINE
8
BLACK
6
CONTINUOUS
10
89.3331
20
-71.3085
11
89.4179
21
-71.4672
0
LINE
8
BLACK
6
CONTINUOUS
10
89.4179
20
-71.4672
11
89.4702
21
-71.6394
0
LINE
8
BLACK
6
CONTINUOUS
10
89.4702
20
-71.6394
11
89.4878
21
-71.8185
0
LINE
8
BLACK
6
CONTINUOUS
10
89.4878
20
-71.8185
11
89.4702
21
-71.9976
0
LINE
8
BLACK
6
CONTINUOUS
10
89.4702
20
-71.9976
11
89.4179
21
-72.1698
0
LINE
8
BLACK
6
CONTINUOUS
10
89.4179
20
-72.1698
11
89.3331
21
-72.3285
0
LINE
8
BLACK
6
CONTINUOUS
10
89.3331
20
-72.3285
11
89.2189
21
-72.4676
0
LINE
8
BLACK
6
CONTINUOUS
10
89.2189
20
-72.4676
11
89.0798
21
-72.5818
0
LINE
8
BLACK
6
CONTINUOUS
10
89.0798
20
-72.5818
11
88.9211
21
-72.6666
0
LINE
8
BLACK
6
CONTINUOUS
10
88.9211
20
-72.6666
11
88.7489
21
-72.7189
0
LINE
8
BLACK
6
CONTINUOUS
10
88.7489
20
-72.7189
11
88.6147
21
-72.7321
0
LINE
8
BLACK
6
CONTINUOUS
10
88.6147
20
-72.7321
11
88.2201
21
-72.7321
0
LINE
8
BLACK
6
CONTINUOUS
10
88.2201
20
-72.7321
11
88.0859
21
-72.7189
0
LINE
8
BLACK
6
CONTINUOUS
10
88.0859
20
-72.7189
11
87.9137
21
-72.6666
0
LINE
8
BLACK
6
CONTINUOUS
10
87.9137
20
-72.6666
11
87.755
21
-72.5818
0
LINE
8
BLACK
6
CONTINUOUS
10
87.755
20
-72.5818
11
87.6159
21
-72.4676
0
LINE
8
BLACK
6
CONTINUOUS
10
87.6159
20
-72.4676
11
87.5017
21
-72.3285
0
LINE
8
BLACK
6
CONTINUOUS
10
87.5017
20
-72.3285
11
87.4169
21
-72.1698
0
LINE
8
BLACK
6
CONTINUOUS
10
87.4169
20
-72.1698
11
87.3646
21
-71.9976
0
LINE
8
BLACK
6
CONTINUOUS
10
87.3646
20
-71.9976
11
87.347
21
-71.8185
0
LINE
8
BLACK
6
CONTINUOUS
10
87.347
20
-71.8185
11
87.3646
21
-71.6394
0
LINE
8
BLACK
6
CONTINUOUS
10
87.3646
20
-71.6394
11
87.4169
21
-71.4672
0
LINE
8
BLACK
6
CONTINUOUS
10
87.4169
20
-71.4672
11
87.5017
21
-71.3085
0
LINE
8
BLACK
6
CONTINUOUS
10
87.5017
20
-71.3085
11
87.6159
21
-71.1694
0
LINE
8
BLACK
6
CONTINUOUS
10
87.6159
20
-71.1694
11
87.755
21
-71.0552
0
LINE
8
BLACK
6
CONTINUOUS
10
87.755
20
-71.0552
11
87.9137
21
-70.9704
0
LINE
8
BLACK
6
CONTINUOUS
10
87.9137
20
-70.9704
11
88.0859
21
-70.9181
0
LINE
8
BLACK
6
CONTINUOUS
10
88.0859
20
-70.9181
11
88.2201
21
-70.9049
0
LINE
8
BLACK
6
CONTINUOUS
10
88.2201
20
-70.9049
11
88.6147
21
-70.9049
0
LINE
8
BLACK
6
CONTINUOUS
10
88.6147
20
-70.9049
11
88.7489
21
-70.9181
0
LINE
8
BLACK
6
CONTINUOUS
10
129.77
20
-70.9181
11
129.942
21
-70.9704
0
LINE
8
BLACK
6
CONTINUOUS
10
129.942
20
-70.9704
11
130.101
21
-71.0552
0
LINE
8
BLACK
6
CONTINUOUS
10
130.101
20
-71.0552
11
130.24
21
-71.1694
0
LINE
8
BLACK
6
CONTINUOUS
10
130.24
20
-71.1694
11
130.354
21
-71.3085
0
LINE
8
BLACK
6
CONTINUOUS
10
130.354
20
-71.3085
11
130.439
21
-71.4672
0
LINE
8
BLACK
6
CONTINUOUS
10
130.439
20
-71.4672
11
130.491
21
-71.6394
0
LINE
8
BLACK
6
CONTINUOUS
10
130.491
20
-71.6394
11
130.509
21
-71.8185
0
LINE
8
BLACK
6
CONTINUOUS
10
130.509
20
-71.8185
11
130.491
21
-71.9976
0
LINE
8
BLACK
6
CONTINUOUS
10
130.491
20
-71.9976
11
130.439
21
-72.1698
0
LINE
8
BLACK
6
CONTINUOUS
10
130.439
20
-72.1698
11
130.354
21
-72.3285
0
LINE
8
BLACK
6
CONTINUOUS
10
130.354
20
-72.3285
11
130.24
21
-72.4676
0
LINE
8
BLACK
6
CONTINUOUS
10
130.24
20
-72.4676
11
130.101
21
-72.5818
0
LINE
8
BLACK
6
CONTINUOUS
10
130.101
20
-72.5818
11
129.942
21
-72.6666
0
LINE
8
BLACK
6
CONTINUOUS
10
129.942
20
-72.6666
11
129.77
21
-72.7189
0
LINE
8
BLACK
6
CONTINUOUS
10
129.77
20
-72.7189
11
129.636
21
-72.7321
0
LINE
8
BLACK
6
CONTINUOUS
10
129.636
20
-72.7321
11
129.241
21
-72.7321
0
LINE
8
BLACK
6
CONTINUOUS
10
129.241
20
-72.7321
11
129.107
21
-72.7189
0
LINE
8
BLACK
6
CONTINUOUS
10
129.107
20
-72.7189
11
128.935
21
-72.6666
0
LINE
8
BLACK
6
CONTINUOUS
10
128.935
20
-72.6666
11
128.776
21
-72.5818
0
LINE
8
BLACK
6
CONTINUOUS
10
128.776
20
-72.5818
11
128.637
21
-72.4676
0
LINE
8
BLACK
6
CONTINUOUS
10
128.637
20
-72.4676
11
128.523
21
-72.3285
0
LINE
8
BLACK
6
CONTINUOUS
10
128.523
20
-72.3285
11
128.438
21
-72.1698
0
LINE
8
BLACK
6
CONTINUOUS
10
128.438
20
-72.1698
11
128.386
21
-71.9976
0
LINE
8
BLACK
6
CONTINUOUS
10
128.386
20
-71.9976
11
128.368
21
-71.8185
0
LINE
8
BLACK
6
CONTINUOUS
10
128.368
20
-71.8185
11
128.386
21
-71.6394
0
LINE
8
BLACK
6
CONTINUOUS
10
128.386
20
-71.6394
11
128.438
21
-71.4672
0
LINE
8
BLACK
6
CONTINUOUS
10
128.438
20
-71.4672
11
128.523
21
-71.3085
0
LINE
8
BLACK
6
CONTINUOUS
10
128.523
20
-71.3085
11
128.637
21
-71.1694
0
LINE
8
BLACK
6
CONTINUOUS
10
128.637
20
-71.1694
11
128.776
21
-71.0552
0
LINE
8
BLACK
6
CONTINUOUS
10
128.776
20
-71.0552
11
128.935
21
-70.9704
0
LINE
8
BLACK
6
CONTINUOUS
10
128.935
20
-70.9704
11
129.107
21
-70.9181
0
LINE
8
BLACK
6
CONTINUOUS
10
129.107
20
-70.9181
11
129.241
21
-70.9049
0
LINE
8
BLACK
6
CONTINUOUS
10
129.241
20
-70.9049
11
129.636
21
-70.9049
0
LINE
8
BLACK
6
CONTINUOUS
10
129.636
20
-70.9049
11
129.77
21
-70.9181
0
LINE
8
BLACK
6
CONTINUOUS
10
112.568
20
-72.5486
11
109.968
21
-72.5486
0
LINE
8
BLACK
6
CONTINUOUS
10
109.968
20
-72.5486
11
109.968
21
-70.1486
0
LINE
8
BLACK
6
CONTINUOUS
10
109.968
20
-70.1486
11
112.568
21
-70.1486
0
LINE
8
BLACK
6
CONTINUOUS
10
112.568
20
-70.1486
11
112.568
21
-72.5486
0
LINE
8
BLACK
6
CONTINUOUS
10
108.268
20
-72.5486
11
105.668
21
-72.5486
0
LINE
8
BLACK
6
CONTINUOUS
10
105.668
20
-72.5486
11
105.668
21
-70.1486
0
LINE
8
BLACK
6
CONTINUOUS
10
105.668
20
-70.1486
11
108.268
21
-70.1486
0
LINE
8
BLACK
6
CONTINUOUS
10
108.268
20
-70.1486
11
108.268
21
-72.5486
0
LINE
8
BLACK
6
CONTINUOUS
10
104.263
20
-72.5359
11
101.663
21
-72.5359
0
LINE
8
BLACK
6
CONTINUOUS
10
101.663
20
-72.5359
11
101.663
21
-70.1359
0
LINE
8
BLACK
6
CONTINUOUS
10
101.663
20
-70.1359
11
104.263
21
-70.1359
0
LINE
8
BLACK
6
CONTINUOUS
10
104.263
20
-70.1359
11
104.263
21
-72.5359
0
LINE
8
BLACK
6
CONTINUOUS
10
99.9626
20
-72.5359
11
97.3626
21
-72.5359
0
LINE
8
BLACK
6
CONTINUOUS
10
97.3626
20
-72.5359
11
97.3626
21
-70.1359
0
LINE
8
BLACK
6
CONTINUOUS
10
97.3626
20
-70.1359
11
99.9626
21
-70.1359
0
LINE
8
BLACK
6
CONTINUOUS
10
99.9626
20
-70.1359
11
99.9626
21
-72.5359
0
LINE
8
BLACK
6
CONTINUOUS
10
116.587
20
-72.4978
11
113.987
21
-72.4978
0
LINE
8
BLACK
6
CONTINUOUS
10
113.987
20
-72.4978
11
113.987
21
-70.0978
0
LINE
8
BLACK
6
CONTINUOUS
10
113.987
20
-70.0978
11
116.587
21
-70.0978
0
LINE
8
BLACK
6
CONTINUOUS
10
116.587
20
-70.0978
11
116.587
21
-72.4978
0
LINE
8
BLACK
6
CONTINUOUS
10
120.887
20
-72.4978
11
118.287
21
-72.4978
0
LINE
8
BLACK
6
CONTINUOUS
10
118.287
20
-72.4978
11
118.287
21
-70.0978
0
LINE
8
BLACK
6
CONTINUOUS
10
118.287
20
-70.0978
11
120.887
21
-70.0978
0
LINE
8
BLACK
6
CONTINUOUS
10
120.887
20
-70.0978
11
120.887
21
-72.4978
0
LINE
8
BLACK
6
CONTINUOUS
10
88.7489
20
-68.3781
11
88.9211
21
-68.4304
0
LINE
8
BLACK
6
CONTINUOUS
10
88.9211
20
-68.4304
11
89.0798
21
-68.5152
0
LINE
8
BLACK
6
CONTINUOUS
10
89.0798
20
-68.5152
11
89.2189
21
-68.6294
0
LINE
8
BLACK
6
CONTINUOUS
10
89.2189
20
-68.6294
11
89.3331
21
-68.7685
0
LINE
8
BLACK
6
CONTINUOUS
10
89.3331
20
-68.7685
11
89.4179
21
-68.9272
0
LINE
8
BLACK
6
CONTINUOUS
10
89.4179
20
-68.9272
11
89.4702
21
-69.0994
0
LINE
8
BLACK
6
CONTINUOUS
10
89.4702
20
-69.0994
11
89.4878
21
-69.2785
0
LINE
8
BLACK
6
CONTINUOUS
10
89.4878
20
-69.2785
11
89.4702
21
-69.4576
0
LINE
8
BLACK
6
CONTINUOUS
10
89.4702
20
-69.4576
11
89.4179
21
-69.6298
0
LINE
8
BLACK
6
CONTINUOUS
10
89.4179
20
-69.6298
11
89.3331
21
-69.7885
0
LINE
8
BLACK
6
CONTINUOUS
10
89.3331
20
-69.7885
11
89.2189
21
-69.9276
0
LINE
8
BLACK
6
CONTINUOUS
10
89.2189
20
-69.9276
11
89.0798
21
-70.0418
0
LINE
8
BLACK
6
CONTINUOUS
10
89.0798
20
-70.0418
11
88.9211
21
-70.1266
0
LINE
8
BLACK
6
CONTINUOUS
10
88.9211
20
-70.1266
11
88.7489
21
-70.1789
0
LINE
8
BLACK
6
CONTINUOUS
10
88.7489
20
-70.1789
11
88.6147
21
-70.1921
0
LINE
8
BLACK
6
CONTINUOUS
10
88.6147
20
-70.1921
11
88.2201
21
-70.1921
0
LINE
8
BLACK
6
CONTINUOUS
10
88.2201
20
-70.1921
11
88.0859
21
-70.1789
0
LINE
8
BLACK
6
CONTINUOUS
10
88.0859
20
-70.1789
11
87.9137
21
-70.1266
0
LINE
8
BLACK
6
CONTINUOUS
10
87.9137
20
-70.1266
11
87.755
21
-70.0418
0
LINE
8
BLACK
6
CONTINUOUS
10
87.755
20
-70.0418
11
87.6159
21
-69.9276
0
LINE
8
BLACK
6
CONTINUOUS
10
87.6159
20
-69.9276
11
87.5017
21
-69.7885
0
LINE
8
BLACK
6
CONTINUOUS
10
87.5017
20
-69.7885
11
87.4169
21
-69.6298
0
LINE
8
BLACK
6
CONTINUOUS
10
87.4169
20
-69.6298
11
87.3646
21
-69.4576
0
LINE
8
BLACK
6
CONTINUOUS
10
87.3646
20
-69.4576
11
87.347
21
-69.2785
0
LINE
8
BLACK
6
CONTINUOUS
10
87.347
20
-69.2785
11
87.3646
21
-69.0994
0
LINE
8
BLACK
6
CONTINUOUS
10
87.3646
20
-69.0994
11
87.4169
21
-68.9272
0
LINE
8
BLACK
6
CONTINUOUS
10
87.4169
20
-68.9272
11
87.5017
21
-68.7685
0
LINE
8
BLACK
6
CONTINUOUS
10
87.5017
20
-68.7685
11
87.6159
21
-68.6294
0
LINE
8
BLACK
6
CONTINUOUS
10
87.6159
20
-68.6294
11
87.755
21
-68.5152
0
LINE
8
BLACK
6
CONTINUOUS
10
87.755
20
-68.5152
11
87.9137
21
-68.4304
0
LINE
8
BLACK
6
CONTINUOUS
10
87.9137
20
-68.4304
11
88.0859
21
-68.3781
0
LINE
8
BLACK
6
CONTINUOUS
10
88.0859
20
-68.3781
11
88.2201
21
-68.3649
0
LINE
8
BLACK
6
CONTINUOUS
10
88.2201
20
-68.3649
11
88.6147
21
-68.3649
0
LINE
8
BLACK
6
CONTINUOUS
10
88.6147
20
-68.3649
11
88.7489
21
-68.3781
0
LINE
8
BLACK
6
CONTINUOUS
10
129.77
20
-68.3781
11
129.942
21
-68.4304
0
LINE
8
BLACK
6
CONTINUOUS
10
129.942
20
-68.4304
11
130.101
21
-68.5152
0
LINE
8
BLACK
6
CONTINUOUS
10
130.101
20
-68.5152
11
130.24
21
-68.6294
0
LINE
8
BLACK
6
CONTINUOUS
10
130.24
20
-68.6294
11
130.354
21
-68.7685
0
LINE
8
BLACK
6
CONTINUOUS
10
130.354
20
-68.7685
11
130.439
21
-68.9272
0
LINE
8
BLACK
6
CONTINUOUS
10
130.439
20
-68.9272
11
130.491
21
-69.0994
0
LINE
8
BLACK
6
CONTINUOUS
10
130.491
20
-69.0994
11
130.509
21
-69.2785
0
LINE
8
BLACK
6
CONTINUOUS
10
130.509
20
-69.2785
11
130.491
21
-69.4576
0
LINE
8
BLACK
6
CONTINUOUS
10
130.491
20
-69.4576
11
130.439
21
-69.6298
0
LINE
8
BLACK
6
CONTINUOUS
10
130.439
20
-69.6298
11
130.354
21
-69.7885
0
LINE
8
BLACK
6
CONTINUOUS
10
130.354
20
-69.7885
11
130.24
21
-69.9276
0
LINE
8
BLACK
6
CONTINUOUS
10
130.24
20
-69.9276
11
130.101
21
-70.0418
0
LINE
8
BLACK
6
CONTINUOUS
10
130.101
20
-70.0418
11
129.942
21
-70.1266
0
LINE
8
BLACK
6
CONTINUOUS
10
129.942
20
-70.1266
11
129.77
21
-70.1789
0
LINE
8
BLACK
6
CONTINUOUS
10
129.77
20
-70.1789
11
129.636
21
-70.1921
0
LINE
8
BLACK
6
CONTINUOUS
10
129.636
20
-70.1921
11
129.241
21
-70.1921
0
LINE
8
BLACK
6
CONTINUOUS
10
129.241
20
-70.1921
11
129.107
21
-70.1789
0
LINE
8
BLACK
6
CONTINUOUS
10
129.107
20
-70.1789
11
128.935
21
-70.1266
0
LINE
8
BLACK
6
CONTINUOUS
10
128.935
20
-70.1266
11
128.776
21
-70.0418
0
LINE
8
BLACK
6
CONTINUOUS
10
128.776
20
-70.0418
11
128.637
21
-69.9276
0
LINE
8
BLACK
6
CONTINUOUS
10
128.637
20
-69.9276
11
128.523
21
-69.7885
0
LINE
8
BLACK
6
CONTINUOUS
10
128.523
20
-69.7885
11
128.438
21
-69.6298
0
LINE
8
BLACK
6
CONTINUOUS
10
128.438
20
-69.6298
11
128.386
21
-69.4576
0
LINE
8
BLACK
6
CONTINUOUS
10
128.386
20
-69.4576
11
128.368
21
-69.2785
0
LINE
8
BLACK
6
CONTINUOUS
10
128.368
20
-69.2785
11
128.386
21
-69.0994
0
LINE
8
BLACK
6
CONTINUOUS
10
128.386
20
-69.0994
11
128.438
21
-68.9272
0
LINE
8
BLACK
6
CONTINUOUS
10
128.438
20
-68.9272
11
128.523
21
-68.7685
0
LINE
8
BLACK
6
CONTINUOUS
10
128.523
20
-68.7685
11
128.637
21
-68.6294
0
LINE
8
BLACK
6
CONTINUOUS
10
128.637
20
-68.6294
11
128.776
21
-68.5152
0
LINE
8
BLACK
6
CONTINUOUS
10
128.776
20
-68.5152
11
128.935
21
-68.4304
0
LINE
8
BLACK
6
CONTINUOUS
10
128.935
20
-68.4304
11
129.107
21
-68.3781
0
LINE
8
BLACK
6
CONTINUOUS
10
129.107
20
-68.3781
11
129.241
21
-68.3649
0
LINE
8
BLACK
6
CONTINUOUS
10
129.241
20
-68.3649
11
129.636
21
-68.3649
0
LINE
8
BLACK
6
CONTINUOUS
10
129.636
20
-68.3649
11
129.77
21
-68.3781
0
LINE
8
BLACK
6
CONTINUOUS
10
124.407
20
-68.6829
11
122.405
21
-68.6829
0
LINE
8
BLACK
6
CONTINUOUS
10
122.405
20
-68.6829
11
122.405
21
-66.882
0
LINE
8
BLACK
6
CONTINUOUS
10
122.405
20
-66.882
11
124.407
21
-66.882
0
LINE
8
BLACK
6
CONTINUOUS
10
124.407
20
-66.882
11
124.407
21
-68.6829
0
LINE
8
BLACK
6
CONTINUOUS
10
95.6539
20
-68.6448
11
93.6523
21
-68.6448
0
LINE
8
BLACK
6
CONTINUOUS
10
93.6523
20
-68.6448
11
93.6523
21
-66.8439
0
LINE
8
BLACK
6
CONTINUOUS
10
93.6523
20
-66.8439
11
95.6539
21
-66.8439
0
LINE
8
BLACK
6
CONTINUOUS
10
95.6539
20
-66.8439
11
95.6539
21
-68.6448
0
LINE
8
BLACK
6
CONTINUOUS
10
88.7489
20
-65.8381
11
88.9211
21
-65.8904
0
LINE
8
BLACK
6
CONTINUOUS
10
88.9211
20
-65.8904
11
89.0798
21
-65.9752
0
LINE
8
BLACK
6
CONTINUOUS
10
89.0798
20
-65.9752
11
89.2189
21
-66.0894
0
LINE
8
BLACK
6
CONTINUOUS
10
89.2189
20
-66.0894
11
89.3331
21
-66.2285
0
LINE
8
BLACK
6
CONTINUOUS
10
89.3331
20
-66.2285
11
89.4179
21
-66.3872
0
LINE
8
BLACK
6
CONTINUOUS
10
89.4179
20
-66.3872
11
89.4702
21
-66.5594
0
LINE
8
BLACK
6
CONTINUOUS
10
89.4702
20
-66.5594
11
89.4878
21
-66.7385
0
LINE
8
BLACK
6
CONTINUOUS
10
89.4878
20
-66.7385
11
89.4702
21
-66.9176
0
LINE
8
BLACK
6
CONTINUOUS
10
89.4702
20
-66.9176
11
89.4179
21
-67.0898
0
LINE
8
BLACK
6
CONTINUOUS
10
89.4179
20
-67.0898
11
89.3331
21
-67.2485
0
LINE
8
BLACK
6
CONTINUOUS
10
89.3331
20
-67.2485
11
89.2189
21
-67.3876
0
LINE
8
BLACK
6
CONTINUOUS
10
89.2189
20
-67.3876
11
89.0798
21
-67.5018
0
LINE
8
BLACK
6
CONTINUOUS
10
89.0798
20
-67.5018
11
88.9211
21
-67.5866
0
LINE
8
BLACK
6
CONTINUOUS
10
88.9211
20
-67.5866
11
88.7489
21
-67.6389
0
LINE
8
BLACK
6
CONTINUOUS
10
88.7489
20
-67.6389
11
88.6147
21
-67.6521
0
LINE
8
BLACK
6
CONTINUOUS
10
88.6147
20
-67.6521
11
88.2201
21
-67.6521
0
LINE
8
BLACK
6
CONTINUOUS
10
88.2201
20
-67.6521
11
88.0859
21
-67.6389
0
LINE
8
BLACK
6
CONTINUOUS
10
88.0859
20
-67.6389
11
87.9137
21
-67.5866
0
LINE
8
BLACK
6
CONTINUOUS
10
87.9137
20
-67.5866
11
87.755
21
-67.5018
0
LINE
8
BLACK
6
CONTINUOUS
10
87.755
20
-67.5018
11
87.6159
21
-67.3876
0
LINE
8
BLACK
6
CONTINUOUS
10
87.6159
20
-67.3876
11
87.5017
21
-67.2485
0
LINE
8
BLACK
6
CONTINUOUS
10
87.5017
20
-67.2485
11
87.4169
21
-67.0898
0
LINE
8
BLACK
6
CONTINUOUS
10
87.4169
20
-67.0898
11
87.3646
21
-66.9176
0
LINE
8
BLACK
6
CONTINUOUS
10
87.3646
20
-66.9176
11
87.347
21
-66.7385
0
LINE
8
BLACK
6
CONTINUOUS
10
87.347
20
-66.7385
11
87.3646
21
-66.5594
0
LINE
8
BLACK
6
CONTINUOUS
10
87.3646
20
-66.5594
11
87.4169
21
-66.3872
0
LINE
8
BLACK
6
CONTINUOUS
10
87.4169
20
-66.3872
11
87.5017
21
-66.2285
0
LINE
8
BLACK
6
CONTINUOUS
10
87.5017
20
-66.2285
11
87.6159
21
-66.0894
0
LINE
8
BLACK
6
CONTINUOUS
10
87.6159
20
-66.0894
11
87.755
21
-65.9752
0
LINE
8
BLACK
6
CONTINUOUS
10
87.755
20
-65.9752
11
87.9137
21
-65.8904
0
LINE
8
BLACK
6
CONTINUOUS
10
87.9137
20
-65.8904
11
88.0859
21
-65.8381
0
LINE
8
BLACK
6
CONTINUOUS
10
88.0859
20
-65.8381
11
88.2201
21
-65.8249
0
LINE
8
BLACK
6
CONTINUOUS
10
88.2201
20
-65.8249
11
88.6147
21
-65.8249
0
LINE
8
BLACK
6
CONTINUOUS
10
88.6147
20
-65.8249
11
88.7489
21
-65.8381
0
LINE
8
BLACK
6
CONTINUOUS
10
129.77
20
-65.8381
11
129.942
21
-65.8904
0
LINE
8
BLACK
6
CONTINUOUS
10
129.942
20
-65.8904
11
130.101
21
-65.9752
0
LINE
8
BLACK
6
CONTINUOUS
10
130.101
20
-65.9752
11
130.24
21
-66.0894
0
LINE
8
BLACK
6
CONTINUOUS
10
130.24
20
-66.0894
11
130.354
21
-66.2285
0
LINE
8
BLACK
6
CONTINUOUS
10
130.354
20
-66.2285
11
130.439
21
-66.3872
0
LINE
8
BLACK
6
CONTINUOUS
10
130.439
20
-66.3872
11
130.491
21
-66.5594
0
LINE
8
BLACK
6
CONTINUOUS
10
130.491
20
-66.5594
11
130.509
21
-66.7385
0
LINE
8
BLACK
6
CONTINUOUS
10
130.509
20
-66.7385
11
130.491
21
-66.9176
0
LINE
8
BLACK
6
CONTINUOUS
10
130.491
20
-66.9176
11
130.439
21
-67.0898
0
LINE
8
BLACK
6
CONTINUOUS
10
130.439
20
-67.0898
11
130.354
21
-67.2485
0
LINE
8
BLACK
6
CONTINUOUS
10
130.354
20
-67.2485
11
130.24
21
-67.3876
0
LINE
8
BLACK
6
CONTINUOUS
10
130.24
20
-67.3876
11
130.101
21
-67.5018
0
LINE
8
BLACK
6
CONTINUOUS
10
130.101
20
-67.5018
11
129.942
21
-67.5866
0
LINE
8
BLACK
6
CONTINUOUS
10
129.942
20
-67.5866
11
129.77
21
-67.6389
0
LINE
8
BLACK
6
CONTINUOUS
10
129.77
20
-67.6389
11
129.636
21
-67.6521
0
LINE
8
BLACK
6
CONTINUOUS
10
129.636
20
-67.6521
11
129.241
21
-67.6521
0
LINE
8
BLACK
6
CONTINUOUS
10
129.241
20
-67.6521
11
129.107
21
-67.6389
0
LINE
8
BLACK
6
CONTINUOUS
10
129.107
20
-67.6389
11
128.935
21
-67.5866
0
LINE
8
BLACK
6
CONTINUOUS
10
128.935
20
-67.5866
11
128.776
21
-67.5018
0
LINE
8
BLACK
6
CONTINUOUS
10
128.776
20
-67.5018
11
128.637
21
-67.3876
0
LINE
8
BLACK
6
CONTINUOUS
10
128.637
20
-67.3876
11
128.523
21
-67.2485
0
LINE
8
BLACK
6
CONTINUOUS
10
128.523
20
-67.2485
11
128.438
21
-67.0898
0
LINE
8
BLACK
6
CONTINUOUS
10
128.438
20
-67.0898
11
128.386
21
-66.9176
0
LINE
8
BLACK
6
CONTINUOUS
10
128.386
20
-66.9176
11
128.368
21
-66.7385
0
LINE
8
BLACK
6
CONTINUOUS
10
128.368
20
-66.7385
11
128.386
21
-66.5594
0
LINE
8
BLACK
6
CONTINUOUS
10
128.386
20
-66.5594
11
128.438
21
-66.3872
0
LINE
8
BLACK
6
CONTINUOUS
10
128.438
20
-66.3872
11
128.523
21
-66.2285
0
LINE
8
BLACK
6
CONTINUOUS
10
128.523
20
-66.2285
11
128.637
21
-66.0894
0
LINE
8
BLACK
6
CONTINUOUS
10
128.637
20
-66.0894
11
128.776
21
-65.9752
0
LINE
8
BLACK
6
CONTINUOUS
10
128.776
20
-65.9752
11
128.935
21
-65.8904
0
LINE
8
BLACK
6
CONTINUOUS
10
128.935
20
-65.8904
11
129.107
21
-65.8381
0
LINE
8
BLACK
6
CONTINUOUS
10
129.107
20
-65.8381
11
129.241
21
-65.8249
0
LINE
8
BLACK
6
CONTINUOUS
10
129.241
20
-65.8249
11
129.636
21
-65.8249
0
LINE
8
BLACK
6
CONTINUOUS
10
129.636
20
-65.8249
11
129.77
21
-65.8381
0
LINE
8
BLACK
6
CONTINUOUS
10
98.1377
20
-65.6037
11
98.2832
21
-65.664
0
LINE
8
BLACK
6
CONTINUOUS
10
98.2832
20
-65.664
11
98.4143
21
-65.7516
0
LINE
8
BLACK
6
CONTINUOUS
10
98.4143
20
-65.7516
11
98.5257
21
-65.863
0
LINE
8
BLACK
6
CONTINUOUS
10
98.5257
20
-65.863
11
98.6133
21
-65.9941
0
LINE
8
BLACK
6
CONTINUOUS
10
98.6133
20
-65.9941
11
98.6736
21
-66.1396
0
LINE
8
BLACK
6
CONTINUOUS
10
98.6736
20
-66.1396
11
98.7043
21
-66.2942
0
LINE
8
BLACK
6
CONTINUOUS
10
98.7043
20
-66.2942
11
98.7043
21
-66.4518
0
LINE
8
BLACK
6
CONTINUOUS
10
98.7043
20
-66.4518
11
98.6736
21
-66.6064
0
LINE
8
BLACK
6
CONTINUOUS
10
98.6736
20
-66.6064
11
98.6133
21
-66.7519
0
LINE
8
BLACK
6
CONTINUOUS
10
98.6133
20
-66.7519
11
98.5257
21
-66.883
0
LINE
8
BLACK
6
CONTINUOUS
10
98.5257
20
-66.883
11
98.4143
21
-66.9944
0
LINE
8
BLACK
6
CONTINUOUS
10
98.4143
20
-66.9944
11
98.2832
21
-67.082
0
LINE
8
BLACK
6
CONTINUOUS
10
98.2832
20
-67.082
11
98.1377
21
-67.1423
0
LINE
8
BLACK
6
CONTINUOUS
10
98.1377
20
-67.1423
11
97.9831
21
-67.173
0
LINE
8
BLACK
6
CONTINUOUS
10
97.9831
20
-67.173
11
97.8255
21
-67.173
0
LINE
8
BLACK
6
CONTINUOUS
10
97.8255
20
-67.173
11
97.6709
21
-67.1423
0
LINE
8
BLACK
6
CONTINUOUS
10
97.6709
20
-67.1423
11
97.5254
21
-67.082
0
LINE
8
BLACK
6
CONTINUOUS
10
97.5254
20
-67.082
11
97.3943
21
-66.9944
0
LINE
8
BLACK
6
CONTINUOUS
10
97.3943
20
-66.9944
11
97.2829
21
-66.883
0
LINE
8
BLACK
6
CONTINUOUS
10
97.2829
20
-66.883
11
97.1953
21
-66.7519
0
LINE
8
BLACK
6
CONTINUOUS
10
97.1953
20
-66.7519
11
97.135
21
-66.6064
0
LINE
8
BLACK
6
CONTINUOUS
10
97.135
20
-66.6064
11
97.1043
21
-66.4518
0
LINE
8
BLACK
6
CONTINUOUS
10
97.1043
20
-66.4518
11
97.1043
21
-66.2942
0
LINE
8
BLACK
6
CONTINUOUS
10
97.1043
20
-66.2942
11
97.135
21
-66.1396
0
LINE
8
BLACK
6
CONTINUOUS
10
97.135
20
-66.1396
11
97.1953
21
-65.9941
0
LINE
8
BLACK
6
CONTINUOUS
10
97.1953
20
-65.9941
11
97.2829
21
-65.863
0
LINE
8
BLACK
6
CONTINUOUS
10
97.2829
20
-65.863
11
97.3943
21
-65.7516
0
LINE
8
BLACK
6
CONTINUOUS
10
97.3943
20
-65.7516
11
97.5254
21
-65.664
0
LINE
8
BLACK
6
CONTINUOUS
10
97.5254
20
-65.664
11
97.6709
21
-65.6037
0
LINE
8
BLACK
6
CONTINUOUS
10
97.6709
20
-65.6037
11
97.8255
21
-65.573
0
LINE
8
BLACK
6
CONTINUOUS
10
97.8255
20
-65.573
11
97.9831
21
-65.573
0
LINE
8
BLACK
6
CONTINUOUS
10
97.9831
20
-65.573
11
98.1377
21
-65.6037
0
LINE
8
BLACK
6
CONTINUOUS
10
101.138
20
-65.6037
11
101.283
21
-65.664
0
LINE
8
BLACK
6
CONTINUOUS
10
101.283
20
-65.664
11
101.414
21
-65.7516
0
LINE
8
BLACK
6
CONTINUOUS
10
101.414
20
-65.7516
11
101.526
21
-65.863
0
LINE
8
BLACK
6
CONTINUOUS
10
101.526
20
-65.863
11
101.613
21
-65.9941
0
LINE
8
BLACK
6
CONTINUOUS
10
101.613
20
-65.9941
11
101.674
21
-66.1396
0
LINE
8
BLACK
6
CONTINUOUS
10
101.674
20
-66.1396
11
101.704
21
-66.2942
0
LINE
8
BLACK
6
CONTINUOUS
10
101.704
20
-66.2942
11
101.704
21
-66.4518
0
LINE
8
BLACK
6
CONTINUOUS
10
101.704
20
-66.4518
11
101.674
21
-66.6064
0
LINE
8
BLACK
6
CONTINUOUS
10
101.674
20
-66.6064
11
101.613
21
-66.7519
0
LINE
8
BLACK
6
CONTINUOUS
10
101.613
20
-66.7519
11
101.526
21
-66.883
0
LINE
8
BLACK
6
CONTINUOUS
10
101.526
20
-66.883
11
101.414
21
-66.9944
0
LINE
8
BLACK
6
CONTINUOUS
10
101.414
20
-66.9944
11
101.283
21
-67.082
0
LINE
8
BLACK
6
CONTINUOUS
10
101.283
20
-67.082
11
101.138
21
-67.1423
0
LINE
8
BLACK
6
CONTINUOUS
10
101.138
20
-67.1423
11
100.983
21
-67.173
0
LINE
8
BLACK
6
CONTINUOUS
10
100.983
20
-67.173
11
100.826
21
-67.173
0
LINE
8
BLACK
6
CONTINUOUS
10
100.826
20
-67.173
11
100.671
21
-67.1423
0
LINE
8
BLACK
6
CONTINUOUS
10
100.671
20
-67.1423
11
100.525
21
-67.082
0
LINE
8
BLACK
6
CONTINUOUS
10
100.525
20
-67.082
11
100.394
21
-66.9944
0
LINE
8
BLACK
6
CONTINUOUS
10
100.394
20
-66.9944
11
100.283
21
-66.883
0
LINE
8
BLACK
6
CONTINUOUS
10
100.283
20
-66.883
11
100.195
21
-66.7519
0
LINE
8
BLACK
6
CONTINUOUS
10
100.195
20
-66.7519
11
100.135
21
-66.6064
0
LINE
8
BLACK
6
CONTINUOUS
10
100.135
20
-66.6064
11
100.104
21
-66.4518
0
LINE
8
BLACK
6
CONTINUOUS
10
100.104
20
-66.4518
11
100.104
21
-66.2942
0
LINE
8
BLACK
6
CONTINUOUS
10
100.104
20
-66.2942
11
100.135
21
-66.1396
0
LINE
8
BLACK
6
CONTINUOUS
10
100.135
20
-66.1396
11
100.195
21
-65.9941
0
LINE
8
BLACK
6
CONTINUOUS
10
100.195
20
-65.9941
11
100.283
21
-65.863
0
LINE
8
BLACK
6
CONTINUOUS
10
100.283
20
-65.863
11
100.394
21
-65.7516
0
LINE
8
BLACK
6
CONTINUOUS
10
100.394
20
-65.7516
11
100.525
21
-65.664
0
LINE
8
BLACK
6
CONTINUOUS
10
100.525
20
-65.664
11
100.671
21
-65.6037
0
LINE
8
BLACK
6
CONTINUOUS
10
100.671
20
-65.6037
11
100.826
21
-65.573
0
LINE
8
BLACK
6
CONTINUOUS
10
100.826
20
-65.573
11
100.983
21
-65.573
0
LINE
8
BLACK
6
CONTINUOUS
10
100.983
20
-65.573
11
101.138
21
-65.6037
0
LINE
8
BLACK
6
CONTINUOUS
10
104.138
20
-65.6037
11
104.283
21
-65.664
0
LINE
8
BLACK
6
CONTINUOUS
10
104.283
20
-65.664
11
104.414
21
-65.7516
0
LINE
8
BLACK
6
CONTINUOUS
10
104.414
20
-65.7516
11
104.526
21
-65.863
0
LINE
8
BLACK
6
CONTINUOUS
10
104.526
20
-65.863
11
104.613
21
-65.9941
0
LINE
8
BLACK
6
CONTINUOUS
10
104.613
20
-65.9941
11
104.674
21
-66.1396
0
LINE
8
BLACK
6
CONTINUOUS
10
104.674
20
-66.1396
11
104.704
21
-66.2942
0
LINE
8
BLACK
6
CONTINUOUS
10
104.704
20
-66.2942
11
104.704
21
-66.4518
0
LINE
8
BLACK
6
CONTINUOUS
10
104.704
20
-66.4518
11
104.674
21
-66.6064
0
LINE
8
BLACK
6
CONTINUOUS
10
104.674
20
-66.6064
11
104.613
21
-66.7519
0
LINE
8
BLACK
6
CONTINUOUS
10
104.613
20
-66.7519
11
104.526
21
-66.883
0
LINE
8
BLACK
6
CONTINUOUS
10
104.526
20
-66.883
11
104.414
21
-66.9944
0
LINE
8
BLACK
6
CONTINUOUS
10
104.414
20
-66.9944
11
104.283
21
-67.082
0
LINE
8
BLACK
6
CONTINUOUS
10
104.283
20
-67.082
11
104.138
21
-67.1423
0
LINE
8
BLACK
6
CONTINUOUS
10
104.138
20
-67.1423
11
103.983
21
-67.173
0
LINE
8
BLACK
6
CONTINUOUS
10
103.983
20
-67.173
11
103.826
21
-67.173
0
LINE
8
BLACK
6
CONTINUOUS
10
103.826
20
-67.173
11
103.671
21
-67.1423
0
LINE
8
BLACK
6
CONTINUOUS
10
103.671
20
-67.1423
11
103.525
21
-67.082
0
LINE
8
BLACK
6
CONTINUOUS
10
103.525
20
-67.082
11
103.394
21
-66.9944
0
LINE
8
BLACK
6
CONTINUOUS
10
103.394
20
-66.9944
11
103.283
21
-66.883
0
LINE
8
BLACK
6
CONTINUOUS
10
103.283
20
-66.883
11
103.195
21
-66.7519
0
LINE
8
BLACK
6
CONTINUOUS
10
103.195
20
-66.7519
11
103.135
21
-66.6064
0
LINE
8
BLACK
6
CONTINUOUS
10
103.135
20
-66.6064
11
103.104
21
-66.4518
0
LINE
8
BLACK
6
CONTINUOUS
10
103.104
20
-66.4518
11
103.104
21
-66.2942
0
LINE
8
BLACK
6
CONTINUOUS
10
103.104
20
-66.2942
11
103.135
21
-66.1396
0
LINE
8
BLACK
6
CONTINUOUS
10
103.135
20
-66.1396
11
103.195
21
-65.9941
0
LINE
8
BLACK
6
CONTINUOUS
10
103.195
20
-65.9941
11
103.283
21
-65.863
0
LINE
8
BLACK
6
CONTINUOUS
10
103.283
20
-65.863
11
103.394
21
-65.7516
0
LINE
8
BLACK
6
CONTINUOUS
10
103.394
20
-65.7516
11
103.525
21
-65.664
0
LINE
8
BLACK
6
CONTINUOUS
10
103.525
20
-65.664
11
103.671
21
-65.6037
0
LINE
8
BLACK
6
CONTINUOUS
10
103.671
20
-65.6037
11
103.826
21
-65.573
0
LINE
8
BLACK
6
CONTINUOUS
10
103.826
20
-65.573
11
103.983
21
-65.573
0
LINE
8
BLACK
6
CONTINUOUS
10
103.983
20
-65.573
11
104.138
21
-65.6037
0
LINE
8
BLACK
6
CONTINUOUS
10
113.949
20
-65.6037
11
114.095
21
-65.664
0
LINE
8
BLACK
6
CONTINUOUS
10
114.095
20
-65.664
11
114.226
21
-65.7516
0
LINE
8
BLACK
6
CONTINUOUS
10
114.226
20
-65.7516
11
114.337
21
-65.863
0
LINE
8
BLACK
6
CONTINUOUS
10
114.337
20
-65.863
11
114.425
21
-65.9941
0
LINE
8
BLACK
6
CONTINUOUS
10
114.425
20
-65.9941
11
114.485
21
-66.1396
0
LINE
8
BLACK
6
CONTINUOUS
10
114.485
20
-66.1396
11
114.516
21
-66.2942
0
LINE
8
BLACK
6
CONTINUOUS
10
114.516
20
-66.2942
11
114.516
21
-66.4518
0
LINE
8
BLACK
6
CONTINUOUS
10
114.516
20
-66.4518
11
114.485
21
-66.6064
0
LINE
8
BLACK
6
CONTINUOUS
10
114.485
20
-66.6064
11
114.425
21
-66.7519
0
LINE
8
BLACK
6
CONTINUOUS
10
114.425
20
-66.7519
11
114.337
21
-66.883
0
LINE
8
BLACK
6
CONTINUOUS
10
114.337
20
-66.883
11
114.226
21
-66.9944
0
LINE
8
BLACK
6
CONTINUOUS
10
114.226
20
-66.9944
11
114.095
21
-67.082
0
LINE
8
BLACK
6
CONTINUOUS
10
114.095
20
-67.082
11
113.949
21
-67.1423
0
LINE
8
BLACK
6
CONTINUOUS
10
113.949
20
-67.1423
11
113.795
21
-67.173
0
LINE
8
BLACK
6
CONTINUOUS
10
113.795
20
-67.173
11
113.637
21
-67.173
0
LINE
8
BLACK
6
CONTINUOUS
10
113.637
20
-67.173
11
113.482
21
-67.1423
0
LINE
8
BLACK
6
CONTINUOUS
10
113.482
20
-67.1423
11
113.337
21
-67.082
0
LINE
8
BLACK
6
CONTINUOUS
10
113.337
20
-67.082
11
113.206
21
-66.9944
0
LINE
8
BLACK
6
CONTINUOUS
10
113.206
20
-66.9944
11
113.094
21
-66.883
0
LINE
8
BLACK
6
CONTINUOUS
10
113.094
20
-66.883
11
113.007
21
-66.7519
0
LINE
8
BLACK
6
CONTINUOUS
10
113.007
20
-66.7519
11
112.947
21
-66.6064
0
LINE
8
BLACK
6
CONTINUOUS
10
112.947
20
-66.6064
11
112.916
21
-66.4518
0
LINE
8
BLACK
6
CONTINUOUS
10
112.916
20
-66.4518
11
112.916
21
-66.2942
0
LINE
8
BLACK
6
CONTINUOUS
10
112.916
20
-66.2942
11
112.947
21
-66.1396
0
LINE
8
BLACK
6
CONTINUOUS
10
112.947
20
-66.1396
11
113.007
21
-65.9941
0
LINE
8
BLACK
6
CONTINUOUS
10
113.007
20
-65.9941
11
113.094
21
-65.863
0
LINE
8
BLACK
6
CONTINUOUS
10
113.094
20
-65.863
11
113.206
21
-65.7516
0
LINE
8
BLACK
6
CONTINUOUS
10
113.206
20
-65.7516
11
113.337
21
-65.664
0
LINE
8
BLACK
6
CONTINUOUS
10
113.337
20
-65.664
11
113.482
21
-65.6037
0
LINE
8
BLACK
6
CONTINUOUS
10
113.482
20
-65.6037
11
113.637
21
-65.573
0
LINE
8
BLACK
6
CONTINUOUS
10
113.637
20
-65.573
11
113.795
21
-65.573
0
LINE
8
BLACK
6
CONTINUOUS
10
113.795
20
-65.573
11
113.949
21
-65.6037
0
LINE
8
BLACK
6
CONTINUOUS
10
116.949
20
-65.6037
11
117.095
21
-65.664
0
LINE
8
BLACK
6
CONTINUOUS
10
117.095
20
-65.664
11
117.226
21
-65.7516
0
LINE
8
BLACK
6
CONTINUOUS
10
117.226
20
-65.7516
11
117.337
21
-65.863
0
LINE
8
BLACK
6
CONTINUOUS
10
117.337
20
-65.863
11
117.425
21
-65.9941
0
LINE
8
BLACK
6
CONTINUOUS
10
117.425
20
-65.9941
11
117.485
21
-66.1396
0
LINE
8
BLACK
6
CONTINUOUS
10
117.485
20
-66.1396
11
117.516
21
-66.2942
0
LINE
8
BLACK
6
CONTINUOUS
10
117.516
20
-66.2942
11
117.516
21
-66.4518
0
LINE
8
BLACK
6
CONTINUOUS
10
117.516
20
-66.4518
11
117.485
21
-66.6064
0
LINE
8
BLACK
6
CONTINUOUS
10
117.485
20
-66.6064
11
117.425
21
-66.7519
0
LINE
8
BLACK
6
CONTINUOUS
10
117.425
20
-66.7519
11
117.337
21
-66.883
0
LINE
8
BLACK
6
CONTINUOUS
10
117.337
20
-66.883
11
117.226
21
-66.9944
0
LINE
8
BLACK
6
CONTINUOUS
10
117.226
20
-66.9944
11
117.095
21
-67.082
0
LINE
8
BLACK
6
CONTINUOUS
10
117.095
20
-67.082
11
116.949
21
-67.1423
0
LINE
8
BLACK
6
CONTINUOUS
10
116.949
20
-67.1423
11
116.795
21
-67.173
0
LINE
8
BLACK
6
CONTINUOUS
10
116.795
20
-67.173
11
116.637
21
-67.173
0
LINE
8
BLACK
6
CONTINUOUS
10
116.637
20
-67.173
11
116.482
21
-67.1423
0
LINE
8
BLACK
6
CONTINUOUS
10
116.482
20
-67.1423
11
116.337
21
-67.082
0
LINE
8
BLACK
6
CONTINUOUS
10
116.337
20
-67.082
11
116.206
21
-66.9944
0
LINE
8
BLACK
6
CONTINUOUS
10
116.206
20
-66.9944
11
116.094
21
-66.883
0
LINE
8
BLACK
6
CONTINUOUS
10
116.094
20
-66.883
11
116.007
21
-66.7519
0
LINE
8
BLACK
6
CONTINUOUS
10
116.007
20
-66.7519
11
115.947
21
-66.6064
0
LINE
8
BLACK
6
CONTINUOUS
10
115.947
20
-66.6064
11
115.916
21
-66.4518
0
LINE
8
BLACK
6
CONTINUOUS
10
115.916
20
-66.4518
11
115.916
21
-66.2942
0
LINE
8
BLACK
6
CONTINUOUS
10
115.916
20
-66.2942
11
115.947
21
-66.1396
0
LINE
8
BLACK
6
CONTINUOUS
10
115.947
20
-66.1396
11
116.007
21
-65.9941
0
LINE
8
BLACK
6
CONTINUOUS
10
116.007
20
-65.9941
11
116.094
21
-65.863
0
LINE
8
BLACK
6
CONTINUOUS
10
116.094
20
-65.863
11
116.206
21
-65.7516
0
LINE
8
BLACK
6
CONTINUOUS
10
116.206
20
-65.7516
11
116.337
21
-65.664
0
LINE
8
BLACK
6
CONTINUOUS
10
116.337
20
-65.664
11
116.482
21
-65.6037
0
LINE
8
BLACK
6
CONTINUOUS
10
116.482
20
-65.6037
11
116.637
21
-65.573
0
LINE
8
BLACK
6
CONTINUOUS
10
116.637
20
-65.573
11
116.795
21
-65.573
0
LINE
8
BLACK
6
CONTINUOUS
10
116.795
20
-65.573
11
116.949
21
-65.6037
0
LINE
8
BLACK
6
CONTINUOUS
10
119.949
20
-65.6037
11
120.095
21
-65.664
0
LINE
8
BLACK
6
CONTINUOUS
10
120.095
20
-65.664
11
120.226
21
-65.7516
0
LINE
8
BLACK
6
CONTINUOUS
10
120.226
20
-65.7516
11
120.337
21
-65.863
0
LINE
8
BLACK
6
CONTINUOUS
10
120.337
20
-65.863
11
120.425
21
-65.9941
0
LINE
8
BLACK
6
CONTINUOUS
10
120.425
20
-65.9941
11
120.485
21
-66.1396
0
LINE
8
BLACK
6
CONTINUOUS
10
120.485
20
-66.1396
11
120.516
21
-66.2942
0
LINE
8
BLACK
6
CONTINUOUS
10
120.516
20
-66.2942
11
120.516
21
-66.4518
0
LINE
8
BLACK
6
CONTINUOUS
10
120.516
20
-66.4518
11
120.485
21
-66.6064
0
LINE
8
BLACK
6
CONTINUOUS
10
120.485
20
-66.6064
11
120.425
21
-66.7519
0
LINE
8
BLACK
6
CONTINUOUS
10
120.425
20
-66.7519
11
120.337
21
-66.883
0
LINE
8
BLACK
6
CONTINUOUS
10
120.337
20
-66.883
11
120.226
21
-66.9944
0
LINE
8
BLACK
6
CONTINUOUS
10
120.226
20
-66.9944
11
120.095
21
-67.082
0
LINE
8
BLACK
6
CONTINUOUS
10
120.095
20
-67.082
11
119.949
21
-67.1423
0
LINE
8
BLACK
6
CONTINUOUS
10
119.949
20
-67.1423
11
119.795
21
-67.173
0
LINE
8
BLACK
6
CONTINUOUS
10
119.795
20
-67.173
11
119.637
21
-67.173
0
LINE
8
BLACK
6
CONTINUOUS
10
119.637
20
-67.173
11
119.482
21
-67.1423
0
LINE
8
BLACK
6
CONTINUOUS
10
119.482
20
-67.1423
11
119.337
21
-67.082
0
LINE
8
BLACK
6
CONTINUOUS
10
119.337
20
-67.082
11
119.206
21
-66.9944
0
LINE
8
BLACK
6
CONTINUOUS
10
119.206
20
-66.9944
11
119.094
21
-66.883
0
LINE
8
BLACK
6
CONTINUOUS
10
119.094
20
-66.883
11
119.007
21
-66.7519
0
LINE
8
BLACK
6
CONTINUOUS
10
119.007
20
-66.7519
11
118.947
21
-66.6064
0
LINE
8
BLACK
6
CONTINUOUS
10
118.947
20
-66.6064
11
118.916
21
-66.4518
0
LINE
8
BLACK
6
CONTINUOUS
10
118.916
20
-66.4518
11
118.916
21
-66.2942
0
LINE
8
BLACK
6
CONTINUOUS
10
118.916
20
-66.2942
11
118.947
21
-66.1396
0
LINE
8
BLACK
6
CONTINUOUS
10
118.947
20
-66.1396
11
119.007
21
-65.9941
0
LINE
8
BLACK
6
CONTINUOUS
10
119.007
20
-65.9941
11
119.094
21
-65.863
0
LINE
8
BLACK
6
CONTINUOUS
10
119.094
20
-65.863
11
119.206
21
-65.7516
0
LINE
8
BLACK
6
CONTINUOUS
10
119.206
20
-65.7516
11
119.337
21
-65.664
0
LINE
8
BLACK
6
CONTINUOUS
10
119.337
20
-65.664
11
119.482
21
-65.6037
0
LINE
8
BLACK
6
CONTINUOUS
10
119.482
20
-65.6037
11
119.637
21
-65.573
0
LINE
8
BLACK
6
CONTINUOUS
10
119.637
20
-65.573
11
119.795
21
-65.573
0
LINE
8
BLACK
6
CONTINUOUS
10
119.795
20
-65.573
11
119.949
21
-65.6037
0
LINE
8
BLACK
6
CONTINUOUS
10
124.407
20
-65.8838
11
122.405
21
-65.8838
0
LINE
8
BLACK
6
CONTINUOUS
10
122.405
20
-65.8838
11
122.405
21
-64.0829
0
LINE
8
BLACK
6
CONTINUOUS
10
122.405
20
-64.0829
11
124.407
21
-64.0829
0
LINE
8
BLACK
6
CONTINUOUS
10
124.407
20
-64.0829
11
124.407
21
-65.8838
0
LINE
8
BLACK
6
CONTINUOUS
10
95.6539
20
-65.8457
11
93.6523
21
-65.8457
0
LINE
8
BLACK
6
CONTINUOUS
10
93.6523
20
-65.8457
11
93.6523
21
-64.0448
0
LINE
8
BLACK
6
CONTINUOUS
10
93.6523
20
-64.0448
11
95.6539
21
-64.0448
0
LINE
8
BLACK
6
CONTINUOUS
10
95.6539
20
-64.0448
11
95.6539
21
-65.8457
0
LINE
8
BLACK
6
CONTINUOUS
10
130.504
20
-65.1121
11
128.372
21
-65.1121
0
LINE
8
BLACK
6
CONTINUOUS
10
128.372
20
-65.1121
11
128.372
21
-63.2849
0
LINE
8
BLACK
6
CONTINUOUS
10
128.372
20
-63.2849
11
130.504
21
-63.2849
0
LINE
8
BLACK
6
CONTINUOUS
10
130.504
20
-63.2849
11
130.504
21
-65.1121
0
LINE
8
BLACK
6
CONTINUOUS
10
89.4834
20
-65.1121
11
87.3514
21
-65.1121
0
LINE
8
BLACK
6
CONTINUOUS
10
87.3514
20
-65.1121
11
87.3514
21
-63.2849
0
LINE
8
BLACK
6
CONTINUOUS
10
87.3514
20
-63.2849
11
89.4834
21
-63.2849
0
LINE
8
BLACK
6
CONTINUOUS
10
89.4834
20
-63.2849
11
89.4834
21
-65.1121
0
LINE
8
BLACK
6
CONTINUOUS
10
119.949
20
-62.6037
11
120.095
21
-62.664
0
LINE
8
BLACK
6
CONTINUOUS
10
120.095
20
-62.664
11
120.226
21
-62.7516
0
LINE
8
BLACK
6
CONTINUOUS
10
120.226
20
-62.7516
11
120.337
21
-62.863
0
LINE
8
BLACK
6
CONTINUOUS
10
120.337
20
-62.863
11
120.425
21
-62.9941
0
LINE
8
BLACK
6
CONTINUOUS
10
120.425
20
-62.9941
11
120.485
21
-63.1396
0
LINE
8
BLACK
6
CONTINUOUS
10
120.485
20
-63.1396
11
120.516
21
-63.2942
0
LINE
8
BLACK
6
CONTINUOUS
10
120.516
20
-63.2942
11
120.516
21
-63.4518
0
LINE
8
BLACK
6
CONTINUOUS
10
120.516
20
-63.4518
11
120.485
21
-63.6064
0
LINE
8
BLACK
6
CONTINUOUS
10
120.485
20
-63.6064
11
120.425
21
-63.7519
0
LINE
8
BLACK
6
CONTINUOUS
10
120.425
20
-63.7519
11
120.337
21
-63.883
0
LINE
8
BLACK
6
CONTINUOUS
10
120.337
20
-63.883
11
120.226
21
-63.9944
0
LINE
8
BLACK
6
CONTINUOUS
10
120.226
20
-63.9944
11
120.095
21
-64.082
0
LINE
8
BLACK
6
CONTINUOUS
10
120.095
20
-64.082
11
119.949
21
-64.1423
0
LINE
8
BLACK
6
CONTINUOUS
10
119.949
20
-64.1423
11
119.795
21
-64.173
0
LINE
8
BLACK
6
CONTINUOUS
10
119.795
20
-64.173
11
119.637
21
-64.173
0
LINE
8
BLACK
6
CONTINUOUS
10
119.637
20
-64.173
11
119.482
21
-64.1423
0
LINE
8
BLACK
6
CONTINUOUS
10
119.482
20
-64.1423
11
119.337
21
-64.082
0
LINE
8
BLACK
6
CONTINUOUS
10
119.337
20
-64.082
11
119.206
21
-63.9944
0
LINE
8
BLACK
6
CONTINUOUS
10
119.206
20
-63.9944
11
119.094
21
-63.883
0
LINE
8
BLACK
6
CONTINUOUS
10
119.094
20
-63.883
11
119.007
21
-63.7519
0
LINE
8
BLACK
6
CONTINUOUS
10
119.007
20
-63.7519
11
118.947
21
-63.6064
0
LINE
8
BLACK
6
CONTINUOUS
10
118.947
20
-63.6064
11
118.916
21
-63.4518
0
LINE
8
BLACK
6
CONTINUOUS
10
118.916
20
-63.4518
11
118.916
21
-63.2942
0
LINE
8
BLACK
6
CONTINUOUS
10
118.916
20
-63.2942
11
118.947
21
-63.1396
0
LINE
8
BLACK
6
CONTINUOUS
10
118.947
20
-63.1396
11
119.007
21
-62.9941
0
LINE
8
BLACK
6
CONTINUOUS
10
119.007
20
-62.9941
11
119.094
21
-62.863
0
LINE
8
BLACK
6
CONTINUOUS
10
119.094
20
-62.863
11
119.206
21
-62.7516
0
LINE
8
BLACK
6
CONTINUOUS
10
119.206
20
-62.7516
11
119.337
21
-62.664
0
LINE
8
BLACK
6
CONTINUOUS
10
119.337
20
-62.664
11
119.482
21
-62.6037
0
LINE
8
BLACK
6
CONTINUOUS
10
119.482
20
-62.6037
11
119.637
21
-62.573
0
LINE
8
BLACK
6
CONTINUOUS
10
119.637
20
-62.573
11
119.795
21
-62.573
0
LINE
8
BLACK
6
CONTINUOUS
10
119.795
20
-62.573
11
119.949
21
-62.6037
0
LINE
8
BLACK
6
CONTINUOUS
10
116.949
20
-62.6037
11
117.095
21
-62.664
0
LINE
8
BLACK
6
CONTINUOUS
10
117.095
20
-62.664
11
117.226
21
-62.7516
0
LINE
8
BLACK
6
CONTINUOUS
10
117.226
20
-62.7516
11
117.337
21
-62.863
0
LINE
8
BLACK
6
CONTINUOUS
10
117.337
20
-62.863
11
117.425
21
-62.9941
0
LINE
8
BLACK
6
CONTINUOUS
10
117.425
20
-62.9941
11
117.485
21
-63.1396
0
LINE
8
BLACK
6
CONTINUOUS
10
117.485
20
-63.1396
11
117.516
21
-63.2942
0
LINE
8
BLACK
6
CONTINUOUS
10
117.516
20
-63.2942
11
117.516
21
-63.4518
0
LINE
8
BLACK
6
CONTINUOUS
10
117.516
20
-63.4518
11
117.485
21
-63.6064
0
LINE
8
BLACK
6
CONTINUOUS
10
117.485
20
-63.6064
11
117.425
21
-63.7519
0
LINE
8
BLACK
6
CONTINUOUS
10
117.425
20
-63.7519
11
117.337
21
-63.883
0
LINE
8
BLACK
6
CONTINUOUS
10
117.337
20
-63.883
11
117.226
21
-63.9944
0
LINE
8
BLACK
6
CONTINUOUS
10
117.226
20
-63.9944
11
117.095
21
-64.082
0
LINE
8
BLACK
6
CONTINUOUS
10
117.095
20
-64.082
11
116.949
21
-64.1423
0
LINE
8
BLACK
6
CONTINUOUS
10
116.949
20
-64.1423
11
116.795
21
-64.173
0
LINE
8
BLACK
6
CONTINUOUS
10
116.795
20
-64.173
11
116.637
21
-64.173
0
LINE
8
BLACK
6
CONTINUOUS
10
116.637
20
-64.173
11
116.482
21
-64.1423
0
LINE
8
BLACK
6
CONTINUOUS
10
116.482
20
-64.1423
11
116.337
21
-64.082
0
LINE
8
BLACK
6
CONTINUOUS
10
116.337
20
-64.082
11
116.206
21
-63.9944
0
LINE
8
BLACK
6
CONTINUOUS
10
116.206
20
-63.9944
11
116.094
21
-63.883
0
LINE
8
BLACK
6
CONTINUOUS
10
116.094
20
-63.883
11
116.007
21
-63.7519
0
LINE
8
BLACK
6
CONTINUOUS
10
116.007
20
-63.7519
11
115.947
21
-63.6064
0
LINE
8
BLACK
6
CONTINUOUS
10
115.947
20
-63.6064
11
115.916
21
-63.4518
0
LINE
8
BLACK
6
CONTINUOUS
10
115.916
20
-63.4518
11
115.916
21
-63.2942
0
LINE
8
BLACK
6
CONTINUOUS
10
115.916
20
-63.2942
11
115.947
21
-63.1396
0
LINE
8
BLACK
6
CONTINUOUS
10
115.947
20
-63.1396
11
116.007
21
-62.9941
0
LINE
8
BLACK
6
CONTINUOUS
10
116.007
20
-62.9941
11
116.094
21
-62.863
0
LINE
8
BLACK
6
CONTINUOUS
10
116.094
20
-62.863
11
116.206
21
-62.7516
0
LINE
8
BLACK
6
CONTINUOUS
10
116.206
20
-62.7516
11
116.337
21
-62.664
0
LINE
8
BLACK
6
CONTINUOUS
10
116.337
20
-62.664
11
116.482
21
-62.6037
0
LINE
8
BLACK
6
CONTINUOUS
10
116.482
20
-62.6037
11
116.637
21
-62.573
0
LINE
8
BLACK
6
CONTINUOUS
10
116.637
20
-62.573
11
116.795
21
-62.573
0
LINE
8
BLACK
6
CONTINUOUS
10
116.795
20
-62.573
11
116.949
21
-62.6037
0
LINE
8
BLACK
6
CONTINUOUS
10
104.138
20
-62.6037
11
104.283
21
-62.664
0
LINE
8
BLACK
6
CONTINUOUS
10
104.283
20
-62.664
11
104.414
21
-62.7516
0
LINE
8
BLACK
6
CONTINUOUS
10
104.414
20
-62.7516
11
104.526
21
-62.863
0
LINE
8
BLACK
6
CONTINUOUS
10
104.526
20
-62.863
11
104.613
21
-62.9941
0
LINE
8
BLACK
6
CONTINUOUS
10
104.613
20
-62.9941
11
104.674
21
-63.1396
0
LINE
8
BLACK
6
CONTINUOUS
10
104.674
20
-63.1396
11
104.704
21
-63.2942
0
LINE
8
BLACK
6
CONTINUOUS
10
104.704
20
-63.2942
11
104.704
21
-63.4518
0
LINE
8
BLACK
6
CONTINUOUS
10
104.704
20
-63.4518
11
104.674
21
-63.6064
0
LINE
8
BLACK
6
CONTINUOUS
10
104.674
20
-63.6064
11
104.613
21
-63.7519
0
LINE
8
BLACK
6
CONTINUOUS
10
104.613
20
-63.7519
11
104.526
21
-63.883
0
LINE
8
BLACK
6
CONTINUOUS
10
104.526
20
-63.883
11
104.414
21
-63.9944
0
LINE
8
BLACK
6
CONTINUOUS
10
104.414
20
-63.9944
11
104.283
21
-64.082
0
LINE
8
BLACK
6
CONTINUOUS
10
104.283
20
-64.082
11
104.138
21
-64.1423
0
LINE
8
BLACK
6
CONTINUOUS
10
104.138
20
-64.1423
11
103.983
21
-64.173
0
LINE
8
BLACK
6
CONTINUOUS
10
103.983
20
-64.173
11
103.826
21
-64.173
0
LINE
8
BLACK
6
CONTINUOUS
10
103.826
20
-64.173
11
103.671
21
-64.1423
0
LINE
8
BLACK
6
CONTINUOUS
10
103.671
20
-64.1423
11
103.525
21
-64.082
0
LINE
8
BLACK
6
CONTINUOUS
10
103.525
20
-64.082
11
103.394
21
-63.9944
0
LINE
8
BLACK
6
CONTINUOUS
10
103.394
20
-63.9944
11
103.283
21
-63.883
0
LINE
8
BLACK
6
CONTINUOUS
10
103.283
20
-63.883
11
103.195
21
-63.7519
0
LINE
8
BLACK
6
CONTINUOUS
10
103.195
20
-63.7519
11
103.135
21
-63.6064
0
LINE
8
BLACK
6
CONTINUOUS
10
103.135
20
-63.6064
11
103.104
21
-63.4518
0
LINE
8
BLACK
6
CONTINUOUS
10
103.104
20
-63.4518
11
103.104
21
-63.2942
0
LINE
8
BLACK
6
CONTINUOUS
10
103.104
20
-63.2942
11
103.135
21
-63.1396
0
LINE
8
BLACK
6
CONTINUOUS
10
103.135
20
-63.1396
11
103.195
21
-62.9941
0
LINE
8
BLACK
6
CONTINUOUS
10
103.195
20
-62.9941
11
103.283
21
-62.863
0
LINE
8
BLACK
6
CONTINUOUS
10
103.283
20
-62.863
11
103.394
21
-62.7516
0
LINE
8
BLACK
6
CONTINUOUS
10
103.394
20
-62.7516
11
103.525
21
-62.664
0
LINE
8
BLACK
6
CONTINUOUS
10
103.525
20
-62.664
11
103.671
21
-62.6037
0
LINE
8
BLACK
6
CONTINUOUS
10
103.671
20
-62.6037
11
103.826
21
-62.573
0
LINE
8
BLACK
6
CONTINUOUS
10
103.826
20
-62.573
11
103.983
21
-62.573
0
LINE
8
BLACK
6
CONTINUOUS
10
103.983
20
-62.573
11
104.138
21
-62.6037
0
LINE
8
BLACK
6
CONTINUOUS
10
113.949
20
-62.6037
11
114.095
21
-62.664
0
LINE
8
BLACK
6
CONTINUOUS
10
114.095
20
-62.664
11
114.226
21
-62.7516
0
LINE
8
BLACK
6
CONTINUOUS
10
114.226
20
-62.7516
11
114.337
21
-62.863
0
LINE
8
BLACK
6
CONTINUOUS
10
114.337
20
-62.863
11
114.425
21
-62.9941
0
LINE
8
BLACK
6
CONTINUOUS
10
114.425
20
-62.9941
11
114.485
21
-63.1396
0
LINE
8
BLACK
6
CONTINUOUS
10
114.485
20
-63.1396
11
114.516
21
-63.2942
0
LINE
8
BLACK
6
CONTINUOUS
10
114.516
20
-63.2942
11
114.516
21
-63.4518
0
LINE
8
BLACK
6
CONTINUOUS
10
114.516
20
-63.4518
11
114.485
21
-63.6064
0
LINE
8
BLACK
6
CONTINUOUS
10
114.485
20
-63.6064
11
114.425
21
-63.7519
0
LINE
8
BLACK
6
CONTINUOUS
10
114.425
20
-63.7519
11
114.337
21
-63.883
0
LINE
8
BLACK
6
CONTINUOUS
10
114.337
20
-63.883
11
114.226
21
-63.9944
0
LINE
8
BLACK
6
CONTINUOUS
10
114.226
20
-63.9944
11
114.095
21
-64.082
0
LINE
8
BLACK
6
CONTINUOUS
10
114.095
20
-64.082
11
113.949
21
-64.1423
0
LINE
8
BLACK
6
CONTINUOUS
10
113.949
20
-64.1423
11
113.795
21
-64.173
0
LINE
8
BLACK
6
CONTINUOUS
10
113.795
20
-64.173
11
113.637
21
-64.173
0
LINE
8
BLACK
6
CONTINUOUS
10
113.637
20
-64.173
11
113.482
21
-64.1423
0
LINE
8
BLACK
6
CONTINUOUS
10
113.482
20
-64.1423
11
113.337
21
-64.082
0
LINE
8
BLACK
6
CONTINUOUS
10
113.337
20
-64.082
11
113.206
21
-63.9944
0
LINE
8
BLACK
6
CONTINUOUS
10
113.206
20
-63.9944
11
113.094
21
-63.883
0
LINE
8
BLACK
6
CONTINUOUS
10
113.094
20
-63.883
11
113.007
21
-63.7519
0
LINE
8
BLACK
6
CONTINUOUS
10
113.007
20
-63.7519
11
112.947
21
-63.6064
0
LINE
8
BLACK
6
CONTINUOUS
10
112.947
20
-63.6064
11
112.916
21
-63.4518
0
LINE
8
BLACK
6
CONTINUOUS
10
112.916
20
-63.4518
11
112.916
21
-63.2942
0
LINE
8
BLACK
6
CONTINUOUS
10
112.916
20
-63.2942
11
112.947
21
-63.1396
0
LINE
8
BLACK
6
CONTINUOUS
10
112.947
20
-63.1396
11
113.007
21
-62.9941
0
LINE
8
BLACK
6
CONTINUOUS
10
113.007
20
-62.9941
11
113.094
21
-62.863
0
LINE
8
BLACK
6
CONTINUOUS
10
113.094
20
-62.863
11
113.206
21
-62.7516
0
LINE
8
BLACK
6
CONTINUOUS
10
113.206
20
-62.7516
11
113.337
21
-62.664
0
LINE
8
BLACK
6
CONTINUOUS
10
113.337
20
-62.664
11
113.482
21
-62.6037
0
LINE
8
BLACK
6
CONTINUOUS
10
113.482
20
-62.6037
11
113.637
21
-62.573
0
LINE
8
BLACK
6
CONTINUOUS
10
113.637
20
-62.573
11
113.795
21
-62.573
0
LINE
8
BLACK
6
CONTINUOUS
10
113.795
20
-62.573
11
113.949
21
-62.6037
0
LINE
8
BLACK
6
CONTINUOUS
10
101.138
20
-62.6037
11
101.283
21
-62.664
0
LINE
8
BLACK
6
CONTINUOUS
10
101.283
20
-62.664
11
101.414
21
-62.7516
0
LINE
8
BLACK
6
CONTINUOUS
10
101.414
20
-62.7516
11
101.526
21
-62.863
0
LINE
8
BLACK
6
CONTINUOUS
10
101.526
20
-62.863
11
101.613
21
-62.9941
0
LINE
8
BLACK
6
CONTINUOUS
10
101.613
20
-62.9941
11
101.674
21
-63.1396
0
LINE
8
BLACK
6
CONTINUOUS
10
101.674
20
-63.1396
11
101.704
21
-63.2942
0
LINE
8
BLACK
6
CONTINUOUS
10
101.704
20
-63.2942
11
101.704
21
-63.4518
0
LINE
8
BLACK
6
CONTINUOUS
10
101.704
20
-63.4518
11
101.674
21
-63.6064
0
LINE
8
BLACK
6
CONTINUOUS
10
101.674
20
-63.6064
11
101.613
21
-63.7519
0
LINE
8
BLACK
6
CONTINUOUS
10
101.613
20
-63.7519
11
101.526
21
-63.883
0
LINE
8
BLACK
6
CONTINUOUS
10
101.526
20
-63.883
11
101.414
21
-63.9944
0
LINE
8
BLACK
6
CONTINUOUS
10
101.414
20
-63.9944
11
101.283
21
-64.082
0
LINE
8
BLACK
6
CONTINUOUS
10
101.283
20
-64.082
11
101.138
21
-64.1423
0
LINE
8
BLACK
6
CONTINUOUS
10
101.138
20
-64.1423
11
100.983
21
-64.173
0
LINE
8
BLACK
6
CONTINUOUS
10
100.983
20
-64.173
11
100.826
21
-64.173
0
LINE
8
BLACK
6
CONTINUOUS
10
100.826
20
-64.173
11
100.671
21
-64.1423
0
LINE
8
BLACK
6
CONTINUOUS
10
100.671
20
-64.1423
11
100.525
21
-64.082
0
LINE
8
BLACK
6
CONTINUOUS
10
100.525
20
-64.082
11
100.394
21
-63.9944
0
LINE
8
BLACK
6
CONTINUOUS
10
100.394
20
-63.9944
11
100.283
21
-63.883
0
LINE
8
BLACK
6
CONTINUOUS
10
100.283
20
-63.883
11
100.195
21
-63.7519
0
LINE
8
BLACK
6
CONTINUOUS
10
100.195
20
-63.7519
11
100.135
21
-63.6064
0
LINE
8
BLACK
6
CONTINUOUS
10
100.135
20
-63.6064
11
100.104
21
-63.4518
0
LINE
8
BLACK
6
CONTINUOUS
10
100.104
20
-63.4518
11
100.104
21
-63.2942
0
LINE
8
BLACK
6
CONTINUOUS
10
100.104
20
-63.2942
11
100.135
21
-63.1396
0
LINE
8
BLACK
6
CONTINUOUS
10
100.135
20
-63.1396
11
100.195
21
-62.9941
0
LINE
8
BLACK
6
CONTINUOUS
10
100.195
20
-62.9941
11
100.283
21
-62.863
0
LINE
8
BLACK
6
CONTINUOUS
10
100.283
20
-62.863
11
100.394
21
-62.7516
0
LINE
8
BLACK
6
CONTINUOUS
10
100.394
20
-62.7516
11
100.525
21
-62.664
0
LINE
8
BLACK
6
CONTINUOUS
10
100.525
20
-62.664
11
100.671
21
-62.6037
0
LINE
8
BLACK
6
CONTINUOUS
10
100.671
20
-62.6037
11
100.826
21
-62.573
0
LINE
8
BLACK
6
CONTINUOUS
10
100.826
20
-62.573
11
100.983
21
-62.573
0
LINE
8
BLACK
6
CONTINUOUS
10
100.983
20
-62.573
11
101.138
21
-62.6037
0
LINE
8
BLACK
6
CONTINUOUS
10
98.1377
20
-62.6037
11
98.2832
21
-62.664
0
LINE
8
BLACK
6
CONTINUOUS
10
98.2832
20
-62.664
11
98.4143
21
-62.7516
0
LINE
8
BLACK
6
CONTINUOUS
10
98.4143
20
-62.7516
11
98.5257
21
-62.863
0
LINE
8
BLACK
6
CONTINUOUS
10
98.5257
20
-62.863
11
98.6133
21
-62.9941
0
LINE
8
BLACK
6
CONTINUOUS
10
98.6133
20
-62.9941
11
98.6736
21
-63.1396
0
LINE
8
BLACK
6
CONTINUOUS
10
98.6736
20
-63.1396
11
98.7043
21
-63.2942
0
LINE
8
BLACK
6
CONTINUOUS
10
98.7043
20
-63.2942
11
98.7043
21
-63.4518
0
LINE
8
BLACK
6
CONTINUOUS
10
98.7043
20
-63.4518
11
98.6736
21
-63.6064
0
LINE
8
BLACK
6
CONTINUOUS
10
98.6736
20
-63.6064
11
98.6133
21
-63.7519
0
LINE
8
BLACK
6
CONTINUOUS
10
98.6133
20
-63.7519
11
98.5257
21
-63.883
0
LINE
8
BLACK
6
CONTINUOUS
10
98.5257
20
-63.883
11
98.4143
21
-63.9944
0
LINE
8
BLACK
6
CONTINUOUS
10
98.4143
20
-63.9944
11
98.2832
21
-64.082
0
LINE
8
BLACK
6
CONTINUOUS
10
98.2832
20
-64.082
11
98.1377
21
-64.1423
0
LINE
8
BLACK
6
CONTINUOUS
10
98.1377
20
-64.1423
11
97.9831
21
-64.173
0
LINE
8
BLACK
6
CONTINUOUS
10
97.9831
20
-64.173
11
97.8255
21
-64.173
0
LINE
8
BLACK
6
CONTINUOUS
10
97.8255
20
-64.173
11
97.6709
21
-64.1423
0
LINE
8
BLACK
6
CONTINUOUS
10
97.6709
20
-64.1423
11
97.5254
21
-64.082
0
LINE
8
BLACK
6
CONTINUOUS
10
97.5254
20
-64.082
11
97.3943
21
-63.9944
0
LINE
8
BLACK
6
CONTINUOUS
10
97.3943
20
-63.9944
11
97.2829
21
-63.883
0
LINE
8
BLACK
6
CONTINUOUS
10
97.2829
20
-63.883
11
97.1953
21
-63.7519
0
LINE
8
BLACK
6
CONTINUOUS
10
97.1953
20
-63.7519
11
97.135
21
-63.6064
0
LINE
8
BLACK
6
CONTINUOUS
10
97.135
20
-63.6064
11
97.1043
21
-63.4518
0
LINE
8
BLACK
6
CONTINUOUS
10
97.1043
20
-63.4518
11
97.1043
21
-63.2942
0
LINE
8
BLACK
6
CONTINUOUS
10
97.1043
20
-63.2942
11
97.135
21
-63.1396
0
LINE
8
BLACK
6
CONTINUOUS
10
97.135
20
-63.1396
11
97.1953
21
-62.9941
0
LINE
8
BLACK
6
CONTINUOUS
10
97.1953
20
-62.9941
11
97.2829
21
-62.863
0
LINE
8
BLACK
6
CONTINUOUS
10
97.2829
20
-62.863
11
97.3943
21
-62.7516
0
LINE
8
BLACK
6
CONTINUOUS
10
97.3943
20
-62.7516
11
97.5254
21
-62.664
0
LINE
8
BLACK
6
CONTINUOUS
10
97.5254
20
-62.664
11
97.6709
21
-62.6037
0
LINE
8
BLACK
6
CONTINUOUS
10
97.6709
20
-62.6037
11
97.8255
21
-62.573
0
LINE
8
BLACK
6
CONTINUOUS
10
97.8255
20
-62.573
11
97.9831
21
-62.573
0
LINE
8
BLACK
6
CONTINUOUS
10
97.9831
20
-62.573
11
98.1377
21
-62.6037
0
LINE
8
BLACK
6
CONTINUOUS
10
117.183
20
-57.5145
11
117.474
21
-57.6351
0
LINE
8
BLACK
6
CONTINUOUS
10
117.474
20
-57.6351
11
117.736
21
-57.8102
0
LINE
8
BLACK
6
CONTINUOUS
10
117.736
20
-57.8102
11
117.959
21
-58.0331
0
LINE
8
BLACK
6
CONTINUOUS
10
117.959
20
-58.0331
11
118.134
21
-58.2951
0
LINE
8
BLACK
6
CONTINUOUS
10
118.134
20
-58.2951
11
118.254
21
-58.5863
0
LINE
8
BLACK
6
CONTINUOUS
10
118.254
20
-58.5863
11
118.316
21
-58.8954
0
LINE
8
BLACK
6
CONTINUOUS
10
118.316
20
-58.8954
11
118.316
21
-59.2106
0
LINE
8
BLACK
6
CONTINUOUS
10
118.316
20
-59.2106
11
118.254
21
-59.5197
0
LINE
8
BLACK
6
CONTINUOUS
10
118.254
20
-59.5197
11
118.134
21
-59.8109
0
LINE
8
BLACK
6
CONTINUOUS
10
118.134
20
-59.8109
11
117.959
21
-60.0729
0
LINE
8
BLACK
6
CONTINUOUS
10
117.959
20
-60.0729
11
117.736
21
-60.2958
0
LINE
8
BLACK
6
CONTINUOUS
10
117.736
20
-60.2958
11
117.474
21
-60.4709
0
LINE
8
BLACK
6
CONTINUOUS
10
117.474
20
-60.4709
11
117.183
21
-60.5915
0
LINE
8
BLACK
6
CONTINUOUS
10
117.183
20
-60.5915
11
116.873
21
-60.653
0
LINE
8
BLACK
6
CONTINUOUS
10
116.873
20
-60.653
11
116.558
21
-60.653
0
LINE
8
BLACK
6
CONTINUOUS
10
116.558
20
-60.653
11
116.249
21
-60.5915
0
LINE
8
BLACK
6
CONTINUOUS
10
116.249
20
-60.5915
11
115.958
21
-60.4709
0
LINE
8
BLACK
6
CONTINUOUS
10
115.958
20
-60.4709
11
115.696
21
-60.2958
0
LINE
8
BLACK
6
CONTINUOUS
10
115.696
20
-60.2958
11
115.473
21
-60.0729
0
LINE
8
BLACK
6
CONTINUOUS
10
115.473
20
-60.0729
11
115.298
21
-59.8109
0
LINE
8
BLACK
6
CONTINUOUS
10
115.298
20
-59.8109
11
115.177
21
-59.5197
0
LINE
8
BLACK
6
CONTINUOUS
10
115.177
20
-59.5197
11
115.116
21
-59.2106
0
LINE
8
BLACK
6
CONTINUOUS
10
115.116
20
-59.2106
11
115.116
21
-58.8954
0
LINE
8
BLACK
6
CONTINUOUS
10
115.116
20
-58.8954
11
115.177
21
-58.5863
0
LINE
8
BLACK
6
CONTINUOUS
10
115.177
20
-58.5863
11
115.298
21
-58.2951
0
LINE
8
BLACK
6
CONTINUOUS
10
115.298
20
-58.2951
11
115.473
21
-58.0331
0
LINE
8
BLACK
6
CONTINUOUS
10
115.473
20
-58.0331
11
115.696
21
-57.8102
0
LINE
8
BLACK
6
CONTINUOUS
10
115.696
20
-57.8102
11
115.958
21
-57.6351
0
LINE
8
BLACK
6
CONTINUOUS
10
115.958
20
-57.6351
11
116.249
21
-57.5145
0
LINE
8
BLACK
6
CONTINUOUS
10
116.249
20
-57.5145
11
116.558
21
-57.453
0
LINE
8
BLACK
6
CONTINUOUS
10
116.558
20
-57.453
11
116.873
21
-57.453
0
LINE
8
BLACK
6
CONTINUOUS
10
116.873
20
-57.453
11
117.183
21
-57.5145
0
LINE
8
BLACK
6
CONTINUOUS
10
101.371
20
-57.5145
11
101.662
21
-57.6351
0
LINE
8
BLACK
6
CONTINUOUS
10
101.662
20
-57.6351
11
101.924
21
-57.8102
0
LINE
8
BLACK
6
CONTINUOUS
10
101.924
20
-57.8102
11
102.147
21
-58.0331
0
LINE
8
BLACK
6
CONTINUOUS
10
102.147
20
-58.0331
11
102.322
21
-58.2951
0
LINE
8
BLACK
6
CONTINUOUS
10
102.322
20
-58.2951
11
102.443
21
-58.5863
0
LINE
8
BLACK
6
CONTINUOUS
10
102.443
20
-58.5863
11
102.504
21
-58.8954
0
LINE
8
BLACK
6
CONTINUOUS
10
102.504
20
-58.8954
11
102.504
21
-59.2106
0
LINE
8
BLACK
6
CONTINUOUS
10
102.504
20
-59.2106
11
102.443
21
-59.5197
0
LINE
8
BLACK
6
CONTINUOUS
10
102.443
20
-59.5197
11
102.322
21
-59.8109
0
LINE
8
BLACK
6
CONTINUOUS
10
102.322
20
-59.8109
11
102.147
21
-60.0729
0
LINE
8
BLACK
6
CONTINUOUS
10
102.147
20
-60.0729
11
101.924
21
-60.2958
0
LINE
8
BLACK
6
CONTINUOUS
10
101.924
20
-60.2958
11
101.662
21
-60.4709
0
LINE
8
BLACK
6
CONTINUOUS
10
101.662
20
-60.4709
11
101.371
21
-60.5915
0
LINE
8
BLACK
6
CONTINUOUS
10
101.371
20
-60.5915
11
101.062
21
-60.653
0
LINE
8
BLACK
6
CONTINUOUS
10
101.062
20
-60.653
11
100.747
21
-60.653
0
LINE
8
BLACK
6
CONTINUOUS
10
100.747
20
-60.653
11
100.438
21
-60.5915
0
LINE
8
BLACK
6
CONTINUOUS
10
100.438
20
-60.5915
11
100.146
21
-60.4709
0
LINE
8
BLACK
6
CONTINUOUS
10
100.146
20
-60.4709
11
99.8844
21
-60.2958
0
LINE
8
BLACK
6
CONTINUOUS
10
99.8844
20
-60.2958
11
99.6615
21
-60.0729
0
LINE
8
BLACK
6
CONTINUOUS
10
99.6615
20
-60.0729
11
99.4864
21
-59.8109
0
LINE
8
BLACK
6
CONTINUOUS
10
99.4864
20
-59.8109
11
99.3658
21
-59.5197
0
LINE
8
BLACK
6
CONTINUOUS
10
99.3658
20
-59.5197
11
99.3043
21
-59.2106
0
LINE
8
BLACK
6
CONTINUOUS
10
99.3043
20
-59.2106
11
99.3043
21
-58.8954
0
LINE
8
BLACK
6
CONTINUOUS
10
99.3043
20
-58.8954
11
99.3658
21
-58.5863
0
LINE
8
BLACK
6
CONTINUOUS
10
99.3658
20
-58.5863
11
99.4864
21
-58.2951
0
LINE
8
BLACK
6
CONTINUOUS
10
99.4864
20
-58.2951
11
99.6615
21
-58.0331
0
LINE
8
BLACK
6
CONTINUOUS
10
99.6615
20
-58.0331
11
99.8844
21
-57.8102
0
LINE
8
BLACK
6
CONTINUOUS
10
99.8844
20
-57.8102
11
100.146
21
-57.6351
0
LINE
8
BLACK
6
CONTINUOUS
10
100.146
20
-57.6351
11
100.438
21
-57.5145
0
LINE
8
BLACK
6
CONTINUOUS
10
100.438
20
-57.5145
11
100.747
21
-57.453
0
LINE
8
BLACK
6
CONTINUOUS
10
100.747
20
-57.453
11
101.062
21
-57.453
0
LINE
8
BLACK
6
CONTINUOUS
10
101.062
20
-57.453
11
101.371
21
-57.5145
0
LINE
8
BLACK
6
CONTINUOUS
10
88.9813
20
-57.4134
11
89.2816
21
-57.5378
0
LINE
8
BLACK
6
CONTINUOUS
10
89.2816
20
-57.5378
11
89.5518
21
-57.7184
0
LINE
8
BLACK
6
CONTINUOUS
10
89.5518
20
-57.7184
11
89.7816
21
-57.9482
0
LINE
8
BLACK
6
CONTINUOUS
10
89.7816
20
-57.9482
11
89.9622
21
-58.2184
0
LINE
8
BLACK
6
CONTINUOUS
10
89.9622
20
-58.2184
11
90.0866
21
-58.5187
0
LINE
8
BLACK
6
CONTINUOUS
10
90.0866
20
-58.5187
11
90.15
21
-58.8375
0
LINE
8
BLACK
6
CONTINUOUS
10
90.15
20
-58.8375
11
90.15
21
-59.1625
0
LINE
8
BLACK
6
CONTINUOUS
10
90.15
20
-59.1625
11
90.0866
21
-59.4813
0
LINE
8
BLACK
6
CONTINUOUS
10
90.0866
20
-59.4813
11
89.9622
21
-59.7816
0
LINE
8
BLACK
6
CONTINUOUS
10
89.9622
20
-59.7816
11
89.7816
21
-60.0518
0
LINE
8
BLACK
6
CONTINUOUS
10
89.7816
20
-60.0518
11
89.5518
21
-60.2816
0
LINE
8
BLACK
6
CONTINUOUS
10
89.5518
20
-60.2816
11
89.2816
21
-60.4622
0
LINE
8
BLACK
6
CONTINUOUS
10
89.2816
20
-60.4622
11
88.9813
21
-60.5866
0
LINE
8
BLACK
6
CONTINUOUS
10
88.9813
20
-60.5866
11
88.6625
21
-60.65
0
LINE
8
BLACK
6
CONTINUOUS
10
88.6625
20
-60.65
11
88.3375
21
-60.65
0
LINE
8
BLACK
6
CONTINUOUS
10
88.3375
20
-60.65
11
88.0187
21
-60.5866
0
LINE
8
BLACK
6
CONTINUOUS
10
88.0187
20
-60.5866
11
87.7184
21
-60.4622
0
LINE
8
BLACK
6
CONTINUOUS
10
87.7184
20
-60.4622
11
87.4482
21
-60.2816
0
LINE
8
BLACK
6
CONTINUOUS
10
87.4482
20
-60.2816
11
87.2184
21
-60.0518
0
LINE
8
BLACK
6
CONTINUOUS
10
87.2184
20
-60.0518
11
87.0378
21
-59.7816
0
LINE
8
BLACK
6
CONTINUOUS
10
87.0378
20
-59.7816
11
86.9134
21
-59.4813
0
LINE
8
BLACK
6
CONTINUOUS
10
86.9134
20
-59.4813
11
86.85
21
-59.1625
0
LINE
8
BLACK
6
CONTINUOUS
10
86.85
20
-59.1625
11
86.85
21
-58.8375
0
LINE
8
BLACK
6
CONTINUOUS
10
86.85
20
-58.8375
11
86.9134
21
-58.5187
0
LINE
8
BLACK
6
CONTINUOUS
10
86.9134
20
-58.5187
11
87.0378
21
-58.2184
0
LINE
8
BLACK
6
CONTINUOUS
10
87.0378
20
-58.2184
11
87.2184
21
-57.9482
0
LINE
8
BLACK
6
CONTINUOUS
10
87.2184
20
-57.9482
11
87.4482
21
-57.7184
0
LINE
8
BLACK
6
CONTINUOUS
10
87.4482
20
-57.7184
11
87.7184
21
-57.5378
0
LINE
8
BLACK
6
CONTINUOUS
10
87.7184
20
-57.5378
11
88.0187
21
-57.4134
0
LINE
8
BLACK
6
CONTINUOUS
10
88.0187
20
-57.4134
11
88.3375
21
-57.35
0
LINE
8
BLACK
6
CONTINUOUS
10
88.3375
20
-57.35
11
88.6625
21
-57.35
0
LINE
8
BLACK
6
CONTINUOUS
10
88.6625
20
-57.35
11
88.9813
21
-57.4134
0
LINE
8
BLACK
6
CONTINUOUS
10
129.981
20
-57.4134
11
130.282
21
-57.5378
0
LINE
8
BLACK
6
CONTINUOUS
10
130.282
20
-57.5378
11
130.552
21
-57.7184
0
LINE
8
BLACK
6
CONTINUOUS
10
130.552
20
-57.7184
11
130.782
21
-57.9482
0
LINE
8
BLACK
6
CONTINUOUS
10
130.782
20
-57.9482
11
130.962
21
-58.2184
0
LINE
8
BLACK
6
CONTINUOUS
10
130.962
20
-58.2184
11
131.087
21
-58.5187
0
LINE
8
BLACK
6
CONTINUOUS
10
131.087
20
-58.5187
11
131.15
21
-58.8375
0
LINE
8
BLACK
6
CONTINUOUS
10
131.15
20
-58.8375
11
131.15
21
-59.1625
0
LINE
8
BLACK
6
CONTINUOUS
10
131.15
20
-59.1625
11
131.087
21
-59.4813
0
LINE
8
BLACK
6
CONTINUOUS
10
131.087
20
-59.4813
11
130.962
21
-59.7816
0
LINE
8
BLACK
6
CONTINUOUS
10
130.962
20
-59.7816
11
130.782
21
-60.0518
0
LINE
8
BLACK
6
CONTINUOUS
10
130.782
20
-60.0518
11
130.552
21
-60.2816
0
LINE
8
BLACK
6
CONTINUOUS
10
130.552
20
-60.2816
11
130.282
21
-60.4622
0
LINE
8
BLACK
6
CONTINUOUS
10
130.282
20
-60.4622
11
129.981
21
-60.5866
0
LINE
8
BLACK
6
CONTINUOUS
10
129.981
20
-60.5866
11
129.663
21
-60.65
0
LINE
8
BLACK
6
CONTINUOUS
10
129.663
20
-60.65
11
129.337
21
-60.65
0
LINE
8
BLACK
6
CONTINUOUS
10
129.337
20
-60.65
11
129.019
21
-60.5866
0
LINE
8
BLACK
6
CONTINUOUS
10
129.019
20
-60.5866
11
128.718
21
-60.4622
0
LINE
8
BLACK
6
CONTINUOUS
10
128.718
20
-60.4622
11
128.448
21
-60.2816
0
LINE
8
BLACK
6
CONTINUOUS
10
128.448
20
-60.2816
11
128.218
21
-60.0518
0
LINE
8
BLACK
6
CONTINUOUS
10
128.218
20
-60.0518
11
128.038
21
-59.7816
0
LINE
8
BLACK
6
CONTINUOUS
10
128.038
20
-59.7816
11
127.913
21
-59.4813
0
LINE
8
BLACK
6
CONTINUOUS
10
127.913
20
-59.4813
11
127.85
21
-59.1625
0
LINE
8
BLACK
6
CONTINUOUS
10
127.85
20
-59.1625
11
127.85
21
-58.8375
0
LINE
8
BLACK
6
CONTINUOUS
10
127.85
20
-58.8375
11
127.913
21
-58.5187
0
LINE
8
BLACK
6
CONTINUOUS
10
127.913
20
-58.5187
11
128.038
21
-58.2184
0
LINE
8
BLACK
6
CONTINUOUS
10
128.038
20
-58.2184
11
128.218
21
-57.9482
0
LINE
8
BLACK
6
CONTINUOUS
10
128.218
20
-57.9482
11
128.448
21
-57.7184
0
LINE
8
BLACK
6
CONTINUOUS
10
128.448
20
-57.7184
11
128.718
21
-57.5378
0
LINE
8
BLACK
6
CONTINUOUS
10
128.718
20
-57.5378
11
129.019
21
-57.4134
0
LINE
8
BLACK
6
CONTINUOUS
10
129.019
20
-57.4134
11
129.337
21
-57.35
0
LINE
8
BLACK
6
CONTINUOUS
10
129.337
20
-57.35
11
129.663
21
-57.35
0
LINE
8
BLACK
6
CONTINUOUS
10
129.663
20
-57.35
11
129.981
21
-57.4134
0
LINE
8
BLACK
6
CONTINUOUS
10
132.298
20
-54.9655
11
132.304
21
-54.9666
0
LINE
8
BLACK
6
CONTINUOUS
10
132.304
20
-54.9666
11
132.31
21
-54.9678
0
LINE
8
BLACK
6
CONTINUOUS
10
132.31
20
-54.9678
11
132.59
21
-55.0524
0
LINE
8
BLACK
6
CONTINUOUS
10
132.59
20
-55.0524
11
132.591
21
-55.0527
0
LINE
8
BLACK
6
CONTINUOUS
10
132.591
20
-55.0527
11
132.596
21
-55.0549
0
LINE
8
BLACK
6
CONTINUOUS
10
132.596
20
-55.0549
11
132.601
21
-55.0571
0
LINE
8
BLACK
6
CONTINUOUS
10
132.601
20
-55.0571
11
132.86
21
-55.1946
0
LINE
8
BLACK
6
CONTINUOUS
10
132.86
20
-55.1946
11
132.861
21
-55.195
0
LINE
8
BLACK
6
CONTINUOUS
10
132.861
20
-55.195
11
132.865
21
-55.1982
0
LINE
8
BLACK
6
CONTINUOUS
10
132.865
20
-55.1982
11
132.87
21
-55.2014
0
LINE
8
BLACK
6
CONTINUOUS
10
132.87
20
-55.2014
11
133.097
21
-55.3864
0
LINE
8
BLACK
6
CONTINUOUS
10
133.097
20
-55.3864
11
133.098
21
-55.387
0
LINE
8
BLACK
6
CONTINUOUS
10
133.098
20
-55.387
11
133.102
21
-55.3911
0
LINE
8
BLACK
6
CONTINUOUS
10
133.102
20
-55.3911
11
133.106
21
-55.3952
0
LINE
8
BLACK
6
CONTINUOUS
10
133.106
20
-55.3952
11
133.292
21
-55.6207
0
LINE
8
BLACK
6
CONTINUOUS
10
133.292
20
-55.6207
11
133.292
21
-55.6207
0
LINE
8
BLACK
6
CONTINUOUS
10
133.292
20
-55.6207
11
133.292
21
-55.6207
0
LINE
8
BLACK
6
CONTINUOUS
10
133.292
20
-55.6207
11
133.293
21
-55.6214
0
LINE
8
BLACK
6
CONTINUOUS
10
133.293
20
-55.6214
11
133.296
21
-55.6262
0
LINE
8
BLACK
6
CONTINUOUS
10
133.296
20
-55.6262
11
133.299
21
-55.631
0
LINE
8
BLACK
6
CONTINUOUS
10
133.299
20
-55.631
11
133.439
21
-55.8885
0
LINE
8
BLACK
6
CONTINUOUS
10
133.439
20
-55.8885
11
133.439
21
-55.8893
0
LINE
8
BLACK
6
CONTINUOUS
10
133.439
20
-55.8893
11
133.441
21
-55.8946
0
LINE
8
BLACK
6
CONTINUOUS
10
133.441
20
-55.8946
11
133.443
21
-55.8999
0
LINE
8
BLACK
6
CONTINUOUS
10
133.443
20
-55.8999
11
133.53
21
-56.1796
0
LINE
8
BLACK
6
CONTINUOUS
10
133.53
20
-56.1796
11
133.53
21
-56.1796
0
LINE
8
BLACK
6
CONTINUOUS
10
133.53
20
-56.1796
11
133.53
21
-56.1796
0
LINE
8
BLACK
6
CONTINUOUS
10
133.53
20
-56.1796
11
133.53
21
-56.1805
0
LINE
8
BLACK
6
CONTINUOUS
10
133.53
20
-56.1805
11
133.531
21
-56.1861
0
LINE
8
BLACK
6
CONTINUOUS
10
133.531
20
-56.1861
11
133.533
21
-56.1917
0
LINE
8
BLACK
6
CONTINUOUS
10
133.533
20
-56.1917
11
133.563
21
-56.4829
0
LINE
8
BLACK
6
CONTINUOUS
10
133.563
20
-56.4829
11
133.563
21
-56.4838
0
LINE
8
BLACK
6
CONTINUOUS
10
133.563
20
-56.4838
11
133.563
21
-56.4865
0
LINE
8
BLACK
6
CONTINUOUS
10
133.563
20
-56.4865
11
133.563
21
-56.4893
0
LINE
8
BLACK
6
CONTINUOUS
10
133.563
20
-56.4893
11
133.564
21
-56.4998
0
LINE
8
BLACK
6
CONTINUOUS
10
133.564
20
-56.4998
11
133.563
21
-56.5007
0
LINE
8
BLACK
6
CONTINUOUS
10
133.563
20
-56.5007
11
133.562
21
-56.513
0
LINE
8
BLACK
6
CONTINUOUS
10
133.562
20
-56.513
11
133.558
21
-56.5248
0
LINE
8
BLACK
6
CONTINUOUS
10
133.558
20
-56.5248
11
133.553
21
-56.5357
0
LINE
8
BLACK
6
CONTINUOUS
10
133.553
20
-56.5357
11
133.55
21
-56.5387
0
LINE
8
BLACK
6
CONTINUOUS
10
133.55
20
-56.5387
11
133.55
21
-107.961
0
LINE
8
BLACK
6
CONTINUOUS
10
133.55
20
-107.961
11
133.556
21
-107.97
0
LINE
8
BLACK
6
CONTINUOUS
10
133.556
20
-107.97
11
133.561
21
-107.982
0
LINE
8
BLACK
6
CONTINUOUS
10
133.561
20
-107.982
11
133.563
21
-107.994
0
LINE
8
BLACK
6
CONTINUOUS
10
133.563
20
-107.994
11
133.563
21
-108.006
0
LINE
8
BLACK
6
CONTINUOUS
10
133.563
20
-108.006
11
133.525
21
-108.395
0
LINE
8
BLACK
6
CONTINUOUS
10
133.525
20
-108.395
11
133.525
21
-108.396
0
LINE
8
BLACK
6
CONTINUOUS
10
133.525
20
-108.396
11
133.524
21
-108.401
0
LINE
8
BLACK
6
CONTINUOUS
10
133.524
20
-108.401
11
133.523
21
-108.407
0
LINE
8
BLACK
6
CONTINUOUS
10
133.523
20
-108.407
11
133.41
21
-108.78
0
LINE
8
BLACK
6
CONTINUOUS
10
133.41
20
-108.78
11
133.41
21
-108.781
0
LINE
8
BLACK
6
CONTINUOUS
10
133.41
20
-108.781
11
133.407
21
-108.787
0
LINE
8
BLACK
6
CONTINUOUS
10
133.407
20
-108.787
11
133.405
21
-108.792
0
LINE
8
BLACK
6
CONTINUOUS
10
133.405
20
-108.792
11
133.222
21
-109.137
0
LINE
8
BLACK
6
CONTINUOUS
10
133.222
20
-109.137
11
133.221
21
-109.137
0
LINE
8
BLACK
6
CONTINUOUS
10
133.221
20
-109.137
11
133.218
21
-109.142
0
LINE
8
BLACK
6
CONTINUOUS
10
133.218
20
-109.142
11
133.215
21
-109.147
0
LINE
8
BLACK
6
CONTINUOUS
10
133.215
20
-109.147
11
132.968
21
-109.449
0
LINE
8
BLACK
6
CONTINUOUS
10
132.968
20
-109.449
11
132.968
21
-109.45
0
LINE
8
BLACK
6
CONTINUOUS
10
132.968
20
-109.45
11
132.964
21
-109.454
0
LINE
8
BLACK
6
CONTINUOUS
10
132.964
20
-109.454
11
132.96
21
-109.458
0
LINE
8
BLACK
6
CONTINUOUS
10
132.96
20
-109.458
11
132.659
21
-109.707
0
LINE
8
BLACK
6
CONTINUOUS
10
132.659
20
-109.707
11
132.658
21
-109.708
0
LINE
8
BLACK
6
CONTINUOUS
10
132.658
20
-109.708
11
132.653
21
-109.711
0
LINE
8
BLACK
6
CONTINUOUS
10
132.653
20
-109.711
11
132.649
21
-109.714
0
LINE
8
BLACK
6
CONTINUOUS
10
132.649
20
-109.714
11
132.305
21
-109.9
0
LINE
8
BLACK
6
CONTINUOUS
10
132.305
20
-109.9
11
132.304
21
-109.9
0
LINE
8
BLACK
6
CONTINUOUS
10
132.304
20
-109.9
11
132.299
21
-109.902
0
LINE
8
BLACK
6
CONTINUOUS
10
132.299
20
-109.902
11
132.294
21
-109.904
0
LINE
8
BLACK
6
CONTINUOUS
10
132.294
20
-109.904
11
131.921
21
-110.02
0
LINE
8
BLACK
6
CONTINUOUS
10
131.921
20
-110.02
11
131.921
21
-110.02
0
LINE
8
BLACK
6
CONTINUOUS
10
131.921
20
-110.02
11
131.921
21
-110.02
0
LINE
8
BLACK
6
CONTINUOUS
10
131.921
20
-110.02
11
131.92
21
-110.02
0
LINE
8
BLACK
6
CONTINUOUS
10
131.92
20
-110.02
11
131.914
21
-110.021
0
LINE
8
BLACK
6
CONTINUOUS
10
131.914
20
-110.021
11
131.909
21
-110.022
0
LINE
8
BLACK
6
CONTINUOUS
10
131.909
20
-110.022
11
131.521
21
-110.063
0
LINE
8
BLACK
6
CONTINUOUS
10
131.521
20
-110.063
11
131.52
21
-110.063
0
LINE
8
BLACK
6
CONTINUOUS
10
131.52
20
-110.063
11
131.517
21
-110.063
0
LINE
8
BLACK
6
CONTINUOUS
10
131.517
20
-110.063
11
131.514
21
-110.063
0
LINE
8
BLACK
6
CONTINUOUS
10
131.514
20
-110.063
11
131.5
21
-110.063
0
LINE
8
BLACK
6
CONTINUOUS
10
131.5
20
-110.063
11
131.499
21
-110.063
0
LINE
8
BLACK
6
CONTINUOUS
10
131.499
20
-110.063
11
131.487
21
-110.062
0
LINE
8
BLACK
6
CONTINUOUS
10
131.487
20
-110.062
11
131.475
21
-110.058
0
LINE
8
BLACK
6
CONTINUOUS
10
131.475
20
-110.058
11
131.464
21
-110.053
0
LINE
8
BLACK
6
CONTINUOUS
10
131.464
20
-110.053
11
131.461
21
-110.05
0
LINE
8
BLACK
6
CONTINUOUS
10
131.461
20
-110.05
11
86.039
21
-110.057
0
LINE
8
BLACK
6
CONTINUOUS
10
86.039
20
-110.057
11
86.0298
21
-110.063
0
LINE
8
BLACK
6
CONTINUOUS
10
86.0298
20
-110.063
11
86.0184
21
-110.068
0
LINE
8
BLACK
6
CONTINUOUS
10
86.0184
20
-110.068
11
86.0062
21
-110.07
0
LINE
8
BLACK
6
CONTINUOUS
10
86.0062
20
-110.07
11
85.9938
21
-110.07
0
LINE
8
BLACK
6
CONTINUOUS
10
85.9938
20
-110.07
11
85.7011
21
-110.041
0
LINE
8
BLACK
6
CONTINUOUS
10
85.7011
20
-110.041
11
85.7002
21
-110.041
0
LINE
8
BLACK
6
CONTINUOUS
10
85.7002
20
-110.041
11
85.6946
21
-110.04
0
LINE
8
BLACK
6
CONTINUOUS
10
85.6946
20
-110.04
11
85.689
21
-110.039
0
LINE
8
BLACK
6
CONTINUOUS
10
85.689
20
-110.039
11
85.4074
21
-109.954
0
LINE
8
BLACK
6
CONTINUOUS
10
85.4074
20
-109.954
11
85.4066
21
-109.954
0
LINE
8
BLACK
6
CONTINUOUS
10
85.4066
20
-109.954
11
85.4013
21
-109.951
0
LINE
8
BLACK
6
CONTINUOUS
10
85.4013
20
-109.951
11
85.396
21
-109.949
0
LINE
8
BLACK
6
CONTINUOUS
10
85.396
20
-109.949
11
85.1363
21
-109.811
0
LINE
8
BLACK
6
CONTINUOUS
10
85.1363
20
-109.811
11
85.1363
21
-109.811
0
LINE
8
BLACK
6
CONTINUOUS
10
85.1363
20
-109.811
11
85.1363
21
-109.811
0
LINE
8
BLACK
6
CONTINUOUS
10
85.1363
20
-109.811
11
85.1355
21
-109.811
0
LINE
8
BLACK
6
CONTINUOUS
10
85.1355
20
-109.811
11
85.1307
21
-109.808
0
LINE
8
BLACK
6
CONTINUOUS
10
85.1307
20
-109.808
11
85.126
21
-109.804
0
LINE
8
BLACK
6
CONTINUOUS
10
85.126
20
-109.804
11
84.8981
21
-109.618
0
LINE
8
BLACK
6
CONTINUOUS
10
84.8981
20
-109.618
11
84.8974
21
-109.618
0
LINE
8
BLACK
6
CONTINUOUS
10
84.8974
20
-109.618
11
84.8933
21
-109.614
0
LINE
8
BLACK
6
CONTINUOUS
10
84.8933
20
-109.614
11
84.8893
21
-109.61
0
LINE
8
BLACK
6
CONTINUOUS
10
84.8893
20
-109.61
11
84.7018
21
-109.383
0
LINE
8
BLACK
6
CONTINUOUS
10
84.7018
20
-109.383
11
84.7018
21
-109.383
0
LINE
8
BLACK
6
CONTINUOUS
10
84.7018
20
-109.383
11
84.7018
21
-109.383
0
LINE
8
BLACK
6
CONTINUOUS
10
84.7018
20
-109.383
11
84.7012
21
-109.382
0
LINE
8
BLACK
6
CONTINUOUS
10
84.7012
20
-109.382
11
84.6981
21
-109.378
0
LINE
8
BLACK
6
CONTINUOUS
10
84.6981
20
-109.378
11
84.6949
21
-109.373
0
LINE
8
BLACK
6
CONTINUOUS
10
84.6949
20
-109.373
11
84.555
21
-109.114
0
LINE
8
BLACK
6
CONTINUOUS
10
84.555
20
-109.114
11
84.5546
21
-109.113
0
LINE
8
BLACK
6
CONTINUOUS
10
84.5546
20
-109.113
11
84.5524
21
-109.108
0
LINE
8
BLACK
6
CONTINUOUS
10
84.5524
20
-109.108
11
84.5502
21
-109.103
0
LINE
8
BLACK
6
CONTINUOUS
10
84.5502
20
-109.103
11
84.4632
21
-108.822
0
LINE
8
BLACK
6
CONTINUOUS
10
84.4632
20
-108.822
11
84.4632
21
-108.822
0
LINE
8
BLACK
6
CONTINUOUS
10
84.4632
20
-108.822
11
84.4632
21
-108.822
0
LINE
8
BLACK
6
CONTINUOUS
10
84.4632
20
-108.822
11
84.463
21
-108.821
0
LINE
8
BLACK
6
CONTINUOUS
10
84.463
20
-108.821
11
84.4619
21
-108.815
0
LINE
8
BLACK
6
CONTINUOUS
10
84.4619
20
-108.815
11
84.4607
21
-108.81
0
LINE
8
BLACK
6
CONTINUOUS
10
84.4607
20
-108.81
11
84.43
21
-108.517
0
LINE
8
BLACK
6
CONTINUOUS
10
84.43
20
-108.517
11
84.4299
21
-108.516
0
LINE
8
BLACK
6
CONTINUOUS
10
84.4299
20
-108.516
11
84.4299
21
-108.514
0
LINE
8
BLACK
6
CONTINUOUS
10
84.4299
20
-108.514
11
84.4296
21
-108.511
0
LINE
8
BLACK
6
CONTINUOUS
10
84.4296
20
-108.511
11
84.4296
21
-108.5
0
LINE
8
BLACK
6
CONTINUOUS
10
84.4296
20
-108.5
11
84.4296
21
-108.499
0
LINE
8
BLACK
6
CONTINUOUS
10
84.4296
20
-108.499
11
84.4309
21
-108.487
0
LINE
8
BLACK
6
CONTINUOUS
10
84.4309
20
-108.487
11
84.4346
21
-108.475
0
LINE
8
BLACK
6
CONTINUOUS
10
84.4346
20
-108.475
11
84.4406
21
-108.464
0
LINE
8
BLACK
6
CONTINUOUS
10
84.4406
20
-108.464
11
84.4431
21
-108.461
0
LINE
8
BLACK
6
CONTINUOUS
10
84.4431
20
-108.461
11
84.45
21
-56.5389
0
LINE
8
BLACK
6
CONTINUOUS
10
84.45
20
-56.5389
11
84.4439
21
-56.5298
0
LINE
8
BLACK
6
CONTINUOUS
10
84.4439
20
-56.5298
11
84.4392
21
-56.5184
0
LINE
8
BLACK
6
CONTINUOUS
10
84.4392
20
-56.5184
11
84.4368
21
-56.5062
0
LINE
8
BLACK
6
CONTINUOUS
10
84.4368
20
-56.5062
11
84.4368
21
-56.4938
0
LINE
8
BLACK
6
CONTINUOUS
10
84.4368
20
-56.4938
11
84.4654
21
-56.2025
0
LINE
8
BLACK
6
CONTINUOUS
10
84.4654
20
-56.2025
11
84.4655
21
-56.2016
0
LINE
8
BLACK
6
CONTINUOUS
10
84.4655
20
-56.2016
11
84.4666
21
-56.196
0
LINE
8
BLACK
6
CONTINUOUS
10
84.4666
20
-56.196
11
84.4678
21
-56.1903
0
LINE
8
BLACK
6
CONTINUOUS
10
84.4678
20
-56.1903
11
84.5524
21
-55.91
0
LINE
8
BLACK
6
CONTINUOUS
10
84.5524
20
-55.91
11
84.5527
21
-55.9092
0
LINE
8
BLACK
6
CONTINUOUS
10
84.5527
20
-55.9092
11
84.5549
21
-55.9039
0
LINE
8
BLACK
6
CONTINUOUS
10
84.5549
20
-55.9039
11
84.5571
21
-55.8986
0
LINE
8
BLACK
6
CONTINUOUS
10
84.5571
20
-55.8986
11
84.6946
21
-55.6401
0
LINE
8
BLACK
6
CONTINUOUS
10
84.6946
20
-55.6401
11
84.695
21
-55.6393
0
LINE
8
BLACK
6
CONTINUOUS
10
84.695
20
-55.6393
11
84.6982
21
-55.6346
0
LINE
8
BLACK
6
CONTINUOUS
10
84.6982
20
-55.6346
11
84.7014
21
-55.6298
0
LINE
8
BLACK
6
CONTINUOUS
10
84.7014
20
-55.6298
11
84.8864
21
-55.4029
0
LINE
8
BLACK
6
CONTINUOUS
10
84.8864
20
-55.4029
11
84.887
21
-55.4022
0
LINE
8
BLACK
6
CONTINUOUS
10
84.887
20
-55.4022
11
84.8911
21
-55.3982
0
LINE
8
BLACK
6
CONTINUOUS
10
84.8911
20
-55.3982
11
84.8952
21
-55.3941
0
LINE
8
BLACK
6
CONTINUOUS
10
84.8952
20
-55.3941
11
85.1207
21
-55.2075
0
LINE
8
BLACK
6
CONTINUOUS
10
85.1207
20
-55.2075
11
85.1207
21
-55.2075
0
LINE
8
BLACK
6
CONTINUOUS
10
85.1207
20
-55.2075
11
85.1207
21
-55.2075
0
LINE
8
BLACK
6
CONTINUOUS
10
85.1207
20
-55.2075
11
85.1214
21
-55.207
0
LINE
8
BLACK
6
CONTINUOUS
10
85.1214
20
-55.207
11
85.1262
21
-55.2038
0
LINE
8
BLACK
6
CONTINUOUS
10
85.1262
20
-55.2038
11
85.131
21
-55.2006
0
LINE
8
BLACK
6
CONTINUOUS
10
85.131
20
-55.2006
11
85.3885
21
-55.0613
0
LINE
8
BLACK
6
CONTINUOUS
10
85.3885
20
-55.0613
11
85.3893
21
-55.0609
0
LINE
8
BLACK
6
CONTINUOUS
10
85.3893
20
-55.0609
11
85.3947
21
-55.0588
0
LINE
8
BLACK
6
CONTINUOUS
10
85.3947
20
-55.0588
11
85.3999
21
-55.0565
0
LINE
8
BLACK
6
CONTINUOUS
10
85.3999
20
-55.0565
11
85.6796
21
-54.97
0
LINE
8
BLACK
6
CONTINUOUS
10
85.6796
20
-54.97
11
85.6796
21
-54.97
0
LINE
8
BLACK
6
CONTINUOUS
10
85.6796
20
-54.97
11
85.6796
21
-54.97
0
LINE
8
BLACK
6
CONTINUOUS
10
85.6796
20
-54.97
11
85.6805
21
-54.9697
0
LINE
8
BLACK
6
CONTINUOUS
10
85.6805
20
-54.9697
11
85.6861
21
-54.9686
0
LINE
8
BLACK
6
CONTINUOUS
10
85.6861
20
-54.9686
11
85.6917
21
-54.9675
0
LINE
8
BLACK
6
CONTINUOUS
10
85.6917
20
-54.9675
11
85.9829
21
-54.9369
0
LINE
8
BLACK
6
CONTINUOUS
10
85.9829
20
-54.9369
11
85.9838
21
-54.9368
0
LINE
8
BLACK
6
CONTINUOUS
10
85.9838
20
-54.9368
11
85.9865
21
-54.9368
0
LINE
8
BLACK
6
CONTINUOUS
10
85.9865
20
-54.9368
11
85.9893
21
-54.9365
0
LINE
8
BLACK
6
CONTINUOUS
10
85.9893
20
-54.9365
11
85.9998
21
-54.9365
0
LINE
8
BLACK
6
CONTINUOUS
10
85.9998
20
-54.9365
11
86.0007
21
-54.9365
0
LINE
8
BLACK
6
CONTINUOUS
10
86.0007
20
-54.9365
11
86.013
21
-54.9378
0
LINE
8
BLACK
6
CONTINUOUS
10
86.013
20
-54.9378
11
86.0248
21
-54.9415
0
LINE
8
BLACK
6
CONTINUOUS
10
86.0248
20
-54.9415
11
86.0357
21
-54.9475
0
LINE
8
BLACK
6
CONTINUOUS
10
86.0357
20
-54.9475
11
86.0387
21
-54.95
0
LINE
8
BLACK
6
CONTINUOUS
10
86.0387
20
-54.95
11
131.961
21
-54.95
0
LINE
8
BLACK
6
CONTINUOUS
10
131.961
20
-54.95
11
131.97
21
-54.9439
0
LINE
8
BLACK
6
CONTINUOUS
10
131.97
20
-54.9439
11
131.982
21
-54.9392
0
LINE
8
BLACK
6
CONTINUOUS
10
131.982
20
-54.9392
11
131.994
21
-54.9368
0
LINE
8
BLACK
6
CONTINUOUS
10
131.994
20
-54.9368
11
132.006
21
-54.9368
0
LINE
8
BLACK
6
CONTINUOUS
10
132.006
20
-54.9368
11
132.298
21
-54.9654
0
LINE
8
BLACK
6
CONTINUOUS
10
132.298
20
-54.9654
11
132.298
21
-54.9654
0
LINE
8
BLACK
6
CONTINUOUS
10
132.298
20
-54.9654
11
132.298
21
-54.9655
0
LINE
8
BLACK
6
CONTINUOUS
10
86.0387
20
-55.05
11
86.0353
21
-55.0528
0
LINE
8
BLACK
6
CONTINUOUS
10
86.0353
20
-55.0528
11
86.0244
21
-55.0586
0
LINE
8
BLACK
6
CONTINUOUS
10
86.0244
20
-55.0586
11
86.0126
21
-55.0622
0
LINE
8
BLACK
6
CONTINUOUS
10
86.0126
20
-55.0622
11
86.0002
21
-55.0635
0
LINE
8
BLACK
6
CONTINUOUS
10
86.0002
20
-55.0635
11
85.993
21
-55.0635
0
LINE
8
BLACK
6
CONTINUOUS
10
85.993
20
-55.0635
11
85.7112
21
-55.0931
0
LINE
8
BLACK
6
CONTINUOUS
10
85.7112
20
-55.0931
11
85.4435
21
-55.176
0
LINE
8
BLACK
6
CONTINUOUS
10
85.4435
20
-55.176
11
85.1969
21
-55.3093
0
LINE
8
BLACK
6
CONTINUOUS
10
85.1969
20
-55.3093
11
84.9809
21
-55.488
0
LINE
8
BLACK
6
CONTINUOUS
10
84.9809
20
-55.488
11
84.8038
21
-55.7052
0
LINE
8
BLACK
6
CONTINUOUS
10
84.8038
20
-55.7052
11
84.6722
21
-55.9527
0
LINE
8
BLACK
6
CONTINUOUS
10
84.6722
20
-55.9527
11
84.5912
21
-56.221
0
LINE
8
BLACK
6
CONTINUOUS
10
84.5912
20
-56.221
11
84.5632
21
-56.5062
0
LINE
8
BLACK
6
CONTINUOUS
10
84.5632
20
-56.5062
11
84.5631
21
-56.5071
0
LINE
8
BLACK
6
CONTINUOUS
10
84.5631
20
-56.5071
11
84.5605
21
-56.5192
0
LINE
8
BLACK
6
CONTINUOUS
10
84.5605
20
-56.5192
11
84.5556
21
-56.5306
0
LINE
8
BLACK
6
CONTINUOUS
10
84.5556
20
-56.5306
11
84.55
21
-56.5388
0
LINE
8
BLACK
6
CONTINUOUS
10
84.55
20
-56.5388
11
84.5431
21
-108.461
0
LINE
8
BLACK
6
CONTINUOUS
10
84.5431
20
-108.461
11
84.5459
21
-108.465
0
LINE
8
BLACK
6
CONTINUOUS
10
84.5459
20
-108.465
11
84.5517
21
-108.476
0
LINE
8
BLACK
6
CONTINUOUS
10
84.5517
20
-108.476
11
84.5553
21
-108.487
0
LINE
8
BLACK
6
CONTINUOUS
10
84.5553
20
-108.487
11
84.5566
21
-108.5
0
LINE
8
BLACK
6
CONTINUOUS
10
84.5566
20
-108.5
11
84.5566
21
-108.507
0
LINE
8
BLACK
6
CONTINUOUS
10
84.5566
20
-108.507
11
84.5864
21
-108.79
0
LINE
8
BLACK
6
CONTINUOUS
10
84.5864
20
-108.79
11
84.6697
21
-109.059
0
LINE
8
BLACK
6
CONTINUOUS
10
84.6697
20
-109.059
11
84.8036
21
-109.307
0
LINE
8
BLACK
6
CONTINUOUS
10
84.8036
20
-109.307
11
84.9831
21
-109.524
0
LINE
8
BLACK
6
CONTINUOUS
10
84.9831
20
-109.524
11
85.2014
21
-109.702
0
LINE
8
BLACK
6
CONTINUOUS
10
85.2014
20
-109.702
11
85.4501
21
-109.834
0
LINE
8
BLACK
6
CONTINUOUS
10
85.4501
20
-109.834
11
85.7197
21
-109.916
0
LINE
8
BLACK
6
CONTINUOUS
10
85.7197
20
-109.916
11
86.0062
21
-109.944
0
LINE
8
BLACK
6
CONTINUOUS
10
86.0062
20
-109.944
11
86.0071
21
-109.944
0
LINE
8
BLACK
6
CONTINUOUS
10
86.0071
20
-109.944
11
86.0192
21
-109.946
0
LINE
8
BLACK
6
CONTINUOUS
10
86.0192
20
-109.946
11
86.0306
21
-109.951
0
LINE
8
BLACK
6
CONTINUOUS
10
86.0306
20
-109.951
11
86.0388
21
-109.957
0
LINE
8
BLACK
6
CONTINUOUS
10
86.0388
20
-109.957
11
131.461
21
-109.95
0
LINE
8
BLACK
6
CONTINUOUS
10
131.461
20
-109.95
11
131.465
21
-109.947
0
LINE
8
BLACK
6
CONTINUOUS
10
131.465
20
-109.947
11
131.476
21
-109.941
0
LINE
8
BLACK
6
CONTINUOUS
10
131.476
20
-109.941
11
131.487
21
-109.938
0
LINE
8
BLACK
6
CONTINUOUS
10
131.487
20
-109.938
11
131.5
21
-109.936
0
LINE
8
BLACK
6
CONTINUOUS
10
131.5
20
-109.936
11
131.511
21
-109.936
0
LINE
8
BLACK
6
CONTINUOUS
10
131.511
20
-109.936
11
131.889
21
-109.897
0
LINE
8
BLACK
6
CONTINUOUS
10
131.889
20
-109.897
11
132.25
21
-109.785
0
LINE
8
BLACK
6
CONTINUOUS
10
132.25
20
-109.785
11
132.583
21
-109.605
0
LINE
8
BLACK
6
CONTINUOUS
10
132.583
20
-109.605
11
132.874
21
-109.364
0
LINE
8
BLACK
6
CONTINUOUS
10
132.874
20
-109.364
11
133.113
21
-109.071
0
LINE
8
BLACK
6
CONTINUOUS
10
133.113
20
-109.071
11
133.29
21
-108.738
0
LINE
8
BLACK
6
CONTINUOUS
10
133.29
20
-108.738
11
133.399
21
-108.376
0
LINE
8
BLACK
6
CONTINUOUS
10
133.399
20
-108.376
11
133.437
21
-107.994
0
LINE
8
BLACK
6
CONTINUOUS
10
133.437
20
-107.994
11
133.437
21
-107.993
0
LINE
8
BLACK
6
CONTINUOUS
10
133.437
20
-107.993
11
133.439
21
-107.981
0
LINE
8
BLACK
6
CONTINUOUS
10
133.439
20
-107.981
11
133.444
21
-107.969
0
LINE
8
BLACK
6
CONTINUOUS
10
133.444
20
-107.969
11
133.45
21
-107.961
0
LINE
8
BLACK
6
CONTINUOUS
10
133.45
20
-107.961
11
133.45
21
-56.5387
0
LINE
8
BLACK
6
CONTINUOUS
10
133.45
20
-56.5387
11
133.447
21
-56.5353
0
LINE
8
BLACK
6
CONTINUOUS
10
133.447
20
-56.5353
11
133.441
21
-56.5244
0
LINE
8
BLACK
6
CONTINUOUS
10
133.441
20
-56.5244
11
133.438
21
-56.5126
0
LINE
8
BLACK
6
CONTINUOUS
10
133.438
20
-56.5126
11
133.436
21
-56.5002
0
LINE
8
BLACK
6
CONTINUOUS
10
133.436
20
-56.5002
11
133.436
21
-56.493
0
LINE
8
BLACK
6
CONTINUOUS
10
133.436
20
-56.493
11
133.407
21
-56.2112
0
LINE
8
BLACK
6
CONTINUOUS
10
133.407
20
-56.2112
11
133.324
21
-55.9435
0
LINE
8
BLACK
6
CONTINUOUS
10
133.324
20
-55.9435
11
133.191
21
-55.6969
0
LINE
8
BLACK
6
CONTINUOUS
10
133.191
20
-55.6969
11
133.012
21
-55.4809
0
LINE
8
BLACK
6
CONTINUOUS
10
133.012
20
-55.4809
11
132.795
21
-55.3038
0
LINE
8
BLACK
6
CONTINUOUS
10
132.795
20
-55.3038
11
132.547
21
-55.1722
0
LINE
8
BLACK
6
CONTINUOUS
10
132.547
20
-55.1722
11
132.279
21
-55.0912
0
LINE
8
BLACK
6
CONTINUOUS
10
132.279
20
-55.0912
11
131.994
21
-55.0632
0
LINE
8
BLACK
6
CONTINUOUS
10
131.994
20
-55.0632
11
131.993
21
-55.0631
0
LINE
8
BLACK
6
CONTINUOUS
10
131.993
20
-55.0631
11
131.981
21
-55.0605
0
LINE
8
BLACK
6
CONTINUOUS
10
131.981
20
-55.0605
11
131.969
21
-55.0556
0
LINE
8
BLACK
6
CONTINUOUS
10
131.969
20
-55.0556
11
131.961
21
-55.05
0
LINE
8
BLACK
6
CONTINUOUS
10
131.961
20
-55.05
11
86.0387
21
-55.05
  0
ENDSEC
  0
EOF
