M48
; DRILL file {KiCad 5.1.5+dfsg1-2build2} date jue 07 ene 2021 13:02:30
; FORMAT={-:-/ absolute / inch / decimal}
; #@! TF.CreationDate,2021-01-07T13:02:30+01:00
; #@! TF.GenerationSoftware,Kicad,Pcbnew,5.1.5+dfsg1-2build2
FMAT,2
INCH
T1C0.0130
T2C0.0295
T3C0.0394
T4C0.0400
T5C0.0433
T6C0.1220
T7C0.1260
%
G90
G05
T1
X3.374Y-3.1525
X3.38Y-2.654
X3.3805Y-3.5705
X3.3805Y-3.8955
X3.566Y-4.0485
X3.605Y-2.872
X3.6075Y-3.7925
X3.6085Y-3.658
X3.6115Y-2.4285
X3.624Y-2.562
X3.624Y-2.9605
X3.625Y-3.177
X3.6275Y-3.036
X3.6395Y-2.229
X3.6465Y-2.794
X3.6495Y-2.315
X3.656Y-4.229
X3.6585Y-3.492
X3.6725Y-4.138
X3.677Y-4.0335
X3.683Y-3.7505
X3.6855Y-3.6325
X3.697Y-2.971
X3.717Y-3.95
X3.7265Y-3.172
X3.7275Y-3.4215
X3.7375Y-3.0385
X3.743Y-3.7465
X3.749Y-2.4735
X3.753Y-3.6845
X3.754Y-2.276
X3.757Y-4.1005
X3.787Y-2.7475
X3.793Y-2.3645
X3.8125Y-3.057
X3.8195Y-3.747
X3.824Y-3.1795
X3.8265Y-2.973
X3.8505Y-3.9575
X3.887Y-4.1205
X3.9335Y-3.1795
X3.949Y-4.247
X3.9578Y-3.122
X3.9725Y-3.8445
X4.0215Y-2.898
X4.0695Y-4.2585
X4.0892Y-3.6603
X4.103Y-2.2395
X4.1165Y-3.8565
X4.1255Y-2.343
X4.1275Y-3.33
X4.1425Y-2.896
X4.1458Y-3.6593
X4.1675Y-3.6085
X4.1695Y-2.9895
X4.182Y-4.2785
X4.183Y-2.613
X4.191Y-2.2965
X4.1915Y-3.2845
X4.201Y-2.503
X4.2295Y-4.0485
X4.234Y-3.2345
X4.234Y-4.247
X4.2405Y-3.452
X4.2415Y-2.629
X4.2575Y-3.199
X4.2835Y-3.0465
X4.287Y-3.821
X4.288Y-3.2235
X4.292Y-3.3395
X4.301Y-2.481
X4.305Y-3.4455
X4.3195Y-3.273
X4.34Y-2.624
X4.341Y-3.009
X4.343Y-3.5905
X4.3595Y-3.38
X4.36Y-3.3195
X4.374Y-2.5085
X4.386Y-2.3365
X4.4055Y-2.2435
X4.4065Y-3.067
X4.4096Y-3.1039
X4.425Y-3.1375
X4.435Y-2.7335
X4.442Y-3.96
X4.487Y-4.0105
X4.498Y-3.1715
X4.515Y-3.666
X4.561Y-3.1605
X4.562Y-4.184
X4.569Y-2.88
X4.5845Y-3.225
X4.613Y-3.01
X4.619Y-4.2635
X4.6255Y-2.893
X4.626Y-2.748
X4.627Y-2.8315
X4.6645Y-3.024
X4.6685Y-3.504
X4.6855Y-3.4035
X4.6875Y-3.0645
X4.69Y-2.885
X4.7135Y-2.9755
X4.725Y-2.7245
X4.731Y-4.2835
X4.759Y-2.213
X4.7785Y-3.3895
X4.7845Y-3.58
X4.789Y-2.5525
X4.7905Y-3.1625
X4.798Y-2.3465
X4.799Y-4.184
X4.8Y-2.8505
X4.8055Y-3.235
X4.843Y-3.7485
X4.8615Y-3.5795
X4.8755Y-3.387
X4.8822Y-3.0492
X4.9045Y-2.747
X4.9045Y-2.8025
X4.916Y-4.1015
X4.922Y-2.272
X4.928Y-3.777
X4.935Y-4.285
X4.9385Y-2.529
X4.953Y-2.37
X5.0Y-4.032
X5.0495Y-2.428
X5.136Y-2.4385
X5.1975Y-3.103
X5.199Y-3.6055
X5.2025Y-2.6945
X5.209Y-4.007
T2
X3.992Y-4.13
X4.0707Y-4.13
X4.1495Y-4.13
X4.2282Y-4.13
T4
X3.738Y-3.515
X3.8087Y-3.4443
X3.8087Y-3.5857
X3.8794Y-3.515
X3.8794Y-3.6564
X3.9501Y-3.5857
X5.096Y-2.5275
X5.096Y-2.6275
X5.096Y-2.7275
X5.096Y-2.8275
X5.096Y-2.9275
X5.096Y-3.0275
X5.096Y-3.1275
X5.096Y-3.2275
X5.096Y-3.3275
X5.096Y-3.4275
X5.096Y-3.5275
X5.096Y-3.6275
X5.096Y-3.7275
X5.096Y-3.8275
X5.096Y-3.9275
X3.481Y-2.5275
X3.481Y-2.6275
X3.481Y-2.7275
X3.481Y-2.8275
X3.481Y-2.9275
X3.481Y-3.0275
X3.481Y-3.1275
X3.481Y-3.2275
X3.481Y-3.3275
X3.481Y-3.4275
X3.481Y-3.5275
X3.481Y-3.6275
X3.481Y-3.7275
X3.481Y-3.8275
X3.481Y-3.9275
T5
X4.477Y-2.495
X4.477Y-2.6131
X4.5951Y-2.495
X4.5951Y-2.6131
X4.7132Y-2.495
X4.7132Y-2.6131
X3.8545Y-2.495
X3.8545Y-2.6131
X3.9726Y-2.495
X3.9726Y-2.6131
X4.0907Y-2.495
X4.0907Y-2.6131
T6
X4.5951Y-2.3249
X3.9726Y-2.3249
T7
X5.0984Y-2.3228
X3.4843Y-2.3228
X3.4843Y-4.1732
X5.0984Y-4.1732
T3
G00X4.6386Y-3.8195
M15
G01X4.7174Y-3.8195
M16
G05
G00X4.6386Y-4.0557
M15
G01X4.7174Y-4.0557
M16
G05
G00X4.863Y-3.977
M15
G01X4.863Y-3.8982
M16
G05
T0
M30
