  0
SECTION
  2
HEADER
  9
$ANGBASE
  50
0.0
  9
$ANGDIR
  70
1
  9
$MEASUREMENT
  70
1
  0
ENDSEC
  0
SECTION
  2
TABLES
  0
TABLE
  2
LTYPE
  70
4
  0
LTYPE
  5
40F
  2
CONTINUOUS
  70
0
  3
Solid line
  72
65
  73
0
  40
0.0
  0
LTYPE
  5
410
  2
DASHDOT
 70
0
  3
Dash Dot ____ _ ____ _
 72
65
 73
4
 40
2.0
 49
1.25
 49
-0.25
 49
0.25
 49
-0.25
  0
LTYPE
  5
411
  2
DASHED
 70
0
  3
Dashed __ __ __ __ __
 72
65
 73
2
 40
0.75
 49
0.5
 49
-0.25
  0
LTYPE
  5
43B
  2
DOTTED
 70
0
  3
Dotted .  .  .  .
 72
65
 73
2
 40
0.2
 49
0.0
 49
-0.2
  0
ENDTAB
  0
TABLE
  2
STYLE
  70
4
  0
STYLE
  2
KICAD
  70
0
  40
0
  41
1
  42
1
  50
0
  71
0
  3
isocp.shx
  0
STYLE
  2
KICADB
  70
0
  40
0
  41
1
  42
1
  50
0
  71
0
  3
isocp.shx
  0
STYLE
  2
KICADI
  70
0
  40
0
  41
1
  42
1
  50
15
  71
0
  3
isocp.shx
  0
STYLE
  2
KICADBI
  70
0
  40
0
  41
1
  42
1
  50
15
  71
0
  3
isocp.shx
  0
ENDTAB
  0
TABLE
  2
LAYER
  70
1
  0
LAYER
  2
BLACK
  70
0
  62
7
  6
CONTINUOUS
  0
ENDTAB
  0
ENDSEC
  0
SECTION
  2
ENTITIES
0
LINE
8
BLACK
6
CONTINUOUS
10
132.298
20
-54.9655
11
132.304
21
-54.9666
0
LINE
8
BLACK
6
CONTINUOUS
10
132.304
20
-54.9666
11
132.31
21
-54.9678
0
LINE
8
BLACK
6
CONTINUOUS
10
132.31
20
-54.9678
11
132.59
21
-55.0524
0
LINE
8
BLACK
6
CONTINUOUS
10
132.59
20
-55.0524
11
132.591
21
-55.0527
0
LINE
8
BLACK
6
CONTINUOUS
10
132.591
20
-55.0527
11
132.596
21
-55.0549
0
LINE
8
BLACK
6
CONTINUOUS
10
132.596
20
-55.0549
11
132.601
21
-55.0571
0
LINE
8
BLACK
6
CONTINUOUS
10
132.601
20
-55.0571
11
132.86
21
-55.1946
0
LINE
8
BLACK
6
CONTINUOUS
10
132.86
20
-55.1946
11
132.861
21
-55.195
0
LINE
8
BLACK
6
CONTINUOUS
10
132.861
20
-55.195
11
132.865
21
-55.1982
0
LINE
8
BLACK
6
CONTINUOUS
10
132.865
20
-55.1982
11
132.87
21
-55.2014
0
LINE
8
BLACK
6
CONTINUOUS
10
132.87
20
-55.2014
11
133.097
21
-55.3864
0
LINE
8
BLACK
6
CONTINUOUS
10
133.097
20
-55.3864
11
133.098
21
-55.387
0
LINE
8
BLACK
6
CONTINUOUS
10
133.098
20
-55.387
11
133.102
21
-55.3911
0
LINE
8
BLACK
6
CONTINUOUS
10
133.102
20
-55.3911
11
133.106
21
-55.3952
0
LINE
8
BLACK
6
CONTINUOUS
10
133.106
20
-55.3952
11
133.292
21
-55.6207
0
LINE
8
BLACK
6
CONTINUOUS
10
133.292
20
-55.6207
11
133.292
21
-55.6207
0
LINE
8
BLACK
6
CONTINUOUS
10
133.292
20
-55.6207
11
133.292
21
-55.6207
0
LINE
8
BLACK
6
CONTINUOUS
10
133.292
20
-55.6207
11
133.293
21
-55.6214
0
LINE
8
BLACK
6
CONTINUOUS
10
133.293
20
-55.6214
11
133.296
21
-55.6262
0
LINE
8
BLACK
6
CONTINUOUS
10
133.296
20
-55.6262
11
133.299
21
-55.631
0
LINE
8
BLACK
6
CONTINUOUS
10
133.299
20
-55.631
11
133.439
21
-55.8885
0
LINE
8
BLACK
6
CONTINUOUS
10
133.439
20
-55.8885
11
133.439
21
-55.8893
0
LINE
8
BLACK
6
CONTINUOUS
10
133.439
20
-55.8893
11
133.441
21
-55.8946
0
LINE
8
BLACK
6
CONTINUOUS
10
133.441
20
-55.8946
11
133.443
21
-55.8999
0
LINE
8
BLACK
6
CONTINUOUS
10
133.443
20
-55.8999
11
133.53
21
-56.1796
0
LINE
8
BLACK
6
CONTINUOUS
10
133.53
20
-56.1796
11
133.53
21
-56.1796
0
LINE
8
BLACK
6
CONTINUOUS
10
133.53
20
-56.1796
11
133.53
21
-56.1796
0
LINE
8
BLACK
6
CONTINUOUS
10
133.53
20
-56.1796
11
133.53
21
-56.1805
0
LINE
8
BLACK
6
CONTINUOUS
10
133.53
20
-56.1805
11
133.531
21
-56.1861
0
LINE
8
BLACK
6
CONTINUOUS
10
133.531
20
-56.1861
11
133.533
21
-56.1917
0
LINE
8
BLACK
6
CONTINUOUS
10
133.533
20
-56.1917
11
133.563
21
-56.4829
0
LINE
8
BLACK
6
CONTINUOUS
10
133.563
20
-56.4829
11
133.563
21
-56.4838
0
LINE
8
BLACK
6
CONTINUOUS
10
133.563
20
-56.4838
11
133.563
21
-56.4865
0
LINE
8
BLACK
6
CONTINUOUS
10
133.563
20
-56.4865
11
133.563
21
-56.4893
0
LINE
8
BLACK
6
CONTINUOUS
10
133.563
20
-56.4893
11
133.564
21
-56.4998
0
LINE
8
BLACK
6
CONTINUOUS
10
133.564
20
-56.4998
11
133.563
21
-56.5007
0
LINE
8
BLACK
6
CONTINUOUS
10
133.563
20
-56.5007
11
133.562
21
-56.513
0
LINE
8
BLACK
6
CONTINUOUS
10
133.562
20
-56.513
11
133.558
21
-56.5248
0
LINE
8
BLACK
6
CONTINUOUS
10
133.558
20
-56.5248
11
133.553
21
-56.5357
0
LINE
8
BLACK
6
CONTINUOUS
10
133.553
20
-56.5357
11
133.55
21
-56.5387
0
LINE
8
BLACK
6
CONTINUOUS
10
133.55
20
-56.5387
11
133.55
21
-107.961
0
LINE
8
BLACK
6
CONTINUOUS
10
133.55
20
-107.961
11
133.556
21
-107.97
0
LINE
8
BLACK
6
CONTINUOUS
10
133.556
20
-107.97
11
133.561
21
-107.982
0
LINE
8
BLACK
6
CONTINUOUS
10
133.561
20
-107.982
11
133.563
21
-107.994
0
LINE
8
BLACK
6
CONTINUOUS
10
133.563
20
-107.994
11
133.563
21
-108.006
0
LINE
8
BLACK
6
CONTINUOUS
10
133.563
20
-108.006
11
133.525
21
-108.395
0
LINE
8
BLACK
6
CONTINUOUS
10
133.525
20
-108.395
11
133.525
21
-108.396
0
LINE
8
BLACK
6
CONTINUOUS
10
133.525
20
-108.396
11
133.524
21
-108.401
0
LINE
8
BLACK
6
CONTINUOUS
10
133.524
20
-108.401
11
133.523
21
-108.407
0
LINE
8
BLACK
6
CONTINUOUS
10
133.523
20
-108.407
11
133.41
21
-108.78
0
LINE
8
BLACK
6
CONTINUOUS
10
133.41
20
-108.78
11
133.41
21
-108.781
0
LINE
8
BLACK
6
CONTINUOUS
10
133.41
20
-108.781
11
133.407
21
-108.787
0
LINE
8
BLACK
6
CONTINUOUS
10
133.407
20
-108.787
11
133.405
21
-108.792
0
LINE
8
BLACK
6
CONTINUOUS
10
133.405
20
-108.792
11
133.222
21
-109.137
0
LINE
8
BLACK
6
CONTINUOUS
10
133.222
20
-109.137
11
133.221
21
-109.137
0
LINE
8
BLACK
6
CONTINUOUS
10
133.221
20
-109.137
11
133.218
21
-109.142
0
LINE
8
BLACK
6
CONTINUOUS
10
133.218
20
-109.142
11
133.215
21
-109.147
0
LINE
8
BLACK
6
CONTINUOUS
10
133.215
20
-109.147
11
132.968
21
-109.449
0
LINE
8
BLACK
6
CONTINUOUS
10
132.968
20
-109.449
11
132.968
21
-109.45
0
LINE
8
BLACK
6
CONTINUOUS
10
132.968
20
-109.45
11
132.964
21
-109.454
0
LINE
8
BLACK
6
CONTINUOUS
10
132.964
20
-109.454
11
132.96
21
-109.458
0
LINE
8
BLACK
6
CONTINUOUS
10
132.96
20
-109.458
11
132.659
21
-109.707
0
LINE
8
BLACK
6
CONTINUOUS
10
132.659
20
-109.707
11
132.658
21
-109.708
0
LINE
8
BLACK
6
CONTINUOUS
10
132.658
20
-109.708
11
132.653
21
-109.711
0
LINE
8
BLACK
6
CONTINUOUS
10
132.653
20
-109.711
11
132.649
21
-109.714
0
LINE
8
BLACK
6
CONTINUOUS
10
132.649
20
-109.714
11
132.305
21
-109.9
0
LINE
8
BLACK
6
CONTINUOUS
10
132.305
20
-109.9
11
132.304
21
-109.9
0
LINE
8
BLACK
6
CONTINUOUS
10
132.304
20
-109.9
11
132.299
21
-109.902
0
LINE
8
BLACK
6
CONTINUOUS
10
132.299
20
-109.902
11
132.294
21
-109.904
0
LINE
8
BLACK
6
CONTINUOUS
10
132.294
20
-109.904
11
131.921
21
-110.02
0
LINE
8
BLACK
6
CONTINUOUS
10
131.921
20
-110.02
11
131.921
21
-110.02
0
LINE
8
BLACK
6
CONTINUOUS
10
131.921
20
-110.02
11
131.921
21
-110.02
0
LINE
8
BLACK
6
CONTINUOUS
10
131.921
20
-110.02
11
131.92
21
-110.02
0
LINE
8
BLACK
6
CONTINUOUS
10
131.92
20
-110.02
11
131.914
21
-110.021
0
LINE
8
BLACK
6
CONTINUOUS
10
131.914
20
-110.021
11
131.909
21
-110.022
0
LINE
8
BLACK
6
CONTINUOUS
10
131.909
20
-110.022
11
131.521
21
-110.063
0
LINE
8
BLACK
6
CONTINUOUS
10
131.521
20
-110.063
11
131.52
21
-110.063
0
LINE
8
BLACK
6
CONTINUOUS
10
131.52
20
-110.063
11
131.517
21
-110.063
0
LINE
8
BLACK
6
CONTINUOUS
10
131.517
20
-110.063
11
131.514
21
-110.063
0
LINE
8
BLACK
6
CONTINUOUS
10
131.514
20
-110.063
11
131.5
21
-110.063
0
LINE
8
BLACK
6
CONTINUOUS
10
131.5
20
-110.063
11
131.499
21
-110.063
0
LINE
8
BLACK
6
CONTINUOUS
10
131.499
20
-110.063
11
131.487
21
-110.062
0
LINE
8
BLACK
6
CONTINUOUS
10
131.487
20
-110.062
11
131.475
21
-110.058
0
LINE
8
BLACK
6
CONTINUOUS
10
131.475
20
-110.058
11
131.464
21
-110.053
0
LINE
8
BLACK
6
CONTINUOUS
10
131.464
20
-110.053
11
131.461
21
-110.05
0
LINE
8
BLACK
6
CONTINUOUS
10
131.461
20
-110.05
11
86.039
21
-110.057
0
LINE
8
BLACK
6
CONTINUOUS
10
86.039
20
-110.057
11
86.0298
21
-110.063
0
LINE
8
BLACK
6
CONTINUOUS
10
86.0298
20
-110.063
11
86.0184
21
-110.068
0
LINE
8
BLACK
6
CONTINUOUS
10
86.0184
20
-110.068
11
86.0062
21
-110.07
0
LINE
8
BLACK
6
CONTINUOUS
10
86.0062
20
-110.07
11
85.9938
21
-110.07
0
LINE
8
BLACK
6
CONTINUOUS
10
85.9938
20
-110.07
11
85.7011
21
-110.041
0
LINE
8
BLACK
6
CONTINUOUS
10
85.7011
20
-110.041
11
85.7002
21
-110.041
0
LINE
8
BLACK
6
CONTINUOUS
10
85.7002
20
-110.041
11
85.6946
21
-110.04
0
LINE
8
BLACK
6
CONTINUOUS
10
85.6946
20
-110.04
11
85.689
21
-110.039
0
LINE
8
BLACK
6
CONTINUOUS
10
85.689
20
-110.039
11
85.4074
21
-109.954
0
LINE
8
BLACK
6
CONTINUOUS
10
85.4074
20
-109.954
11
85.4066
21
-109.954
0
LINE
8
BLACK
6
CONTINUOUS
10
85.4066
20
-109.954
11
85.4013
21
-109.951
0
LINE
8
BLACK
6
CONTINUOUS
10
85.4013
20
-109.951
11
85.396
21
-109.949
0
LINE
8
BLACK
6
CONTINUOUS
10
85.396
20
-109.949
11
85.1363
21
-109.811
0
LINE
8
BLACK
6
CONTINUOUS
10
85.1363
20
-109.811
11
85.1363
21
-109.811
0
LINE
8
BLACK
6
CONTINUOUS
10
85.1363
20
-109.811
11
85.1363
21
-109.811
0
LINE
8
BLACK
6
CONTINUOUS
10
85.1363
20
-109.811
11
85.1355
21
-109.811
0
LINE
8
BLACK
6
CONTINUOUS
10
85.1355
20
-109.811
11
85.1307
21
-109.808
0
LINE
8
BLACK
6
CONTINUOUS
10
85.1307
20
-109.808
11
85.126
21
-109.804
0
LINE
8
BLACK
6
CONTINUOUS
10
85.126
20
-109.804
11
84.8981
21
-109.618
0
LINE
8
BLACK
6
CONTINUOUS
10
84.8981
20
-109.618
11
84.8974
21
-109.618
0
LINE
8
BLACK
6
CONTINUOUS
10
84.8974
20
-109.618
11
84.8933
21
-109.614
0
LINE
8
BLACK
6
CONTINUOUS
10
84.8933
20
-109.614
11
84.8893
21
-109.61
0
LINE
8
BLACK
6
CONTINUOUS
10
84.8893
20
-109.61
11
84.7018
21
-109.383
0
LINE
8
BLACK
6
CONTINUOUS
10
84.7018
20
-109.383
11
84.7018
21
-109.383
0
LINE
8
BLACK
6
CONTINUOUS
10
84.7018
20
-109.383
11
84.7018
21
-109.383
0
LINE
8
BLACK
6
CONTINUOUS
10
84.7018
20
-109.383
11
84.7012
21
-109.382
0
LINE
8
BLACK
6
CONTINUOUS
10
84.7012
20
-109.382
11
84.6981
21
-109.378
0
LINE
8
BLACK
6
CONTINUOUS
10
84.6981
20
-109.378
11
84.6949
21
-109.373
0
LINE
8
BLACK
6
CONTINUOUS
10
84.6949
20
-109.373
11
84.555
21
-109.114
0
LINE
8
BLACK
6
CONTINUOUS
10
84.555
20
-109.114
11
84.5546
21
-109.113
0
LINE
8
BLACK
6
CONTINUOUS
10
84.5546
20
-109.113
11
84.5524
21
-109.108
0
LINE
8
BLACK
6
CONTINUOUS
10
84.5524
20
-109.108
11
84.5502
21
-109.103
0
LINE
8
BLACK
6
CONTINUOUS
10
84.5502
20
-109.103
11
84.4632
21
-108.822
0
LINE
8
BLACK
6
CONTINUOUS
10
84.4632
20
-108.822
11
84.4632
21
-108.822
0
LINE
8
BLACK
6
CONTINUOUS
10
84.4632
20
-108.822
11
84.4632
21
-108.822
0
LINE
8
BLACK
6
CONTINUOUS
10
84.4632
20
-108.822
11
84.463
21
-108.821
0
LINE
8
BLACK
6
CONTINUOUS
10
84.463
20
-108.821
11
84.4619
21
-108.815
0
LINE
8
BLACK
6
CONTINUOUS
10
84.4619
20
-108.815
11
84.4607
21
-108.81
0
LINE
8
BLACK
6
CONTINUOUS
10
84.4607
20
-108.81
11
84.43
21
-108.517
0
LINE
8
BLACK
6
CONTINUOUS
10
84.43
20
-108.517
11
84.4299
21
-108.516
0
LINE
8
BLACK
6
CONTINUOUS
10
84.4299
20
-108.516
11
84.4299
21
-108.514
0
LINE
8
BLACK
6
CONTINUOUS
10
84.4299
20
-108.514
11
84.4296
21
-108.511
0
LINE
8
BLACK
6
CONTINUOUS
10
84.4296
20
-108.511
11
84.4296
21
-108.5
0
LINE
8
BLACK
6
CONTINUOUS
10
84.4296
20
-108.5
11
84.4296
21
-108.499
0
LINE
8
BLACK
6
CONTINUOUS
10
84.4296
20
-108.499
11
84.4309
21
-108.487
0
LINE
8
BLACK
6
CONTINUOUS
10
84.4309
20
-108.487
11
84.4346
21
-108.475
0
LINE
8
BLACK
6
CONTINUOUS
10
84.4346
20
-108.475
11
84.4406
21
-108.464
0
LINE
8
BLACK
6
CONTINUOUS
10
84.4406
20
-108.464
11
84.4431
21
-108.461
0
LINE
8
BLACK
6
CONTINUOUS
10
84.4431
20
-108.461
11
84.45
21
-56.5389
0
LINE
8
BLACK
6
CONTINUOUS
10
84.45
20
-56.5389
11
84.4439
21
-56.5298
0
LINE
8
BLACK
6
CONTINUOUS
10
84.4439
20
-56.5298
11
84.4392
21
-56.5184
0
LINE
8
BLACK
6
CONTINUOUS
10
84.4392
20
-56.5184
11
84.4368
21
-56.5062
0
LINE
8
BLACK
6
CONTINUOUS
10
84.4368
20
-56.5062
11
84.4368
21
-56.4938
0
LINE
8
BLACK
6
CONTINUOUS
10
84.4368
20
-56.4938
11
84.4654
21
-56.2025
0
LINE
8
BLACK
6
CONTINUOUS
10
84.4654
20
-56.2025
11
84.4655
21
-56.2016
0
LINE
8
BLACK
6
CONTINUOUS
10
84.4655
20
-56.2016
11
84.4666
21
-56.196
0
LINE
8
BLACK
6
CONTINUOUS
10
84.4666
20
-56.196
11
84.4678
21
-56.1903
0
LINE
8
BLACK
6
CONTINUOUS
10
84.4678
20
-56.1903
11
84.5524
21
-55.91
0
LINE
8
BLACK
6
CONTINUOUS
10
84.5524
20
-55.91
11
84.5527
21
-55.9092
0
LINE
8
BLACK
6
CONTINUOUS
10
84.5527
20
-55.9092
11
84.5549
21
-55.9039
0
LINE
8
BLACK
6
CONTINUOUS
10
84.5549
20
-55.9039
11
84.5571
21
-55.8986
0
LINE
8
BLACK
6
CONTINUOUS
10
84.5571
20
-55.8986
11
84.6946
21
-55.6401
0
LINE
8
BLACK
6
CONTINUOUS
10
84.6946
20
-55.6401
11
84.695
21
-55.6393
0
LINE
8
BLACK
6
CONTINUOUS
10
84.695
20
-55.6393
11
84.6982
21
-55.6346
0
LINE
8
BLACK
6
CONTINUOUS
10
84.6982
20
-55.6346
11
84.7014
21
-55.6298
0
LINE
8
BLACK
6
CONTINUOUS
10
84.7014
20
-55.6298
11
84.8864
21
-55.4029
0
LINE
8
BLACK
6
CONTINUOUS
10
84.8864
20
-55.4029
11
84.887
21
-55.4022
0
LINE
8
BLACK
6
CONTINUOUS
10
84.887
20
-55.4022
11
84.8911
21
-55.3982
0
LINE
8
BLACK
6
CONTINUOUS
10
84.8911
20
-55.3982
11
84.8952
21
-55.3941
0
LINE
8
BLACK
6
CONTINUOUS
10
84.8952
20
-55.3941
11
85.1207
21
-55.2075
0
LINE
8
BLACK
6
CONTINUOUS
10
85.1207
20
-55.2075
11
85.1207
21
-55.2075
0
LINE
8
BLACK
6
CONTINUOUS
10
85.1207
20
-55.2075
11
85.1207
21
-55.2075
0
LINE
8
BLACK
6
CONTINUOUS
10
85.1207
20
-55.2075
11
85.1214
21
-55.207
0
LINE
8
BLACK
6
CONTINUOUS
10
85.1214
20
-55.207
11
85.1262
21
-55.2038
0
LINE
8
BLACK
6
CONTINUOUS
10
85.1262
20
-55.2038
11
85.131
21
-55.2006
0
LINE
8
BLACK
6
CONTINUOUS
10
85.131
20
-55.2006
11
85.3885
21
-55.0613
0
LINE
8
BLACK
6
CONTINUOUS
10
85.3885
20
-55.0613
11
85.3893
21
-55.0609
0
LINE
8
BLACK
6
CONTINUOUS
10
85.3893
20
-55.0609
11
85.3947
21
-55.0588
0
LINE
8
BLACK
6
CONTINUOUS
10
85.3947
20
-55.0588
11
85.3999
21
-55.0565
0
LINE
8
BLACK
6
CONTINUOUS
10
85.3999
20
-55.0565
11
85.6796
21
-54.97
0
LINE
8
BLACK
6
CONTINUOUS
10
85.6796
20
-54.97
11
85.6796
21
-54.97
0
LINE
8
BLACK
6
CONTINUOUS
10
85.6796
20
-54.97
11
85.6796
21
-54.97
0
LINE
8
BLACK
6
CONTINUOUS
10
85.6796
20
-54.97
11
85.6805
21
-54.9697
0
LINE
8
BLACK
6
CONTINUOUS
10
85.6805
20
-54.9697
11
85.6861
21
-54.9686
0
LINE
8
BLACK
6
CONTINUOUS
10
85.6861
20
-54.9686
11
85.6917
21
-54.9675
0
LINE
8
BLACK
6
CONTINUOUS
10
85.6917
20
-54.9675
11
85.9829
21
-54.9369
0
LINE
8
BLACK
6
CONTINUOUS
10
85.9829
20
-54.9369
11
85.9838
21
-54.9368
0
LINE
8
BLACK
6
CONTINUOUS
10
85.9838
20
-54.9368
11
85.9865
21
-54.9368
0
LINE
8
BLACK
6
CONTINUOUS
10
85.9865
20
-54.9368
11
85.9893
21
-54.9365
0
LINE
8
BLACK
6
CONTINUOUS
10
85.9893
20
-54.9365
11
85.9998
21
-54.9365
0
LINE
8
BLACK
6
CONTINUOUS
10
85.9998
20
-54.9365
11
86.0007
21
-54.9365
0
LINE
8
BLACK
6
CONTINUOUS
10
86.0007
20
-54.9365
11
86.013
21
-54.9378
0
LINE
8
BLACK
6
CONTINUOUS
10
86.013
20
-54.9378
11
86.0248
21
-54.9415
0
LINE
8
BLACK
6
CONTINUOUS
10
86.0248
20
-54.9415
11
86.0357
21
-54.9475
0
LINE
8
BLACK
6
CONTINUOUS
10
86.0357
20
-54.9475
11
86.0387
21
-54.95
0
LINE
8
BLACK
6
CONTINUOUS
10
86.0387
20
-54.95
11
131.961
21
-54.95
0
LINE
8
BLACK
6
CONTINUOUS
10
131.961
20
-54.95
11
131.97
21
-54.9439
0
LINE
8
BLACK
6
CONTINUOUS
10
131.97
20
-54.9439
11
131.982
21
-54.9392
0
LINE
8
BLACK
6
CONTINUOUS
10
131.982
20
-54.9392
11
131.994
21
-54.9368
0
LINE
8
BLACK
6
CONTINUOUS
10
131.994
20
-54.9368
11
132.006
21
-54.9368
0
LINE
8
BLACK
6
CONTINUOUS
10
132.006
20
-54.9368
11
132.298
21
-54.9654
0
LINE
8
BLACK
6
CONTINUOUS
10
132.298
20
-54.9654
11
132.298
21
-54.9654
0
LINE
8
BLACK
6
CONTINUOUS
10
132.298
20
-54.9654
11
132.298
21
-54.9655
0
LINE
8
BLACK
6
CONTINUOUS
10
86.0387
20
-55.05
11
86.0353
21
-55.0528
0
LINE
8
BLACK
6
CONTINUOUS
10
86.0353
20
-55.0528
11
86.0244
21
-55.0586
0
LINE
8
BLACK
6
CONTINUOUS
10
86.0244
20
-55.0586
11
86.0126
21
-55.0622
0
LINE
8
BLACK
6
CONTINUOUS
10
86.0126
20
-55.0622
11
86.0002
21
-55.0635
0
LINE
8
BLACK
6
CONTINUOUS
10
86.0002
20
-55.0635
11
85.993
21
-55.0635
0
LINE
8
BLACK
6
CONTINUOUS
10
85.993
20
-55.0635
11
85.7112
21
-55.0931
0
LINE
8
BLACK
6
CONTINUOUS
10
85.7112
20
-55.0931
11
85.4435
21
-55.176
0
LINE
8
BLACK
6
CONTINUOUS
10
85.4435
20
-55.176
11
85.1969
21
-55.3093
0
LINE
8
BLACK
6
CONTINUOUS
10
85.1969
20
-55.3093
11
84.9809
21
-55.488
0
LINE
8
BLACK
6
CONTINUOUS
10
84.9809
20
-55.488
11
84.8038
21
-55.7052
0
LINE
8
BLACK
6
CONTINUOUS
10
84.8038
20
-55.7052
11
84.6722
21
-55.9527
0
LINE
8
BLACK
6
CONTINUOUS
10
84.6722
20
-55.9527
11
84.5912
21
-56.221
0
LINE
8
BLACK
6
CONTINUOUS
10
84.5912
20
-56.221
11
84.5632
21
-56.5062
0
LINE
8
BLACK
6
CONTINUOUS
10
84.5632
20
-56.5062
11
84.5631
21
-56.5071
0
LINE
8
BLACK
6
CONTINUOUS
10
84.5631
20
-56.5071
11
84.5605
21
-56.5192
0
LINE
8
BLACK
6
CONTINUOUS
10
84.5605
20
-56.5192
11
84.5556
21
-56.5306
0
LINE
8
BLACK
6
CONTINUOUS
10
84.5556
20
-56.5306
11
84.55
21
-56.5388
0
LINE
8
BLACK
6
CONTINUOUS
10
84.55
20
-56.5388
11
84.5431
21
-108.461
0
LINE
8
BLACK
6
CONTINUOUS
10
84.5431
20
-108.461
11
84.5459
21
-108.465
0
LINE
8
BLACK
6
CONTINUOUS
10
84.5459
20
-108.465
11
84.5517
21
-108.476
0
LINE
8
BLACK
6
CONTINUOUS
10
84.5517
20
-108.476
11
84.5553
21
-108.487
0
LINE
8
BLACK
6
CONTINUOUS
10
84.5553
20
-108.487
11
84.5566
21
-108.5
0
LINE
8
BLACK
6
CONTINUOUS
10
84.5566
20
-108.5
11
84.5566
21
-108.507
0
LINE
8
BLACK
6
CONTINUOUS
10
84.5566
20
-108.507
11
84.5864
21
-108.79
0
LINE
8
BLACK
6
CONTINUOUS
10
84.5864
20
-108.79
11
84.6697
21
-109.059
0
LINE
8
BLACK
6
CONTINUOUS
10
84.6697
20
-109.059
11
84.8036
21
-109.307
0
LINE
8
BLACK
6
CONTINUOUS
10
84.8036
20
-109.307
11
84.9831
21
-109.524
0
LINE
8
BLACK
6
CONTINUOUS
10
84.9831
20
-109.524
11
85.2014
21
-109.702
0
LINE
8
BLACK
6
CONTINUOUS
10
85.2014
20
-109.702
11
85.4501
21
-109.834
0
LINE
8
BLACK
6
CONTINUOUS
10
85.4501
20
-109.834
11
85.7197
21
-109.916
0
LINE
8
BLACK
6
CONTINUOUS
10
85.7197
20
-109.916
11
86.0062
21
-109.944
0
LINE
8
BLACK
6
CONTINUOUS
10
86.0062
20
-109.944
11
86.0071
21
-109.944
0
LINE
8
BLACK
6
CONTINUOUS
10
86.0071
20
-109.944
11
86.0192
21
-109.946
0
LINE
8
BLACK
6
CONTINUOUS
10
86.0192
20
-109.946
11
86.0306
21
-109.951
0
LINE
8
BLACK
6
CONTINUOUS
10
86.0306
20
-109.951
11
86.0388
21
-109.957
0
LINE
8
BLACK
6
CONTINUOUS
10
86.0388
20
-109.957
11
131.461
21
-109.95
0
LINE
8
BLACK
6
CONTINUOUS
10
131.461
20
-109.95
11
131.465
21
-109.947
0
LINE
8
BLACK
6
CONTINUOUS
10
131.465
20
-109.947
11
131.476
21
-109.941
0
LINE
8
BLACK
6
CONTINUOUS
10
131.476
20
-109.941
11
131.487
21
-109.938
0
LINE
8
BLACK
6
CONTINUOUS
10
131.487
20
-109.938
11
131.5
21
-109.936
0
LINE
8
BLACK
6
CONTINUOUS
10
131.5
20
-109.936
11
131.511
21
-109.936
0
LINE
8
BLACK
6
CONTINUOUS
10
131.511
20
-109.936
11
131.889
21
-109.897
0
LINE
8
BLACK
6
CONTINUOUS
10
131.889
20
-109.897
11
132.25
21
-109.785
0
LINE
8
BLACK
6
CONTINUOUS
10
132.25
20
-109.785
11
132.583
21
-109.605
0
LINE
8
BLACK
6
CONTINUOUS
10
132.583
20
-109.605
11
132.874
21
-109.364
0
LINE
8
BLACK
6
CONTINUOUS
10
132.874
20
-109.364
11
133.113
21
-109.071
0
LINE
8
BLACK
6
CONTINUOUS
10
133.113
20
-109.071
11
133.29
21
-108.738
0
LINE
8
BLACK
6
CONTINUOUS
10
133.29
20
-108.738
11
133.399
21
-108.376
0
LINE
8
BLACK
6
CONTINUOUS
10
133.399
20
-108.376
11
133.437
21
-107.994
0
LINE
8
BLACK
6
CONTINUOUS
10
133.437
20
-107.994
11
133.437
21
-107.993
0
LINE
8
BLACK
6
CONTINUOUS
10
133.437
20
-107.993
11
133.439
21
-107.981
0
LINE
8
BLACK
6
CONTINUOUS
10
133.439
20
-107.981
11
133.444
21
-107.969
0
LINE
8
BLACK
6
CONTINUOUS
10
133.444
20
-107.969
11
133.45
21
-107.961
0
LINE
8
BLACK
6
CONTINUOUS
10
133.45
20
-107.961
11
133.45
21
-56.5387
0
LINE
8
BLACK
6
CONTINUOUS
10
133.45
20
-56.5387
11
133.447
21
-56.5353
0
LINE
8
BLACK
6
CONTINUOUS
10
133.447
20
-56.5353
11
133.441
21
-56.5244
0
LINE
8
BLACK
6
CONTINUOUS
10
133.441
20
-56.5244
11
133.438
21
-56.5126
0
LINE
8
BLACK
6
CONTINUOUS
10
133.438
20
-56.5126
11
133.436
21
-56.5002
0
LINE
8
BLACK
6
CONTINUOUS
10
133.436
20
-56.5002
11
133.436
21
-56.493
0
LINE
8
BLACK
6
CONTINUOUS
10
133.436
20
-56.493
11
133.407
21
-56.2112
0
LINE
8
BLACK
6
CONTINUOUS
10
133.407
20
-56.2112
11
133.324
21
-55.9435
0
LINE
8
BLACK
6
CONTINUOUS
10
133.324
20
-55.9435
11
133.191
21
-55.6969
0
LINE
8
BLACK
6
CONTINUOUS
10
133.191
20
-55.6969
11
133.012
21
-55.4809
0
LINE
8
BLACK
6
CONTINUOUS
10
133.012
20
-55.4809
11
132.795
21
-55.3038
0
LINE
8
BLACK
6
CONTINUOUS
10
132.795
20
-55.3038
11
132.547
21
-55.1722
0
LINE
8
BLACK
6
CONTINUOUS
10
132.547
20
-55.1722
11
132.279
21
-55.0912
0
LINE
8
BLACK
6
CONTINUOUS
10
132.279
20
-55.0912
11
131.994
21
-55.0632
0
LINE
8
BLACK
6
CONTINUOUS
10
131.994
20
-55.0632
11
131.993
21
-55.0631
0
LINE
8
BLACK
6
CONTINUOUS
10
131.993
20
-55.0631
11
131.981
21
-55.0605
0
LINE
8
BLACK
6
CONTINUOUS
10
131.981
20
-55.0605
11
131.969
21
-55.0556
0
LINE
8
BLACK
6
CONTINUOUS
10
131.969
20
-55.0556
11
131.961
21
-55.05
0
LINE
8
BLACK
6
CONTINUOUS
10
131.961
20
-55.05
11
86.0387
21
-55.05
  0
ENDSEC
  0
EOF
