%TF.GenerationSoftware,KiCad,Pcbnew,5.1.5+dfsg1-2build2*%
%TF.CreationDate,2021-01-07T13:42:11+01:00*%
%TF.ProjectId,BasicAtmega328,42617369-6341-4746-9d65-67613332382e,rev?*%
%TF.SameCoordinates,Original*%
%TF.FileFunction,Legend,Top*%
%TF.FilePolarity,Positive*%
%FSLAX46Y46*%
G04 Gerber Fmt 4.6, Leading zero omitted, Abs format (unit mm)*
G04 Created by KiCad (PCBNEW 5.1.5+dfsg1-2build2) date 2021-01-07 13:42:11*
%MOMM*%
%LPD*%
G04 APERTURE LIST*
%ADD10C,0.127000*%
%ADD11C,0.100000*%
%ADD12C,0.120000*%
%ADD13C,0.203200*%
%ADD14C,0.150000*%
G04 APERTURE END LIST*
D10*
X86000000Y-110006900D02*
G75*
G02X84493100Y-108500000I0J1506900D01*
G01*
X133500000Y-108000000D02*
G75*
G02X131500000Y-110000000I-2000000J0D01*
G01*
X84500000Y-56500000D02*
G75*
G02X86000000Y-55000000I1500000J0D01*
G01*
X132000000Y-55000000D02*
G75*
G02X133500000Y-56500000I0J-1500000D01*
G01*
D11*
X133500000Y-56500000D02*
X133500000Y-108000000D01*
X86000000Y-55000000D02*
X132000000Y-55000000D01*
X84493100Y-108500000D02*
X84500000Y-56500000D01*
X131500000Y-110000000D02*
X86000000Y-110006900D01*
D12*
X101896800Y-111252000D02*
X101896800Y-106902000D01*
X101896800Y-106902000D02*
X106896800Y-106902000D01*
X106896800Y-106902000D02*
X106896800Y-111252000D01*
X100596800Y-105052000D02*
X100246800Y-105052000D01*
X100246800Y-105052000D02*
X100246800Y-103452000D01*
X100246800Y-103452000D02*
X99346800Y-103452000D01*
X99346800Y-103452000D02*
X99346800Y-111252000D01*
X99346800Y-111252000D02*
X109446800Y-111252000D01*
X109446800Y-111252000D02*
X109446800Y-103452000D01*
X109446800Y-103452000D02*
X108546800Y-103452000D01*
X108546800Y-103452000D02*
X108546800Y-105052000D01*
X108546800Y-105052000D02*
X108196800Y-105052000D01*
X99346800Y-105052000D02*
X100246800Y-105052000D01*
X109446800Y-105052000D02*
X108546800Y-105052000D01*
X100096800Y-107402000D02*
X100096800Y-109002000D01*
X100096800Y-109002000D02*
X101096800Y-109002000D01*
X101096800Y-109002000D02*
X101096800Y-107402000D01*
X101096800Y-107402000D02*
X100096800Y-107402000D01*
X108696800Y-107402000D02*
X108696800Y-109002000D01*
X108696800Y-109002000D02*
X107696800Y-109002000D01*
X107696800Y-109002000D02*
X107696800Y-107402000D01*
X107696800Y-107402000D02*
X108696800Y-107402000D01*
X101096800Y-109002000D02*
X101096800Y-111252000D01*
X100596800Y-109002000D02*
X100596800Y-111252000D01*
X100596800Y-105052000D02*
X100596800Y-103852000D01*
D13*
X102037616Y-79759629D02*
X102953603Y-80675615D01*
X100304427Y-83324791D02*
X99388441Y-82408805D01*
D12*
X107190000Y-100355400D02*
X107190000Y-94515400D01*
X107950000Y-101115400D02*
X107190000Y-100355400D01*
X113790000Y-100355400D02*
X113030000Y-101115400D01*
X113790000Y-94515400D02*
X113790000Y-100355400D01*
X107950000Y-101115400D02*
X109370000Y-101115400D01*
X113030000Y-101115400D02*
X111610000Y-101115400D01*
X113790000Y-94515400D02*
X111610000Y-94515400D01*
X107190000Y-94515400D02*
X109370000Y-94515400D01*
X103803613Y-77747306D02*
X103096506Y-78454413D01*
X104298587Y-79656494D02*
X105005694Y-78949387D01*
X102266913Y-76172506D02*
X101559806Y-76879613D01*
X102761887Y-78081694D02*
X103468994Y-77374587D01*
X113810887Y-90426094D02*
X114517994Y-89718987D01*
X113315913Y-88516906D02*
X112608806Y-89224013D01*
X96482800Y-97074100D02*
X96482800Y-98074100D01*
X98182800Y-98074100D02*
X98182800Y-97074100D01*
X119283100Y-81128500D02*
X118283100Y-81128500D01*
X118283100Y-82828500D02*
X119283100Y-82828500D01*
X118308500Y-80948900D02*
X119308500Y-80948900D01*
X119308500Y-79248900D02*
X118308500Y-79248900D01*
X124850100Y-94664800D02*
X124850100Y-91364800D01*
X124850100Y-91364800D02*
X119450100Y-91364800D01*
X124850100Y-94664800D02*
X119450100Y-94664800D01*
X123421200Y-102015300D02*
X123421200Y-110815300D01*
X123421200Y-110815300D02*
X114221200Y-110815300D01*
X120721200Y-96115300D02*
X123421200Y-96115300D01*
X123421200Y-96115300D02*
X123421200Y-98015300D01*
X114221200Y-110815300D02*
X114221200Y-96115300D01*
X114221200Y-96115300D02*
X116821200Y-96115300D01*
D13*
X93598162Y-88831987D02*
X93598162Y-89730013D01*
X94496187Y-90628038D02*
X95394213Y-90628038D01*
X95394213Y-90628038D02*
X95394213Y-91526064D01*
X96292238Y-92424090D02*
X97190264Y-92424090D01*
X97190264Y-92424090D02*
X97190264Y-93322115D01*
X98088290Y-94220141D02*
X98986315Y-94220141D01*
X93598162Y-88831987D02*
X96292238Y-86137910D01*
X96292238Y-86137910D02*
X97190264Y-86137910D01*
X97190264Y-86137910D02*
X98088290Y-87035936D01*
X98088290Y-87035936D02*
X98088290Y-87933962D01*
X98088290Y-87933962D02*
X98986315Y-87933962D01*
X98986315Y-87933962D02*
X99884341Y-88831987D01*
X99884341Y-88831987D02*
X99884341Y-89730013D01*
X99884341Y-89730013D02*
X100782366Y-89730013D01*
X100782366Y-89730013D02*
X101680392Y-90628038D01*
X101680392Y-90628038D02*
X101680392Y-91526064D01*
X98088290Y-87933962D02*
X95394213Y-90628038D01*
X99884341Y-89730013D02*
X97190264Y-92424090D01*
X101680392Y-91526064D02*
X98986315Y-94220141D01*
X97190264Y-93322115D02*
X98088290Y-94220141D01*
X95394213Y-91526064D02*
X96292238Y-92424090D01*
X93598162Y-89730013D02*
X94496187Y-90628038D01*
X94260904Y-90863321D02*
X93362879Y-89965296D01*
X93362879Y-89965296D02*
X94260904Y-90863321D01*
D14*
X86867400Y-62648500D02*
X89967400Y-62648500D01*
X86867400Y-64198500D02*
X86867400Y-62648500D01*
X89687400Y-65468500D02*
X87147400Y-65468500D01*
X89967400Y-62648500D02*
X89967400Y-64198500D01*
X89687400Y-101028500D02*
X89687400Y-65468500D01*
X87147400Y-101028500D02*
X89687400Y-101028500D01*
X87147400Y-65468500D02*
X87147400Y-101028500D01*
D12*
X123715800Y-54373000D02*
X123715800Y-67723000D01*
X123715800Y-67723000D02*
X109715800Y-67723000D01*
X109715800Y-67723000D02*
X109715800Y-54373000D01*
X109715800Y-54373000D02*
X123715800Y-54373000D01*
X93904300Y-54373000D02*
X107904300Y-54373000D01*
X93904300Y-67723000D02*
X93904300Y-54373000D01*
X107904300Y-67723000D02*
X93904300Y-67723000D01*
X107904300Y-54373000D02*
X107904300Y-67723000D01*
D14*
X128168400Y-65468500D02*
X128168400Y-101028500D01*
X128168400Y-101028500D02*
X130708400Y-101028500D01*
X130708400Y-101028500D02*
X130708400Y-65468500D01*
X130988400Y-62648500D02*
X130988400Y-64198500D01*
X130708400Y-65468500D02*
X128168400Y-65468500D01*
X127888400Y-64198500D02*
X127888400Y-62648500D01*
X127888400Y-62648500D02*
X130988400Y-62648500D01*
D12*
X108689700Y-74857500D02*
X107489700Y-74857500D01*
X107489700Y-73097500D02*
X108689700Y-73097500D01*
X107477000Y-75053300D02*
X108677000Y-75053300D01*
X108677000Y-76813300D02*
X107477000Y-76813300D01*
X95780300Y-104669700D02*
X96980300Y-104669700D01*
X96980300Y-106429700D02*
X95780300Y-106429700D01*
X123173600Y-74539400D02*
X123173600Y-73339400D01*
X124933600Y-73339400D02*
X124933600Y-74539400D01*
X122799400Y-70704600D02*
X121599400Y-70704600D01*
X121599400Y-68944600D02*
X122799400Y-68944600D01*
X110854600Y-75961800D02*
X110854600Y-74761800D01*
X112614600Y-74761800D02*
X112614600Y-75961800D01*
X96740600Y-110545300D02*
X97240600Y-110165300D01*
X97240600Y-110165300D02*
X97240600Y-109845300D01*
X96740600Y-110545300D02*
X95740600Y-110545300D01*
X95740600Y-110545300D02*
X95240600Y-110165300D01*
X95240600Y-110165300D02*
X95240600Y-109845300D01*
X97890600Y-107045300D02*
X94590600Y-107045300D01*
X97890600Y-107345300D02*
X97890600Y-107045300D01*
X94590600Y-107045300D02*
X94590600Y-107345300D01*
X97890600Y-109545300D02*
X97890600Y-109845300D01*
X97890600Y-109845300D02*
X94590600Y-109845300D01*
X94590600Y-109845300D02*
X94590600Y-109545300D01*
X105975200Y-96019700D02*
X104715200Y-96019700D01*
X99155200Y-96019700D02*
X100415200Y-96019700D01*
X105975200Y-99779700D02*
X105975200Y-96019700D01*
X99155200Y-102029700D02*
X99155200Y-96019700D01*
D14*
X108102400Y-79709476D02*
X107943301Y-79868575D01*
X113228924Y-84836000D02*
X112999114Y-85065810D01*
X108102400Y-89962524D02*
X108332210Y-89732714D01*
X102975876Y-84836000D02*
X103205686Y-84606190D01*
X108102400Y-79709476D02*
X108332210Y-79939286D01*
X102975876Y-84836000D02*
X103205686Y-85065810D01*
X108102400Y-89962524D02*
X107872590Y-89732714D01*
X113228924Y-84836000D02*
X112999114Y-84606190D01*
X107943301Y-79868575D02*
X106935674Y-78860948D01*
X120669500Y-78884300D02*
X120669500Y-78229300D01*
X115169500Y-78884300D02*
X115169500Y-78134300D01*
X115169500Y-72474300D02*
X115169500Y-73224300D01*
X120669500Y-72474300D02*
X120669500Y-73224300D01*
X120669500Y-78884300D02*
X115169500Y-78884300D01*
X120669500Y-72474300D02*
X115169500Y-72474300D01*
X120669500Y-78229300D02*
X122419500Y-78229300D01*
X110209104Y-104693980D02*
X110209104Y-103693980D01*
X110590057Y-103693980D01*
X110685295Y-103741600D01*
X110732914Y-103789219D01*
X110780533Y-103884457D01*
X110780533Y-104027314D01*
X110732914Y-104122552D01*
X110685295Y-104170171D01*
X110590057Y-104217790D01*
X110209104Y-104217790D01*
X111637676Y-104027314D02*
X111637676Y-104693980D01*
X111399580Y-103646361D02*
X111161485Y-104360647D01*
X111780533Y-104360647D01*
D10*
X99279651Y-83037422D02*
X99074388Y-83242685D01*
X99361756Y-82667949D02*
X99279651Y-83037422D01*
X99649124Y-82955317D01*
X99587545Y-83755843D02*
X99341230Y-83509527D01*
X99464387Y-83632685D02*
X99895440Y-83201633D01*
X99792808Y-83222159D01*
X99710703Y-83222159D01*
X99649124Y-83201633D01*
D14*
X114768333Y-94997542D02*
X114720714Y-95045161D01*
X114577857Y-95092780D01*
X114482619Y-95092780D01*
X114339761Y-95045161D01*
X114244523Y-94949923D01*
X114196904Y-94854685D01*
X114149285Y-94664209D01*
X114149285Y-94521352D01*
X114196904Y-94330876D01*
X114244523Y-94235638D01*
X114339761Y-94140400D01*
X114482619Y-94092780D01*
X114577857Y-94092780D01*
X114720714Y-94140400D01*
X114768333Y-94188019D01*
X115720714Y-95092780D02*
X115149285Y-95092780D01*
X115435000Y-95092780D02*
X115435000Y-94092780D01*
X115339761Y-94235638D01*
X115244523Y-94330876D01*
X115149285Y-94378495D01*
X113571428Y-102476352D02*
X113571428Y-101714447D01*
X113952380Y-102095400D02*
X113190476Y-102095400D01*
X101594987Y-76468789D02*
X101594987Y-76536132D01*
X101527643Y-76670819D01*
X101460300Y-76738163D01*
X101325612Y-76805506D01*
X101190925Y-76805506D01*
X101089910Y-76771835D01*
X100921551Y-76670819D01*
X100820536Y-76569804D01*
X100719521Y-76401445D01*
X100685849Y-76300430D01*
X100685849Y-76165743D01*
X100753193Y-76031056D01*
X100820536Y-75963712D01*
X100955223Y-75896369D01*
X101022567Y-75896369D01*
X101291941Y-75626995D02*
X101291941Y-75559651D01*
X101325612Y-75458636D01*
X101493971Y-75290277D01*
X101594987Y-75256606D01*
X101662330Y-75256606D01*
X101763345Y-75290277D01*
X101830689Y-75357621D01*
X101898032Y-75492308D01*
X101898032Y-76300430D01*
X102335765Y-75862697D01*
X100667888Y-75490889D02*
X100667888Y-75558232D01*
X100600544Y-75692919D01*
X100533201Y-75760263D01*
X100398513Y-75827606D01*
X100263826Y-75827606D01*
X100162811Y-75793935D01*
X99994452Y-75692919D01*
X99893437Y-75591904D01*
X99792422Y-75423545D01*
X99758750Y-75322530D01*
X99758750Y-75187843D01*
X99826094Y-75053156D01*
X99893437Y-74985812D01*
X100028124Y-74918469D01*
X100095468Y-74918469D01*
X100263826Y-74615423D02*
X100701559Y-74177690D01*
X100735231Y-74682767D01*
X100836246Y-74581751D01*
X100937262Y-74548080D01*
X101004605Y-74548080D01*
X101105620Y-74581751D01*
X101273979Y-74750110D01*
X101307651Y-74851125D01*
X101307651Y-74918469D01*
X101273979Y-75019484D01*
X101071949Y-75221515D01*
X100970933Y-75255187D01*
X100903590Y-75255187D01*
X114993488Y-91353189D02*
X114993488Y-91420532D01*
X114926144Y-91555219D01*
X114858801Y-91622563D01*
X114724113Y-91689906D01*
X114589426Y-91689906D01*
X114488411Y-91656235D01*
X114320052Y-91555219D01*
X114219037Y-91454204D01*
X114118022Y-91285845D01*
X114084350Y-91184830D01*
X114084350Y-91050143D01*
X114151694Y-90915456D01*
X114219037Y-90848112D01*
X114353724Y-90780769D01*
X114421068Y-90780769D01*
X114993488Y-90073662D02*
X114656770Y-90410380D01*
X114959816Y-90780769D01*
X114959816Y-90713425D01*
X114993488Y-90612410D01*
X115161846Y-90444051D01*
X115262862Y-90410380D01*
X115330205Y-90410380D01*
X115431220Y-90444051D01*
X115599579Y-90612410D01*
X115633251Y-90713425D01*
X115633251Y-90780769D01*
X115599579Y-90881784D01*
X115431220Y-91050143D01*
X115330205Y-91083815D01*
X115262862Y-91083815D01*
X95810342Y-97791566D02*
X95857961Y-97839185D01*
X95905580Y-97982042D01*
X95905580Y-98077280D01*
X95857961Y-98220138D01*
X95762723Y-98315376D01*
X95667485Y-98362995D01*
X95477009Y-98410614D01*
X95334152Y-98410614D01*
X95143676Y-98362995D01*
X95048438Y-98315376D01*
X94953200Y-98220138D01*
X94905580Y-98077280D01*
X94905580Y-97982042D01*
X94953200Y-97839185D01*
X95000819Y-97791566D01*
X94905580Y-96934423D02*
X94905580Y-97124900D01*
X94953200Y-97220138D01*
X95000819Y-97267757D01*
X95143676Y-97362995D01*
X95334152Y-97410614D01*
X95715104Y-97410614D01*
X95810342Y-97362995D01*
X95857961Y-97315376D01*
X95905580Y-97220138D01*
X95905580Y-97029661D01*
X95857961Y-96934423D01*
X95810342Y-96886804D01*
X95715104Y-96839185D01*
X95477009Y-96839185D01*
X95381771Y-96886804D01*
X95334152Y-96934423D01*
X95286533Y-97029661D01*
X95286533Y-97220138D01*
X95334152Y-97315376D01*
X95381771Y-97362995D01*
X95477009Y-97410614D01*
X121308833Y-82335642D02*
X121261214Y-82383261D01*
X121118357Y-82430880D01*
X121023119Y-82430880D01*
X120880261Y-82383261D01*
X120785023Y-82288023D01*
X120737404Y-82192785D01*
X120689785Y-82002309D01*
X120689785Y-81859452D01*
X120737404Y-81668976D01*
X120785023Y-81573738D01*
X120880261Y-81478500D01*
X121023119Y-81430880D01*
X121118357Y-81430880D01*
X121261214Y-81478500D01*
X121308833Y-81526119D01*
X121642166Y-81430880D02*
X122308833Y-81430880D01*
X121880261Y-82430880D01*
X121372333Y-80506842D02*
X121324714Y-80554461D01*
X121181857Y-80602080D01*
X121086619Y-80602080D01*
X120943761Y-80554461D01*
X120848523Y-80459223D01*
X120800904Y-80363985D01*
X120753285Y-80173509D01*
X120753285Y-80030652D01*
X120800904Y-79840176D01*
X120848523Y-79744938D01*
X120943761Y-79649700D01*
X121086619Y-79602080D01*
X121181857Y-79602080D01*
X121324714Y-79649700D01*
X121372333Y-79697319D01*
X121943761Y-80030652D02*
X121848523Y-79983033D01*
X121800904Y-79935414D01*
X121753285Y-79840176D01*
X121753285Y-79792557D01*
X121800904Y-79697319D01*
X121848523Y-79649700D01*
X121943761Y-79602080D01*
X122134238Y-79602080D01*
X122229476Y-79649700D01*
X122277095Y-79697319D01*
X122324714Y-79792557D01*
X122324714Y-79840176D01*
X122277095Y-79935414D01*
X122229476Y-79983033D01*
X122134238Y-80030652D01*
X121943761Y-80030652D01*
X121848523Y-80078271D01*
X121800904Y-80125890D01*
X121753285Y-80221128D01*
X121753285Y-80411604D01*
X121800904Y-80506842D01*
X121848523Y-80554461D01*
X121943761Y-80602080D01*
X122134238Y-80602080D01*
X122229476Y-80554461D01*
X122277095Y-80506842D01*
X122324714Y-80411604D01*
X122324714Y-80221128D01*
X122277095Y-80125890D01*
X122229476Y-80078271D01*
X122134238Y-80030652D01*
X121016804Y-90914480D02*
X121016804Y-89914480D01*
X121254900Y-89914480D01*
X121397757Y-89962100D01*
X121492995Y-90057338D01*
X121540614Y-90152576D01*
X121588233Y-90343052D01*
X121588233Y-90485909D01*
X121540614Y-90676385D01*
X121492995Y-90771623D01*
X121397757Y-90866861D01*
X121254900Y-90914480D01*
X121016804Y-90914480D01*
X122540614Y-90914480D02*
X121969185Y-90914480D01*
X122254900Y-90914480D02*
X122254900Y-89914480D01*
X122159661Y-90057338D01*
X122064423Y-90152576D01*
X121969185Y-90200195D01*
X124023580Y-105798633D02*
X124737866Y-105798633D01*
X124880723Y-105846252D01*
X124975961Y-105941490D01*
X125023580Y-106084347D01*
X125023580Y-106179585D01*
X125023580Y-104798633D02*
X125023580Y-105370061D01*
X125023580Y-105084347D02*
X124023580Y-105084347D01*
X124166438Y-105179585D01*
X124261676Y-105274823D01*
X124309295Y-105370061D01*
D10*
X97575132Y-86014752D02*
X98006184Y-85583699D01*
X98170395Y-85747910D01*
X98190921Y-85809489D01*
X98190921Y-85850541D01*
X98170395Y-85912120D01*
X98108816Y-85973699D01*
X98047237Y-85994225D01*
X98006184Y-85994225D01*
X97944605Y-85973699D01*
X97780395Y-85809489D01*
X98231974Y-86671593D02*
X97985658Y-86425278D01*
X98108816Y-86548435D02*
X98539868Y-86117383D01*
X98437237Y-86137910D01*
X98355131Y-86137910D01*
X98293552Y-86117383D01*
D14*
X90562204Y-64307980D02*
X90562204Y-63307980D01*
X90943157Y-63307980D01*
X91038395Y-63355600D01*
X91086014Y-63403219D01*
X91133633Y-63498457D01*
X91133633Y-63641314D01*
X91086014Y-63736552D01*
X91038395Y-63784171D01*
X90943157Y-63831790D01*
X90562204Y-63831790D01*
X91514585Y-63403219D02*
X91562204Y-63355600D01*
X91657442Y-63307980D01*
X91895538Y-63307980D01*
X91990776Y-63355600D01*
X92038395Y-63403219D01*
X92086014Y-63498457D01*
X92086014Y-63593695D01*
X92038395Y-63736552D01*
X91466966Y-64307980D01*
X92086014Y-64307980D01*
X109828104Y-69083180D02*
X109828104Y-68083180D01*
X110209057Y-68083180D01*
X110304295Y-68130800D01*
X110351914Y-68178419D01*
X110399533Y-68273657D01*
X110399533Y-68416514D01*
X110351914Y-68511752D01*
X110304295Y-68559371D01*
X110209057Y-68606990D01*
X109828104Y-68606990D01*
X110732866Y-68083180D02*
X111351914Y-68083180D01*
X111018580Y-68464133D01*
X111161438Y-68464133D01*
X111256676Y-68511752D01*
X111304295Y-68559371D01*
X111351914Y-68654609D01*
X111351914Y-68892704D01*
X111304295Y-68987942D01*
X111256676Y-69035561D01*
X111161438Y-69083180D01*
X110875723Y-69083180D01*
X110780485Y-69035561D01*
X110732866Y-68987942D01*
X93915004Y-69375280D02*
X93915004Y-68375280D01*
X94295957Y-68375280D01*
X94391195Y-68422900D01*
X94438814Y-68470519D01*
X94486433Y-68565757D01*
X94486433Y-68708614D01*
X94438814Y-68803852D01*
X94391195Y-68851471D01*
X94295957Y-68899090D01*
X93915004Y-68899090D01*
X95391195Y-68375280D02*
X94915004Y-68375280D01*
X94867385Y-68851471D01*
X94915004Y-68803852D01*
X95010242Y-68756233D01*
X95248338Y-68756233D01*
X95343576Y-68803852D01*
X95391195Y-68851471D01*
X95438814Y-68946709D01*
X95438814Y-69184804D01*
X95391195Y-69280042D01*
X95343576Y-69327661D01*
X95248338Y-69375280D01*
X95010242Y-69375280D01*
X94915004Y-69327661D01*
X94867385Y-69280042D01*
X125944404Y-64079380D02*
X125944404Y-63079380D01*
X126325357Y-63079380D01*
X126420595Y-63127000D01*
X126468214Y-63174619D01*
X126515833Y-63269857D01*
X126515833Y-63412714D01*
X126468214Y-63507952D01*
X126420595Y-63555571D01*
X126325357Y-63603190D01*
X125944404Y-63603190D01*
X127372976Y-63079380D02*
X127182500Y-63079380D01*
X127087261Y-63127000D01*
X127039642Y-63174619D01*
X126944404Y-63317476D01*
X126896785Y-63507952D01*
X126896785Y-63888904D01*
X126944404Y-63984142D01*
X126992023Y-64031761D01*
X127087261Y-64079380D01*
X127277738Y-64079380D01*
X127372976Y-64031761D01*
X127420595Y-63984142D01*
X127468214Y-63888904D01*
X127468214Y-63650809D01*
X127420595Y-63555571D01*
X127372976Y-63507952D01*
X127277738Y-63460333D01*
X127087261Y-63460333D01*
X126992023Y-63507952D01*
X126944404Y-63555571D01*
X126896785Y-63650809D01*
X105205233Y-74429880D02*
X104871900Y-73953690D01*
X104633804Y-74429880D02*
X104633804Y-73429880D01*
X105014757Y-73429880D01*
X105109995Y-73477500D01*
X105157614Y-73525119D01*
X105205233Y-73620357D01*
X105205233Y-73763214D01*
X105157614Y-73858452D01*
X105109995Y-73906071D01*
X105014757Y-73953690D01*
X104633804Y-73953690D01*
X105586185Y-73525119D02*
X105633804Y-73477500D01*
X105729042Y-73429880D01*
X105967138Y-73429880D01*
X106062376Y-73477500D01*
X106109995Y-73525119D01*
X106157614Y-73620357D01*
X106157614Y-73715595D01*
X106109995Y-73858452D01*
X105538566Y-74429880D01*
X106157614Y-74429880D01*
X105294133Y-76436480D02*
X104960800Y-75960290D01*
X104722704Y-76436480D02*
X104722704Y-75436480D01*
X105103657Y-75436480D01*
X105198895Y-75484100D01*
X105246514Y-75531719D01*
X105294133Y-75626957D01*
X105294133Y-75769814D01*
X105246514Y-75865052D01*
X105198895Y-75912671D01*
X105103657Y-75960290D01*
X104722704Y-75960290D01*
X105627466Y-75436480D02*
X106246514Y-75436480D01*
X105913180Y-75817433D01*
X106056038Y-75817433D01*
X106151276Y-75865052D01*
X106198895Y-75912671D01*
X106246514Y-76007909D01*
X106246514Y-76246004D01*
X106198895Y-76341242D01*
X106151276Y-76388861D01*
X106056038Y-76436480D01*
X105770323Y-76436480D01*
X105675085Y-76388861D01*
X105627466Y-76341242D01*
X93584733Y-106141780D02*
X93251400Y-105665590D01*
X93013304Y-106141780D02*
X93013304Y-105141780D01*
X93394257Y-105141780D01*
X93489495Y-105189400D01*
X93537114Y-105237019D01*
X93584733Y-105332257D01*
X93584733Y-105475114D01*
X93537114Y-105570352D01*
X93489495Y-105617971D01*
X93394257Y-105665590D01*
X93013304Y-105665590D01*
X94441876Y-105475114D02*
X94441876Y-106141780D01*
X94203780Y-105094161D02*
X93965685Y-105808447D01*
X94584733Y-105808447D01*
X124556780Y-76836566D02*
X124080590Y-77169900D01*
X124556780Y-77407995D02*
X123556780Y-77407995D01*
X123556780Y-77027042D01*
X123604400Y-76931804D01*
X123652019Y-76884185D01*
X123747257Y-76836566D01*
X123890114Y-76836566D01*
X123985352Y-76884185D01*
X124032971Y-76931804D01*
X124080590Y-77027042D01*
X124080590Y-77407995D01*
X123556780Y-75931804D02*
X123556780Y-76407995D01*
X124032971Y-76455614D01*
X123985352Y-76407995D01*
X123937733Y-76312757D01*
X123937733Y-76074661D01*
X123985352Y-75979423D01*
X124032971Y-75931804D01*
X124128209Y-75884185D01*
X124366304Y-75884185D01*
X124461542Y-75931804D01*
X124509161Y-75979423D01*
X124556780Y-76074661D01*
X124556780Y-76312757D01*
X124509161Y-76407995D01*
X124461542Y-76455614D01*
X124610833Y-70327780D02*
X124277500Y-69851590D01*
X124039404Y-70327780D02*
X124039404Y-69327780D01*
X124420357Y-69327780D01*
X124515595Y-69375400D01*
X124563214Y-69423019D01*
X124610833Y-69518257D01*
X124610833Y-69661114D01*
X124563214Y-69756352D01*
X124515595Y-69803971D01*
X124420357Y-69851590D01*
X124039404Y-69851590D01*
X125467976Y-69327780D02*
X125277500Y-69327780D01*
X125182261Y-69375400D01*
X125134642Y-69423019D01*
X125039404Y-69565876D01*
X124991785Y-69756352D01*
X124991785Y-70137304D01*
X125039404Y-70232542D01*
X125087023Y-70280161D01*
X125182261Y-70327780D01*
X125372738Y-70327780D01*
X125467976Y-70280161D01*
X125515595Y-70232542D01*
X125563214Y-70137304D01*
X125563214Y-69899209D01*
X125515595Y-69803971D01*
X125467976Y-69756352D01*
X125372738Y-69708733D01*
X125182261Y-69708733D01*
X125087023Y-69756352D01*
X125039404Y-69803971D01*
X124991785Y-69899209D01*
X112301280Y-78246266D02*
X111825090Y-78579600D01*
X112301280Y-78817695D02*
X111301280Y-78817695D01*
X111301280Y-78436742D01*
X111348900Y-78341504D01*
X111396519Y-78293885D01*
X111491757Y-78246266D01*
X111634614Y-78246266D01*
X111729852Y-78293885D01*
X111777471Y-78341504D01*
X111825090Y-78436742D01*
X111825090Y-78817695D01*
X111301280Y-77912933D02*
X111301280Y-77246266D01*
X112301280Y-77674838D01*
X93508461Y-109626233D02*
X93556080Y-109483376D01*
X93556080Y-109245280D01*
X93508461Y-109150042D01*
X93460842Y-109102423D01*
X93365604Y-109054804D01*
X93270366Y-109054804D01*
X93175128Y-109102423D01*
X93127509Y-109150042D01*
X93079890Y-109245280D01*
X93032271Y-109435757D01*
X92984652Y-109530995D01*
X92937033Y-109578614D01*
X92841795Y-109626233D01*
X92746557Y-109626233D01*
X92651319Y-109578614D01*
X92603700Y-109530995D01*
X92556080Y-109435757D01*
X92556080Y-109197661D01*
X92603700Y-109054804D01*
X92556080Y-108721471D02*
X93556080Y-108483376D01*
X92841795Y-108292900D01*
X93556080Y-108102423D01*
X92556080Y-107864328D01*
X93556080Y-106959566D02*
X93556080Y-107530995D01*
X93556080Y-107245280D02*
X92556080Y-107245280D01*
X92698938Y-107340519D01*
X92794176Y-107435757D01*
X92841795Y-107530995D01*
X97674180Y-101701504D02*
X98483704Y-101701504D01*
X98578942Y-101653885D01*
X98626561Y-101606266D01*
X98674180Y-101511028D01*
X98674180Y-101320552D01*
X98626561Y-101225314D01*
X98578942Y-101177695D01*
X98483704Y-101130076D01*
X97674180Y-101130076D01*
X98674180Y-100130076D02*
X98674180Y-100701504D01*
X98674180Y-100415790D02*
X97674180Y-100415790D01*
X97817038Y-100511028D01*
X97912276Y-100606266D01*
X97959895Y-100701504D01*
X112228873Y-79632030D02*
X111656453Y-80204450D01*
X111622781Y-80305465D01*
X111622781Y-80372809D01*
X111656453Y-80473824D01*
X111791140Y-80608511D01*
X111892155Y-80642183D01*
X111959499Y-80642183D01*
X112060514Y-80608511D01*
X112632934Y-80036091D01*
X112868636Y-80406481D02*
X112935979Y-80406481D01*
X113036995Y-80440152D01*
X113205353Y-80608511D01*
X113239025Y-80709526D01*
X113239025Y-80776870D01*
X113205353Y-80877885D01*
X113138010Y-80945229D01*
X113003323Y-81012572D01*
X112195201Y-81012572D01*
X112632934Y-81450305D01*
X114782695Y-79411580D02*
X114782695Y-80221104D01*
X114830314Y-80316342D01*
X114877933Y-80363961D01*
X114973171Y-80411580D01*
X115163647Y-80411580D01*
X115258885Y-80363961D01*
X115306504Y-80316342D01*
X115354123Y-80221104D01*
X115354123Y-79411580D01*
X115735076Y-79411580D02*
X116354123Y-79411580D01*
X116020790Y-79792533D01*
X116163647Y-79792533D01*
X116258885Y-79840152D01*
X116306504Y-79887771D01*
X116354123Y-79983009D01*
X116354123Y-80221104D01*
X116306504Y-80316342D01*
X116258885Y-80363961D01*
X116163647Y-80411580D01*
X115877933Y-80411580D01*
X115782695Y-80363961D01*
X115735076Y-80316342D01*
M02*
